G04 EAGLE Gerber RS-274X export*
G75*
%MOMM*%
%FSLAX34Y34*%
%LPD*%
%IN*%
%IPPOS*%
%AMOC8*
5,1,8,0,0,1.08239X$1,22.5*%
G01*
%ADD10C,0.254000*%


D10*
X28100Y460375D02*
X604000Y460375D01*
X604000Y889350D01*
X28100Y889350D01*
X28100Y460375D01*
X531965Y472440D02*
X531975Y472222D01*
X532003Y472006D01*
X532050Y471793D01*
X532116Y471585D01*
X532199Y471383D01*
X532300Y471190D01*
X532417Y471006D01*
X532550Y470833D01*
X532697Y470672D01*
X532858Y470525D01*
X533031Y470392D01*
X533215Y470275D01*
X533408Y470174D01*
X533610Y470091D01*
X533818Y470025D01*
X534031Y469978D01*
X534247Y469950D01*
X534465Y469940D01*
X534683Y469950D01*
X534899Y469978D01*
X535112Y470025D01*
X535320Y470091D01*
X535522Y470174D01*
X535715Y470275D01*
X535899Y470392D01*
X536072Y470525D01*
X536233Y470672D01*
X536380Y470833D01*
X536513Y471006D01*
X536630Y471190D01*
X536731Y471383D01*
X536814Y471585D01*
X536880Y471793D01*
X536927Y472006D01*
X536956Y472222D01*
X536965Y472440D01*
X536965Y478940D01*
X536956Y479158D01*
X536927Y479374D01*
X536880Y479587D01*
X536814Y479795D01*
X536731Y479997D01*
X536630Y480190D01*
X536513Y480374D01*
X536380Y480547D01*
X536233Y480708D01*
X536072Y480855D01*
X535899Y480988D01*
X535715Y481105D01*
X535522Y481206D01*
X535320Y481289D01*
X535112Y481355D01*
X534899Y481402D01*
X534683Y481431D01*
X534465Y481440D01*
X534247Y481431D01*
X534031Y481402D01*
X533818Y481355D01*
X533610Y481289D01*
X533408Y481206D01*
X533215Y481105D01*
X533031Y480988D01*
X532858Y480855D01*
X532697Y480708D01*
X532550Y480547D01*
X532417Y480374D01*
X532300Y480190D01*
X532199Y479997D01*
X532116Y479795D01*
X532050Y479587D01*
X532003Y479374D01*
X531975Y479158D01*
X531965Y478940D01*
X531965Y472440D01*
X461965Y472440D02*
X461975Y472222D01*
X462003Y472006D01*
X462050Y471793D01*
X462116Y471585D01*
X462199Y471383D01*
X462300Y471190D01*
X462417Y471006D01*
X462550Y470833D01*
X462697Y470672D01*
X462858Y470525D01*
X463031Y470392D01*
X463215Y470275D01*
X463408Y470174D01*
X463610Y470091D01*
X463818Y470025D01*
X464031Y469978D01*
X464247Y469950D01*
X464465Y469940D01*
X464683Y469950D01*
X464899Y469978D01*
X465112Y470025D01*
X465320Y470091D01*
X465522Y470174D01*
X465715Y470275D01*
X465899Y470392D01*
X466072Y470525D01*
X466233Y470672D01*
X466380Y470833D01*
X466513Y471006D01*
X466630Y471190D01*
X466731Y471383D01*
X466814Y471585D01*
X466880Y471793D01*
X466927Y472006D01*
X466956Y472222D01*
X466965Y472440D01*
X466965Y478940D01*
X466956Y479158D01*
X466927Y479374D01*
X466880Y479587D01*
X466814Y479795D01*
X466731Y479997D01*
X466630Y480190D01*
X466513Y480374D01*
X466380Y480547D01*
X466233Y480708D01*
X466072Y480855D01*
X465899Y480988D01*
X465715Y481105D01*
X465522Y481206D01*
X465320Y481289D01*
X465112Y481355D01*
X464899Y481402D01*
X464683Y481431D01*
X464465Y481440D01*
X464247Y481431D01*
X464031Y481402D01*
X463818Y481355D01*
X463610Y481289D01*
X463408Y481206D01*
X463215Y481105D01*
X463031Y480988D01*
X462858Y480855D01*
X462697Y480708D01*
X462550Y480547D01*
X462417Y480374D01*
X462300Y480190D01*
X462199Y479997D01*
X462116Y479795D01*
X462050Y479587D01*
X462003Y479374D01*
X461975Y479158D01*
X461965Y478940D01*
X461965Y472440D01*
X472965Y499940D02*
X475965Y499940D01*
X476205Y499950D01*
X476443Y499982D01*
X476677Y500034D01*
X476906Y500106D01*
X477127Y500198D01*
X477340Y500308D01*
X477542Y500437D01*
X477733Y500583D01*
X477910Y500745D01*
X478072Y500922D01*
X478218Y501113D01*
X478347Y501315D01*
X478457Y501528D01*
X478549Y501749D01*
X478621Y501978D01*
X478673Y502212D01*
X478705Y502450D01*
X478715Y502690D01*
X478705Y502930D01*
X478673Y503168D01*
X478621Y503402D01*
X478549Y503631D01*
X478457Y503852D01*
X478347Y504065D01*
X478218Y504267D01*
X478072Y504458D01*
X477910Y504635D01*
X477733Y504797D01*
X477542Y504943D01*
X477340Y505072D01*
X477127Y505182D01*
X476906Y505274D01*
X476677Y505346D01*
X476443Y505398D01*
X476205Y505430D01*
X475965Y505440D01*
X472965Y505440D01*
X472725Y505430D01*
X472487Y505398D01*
X472253Y505346D01*
X472024Y505274D01*
X471803Y505182D01*
X471590Y505072D01*
X471388Y504943D01*
X471197Y504797D01*
X471020Y504635D01*
X470858Y504458D01*
X470712Y504267D01*
X470583Y504065D01*
X470473Y503852D01*
X470381Y503631D01*
X470309Y503402D01*
X470257Y503168D01*
X470225Y502930D01*
X470215Y502690D01*
X470225Y502450D01*
X470257Y502212D01*
X470309Y501978D01*
X470381Y501749D01*
X470473Y501528D01*
X470583Y501315D01*
X470712Y501113D01*
X470858Y500922D01*
X471020Y500745D01*
X471197Y500583D01*
X471388Y500437D01*
X471590Y500308D01*
X471803Y500198D01*
X472024Y500106D01*
X472253Y500034D01*
X472487Y499982D01*
X472725Y499950D01*
X472965Y499940D01*
X522965Y499940D02*
X525965Y499940D01*
X526205Y499950D01*
X526443Y499982D01*
X526677Y500034D01*
X526906Y500106D01*
X527127Y500198D01*
X527340Y500308D01*
X527542Y500437D01*
X527733Y500583D01*
X527910Y500745D01*
X528072Y500922D01*
X528218Y501113D01*
X528347Y501315D01*
X528457Y501528D01*
X528549Y501749D01*
X528621Y501978D01*
X528673Y502212D01*
X528705Y502450D01*
X528715Y502690D01*
X528705Y502930D01*
X528673Y503168D01*
X528621Y503402D01*
X528549Y503631D01*
X528457Y503852D01*
X528347Y504065D01*
X528218Y504267D01*
X528072Y504458D01*
X527910Y504635D01*
X527733Y504797D01*
X527542Y504943D01*
X527340Y505072D01*
X527127Y505182D01*
X526906Y505274D01*
X526677Y505346D01*
X526443Y505398D01*
X526205Y505430D01*
X525965Y505440D01*
X522965Y505440D01*
X522725Y505430D01*
X522487Y505398D01*
X522253Y505346D01*
X522024Y505274D01*
X521803Y505182D01*
X521590Y505072D01*
X521388Y504943D01*
X521197Y504797D01*
X521020Y504635D01*
X520858Y504458D01*
X520712Y504267D01*
X520583Y504065D01*
X520473Y503852D01*
X520381Y503631D01*
X520309Y503402D01*
X520257Y503168D01*
X520225Y502930D01*
X520215Y502690D01*
X520225Y502450D01*
X520257Y502212D01*
X520309Y501978D01*
X520381Y501749D01*
X520473Y501528D01*
X520583Y501315D01*
X520712Y501113D01*
X520858Y500922D01*
X521020Y500745D01*
X521197Y500583D01*
X521388Y500437D01*
X521590Y500308D01*
X521803Y500198D01*
X522024Y500106D01*
X522253Y500034D01*
X522487Y499982D01*
X522725Y499950D01*
X522965Y499940D01*
X81625Y491696D02*
X81552Y490489D01*
X81406Y489289D01*
X81188Y488100D01*
X80899Y486927D01*
X80540Y485773D01*
X80111Y484643D01*
X79615Y483541D01*
X79053Y482470D01*
X78428Y481436D01*
X77741Y480441D01*
X76996Y479490D01*
X76194Y478585D01*
X75340Y477731D01*
X74435Y476929D01*
X73484Y476184D01*
X72489Y475497D01*
X71455Y474872D01*
X70384Y474310D01*
X69282Y473814D01*
X68152Y473385D01*
X66998Y473026D01*
X65825Y472737D01*
X64636Y472519D01*
X63436Y472373D01*
X62229Y472300D01*
X61021Y472300D01*
X59814Y472373D01*
X58614Y472519D01*
X57425Y472737D01*
X56252Y473026D01*
X55098Y473385D01*
X53968Y473814D01*
X52866Y474310D01*
X51795Y474872D01*
X50761Y475497D01*
X49766Y476184D01*
X48815Y476929D01*
X47910Y477731D01*
X47056Y478585D01*
X46254Y479490D01*
X45509Y480441D01*
X44822Y481436D01*
X44197Y482470D01*
X43635Y483541D01*
X43139Y484643D01*
X42710Y485773D01*
X42351Y486927D01*
X42062Y488100D01*
X41844Y489289D01*
X41698Y490489D01*
X41625Y491696D01*
X41625Y492904D01*
X41698Y494111D01*
X41844Y495311D01*
X42062Y496500D01*
X42351Y497673D01*
X42710Y498827D01*
X43139Y499957D01*
X43635Y501059D01*
X44197Y502130D01*
X44822Y503164D01*
X45509Y504159D01*
X46254Y505110D01*
X47056Y506015D01*
X47910Y506869D01*
X48815Y507671D01*
X49766Y508416D01*
X50761Y509103D01*
X51795Y509728D01*
X52866Y510290D01*
X53968Y510786D01*
X55098Y511215D01*
X56252Y511574D01*
X57425Y511863D01*
X58614Y512081D01*
X59814Y512227D01*
X61021Y512300D01*
X62229Y512300D01*
X63436Y512227D01*
X64636Y512081D01*
X65825Y511863D01*
X66998Y511574D01*
X68152Y511215D01*
X69282Y510786D01*
X70384Y510290D01*
X71455Y509728D01*
X72489Y509103D01*
X73484Y508416D01*
X74435Y507671D01*
X75340Y506869D01*
X76194Y506015D01*
X76996Y505110D01*
X77741Y504159D01*
X78428Y503164D01*
X79053Y502130D01*
X79615Y501059D01*
X80111Y499957D01*
X80540Y498827D01*
X80899Y497673D01*
X81188Y496500D01*
X81406Y495311D01*
X81552Y494111D01*
X81625Y492904D01*
X81625Y491696D01*
X80000Y859871D02*
X79927Y858664D01*
X79781Y857464D01*
X79563Y856275D01*
X79274Y855102D01*
X78915Y853948D01*
X78486Y852818D01*
X77990Y851716D01*
X77428Y850645D01*
X76803Y849611D01*
X76116Y848616D01*
X75371Y847665D01*
X74569Y846760D01*
X73715Y845906D01*
X72810Y845104D01*
X71859Y844359D01*
X70864Y843672D01*
X69830Y843047D01*
X68759Y842485D01*
X67657Y841989D01*
X66527Y841560D01*
X65373Y841201D01*
X64200Y840912D01*
X63011Y840694D01*
X61811Y840548D01*
X60604Y840475D01*
X59396Y840475D01*
X58189Y840548D01*
X56989Y840694D01*
X55800Y840912D01*
X54627Y841201D01*
X53473Y841560D01*
X52343Y841989D01*
X51241Y842485D01*
X50170Y843047D01*
X49136Y843672D01*
X48141Y844359D01*
X47190Y845104D01*
X46285Y845906D01*
X45431Y846760D01*
X44629Y847665D01*
X43884Y848616D01*
X43197Y849611D01*
X42572Y850645D01*
X42010Y851716D01*
X41514Y852818D01*
X41085Y853948D01*
X40726Y855102D01*
X40437Y856275D01*
X40219Y857464D01*
X40073Y858664D01*
X40000Y859871D01*
X40000Y861079D01*
X40073Y862286D01*
X40219Y863486D01*
X40437Y864675D01*
X40726Y865848D01*
X41085Y867002D01*
X41514Y868132D01*
X42010Y869234D01*
X42572Y870305D01*
X43197Y871339D01*
X43884Y872334D01*
X44629Y873285D01*
X45431Y874190D01*
X46285Y875044D01*
X47190Y875846D01*
X48141Y876591D01*
X49136Y877278D01*
X50170Y877903D01*
X51241Y878465D01*
X52343Y878961D01*
X53473Y879390D01*
X54627Y879749D01*
X55800Y880038D01*
X56989Y880256D01*
X58189Y880402D01*
X59396Y880475D01*
X60604Y880475D01*
X61811Y880402D01*
X63011Y880256D01*
X64200Y880038D01*
X65373Y879749D01*
X66527Y879390D01*
X67657Y878961D01*
X68759Y878465D01*
X69830Y877903D01*
X70864Y877278D01*
X71859Y876591D01*
X72810Y875846D01*
X73715Y875044D01*
X74569Y874190D01*
X75371Y873285D01*
X76116Y872334D01*
X76803Y871339D01*
X77428Y870305D01*
X77990Y869234D01*
X78486Y868132D01*
X78915Y867002D01*
X79274Y865848D01*
X79563Y864675D01*
X79781Y863486D01*
X79927Y862286D01*
X80000Y861079D01*
X80000Y859871D01*
X590000Y859871D02*
X589927Y858664D01*
X589781Y857464D01*
X589563Y856275D01*
X589274Y855102D01*
X588915Y853948D01*
X588486Y852818D01*
X587990Y851716D01*
X587428Y850645D01*
X586803Y849611D01*
X586116Y848616D01*
X585371Y847665D01*
X584569Y846760D01*
X583715Y845906D01*
X582810Y845104D01*
X581859Y844359D01*
X580864Y843672D01*
X579830Y843047D01*
X578759Y842485D01*
X577657Y841989D01*
X576527Y841560D01*
X575373Y841201D01*
X574200Y840912D01*
X573011Y840694D01*
X571811Y840548D01*
X570604Y840475D01*
X569396Y840475D01*
X568189Y840548D01*
X566989Y840694D01*
X565800Y840912D01*
X564627Y841201D01*
X563473Y841560D01*
X562343Y841989D01*
X561241Y842485D01*
X560170Y843047D01*
X559136Y843672D01*
X558141Y844359D01*
X557190Y845104D01*
X556285Y845906D01*
X555431Y846760D01*
X554629Y847665D01*
X553884Y848616D01*
X553197Y849611D01*
X552572Y850645D01*
X552010Y851716D01*
X551514Y852818D01*
X551085Y853948D01*
X550726Y855102D01*
X550437Y856275D01*
X550219Y857464D01*
X550073Y858664D01*
X550000Y859871D01*
X550000Y861079D01*
X550073Y862286D01*
X550219Y863486D01*
X550437Y864675D01*
X550726Y865848D01*
X551085Y867002D01*
X551514Y868132D01*
X552010Y869234D01*
X552572Y870305D01*
X553197Y871339D01*
X553884Y872334D01*
X554629Y873285D01*
X555431Y874190D01*
X556285Y875044D01*
X557190Y875846D01*
X558141Y876591D01*
X559136Y877278D01*
X560170Y877903D01*
X561241Y878465D01*
X562343Y878961D01*
X563473Y879390D01*
X564627Y879749D01*
X565800Y880038D01*
X566989Y880256D01*
X568189Y880402D01*
X569396Y880475D01*
X570604Y880475D01*
X571811Y880402D01*
X573011Y880256D01*
X574200Y880038D01*
X575373Y879749D01*
X576527Y879390D01*
X577657Y878961D01*
X578759Y878465D01*
X579830Y877903D01*
X580864Y877278D01*
X581859Y876591D01*
X582810Y875846D01*
X583715Y875044D01*
X584569Y874190D01*
X585371Y873285D01*
X586116Y872334D01*
X586803Y871339D01*
X587428Y870305D01*
X587990Y869234D01*
X588486Y868132D01*
X588915Y867002D01*
X589274Y865848D01*
X589563Y864675D01*
X589781Y863486D01*
X589927Y862286D01*
X590000Y861079D01*
X590000Y859871D01*
X591625Y491696D02*
X591552Y490489D01*
X591406Y489289D01*
X591188Y488100D01*
X590899Y486927D01*
X590540Y485773D01*
X590111Y484643D01*
X589615Y483541D01*
X589053Y482470D01*
X588428Y481436D01*
X587741Y480441D01*
X586996Y479490D01*
X586194Y478585D01*
X585340Y477731D01*
X584435Y476929D01*
X583484Y476184D01*
X582489Y475497D01*
X581455Y474872D01*
X580384Y474310D01*
X579282Y473814D01*
X578152Y473385D01*
X576998Y473026D01*
X575825Y472737D01*
X574636Y472519D01*
X573436Y472373D01*
X572229Y472300D01*
X571021Y472300D01*
X569814Y472373D01*
X568614Y472519D01*
X567425Y472737D01*
X566252Y473026D01*
X565098Y473385D01*
X563968Y473814D01*
X562866Y474310D01*
X561795Y474872D01*
X560761Y475497D01*
X559766Y476184D01*
X558815Y476929D01*
X557910Y477731D01*
X557056Y478585D01*
X556254Y479490D01*
X555509Y480441D01*
X554822Y481436D01*
X554197Y482470D01*
X553635Y483541D01*
X553139Y484643D01*
X552710Y485773D01*
X552351Y486927D01*
X552062Y488100D01*
X551844Y489289D01*
X551698Y490489D01*
X551625Y491696D01*
X551625Y492904D01*
X551698Y494111D01*
X551844Y495311D01*
X552062Y496500D01*
X552351Y497673D01*
X552710Y498827D01*
X553139Y499957D01*
X553635Y501059D01*
X554197Y502130D01*
X554822Y503164D01*
X555509Y504159D01*
X556254Y505110D01*
X557056Y506015D01*
X557910Y506869D01*
X558815Y507671D01*
X559766Y508416D01*
X560761Y509103D01*
X561795Y509728D01*
X562866Y510290D01*
X563968Y510786D01*
X565098Y511215D01*
X566252Y511574D01*
X567425Y511863D01*
X568614Y512081D01*
X569814Y512227D01*
X571021Y512300D01*
X572229Y512300D01*
X573436Y512227D01*
X574636Y512081D01*
X575825Y511863D01*
X576998Y511574D01*
X578152Y511215D01*
X579282Y510786D01*
X580384Y510290D01*
X581455Y509728D01*
X582489Y509103D01*
X583484Y508416D01*
X584435Y507671D01*
X585340Y506869D01*
X586194Y506015D01*
X586996Y505110D01*
X587741Y504159D01*
X588428Y503164D01*
X589053Y502130D01*
X589615Y501059D01*
X590111Y499957D01*
X590540Y498827D01*
X590899Y497673D01*
X591188Y496500D01*
X591406Y495311D01*
X591552Y494111D01*
X591625Y492904D01*
X591625Y491696D01*
M02*
