G04 EAGLE Gerber RS-274X export*
G75*
%MOMM*%
%FSLAX34Y34*%
%LPD*%
%INSilkscreen Bottom*%
%IPPOS*%
%AMOC8*
5,1,8,0,0,1.08239X$1,22.5*%
G01*
%ADD10C,0.254000*%
%ADD11C,0.101600*%
%ADD12C,0.076200*%
%ADD13C,0.127000*%
%ADD14C,0.200000*%


D10*
X450575Y518950D02*
X450575Y461450D01*
X276575Y461450D01*
X276575Y518950D01*
X450575Y518950D01*
X300575Y518375D02*
X300575Y513375D01*
X427575Y513375D02*
X427575Y518375D01*
D11*
X270517Y468922D02*
X261373Y468922D01*
X266453Y468922D02*
X266453Y474002D01*
X270517Y474002D02*
X261373Y474002D01*
X261373Y477862D02*
X270517Y480910D01*
X261373Y483958D01*
X263659Y483196D02*
X263659Y478624D01*
X261373Y487840D02*
X270517Y487840D01*
X261373Y487840D02*
X261373Y491904D01*
X261373Y495764D02*
X270517Y495764D01*
X261373Y495764D02*
X261373Y499828D01*
X260357Y502957D02*
X260357Y507021D01*
X261373Y510171D02*
X270517Y513219D01*
X261373Y516267D01*
X263659Y515505D02*
X263659Y510933D01*
X535253Y539141D02*
X546937Y539141D01*
X546937Y542387D01*
X546935Y542500D01*
X546929Y542613D01*
X546919Y542726D01*
X546905Y542839D01*
X546888Y542951D01*
X546866Y543062D01*
X546841Y543172D01*
X546811Y543282D01*
X546778Y543390D01*
X546741Y543497D01*
X546701Y543603D01*
X546656Y543707D01*
X546608Y543810D01*
X546557Y543911D01*
X546502Y544010D01*
X546444Y544107D01*
X546382Y544202D01*
X546317Y544295D01*
X546249Y544385D01*
X546178Y544473D01*
X546103Y544559D01*
X546026Y544642D01*
X545946Y544722D01*
X545863Y544799D01*
X545777Y544874D01*
X545689Y544945D01*
X545599Y545013D01*
X545506Y545078D01*
X545411Y545140D01*
X545314Y545198D01*
X545215Y545253D01*
X545114Y545304D01*
X545011Y545352D01*
X544907Y545397D01*
X544801Y545437D01*
X544694Y545474D01*
X544586Y545507D01*
X544476Y545537D01*
X544366Y545562D01*
X544255Y545584D01*
X544143Y545601D01*
X544030Y545615D01*
X543917Y545625D01*
X543804Y545631D01*
X543691Y545633D01*
X543578Y545631D01*
X543465Y545625D01*
X543352Y545615D01*
X543239Y545601D01*
X543127Y545584D01*
X543016Y545562D01*
X542906Y545537D01*
X542796Y545507D01*
X542688Y545474D01*
X542581Y545437D01*
X542475Y545397D01*
X542371Y545352D01*
X542268Y545304D01*
X542167Y545253D01*
X542068Y545198D01*
X541971Y545140D01*
X541876Y545078D01*
X541783Y545013D01*
X541693Y544945D01*
X541605Y544874D01*
X541519Y544799D01*
X541436Y544722D01*
X541356Y544642D01*
X541279Y544559D01*
X541204Y544473D01*
X541133Y544385D01*
X541065Y544295D01*
X541000Y544202D01*
X540938Y544107D01*
X540880Y544010D01*
X540825Y543911D01*
X540774Y543810D01*
X540726Y543707D01*
X540681Y543603D01*
X540641Y543497D01*
X540604Y543390D01*
X540571Y543282D01*
X540541Y543172D01*
X540516Y543062D01*
X540494Y542951D01*
X540477Y542839D01*
X540463Y542726D01*
X540453Y542613D01*
X540447Y542500D01*
X540445Y542387D01*
X540446Y542387D02*
X540446Y539141D01*
X540446Y543036D02*
X535253Y545632D01*
X535253Y550497D02*
X535253Y554392D01*
X535255Y554491D01*
X535261Y554591D01*
X535270Y554690D01*
X535283Y554788D01*
X535300Y554886D01*
X535321Y554984D01*
X535346Y555080D01*
X535374Y555175D01*
X535406Y555269D01*
X535441Y555362D01*
X535480Y555454D01*
X535523Y555544D01*
X535568Y555632D01*
X535618Y555719D01*
X535670Y555803D01*
X535726Y555886D01*
X535784Y555966D01*
X535846Y556044D01*
X535911Y556119D01*
X535979Y556192D01*
X536049Y556262D01*
X536122Y556330D01*
X536197Y556395D01*
X536275Y556457D01*
X536355Y556515D01*
X536438Y556571D01*
X536522Y556623D01*
X536609Y556673D01*
X536697Y556718D01*
X536787Y556761D01*
X536879Y556800D01*
X536972Y556835D01*
X537066Y556867D01*
X537161Y556895D01*
X537257Y556920D01*
X537355Y556941D01*
X537453Y556958D01*
X537551Y556971D01*
X537650Y556980D01*
X537750Y556986D01*
X537849Y556988D01*
X539148Y556988D01*
X539247Y556986D01*
X539347Y556980D01*
X539446Y556971D01*
X539544Y556958D01*
X539642Y556941D01*
X539740Y556920D01*
X539836Y556895D01*
X539931Y556867D01*
X540025Y556835D01*
X540118Y556800D01*
X540210Y556761D01*
X540300Y556718D01*
X540388Y556673D01*
X540475Y556623D01*
X540559Y556571D01*
X540642Y556515D01*
X540722Y556457D01*
X540800Y556395D01*
X540875Y556330D01*
X540948Y556262D01*
X541018Y556192D01*
X541086Y556119D01*
X541151Y556044D01*
X541213Y555966D01*
X541271Y555886D01*
X541327Y555803D01*
X541379Y555719D01*
X541429Y555632D01*
X541474Y555544D01*
X541517Y555454D01*
X541556Y555362D01*
X541591Y555269D01*
X541623Y555175D01*
X541651Y555080D01*
X541676Y554984D01*
X541697Y554886D01*
X541714Y554788D01*
X541727Y554690D01*
X541736Y554591D01*
X541742Y554491D01*
X541744Y554392D01*
X541744Y550497D01*
X546937Y550497D01*
X546937Y556988D01*
X517854Y539343D02*
X506170Y539343D01*
X517854Y539343D02*
X517854Y542589D01*
X517852Y542702D01*
X517846Y542815D01*
X517836Y542928D01*
X517822Y543041D01*
X517805Y543153D01*
X517783Y543264D01*
X517758Y543374D01*
X517728Y543484D01*
X517695Y543592D01*
X517658Y543699D01*
X517618Y543805D01*
X517573Y543909D01*
X517525Y544012D01*
X517474Y544113D01*
X517419Y544212D01*
X517361Y544309D01*
X517299Y544404D01*
X517234Y544497D01*
X517166Y544587D01*
X517095Y544675D01*
X517020Y544761D01*
X516943Y544844D01*
X516863Y544924D01*
X516780Y545001D01*
X516694Y545076D01*
X516606Y545147D01*
X516516Y545215D01*
X516423Y545280D01*
X516328Y545342D01*
X516231Y545400D01*
X516132Y545455D01*
X516031Y545506D01*
X515928Y545554D01*
X515824Y545599D01*
X515718Y545639D01*
X515611Y545676D01*
X515503Y545709D01*
X515393Y545739D01*
X515283Y545764D01*
X515172Y545786D01*
X515060Y545803D01*
X514947Y545817D01*
X514834Y545827D01*
X514721Y545833D01*
X514608Y545835D01*
X514495Y545833D01*
X514382Y545827D01*
X514269Y545817D01*
X514156Y545803D01*
X514044Y545786D01*
X513933Y545764D01*
X513823Y545739D01*
X513713Y545709D01*
X513605Y545676D01*
X513498Y545639D01*
X513392Y545599D01*
X513288Y545554D01*
X513185Y545506D01*
X513084Y545455D01*
X512985Y545400D01*
X512888Y545342D01*
X512793Y545280D01*
X512700Y545215D01*
X512610Y545147D01*
X512522Y545076D01*
X512436Y545001D01*
X512353Y544924D01*
X512273Y544844D01*
X512196Y544761D01*
X512121Y544675D01*
X512050Y544587D01*
X511982Y544497D01*
X511917Y544404D01*
X511855Y544309D01*
X511797Y544212D01*
X511742Y544113D01*
X511691Y544012D01*
X511643Y543909D01*
X511598Y543805D01*
X511558Y543699D01*
X511521Y543592D01*
X511488Y543484D01*
X511458Y543374D01*
X511433Y543264D01*
X511411Y543153D01*
X511394Y543041D01*
X511380Y542928D01*
X511370Y542815D01*
X511364Y542702D01*
X511362Y542589D01*
X511363Y542589D02*
X511363Y539343D01*
X511363Y543238D02*
X506170Y545834D01*
X512661Y550699D02*
X512661Y554594D01*
X512659Y554693D01*
X512653Y554793D01*
X512644Y554892D01*
X512631Y554990D01*
X512614Y555088D01*
X512593Y555186D01*
X512568Y555282D01*
X512540Y555377D01*
X512508Y555471D01*
X512473Y555564D01*
X512434Y555656D01*
X512391Y555746D01*
X512346Y555834D01*
X512296Y555921D01*
X512244Y556005D01*
X512188Y556088D01*
X512130Y556168D01*
X512068Y556246D01*
X512003Y556321D01*
X511935Y556394D01*
X511865Y556464D01*
X511792Y556532D01*
X511717Y556597D01*
X511639Y556659D01*
X511559Y556717D01*
X511476Y556773D01*
X511392Y556825D01*
X511305Y556875D01*
X511217Y556920D01*
X511127Y556963D01*
X511035Y557002D01*
X510942Y557037D01*
X510848Y557069D01*
X510753Y557097D01*
X510657Y557122D01*
X510559Y557143D01*
X510461Y557160D01*
X510363Y557173D01*
X510264Y557182D01*
X510164Y557188D01*
X510065Y557190D01*
X509416Y557190D01*
X509416Y557191D02*
X509303Y557189D01*
X509190Y557183D01*
X509077Y557173D01*
X508964Y557159D01*
X508852Y557142D01*
X508741Y557120D01*
X508631Y557095D01*
X508521Y557065D01*
X508413Y557032D01*
X508306Y556995D01*
X508200Y556955D01*
X508096Y556910D01*
X507993Y556862D01*
X507892Y556811D01*
X507793Y556756D01*
X507696Y556698D01*
X507601Y556636D01*
X507508Y556571D01*
X507418Y556503D01*
X507330Y556432D01*
X507244Y556357D01*
X507161Y556280D01*
X507081Y556200D01*
X507004Y556117D01*
X506929Y556031D01*
X506858Y555943D01*
X506790Y555853D01*
X506725Y555760D01*
X506663Y555665D01*
X506605Y555568D01*
X506550Y555469D01*
X506499Y555368D01*
X506451Y555265D01*
X506406Y555161D01*
X506366Y555055D01*
X506329Y554948D01*
X506296Y554840D01*
X506266Y554730D01*
X506241Y554620D01*
X506219Y554509D01*
X506202Y554397D01*
X506188Y554284D01*
X506178Y554171D01*
X506172Y554058D01*
X506170Y553945D01*
X506172Y553832D01*
X506178Y553719D01*
X506188Y553606D01*
X506202Y553493D01*
X506219Y553381D01*
X506241Y553270D01*
X506266Y553160D01*
X506296Y553050D01*
X506329Y552942D01*
X506366Y552835D01*
X506406Y552729D01*
X506451Y552625D01*
X506499Y552522D01*
X506550Y552421D01*
X506605Y552322D01*
X506663Y552225D01*
X506725Y552130D01*
X506790Y552037D01*
X506858Y551947D01*
X506929Y551859D01*
X507004Y551773D01*
X507081Y551690D01*
X507161Y551610D01*
X507244Y551533D01*
X507330Y551458D01*
X507418Y551387D01*
X507508Y551319D01*
X507601Y551254D01*
X507696Y551192D01*
X507793Y551134D01*
X507892Y551079D01*
X507993Y551028D01*
X508096Y550980D01*
X508200Y550935D01*
X508306Y550895D01*
X508413Y550858D01*
X508521Y550825D01*
X508631Y550795D01*
X508741Y550770D01*
X508852Y550748D01*
X508964Y550731D01*
X509077Y550717D01*
X509190Y550707D01*
X509303Y550701D01*
X509416Y550699D01*
X512661Y550699D01*
X512804Y550701D01*
X512947Y550707D01*
X513090Y550717D01*
X513232Y550731D01*
X513374Y550748D01*
X513516Y550770D01*
X513657Y550795D01*
X513797Y550825D01*
X513936Y550858D01*
X514074Y550895D01*
X514211Y550936D01*
X514347Y550980D01*
X514482Y551029D01*
X514615Y551081D01*
X514747Y551136D01*
X514877Y551196D01*
X515006Y551259D01*
X515133Y551325D01*
X515257Y551395D01*
X515380Y551468D01*
X515501Y551545D01*
X515620Y551625D01*
X515736Y551708D01*
X515851Y551794D01*
X515962Y551883D01*
X516072Y551976D01*
X516178Y552071D01*
X516282Y552170D01*
X516383Y552271D01*
X516482Y552375D01*
X516577Y552481D01*
X516670Y552591D01*
X516759Y552702D01*
X516845Y552817D01*
X516928Y552933D01*
X517008Y553052D01*
X517085Y553173D01*
X517158Y553295D01*
X517228Y553420D01*
X517294Y553547D01*
X517357Y553676D01*
X517417Y553806D01*
X517472Y553938D01*
X517524Y554071D01*
X517573Y554206D01*
X517617Y554342D01*
X517658Y554479D01*
X517695Y554617D01*
X517728Y554756D01*
X517758Y554896D01*
X517783Y555037D01*
X517805Y555179D01*
X517822Y555321D01*
X517836Y555463D01*
X517846Y555606D01*
X517852Y555749D01*
X517854Y555892D01*
D12*
X552993Y535852D02*
X555081Y535852D01*
X555170Y535854D01*
X555258Y535860D01*
X555346Y535869D01*
X555434Y535882D01*
X555521Y535899D01*
X555607Y535919D01*
X555692Y535944D01*
X555777Y535971D01*
X555860Y536003D01*
X555941Y536037D01*
X556021Y536076D01*
X556099Y536117D01*
X556176Y536162D01*
X556250Y536210D01*
X556323Y536261D01*
X556393Y536315D01*
X556460Y536373D01*
X556526Y536433D01*
X556588Y536495D01*
X556648Y536561D01*
X556706Y536628D01*
X556760Y536698D01*
X556811Y536771D01*
X556859Y536845D01*
X556904Y536922D01*
X556945Y537000D01*
X556984Y537080D01*
X557018Y537161D01*
X557050Y537244D01*
X557077Y537329D01*
X557102Y537414D01*
X557122Y537500D01*
X557139Y537587D01*
X557152Y537675D01*
X557161Y537763D01*
X557167Y537851D01*
X557169Y537940D01*
X557170Y537940D02*
X557170Y543162D01*
X557169Y543162D02*
X557167Y543251D01*
X557161Y543339D01*
X557152Y543427D01*
X557139Y543515D01*
X557122Y543602D01*
X557102Y543688D01*
X557077Y543773D01*
X557050Y543858D01*
X557018Y543941D01*
X556984Y544022D01*
X556945Y544102D01*
X556904Y544180D01*
X556859Y544257D01*
X556811Y544331D01*
X556760Y544404D01*
X556706Y544474D01*
X556648Y544541D01*
X556588Y544607D01*
X556526Y544669D01*
X556460Y544729D01*
X556393Y544787D01*
X556323Y544841D01*
X556250Y544892D01*
X556176Y544940D01*
X556099Y544985D01*
X556021Y545026D01*
X555941Y545065D01*
X555860Y545099D01*
X555777Y545131D01*
X555692Y545158D01*
X555607Y545183D01*
X555521Y545203D01*
X555434Y545220D01*
X555346Y545233D01*
X555258Y545242D01*
X555170Y545248D01*
X555081Y545250D01*
X552993Y545250D01*
X549524Y543162D02*
X546914Y545250D01*
X546914Y535852D01*
X549524Y535852D02*
X544303Y535852D01*
X479894Y537247D02*
X479894Y539336D01*
X479894Y537247D02*
X479896Y537158D01*
X479902Y537070D01*
X479911Y536982D01*
X479924Y536894D01*
X479941Y536807D01*
X479961Y536721D01*
X479986Y536636D01*
X480013Y536551D01*
X480045Y536468D01*
X480079Y536387D01*
X480118Y536307D01*
X480159Y536229D01*
X480204Y536152D01*
X480252Y536078D01*
X480303Y536005D01*
X480357Y535935D01*
X480415Y535868D01*
X480475Y535802D01*
X480537Y535740D01*
X480603Y535680D01*
X480670Y535622D01*
X480740Y535568D01*
X480813Y535517D01*
X480887Y535469D01*
X480964Y535424D01*
X481042Y535383D01*
X481122Y535344D01*
X481203Y535310D01*
X481286Y535278D01*
X481371Y535251D01*
X481456Y535226D01*
X481542Y535206D01*
X481629Y535189D01*
X481717Y535176D01*
X481805Y535167D01*
X481893Y535161D01*
X481982Y535159D01*
X487204Y535159D01*
X487295Y535161D01*
X487386Y535167D01*
X487477Y535177D01*
X487567Y535191D01*
X487656Y535208D01*
X487744Y535230D01*
X487832Y535256D01*
X487918Y535285D01*
X488003Y535318D01*
X488086Y535355D01*
X488168Y535395D01*
X488248Y535439D01*
X488326Y535486D01*
X488402Y535537D01*
X488475Y535590D01*
X488546Y535647D01*
X488615Y535708D01*
X488680Y535771D01*
X488743Y535836D01*
X488803Y535905D01*
X488861Y535976D01*
X488914Y536049D01*
X488965Y536125D01*
X489012Y536203D01*
X489056Y536283D01*
X489096Y536365D01*
X489133Y536448D01*
X489166Y536533D01*
X489195Y536619D01*
X489221Y536707D01*
X489243Y536795D01*
X489260Y536884D01*
X489274Y536974D01*
X489284Y537065D01*
X489290Y537156D01*
X489292Y537247D01*
X489292Y539336D01*
X489293Y545676D02*
X489291Y545771D01*
X489285Y545865D01*
X489276Y545959D01*
X489263Y546053D01*
X489246Y546146D01*
X489225Y546238D01*
X489200Y546330D01*
X489172Y546420D01*
X489140Y546509D01*
X489105Y546597D01*
X489066Y546683D01*
X489024Y546768D01*
X488978Y546851D01*
X488929Y546932D01*
X488877Y547011D01*
X488822Y547088D01*
X488763Y547162D01*
X488702Y547234D01*
X488638Y547304D01*
X488571Y547371D01*
X488501Y547435D01*
X488429Y547496D01*
X488355Y547555D01*
X488278Y547610D01*
X488199Y547662D01*
X488118Y547711D01*
X488035Y547757D01*
X487950Y547799D01*
X487864Y547838D01*
X487776Y547873D01*
X487687Y547905D01*
X487597Y547933D01*
X487505Y547958D01*
X487413Y547979D01*
X487320Y547996D01*
X487226Y548009D01*
X487132Y548018D01*
X487038Y548024D01*
X486943Y548026D01*
X489292Y545676D02*
X489290Y545568D01*
X489284Y545459D01*
X489274Y545351D01*
X489261Y545244D01*
X489243Y545137D01*
X489222Y545030D01*
X489197Y544925D01*
X489168Y544820D01*
X489136Y544717D01*
X489099Y544615D01*
X489059Y544514D01*
X489016Y544415D01*
X488969Y544317D01*
X488918Y544221D01*
X488864Y544127D01*
X488807Y544035D01*
X488746Y543945D01*
X488682Y543857D01*
X488616Y543772D01*
X488546Y543689D01*
X488473Y543609D01*
X488397Y543531D01*
X488319Y543456D01*
X488238Y543384D01*
X488154Y543315D01*
X488068Y543249D01*
X487980Y543186D01*
X487889Y543127D01*
X487797Y543070D01*
X487702Y543017D01*
X487606Y542968D01*
X487507Y542922D01*
X487408Y542879D01*
X487306Y542840D01*
X487204Y542805D01*
X485115Y547243D02*
X485184Y547312D01*
X485255Y547378D01*
X485328Y547442D01*
X485404Y547503D01*
X485483Y547561D01*
X485563Y547615D01*
X485646Y547667D01*
X485730Y547715D01*
X485816Y547761D01*
X485904Y547802D01*
X485994Y547841D01*
X486085Y547876D01*
X486177Y547907D01*
X486270Y547935D01*
X486364Y547959D01*
X486459Y547979D01*
X486555Y547996D01*
X486652Y548009D01*
X486749Y548018D01*
X486846Y548024D01*
X486943Y548026D01*
X485115Y547243D02*
X479894Y542805D01*
X479894Y548026D01*
X454875Y619262D02*
X454875Y621350D01*
X454875Y619262D02*
X454877Y619173D01*
X454883Y619085D01*
X454892Y618997D01*
X454905Y618909D01*
X454922Y618822D01*
X454942Y618736D01*
X454967Y618651D01*
X454994Y618566D01*
X455026Y618483D01*
X455060Y618402D01*
X455099Y618322D01*
X455140Y618244D01*
X455185Y618167D01*
X455233Y618093D01*
X455284Y618020D01*
X455338Y617950D01*
X455396Y617883D01*
X455456Y617817D01*
X455518Y617755D01*
X455584Y617695D01*
X455651Y617637D01*
X455721Y617583D01*
X455794Y617532D01*
X455868Y617484D01*
X455945Y617439D01*
X456023Y617398D01*
X456103Y617359D01*
X456184Y617325D01*
X456267Y617293D01*
X456352Y617266D01*
X456437Y617241D01*
X456523Y617221D01*
X456610Y617204D01*
X456698Y617191D01*
X456786Y617182D01*
X456874Y617176D01*
X456963Y617174D01*
X456963Y617173D02*
X462185Y617173D01*
X462185Y617174D02*
X462276Y617176D01*
X462367Y617182D01*
X462458Y617192D01*
X462548Y617206D01*
X462637Y617223D01*
X462725Y617245D01*
X462813Y617271D01*
X462899Y617300D01*
X462984Y617333D01*
X463067Y617370D01*
X463149Y617410D01*
X463229Y617454D01*
X463307Y617501D01*
X463383Y617552D01*
X463456Y617605D01*
X463527Y617662D01*
X463596Y617723D01*
X463661Y617786D01*
X463724Y617851D01*
X463784Y617920D01*
X463842Y617991D01*
X463895Y618064D01*
X463946Y618140D01*
X463993Y618218D01*
X464037Y618298D01*
X464077Y618380D01*
X464114Y618463D01*
X464147Y618548D01*
X464176Y618634D01*
X464202Y618722D01*
X464224Y618810D01*
X464241Y618899D01*
X464255Y618989D01*
X464265Y619080D01*
X464271Y619171D01*
X464273Y619262D01*
X464273Y621350D01*
X454875Y624819D02*
X454875Y627429D01*
X454877Y627530D01*
X454883Y627631D01*
X454893Y627732D01*
X454906Y627832D01*
X454924Y627932D01*
X454945Y628031D01*
X454971Y628129D01*
X455000Y628226D01*
X455032Y628322D01*
X455069Y628416D01*
X455109Y628509D01*
X455153Y628601D01*
X455200Y628690D01*
X455251Y628778D01*
X455305Y628864D01*
X455362Y628947D01*
X455422Y629029D01*
X455486Y629107D01*
X455552Y629184D01*
X455622Y629257D01*
X455694Y629328D01*
X455769Y629396D01*
X455847Y629461D01*
X455927Y629523D01*
X456009Y629582D01*
X456094Y629638D01*
X456181Y629690D01*
X456269Y629739D01*
X456360Y629785D01*
X456452Y629826D01*
X456546Y629865D01*
X456641Y629899D01*
X456737Y629930D01*
X456835Y629957D01*
X456933Y629981D01*
X457033Y630000D01*
X457133Y630016D01*
X457233Y630028D01*
X457334Y630036D01*
X457435Y630040D01*
X457537Y630040D01*
X457638Y630036D01*
X457739Y630028D01*
X457839Y630016D01*
X457939Y630000D01*
X458039Y629981D01*
X458137Y629957D01*
X458235Y629930D01*
X458331Y629899D01*
X458426Y629865D01*
X458520Y629826D01*
X458612Y629785D01*
X458703Y629739D01*
X458792Y629690D01*
X458878Y629638D01*
X458963Y629582D01*
X459045Y629523D01*
X459125Y629461D01*
X459203Y629396D01*
X459278Y629328D01*
X459350Y629257D01*
X459420Y629184D01*
X459486Y629107D01*
X459550Y629029D01*
X459610Y628947D01*
X459667Y628864D01*
X459721Y628778D01*
X459772Y628690D01*
X459819Y628601D01*
X459863Y628509D01*
X459903Y628416D01*
X459940Y628322D01*
X459972Y628226D01*
X460001Y628129D01*
X460027Y628031D01*
X460048Y627932D01*
X460066Y627832D01*
X460079Y627732D01*
X460089Y627631D01*
X460095Y627530D01*
X460097Y627429D01*
X464273Y627952D02*
X464273Y624819D01*
X464273Y627952D02*
X464271Y628042D01*
X464265Y628131D01*
X464256Y628221D01*
X464242Y628310D01*
X464225Y628398D01*
X464204Y628485D01*
X464179Y628572D01*
X464150Y628657D01*
X464118Y628741D01*
X464083Y628823D01*
X464043Y628904D01*
X464001Y628983D01*
X463955Y629060D01*
X463905Y629135D01*
X463853Y629208D01*
X463797Y629279D01*
X463739Y629347D01*
X463677Y629412D01*
X463613Y629475D01*
X463546Y629535D01*
X463477Y629592D01*
X463405Y629646D01*
X463331Y629697D01*
X463255Y629745D01*
X463177Y629789D01*
X463097Y629830D01*
X463015Y629868D01*
X462932Y629902D01*
X462847Y629932D01*
X462761Y629959D01*
X462675Y629982D01*
X462587Y630001D01*
X462498Y630016D01*
X462409Y630028D01*
X462320Y630036D01*
X462230Y630040D01*
X462140Y630040D01*
X462050Y630036D01*
X461961Y630028D01*
X461872Y630016D01*
X461783Y630001D01*
X461695Y629982D01*
X461609Y629959D01*
X461523Y629932D01*
X461438Y629902D01*
X461355Y629868D01*
X461273Y629830D01*
X461193Y629789D01*
X461115Y629745D01*
X461039Y629697D01*
X460965Y629646D01*
X460893Y629592D01*
X460824Y629535D01*
X460757Y629475D01*
X460693Y629412D01*
X460631Y629347D01*
X460573Y629279D01*
X460517Y629208D01*
X460465Y629135D01*
X460415Y629060D01*
X460369Y628983D01*
X460327Y628904D01*
X460287Y628823D01*
X460252Y628741D01*
X460220Y628657D01*
X460191Y628572D01*
X460166Y628485D01*
X460145Y628398D01*
X460128Y628310D01*
X460114Y628221D01*
X460105Y628131D01*
X460099Y628042D01*
X460097Y627952D01*
X460096Y627952D02*
X460096Y625863D01*
D11*
X568172Y654633D02*
X568172Y666317D01*
X564926Y666317D01*
X564813Y666315D01*
X564700Y666309D01*
X564587Y666299D01*
X564474Y666285D01*
X564362Y666268D01*
X564251Y666246D01*
X564141Y666221D01*
X564031Y666191D01*
X563923Y666158D01*
X563816Y666121D01*
X563710Y666081D01*
X563606Y666036D01*
X563503Y665988D01*
X563402Y665937D01*
X563303Y665882D01*
X563206Y665824D01*
X563111Y665762D01*
X563018Y665697D01*
X562928Y665629D01*
X562840Y665558D01*
X562754Y665483D01*
X562671Y665406D01*
X562591Y665326D01*
X562514Y665243D01*
X562439Y665157D01*
X562368Y665069D01*
X562300Y664979D01*
X562235Y664886D01*
X562173Y664791D01*
X562115Y664694D01*
X562060Y664595D01*
X562009Y664494D01*
X561961Y664391D01*
X561916Y664287D01*
X561876Y664181D01*
X561839Y664074D01*
X561806Y663966D01*
X561776Y663856D01*
X561751Y663746D01*
X561729Y663635D01*
X561712Y663523D01*
X561698Y663410D01*
X561688Y663297D01*
X561682Y663184D01*
X561680Y663071D01*
X561682Y662958D01*
X561688Y662845D01*
X561698Y662732D01*
X561712Y662619D01*
X561729Y662507D01*
X561751Y662396D01*
X561776Y662286D01*
X561806Y662176D01*
X561839Y662068D01*
X561876Y661961D01*
X561916Y661855D01*
X561961Y661751D01*
X562009Y661648D01*
X562060Y661547D01*
X562115Y661448D01*
X562173Y661351D01*
X562235Y661256D01*
X562300Y661163D01*
X562368Y661073D01*
X562439Y660985D01*
X562514Y660899D01*
X562591Y660816D01*
X562671Y660736D01*
X562754Y660659D01*
X562840Y660584D01*
X562928Y660513D01*
X563018Y660445D01*
X563111Y660380D01*
X563206Y660318D01*
X563303Y660260D01*
X563402Y660205D01*
X563503Y660154D01*
X563606Y660106D01*
X563710Y660061D01*
X563816Y660021D01*
X563923Y659984D01*
X564031Y659951D01*
X564141Y659921D01*
X564251Y659896D01*
X564362Y659874D01*
X564474Y659857D01*
X564587Y659843D01*
X564700Y659833D01*
X564813Y659827D01*
X564926Y659825D01*
X564926Y659826D02*
X568172Y659826D01*
X564277Y659826D02*
X561681Y654633D01*
X556816Y665019D02*
X556816Y666317D01*
X550325Y666317D01*
X553570Y654633D01*
X568405Y633944D02*
X568405Y622260D01*
X568405Y633944D02*
X565160Y633944D01*
X565160Y633945D02*
X565047Y633943D01*
X564934Y633937D01*
X564821Y633927D01*
X564708Y633913D01*
X564596Y633896D01*
X564485Y633874D01*
X564375Y633849D01*
X564265Y633819D01*
X564157Y633786D01*
X564050Y633749D01*
X563944Y633709D01*
X563840Y633664D01*
X563737Y633616D01*
X563636Y633565D01*
X563537Y633510D01*
X563440Y633452D01*
X563345Y633390D01*
X563252Y633325D01*
X563162Y633257D01*
X563074Y633186D01*
X562988Y633111D01*
X562905Y633034D01*
X562825Y632954D01*
X562748Y632871D01*
X562673Y632785D01*
X562602Y632697D01*
X562534Y632607D01*
X562469Y632514D01*
X562407Y632419D01*
X562349Y632322D01*
X562294Y632223D01*
X562243Y632122D01*
X562195Y632019D01*
X562150Y631915D01*
X562110Y631809D01*
X562073Y631702D01*
X562040Y631594D01*
X562010Y631484D01*
X561985Y631374D01*
X561963Y631263D01*
X561946Y631151D01*
X561932Y631038D01*
X561922Y630925D01*
X561916Y630812D01*
X561914Y630699D01*
X561916Y630586D01*
X561922Y630473D01*
X561932Y630360D01*
X561946Y630247D01*
X561963Y630135D01*
X561985Y630024D01*
X562010Y629914D01*
X562040Y629804D01*
X562073Y629696D01*
X562110Y629589D01*
X562150Y629483D01*
X562195Y629379D01*
X562243Y629276D01*
X562294Y629175D01*
X562349Y629076D01*
X562407Y628979D01*
X562469Y628884D01*
X562534Y628791D01*
X562602Y628701D01*
X562673Y628613D01*
X562748Y628527D01*
X562825Y628444D01*
X562905Y628364D01*
X562988Y628287D01*
X563074Y628212D01*
X563162Y628141D01*
X563252Y628073D01*
X563345Y628008D01*
X563440Y627946D01*
X563537Y627888D01*
X563636Y627833D01*
X563737Y627782D01*
X563840Y627734D01*
X563944Y627689D01*
X564050Y627649D01*
X564157Y627612D01*
X564265Y627579D01*
X564375Y627549D01*
X564485Y627524D01*
X564596Y627502D01*
X564708Y627485D01*
X564821Y627471D01*
X564934Y627461D01*
X565047Y627455D01*
X565160Y627453D01*
X568405Y627453D01*
X564511Y627453D02*
X561914Y622260D01*
X557049Y625506D02*
X557047Y625619D01*
X557041Y625732D01*
X557031Y625845D01*
X557017Y625958D01*
X557000Y626070D01*
X556978Y626181D01*
X556953Y626291D01*
X556923Y626401D01*
X556890Y626509D01*
X556853Y626616D01*
X556813Y626722D01*
X556768Y626826D01*
X556720Y626929D01*
X556669Y627030D01*
X556614Y627129D01*
X556556Y627226D01*
X556494Y627321D01*
X556429Y627414D01*
X556361Y627504D01*
X556290Y627592D01*
X556215Y627678D01*
X556138Y627761D01*
X556058Y627841D01*
X555975Y627918D01*
X555889Y627993D01*
X555801Y628064D01*
X555711Y628132D01*
X555618Y628197D01*
X555523Y628259D01*
X555426Y628317D01*
X555327Y628372D01*
X555226Y628423D01*
X555123Y628471D01*
X555019Y628516D01*
X554913Y628556D01*
X554806Y628593D01*
X554698Y628626D01*
X554588Y628656D01*
X554478Y628681D01*
X554367Y628703D01*
X554255Y628720D01*
X554142Y628734D01*
X554029Y628744D01*
X553916Y628750D01*
X553803Y628752D01*
X553690Y628750D01*
X553577Y628744D01*
X553464Y628734D01*
X553351Y628720D01*
X553239Y628703D01*
X553128Y628681D01*
X553018Y628656D01*
X552908Y628626D01*
X552800Y628593D01*
X552693Y628556D01*
X552587Y628516D01*
X552483Y628471D01*
X552380Y628423D01*
X552279Y628372D01*
X552180Y628317D01*
X552083Y628259D01*
X551988Y628197D01*
X551895Y628132D01*
X551805Y628064D01*
X551717Y627993D01*
X551631Y627918D01*
X551548Y627841D01*
X551468Y627761D01*
X551391Y627678D01*
X551316Y627592D01*
X551245Y627504D01*
X551177Y627414D01*
X551112Y627321D01*
X551050Y627226D01*
X550992Y627129D01*
X550937Y627030D01*
X550886Y626929D01*
X550838Y626826D01*
X550793Y626722D01*
X550753Y626616D01*
X550716Y626509D01*
X550683Y626401D01*
X550653Y626291D01*
X550628Y626181D01*
X550606Y626070D01*
X550589Y625958D01*
X550575Y625845D01*
X550565Y625732D01*
X550559Y625619D01*
X550557Y625506D01*
X550559Y625393D01*
X550565Y625280D01*
X550575Y625167D01*
X550589Y625054D01*
X550606Y624942D01*
X550628Y624831D01*
X550653Y624721D01*
X550683Y624611D01*
X550716Y624503D01*
X550753Y624396D01*
X550793Y624290D01*
X550838Y624186D01*
X550886Y624083D01*
X550937Y623982D01*
X550992Y623883D01*
X551050Y623786D01*
X551112Y623691D01*
X551177Y623598D01*
X551245Y623508D01*
X551316Y623420D01*
X551391Y623334D01*
X551468Y623251D01*
X551548Y623171D01*
X551631Y623094D01*
X551717Y623019D01*
X551805Y622948D01*
X551895Y622880D01*
X551988Y622815D01*
X552083Y622753D01*
X552180Y622695D01*
X552279Y622640D01*
X552380Y622589D01*
X552483Y622541D01*
X552587Y622496D01*
X552693Y622456D01*
X552800Y622419D01*
X552908Y622386D01*
X553018Y622356D01*
X553128Y622331D01*
X553239Y622309D01*
X553351Y622292D01*
X553464Y622278D01*
X553577Y622268D01*
X553690Y622262D01*
X553803Y622260D01*
X553916Y622262D01*
X554029Y622268D01*
X554142Y622278D01*
X554255Y622292D01*
X554367Y622309D01*
X554478Y622331D01*
X554588Y622356D01*
X554698Y622386D01*
X554806Y622419D01*
X554913Y622456D01*
X555019Y622496D01*
X555123Y622541D01*
X555226Y622589D01*
X555327Y622640D01*
X555426Y622695D01*
X555523Y622753D01*
X555618Y622815D01*
X555711Y622880D01*
X555801Y622948D01*
X555889Y623019D01*
X555975Y623094D01*
X556058Y623171D01*
X556138Y623251D01*
X556215Y623334D01*
X556290Y623420D01*
X556361Y623508D01*
X556429Y623598D01*
X556494Y623691D01*
X556556Y623786D01*
X556614Y623883D01*
X556669Y623982D01*
X556720Y624083D01*
X556768Y624186D01*
X556813Y624290D01*
X556853Y624396D01*
X556890Y624503D01*
X556923Y624611D01*
X556953Y624721D01*
X556978Y624831D01*
X557000Y624942D01*
X557017Y625054D01*
X557031Y625167D01*
X557041Y625280D01*
X557047Y625393D01*
X557049Y625506D01*
X556399Y631348D02*
X556397Y631449D01*
X556391Y631549D01*
X556381Y631649D01*
X556368Y631749D01*
X556350Y631848D01*
X556329Y631947D01*
X556304Y632044D01*
X556275Y632141D01*
X556242Y632236D01*
X556206Y632330D01*
X556166Y632422D01*
X556123Y632513D01*
X556076Y632602D01*
X556026Y632689D01*
X555972Y632775D01*
X555915Y632858D01*
X555855Y632938D01*
X555792Y633017D01*
X555725Y633093D01*
X555656Y633166D01*
X555584Y633236D01*
X555510Y633304D01*
X555433Y633369D01*
X555353Y633430D01*
X555271Y633489D01*
X555187Y633544D01*
X555101Y633596D01*
X555013Y633645D01*
X554923Y633690D01*
X554831Y633732D01*
X554738Y633770D01*
X554643Y633804D01*
X554548Y633835D01*
X554451Y633862D01*
X554353Y633885D01*
X554254Y633905D01*
X554154Y633920D01*
X554054Y633932D01*
X553954Y633940D01*
X553853Y633944D01*
X553753Y633944D01*
X553652Y633940D01*
X553552Y633932D01*
X553452Y633920D01*
X553352Y633905D01*
X553253Y633885D01*
X553155Y633862D01*
X553058Y633835D01*
X552963Y633804D01*
X552868Y633770D01*
X552775Y633732D01*
X552683Y633690D01*
X552593Y633645D01*
X552505Y633596D01*
X552419Y633544D01*
X552335Y633489D01*
X552253Y633430D01*
X552173Y633369D01*
X552096Y633304D01*
X552022Y633236D01*
X551950Y633166D01*
X551881Y633093D01*
X551814Y633017D01*
X551751Y632938D01*
X551691Y632858D01*
X551634Y632775D01*
X551580Y632689D01*
X551530Y632602D01*
X551483Y632513D01*
X551440Y632422D01*
X551400Y632330D01*
X551364Y632236D01*
X551331Y632141D01*
X551302Y632044D01*
X551277Y631947D01*
X551256Y631848D01*
X551238Y631749D01*
X551225Y631649D01*
X551215Y631549D01*
X551209Y631449D01*
X551207Y631348D01*
X551209Y631247D01*
X551215Y631147D01*
X551225Y631047D01*
X551238Y630947D01*
X551256Y630848D01*
X551277Y630749D01*
X551302Y630652D01*
X551331Y630555D01*
X551364Y630460D01*
X551400Y630366D01*
X551440Y630274D01*
X551483Y630183D01*
X551530Y630094D01*
X551580Y630007D01*
X551634Y629921D01*
X551691Y629838D01*
X551751Y629758D01*
X551814Y629679D01*
X551881Y629603D01*
X551950Y629530D01*
X552022Y629460D01*
X552096Y629392D01*
X552173Y629327D01*
X552253Y629266D01*
X552335Y629207D01*
X552419Y629152D01*
X552505Y629100D01*
X552593Y629051D01*
X552683Y629006D01*
X552775Y628964D01*
X552868Y628926D01*
X552963Y628892D01*
X553058Y628861D01*
X553155Y628834D01*
X553253Y628811D01*
X553352Y628791D01*
X553452Y628776D01*
X553552Y628764D01*
X553652Y628756D01*
X553753Y628752D01*
X553853Y628752D01*
X553954Y628756D01*
X554054Y628764D01*
X554154Y628776D01*
X554254Y628791D01*
X554353Y628811D01*
X554451Y628834D01*
X554548Y628861D01*
X554643Y628892D01*
X554738Y628926D01*
X554831Y628964D01*
X554923Y629006D01*
X555013Y629051D01*
X555101Y629100D01*
X555187Y629152D01*
X555271Y629207D01*
X555353Y629266D01*
X555433Y629327D01*
X555510Y629392D01*
X555584Y629460D01*
X555656Y629530D01*
X555725Y629603D01*
X555792Y629679D01*
X555855Y629758D01*
X555915Y629838D01*
X555972Y629921D01*
X556026Y630007D01*
X556076Y630094D01*
X556123Y630183D01*
X556166Y630274D01*
X556206Y630366D01*
X556242Y630460D01*
X556275Y630555D01*
X556304Y630652D01*
X556329Y630749D01*
X556350Y630848D01*
X556368Y630947D01*
X556381Y631047D01*
X556391Y631147D01*
X556397Y631247D01*
X556399Y631348D01*
X549402Y777300D02*
X537718Y777300D01*
X549402Y777300D02*
X549402Y780545D01*
X549400Y780658D01*
X549394Y780771D01*
X549384Y780884D01*
X549370Y780997D01*
X549353Y781109D01*
X549331Y781220D01*
X549306Y781330D01*
X549276Y781440D01*
X549243Y781548D01*
X549206Y781655D01*
X549166Y781761D01*
X549121Y781865D01*
X549073Y781968D01*
X549022Y782069D01*
X548967Y782168D01*
X548909Y782265D01*
X548847Y782360D01*
X548782Y782453D01*
X548714Y782543D01*
X548643Y782631D01*
X548568Y782717D01*
X548491Y782800D01*
X548411Y782880D01*
X548328Y782957D01*
X548242Y783032D01*
X548154Y783103D01*
X548064Y783171D01*
X547971Y783236D01*
X547876Y783298D01*
X547779Y783356D01*
X547680Y783411D01*
X547579Y783462D01*
X547476Y783510D01*
X547372Y783555D01*
X547266Y783595D01*
X547159Y783632D01*
X547051Y783665D01*
X546941Y783695D01*
X546831Y783720D01*
X546720Y783742D01*
X546608Y783759D01*
X546495Y783773D01*
X546382Y783783D01*
X546269Y783789D01*
X546156Y783791D01*
X546043Y783789D01*
X545930Y783783D01*
X545817Y783773D01*
X545704Y783759D01*
X545592Y783742D01*
X545481Y783720D01*
X545371Y783695D01*
X545261Y783665D01*
X545153Y783632D01*
X545046Y783595D01*
X544940Y783555D01*
X544836Y783510D01*
X544733Y783462D01*
X544632Y783411D01*
X544533Y783356D01*
X544436Y783298D01*
X544341Y783236D01*
X544248Y783171D01*
X544158Y783103D01*
X544070Y783032D01*
X543984Y782957D01*
X543901Y782880D01*
X543821Y782800D01*
X543744Y782717D01*
X543669Y782631D01*
X543598Y782543D01*
X543530Y782453D01*
X543465Y782360D01*
X543403Y782265D01*
X543345Y782168D01*
X543290Y782069D01*
X543239Y781968D01*
X543191Y781865D01*
X543146Y781761D01*
X543106Y781655D01*
X543069Y781548D01*
X543036Y781440D01*
X543006Y781330D01*
X542981Y781220D01*
X542959Y781109D01*
X542942Y780997D01*
X542928Y780884D01*
X542918Y780771D01*
X542912Y780658D01*
X542910Y780545D01*
X542911Y780545D02*
X542911Y777300D01*
X542911Y781194D02*
X537718Y783791D01*
X546806Y788656D02*
X549402Y791901D01*
X537718Y791901D01*
X537718Y788656D02*
X537718Y795147D01*
X536448Y691575D02*
X548132Y691575D01*
X548132Y694820D01*
X548130Y694933D01*
X548124Y695046D01*
X548114Y695159D01*
X548100Y695272D01*
X548083Y695384D01*
X548061Y695495D01*
X548036Y695605D01*
X548006Y695715D01*
X547973Y695823D01*
X547936Y695930D01*
X547896Y696036D01*
X547851Y696140D01*
X547803Y696243D01*
X547752Y696344D01*
X547697Y696443D01*
X547639Y696540D01*
X547577Y696635D01*
X547512Y696728D01*
X547444Y696818D01*
X547373Y696906D01*
X547298Y696992D01*
X547221Y697075D01*
X547141Y697155D01*
X547058Y697232D01*
X546972Y697307D01*
X546884Y697378D01*
X546794Y697446D01*
X546701Y697511D01*
X546606Y697573D01*
X546509Y697631D01*
X546410Y697686D01*
X546309Y697737D01*
X546206Y697785D01*
X546102Y697830D01*
X545996Y697870D01*
X545889Y697907D01*
X545781Y697940D01*
X545671Y697970D01*
X545561Y697995D01*
X545450Y698017D01*
X545338Y698034D01*
X545225Y698048D01*
X545112Y698058D01*
X544999Y698064D01*
X544886Y698066D01*
X544773Y698064D01*
X544660Y698058D01*
X544547Y698048D01*
X544434Y698034D01*
X544322Y698017D01*
X544211Y697995D01*
X544101Y697970D01*
X543991Y697940D01*
X543883Y697907D01*
X543776Y697870D01*
X543670Y697830D01*
X543566Y697785D01*
X543463Y697737D01*
X543362Y697686D01*
X543263Y697631D01*
X543166Y697573D01*
X543071Y697511D01*
X542978Y697446D01*
X542888Y697378D01*
X542800Y697307D01*
X542714Y697232D01*
X542631Y697155D01*
X542551Y697075D01*
X542474Y696992D01*
X542399Y696906D01*
X542328Y696818D01*
X542260Y696728D01*
X542195Y696635D01*
X542133Y696540D01*
X542075Y696443D01*
X542020Y696344D01*
X541969Y696243D01*
X541921Y696140D01*
X541876Y696036D01*
X541836Y695930D01*
X541799Y695823D01*
X541766Y695715D01*
X541736Y695605D01*
X541711Y695495D01*
X541689Y695384D01*
X541672Y695272D01*
X541658Y695159D01*
X541648Y695046D01*
X541642Y694933D01*
X541640Y694820D01*
X541641Y694820D02*
X541641Y691575D01*
X541641Y695469D02*
X536448Y698066D01*
X545211Y709422D02*
X545318Y709420D01*
X545424Y709414D01*
X545530Y709404D01*
X545636Y709391D01*
X545742Y709373D01*
X545846Y709352D01*
X545950Y709327D01*
X546053Y709298D01*
X546154Y709266D01*
X546254Y709229D01*
X546353Y709189D01*
X546451Y709146D01*
X546547Y709099D01*
X546641Y709048D01*
X546733Y708994D01*
X546823Y708937D01*
X546911Y708877D01*
X546996Y708813D01*
X547079Y708746D01*
X547160Y708676D01*
X547238Y708604D01*
X547314Y708528D01*
X547386Y708450D01*
X547456Y708369D01*
X547523Y708286D01*
X547587Y708201D01*
X547647Y708113D01*
X547704Y708023D01*
X547758Y707931D01*
X547809Y707837D01*
X547856Y707741D01*
X547899Y707643D01*
X547939Y707544D01*
X547976Y707444D01*
X548008Y707343D01*
X548037Y707240D01*
X548062Y707136D01*
X548083Y707032D01*
X548101Y706926D01*
X548114Y706820D01*
X548124Y706714D01*
X548130Y706608D01*
X548132Y706501D01*
X548130Y706380D01*
X548124Y706259D01*
X548114Y706139D01*
X548101Y706018D01*
X548083Y705899D01*
X548062Y705779D01*
X548037Y705661D01*
X548008Y705544D01*
X547975Y705427D01*
X547939Y705312D01*
X547898Y705198D01*
X547855Y705085D01*
X547807Y704973D01*
X547756Y704864D01*
X547701Y704756D01*
X547643Y704649D01*
X547582Y704545D01*
X547517Y704443D01*
X547449Y704343D01*
X547378Y704245D01*
X547304Y704149D01*
X547227Y704056D01*
X547146Y703966D01*
X547063Y703878D01*
X546977Y703793D01*
X546888Y703710D01*
X546797Y703631D01*
X546703Y703554D01*
X546607Y703481D01*
X546509Y703411D01*
X546408Y703344D01*
X546305Y703280D01*
X546200Y703220D01*
X546093Y703163D01*
X545985Y703109D01*
X545875Y703059D01*
X545763Y703013D01*
X545650Y702970D01*
X545535Y702931D01*
X542939Y708449D02*
X543016Y708528D01*
X543097Y708604D01*
X543180Y708677D01*
X543265Y708747D01*
X543353Y708814D01*
X543443Y708878D01*
X543535Y708938D01*
X543630Y708995D01*
X543726Y709049D01*
X543824Y709100D01*
X543924Y709147D01*
X544026Y709191D01*
X544129Y709231D01*
X544233Y709267D01*
X544339Y709299D01*
X544445Y709328D01*
X544553Y709353D01*
X544661Y709375D01*
X544771Y709392D01*
X544880Y709406D01*
X544990Y709415D01*
X545101Y709421D01*
X545211Y709423D01*
X542939Y708448D02*
X536448Y702931D01*
X536448Y709422D01*
X596138Y697103D02*
X607822Y697103D01*
X607822Y700349D01*
X607820Y700462D01*
X607814Y700575D01*
X607804Y700688D01*
X607790Y700801D01*
X607773Y700913D01*
X607751Y701024D01*
X607726Y701134D01*
X607696Y701244D01*
X607663Y701352D01*
X607626Y701459D01*
X607586Y701565D01*
X607541Y701669D01*
X607493Y701772D01*
X607442Y701873D01*
X607387Y701972D01*
X607329Y702069D01*
X607267Y702164D01*
X607202Y702257D01*
X607134Y702347D01*
X607063Y702435D01*
X606988Y702521D01*
X606911Y702604D01*
X606831Y702684D01*
X606748Y702761D01*
X606662Y702836D01*
X606574Y702907D01*
X606484Y702975D01*
X606391Y703040D01*
X606296Y703102D01*
X606199Y703160D01*
X606100Y703215D01*
X605999Y703266D01*
X605896Y703314D01*
X605792Y703359D01*
X605686Y703399D01*
X605579Y703436D01*
X605471Y703469D01*
X605361Y703499D01*
X605251Y703524D01*
X605140Y703546D01*
X605028Y703563D01*
X604915Y703577D01*
X604802Y703587D01*
X604689Y703593D01*
X604576Y703595D01*
X604463Y703593D01*
X604350Y703587D01*
X604237Y703577D01*
X604124Y703563D01*
X604012Y703546D01*
X603901Y703524D01*
X603791Y703499D01*
X603681Y703469D01*
X603573Y703436D01*
X603466Y703399D01*
X603360Y703359D01*
X603256Y703314D01*
X603153Y703266D01*
X603052Y703215D01*
X602953Y703160D01*
X602856Y703102D01*
X602761Y703040D01*
X602668Y702975D01*
X602578Y702907D01*
X602490Y702836D01*
X602404Y702761D01*
X602321Y702684D01*
X602241Y702604D01*
X602164Y702521D01*
X602089Y702435D01*
X602018Y702347D01*
X601950Y702257D01*
X601885Y702164D01*
X601823Y702069D01*
X601765Y701972D01*
X601710Y701873D01*
X601659Y701772D01*
X601611Y701669D01*
X601566Y701565D01*
X601526Y701459D01*
X601489Y701352D01*
X601456Y701244D01*
X601426Y701134D01*
X601401Y701024D01*
X601379Y700913D01*
X601362Y700801D01*
X601348Y700688D01*
X601338Y700575D01*
X601332Y700462D01*
X601330Y700349D01*
X601331Y700349D02*
X601331Y697103D01*
X601331Y700998D02*
X596138Y703594D01*
X596138Y708459D02*
X596138Y711705D01*
X596140Y711818D01*
X596146Y711931D01*
X596156Y712044D01*
X596170Y712157D01*
X596187Y712269D01*
X596209Y712380D01*
X596234Y712490D01*
X596264Y712600D01*
X596297Y712708D01*
X596334Y712815D01*
X596374Y712921D01*
X596419Y713025D01*
X596467Y713128D01*
X596518Y713229D01*
X596573Y713328D01*
X596631Y713425D01*
X596693Y713520D01*
X596758Y713613D01*
X596826Y713703D01*
X596897Y713791D01*
X596972Y713877D01*
X597049Y713960D01*
X597129Y714040D01*
X597212Y714117D01*
X597298Y714192D01*
X597386Y714263D01*
X597476Y714331D01*
X597569Y714396D01*
X597664Y714458D01*
X597761Y714516D01*
X597860Y714571D01*
X597961Y714622D01*
X598064Y714670D01*
X598168Y714715D01*
X598274Y714755D01*
X598381Y714792D01*
X598489Y714825D01*
X598599Y714855D01*
X598709Y714880D01*
X598820Y714902D01*
X598932Y714919D01*
X599045Y714933D01*
X599158Y714943D01*
X599271Y714949D01*
X599384Y714951D01*
X599497Y714949D01*
X599610Y714943D01*
X599723Y714933D01*
X599836Y714919D01*
X599948Y714902D01*
X600059Y714880D01*
X600169Y714855D01*
X600279Y714825D01*
X600387Y714792D01*
X600494Y714755D01*
X600600Y714715D01*
X600704Y714670D01*
X600807Y714622D01*
X600908Y714571D01*
X601007Y714516D01*
X601104Y714458D01*
X601199Y714396D01*
X601292Y714331D01*
X601382Y714263D01*
X601470Y714192D01*
X601556Y714117D01*
X601639Y714040D01*
X601719Y713960D01*
X601796Y713877D01*
X601871Y713791D01*
X601942Y713703D01*
X602010Y713613D01*
X602075Y713520D01*
X602137Y713425D01*
X602195Y713328D01*
X602250Y713229D01*
X602301Y713128D01*
X602349Y713025D01*
X602394Y712921D01*
X602434Y712815D01*
X602471Y712708D01*
X602504Y712600D01*
X602534Y712490D01*
X602559Y712380D01*
X602581Y712269D01*
X602598Y712157D01*
X602612Y712044D01*
X602622Y711931D01*
X602628Y711818D01*
X602630Y711705D01*
X607822Y712354D02*
X607822Y708459D01*
X607822Y712354D02*
X607820Y712455D01*
X607814Y712555D01*
X607804Y712655D01*
X607791Y712755D01*
X607773Y712854D01*
X607752Y712953D01*
X607727Y713050D01*
X607698Y713147D01*
X607665Y713242D01*
X607629Y713336D01*
X607589Y713428D01*
X607546Y713519D01*
X607499Y713608D01*
X607449Y713695D01*
X607395Y713781D01*
X607338Y713864D01*
X607278Y713944D01*
X607215Y714023D01*
X607148Y714099D01*
X607079Y714172D01*
X607007Y714242D01*
X606933Y714310D01*
X606856Y714375D01*
X606776Y714436D01*
X606694Y714495D01*
X606610Y714550D01*
X606524Y714602D01*
X606436Y714651D01*
X606346Y714696D01*
X606254Y714738D01*
X606161Y714776D01*
X606066Y714810D01*
X605971Y714841D01*
X605874Y714868D01*
X605776Y714891D01*
X605677Y714911D01*
X605577Y714926D01*
X605477Y714938D01*
X605377Y714946D01*
X605276Y714950D01*
X605176Y714950D01*
X605075Y714946D01*
X604975Y714938D01*
X604875Y714926D01*
X604775Y714911D01*
X604676Y714891D01*
X604578Y714868D01*
X604481Y714841D01*
X604386Y714810D01*
X604291Y714776D01*
X604198Y714738D01*
X604106Y714696D01*
X604016Y714651D01*
X603928Y714602D01*
X603842Y714550D01*
X603758Y714495D01*
X603676Y714436D01*
X603596Y714375D01*
X603519Y714310D01*
X603445Y714242D01*
X603373Y714172D01*
X603304Y714099D01*
X603237Y714023D01*
X603174Y713944D01*
X603114Y713864D01*
X603057Y713781D01*
X603003Y713695D01*
X602953Y713608D01*
X602906Y713519D01*
X602863Y713428D01*
X602823Y713336D01*
X602787Y713242D01*
X602754Y713147D01*
X602725Y713050D01*
X602700Y712953D01*
X602679Y712854D01*
X602661Y712755D01*
X602648Y712655D01*
X602638Y712555D01*
X602632Y712455D01*
X602630Y712354D01*
X602629Y712354D02*
X602629Y709758D01*
X597408Y782828D02*
X609092Y782828D01*
X609092Y786074D01*
X609090Y786187D01*
X609084Y786300D01*
X609074Y786413D01*
X609060Y786526D01*
X609043Y786638D01*
X609021Y786749D01*
X608996Y786859D01*
X608966Y786969D01*
X608933Y787077D01*
X608896Y787184D01*
X608856Y787290D01*
X608811Y787394D01*
X608763Y787497D01*
X608712Y787598D01*
X608657Y787697D01*
X608599Y787794D01*
X608537Y787889D01*
X608472Y787982D01*
X608404Y788072D01*
X608333Y788160D01*
X608258Y788246D01*
X608181Y788329D01*
X608101Y788409D01*
X608018Y788486D01*
X607932Y788561D01*
X607844Y788632D01*
X607754Y788700D01*
X607661Y788765D01*
X607566Y788827D01*
X607469Y788885D01*
X607370Y788940D01*
X607269Y788991D01*
X607166Y789039D01*
X607062Y789084D01*
X606956Y789124D01*
X606849Y789161D01*
X606741Y789194D01*
X606631Y789224D01*
X606521Y789249D01*
X606410Y789271D01*
X606298Y789288D01*
X606185Y789302D01*
X606072Y789312D01*
X605959Y789318D01*
X605846Y789320D01*
X605733Y789318D01*
X605620Y789312D01*
X605507Y789302D01*
X605394Y789288D01*
X605282Y789271D01*
X605171Y789249D01*
X605061Y789224D01*
X604951Y789194D01*
X604843Y789161D01*
X604736Y789124D01*
X604630Y789084D01*
X604526Y789039D01*
X604423Y788991D01*
X604322Y788940D01*
X604223Y788885D01*
X604126Y788827D01*
X604031Y788765D01*
X603938Y788700D01*
X603848Y788632D01*
X603760Y788561D01*
X603674Y788486D01*
X603591Y788409D01*
X603511Y788329D01*
X603434Y788246D01*
X603359Y788160D01*
X603288Y788072D01*
X603220Y787982D01*
X603155Y787889D01*
X603093Y787794D01*
X603035Y787697D01*
X602980Y787598D01*
X602929Y787497D01*
X602881Y787394D01*
X602836Y787290D01*
X602796Y787184D01*
X602759Y787077D01*
X602726Y786969D01*
X602696Y786859D01*
X602671Y786749D01*
X602649Y786638D01*
X602632Y786526D01*
X602618Y786413D01*
X602608Y786300D01*
X602602Y786187D01*
X602600Y786074D01*
X602601Y786074D02*
X602601Y782828D01*
X602601Y786723D02*
X597408Y789319D01*
X600004Y794184D02*
X609092Y796781D01*
X600004Y794184D02*
X600004Y800675D01*
X602601Y798728D02*
X597408Y798728D01*
D12*
X521856Y703874D02*
X521856Y701786D01*
X521858Y701697D01*
X521864Y701609D01*
X521873Y701521D01*
X521886Y701433D01*
X521903Y701346D01*
X521923Y701260D01*
X521948Y701175D01*
X521975Y701090D01*
X522007Y701007D01*
X522041Y700926D01*
X522080Y700846D01*
X522121Y700768D01*
X522166Y700691D01*
X522214Y700617D01*
X522265Y700544D01*
X522319Y700474D01*
X522377Y700407D01*
X522437Y700341D01*
X522499Y700279D01*
X522565Y700219D01*
X522632Y700161D01*
X522702Y700107D01*
X522775Y700056D01*
X522849Y700008D01*
X522926Y699963D01*
X523004Y699922D01*
X523084Y699883D01*
X523165Y699849D01*
X523248Y699817D01*
X523333Y699790D01*
X523418Y699765D01*
X523504Y699745D01*
X523591Y699728D01*
X523679Y699715D01*
X523767Y699706D01*
X523855Y699700D01*
X523944Y699698D01*
X523944Y699697D02*
X529166Y699697D01*
X529166Y699698D02*
X529257Y699700D01*
X529348Y699706D01*
X529439Y699716D01*
X529529Y699730D01*
X529618Y699747D01*
X529706Y699769D01*
X529794Y699795D01*
X529880Y699824D01*
X529965Y699857D01*
X530048Y699894D01*
X530130Y699934D01*
X530210Y699978D01*
X530288Y700025D01*
X530364Y700076D01*
X530437Y700129D01*
X530508Y700186D01*
X530577Y700247D01*
X530642Y700310D01*
X530705Y700375D01*
X530765Y700444D01*
X530823Y700515D01*
X530876Y700588D01*
X530927Y700664D01*
X530974Y700742D01*
X531018Y700822D01*
X531058Y700904D01*
X531095Y700987D01*
X531128Y701072D01*
X531157Y701158D01*
X531183Y701246D01*
X531205Y701334D01*
X531222Y701423D01*
X531236Y701513D01*
X531246Y701604D01*
X531252Y701695D01*
X531254Y701786D01*
X531254Y703874D01*
X531254Y709431D02*
X523944Y707343D01*
X523944Y712564D01*
X526033Y710998D02*
X521856Y710998D01*
X522491Y787511D02*
X522491Y789599D01*
X522491Y787511D02*
X522493Y787422D01*
X522499Y787334D01*
X522508Y787246D01*
X522521Y787158D01*
X522538Y787071D01*
X522558Y786985D01*
X522583Y786900D01*
X522610Y786815D01*
X522642Y786732D01*
X522676Y786651D01*
X522715Y786571D01*
X522756Y786493D01*
X522801Y786416D01*
X522849Y786342D01*
X522900Y786269D01*
X522954Y786199D01*
X523012Y786132D01*
X523072Y786066D01*
X523134Y786004D01*
X523200Y785944D01*
X523267Y785886D01*
X523337Y785832D01*
X523410Y785781D01*
X523484Y785733D01*
X523561Y785688D01*
X523639Y785647D01*
X523719Y785608D01*
X523800Y785574D01*
X523883Y785542D01*
X523968Y785515D01*
X524053Y785490D01*
X524139Y785470D01*
X524226Y785453D01*
X524314Y785440D01*
X524402Y785431D01*
X524490Y785425D01*
X524579Y785423D01*
X524579Y785422D02*
X529801Y785422D01*
X529801Y785423D02*
X529892Y785425D01*
X529983Y785431D01*
X530074Y785441D01*
X530164Y785455D01*
X530253Y785472D01*
X530341Y785494D01*
X530429Y785520D01*
X530515Y785549D01*
X530600Y785582D01*
X530683Y785619D01*
X530765Y785659D01*
X530845Y785703D01*
X530923Y785750D01*
X530999Y785801D01*
X531072Y785854D01*
X531143Y785911D01*
X531212Y785972D01*
X531277Y786035D01*
X531340Y786100D01*
X531400Y786169D01*
X531458Y786240D01*
X531511Y786313D01*
X531562Y786389D01*
X531609Y786467D01*
X531653Y786547D01*
X531693Y786629D01*
X531730Y786712D01*
X531763Y786797D01*
X531792Y786883D01*
X531818Y786971D01*
X531840Y787059D01*
X531857Y787148D01*
X531871Y787238D01*
X531881Y787329D01*
X531887Y787420D01*
X531889Y787511D01*
X531889Y789599D01*
X522491Y793068D02*
X522491Y796201D01*
X522493Y796290D01*
X522499Y796378D01*
X522508Y796466D01*
X522521Y796554D01*
X522538Y796641D01*
X522558Y796727D01*
X522583Y796812D01*
X522610Y796897D01*
X522642Y796980D01*
X522676Y797061D01*
X522715Y797141D01*
X522756Y797219D01*
X522801Y797296D01*
X522849Y797370D01*
X522900Y797443D01*
X522954Y797513D01*
X523012Y797580D01*
X523072Y797646D01*
X523134Y797708D01*
X523200Y797768D01*
X523267Y797826D01*
X523337Y797880D01*
X523410Y797931D01*
X523484Y797979D01*
X523561Y798024D01*
X523639Y798065D01*
X523719Y798104D01*
X523800Y798138D01*
X523883Y798170D01*
X523968Y798197D01*
X524053Y798222D01*
X524139Y798242D01*
X524226Y798259D01*
X524314Y798272D01*
X524402Y798281D01*
X524490Y798287D01*
X524579Y798289D01*
X525624Y798289D01*
X525713Y798287D01*
X525801Y798281D01*
X525889Y798272D01*
X525977Y798259D01*
X526064Y798242D01*
X526150Y798222D01*
X526235Y798197D01*
X526320Y798170D01*
X526403Y798138D01*
X526484Y798104D01*
X526564Y798065D01*
X526642Y798024D01*
X526719Y797979D01*
X526793Y797931D01*
X526866Y797880D01*
X526936Y797826D01*
X527003Y797768D01*
X527069Y797708D01*
X527131Y797646D01*
X527191Y797580D01*
X527249Y797513D01*
X527303Y797443D01*
X527354Y797370D01*
X527402Y797296D01*
X527447Y797219D01*
X527488Y797141D01*
X527527Y797061D01*
X527561Y796980D01*
X527593Y796897D01*
X527620Y796812D01*
X527645Y796727D01*
X527665Y796641D01*
X527682Y796554D01*
X527695Y796466D01*
X527704Y796378D01*
X527710Y796290D01*
X527712Y796201D01*
X527712Y793068D01*
X531889Y793068D01*
X531889Y798289D01*
D13*
X471993Y673571D02*
X471993Y664271D01*
X471993Y673571D02*
X463993Y673571D01*
X459093Y659571D02*
X454493Y659571D01*
X441593Y664271D02*
X441593Y673571D01*
X449593Y673571D01*
D14*
X465793Y646571D02*
X465795Y646634D01*
X465801Y646696D01*
X465811Y646758D01*
X465824Y646820D01*
X465842Y646880D01*
X465863Y646939D01*
X465888Y646997D01*
X465917Y647053D01*
X465949Y647107D01*
X465984Y647159D01*
X466022Y647208D01*
X466064Y647256D01*
X466108Y647300D01*
X466156Y647342D01*
X466205Y647380D01*
X466257Y647415D01*
X466311Y647447D01*
X466367Y647476D01*
X466425Y647501D01*
X466484Y647522D01*
X466544Y647540D01*
X466606Y647553D01*
X466668Y647563D01*
X466730Y647569D01*
X466793Y647571D01*
X466856Y647569D01*
X466918Y647563D01*
X466980Y647553D01*
X467042Y647540D01*
X467102Y647522D01*
X467161Y647501D01*
X467219Y647476D01*
X467275Y647447D01*
X467329Y647415D01*
X467381Y647380D01*
X467430Y647342D01*
X467478Y647300D01*
X467522Y647256D01*
X467564Y647208D01*
X467602Y647159D01*
X467637Y647107D01*
X467669Y647053D01*
X467698Y646997D01*
X467723Y646939D01*
X467744Y646880D01*
X467762Y646820D01*
X467775Y646758D01*
X467785Y646696D01*
X467791Y646634D01*
X467793Y646571D01*
X467791Y646508D01*
X467785Y646446D01*
X467775Y646384D01*
X467762Y646322D01*
X467744Y646262D01*
X467723Y646203D01*
X467698Y646145D01*
X467669Y646089D01*
X467637Y646035D01*
X467602Y645983D01*
X467564Y645934D01*
X467522Y645886D01*
X467478Y645842D01*
X467430Y645800D01*
X467381Y645762D01*
X467329Y645727D01*
X467275Y645695D01*
X467219Y645666D01*
X467161Y645641D01*
X467102Y645620D01*
X467042Y645602D01*
X466980Y645589D01*
X466918Y645579D01*
X466856Y645573D01*
X466793Y645571D01*
X466730Y645573D01*
X466668Y645579D01*
X466606Y645589D01*
X466544Y645602D01*
X466484Y645620D01*
X466425Y645641D01*
X466367Y645666D01*
X466311Y645695D01*
X466257Y645727D01*
X466205Y645762D01*
X466156Y645800D01*
X466108Y645842D01*
X466064Y645886D01*
X466022Y645934D01*
X465984Y645983D01*
X465949Y646035D01*
X465917Y646089D01*
X465888Y646145D01*
X465863Y646203D01*
X465842Y646262D01*
X465824Y646322D01*
X465811Y646384D01*
X465801Y646446D01*
X465795Y646508D01*
X465793Y646571D01*
D11*
X484547Y647579D02*
X489739Y647579D01*
X489852Y647581D01*
X489965Y647587D01*
X490078Y647597D01*
X490191Y647611D01*
X490303Y647628D01*
X490414Y647650D01*
X490524Y647675D01*
X490634Y647705D01*
X490742Y647738D01*
X490849Y647775D01*
X490955Y647815D01*
X491059Y647860D01*
X491162Y647908D01*
X491263Y647959D01*
X491362Y648014D01*
X491459Y648072D01*
X491554Y648134D01*
X491647Y648199D01*
X491737Y648267D01*
X491825Y648338D01*
X491911Y648413D01*
X491994Y648490D01*
X492074Y648570D01*
X492151Y648653D01*
X492226Y648739D01*
X492297Y648827D01*
X492365Y648917D01*
X492430Y649010D01*
X492492Y649105D01*
X492550Y649202D01*
X492605Y649301D01*
X492656Y649402D01*
X492704Y649505D01*
X492749Y649609D01*
X492789Y649715D01*
X492826Y649822D01*
X492859Y649930D01*
X492889Y650040D01*
X492914Y650150D01*
X492936Y650261D01*
X492953Y650373D01*
X492967Y650486D01*
X492977Y650599D01*
X492983Y650712D01*
X492985Y650825D01*
X492983Y650938D01*
X492977Y651051D01*
X492967Y651164D01*
X492953Y651277D01*
X492936Y651389D01*
X492914Y651500D01*
X492889Y651610D01*
X492859Y651720D01*
X492826Y651828D01*
X492789Y651935D01*
X492749Y652041D01*
X492704Y652145D01*
X492656Y652248D01*
X492605Y652349D01*
X492550Y652448D01*
X492492Y652545D01*
X492430Y652640D01*
X492365Y652733D01*
X492297Y652823D01*
X492226Y652911D01*
X492151Y652997D01*
X492074Y653080D01*
X491994Y653160D01*
X491911Y653237D01*
X491825Y653312D01*
X491737Y653383D01*
X491647Y653451D01*
X491554Y653516D01*
X491459Y653578D01*
X491362Y653636D01*
X491263Y653691D01*
X491162Y653742D01*
X491059Y653790D01*
X490955Y653835D01*
X490849Y653875D01*
X490742Y653912D01*
X490634Y653945D01*
X490524Y653975D01*
X490414Y654000D01*
X490303Y654022D01*
X490191Y654039D01*
X490078Y654053D01*
X489965Y654063D01*
X489852Y654069D01*
X489739Y654071D01*
X489739Y654070D02*
X484547Y654070D01*
X484547Y654071D02*
X484434Y654069D01*
X484321Y654063D01*
X484208Y654053D01*
X484095Y654039D01*
X483983Y654022D01*
X483872Y654000D01*
X483762Y653975D01*
X483652Y653945D01*
X483544Y653912D01*
X483437Y653875D01*
X483331Y653835D01*
X483227Y653790D01*
X483124Y653742D01*
X483023Y653691D01*
X482924Y653636D01*
X482827Y653578D01*
X482732Y653516D01*
X482639Y653451D01*
X482549Y653383D01*
X482461Y653312D01*
X482375Y653237D01*
X482292Y653160D01*
X482212Y653080D01*
X482135Y652997D01*
X482060Y652911D01*
X481989Y652823D01*
X481921Y652733D01*
X481856Y652640D01*
X481794Y652545D01*
X481736Y652448D01*
X481681Y652349D01*
X481630Y652248D01*
X481582Y652145D01*
X481537Y652041D01*
X481497Y651935D01*
X481460Y651828D01*
X481427Y651720D01*
X481397Y651610D01*
X481372Y651500D01*
X481350Y651389D01*
X481333Y651277D01*
X481319Y651164D01*
X481309Y651051D01*
X481303Y650938D01*
X481301Y650825D01*
X481303Y650712D01*
X481309Y650599D01*
X481319Y650486D01*
X481333Y650373D01*
X481350Y650261D01*
X481372Y650150D01*
X481397Y650040D01*
X481427Y649930D01*
X481460Y649822D01*
X481497Y649715D01*
X481537Y649609D01*
X481582Y649505D01*
X481630Y649402D01*
X481681Y649301D01*
X481736Y649202D01*
X481794Y649105D01*
X481856Y649010D01*
X481921Y648917D01*
X481989Y648827D01*
X482060Y648739D01*
X482135Y648653D01*
X482212Y648570D01*
X482292Y648490D01*
X482375Y648413D01*
X482461Y648338D01*
X482549Y648267D01*
X482639Y648199D01*
X482732Y648134D01*
X482827Y648072D01*
X482924Y648014D01*
X483023Y647959D01*
X483124Y647908D01*
X483227Y647860D01*
X483331Y647815D01*
X483437Y647775D01*
X483544Y647738D01*
X483652Y647705D01*
X483762Y647675D01*
X483872Y647650D01*
X483983Y647628D01*
X484095Y647611D01*
X484208Y647597D01*
X484321Y647587D01*
X484434Y647581D01*
X484547Y647579D01*
X483897Y652772D02*
X481301Y655368D01*
X490064Y665214D02*
X490171Y665212D01*
X490277Y665206D01*
X490383Y665196D01*
X490489Y665183D01*
X490595Y665165D01*
X490699Y665144D01*
X490803Y665119D01*
X490906Y665090D01*
X491007Y665058D01*
X491107Y665021D01*
X491206Y664981D01*
X491304Y664938D01*
X491400Y664891D01*
X491494Y664840D01*
X491586Y664786D01*
X491676Y664729D01*
X491764Y664669D01*
X491849Y664605D01*
X491932Y664538D01*
X492013Y664468D01*
X492091Y664396D01*
X492167Y664320D01*
X492239Y664242D01*
X492309Y664161D01*
X492376Y664078D01*
X492440Y663993D01*
X492500Y663905D01*
X492557Y663815D01*
X492611Y663723D01*
X492662Y663629D01*
X492709Y663533D01*
X492752Y663435D01*
X492792Y663336D01*
X492829Y663236D01*
X492861Y663135D01*
X492890Y663032D01*
X492915Y662928D01*
X492936Y662824D01*
X492954Y662718D01*
X492967Y662612D01*
X492977Y662506D01*
X492983Y662400D01*
X492985Y662293D01*
X492983Y662172D01*
X492977Y662051D01*
X492967Y661931D01*
X492954Y661810D01*
X492936Y661691D01*
X492915Y661571D01*
X492890Y661453D01*
X492861Y661336D01*
X492828Y661219D01*
X492792Y661104D01*
X492751Y660990D01*
X492708Y660877D01*
X492660Y660765D01*
X492609Y660656D01*
X492554Y660548D01*
X492496Y660441D01*
X492435Y660337D01*
X492370Y660235D01*
X492302Y660135D01*
X492231Y660037D01*
X492157Y659941D01*
X492080Y659848D01*
X491999Y659758D01*
X491916Y659670D01*
X491830Y659585D01*
X491741Y659502D01*
X491650Y659423D01*
X491556Y659346D01*
X491460Y659273D01*
X491362Y659203D01*
X491261Y659136D01*
X491158Y659072D01*
X491053Y659012D01*
X490946Y658955D01*
X490838Y658901D01*
X490728Y658851D01*
X490616Y658805D01*
X490503Y658762D01*
X490388Y658723D01*
X487792Y664240D02*
X487869Y664319D01*
X487950Y664395D01*
X488033Y664468D01*
X488118Y664538D01*
X488206Y664605D01*
X488296Y664669D01*
X488388Y664729D01*
X488483Y664786D01*
X488579Y664840D01*
X488677Y664891D01*
X488777Y664938D01*
X488879Y664982D01*
X488982Y665022D01*
X489086Y665058D01*
X489192Y665090D01*
X489298Y665119D01*
X489406Y665144D01*
X489514Y665166D01*
X489624Y665183D01*
X489733Y665197D01*
X489843Y665206D01*
X489954Y665212D01*
X490064Y665214D01*
X487792Y664240D02*
X481301Y658723D01*
X481301Y665214D01*
D13*
X422082Y664398D02*
X422082Y673698D01*
X414082Y673698D01*
X409182Y659698D02*
X404582Y659698D01*
X391682Y664398D02*
X391682Y673698D01*
X399682Y673698D01*
D14*
X415882Y646698D02*
X415884Y646761D01*
X415890Y646823D01*
X415900Y646885D01*
X415913Y646947D01*
X415931Y647007D01*
X415952Y647066D01*
X415977Y647124D01*
X416006Y647180D01*
X416038Y647234D01*
X416073Y647286D01*
X416111Y647335D01*
X416153Y647383D01*
X416197Y647427D01*
X416245Y647469D01*
X416294Y647507D01*
X416346Y647542D01*
X416400Y647574D01*
X416456Y647603D01*
X416514Y647628D01*
X416573Y647649D01*
X416633Y647667D01*
X416695Y647680D01*
X416757Y647690D01*
X416819Y647696D01*
X416882Y647698D01*
X416945Y647696D01*
X417007Y647690D01*
X417069Y647680D01*
X417131Y647667D01*
X417191Y647649D01*
X417250Y647628D01*
X417308Y647603D01*
X417364Y647574D01*
X417418Y647542D01*
X417470Y647507D01*
X417519Y647469D01*
X417567Y647427D01*
X417611Y647383D01*
X417653Y647335D01*
X417691Y647286D01*
X417726Y647234D01*
X417758Y647180D01*
X417787Y647124D01*
X417812Y647066D01*
X417833Y647007D01*
X417851Y646947D01*
X417864Y646885D01*
X417874Y646823D01*
X417880Y646761D01*
X417882Y646698D01*
X417880Y646635D01*
X417874Y646573D01*
X417864Y646511D01*
X417851Y646449D01*
X417833Y646389D01*
X417812Y646330D01*
X417787Y646272D01*
X417758Y646216D01*
X417726Y646162D01*
X417691Y646110D01*
X417653Y646061D01*
X417611Y646013D01*
X417567Y645969D01*
X417519Y645927D01*
X417470Y645889D01*
X417418Y645854D01*
X417364Y645822D01*
X417308Y645793D01*
X417250Y645768D01*
X417191Y645747D01*
X417131Y645729D01*
X417069Y645716D01*
X417007Y645706D01*
X416945Y645700D01*
X416882Y645698D01*
X416819Y645700D01*
X416757Y645706D01*
X416695Y645716D01*
X416633Y645729D01*
X416573Y645747D01*
X416514Y645768D01*
X416456Y645793D01*
X416400Y645822D01*
X416346Y645854D01*
X416294Y645889D01*
X416245Y645927D01*
X416197Y645969D01*
X416153Y646013D01*
X416111Y646061D01*
X416073Y646110D01*
X416038Y646162D01*
X416006Y646216D01*
X415977Y646272D01*
X415952Y646330D01*
X415931Y646389D01*
X415913Y646449D01*
X415900Y646511D01*
X415890Y646573D01*
X415884Y646635D01*
X415882Y646698D01*
D11*
X434636Y647706D02*
X439828Y647706D01*
X439941Y647708D01*
X440054Y647714D01*
X440167Y647724D01*
X440280Y647738D01*
X440392Y647755D01*
X440503Y647777D01*
X440613Y647802D01*
X440723Y647832D01*
X440831Y647865D01*
X440938Y647902D01*
X441044Y647942D01*
X441148Y647987D01*
X441251Y648035D01*
X441352Y648086D01*
X441451Y648141D01*
X441548Y648199D01*
X441643Y648261D01*
X441736Y648326D01*
X441826Y648394D01*
X441914Y648465D01*
X442000Y648540D01*
X442083Y648617D01*
X442163Y648697D01*
X442240Y648780D01*
X442315Y648866D01*
X442386Y648954D01*
X442454Y649044D01*
X442519Y649137D01*
X442581Y649232D01*
X442639Y649329D01*
X442694Y649428D01*
X442745Y649529D01*
X442793Y649632D01*
X442838Y649736D01*
X442878Y649842D01*
X442915Y649949D01*
X442948Y650057D01*
X442978Y650167D01*
X443003Y650277D01*
X443025Y650388D01*
X443042Y650500D01*
X443056Y650613D01*
X443066Y650726D01*
X443072Y650839D01*
X443074Y650952D01*
X443072Y651065D01*
X443066Y651178D01*
X443056Y651291D01*
X443042Y651404D01*
X443025Y651516D01*
X443003Y651627D01*
X442978Y651737D01*
X442948Y651847D01*
X442915Y651955D01*
X442878Y652062D01*
X442838Y652168D01*
X442793Y652272D01*
X442745Y652375D01*
X442694Y652476D01*
X442639Y652575D01*
X442581Y652672D01*
X442519Y652767D01*
X442454Y652860D01*
X442386Y652950D01*
X442315Y653038D01*
X442240Y653124D01*
X442163Y653207D01*
X442083Y653287D01*
X442000Y653364D01*
X441914Y653439D01*
X441826Y653510D01*
X441736Y653578D01*
X441643Y653643D01*
X441548Y653705D01*
X441451Y653763D01*
X441352Y653818D01*
X441251Y653869D01*
X441148Y653917D01*
X441044Y653962D01*
X440938Y654002D01*
X440831Y654039D01*
X440723Y654072D01*
X440613Y654102D01*
X440503Y654127D01*
X440392Y654149D01*
X440280Y654166D01*
X440167Y654180D01*
X440054Y654190D01*
X439941Y654196D01*
X439828Y654198D01*
X439828Y654197D02*
X434636Y654197D01*
X434636Y654198D02*
X434523Y654196D01*
X434410Y654190D01*
X434297Y654180D01*
X434184Y654166D01*
X434072Y654149D01*
X433961Y654127D01*
X433851Y654102D01*
X433741Y654072D01*
X433633Y654039D01*
X433526Y654002D01*
X433420Y653962D01*
X433316Y653917D01*
X433213Y653869D01*
X433112Y653818D01*
X433013Y653763D01*
X432916Y653705D01*
X432821Y653643D01*
X432728Y653578D01*
X432638Y653510D01*
X432550Y653439D01*
X432464Y653364D01*
X432381Y653287D01*
X432301Y653207D01*
X432224Y653124D01*
X432149Y653038D01*
X432078Y652950D01*
X432010Y652860D01*
X431945Y652767D01*
X431883Y652672D01*
X431825Y652575D01*
X431770Y652476D01*
X431719Y652375D01*
X431671Y652272D01*
X431626Y652168D01*
X431586Y652062D01*
X431549Y651955D01*
X431516Y651847D01*
X431486Y651737D01*
X431461Y651627D01*
X431439Y651516D01*
X431422Y651404D01*
X431408Y651291D01*
X431398Y651178D01*
X431392Y651065D01*
X431390Y650952D01*
X431392Y650839D01*
X431398Y650726D01*
X431408Y650613D01*
X431422Y650500D01*
X431439Y650388D01*
X431461Y650277D01*
X431486Y650167D01*
X431516Y650057D01*
X431549Y649949D01*
X431586Y649842D01*
X431626Y649736D01*
X431671Y649632D01*
X431719Y649529D01*
X431770Y649428D01*
X431825Y649329D01*
X431883Y649232D01*
X431945Y649137D01*
X432010Y649044D01*
X432078Y648954D01*
X432149Y648866D01*
X432224Y648780D01*
X432301Y648697D01*
X432381Y648617D01*
X432464Y648540D01*
X432550Y648465D01*
X432638Y648394D01*
X432728Y648326D01*
X432821Y648261D01*
X432916Y648199D01*
X433013Y648141D01*
X433112Y648086D01*
X433213Y648035D01*
X433316Y647987D01*
X433420Y647942D01*
X433526Y647902D01*
X433633Y647865D01*
X433741Y647832D01*
X433851Y647802D01*
X433961Y647777D01*
X434072Y647755D01*
X434184Y647738D01*
X434297Y647724D01*
X434410Y647714D01*
X434523Y647708D01*
X434636Y647706D01*
X433986Y652899D02*
X431390Y655495D01*
X431390Y658850D02*
X431390Y662095D01*
X431392Y662208D01*
X431398Y662321D01*
X431408Y662434D01*
X431422Y662547D01*
X431439Y662659D01*
X431461Y662770D01*
X431486Y662880D01*
X431516Y662990D01*
X431549Y663098D01*
X431586Y663205D01*
X431626Y663311D01*
X431671Y663415D01*
X431719Y663518D01*
X431770Y663619D01*
X431825Y663718D01*
X431883Y663815D01*
X431945Y663910D01*
X432010Y664003D01*
X432078Y664093D01*
X432149Y664181D01*
X432224Y664267D01*
X432301Y664350D01*
X432381Y664430D01*
X432464Y664507D01*
X432550Y664582D01*
X432638Y664653D01*
X432728Y664721D01*
X432821Y664786D01*
X432916Y664848D01*
X433013Y664906D01*
X433112Y664961D01*
X433213Y665012D01*
X433316Y665060D01*
X433420Y665105D01*
X433526Y665145D01*
X433633Y665182D01*
X433741Y665215D01*
X433851Y665245D01*
X433961Y665270D01*
X434072Y665292D01*
X434184Y665309D01*
X434297Y665323D01*
X434410Y665333D01*
X434523Y665339D01*
X434636Y665341D01*
X434749Y665339D01*
X434862Y665333D01*
X434975Y665323D01*
X435088Y665309D01*
X435200Y665292D01*
X435311Y665270D01*
X435421Y665245D01*
X435531Y665215D01*
X435639Y665182D01*
X435746Y665145D01*
X435852Y665105D01*
X435956Y665060D01*
X436059Y665012D01*
X436160Y664961D01*
X436259Y664906D01*
X436356Y664848D01*
X436451Y664786D01*
X436544Y664721D01*
X436634Y664653D01*
X436722Y664582D01*
X436808Y664507D01*
X436891Y664430D01*
X436971Y664350D01*
X437048Y664267D01*
X437123Y664181D01*
X437194Y664093D01*
X437262Y664003D01*
X437327Y663910D01*
X437389Y663815D01*
X437447Y663718D01*
X437502Y663619D01*
X437553Y663518D01*
X437601Y663415D01*
X437646Y663311D01*
X437686Y663205D01*
X437723Y663098D01*
X437756Y662990D01*
X437786Y662880D01*
X437811Y662770D01*
X437833Y662659D01*
X437850Y662547D01*
X437864Y662434D01*
X437874Y662321D01*
X437880Y662208D01*
X437882Y662095D01*
X443074Y662745D02*
X443074Y658850D01*
X443074Y662745D02*
X443072Y662846D01*
X443066Y662946D01*
X443056Y663046D01*
X443043Y663146D01*
X443025Y663245D01*
X443004Y663344D01*
X442979Y663441D01*
X442950Y663538D01*
X442917Y663633D01*
X442881Y663727D01*
X442841Y663819D01*
X442798Y663910D01*
X442751Y663999D01*
X442701Y664086D01*
X442647Y664172D01*
X442590Y664255D01*
X442530Y664335D01*
X442467Y664414D01*
X442400Y664490D01*
X442331Y664563D01*
X442259Y664633D01*
X442185Y664701D01*
X442108Y664766D01*
X442028Y664827D01*
X441946Y664886D01*
X441862Y664941D01*
X441776Y664993D01*
X441688Y665042D01*
X441598Y665087D01*
X441506Y665129D01*
X441413Y665167D01*
X441318Y665201D01*
X441223Y665232D01*
X441126Y665259D01*
X441028Y665282D01*
X440929Y665302D01*
X440829Y665317D01*
X440729Y665329D01*
X440629Y665337D01*
X440528Y665341D01*
X440428Y665341D01*
X440327Y665337D01*
X440227Y665329D01*
X440127Y665317D01*
X440027Y665302D01*
X439928Y665282D01*
X439830Y665259D01*
X439733Y665232D01*
X439638Y665201D01*
X439543Y665167D01*
X439450Y665129D01*
X439358Y665087D01*
X439268Y665042D01*
X439180Y664993D01*
X439094Y664941D01*
X439010Y664886D01*
X438928Y664827D01*
X438848Y664766D01*
X438771Y664701D01*
X438697Y664633D01*
X438625Y664563D01*
X438556Y664490D01*
X438489Y664414D01*
X438426Y664335D01*
X438366Y664255D01*
X438309Y664172D01*
X438255Y664086D01*
X438205Y663999D01*
X438158Y663910D01*
X438115Y663819D01*
X438075Y663727D01*
X438039Y663633D01*
X438006Y663538D01*
X437977Y663441D01*
X437952Y663344D01*
X437931Y663245D01*
X437913Y663146D01*
X437900Y663046D01*
X437890Y662946D01*
X437884Y662846D01*
X437882Y662745D01*
X437881Y662745D02*
X437881Y660148D01*
X468382Y654727D02*
X480066Y654727D01*
X480066Y657972D01*
X480064Y658085D01*
X480058Y658198D01*
X480048Y658311D01*
X480034Y658424D01*
X480017Y658536D01*
X479995Y658647D01*
X479970Y658757D01*
X479940Y658867D01*
X479907Y658975D01*
X479870Y659082D01*
X479830Y659188D01*
X479785Y659292D01*
X479737Y659395D01*
X479686Y659496D01*
X479631Y659595D01*
X479573Y659692D01*
X479511Y659787D01*
X479446Y659880D01*
X479378Y659970D01*
X479307Y660058D01*
X479232Y660144D01*
X479155Y660227D01*
X479075Y660307D01*
X478992Y660384D01*
X478906Y660459D01*
X478818Y660530D01*
X478728Y660598D01*
X478635Y660663D01*
X478540Y660725D01*
X478443Y660783D01*
X478344Y660838D01*
X478243Y660889D01*
X478140Y660937D01*
X478036Y660982D01*
X477930Y661022D01*
X477823Y661059D01*
X477715Y661092D01*
X477605Y661122D01*
X477495Y661147D01*
X477384Y661169D01*
X477272Y661186D01*
X477159Y661200D01*
X477046Y661210D01*
X476933Y661216D01*
X476820Y661218D01*
X476707Y661216D01*
X476594Y661210D01*
X476481Y661200D01*
X476368Y661186D01*
X476256Y661169D01*
X476145Y661147D01*
X476035Y661122D01*
X475925Y661092D01*
X475817Y661059D01*
X475710Y661022D01*
X475604Y660982D01*
X475500Y660937D01*
X475397Y660889D01*
X475296Y660838D01*
X475197Y660783D01*
X475100Y660725D01*
X475005Y660663D01*
X474912Y660598D01*
X474822Y660530D01*
X474734Y660459D01*
X474648Y660384D01*
X474565Y660307D01*
X474485Y660227D01*
X474408Y660144D01*
X474333Y660058D01*
X474262Y659970D01*
X474194Y659880D01*
X474129Y659787D01*
X474067Y659692D01*
X474009Y659595D01*
X473954Y659496D01*
X473903Y659395D01*
X473855Y659292D01*
X473810Y659188D01*
X473770Y659082D01*
X473733Y658975D01*
X473700Y658867D01*
X473670Y658757D01*
X473645Y658647D01*
X473623Y658536D01*
X473606Y658424D01*
X473592Y658311D01*
X473582Y658198D01*
X473576Y658085D01*
X473574Y657972D01*
X473575Y657972D02*
X473575Y654727D01*
X473575Y658621D02*
X468382Y661218D01*
X473575Y668679D02*
X473575Y672574D01*
X473575Y668679D02*
X473577Y668580D01*
X473583Y668480D01*
X473592Y668381D01*
X473605Y668283D01*
X473622Y668185D01*
X473643Y668087D01*
X473668Y667991D01*
X473696Y667896D01*
X473728Y667802D01*
X473763Y667709D01*
X473802Y667617D01*
X473845Y667527D01*
X473890Y667439D01*
X473940Y667352D01*
X473992Y667268D01*
X474048Y667185D01*
X474106Y667105D01*
X474168Y667027D01*
X474233Y666952D01*
X474301Y666879D01*
X474371Y666809D01*
X474444Y666741D01*
X474519Y666676D01*
X474597Y666614D01*
X474677Y666556D01*
X474760Y666500D01*
X474844Y666448D01*
X474931Y666398D01*
X475019Y666353D01*
X475109Y666310D01*
X475201Y666271D01*
X475294Y666236D01*
X475388Y666204D01*
X475483Y666176D01*
X475579Y666151D01*
X475677Y666130D01*
X475775Y666113D01*
X475873Y666100D01*
X475972Y666091D01*
X476072Y666085D01*
X476171Y666083D01*
X476820Y666083D01*
X476820Y666082D02*
X476933Y666084D01*
X477046Y666090D01*
X477159Y666100D01*
X477272Y666114D01*
X477384Y666131D01*
X477495Y666153D01*
X477605Y666178D01*
X477715Y666208D01*
X477823Y666241D01*
X477930Y666278D01*
X478036Y666318D01*
X478140Y666363D01*
X478243Y666411D01*
X478344Y666462D01*
X478443Y666517D01*
X478540Y666575D01*
X478635Y666637D01*
X478728Y666702D01*
X478818Y666770D01*
X478906Y666841D01*
X478992Y666916D01*
X479075Y666993D01*
X479155Y667073D01*
X479232Y667156D01*
X479307Y667242D01*
X479378Y667330D01*
X479446Y667420D01*
X479511Y667513D01*
X479573Y667608D01*
X479631Y667705D01*
X479686Y667804D01*
X479737Y667905D01*
X479785Y668008D01*
X479830Y668112D01*
X479870Y668218D01*
X479907Y668325D01*
X479940Y668433D01*
X479970Y668543D01*
X479995Y668653D01*
X480017Y668764D01*
X480034Y668876D01*
X480048Y668989D01*
X480058Y669102D01*
X480064Y669215D01*
X480066Y669328D01*
X480064Y669441D01*
X480058Y669554D01*
X480048Y669667D01*
X480034Y669780D01*
X480017Y669892D01*
X479995Y670003D01*
X479970Y670113D01*
X479940Y670223D01*
X479907Y670331D01*
X479870Y670438D01*
X479830Y670544D01*
X479785Y670648D01*
X479737Y670751D01*
X479686Y670852D01*
X479631Y670951D01*
X479573Y671048D01*
X479511Y671143D01*
X479446Y671236D01*
X479378Y671326D01*
X479307Y671414D01*
X479232Y671500D01*
X479155Y671583D01*
X479075Y671663D01*
X478992Y671740D01*
X478906Y671815D01*
X478818Y671886D01*
X478728Y671954D01*
X478635Y672019D01*
X478540Y672081D01*
X478443Y672139D01*
X478344Y672194D01*
X478243Y672245D01*
X478140Y672293D01*
X478036Y672338D01*
X477930Y672378D01*
X477823Y672415D01*
X477715Y672448D01*
X477605Y672478D01*
X477495Y672503D01*
X477384Y672525D01*
X477272Y672542D01*
X477159Y672556D01*
X477046Y672566D01*
X476933Y672572D01*
X476820Y672574D01*
X473575Y672574D01*
X473432Y672572D01*
X473289Y672566D01*
X473146Y672556D01*
X473004Y672542D01*
X472862Y672525D01*
X472720Y672503D01*
X472579Y672478D01*
X472439Y672448D01*
X472300Y672415D01*
X472162Y672378D01*
X472025Y672337D01*
X471889Y672293D01*
X471754Y672244D01*
X471621Y672192D01*
X471489Y672137D01*
X471359Y672077D01*
X471230Y672014D01*
X471103Y671948D01*
X470979Y671878D01*
X470856Y671805D01*
X470735Y671728D01*
X470616Y671648D01*
X470500Y671565D01*
X470385Y671479D01*
X470274Y671390D01*
X470164Y671297D01*
X470058Y671202D01*
X469954Y671103D01*
X469853Y671002D01*
X469754Y670898D01*
X469659Y670792D01*
X469566Y670682D01*
X469477Y670571D01*
X469391Y670456D01*
X469308Y670340D01*
X469228Y670221D01*
X469151Y670100D01*
X469078Y669978D01*
X469008Y669853D01*
X468942Y669726D01*
X468879Y669597D01*
X468819Y669467D01*
X468764Y669335D01*
X468712Y669202D01*
X468663Y669067D01*
X468619Y668931D01*
X468578Y668794D01*
X468541Y668656D01*
X468508Y668517D01*
X468478Y668377D01*
X468453Y668236D01*
X468431Y668094D01*
X468414Y667952D01*
X468400Y667810D01*
X468390Y667667D01*
X468384Y667524D01*
X468382Y667381D01*
X533037Y661027D02*
X544721Y661027D01*
X544721Y664273D01*
X544719Y664386D01*
X544713Y664499D01*
X544703Y664612D01*
X544689Y664725D01*
X544672Y664837D01*
X544650Y664948D01*
X544625Y665058D01*
X544595Y665168D01*
X544562Y665276D01*
X544525Y665383D01*
X544485Y665489D01*
X544440Y665593D01*
X544392Y665696D01*
X544341Y665797D01*
X544286Y665896D01*
X544228Y665993D01*
X544166Y666088D01*
X544101Y666181D01*
X544033Y666271D01*
X543962Y666359D01*
X543887Y666445D01*
X543810Y666528D01*
X543730Y666608D01*
X543647Y666685D01*
X543561Y666760D01*
X543473Y666831D01*
X543383Y666899D01*
X543290Y666964D01*
X543195Y667026D01*
X543098Y667084D01*
X542999Y667139D01*
X542898Y667190D01*
X542795Y667238D01*
X542691Y667283D01*
X542585Y667323D01*
X542478Y667360D01*
X542370Y667393D01*
X542260Y667423D01*
X542150Y667448D01*
X542039Y667470D01*
X541927Y667487D01*
X541814Y667501D01*
X541701Y667511D01*
X541588Y667517D01*
X541475Y667519D01*
X541362Y667517D01*
X541249Y667511D01*
X541136Y667501D01*
X541023Y667487D01*
X540911Y667470D01*
X540800Y667448D01*
X540690Y667423D01*
X540580Y667393D01*
X540472Y667360D01*
X540365Y667323D01*
X540259Y667283D01*
X540155Y667238D01*
X540052Y667190D01*
X539951Y667139D01*
X539852Y667084D01*
X539755Y667026D01*
X539660Y666964D01*
X539567Y666899D01*
X539477Y666831D01*
X539389Y666760D01*
X539303Y666685D01*
X539220Y666608D01*
X539140Y666528D01*
X539063Y666445D01*
X538988Y666359D01*
X538917Y666271D01*
X538849Y666181D01*
X538784Y666088D01*
X538722Y665993D01*
X538664Y665896D01*
X538609Y665797D01*
X538558Y665696D01*
X538510Y665593D01*
X538465Y665489D01*
X538425Y665383D01*
X538388Y665276D01*
X538355Y665168D01*
X538325Y665058D01*
X538300Y664948D01*
X538278Y664837D01*
X538261Y664725D01*
X538247Y664612D01*
X538237Y664499D01*
X538231Y664386D01*
X538229Y664273D01*
X538230Y664273D02*
X538230Y661027D01*
X538230Y664922D02*
X533037Y667518D01*
X542125Y672383D02*
X544721Y675629D01*
X533037Y675629D01*
X533037Y678874D02*
X533037Y672383D01*
X538879Y683814D02*
X539109Y683817D01*
X539339Y683825D01*
X539568Y683839D01*
X539797Y683858D01*
X540026Y683883D01*
X540253Y683913D01*
X540481Y683948D01*
X540707Y683989D01*
X540932Y684035D01*
X541156Y684087D01*
X541378Y684144D01*
X541600Y684206D01*
X541819Y684274D01*
X542037Y684347D01*
X542254Y684425D01*
X542468Y684508D01*
X542680Y684596D01*
X542890Y684689D01*
X543098Y684788D01*
X543098Y684787D02*
X543188Y684820D01*
X543277Y684856D01*
X543365Y684896D01*
X543450Y684940D01*
X543534Y684987D01*
X543616Y685037D01*
X543696Y685091D01*
X543773Y685147D01*
X543849Y685207D01*
X543922Y685270D01*
X543992Y685335D01*
X544060Y685404D01*
X544124Y685475D01*
X544186Y685548D01*
X544245Y685624D01*
X544301Y685702D01*
X544354Y685783D01*
X544403Y685865D01*
X544449Y685949D01*
X544492Y686036D01*
X544531Y686123D01*
X544567Y686213D01*
X544599Y686303D01*
X544627Y686395D01*
X544652Y686488D01*
X544673Y686582D01*
X544690Y686676D01*
X544704Y686771D01*
X544713Y686867D01*
X544719Y686963D01*
X544721Y687059D01*
X544719Y687155D01*
X544713Y687251D01*
X544704Y687347D01*
X544690Y687442D01*
X544673Y687536D01*
X544652Y687630D01*
X544627Y687723D01*
X544599Y687815D01*
X544567Y687905D01*
X544531Y687995D01*
X544492Y688082D01*
X544449Y688169D01*
X544403Y688253D01*
X544354Y688335D01*
X544301Y688416D01*
X544245Y688494D01*
X544186Y688570D01*
X544124Y688643D01*
X544060Y688714D01*
X543992Y688783D01*
X543922Y688848D01*
X543849Y688911D01*
X543773Y688971D01*
X543696Y689027D01*
X543616Y689081D01*
X543534Y689131D01*
X543450Y689178D01*
X543365Y689222D01*
X543277Y689262D01*
X543188Y689298D01*
X543098Y689331D01*
X542891Y689430D01*
X542681Y689523D01*
X542468Y689611D01*
X542254Y689694D01*
X542038Y689772D01*
X541820Y689845D01*
X541600Y689913D01*
X541379Y689975D01*
X541156Y690032D01*
X540932Y690084D01*
X540707Y690130D01*
X540481Y690171D01*
X540254Y690206D01*
X540026Y690236D01*
X539797Y690261D01*
X539568Y690280D01*
X539339Y690294D01*
X539109Y690302D01*
X538879Y690305D01*
X538879Y683813D02*
X538649Y683816D01*
X538419Y683824D01*
X538190Y683838D01*
X537961Y683857D01*
X537732Y683882D01*
X537504Y683912D01*
X537277Y683947D01*
X537051Y683988D01*
X536826Y684034D01*
X536602Y684086D01*
X536379Y684143D01*
X536158Y684205D01*
X535938Y684273D01*
X535720Y684346D01*
X535504Y684424D01*
X535290Y684507D01*
X535078Y684595D01*
X534867Y684688D01*
X534660Y684787D01*
X534570Y684820D01*
X534481Y684856D01*
X534393Y684897D01*
X534308Y684940D01*
X534224Y684987D01*
X534142Y685037D01*
X534062Y685091D01*
X533985Y685147D01*
X533909Y685207D01*
X533836Y685270D01*
X533766Y685335D01*
X533698Y685404D01*
X533634Y685475D01*
X533572Y685548D01*
X533513Y685624D01*
X533457Y685702D01*
X533404Y685783D01*
X533355Y685865D01*
X533309Y685949D01*
X533266Y686036D01*
X533227Y686123D01*
X533191Y686213D01*
X533159Y686303D01*
X533131Y686395D01*
X533106Y686488D01*
X533085Y686582D01*
X533068Y686676D01*
X533054Y686771D01*
X533045Y686867D01*
X533039Y686963D01*
X533037Y687059D01*
X534660Y689331D02*
X534867Y689430D01*
X535078Y689523D01*
X535290Y689611D01*
X535504Y689694D01*
X535720Y689772D01*
X535938Y689845D01*
X536158Y689913D01*
X536379Y689975D01*
X536602Y690032D01*
X536826Y690084D01*
X537051Y690130D01*
X537277Y690171D01*
X537504Y690206D01*
X537732Y690236D01*
X537961Y690261D01*
X538190Y690280D01*
X538419Y690294D01*
X538649Y690302D01*
X538879Y690305D01*
X534660Y689331D02*
X534570Y689298D01*
X534481Y689262D01*
X534393Y689222D01*
X534308Y689178D01*
X534224Y689131D01*
X534142Y689081D01*
X534062Y689027D01*
X533985Y688971D01*
X533909Y688911D01*
X533836Y688848D01*
X533766Y688783D01*
X533698Y688714D01*
X533634Y688643D01*
X533572Y688570D01*
X533513Y688494D01*
X533457Y688416D01*
X533404Y688335D01*
X533355Y688253D01*
X533309Y688169D01*
X533266Y688082D01*
X533227Y687995D01*
X533191Y687905D01*
X533159Y687815D01*
X533131Y687723D01*
X533106Y687630D01*
X533085Y687536D01*
X533068Y687442D01*
X533054Y687347D01*
X533045Y687251D01*
X533039Y687155D01*
X533037Y687059D01*
X535633Y684462D02*
X542125Y689655D01*
D12*
X553654Y515327D02*
X555742Y515327D01*
X555831Y515329D01*
X555919Y515335D01*
X556007Y515344D01*
X556095Y515357D01*
X556182Y515374D01*
X556268Y515394D01*
X556353Y515419D01*
X556438Y515446D01*
X556521Y515478D01*
X556602Y515512D01*
X556682Y515551D01*
X556760Y515592D01*
X556837Y515637D01*
X556911Y515685D01*
X556984Y515736D01*
X557054Y515790D01*
X557121Y515848D01*
X557187Y515908D01*
X557249Y515970D01*
X557309Y516036D01*
X557367Y516103D01*
X557421Y516173D01*
X557472Y516246D01*
X557520Y516320D01*
X557565Y516397D01*
X557606Y516475D01*
X557645Y516555D01*
X557679Y516636D01*
X557711Y516719D01*
X557738Y516804D01*
X557763Y516889D01*
X557783Y516975D01*
X557800Y517062D01*
X557813Y517150D01*
X557822Y517238D01*
X557828Y517326D01*
X557830Y517415D01*
X557831Y517415D02*
X557831Y522637D01*
X557830Y522637D02*
X557828Y522726D01*
X557822Y522814D01*
X557813Y522902D01*
X557800Y522990D01*
X557783Y523077D01*
X557763Y523163D01*
X557738Y523248D01*
X557711Y523333D01*
X557679Y523416D01*
X557645Y523497D01*
X557606Y523577D01*
X557565Y523655D01*
X557520Y523732D01*
X557472Y523806D01*
X557421Y523879D01*
X557367Y523949D01*
X557309Y524016D01*
X557249Y524082D01*
X557187Y524144D01*
X557121Y524204D01*
X557054Y524262D01*
X556984Y524316D01*
X556911Y524367D01*
X556837Y524415D01*
X556760Y524460D01*
X556682Y524501D01*
X556602Y524540D01*
X556521Y524574D01*
X556438Y524606D01*
X556353Y524633D01*
X556268Y524658D01*
X556182Y524678D01*
X556095Y524695D01*
X556007Y524708D01*
X555919Y524717D01*
X555831Y524723D01*
X555742Y524725D01*
X553654Y524725D01*
X550185Y520548D02*
X547052Y520548D01*
X546963Y520546D01*
X546875Y520540D01*
X546787Y520531D01*
X546699Y520518D01*
X546612Y520501D01*
X546526Y520481D01*
X546441Y520456D01*
X546356Y520429D01*
X546273Y520397D01*
X546192Y520363D01*
X546112Y520324D01*
X546034Y520283D01*
X545957Y520238D01*
X545883Y520190D01*
X545810Y520139D01*
X545740Y520085D01*
X545673Y520027D01*
X545607Y519967D01*
X545545Y519905D01*
X545485Y519839D01*
X545427Y519772D01*
X545373Y519702D01*
X545322Y519629D01*
X545274Y519555D01*
X545229Y519478D01*
X545188Y519400D01*
X545149Y519320D01*
X545115Y519239D01*
X545083Y519156D01*
X545056Y519071D01*
X545031Y518986D01*
X545011Y518900D01*
X544994Y518813D01*
X544981Y518725D01*
X544972Y518637D01*
X544966Y518549D01*
X544964Y518460D01*
X544964Y517938D01*
X544966Y517837D01*
X544972Y517736D01*
X544982Y517635D01*
X544995Y517535D01*
X545013Y517435D01*
X545034Y517336D01*
X545060Y517238D01*
X545089Y517141D01*
X545121Y517045D01*
X545158Y516951D01*
X545198Y516858D01*
X545242Y516766D01*
X545289Y516677D01*
X545340Y516589D01*
X545394Y516503D01*
X545451Y516420D01*
X545511Y516338D01*
X545575Y516260D01*
X545641Y516183D01*
X545711Y516110D01*
X545783Y516039D01*
X545858Y515971D01*
X545936Y515906D01*
X546016Y515844D01*
X546098Y515785D01*
X546183Y515729D01*
X546270Y515677D01*
X546358Y515628D01*
X546449Y515582D01*
X546541Y515541D01*
X546635Y515502D01*
X546730Y515468D01*
X546826Y515437D01*
X546924Y515410D01*
X547022Y515386D01*
X547122Y515367D01*
X547222Y515351D01*
X547322Y515339D01*
X547423Y515331D01*
X547524Y515327D01*
X547626Y515327D01*
X547727Y515331D01*
X547828Y515339D01*
X547928Y515351D01*
X548028Y515367D01*
X548128Y515386D01*
X548226Y515410D01*
X548324Y515437D01*
X548420Y515468D01*
X548515Y515502D01*
X548609Y515541D01*
X548701Y515582D01*
X548792Y515628D01*
X548881Y515677D01*
X548967Y515729D01*
X549052Y515785D01*
X549134Y515844D01*
X549214Y515906D01*
X549292Y515971D01*
X549367Y516039D01*
X549439Y516110D01*
X549509Y516183D01*
X549575Y516260D01*
X549639Y516338D01*
X549699Y516420D01*
X549756Y516503D01*
X549810Y516589D01*
X549861Y516677D01*
X549908Y516766D01*
X549952Y516858D01*
X549992Y516951D01*
X550029Y517045D01*
X550061Y517141D01*
X550090Y517238D01*
X550116Y517336D01*
X550137Y517435D01*
X550155Y517535D01*
X550168Y517635D01*
X550178Y517736D01*
X550184Y517837D01*
X550186Y517938D01*
X550185Y517938D02*
X550185Y520548D01*
X550183Y520674D01*
X550177Y520800D01*
X550168Y520926D01*
X550155Y521051D01*
X550137Y521176D01*
X550117Y521301D01*
X550092Y521425D01*
X550064Y521548D01*
X550032Y521670D01*
X549996Y521791D01*
X549957Y521911D01*
X549914Y522029D01*
X549867Y522146D01*
X549817Y522262D01*
X549763Y522377D01*
X549707Y522489D01*
X549646Y522600D01*
X549583Y522709D01*
X549516Y522816D01*
X549446Y522921D01*
X549372Y523024D01*
X549296Y523124D01*
X549217Y523222D01*
X549135Y523318D01*
X549049Y523411D01*
X548962Y523502D01*
X548871Y523589D01*
X548778Y523675D01*
X548682Y523757D01*
X548584Y523836D01*
X548484Y523912D01*
X548381Y523986D01*
X548276Y524056D01*
X548169Y524123D01*
X548060Y524186D01*
X547949Y524247D01*
X547837Y524303D01*
X547722Y524357D01*
X547606Y524407D01*
X547489Y524454D01*
X547371Y524497D01*
X547251Y524536D01*
X547130Y524572D01*
X547008Y524604D01*
X546885Y524632D01*
X546761Y524657D01*
X546636Y524677D01*
X546511Y524695D01*
X546386Y524708D01*
X546260Y524717D01*
X546134Y524723D01*
X546008Y524725D01*
X509536Y489901D02*
X507447Y489901D01*
X509536Y489901D02*
X509625Y489903D01*
X509713Y489909D01*
X509801Y489918D01*
X509889Y489931D01*
X509976Y489948D01*
X510062Y489968D01*
X510147Y489993D01*
X510232Y490020D01*
X510315Y490052D01*
X510396Y490086D01*
X510476Y490125D01*
X510554Y490166D01*
X510631Y490211D01*
X510705Y490259D01*
X510778Y490310D01*
X510848Y490364D01*
X510915Y490422D01*
X510981Y490482D01*
X511043Y490544D01*
X511103Y490610D01*
X511161Y490677D01*
X511215Y490747D01*
X511266Y490820D01*
X511314Y490894D01*
X511359Y490971D01*
X511400Y491049D01*
X511439Y491129D01*
X511473Y491210D01*
X511505Y491293D01*
X511532Y491378D01*
X511557Y491463D01*
X511577Y491549D01*
X511594Y491636D01*
X511607Y491724D01*
X511616Y491812D01*
X511622Y491900D01*
X511624Y491989D01*
X511624Y497211D01*
X511622Y497300D01*
X511616Y497388D01*
X511607Y497476D01*
X511594Y497564D01*
X511577Y497651D01*
X511557Y497737D01*
X511532Y497822D01*
X511505Y497907D01*
X511473Y497990D01*
X511439Y498071D01*
X511400Y498151D01*
X511359Y498229D01*
X511314Y498306D01*
X511266Y498380D01*
X511215Y498453D01*
X511161Y498523D01*
X511103Y498590D01*
X511043Y498656D01*
X510981Y498718D01*
X510915Y498778D01*
X510848Y498836D01*
X510778Y498890D01*
X510705Y498941D01*
X510631Y498989D01*
X510554Y499034D01*
X510476Y499075D01*
X510396Y499114D01*
X510315Y499148D01*
X510232Y499180D01*
X510147Y499207D01*
X510062Y499232D01*
X509976Y499252D01*
X509889Y499269D01*
X509801Y499282D01*
X509713Y499291D01*
X509625Y499297D01*
X509536Y499299D01*
X507447Y499299D01*
X503978Y499299D02*
X503978Y498255D01*
X503978Y499299D02*
X498757Y499299D01*
X501368Y489901D01*
X343141Y854164D02*
X343141Y856253D01*
X343141Y854164D02*
X343143Y854075D01*
X343149Y853987D01*
X343158Y853899D01*
X343171Y853811D01*
X343188Y853724D01*
X343208Y853638D01*
X343233Y853553D01*
X343260Y853468D01*
X343292Y853385D01*
X343326Y853304D01*
X343365Y853224D01*
X343406Y853146D01*
X343451Y853069D01*
X343499Y852995D01*
X343550Y852922D01*
X343604Y852852D01*
X343662Y852785D01*
X343722Y852719D01*
X343784Y852657D01*
X343850Y852597D01*
X343917Y852539D01*
X343987Y852485D01*
X344060Y852434D01*
X344134Y852386D01*
X344211Y852341D01*
X344289Y852300D01*
X344369Y852261D01*
X344450Y852227D01*
X344533Y852195D01*
X344618Y852168D01*
X344703Y852143D01*
X344789Y852123D01*
X344876Y852106D01*
X344964Y852093D01*
X345052Y852084D01*
X345140Y852078D01*
X345229Y852076D01*
X350451Y852076D01*
X350542Y852078D01*
X350633Y852084D01*
X350724Y852094D01*
X350814Y852108D01*
X350903Y852125D01*
X350991Y852147D01*
X351079Y852173D01*
X351165Y852202D01*
X351250Y852235D01*
X351333Y852272D01*
X351415Y852312D01*
X351495Y852356D01*
X351573Y852403D01*
X351649Y852454D01*
X351722Y852507D01*
X351793Y852564D01*
X351862Y852625D01*
X351927Y852688D01*
X351990Y852753D01*
X352050Y852822D01*
X352108Y852893D01*
X352161Y852966D01*
X352212Y853042D01*
X352259Y853120D01*
X352303Y853200D01*
X352343Y853282D01*
X352380Y853365D01*
X352413Y853450D01*
X352442Y853536D01*
X352468Y853624D01*
X352490Y853712D01*
X352507Y853801D01*
X352521Y853891D01*
X352531Y853982D01*
X352537Y854073D01*
X352539Y854164D01*
X352539Y856253D01*
X345752Y859721D02*
X345853Y859723D01*
X345954Y859729D01*
X346055Y859739D01*
X346155Y859752D01*
X346255Y859770D01*
X346354Y859791D01*
X346452Y859817D01*
X346549Y859846D01*
X346645Y859878D01*
X346739Y859915D01*
X346832Y859955D01*
X346924Y859999D01*
X347013Y860046D01*
X347101Y860097D01*
X347187Y860151D01*
X347270Y860208D01*
X347352Y860268D01*
X347430Y860332D01*
X347507Y860398D01*
X347580Y860468D01*
X347651Y860540D01*
X347719Y860615D01*
X347784Y860693D01*
X347846Y860773D01*
X347905Y860855D01*
X347961Y860940D01*
X348013Y861027D01*
X348062Y861115D01*
X348108Y861206D01*
X348149Y861298D01*
X348188Y861392D01*
X348222Y861487D01*
X348253Y861583D01*
X348280Y861681D01*
X348304Y861779D01*
X348323Y861879D01*
X348339Y861979D01*
X348351Y862079D01*
X348359Y862180D01*
X348363Y862281D01*
X348363Y862383D01*
X348359Y862484D01*
X348351Y862585D01*
X348339Y862685D01*
X348323Y862785D01*
X348304Y862885D01*
X348280Y862983D01*
X348253Y863081D01*
X348222Y863177D01*
X348188Y863272D01*
X348149Y863366D01*
X348108Y863458D01*
X348062Y863549D01*
X348013Y863638D01*
X347961Y863724D01*
X347905Y863809D01*
X347846Y863891D01*
X347784Y863971D01*
X347719Y864049D01*
X347651Y864124D01*
X347580Y864196D01*
X347507Y864266D01*
X347430Y864332D01*
X347352Y864396D01*
X347270Y864456D01*
X347187Y864513D01*
X347101Y864567D01*
X347013Y864618D01*
X346924Y864665D01*
X346832Y864709D01*
X346739Y864749D01*
X346645Y864786D01*
X346549Y864818D01*
X346452Y864847D01*
X346354Y864873D01*
X346255Y864894D01*
X346155Y864912D01*
X346055Y864925D01*
X345954Y864935D01*
X345853Y864941D01*
X345752Y864943D01*
X345651Y864941D01*
X345550Y864935D01*
X345449Y864925D01*
X345349Y864912D01*
X345249Y864894D01*
X345150Y864873D01*
X345052Y864847D01*
X344955Y864818D01*
X344859Y864786D01*
X344765Y864749D01*
X344672Y864709D01*
X344580Y864665D01*
X344491Y864618D01*
X344403Y864567D01*
X344317Y864513D01*
X344234Y864456D01*
X344152Y864396D01*
X344074Y864332D01*
X343997Y864266D01*
X343924Y864196D01*
X343853Y864124D01*
X343785Y864049D01*
X343720Y863971D01*
X343658Y863891D01*
X343599Y863809D01*
X343543Y863724D01*
X343491Y863638D01*
X343442Y863549D01*
X343396Y863458D01*
X343355Y863366D01*
X343316Y863272D01*
X343282Y863177D01*
X343251Y863081D01*
X343224Y862983D01*
X343200Y862885D01*
X343181Y862785D01*
X343165Y862685D01*
X343153Y862585D01*
X343145Y862484D01*
X343141Y862383D01*
X343141Y862281D01*
X343145Y862180D01*
X343153Y862079D01*
X343165Y861979D01*
X343181Y861879D01*
X343200Y861779D01*
X343224Y861681D01*
X343251Y861583D01*
X343282Y861487D01*
X343316Y861392D01*
X343355Y861298D01*
X343396Y861206D01*
X343442Y861115D01*
X343491Y861027D01*
X343543Y860940D01*
X343599Y860855D01*
X343658Y860773D01*
X343720Y860693D01*
X343785Y860615D01*
X343853Y860540D01*
X343924Y860468D01*
X343997Y860398D01*
X344074Y860332D01*
X344152Y860268D01*
X344234Y860208D01*
X344317Y860151D01*
X344403Y860097D01*
X344491Y860046D01*
X344580Y859999D01*
X344672Y859955D01*
X344765Y859915D01*
X344859Y859878D01*
X344955Y859846D01*
X345052Y859817D01*
X345150Y859791D01*
X345249Y859770D01*
X345349Y859752D01*
X345449Y859739D01*
X345550Y859729D01*
X345651Y859723D01*
X345752Y859721D01*
X350451Y860244D02*
X350541Y860246D01*
X350630Y860252D01*
X350720Y860261D01*
X350809Y860275D01*
X350897Y860292D01*
X350984Y860313D01*
X351071Y860338D01*
X351156Y860367D01*
X351240Y860399D01*
X351322Y860434D01*
X351403Y860474D01*
X351482Y860516D01*
X351559Y860562D01*
X351634Y860612D01*
X351707Y860664D01*
X351778Y860720D01*
X351846Y860778D01*
X351911Y860840D01*
X351974Y860904D01*
X352034Y860971D01*
X352091Y861040D01*
X352145Y861112D01*
X352196Y861186D01*
X352244Y861262D01*
X352288Y861340D01*
X352329Y861420D01*
X352367Y861502D01*
X352401Y861585D01*
X352431Y861670D01*
X352458Y861756D01*
X352481Y861842D01*
X352500Y861930D01*
X352515Y862019D01*
X352527Y862108D01*
X352535Y862197D01*
X352539Y862287D01*
X352539Y862377D01*
X352535Y862467D01*
X352527Y862556D01*
X352515Y862645D01*
X352500Y862734D01*
X352481Y862822D01*
X352458Y862908D01*
X352431Y862994D01*
X352401Y863079D01*
X352367Y863162D01*
X352329Y863244D01*
X352288Y863324D01*
X352244Y863402D01*
X352196Y863478D01*
X352145Y863552D01*
X352091Y863624D01*
X352034Y863693D01*
X351974Y863760D01*
X351911Y863824D01*
X351846Y863886D01*
X351778Y863944D01*
X351707Y864000D01*
X351634Y864052D01*
X351559Y864102D01*
X351482Y864148D01*
X351403Y864190D01*
X351322Y864230D01*
X351240Y864265D01*
X351156Y864297D01*
X351071Y864326D01*
X350984Y864351D01*
X350897Y864372D01*
X350809Y864389D01*
X350720Y864403D01*
X350630Y864412D01*
X350541Y864418D01*
X350451Y864420D01*
X350361Y864418D01*
X350272Y864412D01*
X350182Y864403D01*
X350093Y864389D01*
X350005Y864372D01*
X349918Y864351D01*
X349831Y864326D01*
X349746Y864297D01*
X349662Y864265D01*
X349580Y864230D01*
X349499Y864190D01*
X349420Y864148D01*
X349343Y864102D01*
X349268Y864052D01*
X349195Y864000D01*
X349124Y863944D01*
X349056Y863886D01*
X348991Y863824D01*
X348928Y863760D01*
X348868Y863693D01*
X348811Y863624D01*
X348757Y863552D01*
X348706Y863478D01*
X348658Y863402D01*
X348614Y863324D01*
X348573Y863244D01*
X348535Y863162D01*
X348501Y863079D01*
X348471Y862994D01*
X348444Y862908D01*
X348421Y862822D01*
X348402Y862734D01*
X348387Y862645D01*
X348375Y862556D01*
X348367Y862467D01*
X348363Y862377D01*
X348363Y862287D01*
X348367Y862197D01*
X348375Y862108D01*
X348387Y862019D01*
X348402Y861930D01*
X348421Y861842D01*
X348444Y861756D01*
X348471Y861670D01*
X348501Y861585D01*
X348535Y861502D01*
X348573Y861420D01*
X348614Y861340D01*
X348658Y861262D01*
X348706Y861186D01*
X348757Y861112D01*
X348811Y861040D01*
X348868Y860971D01*
X348928Y860904D01*
X348991Y860840D01*
X349056Y860778D01*
X349124Y860720D01*
X349195Y860664D01*
X349268Y860612D01*
X349343Y860562D01*
X349420Y860516D01*
X349499Y860474D01*
X349580Y860434D01*
X349662Y860399D01*
X349746Y860367D01*
X349831Y860338D01*
X349918Y860313D01*
X350005Y860292D01*
X350093Y860275D01*
X350182Y860261D01*
X350272Y860252D01*
X350361Y860246D01*
X350451Y860244D01*
X374991Y848246D02*
X377079Y848246D01*
X377168Y848248D01*
X377256Y848254D01*
X377344Y848263D01*
X377432Y848276D01*
X377519Y848293D01*
X377605Y848313D01*
X377690Y848338D01*
X377775Y848365D01*
X377858Y848397D01*
X377939Y848431D01*
X378019Y848470D01*
X378097Y848511D01*
X378174Y848556D01*
X378248Y848604D01*
X378321Y848655D01*
X378391Y848709D01*
X378458Y848767D01*
X378524Y848827D01*
X378586Y848889D01*
X378646Y848955D01*
X378704Y849022D01*
X378758Y849092D01*
X378809Y849165D01*
X378857Y849239D01*
X378902Y849316D01*
X378943Y849394D01*
X378982Y849474D01*
X379016Y849555D01*
X379048Y849638D01*
X379075Y849723D01*
X379100Y849808D01*
X379120Y849894D01*
X379137Y849981D01*
X379150Y850069D01*
X379159Y850157D01*
X379165Y850245D01*
X379167Y850334D01*
X379168Y850334D02*
X379168Y855556D01*
X379167Y855556D02*
X379165Y855645D01*
X379159Y855733D01*
X379150Y855821D01*
X379137Y855909D01*
X379120Y855996D01*
X379100Y856082D01*
X379075Y856167D01*
X379048Y856252D01*
X379016Y856335D01*
X378982Y856416D01*
X378943Y856496D01*
X378902Y856574D01*
X378857Y856651D01*
X378809Y856725D01*
X378758Y856798D01*
X378704Y856868D01*
X378646Y856935D01*
X378586Y857001D01*
X378524Y857063D01*
X378458Y857123D01*
X378391Y857181D01*
X378321Y857235D01*
X378248Y857286D01*
X378174Y857334D01*
X378097Y857379D01*
X378019Y857420D01*
X377939Y857459D01*
X377858Y857493D01*
X377775Y857525D01*
X377690Y857552D01*
X377605Y857577D01*
X377519Y857597D01*
X377432Y857614D01*
X377344Y857627D01*
X377256Y857636D01*
X377168Y857642D01*
X377079Y857644D01*
X374991Y857644D01*
X369434Y852423D02*
X366301Y852423D01*
X369434Y852423D02*
X369523Y852425D01*
X369611Y852431D01*
X369699Y852440D01*
X369787Y852453D01*
X369874Y852470D01*
X369960Y852490D01*
X370045Y852515D01*
X370130Y852542D01*
X370213Y852574D01*
X370294Y852608D01*
X370374Y852647D01*
X370452Y852688D01*
X370529Y852733D01*
X370603Y852781D01*
X370676Y852832D01*
X370746Y852886D01*
X370813Y852944D01*
X370879Y853004D01*
X370941Y853066D01*
X371001Y853132D01*
X371059Y853199D01*
X371113Y853269D01*
X371164Y853342D01*
X371212Y853416D01*
X371257Y853493D01*
X371298Y853571D01*
X371337Y853651D01*
X371371Y853732D01*
X371403Y853815D01*
X371430Y853900D01*
X371455Y853985D01*
X371475Y854071D01*
X371492Y854158D01*
X371505Y854246D01*
X371514Y854334D01*
X371520Y854422D01*
X371522Y854511D01*
X371522Y855033D01*
X371523Y855033D02*
X371521Y855134D01*
X371515Y855235D01*
X371505Y855336D01*
X371492Y855436D01*
X371474Y855536D01*
X371453Y855635D01*
X371427Y855733D01*
X371398Y855830D01*
X371366Y855926D01*
X371329Y856020D01*
X371289Y856113D01*
X371245Y856205D01*
X371198Y856294D01*
X371147Y856382D01*
X371093Y856468D01*
X371036Y856551D01*
X370976Y856633D01*
X370912Y856711D01*
X370846Y856788D01*
X370776Y856861D01*
X370704Y856932D01*
X370629Y857000D01*
X370551Y857065D01*
X370471Y857127D01*
X370389Y857186D01*
X370304Y857242D01*
X370218Y857294D01*
X370129Y857343D01*
X370038Y857389D01*
X369946Y857430D01*
X369852Y857469D01*
X369757Y857503D01*
X369661Y857534D01*
X369563Y857561D01*
X369465Y857585D01*
X369365Y857604D01*
X369265Y857620D01*
X369165Y857632D01*
X369064Y857640D01*
X368963Y857644D01*
X368861Y857644D01*
X368760Y857640D01*
X368659Y857632D01*
X368559Y857620D01*
X368459Y857604D01*
X368359Y857585D01*
X368261Y857561D01*
X368163Y857534D01*
X368067Y857503D01*
X367972Y857469D01*
X367878Y857430D01*
X367786Y857389D01*
X367695Y857343D01*
X367607Y857294D01*
X367520Y857242D01*
X367435Y857186D01*
X367353Y857127D01*
X367273Y857065D01*
X367195Y857000D01*
X367120Y856932D01*
X367048Y856861D01*
X366978Y856788D01*
X366912Y856711D01*
X366848Y856633D01*
X366788Y856551D01*
X366731Y856468D01*
X366677Y856382D01*
X366626Y856294D01*
X366579Y856205D01*
X366535Y856113D01*
X366495Y856020D01*
X366458Y855926D01*
X366426Y855830D01*
X366397Y855733D01*
X366371Y855635D01*
X366350Y855536D01*
X366332Y855436D01*
X366319Y855336D01*
X366309Y855235D01*
X366303Y855134D01*
X366301Y855033D01*
X366301Y852423D01*
X366303Y852297D01*
X366309Y852171D01*
X366318Y852045D01*
X366331Y851920D01*
X366349Y851795D01*
X366369Y851670D01*
X366394Y851546D01*
X366422Y851423D01*
X366454Y851301D01*
X366490Y851180D01*
X366529Y851060D01*
X366572Y850942D01*
X366619Y850825D01*
X366669Y850709D01*
X366723Y850594D01*
X366779Y850482D01*
X366840Y850371D01*
X366903Y850262D01*
X366970Y850155D01*
X367040Y850050D01*
X367114Y849947D01*
X367190Y849847D01*
X367269Y849749D01*
X367351Y849653D01*
X367437Y849560D01*
X367524Y849469D01*
X367615Y849382D01*
X367708Y849296D01*
X367804Y849214D01*
X367902Y849135D01*
X368002Y849059D01*
X368105Y848985D01*
X368210Y848915D01*
X368317Y848848D01*
X368426Y848785D01*
X368537Y848724D01*
X368649Y848668D01*
X368764Y848614D01*
X368880Y848564D01*
X368997Y848517D01*
X369115Y848474D01*
X369235Y848435D01*
X369356Y848399D01*
X369478Y848367D01*
X369601Y848339D01*
X369725Y848314D01*
X369850Y848294D01*
X369975Y848276D01*
X370100Y848263D01*
X370226Y848254D01*
X370352Y848248D01*
X370478Y848246D01*
D11*
X586195Y563393D02*
X586195Y551709D01*
X586195Y563393D02*
X582949Y563393D01*
X582836Y563391D01*
X582723Y563385D01*
X582610Y563375D01*
X582497Y563361D01*
X582385Y563344D01*
X582274Y563322D01*
X582164Y563297D01*
X582054Y563267D01*
X581946Y563234D01*
X581839Y563197D01*
X581733Y563157D01*
X581629Y563112D01*
X581526Y563064D01*
X581425Y563013D01*
X581326Y562958D01*
X581229Y562900D01*
X581134Y562838D01*
X581041Y562773D01*
X580951Y562705D01*
X580863Y562634D01*
X580777Y562559D01*
X580694Y562482D01*
X580614Y562402D01*
X580537Y562319D01*
X580462Y562233D01*
X580391Y562145D01*
X580323Y562055D01*
X580258Y561962D01*
X580196Y561867D01*
X580138Y561770D01*
X580083Y561671D01*
X580032Y561570D01*
X579984Y561467D01*
X579939Y561363D01*
X579899Y561257D01*
X579862Y561150D01*
X579829Y561042D01*
X579799Y560932D01*
X579774Y560822D01*
X579752Y560711D01*
X579735Y560599D01*
X579721Y560486D01*
X579711Y560373D01*
X579705Y560260D01*
X579703Y560147D01*
X579705Y560034D01*
X579711Y559921D01*
X579721Y559808D01*
X579735Y559695D01*
X579752Y559583D01*
X579774Y559472D01*
X579799Y559362D01*
X579829Y559252D01*
X579862Y559144D01*
X579899Y559037D01*
X579939Y558931D01*
X579984Y558827D01*
X580032Y558724D01*
X580083Y558623D01*
X580138Y558524D01*
X580196Y558427D01*
X580258Y558332D01*
X580323Y558239D01*
X580391Y558149D01*
X580462Y558061D01*
X580537Y557975D01*
X580614Y557892D01*
X580694Y557812D01*
X580777Y557735D01*
X580863Y557660D01*
X580951Y557589D01*
X581041Y557521D01*
X581134Y557456D01*
X581229Y557394D01*
X581326Y557336D01*
X581425Y557281D01*
X581526Y557230D01*
X581629Y557182D01*
X581733Y557137D01*
X581839Y557097D01*
X581946Y557060D01*
X582054Y557027D01*
X582164Y556997D01*
X582274Y556972D01*
X582385Y556950D01*
X582497Y556933D01*
X582610Y556919D01*
X582723Y556909D01*
X582836Y556903D01*
X582949Y556901D01*
X586195Y556901D01*
X582300Y556901D02*
X579703Y551709D01*
X574838Y560796D02*
X571593Y563393D01*
X571593Y551709D01*
X574838Y551709D02*
X568347Y551709D01*
X563408Y560796D02*
X560163Y563393D01*
X560163Y551709D01*
X563408Y551709D02*
X556917Y551709D01*
D12*
X430288Y565593D02*
X428199Y565593D01*
X430288Y565593D02*
X430377Y565595D01*
X430465Y565601D01*
X430553Y565610D01*
X430641Y565623D01*
X430728Y565640D01*
X430814Y565660D01*
X430899Y565685D01*
X430984Y565712D01*
X431067Y565744D01*
X431148Y565778D01*
X431228Y565817D01*
X431306Y565858D01*
X431383Y565903D01*
X431457Y565951D01*
X431530Y566002D01*
X431600Y566056D01*
X431667Y566114D01*
X431733Y566174D01*
X431795Y566236D01*
X431855Y566302D01*
X431913Y566369D01*
X431967Y566439D01*
X432018Y566512D01*
X432066Y566586D01*
X432111Y566663D01*
X432152Y566741D01*
X432191Y566821D01*
X432225Y566902D01*
X432257Y566985D01*
X432284Y567070D01*
X432309Y567155D01*
X432329Y567241D01*
X432346Y567328D01*
X432359Y567416D01*
X432368Y567504D01*
X432374Y567592D01*
X432376Y567681D01*
X432376Y572903D01*
X432374Y572992D01*
X432368Y573080D01*
X432359Y573168D01*
X432346Y573256D01*
X432329Y573343D01*
X432309Y573429D01*
X432284Y573514D01*
X432257Y573599D01*
X432225Y573682D01*
X432191Y573763D01*
X432152Y573843D01*
X432111Y573921D01*
X432066Y573998D01*
X432018Y574072D01*
X431967Y574145D01*
X431913Y574215D01*
X431855Y574282D01*
X431795Y574348D01*
X431733Y574410D01*
X431667Y574470D01*
X431600Y574528D01*
X431530Y574582D01*
X431457Y574633D01*
X431383Y574681D01*
X431306Y574726D01*
X431228Y574767D01*
X431148Y574806D01*
X431067Y574840D01*
X430984Y574872D01*
X430899Y574899D01*
X430814Y574924D01*
X430728Y574944D01*
X430641Y574961D01*
X430553Y574974D01*
X430465Y574983D01*
X430377Y574989D01*
X430288Y574991D01*
X428199Y574991D01*
X424730Y572903D02*
X422120Y574991D01*
X422120Y565593D01*
X424730Y565593D02*
X419509Y565593D01*
X415587Y570292D02*
X415585Y570477D01*
X415578Y570662D01*
X415567Y570846D01*
X415552Y571030D01*
X415532Y571214D01*
X415508Y571398D01*
X415479Y571580D01*
X415446Y571762D01*
X415409Y571943D01*
X415367Y572123D01*
X415321Y572303D01*
X415271Y572481D01*
X415217Y572657D01*
X415158Y572833D01*
X415096Y573007D01*
X415029Y573179D01*
X414958Y573350D01*
X414883Y573519D01*
X414804Y573686D01*
X414774Y573766D01*
X414741Y573845D01*
X414704Y573922D01*
X414664Y573998D01*
X414621Y574072D01*
X414575Y574144D01*
X414525Y574213D01*
X414473Y574281D01*
X414417Y574346D01*
X414359Y574409D01*
X414297Y574468D01*
X414234Y574526D01*
X414167Y574580D01*
X414099Y574631D01*
X414028Y574679D01*
X413955Y574724D01*
X413881Y574766D01*
X413804Y574804D01*
X413726Y574839D01*
X413647Y574871D01*
X413566Y574899D01*
X413484Y574923D01*
X413400Y574944D01*
X413317Y574961D01*
X413232Y574974D01*
X413147Y574983D01*
X413062Y574989D01*
X412976Y574991D01*
X412890Y574989D01*
X412805Y574983D01*
X412720Y574974D01*
X412635Y574961D01*
X412552Y574944D01*
X412468Y574923D01*
X412386Y574899D01*
X412306Y574871D01*
X412226Y574839D01*
X412148Y574804D01*
X412071Y574766D01*
X411997Y574724D01*
X411924Y574679D01*
X411853Y574631D01*
X411785Y574580D01*
X411718Y574526D01*
X411655Y574468D01*
X411594Y574409D01*
X411535Y574346D01*
X411480Y574281D01*
X411427Y574213D01*
X411377Y574144D01*
X411331Y574072D01*
X411288Y573998D01*
X411248Y573922D01*
X411211Y573845D01*
X411178Y573766D01*
X411148Y573686D01*
X411069Y573519D01*
X410994Y573350D01*
X410923Y573179D01*
X410856Y573007D01*
X410794Y572833D01*
X410735Y572657D01*
X410681Y572481D01*
X410631Y572303D01*
X410585Y572123D01*
X410543Y571943D01*
X410506Y571762D01*
X410473Y571580D01*
X410444Y571398D01*
X410420Y571214D01*
X410400Y571030D01*
X410385Y570846D01*
X410374Y570662D01*
X410367Y570477D01*
X410365Y570292D01*
X415586Y570292D02*
X415584Y570107D01*
X415577Y569922D01*
X415566Y569738D01*
X415551Y569554D01*
X415531Y569370D01*
X415507Y569186D01*
X415478Y569004D01*
X415445Y568822D01*
X415408Y568641D01*
X415366Y568461D01*
X415320Y568281D01*
X415270Y568103D01*
X415216Y567927D01*
X415157Y567751D01*
X415095Y567577D01*
X415028Y567405D01*
X414957Y567234D01*
X414882Y567065D01*
X414803Y566898D01*
X414804Y566898D02*
X414774Y566818D01*
X414741Y566739D01*
X414704Y566662D01*
X414664Y566586D01*
X414621Y566512D01*
X414575Y566440D01*
X414525Y566371D01*
X414472Y566303D01*
X414417Y566238D01*
X414358Y566175D01*
X414297Y566116D01*
X414234Y566058D01*
X414167Y566004D01*
X414099Y565953D01*
X414028Y565905D01*
X413955Y565860D01*
X413881Y565818D01*
X413804Y565780D01*
X413726Y565745D01*
X413647Y565713D01*
X413566Y565685D01*
X413484Y565661D01*
X413400Y565640D01*
X413317Y565623D01*
X413232Y565610D01*
X413147Y565601D01*
X413062Y565595D01*
X412976Y565593D01*
X411148Y566898D02*
X411069Y567065D01*
X410994Y567234D01*
X410923Y567405D01*
X410856Y567577D01*
X410794Y567751D01*
X410735Y567927D01*
X410681Y568103D01*
X410631Y568281D01*
X410585Y568461D01*
X410543Y568641D01*
X410506Y568822D01*
X410473Y569004D01*
X410444Y569186D01*
X410420Y569370D01*
X410400Y569554D01*
X410385Y569738D01*
X410374Y569922D01*
X410367Y570107D01*
X410365Y570292D01*
X411148Y566898D02*
X411178Y566818D01*
X411211Y566739D01*
X411248Y566662D01*
X411288Y566586D01*
X411331Y566512D01*
X411377Y566440D01*
X411427Y566371D01*
X411480Y566303D01*
X411535Y566238D01*
X411594Y566175D01*
X411655Y566116D01*
X411718Y566058D01*
X411785Y566004D01*
X411853Y565953D01*
X411924Y565905D01*
X411997Y565860D01*
X412071Y565818D01*
X412148Y565780D01*
X412226Y565745D01*
X412306Y565713D01*
X412386Y565685D01*
X412468Y565661D01*
X412552Y565640D01*
X412635Y565623D01*
X412720Y565610D01*
X412805Y565601D01*
X412890Y565595D01*
X412976Y565593D01*
X415064Y567681D02*
X410887Y572903D01*
X428199Y540955D02*
X430288Y540955D01*
X430377Y540957D01*
X430465Y540963D01*
X430553Y540972D01*
X430641Y540985D01*
X430728Y541002D01*
X430814Y541022D01*
X430899Y541047D01*
X430984Y541074D01*
X431067Y541106D01*
X431148Y541140D01*
X431228Y541179D01*
X431306Y541220D01*
X431383Y541265D01*
X431457Y541313D01*
X431530Y541364D01*
X431600Y541418D01*
X431667Y541476D01*
X431733Y541536D01*
X431795Y541598D01*
X431855Y541664D01*
X431913Y541731D01*
X431967Y541801D01*
X432018Y541874D01*
X432066Y541948D01*
X432111Y542025D01*
X432152Y542103D01*
X432191Y542183D01*
X432225Y542264D01*
X432257Y542347D01*
X432284Y542432D01*
X432309Y542517D01*
X432329Y542603D01*
X432346Y542690D01*
X432359Y542778D01*
X432368Y542866D01*
X432374Y542954D01*
X432376Y543043D01*
X432376Y548265D01*
X432374Y548354D01*
X432368Y548442D01*
X432359Y548530D01*
X432346Y548618D01*
X432329Y548705D01*
X432309Y548791D01*
X432284Y548876D01*
X432257Y548961D01*
X432225Y549044D01*
X432191Y549125D01*
X432152Y549205D01*
X432111Y549283D01*
X432066Y549360D01*
X432018Y549434D01*
X431967Y549507D01*
X431913Y549577D01*
X431855Y549644D01*
X431795Y549710D01*
X431733Y549772D01*
X431667Y549832D01*
X431600Y549890D01*
X431530Y549944D01*
X431457Y549995D01*
X431383Y550043D01*
X431306Y550088D01*
X431228Y550129D01*
X431148Y550168D01*
X431067Y550202D01*
X430984Y550234D01*
X430899Y550261D01*
X430814Y550286D01*
X430728Y550306D01*
X430641Y550323D01*
X430553Y550336D01*
X430465Y550345D01*
X430377Y550351D01*
X430288Y550353D01*
X428199Y550353D01*
X424730Y548265D02*
X422120Y550353D01*
X422120Y540955D01*
X424730Y540955D02*
X419509Y540955D01*
X415586Y548265D02*
X412976Y550353D01*
X412976Y540955D01*
X415586Y540955D02*
X410365Y540955D01*
X397776Y615123D02*
X395687Y615123D01*
X397776Y615123D02*
X397865Y615125D01*
X397953Y615131D01*
X398041Y615140D01*
X398129Y615153D01*
X398216Y615170D01*
X398302Y615190D01*
X398387Y615215D01*
X398472Y615242D01*
X398555Y615274D01*
X398636Y615308D01*
X398716Y615347D01*
X398794Y615388D01*
X398871Y615433D01*
X398945Y615481D01*
X399018Y615532D01*
X399088Y615586D01*
X399155Y615644D01*
X399221Y615704D01*
X399283Y615766D01*
X399343Y615832D01*
X399401Y615899D01*
X399455Y615969D01*
X399506Y616042D01*
X399554Y616116D01*
X399599Y616193D01*
X399640Y616271D01*
X399679Y616351D01*
X399713Y616432D01*
X399745Y616515D01*
X399772Y616600D01*
X399797Y616685D01*
X399817Y616771D01*
X399834Y616858D01*
X399847Y616946D01*
X399856Y617034D01*
X399862Y617122D01*
X399864Y617211D01*
X399864Y622433D01*
X399862Y622522D01*
X399856Y622610D01*
X399847Y622698D01*
X399834Y622786D01*
X399817Y622873D01*
X399797Y622959D01*
X399772Y623044D01*
X399745Y623129D01*
X399713Y623212D01*
X399679Y623293D01*
X399640Y623373D01*
X399599Y623451D01*
X399554Y623528D01*
X399506Y623602D01*
X399455Y623675D01*
X399401Y623745D01*
X399343Y623812D01*
X399283Y623878D01*
X399221Y623940D01*
X399155Y624000D01*
X399088Y624058D01*
X399018Y624112D01*
X398945Y624163D01*
X398871Y624211D01*
X398794Y624256D01*
X398716Y624297D01*
X398636Y624336D01*
X398555Y624370D01*
X398472Y624402D01*
X398387Y624429D01*
X398302Y624454D01*
X398216Y624474D01*
X398129Y624491D01*
X398041Y624504D01*
X397953Y624513D01*
X397865Y624519D01*
X397776Y624521D01*
X395687Y624521D01*
X392218Y622433D02*
X389608Y624521D01*
X389608Y615123D01*
X392218Y615123D02*
X386997Y615123D01*
X377853Y622172D02*
X377855Y622267D01*
X377861Y622361D01*
X377870Y622455D01*
X377883Y622549D01*
X377900Y622642D01*
X377921Y622734D01*
X377946Y622826D01*
X377974Y622916D01*
X378006Y623005D01*
X378041Y623093D01*
X378080Y623179D01*
X378122Y623264D01*
X378168Y623347D01*
X378217Y623428D01*
X378269Y623507D01*
X378324Y623584D01*
X378383Y623658D01*
X378444Y623730D01*
X378508Y623800D01*
X378575Y623867D01*
X378645Y623931D01*
X378717Y623992D01*
X378791Y624051D01*
X378868Y624106D01*
X378947Y624158D01*
X379028Y624207D01*
X379111Y624253D01*
X379196Y624295D01*
X379282Y624334D01*
X379370Y624369D01*
X379459Y624401D01*
X379549Y624429D01*
X379641Y624454D01*
X379733Y624475D01*
X379826Y624492D01*
X379920Y624505D01*
X380014Y624514D01*
X380108Y624520D01*
X380203Y624522D01*
X380203Y624521D02*
X380311Y624519D01*
X380420Y624513D01*
X380528Y624503D01*
X380635Y624490D01*
X380742Y624472D01*
X380849Y624451D01*
X380954Y624426D01*
X381059Y624397D01*
X381162Y624365D01*
X381264Y624328D01*
X381365Y624288D01*
X381464Y624245D01*
X381562Y624198D01*
X381658Y624147D01*
X381752Y624093D01*
X381844Y624036D01*
X381934Y623975D01*
X382022Y623911D01*
X382107Y623845D01*
X382190Y623775D01*
X382270Y623702D01*
X382348Y623626D01*
X382423Y623548D01*
X382495Y623467D01*
X382564Y623383D01*
X382630Y623297D01*
X382693Y623209D01*
X382752Y623118D01*
X382809Y623026D01*
X382862Y622931D01*
X382911Y622834D01*
X382957Y622736D01*
X383000Y622637D01*
X383039Y622535D01*
X383074Y622433D01*
X378636Y620344D02*
X378567Y620413D01*
X378501Y620484D01*
X378437Y620557D01*
X378376Y620633D01*
X378318Y620712D01*
X378264Y620792D01*
X378212Y620875D01*
X378164Y620959D01*
X378118Y621045D01*
X378077Y621133D01*
X378038Y621223D01*
X378003Y621314D01*
X377972Y621406D01*
X377944Y621499D01*
X377920Y621593D01*
X377900Y621688D01*
X377883Y621784D01*
X377870Y621881D01*
X377861Y621978D01*
X377855Y622075D01*
X377853Y622172D01*
X378636Y620344D02*
X383074Y615123D01*
X377853Y615123D01*
X442149Y622288D02*
X442149Y624377D01*
X442149Y622288D02*
X442151Y622199D01*
X442157Y622111D01*
X442166Y622023D01*
X442179Y621935D01*
X442196Y621848D01*
X442216Y621762D01*
X442241Y621677D01*
X442268Y621592D01*
X442300Y621509D01*
X442334Y621428D01*
X442373Y621348D01*
X442414Y621270D01*
X442459Y621193D01*
X442507Y621119D01*
X442558Y621046D01*
X442612Y620976D01*
X442670Y620909D01*
X442730Y620843D01*
X442792Y620781D01*
X442858Y620721D01*
X442925Y620663D01*
X442995Y620609D01*
X443068Y620558D01*
X443142Y620510D01*
X443219Y620465D01*
X443297Y620424D01*
X443377Y620385D01*
X443458Y620351D01*
X443541Y620319D01*
X443626Y620292D01*
X443711Y620267D01*
X443797Y620247D01*
X443884Y620230D01*
X443972Y620217D01*
X444060Y620208D01*
X444148Y620202D01*
X444237Y620200D01*
X449459Y620200D01*
X449550Y620202D01*
X449641Y620208D01*
X449732Y620218D01*
X449822Y620232D01*
X449911Y620249D01*
X449999Y620271D01*
X450087Y620297D01*
X450173Y620326D01*
X450258Y620359D01*
X450341Y620396D01*
X450423Y620436D01*
X450503Y620480D01*
X450581Y620527D01*
X450657Y620578D01*
X450730Y620631D01*
X450801Y620688D01*
X450870Y620749D01*
X450935Y620812D01*
X450998Y620877D01*
X451058Y620946D01*
X451116Y621017D01*
X451169Y621090D01*
X451220Y621166D01*
X451267Y621244D01*
X451311Y621324D01*
X451351Y621406D01*
X451388Y621489D01*
X451421Y621574D01*
X451450Y621660D01*
X451476Y621748D01*
X451498Y621836D01*
X451515Y621925D01*
X451529Y622015D01*
X451539Y622106D01*
X451545Y622197D01*
X451547Y622288D01*
X451547Y624377D01*
X449459Y627846D02*
X451547Y630456D01*
X442149Y630456D01*
X442149Y627846D02*
X442149Y633067D01*
X442149Y636990D02*
X442149Y639600D01*
X442151Y639701D01*
X442157Y639802D01*
X442167Y639903D01*
X442180Y640003D01*
X442198Y640103D01*
X442219Y640202D01*
X442245Y640300D01*
X442274Y640397D01*
X442306Y640493D01*
X442343Y640587D01*
X442383Y640680D01*
X442427Y640772D01*
X442474Y640861D01*
X442525Y640949D01*
X442579Y641035D01*
X442636Y641118D01*
X442696Y641200D01*
X442760Y641278D01*
X442826Y641355D01*
X442896Y641428D01*
X442968Y641499D01*
X443043Y641567D01*
X443121Y641632D01*
X443201Y641694D01*
X443283Y641753D01*
X443368Y641809D01*
X443455Y641861D01*
X443543Y641910D01*
X443634Y641956D01*
X443726Y641997D01*
X443820Y642036D01*
X443915Y642070D01*
X444011Y642101D01*
X444109Y642128D01*
X444207Y642152D01*
X444307Y642171D01*
X444407Y642187D01*
X444507Y642199D01*
X444608Y642207D01*
X444709Y642211D01*
X444811Y642211D01*
X444912Y642207D01*
X445013Y642199D01*
X445113Y642187D01*
X445213Y642171D01*
X445313Y642152D01*
X445411Y642128D01*
X445509Y642101D01*
X445605Y642070D01*
X445700Y642036D01*
X445794Y641997D01*
X445886Y641956D01*
X445977Y641910D01*
X446066Y641861D01*
X446152Y641809D01*
X446237Y641753D01*
X446319Y641694D01*
X446399Y641632D01*
X446477Y641567D01*
X446552Y641499D01*
X446624Y641428D01*
X446694Y641355D01*
X446760Y641278D01*
X446824Y641200D01*
X446884Y641118D01*
X446941Y641035D01*
X446995Y640949D01*
X447046Y640861D01*
X447093Y640772D01*
X447137Y640680D01*
X447177Y640587D01*
X447214Y640493D01*
X447246Y640397D01*
X447275Y640300D01*
X447301Y640202D01*
X447322Y640103D01*
X447340Y640003D01*
X447353Y639903D01*
X447363Y639802D01*
X447369Y639701D01*
X447371Y639600D01*
X451547Y640122D02*
X451547Y636990D01*
X451547Y640122D02*
X451545Y640212D01*
X451539Y640301D01*
X451530Y640391D01*
X451516Y640480D01*
X451499Y640568D01*
X451478Y640655D01*
X451453Y640742D01*
X451424Y640827D01*
X451392Y640911D01*
X451357Y640993D01*
X451317Y641074D01*
X451275Y641153D01*
X451229Y641230D01*
X451179Y641305D01*
X451127Y641378D01*
X451071Y641449D01*
X451013Y641517D01*
X450951Y641582D01*
X450887Y641645D01*
X450820Y641705D01*
X450751Y641762D01*
X450679Y641816D01*
X450605Y641867D01*
X450529Y641915D01*
X450451Y641959D01*
X450371Y642000D01*
X450289Y642038D01*
X450206Y642072D01*
X450121Y642102D01*
X450035Y642129D01*
X449949Y642152D01*
X449861Y642171D01*
X449772Y642186D01*
X449683Y642198D01*
X449594Y642206D01*
X449504Y642210D01*
X449414Y642210D01*
X449324Y642206D01*
X449235Y642198D01*
X449146Y642186D01*
X449057Y642171D01*
X448969Y642152D01*
X448883Y642129D01*
X448797Y642102D01*
X448712Y642072D01*
X448629Y642038D01*
X448547Y642000D01*
X448467Y641959D01*
X448389Y641915D01*
X448313Y641867D01*
X448239Y641816D01*
X448167Y641762D01*
X448098Y641705D01*
X448031Y641645D01*
X447967Y641582D01*
X447905Y641517D01*
X447847Y641449D01*
X447791Y641378D01*
X447739Y641305D01*
X447689Y641230D01*
X447643Y641153D01*
X447601Y641074D01*
X447561Y640993D01*
X447526Y640911D01*
X447494Y640827D01*
X447465Y640742D01*
X447440Y640655D01*
X447419Y640568D01*
X447402Y640480D01*
X447388Y640391D01*
X447379Y640301D01*
X447373Y640212D01*
X447371Y640122D01*
X447370Y640122D02*
X447370Y638034D01*
X397776Y590739D02*
X395687Y590739D01*
X397776Y590739D02*
X397865Y590741D01*
X397953Y590747D01*
X398041Y590756D01*
X398129Y590769D01*
X398216Y590786D01*
X398302Y590806D01*
X398387Y590831D01*
X398472Y590858D01*
X398555Y590890D01*
X398636Y590924D01*
X398716Y590963D01*
X398794Y591004D01*
X398871Y591049D01*
X398945Y591097D01*
X399018Y591148D01*
X399088Y591202D01*
X399155Y591260D01*
X399221Y591320D01*
X399283Y591382D01*
X399343Y591448D01*
X399401Y591515D01*
X399455Y591585D01*
X399506Y591658D01*
X399554Y591732D01*
X399599Y591809D01*
X399640Y591887D01*
X399679Y591967D01*
X399713Y592048D01*
X399745Y592131D01*
X399772Y592216D01*
X399797Y592301D01*
X399817Y592387D01*
X399834Y592474D01*
X399847Y592562D01*
X399856Y592650D01*
X399862Y592738D01*
X399864Y592827D01*
X399864Y598049D01*
X399862Y598138D01*
X399856Y598226D01*
X399847Y598314D01*
X399834Y598402D01*
X399817Y598489D01*
X399797Y598575D01*
X399772Y598660D01*
X399745Y598745D01*
X399713Y598828D01*
X399679Y598909D01*
X399640Y598989D01*
X399599Y599067D01*
X399554Y599144D01*
X399506Y599218D01*
X399455Y599291D01*
X399401Y599361D01*
X399343Y599428D01*
X399283Y599494D01*
X399221Y599556D01*
X399155Y599616D01*
X399088Y599674D01*
X399018Y599728D01*
X398945Y599779D01*
X398871Y599827D01*
X398794Y599872D01*
X398716Y599913D01*
X398636Y599952D01*
X398555Y599986D01*
X398472Y600018D01*
X398387Y600045D01*
X398302Y600070D01*
X398216Y600090D01*
X398129Y600107D01*
X398041Y600120D01*
X397953Y600129D01*
X397865Y600135D01*
X397776Y600137D01*
X395687Y600137D01*
X392218Y598049D02*
X389608Y600137D01*
X389608Y590739D01*
X392218Y590739D02*
X386997Y590739D01*
X383074Y592827D02*
X380986Y600137D01*
X383074Y592827D02*
X377853Y592827D01*
X379420Y590739D02*
X379420Y594916D01*
X253681Y567608D02*
X253681Y565519D01*
X253683Y565430D01*
X253689Y565342D01*
X253698Y565254D01*
X253711Y565166D01*
X253728Y565079D01*
X253748Y564993D01*
X253773Y564908D01*
X253800Y564823D01*
X253832Y564740D01*
X253866Y564659D01*
X253905Y564579D01*
X253946Y564501D01*
X253991Y564424D01*
X254039Y564350D01*
X254090Y564277D01*
X254144Y564207D01*
X254202Y564140D01*
X254262Y564074D01*
X254324Y564012D01*
X254390Y563952D01*
X254457Y563894D01*
X254527Y563840D01*
X254600Y563789D01*
X254674Y563741D01*
X254751Y563696D01*
X254829Y563655D01*
X254909Y563616D01*
X254990Y563582D01*
X255073Y563550D01*
X255158Y563523D01*
X255243Y563498D01*
X255329Y563478D01*
X255416Y563461D01*
X255504Y563448D01*
X255592Y563439D01*
X255680Y563433D01*
X255769Y563431D01*
X260991Y563431D01*
X261082Y563433D01*
X261173Y563439D01*
X261264Y563449D01*
X261354Y563463D01*
X261443Y563480D01*
X261531Y563502D01*
X261619Y563528D01*
X261705Y563557D01*
X261790Y563590D01*
X261873Y563627D01*
X261955Y563667D01*
X262035Y563711D01*
X262113Y563758D01*
X262189Y563809D01*
X262262Y563862D01*
X262333Y563919D01*
X262402Y563980D01*
X262467Y564043D01*
X262530Y564108D01*
X262590Y564177D01*
X262648Y564248D01*
X262701Y564321D01*
X262752Y564397D01*
X262799Y564475D01*
X262843Y564555D01*
X262883Y564637D01*
X262920Y564720D01*
X262953Y564805D01*
X262982Y564891D01*
X263008Y564979D01*
X263030Y565067D01*
X263047Y565156D01*
X263061Y565246D01*
X263071Y565337D01*
X263077Y565428D01*
X263079Y565519D01*
X263079Y567608D01*
X260991Y571077D02*
X263079Y573687D01*
X253681Y573687D01*
X253681Y571077D02*
X253681Y576298D01*
X253681Y580221D02*
X253681Y583353D01*
X253683Y583442D01*
X253689Y583530D01*
X253698Y583618D01*
X253711Y583706D01*
X253728Y583793D01*
X253748Y583879D01*
X253773Y583964D01*
X253800Y584049D01*
X253832Y584132D01*
X253866Y584213D01*
X253905Y584293D01*
X253946Y584371D01*
X253991Y584448D01*
X254039Y584522D01*
X254090Y584595D01*
X254144Y584665D01*
X254202Y584732D01*
X254262Y584798D01*
X254324Y584860D01*
X254390Y584920D01*
X254457Y584978D01*
X254527Y585032D01*
X254600Y585083D01*
X254674Y585131D01*
X254751Y585176D01*
X254829Y585217D01*
X254909Y585256D01*
X254990Y585290D01*
X255073Y585322D01*
X255158Y585349D01*
X255243Y585374D01*
X255329Y585394D01*
X255416Y585411D01*
X255504Y585424D01*
X255592Y585433D01*
X255680Y585439D01*
X255769Y585441D01*
X255769Y585442D02*
X256814Y585442D01*
X256814Y585441D02*
X256903Y585439D01*
X256991Y585433D01*
X257079Y585424D01*
X257167Y585411D01*
X257254Y585394D01*
X257340Y585374D01*
X257425Y585349D01*
X257510Y585322D01*
X257593Y585290D01*
X257674Y585256D01*
X257754Y585217D01*
X257832Y585176D01*
X257909Y585131D01*
X257983Y585083D01*
X258056Y585032D01*
X258126Y584978D01*
X258193Y584920D01*
X258259Y584860D01*
X258321Y584798D01*
X258381Y584732D01*
X258439Y584665D01*
X258493Y584595D01*
X258544Y584522D01*
X258592Y584448D01*
X258637Y584371D01*
X258678Y584293D01*
X258717Y584213D01*
X258751Y584132D01*
X258783Y584049D01*
X258810Y583964D01*
X258835Y583879D01*
X258855Y583793D01*
X258872Y583706D01*
X258885Y583618D01*
X258894Y583530D01*
X258900Y583442D01*
X258902Y583353D01*
X258902Y580221D01*
X263079Y580221D01*
X263079Y585442D01*
X272731Y567608D02*
X272731Y565519D01*
X272733Y565430D01*
X272739Y565342D01*
X272748Y565254D01*
X272761Y565166D01*
X272778Y565079D01*
X272798Y564993D01*
X272823Y564908D01*
X272850Y564823D01*
X272882Y564740D01*
X272916Y564659D01*
X272955Y564579D01*
X272996Y564501D01*
X273041Y564424D01*
X273089Y564350D01*
X273140Y564277D01*
X273194Y564207D01*
X273252Y564140D01*
X273312Y564074D01*
X273374Y564012D01*
X273440Y563952D01*
X273507Y563894D01*
X273577Y563840D01*
X273650Y563789D01*
X273724Y563741D01*
X273801Y563696D01*
X273879Y563655D01*
X273959Y563616D01*
X274040Y563582D01*
X274123Y563550D01*
X274208Y563523D01*
X274293Y563498D01*
X274379Y563478D01*
X274466Y563461D01*
X274554Y563448D01*
X274642Y563439D01*
X274730Y563433D01*
X274819Y563431D01*
X280041Y563431D01*
X280132Y563433D01*
X280223Y563439D01*
X280314Y563449D01*
X280404Y563463D01*
X280493Y563480D01*
X280581Y563502D01*
X280669Y563528D01*
X280755Y563557D01*
X280840Y563590D01*
X280923Y563627D01*
X281005Y563667D01*
X281085Y563711D01*
X281163Y563758D01*
X281239Y563809D01*
X281312Y563862D01*
X281383Y563919D01*
X281452Y563980D01*
X281517Y564043D01*
X281580Y564108D01*
X281640Y564177D01*
X281698Y564248D01*
X281751Y564321D01*
X281802Y564397D01*
X281849Y564475D01*
X281893Y564555D01*
X281933Y564637D01*
X281970Y564720D01*
X282003Y564805D01*
X282032Y564891D01*
X282058Y564979D01*
X282080Y565067D01*
X282097Y565156D01*
X282111Y565246D01*
X282121Y565337D01*
X282127Y565428D01*
X282129Y565519D01*
X282129Y567608D01*
X280041Y571077D02*
X282129Y573687D01*
X272731Y573687D01*
X272731Y571077D02*
X272731Y576298D01*
X277952Y580221D02*
X277952Y583353D01*
X277950Y583442D01*
X277944Y583530D01*
X277935Y583618D01*
X277922Y583706D01*
X277905Y583793D01*
X277885Y583879D01*
X277860Y583964D01*
X277833Y584049D01*
X277801Y584132D01*
X277767Y584213D01*
X277728Y584293D01*
X277687Y584371D01*
X277642Y584448D01*
X277594Y584522D01*
X277543Y584595D01*
X277489Y584665D01*
X277431Y584732D01*
X277371Y584798D01*
X277309Y584860D01*
X277243Y584920D01*
X277176Y584978D01*
X277106Y585032D01*
X277033Y585083D01*
X276959Y585131D01*
X276882Y585176D01*
X276804Y585217D01*
X276724Y585256D01*
X276643Y585290D01*
X276560Y585322D01*
X276475Y585349D01*
X276390Y585374D01*
X276304Y585394D01*
X276217Y585411D01*
X276129Y585424D01*
X276041Y585433D01*
X275953Y585439D01*
X275864Y585441D01*
X275864Y585442D02*
X275342Y585442D01*
X275241Y585440D01*
X275140Y585434D01*
X275039Y585424D01*
X274939Y585411D01*
X274839Y585393D01*
X274740Y585372D01*
X274642Y585346D01*
X274545Y585317D01*
X274449Y585285D01*
X274355Y585248D01*
X274262Y585208D01*
X274170Y585164D01*
X274081Y585117D01*
X273993Y585066D01*
X273907Y585012D01*
X273824Y584955D01*
X273742Y584895D01*
X273664Y584831D01*
X273587Y584765D01*
X273514Y584695D01*
X273443Y584623D01*
X273375Y584548D01*
X273310Y584470D01*
X273248Y584390D01*
X273189Y584308D01*
X273133Y584223D01*
X273081Y584137D01*
X273032Y584048D01*
X272986Y583957D01*
X272945Y583865D01*
X272906Y583771D01*
X272872Y583676D01*
X272841Y583580D01*
X272814Y583482D01*
X272790Y583384D01*
X272771Y583284D01*
X272755Y583184D01*
X272743Y583084D01*
X272735Y582983D01*
X272731Y582882D01*
X272731Y582780D01*
X272735Y582679D01*
X272743Y582578D01*
X272755Y582478D01*
X272771Y582378D01*
X272790Y582278D01*
X272814Y582180D01*
X272841Y582082D01*
X272872Y581986D01*
X272906Y581891D01*
X272945Y581797D01*
X272986Y581705D01*
X273032Y581614D01*
X273081Y581526D01*
X273133Y581439D01*
X273189Y581354D01*
X273248Y581272D01*
X273310Y581192D01*
X273375Y581114D01*
X273443Y581039D01*
X273514Y580967D01*
X273587Y580897D01*
X273664Y580831D01*
X273742Y580767D01*
X273824Y580707D01*
X273907Y580650D01*
X273993Y580596D01*
X274081Y580545D01*
X274170Y580498D01*
X274262Y580454D01*
X274355Y580414D01*
X274449Y580377D01*
X274545Y580345D01*
X274642Y580316D01*
X274740Y580290D01*
X274839Y580269D01*
X274939Y580251D01*
X275039Y580238D01*
X275140Y580228D01*
X275241Y580222D01*
X275342Y580220D01*
X275342Y580221D02*
X277952Y580221D01*
X278081Y580223D01*
X278209Y580229D01*
X278337Y580239D01*
X278465Y580253D01*
X278593Y580270D01*
X278720Y580292D01*
X278846Y580318D01*
X278971Y580347D01*
X279095Y580380D01*
X279218Y580418D01*
X279340Y580458D01*
X279461Y580503D01*
X279580Y580551D01*
X279698Y580603D01*
X279814Y580659D01*
X279928Y580718D01*
X280040Y580781D01*
X280151Y580847D01*
X280259Y580916D01*
X280365Y580989D01*
X280469Y581065D01*
X280571Y581144D01*
X280670Y581226D01*
X280766Y581311D01*
X280860Y581399D01*
X280951Y581490D01*
X281039Y581584D01*
X281124Y581680D01*
X281206Y581779D01*
X281285Y581881D01*
X281361Y581985D01*
X281434Y582091D01*
X281503Y582199D01*
X281569Y582309D01*
X281632Y582422D01*
X281691Y582536D01*
X281747Y582652D01*
X281799Y582770D01*
X281847Y582889D01*
X281892Y583010D01*
X281932Y583132D01*
X281970Y583255D01*
X282003Y583379D01*
X282032Y583504D01*
X282058Y583630D01*
X282080Y583757D01*
X282097Y583885D01*
X282111Y584013D01*
X282121Y584141D01*
X282127Y584269D01*
X282129Y584398D01*
X227753Y562421D02*
X225665Y562421D01*
X227753Y562421D02*
X227842Y562423D01*
X227930Y562429D01*
X228018Y562438D01*
X228106Y562451D01*
X228193Y562468D01*
X228279Y562488D01*
X228364Y562513D01*
X228449Y562540D01*
X228532Y562572D01*
X228613Y562606D01*
X228693Y562645D01*
X228771Y562686D01*
X228848Y562731D01*
X228922Y562779D01*
X228995Y562830D01*
X229065Y562884D01*
X229132Y562942D01*
X229198Y563002D01*
X229260Y563064D01*
X229320Y563130D01*
X229378Y563197D01*
X229432Y563267D01*
X229483Y563340D01*
X229531Y563414D01*
X229576Y563491D01*
X229617Y563569D01*
X229656Y563649D01*
X229690Y563730D01*
X229722Y563813D01*
X229749Y563898D01*
X229774Y563983D01*
X229794Y564069D01*
X229811Y564156D01*
X229824Y564244D01*
X229833Y564332D01*
X229839Y564420D01*
X229841Y564509D01*
X229842Y564509D02*
X229842Y569731D01*
X229841Y569731D02*
X229839Y569820D01*
X229833Y569908D01*
X229824Y569996D01*
X229811Y570084D01*
X229794Y570171D01*
X229774Y570257D01*
X229749Y570342D01*
X229722Y570427D01*
X229690Y570510D01*
X229656Y570591D01*
X229617Y570671D01*
X229576Y570749D01*
X229531Y570826D01*
X229483Y570900D01*
X229432Y570973D01*
X229378Y571043D01*
X229320Y571110D01*
X229260Y571176D01*
X229198Y571238D01*
X229132Y571298D01*
X229065Y571356D01*
X228995Y571410D01*
X228922Y571461D01*
X228848Y571509D01*
X228771Y571554D01*
X228693Y571595D01*
X228613Y571634D01*
X228532Y571668D01*
X228449Y571700D01*
X228364Y571727D01*
X228279Y571752D01*
X228193Y571772D01*
X228106Y571789D01*
X228018Y571802D01*
X227930Y571811D01*
X227842Y571817D01*
X227753Y571819D01*
X225665Y571819D01*
X222196Y569731D02*
X219586Y571819D01*
X219586Y562421D01*
X222196Y562421D02*
X216975Y562421D01*
X213052Y570775D02*
X213052Y571819D01*
X207831Y571819D01*
X210442Y562421D01*
X225665Y543371D02*
X227753Y543371D01*
X227842Y543373D01*
X227930Y543379D01*
X228018Y543388D01*
X228106Y543401D01*
X228193Y543418D01*
X228279Y543438D01*
X228364Y543463D01*
X228449Y543490D01*
X228532Y543522D01*
X228613Y543556D01*
X228693Y543595D01*
X228771Y543636D01*
X228848Y543681D01*
X228922Y543729D01*
X228995Y543780D01*
X229065Y543834D01*
X229132Y543892D01*
X229198Y543952D01*
X229260Y544014D01*
X229320Y544080D01*
X229378Y544147D01*
X229432Y544217D01*
X229483Y544290D01*
X229531Y544364D01*
X229576Y544441D01*
X229617Y544519D01*
X229656Y544599D01*
X229690Y544680D01*
X229722Y544763D01*
X229749Y544848D01*
X229774Y544933D01*
X229794Y545019D01*
X229811Y545106D01*
X229824Y545194D01*
X229833Y545282D01*
X229839Y545370D01*
X229841Y545459D01*
X229842Y545459D02*
X229842Y550681D01*
X229841Y550681D02*
X229839Y550770D01*
X229833Y550858D01*
X229824Y550946D01*
X229811Y551034D01*
X229794Y551121D01*
X229774Y551207D01*
X229749Y551292D01*
X229722Y551377D01*
X229690Y551460D01*
X229656Y551541D01*
X229617Y551621D01*
X229576Y551699D01*
X229531Y551776D01*
X229483Y551850D01*
X229432Y551923D01*
X229378Y551993D01*
X229320Y552060D01*
X229260Y552126D01*
X229198Y552188D01*
X229132Y552248D01*
X229065Y552306D01*
X228995Y552360D01*
X228922Y552411D01*
X228848Y552459D01*
X228771Y552504D01*
X228693Y552545D01*
X228613Y552584D01*
X228532Y552618D01*
X228449Y552650D01*
X228364Y552677D01*
X228279Y552702D01*
X228193Y552722D01*
X228106Y552739D01*
X228018Y552752D01*
X227930Y552761D01*
X227842Y552767D01*
X227753Y552769D01*
X225665Y552769D01*
X222196Y550681D02*
X219586Y552769D01*
X219586Y543371D01*
X222196Y543371D02*
X216975Y543371D01*
X213053Y545982D02*
X213051Y546083D01*
X213045Y546184D01*
X213035Y546285D01*
X213022Y546385D01*
X213004Y546485D01*
X212983Y546584D01*
X212957Y546682D01*
X212928Y546779D01*
X212896Y546875D01*
X212859Y546969D01*
X212819Y547062D01*
X212775Y547154D01*
X212728Y547243D01*
X212677Y547331D01*
X212623Y547417D01*
X212566Y547500D01*
X212506Y547582D01*
X212442Y547660D01*
X212376Y547737D01*
X212306Y547810D01*
X212234Y547881D01*
X212159Y547949D01*
X212081Y548014D01*
X212001Y548076D01*
X211919Y548135D01*
X211834Y548191D01*
X211748Y548243D01*
X211659Y548292D01*
X211568Y548338D01*
X211476Y548379D01*
X211382Y548418D01*
X211287Y548452D01*
X211191Y548483D01*
X211093Y548510D01*
X210995Y548534D01*
X210895Y548553D01*
X210795Y548569D01*
X210695Y548581D01*
X210594Y548589D01*
X210493Y548593D01*
X210391Y548593D01*
X210290Y548589D01*
X210189Y548581D01*
X210089Y548569D01*
X209989Y548553D01*
X209889Y548534D01*
X209791Y548510D01*
X209693Y548483D01*
X209597Y548452D01*
X209502Y548418D01*
X209408Y548379D01*
X209316Y548338D01*
X209225Y548292D01*
X209137Y548243D01*
X209050Y548191D01*
X208965Y548135D01*
X208883Y548076D01*
X208803Y548014D01*
X208725Y547949D01*
X208650Y547881D01*
X208578Y547810D01*
X208508Y547737D01*
X208442Y547660D01*
X208378Y547582D01*
X208318Y547500D01*
X208261Y547417D01*
X208207Y547331D01*
X208156Y547243D01*
X208109Y547154D01*
X208065Y547062D01*
X208025Y546969D01*
X207988Y546875D01*
X207956Y546779D01*
X207927Y546682D01*
X207901Y546584D01*
X207880Y546485D01*
X207862Y546385D01*
X207849Y546285D01*
X207839Y546184D01*
X207833Y546083D01*
X207831Y545982D01*
X207833Y545881D01*
X207839Y545780D01*
X207849Y545679D01*
X207862Y545579D01*
X207880Y545479D01*
X207901Y545380D01*
X207927Y545282D01*
X207956Y545185D01*
X207988Y545089D01*
X208025Y544995D01*
X208065Y544902D01*
X208109Y544810D01*
X208156Y544721D01*
X208207Y544633D01*
X208261Y544547D01*
X208318Y544464D01*
X208378Y544382D01*
X208442Y544304D01*
X208508Y544227D01*
X208578Y544154D01*
X208650Y544083D01*
X208725Y544015D01*
X208803Y543950D01*
X208883Y543888D01*
X208965Y543829D01*
X209050Y543773D01*
X209137Y543721D01*
X209225Y543672D01*
X209316Y543626D01*
X209408Y543585D01*
X209502Y543546D01*
X209597Y543512D01*
X209693Y543481D01*
X209791Y543454D01*
X209889Y543430D01*
X209989Y543411D01*
X210089Y543395D01*
X210189Y543383D01*
X210290Y543375D01*
X210391Y543371D01*
X210493Y543371D01*
X210594Y543375D01*
X210695Y543383D01*
X210795Y543395D01*
X210895Y543411D01*
X210995Y543430D01*
X211093Y543454D01*
X211191Y543481D01*
X211287Y543512D01*
X211382Y543546D01*
X211476Y543585D01*
X211568Y543626D01*
X211659Y543672D01*
X211747Y543721D01*
X211834Y543773D01*
X211919Y543829D01*
X212001Y543888D01*
X212081Y543950D01*
X212159Y544015D01*
X212234Y544083D01*
X212306Y544154D01*
X212376Y544227D01*
X212442Y544304D01*
X212506Y544382D01*
X212566Y544464D01*
X212623Y544547D01*
X212677Y544633D01*
X212728Y544721D01*
X212775Y544810D01*
X212819Y544902D01*
X212859Y544995D01*
X212896Y545089D01*
X212928Y545185D01*
X212957Y545282D01*
X212983Y545380D01*
X213004Y545479D01*
X213022Y545579D01*
X213035Y545679D01*
X213045Y545780D01*
X213051Y545881D01*
X213053Y545982D01*
X212530Y550681D02*
X212528Y550771D01*
X212522Y550860D01*
X212513Y550950D01*
X212499Y551039D01*
X212482Y551127D01*
X212461Y551214D01*
X212436Y551301D01*
X212407Y551386D01*
X212375Y551470D01*
X212340Y551552D01*
X212300Y551633D01*
X212258Y551712D01*
X212212Y551789D01*
X212162Y551864D01*
X212110Y551937D01*
X212054Y552008D01*
X211996Y552076D01*
X211934Y552141D01*
X211870Y552204D01*
X211803Y552264D01*
X211734Y552321D01*
X211662Y552375D01*
X211588Y552426D01*
X211512Y552474D01*
X211434Y552518D01*
X211354Y552559D01*
X211272Y552597D01*
X211189Y552631D01*
X211104Y552661D01*
X211018Y552688D01*
X210932Y552711D01*
X210844Y552730D01*
X210755Y552745D01*
X210666Y552757D01*
X210577Y552765D01*
X210487Y552769D01*
X210397Y552769D01*
X210307Y552765D01*
X210218Y552757D01*
X210129Y552745D01*
X210040Y552730D01*
X209952Y552711D01*
X209866Y552688D01*
X209780Y552661D01*
X209695Y552631D01*
X209612Y552597D01*
X209530Y552559D01*
X209450Y552518D01*
X209372Y552474D01*
X209296Y552426D01*
X209222Y552375D01*
X209150Y552321D01*
X209081Y552264D01*
X209014Y552204D01*
X208950Y552141D01*
X208888Y552076D01*
X208830Y552008D01*
X208774Y551937D01*
X208722Y551864D01*
X208672Y551789D01*
X208626Y551712D01*
X208584Y551633D01*
X208544Y551552D01*
X208509Y551470D01*
X208477Y551386D01*
X208448Y551301D01*
X208423Y551214D01*
X208402Y551127D01*
X208385Y551039D01*
X208371Y550950D01*
X208362Y550860D01*
X208356Y550771D01*
X208354Y550681D01*
X208356Y550591D01*
X208362Y550502D01*
X208371Y550412D01*
X208385Y550323D01*
X208402Y550235D01*
X208423Y550148D01*
X208448Y550061D01*
X208477Y549976D01*
X208509Y549892D01*
X208544Y549810D01*
X208584Y549729D01*
X208626Y549650D01*
X208672Y549573D01*
X208722Y549498D01*
X208774Y549425D01*
X208830Y549354D01*
X208888Y549286D01*
X208950Y549221D01*
X209014Y549158D01*
X209081Y549098D01*
X209150Y549041D01*
X209222Y548987D01*
X209296Y548936D01*
X209372Y548888D01*
X209450Y548844D01*
X209530Y548803D01*
X209612Y548765D01*
X209695Y548731D01*
X209780Y548701D01*
X209866Y548674D01*
X209952Y548651D01*
X210040Y548632D01*
X210129Y548617D01*
X210218Y548605D01*
X210307Y548597D01*
X210397Y548593D01*
X210487Y548593D01*
X210577Y548597D01*
X210666Y548605D01*
X210755Y548617D01*
X210844Y548632D01*
X210932Y548651D01*
X211018Y548674D01*
X211104Y548701D01*
X211189Y548731D01*
X211272Y548765D01*
X211354Y548803D01*
X211434Y548844D01*
X211512Y548888D01*
X211588Y548936D01*
X211662Y548987D01*
X211734Y549041D01*
X211803Y549098D01*
X211870Y549158D01*
X211934Y549221D01*
X211996Y549286D01*
X212054Y549354D01*
X212110Y549425D01*
X212162Y549498D01*
X212212Y549573D01*
X212258Y549650D01*
X212300Y549729D01*
X212340Y549810D01*
X212375Y549892D01*
X212407Y549976D01*
X212436Y550061D01*
X212461Y550148D01*
X212482Y550235D01*
X212499Y550323D01*
X212513Y550412D01*
X212522Y550502D01*
X212528Y550591D01*
X212530Y550681D01*
D10*
X315600Y683625D02*
X315600Y741125D01*
X315600Y683625D02*
X141600Y683625D01*
X141600Y741125D01*
X315600Y741125D01*
X165600Y740550D02*
X165600Y735550D01*
X292600Y735550D02*
X292600Y740550D01*
D11*
X135542Y682461D02*
X126398Y682461D01*
X131478Y682461D02*
X131478Y687541D01*
X135542Y687541D02*
X126398Y687541D01*
X126398Y691401D02*
X135542Y694449D01*
X126398Y697497D01*
X128684Y696735D02*
X128684Y692163D01*
X126398Y701379D02*
X135542Y701379D01*
X126398Y701379D02*
X126398Y705443D01*
X126398Y709303D02*
X135542Y709303D01*
X126398Y709303D02*
X126398Y713367D01*
X125382Y716497D02*
X125382Y720561D01*
X126398Y723710D02*
X135542Y726758D01*
X126398Y729806D01*
X128684Y729044D02*
X128684Y724472D01*
X133510Y733362D02*
X135542Y735902D01*
X126398Y735902D01*
X126398Y733362D02*
X126398Y738442D01*
D10*
X315600Y826500D02*
X315600Y884000D01*
X315600Y826500D02*
X141600Y826500D01*
X141600Y884000D01*
X315600Y884000D01*
X165600Y883425D02*
X165600Y878425D01*
X292600Y878425D02*
X292600Y883425D01*
D11*
X135542Y825336D02*
X126398Y825336D01*
X131478Y825336D02*
X131478Y830416D01*
X135542Y830416D02*
X126398Y830416D01*
X126398Y834276D02*
X135542Y837324D01*
X126398Y840372D01*
X128684Y839610D02*
X128684Y835038D01*
X126398Y844254D02*
X135542Y844254D01*
X126398Y844254D02*
X126398Y848318D01*
X126398Y852178D02*
X135542Y852178D01*
X126398Y852178D02*
X126398Y856242D01*
X125382Y859372D02*
X125382Y863436D01*
X126398Y866585D02*
X135542Y869633D01*
X126398Y872681D01*
X128684Y871919D02*
X128684Y867347D01*
X126398Y876237D02*
X126398Y878777D01*
X126400Y878877D01*
X126406Y878976D01*
X126416Y879076D01*
X126429Y879174D01*
X126447Y879273D01*
X126468Y879370D01*
X126493Y879466D01*
X126522Y879562D01*
X126555Y879656D01*
X126591Y879749D01*
X126631Y879840D01*
X126675Y879930D01*
X126722Y880018D01*
X126772Y880104D01*
X126826Y880188D01*
X126883Y880270D01*
X126943Y880349D01*
X127007Y880427D01*
X127073Y880501D01*
X127142Y880573D01*
X127214Y880642D01*
X127288Y880708D01*
X127366Y880772D01*
X127445Y880832D01*
X127527Y880889D01*
X127611Y880943D01*
X127697Y880993D01*
X127785Y881040D01*
X127875Y881084D01*
X127966Y881124D01*
X128059Y881160D01*
X128153Y881193D01*
X128249Y881222D01*
X128345Y881247D01*
X128442Y881268D01*
X128541Y881286D01*
X128639Y881299D01*
X128739Y881309D01*
X128838Y881315D01*
X128938Y881317D01*
X129038Y881315D01*
X129137Y881309D01*
X129237Y881299D01*
X129335Y881286D01*
X129434Y881268D01*
X129531Y881247D01*
X129627Y881222D01*
X129723Y881193D01*
X129817Y881160D01*
X129910Y881124D01*
X130001Y881084D01*
X130091Y881040D01*
X130179Y880993D01*
X130265Y880943D01*
X130349Y880889D01*
X130431Y880832D01*
X130510Y880772D01*
X130588Y880708D01*
X130662Y880642D01*
X130734Y880573D01*
X130803Y880501D01*
X130869Y880427D01*
X130933Y880349D01*
X130993Y880270D01*
X131050Y880188D01*
X131104Y880104D01*
X131154Y880018D01*
X131201Y879930D01*
X131245Y879840D01*
X131285Y879749D01*
X131321Y879656D01*
X131354Y879562D01*
X131383Y879466D01*
X131408Y879370D01*
X131429Y879273D01*
X131447Y879174D01*
X131460Y879076D01*
X131470Y878976D01*
X131476Y878877D01*
X131478Y878777D01*
X135542Y879285D02*
X135542Y876237D01*
X135542Y879285D02*
X135540Y879374D01*
X135534Y879462D01*
X135525Y879550D01*
X135511Y879638D01*
X135494Y879725D01*
X135473Y879811D01*
X135448Y879896D01*
X135419Y879980D01*
X135387Y880063D01*
X135352Y880144D01*
X135312Y880223D01*
X135270Y880301D01*
X135224Y880377D01*
X135175Y880451D01*
X135122Y880522D01*
X135067Y880591D01*
X135008Y880658D01*
X134947Y880722D01*
X134883Y880783D01*
X134816Y880842D01*
X134747Y880897D01*
X134676Y880950D01*
X134602Y880999D01*
X134526Y881045D01*
X134448Y881087D01*
X134369Y881127D01*
X134288Y881162D01*
X134205Y881194D01*
X134121Y881223D01*
X134036Y881248D01*
X133950Y881269D01*
X133863Y881286D01*
X133775Y881300D01*
X133687Y881309D01*
X133599Y881315D01*
X133510Y881317D01*
X133421Y881315D01*
X133333Y881309D01*
X133245Y881300D01*
X133157Y881286D01*
X133070Y881269D01*
X132984Y881248D01*
X132899Y881223D01*
X132815Y881194D01*
X132732Y881162D01*
X132651Y881127D01*
X132572Y881087D01*
X132494Y881045D01*
X132418Y880999D01*
X132344Y880950D01*
X132273Y880897D01*
X132204Y880842D01*
X132137Y880783D01*
X132073Y880722D01*
X132012Y880658D01*
X131953Y880591D01*
X131898Y880522D01*
X131845Y880451D01*
X131796Y880377D01*
X131750Y880301D01*
X131708Y880223D01*
X131668Y880144D01*
X131633Y880063D01*
X131601Y879980D01*
X131572Y879896D01*
X131547Y879811D01*
X131526Y879725D01*
X131509Y879638D01*
X131495Y879550D01*
X131486Y879462D01*
X131480Y879374D01*
X131478Y879285D01*
X131478Y877253D01*
D10*
X315600Y813007D02*
X315600Y755507D01*
X141600Y755507D01*
X141600Y813007D01*
X315600Y813007D01*
X165600Y812432D02*
X165600Y807432D01*
X292600Y807432D02*
X292600Y812432D01*
D11*
X135542Y754343D02*
X126398Y754343D01*
X131478Y754343D02*
X131478Y759423D01*
X135542Y759423D02*
X126398Y759423D01*
X126398Y763283D02*
X135542Y766331D01*
X126398Y769379D01*
X128684Y768617D02*
X128684Y764045D01*
X126398Y773261D02*
X135542Y773261D01*
X126398Y773261D02*
X126398Y777325D01*
X126398Y781185D02*
X135542Y781185D01*
X126398Y781185D02*
X126398Y785249D01*
X125382Y788379D02*
X125382Y792443D01*
X126398Y795592D02*
X135542Y798640D01*
X126398Y801688D01*
X128684Y800926D02*
X128684Y796354D01*
X128430Y805244D02*
X135542Y807276D01*
X128430Y805244D02*
X128430Y810324D01*
X130462Y808800D02*
X126398Y808800D01*
D12*
X297065Y632671D02*
X299153Y632671D01*
X299242Y632673D01*
X299330Y632679D01*
X299418Y632688D01*
X299506Y632701D01*
X299593Y632718D01*
X299679Y632738D01*
X299764Y632763D01*
X299849Y632790D01*
X299932Y632822D01*
X300013Y632856D01*
X300093Y632895D01*
X300171Y632936D01*
X300248Y632981D01*
X300322Y633029D01*
X300395Y633080D01*
X300465Y633134D01*
X300532Y633192D01*
X300598Y633252D01*
X300660Y633314D01*
X300720Y633380D01*
X300778Y633447D01*
X300832Y633517D01*
X300883Y633590D01*
X300931Y633664D01*
X300976Y633741D01*
X301017Y633819D01*
X301056Y633899D01*
X301090Y633980D01*
X301122Y634063D01*
X301149Y634148D01*
X301174Y634233D01*
X301194Y634319D01*
X301211Y634406D01*
X301224Y634494D01*
X301233Y634582D01*
X301239Y634670D01*
X301241Y634759D01*
X301242Y634759D02*
X301242Y639981D01*
X301241Y639981D02*
X301239Y640070D01*
X301233Y640158D01*
X301224Y640246D01*
X301211Y640334D01*
X301194Y640421D01*
X301174Y640507D01*
X301149Y640592D01*
X301122Y640677D01*
X301090Y640760D01*
X301056Y640841D01*
X301017Y640921D01*
X300976Y640999D01*
X300931Y641076D01*
X300883Y641150D01*
X300832Y641223D01*
X300778Y641293D01*
X300720Y641360D01*
X300660Y641426D01*
X300598Y641488D01*
X300532Y641548D01*
X300465Y641606D01*
X300395Y641660D01*
X300322Y641711D01*
X300248Y641759D01*
X300171Y641804D01*
X300093Y641845D01*
X300013Y641884D01*
X299932Y641918D01*
X299849Y641950D01*
X299764Y641977D01*
X299679Y642002D01*
X299593Y642022D01*
X299506Y642039D01*
X299418Y642052D01*
X299330Y642061D01*
X299242Y642067D01*
X299153Y642069D01*
X297065Y642069D01*
X293596Y639981D02*
X290986Y642069D01*
X290986Y632671D01*
X293596Y632671D02*
X288375Y632671D01*
X282364Y636848D02*
X279231Y636848D01*
X282364Y636848D02*
X282453Y636850D01*
X282541Y636856D01*
X282629Y636865D01*
X282717Y636878D01*
X282804Y636895D01*
X282890Y636915D01*
X282975Y636940D01*
X283060Y636967D01*
X283143Y636999D01*
X283224Y637033D01*
X283304Y637072D01*
X283382Y637113D01*
X283459Y637158D01*
X283533Y637206D01*
X283606Y637257D01*
X283676Y637311D01*
X283743Y637369D01*
X283809Y637429D01*
X283871Y637491D01*
X283931Y637557D01*
X283989Y637624D01*
X284043Y637694D01*
X284094Y637767D01*
X284142Y637841D01*
X284187Y637918D01*
X284228Y637996D01*
X284267Y638076D01*
X284301Y638157D01*
X284333Y638240D01*
X284360Y638325D01*
X284385Y638410D01*
X284405Y638496D01*
X284422Y638583D01*
X284435Y638671D01*
X284444Y638759D01*
X284450Y638847D01*
X284452Y638936D01*
X284452Y639458D01*
X284453Y639458D02*
X284451Y639559D01*
X284445Y639660D01*
X284435Y639761D01*
X284422Y639861D01*
X284404Y639961D01*
X284383Y640060D01*
X284357Y640158D01*
X284328Y640255D01*
X284296Y640351D01*
X284259Y640445D01*
X284219Y640538D01*
X284175Y640630D01*
X284128Y640719D01*
X284077Y640807D01*
X284023Y640893D01*
X283966Y640976D01*
X283906Y641058D01*
X283842Y641136D01*
X283776Y641213D01*
X283706Y641286D01*
X283634Y641357D01*
X283559Y641425D01*
X283481Y641490D01*
X283401Y641552D01*
X283319Y641611D01*
X283234Y641667D01*
X283148Y641719D01*
X283059Y641768D01*
X282968Y641814D01*
X282876Y641855D01*
X282782Y641894D01*
X282687Y641928D01*
X282591Y641959D01*
X282493Y641986D01*
X282395Y642010D01*
X282295Y642029D01*
X282195Y642045D01*
X282095Y642057D01*
X281994Y642065D01*
X281893Y642069D01*
X281791Y642069D01*
X281690Y642065D01*
X281589Y642057D01*
X281489Y642045D01*
X281389Y642029D01*
X281289Y642010D01*
X281191Y641986D01*
X281093Y641959D01*
X280997Y641928D01*
X280902Y641894D01*
X280808Y641855D01*
X280716Y641814D01*
X280625Y641768D01*
X280537Y641719D01*
X280450Y641667D01*
X280365Y641611D01*
X280283Y641552D01*
X280203Y641490D01*
X280125Y641425D01*
X280050Y641357D01*
X279978Y641286D01*
X279908Y641213D01*
X279842Y641136D01*
X279778Y641058D01*
X279718Y640976D01*
X279661Y640893D01*
X279607Y640807D01*
X279556Y640719D01*
X279509Y640630D01*
X279465Y640538D01*
X279425Y640445D01*
X279388Y640351D01*
X279356Y640255D01*
X279327Y640158D01*
X279301Y640060D01*
X279280Y639961D01*
X279262Y639861D01*
X279249Y639761D01*
X279239Y639660D01*
X279233Y639559D01*
X279231Y639458D01*
X279231Y636848D01*
X279233Y636722D01*
X279239Y636596D01*
X279248Y636470D01*
X279261Y636345D01*
X279279Y636220D01*
X279299Y636095D01*
X279324Y635971D01*
X279352Y635848D01*
X279384Y635726D01*
X279420Y635605D01*
X279459Y635485D01*
X279502Y635367D01*
X279549Y635250D01*
X279599Y635134D01*
X279653Y635019D01*
X279709Y634907D01*
X279770Y634796D01*
X279833Y634687D01*
X279900Y634580D01*
X279970Y634475D01*
X280044Y634372D01*
X280120Y634272D01*
X280199Y634174D01*
X280281Y634078D01*
X280367Y633985D01*
X280454Y633894D01*
X280545Y633807D01*
X280638Y633721D01*
X280734Y633639D01*
X280832Y633560D01*
X280932Y633484D01*
X281035Y633410D01*
X281140Y633340D01*
X281247Y633273D01*
X281356Y633210D01*
X281467Y633149D01*
X281579Y633093D01*
X281694Y633039D01*
X281810Y632989D01*
X281927Y632942D01*
X282045Y632899D01*
X282165Y632860D01*
X282286Y632824D01*
X282408Y632792D01*
X282531Y632764D01*
X282655Y632739D01*
X282780Y632719D01*
X282905Y632701D01*
X283030Y632688D01*
X283156Y632679D01*
X283282Y632673D01*
X283408Y632671D01*
X297065Y651721D02*
X299153Y651721D01*
X299242Y651723D01*
X299330Y651729D01*
X299418Y651738D01*
X299506Y651751D01*
X299593Y651768D01*
X299679Y651788D01*
X299764Y651813D01*
X299849Y651840D01*
X299932Y651872D01*
X300013Y651906D01*
X300093Y651945D01*
X300171Y651986D01*
X300248Y652031D01*
X300322Y652079D01*
X300395Y652130D01*
X300465Y652184D01*
X300532Y652242D01*
X300598Y652302D01*
X300660Y652364D01*
X300720Y652430D01*
X300778Y652497D01*
X300832Y652567D01*
X300883Y652640D01*
X300931Y652714D01*
X300976Y652791D01*
X301017Y652869D01*
X301056Y652949D01*
X301090Y653030D01*
X301122Y653113D01*
X301149Y653198D01*
X301174Y653283D01*
X301194Y653369D01*
X301211Y653456D01*
X301224Y653544D01*
X301233Y653632D01*
X301239Y653720D01*
X301241Y653809D01*
X301242Y653809D02*
X301242Y659031D01*
X301241Y659031D02*
X301239Y659120D01*
X301233Y659208D01*
X301224Y659296D01*
X301211Y659384D01*
X301194Y659471D01*
X301174Y659557D01*
X301149Y659642D01*
X301122Y659727D01*
X301090Y659810D01*
X301056Y659891D01*
X301017Y659971D01*
X300976Y660049D01*
X300931Y660126D01*
X300883Y660200D01*
X300832Y660273D01*
X300778Y660343D01*
X300720Y660410D01*
X300660Y660476D01*
X300598Y660538D01*
X300532Y660598D01*
X300465Y660656D01*
X300395Y660710D01*
X300322Y660761D01*
X300248Y660809D01*
X300171Y660854D01*
X300093Y660895D01*
X300013Y660934D01*
X299932Y660968D01*
X299849Y661000D01*
X299764Y661027D01*
X299679Y661052D01*
X299593Y661072D01*
X299506Y661089D01*
X299418Y661102D01*
X299330Y661111D01*
X299242Y661117D01*
X299153Y661119D01*
X297065Y661119D01*
X290724Y661120D02*
X290629Y661118D01*
X290535Y661112D01*
X290441Y661103D01*
X290347Y661090D01*
X290254Y661073D01*
X290162Y661052D01*
X290070Y661027D01*
X289980Y660999D01*
X289891Y660967D01*
X289803Y660932D01*
X289717Y660893D01*
X289632Y660851D01*
X289549Y660805D01*
X289468Y660756D01*
X289389Y660704D01*
X289312Y660649D01*
X289238Y660590D01*
X289166Y660529D01*
X289096Y660465D01*
X289029Y660398D01*
X288965Y660328D01*
X288904Y660256D01*
X288845Y660182D01*
X288790Y660105D01*
X288738Y660026D01*
X288689Y659945D01*
X288643Y659862D01*
X288601Y659777D01*
X288562Y659691D01*
X288527Y659603D01*
X288495Y659514D01*
X288467Y659424D01*
X288442Y659332D01*
X288421Y659240D01*
X288404Y659147D01*
X288391Y659053D01*
X288382Y658959D01*
X288376Y658865D01*
X288374Y658770D01*
X290724Y661119D02*
X290832Y661117D01*
X290941Y661111D01*
X291049Y661101D01*
X291156Y661088D01*
X291263Y661070D01*
X291370Y661049D01*
X291475Y661024D01*
X291580Y660995D01*
X291683Y660963D01*
X291785Y660926D01*
X291886Y660886D01*
X291985Y660843D01*
X292083Y660796D01*
X292179Y660745D01*
X292273Y660691D01*
X292365Y660634D01*
X292455Y660573D01*
X292543Y660509D01*
X292628Y660443D01*
X292711Y660373D01*
X292791Y660300D01*
X292869Y660224D01*
X292944Y660146D01*
X293016Y660065D01*
X293085Y659981D01*
X293151Y659895D01*
X293214Y659807D01*
X293273Y659716D01*
X293330Y659624D01*
X293383Y659529D01*
X293432Y659432D01*
X293478Y659334D01*
X293521Y659235D01*
X293560Y659133D01*
X293595Y659031D01*
X289158Y656942D02*
X289089Y657011D01*
X289023Y657082D01*
X288959Y657155D01*
X288898Y657231D01*
X288840Y657310D01*
X288786Y657390D01*
X288734Y657473D01*
X288686Y657557D01*
X288640Y657643D01*
X288599Y657731D01*
X288560Y657821D01*
X288525Y657912D01*
X288494Y658004D01*
X288466Y658097D01*
X288442Y658191D01*
X288422Y658286D01*
X288405Y658382D01*
X288392Y658479D01*
X288383Y658576D01*
X288377Y658673D01*
X288375Y658770D01*
X289158Y656942D02*
X293596Y651721D01*
X288375Y651721D01*
X284452Y656420D02*
X284450Y656605D01*
X284443Y656790D01*
X284432Y656974D01*
X284417Y657158D01*
X284397Y657342D01*
X284373Y657526D01*
X284344Y657708D01*
X284311Y657890D01*
X284274Y658071D01*
X284232Y658251D01*
X284186Y658431D01*
X284136Y658609D01*
X284082Y658785D01*
X284023Y658961D01*
X283961Y659135D01*
X283894Y659307D01*
X283823Y659478D01*
X283748Y659647D01*
X283669Y659814D01*
X283670Y659814D02*
X283640Y659894D01*
X283607Y659973D01*
X283570Y660050D01*
X283530Y660126D01*
X283487Y660200D01*
X283441Y660272D01*
X283391Y660341D01*
X283339Y660409D01*
X283283Y660474D01*
X283225Y660537D01*
X283163Y660596D01*
X283100Y660654D01*
X283033Y660708D01*
X282965Y660759D01*
X282894Y660807D01*
X282821Y660852D01*
X282747Y660894D01*
X282670Y660932D01*
X282592Y660967D01*
X282513Y660999D01*
X282432Y661027D01*
X282350Y661051D01*
X282266Y661072D01*
X282183Y661089D01*
X282098Y661102D01*
X282013Y661111D01*
X281928Y661117D01*
X281842Y661119D01*
X281756Y661117D01*
X281671Y661111D01*
X281586Y661102D01*
X281501Y661089D01*
X281418Y661072D01*
X281334Y661051D01*
X281252Y661027D01*
X281172Y660999D01*
X281092Y660967D01*
X281014Y660932D01*
X280937Y660894D01*
X280863Y660852D01*
X280790Y660807D01*
X280719Y660759D01*
X280651Y660708D01*
X280584Y660654D01*
X280521Y660596D01*
X280460Y660537D01*
X280401Y660474D01*
X280346Y660409D01*
X280293Y660341D01*
X280243Y660272D01*
X280197Y660200D01*
X280154Y660126D01*
X280114Y660050D01*
X280077Y659973D01*
X280044Y659894D01*
X280014Y659814D01*
X279935Y659647D01*
X279860Y659478D01*
X279789Y659307D01*
X279722Y659135D01*
X279660Y658961D01*
X279601Y658785D01*
X279547Y658609D01*
X279497Y658431D01*
X279451Y658251D01*
X279409Y658071D01*
X279372Y657890D01*
X279339Y657708D01*
X279310Y657526D01*
X279286Y657342D01*
X279266Y657158D01*
X279251Y656974D01*
X279240Y656790D01*
X279233Y656605D01*
X279231Y656420D01*
X284452Y656420D02*
X284450Y656235D01*
X284443Y656050D01*
X284432Y655866D01*
X284417Y655682D01*
X284397Y655498D01*
X284373Y655314D01*
X284344Y655132D01*
X284311Y654950D01*
X284274Y654769D01*
X284232Y654589D01*
X284186Y654409D01*
X284136Y654231D01*
X284082Y654055D01*
X284023Y653879D01*
X283961Y653705D01*
X283894Y653533D01*
X283823Y653362D01*
X283748Y653193D01*
X283669Y653026D01*
X283670Y653026D02*
X283640Y652946D01*
X283607Y652867D01*
X283570Y652790D01*
X283530Y652714D01*
X283487Y652640D01*
X283441Y652568D01*
X283391Y652499D01*
X283338Y652431D01*
X283283Y652366D01*
X283224Y652303D01*
X283163Y652244D01*
X283100Y652186D01*
X283033Y652132D01*
X282965Y652081D01*
X282894Y652033D01*
X282821Y651988D01*
X282747Y651946D01*
X282670Y651908D01*
X282592Y651873D01*
X282513Y651841D01*
X282432Y651813D01*
X282350Y651789D01*
X282266Y651768D01*
X282183Y651751D01*
X282098Y651738D01*
X282013Y651729D01*
X281928Y651723D01*
X281842Y651721D01*
X280014Y653026D02*
X279935Y653193D01*
X279860Y653362D01*
X279789Y653533D01*
X279722Y653705D01*
X279660Y653879D01*
X279601Y654055D01*
X279547Y654231D01*
X279497Y654409D01*
X279451Y654589D01*
X279409Y654769D01*
X279372Y654950D01*
X279339Y655132D01*
X279310Y655314D01*
X279286Y655498D01*
X279266Y655682D01*
X279251Y655866D01*
X279240Y656050D01*
X279233Y656235D01*
X279231Y656420D01*
X280014Y653026D02*
X280044Y652946D01*
X280077Y652867D01*
X280114Y652790D01*
X280154Y652714D01*
X280197Y652640D01*
X280243Y652568D01*
X280293Y652499D01*
X280346Y652431D01*
X280401Y652366D01*
X280460Y652303D01*
X280521Y652244D01*
X280584Y652186D01*
X280651Y652132D01*
X280719Y652081D01*
X280790Y652033D01*
X280863Y651988D01*
X280937Y651946D01*
X281014Y651908D01*
X281092Y651873D01*
X281172Y651841D01*
X281252Y651813D01*
X281334Y651789D01*
X281418Y651768D01*
X281501Y651751D01*
X281586Y651738D01*
X281671Y651729D01*
X281756Y651723D01*
X281842Y651721D01*
X283930Y653809D02*
X279753Y659031D01*
X297065Y613621D02*
X299153Y613621D01*
X299242Y613623D01*
X299330Y613629D01*
X299418Y613638D01*
X299506Y613651D01*
X299593Y613668D01*
X299679Y613688D01*
X299764Y613713D01*
X299849Y613740D01*
X299932Y613772D01*
X300013Y613806D01*
X300093Y613845D01*
X300171Y613886D01*
X300248Y613931D01*
X300322Y613979D01*
X300395Y614030D01*
X300465Y614084D01*
X300532Y614142D01*
X300598Y614202D01*
X300660Y614264D01*
X300720Y614330D01*
X300778Y614397D01*
X300832Y614467D01*
X300883Y614540D01*
X300931Y614614D01*
X300976Y614691D01*
X301017Y614769D01*
X301056Y614849D01*
X301090Y614930D01*
X301122Y615013D01*
X301149Y615098D01*
X301174Y615183D01*
X301194Y615269D01*
X301211Y615356D01*
X301224Y615444D01*
X301233Y615532D01*
X301239Y615620D01*
X301241Y615709D01*
X301242Y615709D02*
X301242Y620931D01*
X301241Y620931D02*
X301239Y621020D01*
X301233Y621108D01*
X301224Y621196D01*
X301211Y621284D01*
X301194Y621371D01*
X301174Y621457D01*
X301149Y621542D01*
X301122Y621627D01*
X301090Y621710D01*
X301056Y621791D01*
X301017Y621871D01*
X300976Y621949D01*
X300931Y622026D01*
X300883Y622100D01*
X300832Y622173D01*
X300778Y622243D01*
X300720Y622310D01*
X300660Y622376D01*
X300598Y622438D01*
X300532Y622498D01*
X300465Y622556D01*
X300395Y622610D01*
X300322Y622661D01*
X300248Y622709D01*
X300171Y622754D01*
X300093Y622795D01*
X300013Y622834D01*
X299932Y622868D01*
X299849Y622900D01*
X299764Y622927D01*
X299679Y622952D01*
X299593Y622972D01*
X299506Y622989D01*
X299418Y623002D01*
X299330Y623011D01*
X299242Y623017D01*
X299153Y623019D01*
X297065Y623019D01*
X290724Y623020D02*
X290629Y623018D01*
X290535Y623012D01*
X290441Y623003D01*
X290347Y622990D01*
X290254Y622973D01*
X290162Y622952D01*
X290070Y622927D01*
X289980Y622899D01*
X289891Y622867D01*
X289803Y622832D01*
X289717Y622793D01*
X289632Y622751D01*
X289549Y622705D01*
X289468Y622656D01*
X289389Y622604D01*
X289312Y622549D01*
X289238Y622490D01*
X289166Y622429D01*
X289096Y622365D01*
X289029Y622298D01*
X288965Y622228D01*
X288904Y622156D01*
X288845Y622082D01*
X288790Y622005D01*
X288738Y621926D01*
X288689Y621845D01*
X288643Y621762D01*
X288601Y621677D01*
X288562Y621591D01*
X288527Y621503D01*
X288495Y621414D01*
X288467Y621324D01*
X288442Y621232D01*
X288421Y621140D01*
X288404Y621047D01*
X288391Y620953D01*
X288382Y620859D01*
X288376Y620765D01*
X288374Y620670D01*
X290724Y623019D02*
X290832Y623017D01*
X290941Y623011D01*
X291049Y623001D01*
X291156Y622988D01*
X291263Y622970D01*
X291370Y622949D01*
X291475Y622924D01*
X291580Y622895D01*
X291683Y622863D01*
X291785Y622826D01*
X291886Y622786D01*
X291985Y622743D01*
X292083Y622696D01*
X292179Y622645D01*
X292273Y622591D01*
X292365Y622534D01*
X292455Y622473D01*
X292543Y622409D01*
X292628Y622343D01*
X292711Y622273D01*
X292791Y622200D01*
X292869Y622124D01*
X292944Y622046D01*
X293016Y621965D01*
X293085Y621881D01*
X293151Y621795D01*
X293214Y621707D01*
X293273Y621616D01*
X293330Y621524D01*
X293383Y621429D01*
X293432Y621332D01*
X293478Y621234D01*
X293521Y621135D01*
X293560Y621033D01*
X293595Y620931D01*
X289158Y618842D02*
X289089Y618911D01*
X289023Y618982D01*
X288959Y619055D01*
X288898Y619131D01*
X288840Y619210D01*
X288786Y619290D01*
X288734Y619373D01*
X288686Y619457D01*
X288640Y619543D01*
X288599Y619631D01*
X288560Y619721D01*
X288525Y619812D01*
X288494Y619904D01*
X288466Y619997D01*
X288442Y620091D01*
X288422Y620186D01*
X288405Y620282D01*
X288392Y620379D01*
X288383Y620476D01*
X288377Y620573D01*
X288375Y620670D01*
X289158Y618842D02*
X293596Y613621D01*
X288375Y613621D01*
X284452Y620931D02*
X281842Y623019D01*
X281842Y613621D01*
X284452Y613621D02*
X279231Y613621D01*
M02*
