G04 EAGLE Gerber RS-274X export*
G75*
%MOMM*%
%FSLAX34Y34*%
%LPD*%
%INSilkscreen Bottom*%
%IPPOS*%
%AMOC8*
5,1,8,0,0,1.08239X$1,22.5*%
G01*
%ADD10C,0.228600*%
%ADD11C,0.254000*%
%ADD12C,0.101600*%
%ADD13C,0.076200*%
%ADD14C,0.127000*%
%ADD15C,0.200000*%
%ADD16C,0.150000*%
%ADD17C,0.500000*%


D10*
X227457Y648137D02*
X222730Y648137D01*
X222594Y648135D01*
X222458Y648129D01*
X222322Y648119D01*
X222186Y648106D01*
X222051Y648088D01*
X221917Y648066D01*
X221783Y648041D01*
X221650Y648012D01*
X221518Y647979D01*
X221386Y647942D01*
X221256Y647901D01*
X221128Y647857D01*
X221000Y647809D01*
X220874Y647757D01*
X220749Y647702D01*
X220627Y647643D01*
X220505Y647581D01*
X220386Y647515D01*
X220269Y647446D01*
X220154Y647373D01*
X220040Y647297D01*
X219930Y647218D01*
X219821Y647136D01*
X219715Y647050D01*
X219611Y646962D01*
X219510Y646871D01*
X219412Y646776D01*
X219316Y646679D01*
X219223Y646580D01*
X219133Y646477D01*
X219046Y646372D01*
X218963Y646265D01*
X218882Y646155D01*
X218804Y646043D01*
X218730Y645929D01*
X218659Y645813D01*
X218592Y645694D01*
X218528Y645574D01*
X218467Y645452D01*
X218410Y645328D01*
X218356Y645203D01*
X218306Y645076D01*
X218260Y644948D01*
X218218Y644819D01*
X218179Y644688D01*
X218144Y644557D01*
X218113Y644424D01*
X218086Y644290D01*
X218062Y644156D01*
X218043Y644021D01*
X218027Y643886D01*
X218015Y643750D01*
X218007Y643614D01*
X218003Y643478D01*
X218003Y643342D01*
X218007Y643206D01*
X218015Y643070D01*
X218027Y642934D01*
X218043Y642799D01*
X218062Y642664D01*
X218086Y642530D01*
X218113Y642396D01*
X218144Y642263D01*
X218179Y642132D01*
X218218Y642001D01*
X218260Y641872D01*
X218306Y641744D01*
X218356Y641617D01*
X218410Y641492D01*
X218467Y641368D01*
X218528Y641246D01*
X218592Y641126D01*
X218659Y641007D01*
X218730Y640891D01*
X218804Y640777D01*
X218882Y640665D01*
X218963Y640555D01*
X219046Y640448D01*
X219133Y640343D01*
X219223Y640240D01*
X219316Y640141D01*
X219412Y640044D01*
X219510Y639949D01*
X219611Y639858D01*
X219715Y639770D01*
X219821Y639684D01*
X219930Y639602D01*
X220040Y639523D01*
X220154Y639447D01*
X220269Y639374D01*
X220386Y639305D01*
X220505Y639239D01*
X220627Y639177D01*
X220749Y639118D01*
X220874Y639063D01*
X221000Y639011D01*
X221128Y638963D01*
X221256Y638919D01*
X221386Y638878D01*
X221518Y638841D01*
X221650Y638808D01*
X221783Y638779D01*
X221917Y638754D01*
X222051Y638732D01*
X222186Y638714D01*
X222322Y638701D01*
X222458Y638691D01*
X222594Y638685D01*
X222730Y638683D01*
X227457Y638683D01*
X227457Y655701D01*
X222730Y655701D01*
X222609Y655699D01*
X222488Y655693D01*
X222367Y655684D01*
X222246Y655670D01*
X222126Y655653D01*
X222007Y655631D01*
X221888Y655606D01*
X221771Y655577D01*
X221654Y655545D01*
X221538Y655508D01*
X221424Y655468D01*
X221311Y655425D01*
X221199Y655377D01*
X221089Y655326D01*
X220981Y655272D01*
X220874Y655214D01*
X220769Y655153D01*
X220667Y655089D01*
X220566Y655021D01*
X220468Y654950D01*
X220372Y654876D01*
X220278Y654799D01*
X220187Y654719D01*
X220099Y654636D01*
X220013Y654550D01*
X219930Y654462D01*
X219850Y654371D01*
X219773Y654277D01*
X219699Y654181D01*
X219628Y654083D01*
X219560Y653982D01*
X219496Y653880D01*
X219435Y653775D01*
X219377Y653668D01*
X219323Y653560D01*
X219272Y653450D01*
X219224Y653338D01*
X219181Y653225D01*
X219141Y653111D01*
X219104Y652995D01*
X219072Y652878D01*
X219043Y652761D01*
X219018Y652642D01*
X218996Y652523D01*
X218979Y652403D01*
X218965Y652282D01*
X218956Y652161D01*
X218950Y652040D01*
X218948Y651919D01*
X218950Y651798D01*
X218956Y651677D01*
X218965Y651556D01*
X218979Y651435D01*
X218996Y651315D01*
X219018Y651196D01*
X219043Y651077D01*
X219072Y650960D01*
X219104Y650843D01*
X219141Y650727D01*
X219181Y650613D01*
X219224Y650500D01*
X219272Y650388D01*
X219323Y650278D01*
X219377Y650170D01*
X219435Y650063D01*
X219496Y649958D01*
X219560Y649856D01*
X219628Y649755D01*
X219699Y649657D01*
X219773Y649561D01*
X219850Y649467D01*
X219930Y649376D01*
X220013Y649288D01*
X220099Y649202D01*
X220187Y649119D01*
X220278Y649039D01*
X220372Y648962D01*
X220468Y648888D01*
X220566Y648817D01*
X220667Y648749D01*
X220769Y648685D01*
X220874Y648624D01*
X220981Y648566D01*
X221089Y648512D01*
X221199Y648461D01*
X221311Y648413D01*
X221424Y648370D01*
X221538Y648330D01*
X221654Y648293D01*
X221771Y648261D01*
X221888Y648232D01*
X222007Y648207D01*
X222126Y648185D01*
X222246Y648168D01*
X222367Y648154D01*
X222488Y648145D01*
X222609Y648139D01*
X222730Y648137D01*
X211698Y646247D02*
X211698Y642465D01*
X211698Y646247D02*
X211696Y646368D01*
X211690Y646489D01*
X211681Y646610D01*
X211667Y646731D01*
X211650Y646851D01*
X211628Y646970D01*
X211603Y647089D01*
X211574Y647206D01*
X211542Y647323D01*
X211505Y647439D01*
X211465Y647553D01*
X211422Y647666D01*
X211374Y647778D01*
X211323Y647888D01*
X211269Y647996D01*
X211211Y648103D01*
X211150Y648208D01*
X211086Y648310D01*
X211018Y648411D01*
X210947Y648509D01*
X210873Y648605D01*
X210796Y648699D01*
X210716Y648790D01*
X210633Y648878D01*
X210547Y648964D01*
X210459Y649047D01*
X210368Y649127D01*
X210274Y649204D01*
X210178Y649278D01*
X210080Y649349D01*
X209979Y649417D01*
X209877Y649481D01*
X209772Y649542D01*
X209665Y649600D01*
X209557Y649654D01*
X209447Y649705D01*
X209335Y649753D01*
X209222Y649796D01*
X209108Y649836D01*
X208992Y649873D01*
X208875Y649905D01*
X208758Y649934D01*
X208639Y649959D01*
X208520Y649981D01*
X208400Y649998D01*
X208279Y650012D01*
X208158Y650021D01*
X208037Y650027D01*
X207916Y650029D01*
X207795Y650027D01*
X207674Y650021D01*
X207553Y650012D01*
X207432Y649998D01*
X207312Y649981D01*
X207193Y649959D01*
X207074Y649934D01*
X206957Y649905D01*
X206840Y649873D01*
X206724Y649836D01*
X206610Y649796D01*
X206497Y649753D01*
X206385Y649705D01*
X206275Y649654D01*
X206167Y649600D01*
X206060Y649542D01*
X205955Y649481D01*
X205853Y649417D01*
X205752Y649349D01*
X205654Y649278D01*
X205558Y649204D01*
X205464Y649127D01*
X205373Y649047D01*
X205285Y648964D01*
X205199Y648878D01*
X205116Y648790D01*
X205036Y648699D01*
X204959Y648605D01*
X204885Y648509D01*
X204814Y648411D01*
X204746Y648310D01*
X204682Y648208D01*
X204621Y648103D01*
X204563Y647996D01*
X204509Y647888D01*
X204458Y647778D01*
X204410Y647666D01*
X204367Y647553D01*
X204327Y647439D01*
X204290Y647323D01*
X204258Y647206D01*
X204229Y647089D01*
X204204Y646970D01*
X204182Y646851D01*
X204165Y646731D01*
X204151Y646610D01*
X204142Y646489D01*
X204136Y646368D01*
X204134Y646247D01*
X204134Y642465D01*
X204136Y642344D01*
X204142Y642223D01*
X204151Y642102D01*
X204165Y641981D01*
X204182Y641861D01*
X204204Y641742D01*
X204229Y641623D01*
X204258Y641506D01*
X204290Y641389D01*
X204327Y641273D01*
X204367Y641159D01*
X204410Y641046D01*
X204458Y640934D01*
X204509Y640824D01*
X204563Y640716D01*
X204621Y640609D01*
X204682Y640504D01*
X204746Y640402D01*
X204814Y640301D01*
X204885Y640203D01*
X204959Y640107D01*
X205036Y640013D01*
X205116Y639922D01*
X205199Y639834D01*
X205285Y639748D01*
X205373Y639665D01*
X205464Y639585D01*
X205558Y639508D01*
X205654Y639434D01*
X205752Y639363D01*
X205853Y639295D01*
X205955Y639231D01*
X206060Y639170D01*
X206167Y639112D01*
X206275Y639058D01*
X206385Y639007D01*
X206497Y638959D01*
X206610Y638916D01*
X206724Y638876D01*
X206840Y638839D01*
X206957Y638807D01*
X207074Y638778D01*
X207193Y638753D01*
X207312Y638731D01*
X207432Y638714D01*
X207553Y638700D01*
X207674Y638691D01*
X207795Y638685D01*
X207916Y638683D01*
X208037Y638685D01*
X208158Y638691D01*
X208279Y638700D01*
X208400Y638714D01*
X208520Y638731D01*
X208639Y638753D01*
X208758Y638778D01*
X208875Y638807D01*
X208992Y638839D01*
X209108Y638876D01*
X209222Y638916D01*
X209335Y638959D01*
X209447Y639007D01*
X209557Y639058D01*
X209665Y639112D01*
X209772Y639170D01*
X209877Y639231D01*
X209979Y639295D01*
X210080Y639363D01*
X210178Y639434D01*
X210274Y639508D01*
X210368Y639585D01*
X210459Y639665D01*
X210547Y639748D01*
X210633Y639834D01*
X210716Y639922D01*
X210796Y640013D01*
X210873Y640107D01*
X210947Y640203D01*
X211018Y640301D01*
X211086Y640402D01*
X211150Y640504D01*
X211211Y640609D01*
X211269Y640716D01*
X211323Y640824D01*
X211374Y640934D01*
X211422Y641046D01*
X211465Y641159D01*
X211505Y641273D01*
X211542Y641389D01*
X211574Y641506D01*
X211603Y641623D01*
X211628Y641742D01*
X211650Y641861D01*
X211667Y641981D01*
X211681Y642102D01*
X211690Y642223D01*
X211696Y642344D01*
X211698Y642465D01*
X196972Y641519D02*
X196972Y655701D01*
X196972Y641519D02*
X196970Y641415D01*
X196964Y641312D01*
X196955Y641209D01*
X196942Y641106D01*
X196925Y641004D01*
X196904Y640902D01*
X196880Y640802D01*
X196852Y640702D01*
X196820Y640603D01*
X196785Y640506D01*
X196746Y640410D01*
X196704Y640315D01*
X196658Y640222D01*
X196609Y640131D01*
X196557Y640042D01*
X196501Y639954D01*
X196442Y639869D01*
X196381Y639786D01*
X196316Y639705D01*
X196248Y639626D01*
X196178Y639551D01*
X196104Y639477D01*
X196029Y639407D01*
X195950Y639339D01*
X195869Y639274D01*
X195786Y639213D01*
X195701Y639154D01*
X195613Y639098D01*
X195524Y639046D01*
X195433Y638997D01*
X195340Y638951D01*
X195245Y638909D01*
X195149Y638870D01*
X195052Y638835D01*
X194953Y638803D01*
X194853Y638775D01*
X194753Y638751D01*
X194651Y638730D01*
X194549Y638713D01*
X194446Y638700D01*
X194343Y638691D01*
X194240Y638685D01*
X194136Y638683D01*
X189680Y650028D02*
X184008Y650028D01*
X187789Y655701D02*
X187789Y641519D01*
X187787Y641415D01*
X187781Y641312D01*
X187772Y641209D01*
X187759Y641106D01*
X187742Y641004D01*
X187721Y640902D01*
X187697Y640802D01*
X187669Y640702D01*
X187637Y640603D01*
X187602Y640506D01*
X187563Y640410D01*
X187521Y640315D01*
X187475Y640222D01*
X187426Y640131D01*
X187374Y640042D01*
X187318Y639954D01*
X187259Y639869D01*
X187198Y639786D01*
X187133Y639705D01*
X187065Y639626D01*
X186995Y639551D01*
X186921Y639477D01*
X186846Y639407D01*
X186767Y639339D01*
X186686Y639274D01*
X186603Y639213D01*
X186518Y639154D01*
X186430Y639098D01*
X186341Y639046D01*
X186250Y638997D01*
X186157Y638951D01*
X186062Y638909D01*
X185966Y638870D01*
X185869Y638835D01*
X185770Y638803D01*
X185670Y638775D01*
X185570Y638751D01*
X185468Y638730D01*
X185366Y638713D01*
X185263Y638700D01*
X185160Y638691D01*
X185057Y638685D01*
X184953Y638683D01*
X184008Y638683D01*
X165482Y638683D02*
X169263Y650028D01*
X161700Y650028D02*
X165482Y638683D01*
X155134Y651919D02*
X150406Y655701D01*
X150406Y638683D01*
X145679Y638683D02*
X155134Y638683D01*
X139154Y638683D02*
X139154Y639628D01*
X138208Y639628D01*
X138208Y638683D01*
X139154Y638683D01*
X131683Y647192D02*
X131679Y647527D01*
X131667Y647861D01*
X131647Y648196D01*
X131619Y648529D01*
X131583Y648862D01*
X131539Y649194D01*
X131488Y649525D01*
X131428Y649854D01*
X131361Y650182D01*
X131285Y650508D01*
X131202Y650833D01*
X131111Y651155D01*
X131013Y651475D01*
X130907Y651792D01*
X130793Y652107D01*
X130672Y652419D01*
X130544Y652729D01*
X130408Y653035D01*
X130265Y653337D01*
X130225Y653448D01*
X130181Y653557D01*
X130134Y653664D01*
X130084Y653770D01*
X130029Y653874D01*
X129972Y653976D01*
X129910Y654076D01*
X129846Y654174D01*
X129778Y654270D01*
X129707Y654363D01*
X129633Y654454D01*
X129556Y654543D01*
X129477Y654628D01*
X129394Y654712D01*
X129308Y654792D01*
X129220Y654869D01*
X129130Y654944D01*
X129037Y655015D01*
X128941Y655083D01*
X128844Y655148D01*
X128744Y655210D01*
X128642Y655268D01*
X128538Y655323D01*
X128433Y655374D01*
X128326Y655422D01*
X128217Y655466D01*
X128107Y655506D01*
X127996Y655543D01*
X127883Y655576D01*
X127769Y655605D01*
X127655Y655630D01*
X127540Y655652D01*
X127424Y655670D01*
X127307Y655683D01*
X127190Y655693D01*
X127073Y655699D01*
X126956Y655701D01*
X126839Y655699D01*
X126722Y655693D01*
X126605Y655683D01*
X126488Y655670D01*
X126372Y655652D01*
X126257Y655630D01*
X126143Y655605D01*
X126029Y655576D01*
X125916Y655543D01*
X125805Y655506D01*
X125695Y655466D01*
X125586Y655422D01*
X125479Y655374D01*
X125374Y655323D01*
X125270Y655268D01*
X125168Y655210D01*
X125068Y655148D01*
X124971Y655083D01*
X124875Y655015D01*
X124782Y654944D01*
X124692Y654869D01*
X124604Y654792D01*
X124518Y654712D01*
X124435Y654628D01*
X124355Y654543D01*
X124279Y654454D01*
X124205Y654363D01*
X124134Y654270D01*
X124066Y654174D01*
X124002Y654076D01*
X123940Y653976D01*
X123883Y653874D01*
X123828Y653770D01*
X123778Y653664D01*
X123731Y653557D01*
X123687Y653448D01*
X123647Y653337D01*
X123646Y653337D02*
X123503Y653035D01*
X123367Y652729D01*
X123239Y652420D01*
X123118Y652107D01*
X123004Y651793D01*
X122898Y651475D01*
X122800Y651155D01*
X122709Y650833D01*
X122626Y650508D01*
X122550Y650182D01*
X122483Y649854D01*
X122423Y649525D01*
X122372Y649194D01*
X122328Y648862D01*
X122292Y648529D01*
X122264Y648196D01*
X122244Y647861D01*
X122232Y647527D01*
X122228Y647192D01*
X131683Y647192D02*
X131679Y646857D01*
X131667Y646523D01*
X131647Y646188D01*
X131619Y645855D01*
X131583Y645522D01*
X131539Y645190D01*
X131488Y644859D01*
X131428Y644530D01*
X131361Y644202D01*
X131285Y643876D01*
X131202Y643551D01*
X131111Y643229D01*
X131013Y642909D01*
X130907Y642592D01*
X130793Y642277D01*
X130672Y641965D01*
X130544Y641655D01*
X130408Y641349D01*
X130265Y641047D01*
X130265Y641046D02*
X130225Y640936D01*
X130181Y640827D01*
X130134Y640720D01*
X130084Y640614D01*
X130029Y640510D01*
X129972Y640408D01*
X129910Y640308D01*
X129846Y640210D01*
X129778Y640114D01*
X129707Y640021D01*
X129633Y639930D01*
X129556Y639841D01*
X129477Y639756D01*
X129394Y639672D01*
X129308Y639592D01*
X129220Y639515D01*
X129130Y639440D01*
X129037Y639369D01*
X128941Y639301D01*
X128844Y639236D01*
X128744Y639174D01*
X128642Y639116D01*
X128538Y639061D01*
X128433Y639010D01*
X128326Y638962D01*
X128217Y638918D01*
X128107Y638878D01*
X127996Y638841D01*
X127883Y638808D01*
X127769Y638779D01*
X127655Y638754D01*
X127540Y638732D01*
X127424Y638714D01*
X127307Y638701D01*
X127190Y638691D01*
X127073Y638685D01*
X126956Y638683D01*
X123647Y641047D02*
X123504Y641349D01*
X123368Y641655D01*
X123240Y641964D01*
X123119Y642277D01*
X123005Y642592D01*
X122899Y642909D01*
X122801Y643229D01*
X122710Y643551D01*
X122627Y643876D01*
X122551Y644202D01*
X122484Y644530D01*
X122424Y644859D01*
X122373Y645190D01*
X122329Y645522D01*
X122293Y645855D01*
X122265Y646188D01*
X122245Y646523D01*
X122233Y646857D01*
X122229Y647192D01*
X123647Y641047D02*
X123687Y640936D01*
X123731Y640827D01*
X123778Y640720D01*
X123828Y640614D01*
X123883Y640510D01*
X123940Y640408D01*
X124002Y640308D01*
X124066Y640210D01*
X124134Y640114D01*
X124205Y640021D01*
X124279Y639930D01*
X124356Y639841D01*
X124435Y639756D01*
X124518Y639672D01*
X124604Y639592D01*
X124692Y639515D01*
X124782Y639440D01*
X124875Y639369D01*
X124971Y639301D01*
X125068Y639236D01*
X125168Y639174D01*
X125270Y639116D01*
X125374Y639061D01*
X125479Y639010D01*
X125586Y638962D01*
X125695Y638918D01*
X125805Y638878D01*
X125916Y638841D01*
X126029Y638808D01*
X126143Y638779D01*
X126257Y638754D01*
X126372Y638732D01*
X126488Y638714D01*
X126605Y638701D01*
X126722Y638691D01*
X126839Y638685D01*
X126956Y638683D01*
X130738Y642465D02*
X123174Y651919D01*
D11*
X450575Y518950D02*
X450575Y461450D01*
X276575Y461450D01*
X276575Y518950D01*
X450575Y518950D01*
X300575Y518375D02*
X300575Y513375D01*
X427575Y513375D02*
X427575Y518375D01*
D12*
X328638Y473717D02*
X328638Y464573D01*
X328638Y469653D02*
X323558Y469653D01*
X323558Y473717D02*
X323558Y464573D01*
X319698Y464573D02*
X316650Y473717D01*
X313602Y464573D01*
X314364Y466859D02*
X318936Y466859D01*
X309721Y464573D02*
X309721Y473717D01*
X309721Y464573D02*
X305657Y464573D01*
X301796Y464573D02*
X301796Y473717D01*
X301796Y464573D02*
X297732Y464573D01*
X294603Y463557D02*
X290539Y463557D01*
X287389Y464573D02*
X284341Y473717D01*
X281293Y464573D01*
X282055Y466859D02*
X286627Y466859D01*
X517473Y564541D02*
X529157Y564541D01*
X529157Y567787D01*
X529155Y567900D01*
X529149Y568013D01*
X529139Y568126D01*
X529125Y568239D01*
X529108Y568351D01*
X529086Y568462D01*
X529061Y568572D01*
X529031Y568682D01*
X528998Y568790D01*
X528961Y568897D01*
X528921Y569003D01*
X528876Y569107D01*
X528828Y569210D01*
X528777Y569311D01*
X528722Y569410D01*
X528664Y569507D01*
X528602Y569602D01*
X528537Y569695D01*
X528469Y569785D01*
X528398Y569873D01*
X528323Y569959D01*
X528246Y570042D01*
X528166Y570122D01*
X528083Y570199D01*
X527997Y570274D01*
X527909Y570345D01*
X527819Y570413D01*
X527726Y570478D01*
X527631Y570540D01*
X527534Y570598D01*
X527435Y570653D01*
X527334Y570704D01*
X527231Y570752D01*
X527127Y570797D01*
X527021Y570837D01*
X526914Y570874D01*
X526806Y570907D01*
X526696Y570937D01*
X526586Y570962D01*
X526475Y570984D01*
X526363Y571001D01*
X526250Y571015D01*
X526137Y571025D01*
X526024Y571031D01*
X525911Y571033D01*
X525798Y571031D01*
X525685Y571025D01*
X525572Y571015D01*
X525459Y571001D01*
X525347Y570984D01*
X525236Y570962D01*
X525126Y570937D01*
X525016Y570907D01*
X524908Y570874D01*
X524801Y570837D01*
X524695Y570797D01*
X524591Y570752D01*
X524488Y570704D01*
X524387Y570653D01*
X524288Y570598D01*
X524191Y570540D01*
X524096Y570478D01*
X524003Y570413D01*
X523913Y570345D01*
X523825Y570274D01*
X523739Y570199D01*
X523656Y570122D01*
X523576Y570042D01*
X523499Y569959D01*
X523424Y569873D01*
X523353Y569785D01*
X523285Y569695D01*
X523220Y569602D01*
X523158Y569507D01*
X523100Y569410D01*
X523045Y569311D01*
X522994Y569210D01*
X522946Y569107D01*
X522901Y569003D01*
X522861Y568897D01*
X522824Y568790D01*
X522791Y568682D01*
X522761Y568572D01*
X522736Y568462D01*
X522714Y568351D01*
X522697Y568239D01*
X522683Y568126D01*
X522673Y568013D01*
X522667Y567900D01*
X522665Y567787D01*
X522666Y567787D02*
X522666Y564541D01*
X522666Y568436D02*
X517473Y571032D01*
X517473Y575897D02*
X517473Y579792D01*
X517475Y579891D01*
X517481Y579991D01*
X517490Y580090D01*
X517503Y580188D01*
X517520Y580286D01*
X517541Y580384D01*
X517566Y580480D01*
X517594Y580575D01*
X517626Y580669D01*
X517661Y580762D01*
X517700Y580854D01*
X517743Y580944D01*
X517788Y581032D01*
X517838Y581119D01*
X517890Y581203D01*
X517946Y581286D01*
X518004Y581366D01*
X518066Y581444D01*
X518131Y581519D01*
X518199Y581592D01*
X518269Y581662D01*
X518342Y581730D01*
X518417Y581795D01*
X518495Y581857D01*
X518575Y581915D01*
X518658Y581971D01*
X518742Y582023D01*
X518829Y582073D01*
X518917Y582118D01*
X519007Y582161D01*
X519099Y582200D01*
X519192Y582235D01*
X519286Y582267D01*
X519381Y582295D01*
X519477Y582320D01*
X519575Y582341D01*
X519673Y582358D01*
X519771Y582371D01*
X519870Y582380D01*
X519970Y582386D01*
X520069Y582388D01*
X521368Y582388D01*
X521467Y582386D01*
X521567Y582380D01*
X521666Y582371D01*
X521764Y582358D01*
X521862Y582341D01*
X521960Y582320D01*
X522056Y582295D01*
X522151Y582267D01*
X522245Y582235D01*
X522338Y582200D01*
X522430Y582161D01*
X522520Y582118D01*
X522608Y582073D01*
X522695Y582023D01*
X522779Y581971D01*
X522862Y581915D01*
X522942Y581857D01*
X523020Y581795D01*
X523095Y581730D01*
X523168Y581662D01*
X523238Y581592D01*
X523306Y581519D01*
X523371Y581444D01*
X523433Y581366D01*
X523491Y581286D01*
X523547Y581203D01*
X523599Y581119D01*
X523649Y581032D01*
X523694Y580944D01*
X523737Y580854D01*
X523776Y580762D01*
X523811Y580669D01*
X523843Y580575D01*
X523871Y580480D01*
X523896Y580384D01*
X523917Y580286D01*
X523934Y580188D01*
X523947Y580090D01*
X523956Y579991D01*
X523962Y579891D01*
X523964Y579792D01*
X523964Y575897D01*
X529157Y575897D01*
X529157Y582388D01*
X500074Y564743D02*
X488390Y564743D01*
X500074Y564743D02*
X500074Y567989D01*
X500072Y568102D01*
X500066Y568215D01*
X500056Y568328D01*
X500042Y568441D01*
X500025Y568553D01*
X500003Y568664D01*
X499978Y568774D01*
X499948Y568884D01*
X499915Y568992D01*
X499878Y569099D01*
X499838Y569205D01*
X499793Y569309D01*
X499745Y569412D01*
X499694Y569513D01*
X499639Y569612D01*
X499581Y569709D01*
X499519Y569804D01*
X499454Y569897D01*
X499386Y569987D01*
X499315Y570075D01*
X499240Y570161D01*
X499163Y570244D01*
X499083Y570324D01*
X499000Y570401D01*
X498914Y570476D01*
X498826Y570547D01*
X498736Y570615D01*
X498643Y570680D01*
X498548Y570742D01*
X498451Y570800D01*
X498352Y570855D01*
X498251Y570906D01*
X498148Y570954D01*
X498044Y570999D01*
X497938Y571039D01*
X497831Y571076D01*
X497723Y571109D01*
X497613Y571139D01*
X497503Y571164D01*
X497392Y571186D01*
X497280Y571203D01*
X497167Y571217D01*
X497054Y571227D01*
X496941Y571233D01*
X496828Y571235D01*
X496715Y571233D01*
X496602Y571227D01*
X496489Y571217D01*
X496376Y571203D01*
X496264Y571186D01*
X496153Y571164D01*
X496043Y571139D01*
X495933Y571109D01*
X495825Y571076D01*
X495718Y571039D01*
X495612Y570999D01*
X495508Y570954D01*
X495405Y570906D01*
X495304Y570855D01*
X495205Y570800D01*
X495108Y570742D01*
X495013Y570680D01*
X494920Y570615D01*
X494830Y570547D01*
X494742Y570476D01*
X494656Y570401D01*
X494573Y570324D01*
X494493Y570244D01*
X494416Y570161D01*
X494341Y570075D01*
X494270Y569987D01*
X494202Y569897D01*
X494137Y569804D01*
X494075Y569709D01*
X494017Y569612D01*
X493962Y569513D01*
X493911Y569412D01*
X493863Y569309D01*
X493818Y569205D01*
X493778Y569099D01*
X493741Y568992D01*
X493708Y568884D01*
X493678Y568774D01*
X493653Y568664D01*
X493631Y568553D01*
X493614Y568441D01*
X493600Y568328D01*
X493590Y568215D01*
X493584Y568102D01*
X493582Y567989D01*
X493583Y567989D02*
X493583Y564743D01*
X493583Y568638D02*
X488390Y571234D01*
X494881Y576099D02*
X494881Y579994D01*
X494879Y580093D01*
X494873Y580193D01*
X494864Y580292D01*
X494851Y580390D01*
X494834Y580488D01*
X494813Y580586D01*
X494788Y580682D01*
X494760Y580777D01*
X494728Y580871D01*
X494693Y580964D01*
X494654Y581056D01*
X494611Y581146D01*
X494566Y581234D01*
X494516Y581321D01*
X494464Y581405D01*
X494408Y581488D01*
X494350Y581568D01*
X494288Y581646D01*
X494223Y581721D01*
X494155Y581794D01*
X494085Y581864D01*
X494012Y581932D01*
X493937Y581997D01*
X493859Y582059D01*
X493779Y582117D01*
X493696Y582173D01*
X493612Y582225D01*
X493525Y582275D01*
X493437Y582320D01*
X493347Y582363D01*
X493255Y582402D01*
X493162Y582437D01*
X493068Y582469D01*
X492973Y582497D01*
X492877Y582522D01*
X492779Y582543D01*
X492681Y582560D01*
X492583Y582573D01*
X492484Y582582D01*
X492384Y582588D01*
X492285Y582590D01*
X491636Y582590D01*
X491636Y582591D02*
X491523Y582589D01*
X491410Y582583D01*
X491297Y582573D01*
X491184Y582559D01*
X491072Y582542D01*
X490961Y582520D01*
X490851Y582495D01*
X490741Y582465D01*
X490633Y582432D01*
X490526Y582395D01*
X490420Y582355D01*
X490316Y582310D01*
X490213Y582262D01*
X490112Y582211D01*
X490013Y582156D01*
X489916Y582098D01*
X489821Y582036D01*
X489728Y581971D01*
X489638Y581903D01*
X489550Y581832D01*
X489464Y581757D01*
X489381Y581680D01*
X489301Y581600D01*
X489224Y581517D01*
X489149Y581431D01*
X489078Y581343D01*
X489010Y581253D01*
X488945Y581160D01*
X488883Y581065D01*
X488825Y580968D01*
X488770Y580869D01*
X488719Y580768D01*
X488671Y580665D01*
X488626Y580561D01*
X488586Y580455D01*
X488549Y580348D01*
X488516Y580240D01*
X488486Y580130D01*
X488461Y580020D01*
X488439Y579909D01*
X488422Y579797D01*
X488408Y579684D01*
X488398Y579571D01*
X488392Y579458D01*
X488390Y579345D01*
X488392Y579232D01*
X488398Y579119D01*
X488408Y579006D01*
X488422Y578893D01*
X488439Y578781D01*
X488461Y578670D01*
X488486Y578560D01*
X488516Y578450D01*
X488549Y578342D01*
X488586Y578235D01*
X488626Y578129D01*
X488671Y578025D01*
X488719Y577922D01*
X488770Y577821D01*
X488825Y577722D01*
X488883Y577625D01*
X488945Y577530D01*
X489010Y577437D01*
X489078Y577347D01*
X489149Y577259D01*
X489224Y577173D01*
X489301Y577090D01*
X489381Y577010D01*
X489464Y576933D01*
X489550Y576858D01*
X489638Y576787D01*
X489728Y576719D01*
X489821Y576654D01*
X489916Y576592D01*
X490013Y576534D01*
X490112Y576479D01*
X490213Y576428D01*
X490316Y576380D01*
X490420Y576335D01*
X490526Y576295D01*
X490633Y576258D01*
X490741Y576225D01*
X490851Y576195D01*
X490961Y576170D01*
X491072Y576148D01*
X491184Y576131D01*
X491297Y576117D01*
X491410Y576107D01*
X491523Y576101D01*
X491636Y576099D01*
X494881Y576099D01*
X495024Y576101D01*
X495167Y576107D01*
X495310Y576117D01*
X495452Y576131D01*
X495594Y576148D01*
X495736Y576170D01*
X495877Y576195D01*
X496017Y576225D01*
X496156Y576258D01*
X496294Y576295D01*
X496431Y576336D01*
X496567Y576380D01*
X496702Y576429D01*
X496835Y576481D01*
X496967Y576536D01*
X497097Y576596D01*
X497226Y576659D01*
X497353Y576725D01*
X497477Y576795D01*
X497600Y576868D01*
X497721Y576945D01*
X497840Y577025D01*
X497956Y577108D01*
X498071Y577194D01*
X498182Y577283D01*
X498292Y577376D01*
X498398Y577471D01*
X498502Y577570D01*
X498603Y577671D01*
X498702Y577775D01*
X498797Y577881D01*
X498890Y577991D01*
X498979Y578102D01*
X499065Y578217D01*
X499148Y578333D01*
X499228Y578452D01*
X499305Y578573D01*
X499378Y578695D01*
X499448Y578820D01*
X499514Y578947D01*
X499577Y579076D01*
X499637Y579206D01*
X499692Y579338D01*
X499744Y579471D01*
X499793Y579606D01*
X499837Y579742D01*
X499878Y579879D01*
X499915Y580017D01*
X499948Y580156D01*
X499978Y580296D01*
X500003Y580437D01*
X500025Y580579D01*
X500042Y580721D01*
X500056Y580863D01*
X500066Y581006D01*
X500072Y581149D01*
X500074Y581292D01*
D13*
X580933Y548552D02*
X583021Y548552D01*
X583110Y548554D01*
X583198Y548560D01*
X583286Y548569D01*
X583374Y548582D01*
X583461Y548599D01*
X583547Y548619D01*
X583632Y548644D01*
X583717Y548671D01*
X583800Y548703D01*
X583881Y548737D01*
X583961Y548776D01*
X584039Y548817D01*
X584116Y548862D01*
X584190Y548910D01*
X584263Y548961D01*
X584333Y549015D01*
X584400Y549073D01*
X584466Y549133D01*
X584528Y549195D01*
X584588Y549261D01*
X584646Y549328D01*
X584700Y549398D01*
X584751Y549471D01*
X584799Y549545D01*
X584844Y549622D01*
X584885Y549700D01*
X584924Y549780D01*
X584958Y549861D01*
X584990Y549944D01*
X585017Y550029D01*
X585042Y550114D01*
X585062Y550200D01*
X585079Y550287D01*
X585092Y550375D01*
X585101Y550463D01*
X585107Y550551D01*
X585109Y550640D01*
X585110Y550640D02*
X585110Y555862D01*
X585109Y555862D02*
X585107Y555951D01*
X585101Y556039D01*
X585092Y556127D01*
X585079Y556215D01*
X585062Y556302D01*
X585042Y556388D01*
X585017Y556473D01*
X584990Y556558D01*
X584958Y556641D01*
X584924Y556722D01*
X584885Y556802D01*
X584844Y556880D01*
X584799Y556957D01*
X584751Y557031D01*
X584700Y557104D01*
X584646Y557174D01*
X584588Y557241D01*
X584528Y557307D01*
X584466Y557369D01*
X584400Y557429D01*
X584333Y557487D01*
X584263Y557541D01*
X584190Y557592D01*
X584116Y557640D01*
X584039Y557685D01*
X583961Y557726D01*
X583881Y557765D01*
X583800Y557799D01*
X583717Y557831D01*
X583632Y557858D01*
X583547Y557883D01*
X583461Y557903D01*
X583374Y557920D01*
X583286Y557933D01*
X583198Y557942D01*
X583110Y557948D01*
X583021Y557950D01*
X580933Y557950D01*
X577464Y555862D02*
X574854Y557950D01*
X574854Y548552D01*
X577464Y548552D02*
X572243Y548552D01*
X467194Y565187D02*
X467194Y567276D01*
X467194Y565187D02*
X467196Y565098D01*
X467202Y565010D01*
X467211Y564922D01*
X467224Y564834D01*
X467241Y564747D01*
X467261Y564661D01*
X467286Y564576D01*
X467313Y564491D01*
X467345Y564408D01*
X467379Y564327D01*
X467418Y564247D01*
X467459Y564169D01*
X467504Y564092D01*
X467552Y564018D01*
X467603Y563945D01*
X467657Y563875D01*
X467715Y563808D01*
X467775Y563742D01*
X467837Y563680D01*
X467903Y563620D01*
X467970Y563562D01*
X468040Y563508D01*
X468113Y563457D01*
X468187Y563409D01*
X468264Y563364D01*
X468342Y563323D01*
X468422Y563284D01*
X468503Y563250D01*
X468586Y563218D01*
X468671Y563191D01*
X468756Y563166D01*
X468842Y563146D01*
X468929Y563129D01*
X469017Y563116D01*
X469105Y563107D01*
X469193Y563101D01*
X469282Y563099D01*
X474504Y563099D01*
X474595Y563101D01*
X474686Y563107D01*
X474777Y563117D01*
X474867Y563131D01*
X474956Y563148D01*
X475044Y563170D01*
X475132Y563196D01*
X475218Y563225D01*
X475303Y563258D01*
X475386Y563295D01*
X475468Y563335D01*
X475548Y563379D01*
X475626Y563426D01*
X475702Y563477D01*
X475775Y563530D01*
X475846Y563587D01*
X475915Y563648D01*
X475980Y563711D01*
X476043Y563776D01*
X476103Y563845D01*
X476161Y563916D01*
X476214Y563989D01*
X476265Y564065D01*
X476312Y564143D01*
X476356Y564223D01*
X476396Y564305D01*
X476433Y564388D01*
X476466Y564473D01*
X476495Y564559D01*
X476521Y564647D01*
X476543Y564735D01*
X476560Y564824D01*
X476574Y564914D01*
X476584Y565005D01*
X476590Y565096D01*
X476592Y565187D01*
X476592Y567276D01*
X476593Y573616D02*
X476591Y573711D01*
X476585Y573805D01*
X476576Y573899D01*
X476563Y573993D01*
X476546Y574086D01*
X476525Y574178D01*
X476500Y574270D01*
X476472Y574360D01*
X476440Y574449D01*
X476405Y574537D01*
X476366Y574623D01*
X476324Y574708D01*
X476278Y574791D01*
X476229Y574872D01*
X476177Y574951D01*
X476122Y575028D01*
X476063Y575102D01*
X476002Y575174D01*
X475938Y575244D01*
X475871Y575311D01*
X475801Y575375D01*
X475729Y575436D01*
X475655Y575495D01*
X475578Y575550D01*
X475499Y575602D01*
X475418Y575651D01*
X475335Y575697D01*
X475250Y575739D01*
X475164Y575778D01*
X475076Y575813D01*
X474987Y575845D01*
X474897Y575873D01*
X474805Y575898D01*
X474713Y575919D01*
X474620Y575936D01*
X474526Y575949D01*
X474432Y575958D01*
X474338Y575964D01*
X474243Y575966D01*
X476592Y573616D02*
X476590Y573508D01*
X476584Y573399D01*
X476574Y573291D01*
X476561Y573184D01*
X476543Y573077D01*
X476522Y572970D01*
X476497Y572865D01*
X476468Y572760D01*
X476436Y572657D01*
X476399Y572555D01*
X476359Y572454D01*
X476316Y572355D01*
X476269Y572257D01*
X476218Y572161D01*
X476164Y572067D01*
X476107Y571975D01*
X476046Y571885D01*
X475982Y571797D01*
X475916Y571712D01*
X475846Y571629D01*
X475773Y571549D01*
X475697Y571471D01*
X475619Y571396D01*
X475538Y571324D01*
X475454Y571255D01*
X475368Y571189D01*
X475280Y571126D01*
X475189Y571067D01*
X475097Y571010D01*
X475002Y570957D01*
X474906Y570908D01*
X474807Y570862D01*
X474708Y570819D01*
X474606Y570780D01*
X474504Y570745D01*
X472415Y575183D02*
X472484Y575252D01*
X472555Y575318D01*
X472628Y575382D01*
X472704Y575443D01*
X472783Y575501D01*
X472863Y575555D01*
X472946Y575607D01*
X473030Y575655D01*
X473116Y575701D01*
X473204Y575742D01*
X473294Y575781D01*
X473385Y575816D01*
X473477Y575847D01*
X473570Y575875D01*
X473664Y575899D01*
X473759Y575919D01*
X473855Y575936D01*
X473952Y575949D01*
X474049Y575958D01*
X474146Y575964D01*
X474243Y575966D01*
X472415Y575183D02*
X467194Y570745D01*
X467194Y575966D01*
X454875Y612912D02*
X454875Y615000D01*
X454875Y612912D02*
X454877Y612823D01*
X454883Y612735D01*
X454892Y612647D01*
X454905Y612559D01*
X454922Y612472D01*
X454942Y612386D01*
X454967Y612301D01*
X454994Y612216D01*
X455026Y612133D01*
X455060Y612052D01*
X455099Y611972D01*
X455140Y611894D01*
X455185Y611817D01*
X455233Y611743D01*
X455284Y611670D01*
X455338Y611600D01*
X455396Y611533D01*
X455456Y611467D01*
X455518Y611405D01*
X455584Y611345D01*
X455651Y611287D01*
X455721Y611233D01*
X455794Y611182D01*
X455868Y611134D01*
X455945Y611089D01*
X456023Y611048D01*
X456103Y611009D01*
X456184Y610975D01*
X456267Y610943D01*
X456352Y610916D01*
X456437Y610891D01*
X456523Y610871D01*
X456610Y610854D01*
X456698Y610841D01*
X456786Y610832D01*
X456874Y610826D01*
X456963Y610824D01*
X456963Y610823D02*
X462185Y610823D01*
X462185Y610824D02*
X462276Y610826D01*
X462367Y610832D01*
X462458Y610842D01*
X462548Y610856D01*
X462637Y610873D01*
X462725Y610895D01*
X462813Y610921D01*
X462899Y610950D01*
X462984Y610983D01*
X463067Y611020D01*
X463149Y611060D01*
X463229Y611104D01*
X463307Y611151D01*
X463383Y611202D01*
X463456Y611255D01*
X463527Y611312D01*
X463596Y611373D01*
X463661Y611436D01*
X463724Y611501D01*
X463784Y611570D01*
X463842Y611641D01*
X463895Y611714D01*
X463946Y611790D01*
X463993Y611868D01*
X464037Y611948D01*
X464077Y612030D01*
X464114Y612113D01*
X464147Y612198D01*
X464176Y612284D01*
X464202Y612372D01*
X464224Y612460D01*
X464241Y612549D01*
X464255Y612639D01*
X464265Y612730D01*
X464271Y612821D01*
X464273Y612912D01*
X464273Y615000D01*
X454875Y618469D02*
X454875Y621079D01*
X454877Y621180D01*
X454883Y621281D01*
X454893Y621382D01*
X454906Y621482D01*
X454924Y621582D01*
X454945Y621681D01*
X454971Y621779D01*
X455000Y621876D01*
X455032Y621972D01*
X455069Y622066D01*
X455109Y622159D01*
X455153Y622251D01*
X455200Y622340D01*
X455251Y622428D01*
X455305Y622514D01*
X455362Y622597D01*
X455422Y622679D01*
X455486Y622757D01*
X455552Y622834D01*
X455622Y622907D01*
X455694Y622978D01*
X455769Y623046D01*
X455847Y623111D01*
X455927Y623173D01*
X456009Y623232D01*
X456094Y623288D01*
X456181Y623340D01*
X456269Y623389D01*
X456360Y623435D01*
X456452Y623476D01*
X456546Y623515D01*
X456641Y623549D01*
X456737Y623580D01*
X456835Y623607D01*
X456933Y623631D01*
X457033Y623650D01*
X457133Y623666D01*
X457233Y623678D01*
X457334Y623686D01*
X457435Y623690D01*
X457537Y623690D01*
X457638Y623686D01*
X457739Y623678D01*
X457839Y623666D01*
X457939Y623650D01*
X458039Y623631D01*
X458137Y623607D01*
X458235Y623580D01*
X458331Y623549D01*
X458426Y623515D01*
X458520Y623476D01*
X458612Y623435D01*
X458703Y623389D01*
X458792Y623340D01*
X458878Y623288D01*
X458963Y623232D01*
X459045Y623173D01*
X459125Y623111D01*
X459203Y623046D01*
X459278Y622978D01*
X459350Y622907D01*
X459420Y622834D01*
X459486Y622757D01*
X459550Y622679D01*
X459610Y622597D01*
X459667Y622514D01*
X459721Y622428D01*
X459772Y622340D01*
X459819Y622251D01*
X459863Y622159D01*
X459903Y622066D01*
X459940Y621972D01*
X459972Y621876D01*
X460001Y621779D01*
X460027Y621681D01*
X460048Y621582D01*
X460066Y621482D01*
X460079Y621382D01*
X460089Y621281D01*
X460095Y621180D01*
X460097Y621079D01*
X464273Y621602D02*
X464273Y618469D01*
X464273Y621602D02*
X464271Y621692D01*
X464265Y621781D01*
X464256Y621871D01*
X464242Y621960D01*
X464225Y622048D01*
X464204Y622135D01*
X464179Y622222D01*
X464150Y622307D01*
X464118Y622391D01*
X464083Y622473D01*
X464043Y622554D01*
X464001Y622633D01*
X463955Y622710D01*
X463905Y622785D01*
X463853Y622858D01*
X463797Y622929D01*
X463739Y622997D01*
X463677Y623062D01*
X463613Y623125D01*
X463546Y623185D01*
X463477Y623242D01*
X463405Y623296D01*
X463331Y623347D01*
X463255Y623395D01*
X463177Y623439D01*
X463097Y623480D01*
X463015Y623518D01*
X462932Y623552D01*
X462847Y623582D01*
X462761Y623609D01*
X462675Y623632D01*
X462587Y623651D01*
X462498Y623666D01*
X462409Y623678D01*
X462320Y623686D01*
X462230Y623690D01*
X462140Y623690D01*
X462050Y623686D01*
X461961Y623678D01*
X461872Y623666D01*
X461783Y623651D01*
X461695Y623632D01*
X461609Y623609D01*
X461523Y623582D01*
X461438Y623552D01*
X461355Y623518D01*
X461273Y623480D01*
X461193Y623439D01*
X461115Y623395D01*
X461039Y623347D01*
X460965Y623296D01*
X460893Y623242D01*
X460824Y623185D01*
X460757Y623125D01*
X460693Y623062D01*
X460631Y622997D01*
X460573Y622929D01*
X460517Y622858D01*
X460465Y622785D01*
X460415Y622710D01*
X460369Y622633D01*
X460327Y622554D01*
X460287Y622473D01*
X460252Y622391D01*
X460220Y622307D01*
X460191Y622222D01*
X460166Y622135D01*
X460145Y622048D01*
X460128Y621960D01*
X460114Y621871D01*
X460105Y621781D01*
X460099Y621692D01*
X460097Y621602D01*
X460096Y621602D02*
X460096Y619513D01*
D12*
X563092Y652093D02*
X563092Y663777D01*
X559846Y663777D01*
X559733Y663775D01*
X559620Y663769D01*
X559507Y663759D01*
X559394Y663745D01*
X559282Y663728D01*
X559171Y663706D01*
X559061Y663681D01*
X558951Y663651D01*
X558843Y663618D01*
X558736Y663581D01*
X558630Y663541D01*
X558526Y663496D01*
X558423Y663448D01*
X558322Y663397D01*
X558223Y663342D01*
X558126Y663284D01*
X558031Y663222D01*
X557938Y663157D01*
X557848Y663089D01*
X557760Y663018D01*
X557674Y662943D01*
X557591Y662866D01*
X557511Y662786D01*
X557434Y662703D01*
X557359Y662617D01*
X557288Y662529D01*
X557220Y662439D01*
X557155Y662346D01*
X557093Y662251D01*
X557035Y662154D01*
X556980Y662055D01*
X556929Y661954D01*
X556881Y661851D01*
X556836Y661747D01*
X556796Y661641D01*
X556759Y661534D01*
X556726Y661426D01*
X556696Y661316D01*
X556671Y661206D01*
X556649Y661095D01*
X556632Y660983D01*
X556618Y660870D01*
X556608Y660757D01*
X556602Y660644D01*
X556600Y660531D01*
X556602Y660418D01*
X556608Y660305D01*
X556618Y660192D01*
X556632Y660079D01*
X556649Y659967D01*
X556671Y659856D01*
X556696Y659746D01*
X556726Y659636D01*
X556759Y659528D01*
X556796Y659421D01*
X556836Y659315D01*
X556881Y659211D01*
X556929Y659108D01*
X556980Y659007D01*
X557035Y658908D01*
X557093Y658811D01*
X557155Y658716D01*
X557220Y658623D01*
X557288Y658533D01*
X557359Y658445D01*
X557434Y658359D01*
X557511Y658276D01*
X557591Y658196D01*
X557674Y658119D01*
X557760Y658044D01*
X557848Y657973D01*
X557938Y657905D01*
X558031Y657840D01*
X558126Y657778D01*
X558223Y657720D01*
X558322Y657665D01*
X558423Y657614D01*
X558526Y657566D01*
X558630Y657521D01*
X558736Y657481D01*
X558843Y657444D01*
X558951Y657411D01*
X559061Y657381D01*
X559171Y657356D01*
X559282Y657334D01*
X559394Y657317D01*
X559507Y657303D01*
X559620Y657293D01*
X559733Y657287D01*
X559846Y657285D01*
X559846Y657286D02*
X563092Y657286D01*
X559197Y657286D02*
X556601Y652093D01*
X551736Y662479D02*
X551736Y663777D01*
X545245Y663777D01*
X548490Y652093D01*
X563325Y631404D02*
X563325Y619720D01*
X563325Y631404D02*
X560080Y631404D01*
X560080Y631405D02*
X559967Y631403D01*
X559854Y631397D01*
X559741Y631387D01*
X559628Y631373D01*
X559516Y631356D01*
X559405Y631334D01*
X559295Y631309D01*
X559185Y631279D01*
X559077Y631246D01*
X558970Y631209D01*
X558864Y631169D01*
X558760Y631124D01*
X558657Y631076D01*
X558556Y631025D01*
X558457Y630970D01*
X558360Y630912D01*
X558265Y630850D01*
X558172Y630785D01*
X558082Y630717D01*
X557994Y630646D01*
X557908Y630571D01*
X557825Y630494D01*
X557745Y630414D01*
X557668Y630331D01*
X557593Y630245D01*
X557522Y630157D01*
X557454Y630067D01*
X557389Y629974D01*
X557327Y629879D01*
X557269Y629782D01*
X557214Y629683D01*
X557163Y629582D01*
X557115Y629479D01*
X557070Y629375D01*
X557030Y629269D01*
X556993Y629162D01*
X556960Y629054D01*
X556930Y628944D01*
X556905Y628834D01*
X556883Y628723D01*
X556866Y628611D01*
X556852Y628498D01*
X556842Y628385D01*
X556836Y628272D01*
X556834Y628159D01*
X556836Y628046D01*
X556842Y627933D01*
X556852Y627820D01*
X556866Y627707D01*
X556883Y627595D01*
X556905Y627484D01*
X556930Y627374D01*
X556960Y627264D01*
X556993Y627156D01*
X557030Y627049D01*
X557070Y626943D01*
X557115Y626839D01*
X557163Y626736D01*
X557214Y626635D01*
X557269Y626536D01*
X557327Y626439D01*
X557389Y626344D01*
X557454Y626251D01*
X557522Y626161D01*
X557593Y626073D01*
X557668Y625987D01*
X557745Y625904D01*
X557825Y625824D01*
X557908Y625747D01*
X557994Y625672D01*
X558082Y625601D01*
X558172Y625533D01*
X558265Y625468D01*
X558360Y625406D01*
X558457Y625348D01*
X558556Y625293D01*
X558657Y625242D01*
X558760Y625194D01*
X558864Y625149D01*
X558970Y625109D01*
X559077Y625072D01*
X559185Y625039D01*
X559295Y625009D01*
X559405Y624984D01*
X559516Y624962D01*
X559628Y624945D01*
X559741Y624931D01*
X559854Y624921D01*
X559967Y624915D01*
X560080Y624913D01*
X563325Y624913D01*
X559431Y624913D02*
X556834Y619720D01*
X551969Y622966D02*
X551967Y623079D01*
X551961Y623192D01*
X551951Y623305D01*
X551937Y623418D01*
X551920Y623530D01*
X551898Y623641D01*
X551873Y623751D01*
X551843Y623861D01*
X551810Y623969D01*
X551773Y624076D01*
X551733Y624182D01*
X551688Y624286D01*
X551640Y624389D01*
X551589Y624490D01*
X551534Y624589D01*
X551476Y624686D01*
X551414Y624781D01*
X551349Y624874D01*
X551281Y624964D01*
X551210Y625052D01*
X551135Y625138D01*
X551058Y625221D01*
X550978Y625301D01*
X550895Y625378D01*
X550809Y625453D01*
X550721Y625524D01*
X550631Y625592D01*
X550538Y625657D01*
X550443Y625719D01*
X550346Y625777D01*
X550247Y625832D01*
X550146Y625883D01*
X550043Y625931D01*
X549939Y625976D01*
X549833Y626016D01*
X549726Y626053D01*
X549618Y626086D01*
X549508Y626116D01*
X549398Y626141D01*
X549287Y626163D01*
X549175Y626180D01*
X549062Y626194D01*
X548949Y626204D01*
X548836Y626210D01*
X548723Y626212D01*
X548610Y626210D01*
X548497Y626204D01*
X548384Y626194D01*
X548271Y626180D01*
X548159Y626163D01*
X548048Y626141D01*
X547938Y626116D01*
X547828Y626086D01*
X547720Y626053D01*
X547613Y626016D01*
X547507Y625976D01*
X547403Y625931D01*
X547300Y625883D01*
X547199Y625832D01*
X547100Y625777D01*
X547003Y625719D01*
X546908Y625657D01*
X546815Y625592D01*
X546725Y625524D01*
X546637Y625453D01*
X546551Y625378D01*
X546468Y625301D01*
X546388Y625221D01*
X546311Y625138D01*
X546236Y625052D01*
X546165Y624964D01*
X546097Y624874D01*
X546032Y624781D01*
X545970Y624686D01*
X545912Y624589D01*
X545857Y624490D01*
X545806Y624389D01*
X545758Y624286D01*
X545713Y624182D01*
X545673Y624076D01*
X545636Y623969D01*
X545603Y623861D01*
X545573Y623751D01*
X545548Y623641D01*
X545526Y623530D01*
X545509Y623418D01*
X545495Y623305D01*
X545485Y623192D01*
X545479Y623079D01*
X545477Y622966D01*
X545479Y622853D01*
X545485Y622740D01*
X545495Y622627D01*
X545509Y622514D01*
X545526Y622402D01*
X545548Y622291D01*
X545573Y622181D01*
X545603Y622071D01*
X545636Y621963D01*
X545673Y621856D01*
X545713Y621750D01*
X545758Y621646D01*
X545806Y621543D01*
X545857Y621442D01*
X545912Y621343D01*
X545970Y621246D01*
X546032Y621151D01*
X546097Y621058D01*
X546165Y620968D01*
X546236Y620880D01*
X546311Y620794D01*
X546388Y620711D01*
X546468Y620631D01*
X546551Y620554D01*
X546637Y620479D01*
X546725Y620408D01*
X546815Y620340D01*
X546908Y620275D01*
X547003Y620213D01*
X547100Y620155D01*
X547199Y620100D01*
X547300Y620049D01*
X547403Y620001D01*
X547507Y619956D01*
X547613Y619916D01*
X547720Y619879D01*
X547828Y619846D01*
X547938Y619816D01*
X548048Y619791D01*
X548159Y619769D01*
X548271Y619752D01*
X548384Y619738D01*
X548497Y619728D01*
X548610Y619722D01*
X548723Y619720D01*
X548836Y619722D01*
X548949Y619728D01*
X549062Y619738D01*
X549175Y619752D01*
X549287Y619769D01*
X549398Y619791D01*
X549508Y619816D01*
X549618Y619846D01*
X549726Y619879D01*
X549833Y619916D01*
X549939Y619956D01*
X550043Y620001D01*
X550146Y620049D01*
X550247Y620100D01*
X550346Y620155D01*
X550443Y620213D01*
X550538Y620275D01*
X550631Y620340D01*
X550721Y620408D01*
X550809Y620479D01*
X550895Y620554D01*
X550978Y620631D01*
X551058Y620711D01*
X551135Y620794D01*
X551210Y620880D01*
X551281Y620968D01*
X551349Y621058D01*
X551414Y621151D01*
X551476Y621246D01*
X551534Y621343D01*
X551589Y621442D01*
X551640Y621543D01*
X551688Y621646D01*
X551733Y621750D01*
X551773Y621856D01*
X551810Y621963D01*
X551843Y622071D01*
X551873Y622181D01*
X551898Y622291D01*
X551920Y622402D01*
X551937Y622514D01*
X551951Y622627D01*
X551961Y622740D01*
X551967Y622853D01*
X551969Y622966D01*
X551319Y628808D02*
X551317Y628909D01*
X551311Y629009D01*
X551301Y629109D01*
X551288Y629209D01*
X551270Y629308D01*
X551249Y629407D01*
X551224Y629504D01*
X551195Y629601D01*
X551162Y629696D01*
X551126Y629790D01*
X551086Y629882D01*
X551043Y629973D01*
X550996Y630062D01*
X550946Y630149D01*
X550892Y630235D01*
X550835Y630318D01*
X550775Y630398D01*
X550712Y630477D01*
X550645Y630553D01*
X550576Y630626D01*
X550504Y630696D01*
X550430Y630764D01*
X550353Y630829D01*
X550273Y630890D01*
X550191Y630949D01*
X550107Y631004D01*
X550021Y631056D01*
X549933Y631105D01*
X549843Y631150D01*
X549751Y631192D01*
X549658Y631230D01*
X549563Y631264D01*
X549468Y631295D01*
X549371Y631322D01*
X549273Y631345D01*
X549174Y631365D01*
X549074Y631380D01*
X548974Y631392D01*
X548874Y631400D01*
X548773Y631404D01*
X548673Y631404D01*
X548572Y631400D01*
X548472Y631392D01*
X548372Y631380D01*
X548272Y631365D01*
X548173Y631345D01*
X548075Y631322D01*
X547978Y631295D01*
X547883Y631264D01*
X547788Y631230D01*
X547695Y631192D01*
X547603Y631150D01*
X547513Y631105D01*
X547425Y631056D01*
X547339Y631004D01*
X547255Y630949D01*
X547173Y630890D01*
X547093Y630829D01*
X547016Y630764D01*
X546942Y630696D01*
X546870Y630626D01*
X546801Y630553D01*
X546734Y630477D01*
X546671Y630398D01*
X546611Y630318D01*
X546554Y630235D01*
X546500Y630149D01*
X546450Y630062D01*
X546403Y629973D01*
X546360Y629882D01*
X546320Y629790D01*
X546284Y629696D01*
X546251Y629601D01*
X546222Y629504D01*
X546197Y629407D01*
X546176Y629308D01*
X546158Y629209D01*
X546145Y629109D01*
X546135Y629009D01*
X546129Y628909D01*
X546127Y628808D01*
X546129Y628707D01*
X546135Y628607D01*
X546145Y628507D01*
X546158Y628407D01*
X546176Y628308D01*
X546197Y628209D01*
X546222Y628112D01*
X546251Y628015D01*
X546284Y627920D01*
X546320Y627826D01*
X546360Y627734D01*
X546403Y627643D01*
X546450Y627554D01*
X546500Y627467D01*
X546554Y627381D01*
X546611Y627298D01*
X546671Y627218D01*
X546734Y627139D01*
X546801Y627063D01*
X546870Y626990D01*
X546942Y626920D01*
X547016Y626852D01*
X547093Y626787D01*
X547173Y626726D01*
X547255Y626667D01*
X547339Y626612D01*
X547425Y626560D01*
X547513Y626511D01*
X547603Y626466D01*
X547695Y626424D01*
X547788Y626386D01*
X547883Y626352D01*
X547978Y626321D01*
X548075Y626294D01*
X548173Y626271D01*
X548272Y626251D01*
X548372Y626236D01*
X548472Y626224D01*
X548572Y626216D01*
X548673Y626212D01*
X548773Y626212D01*
X548874Y626216D01*
X548974Y626224D01*
X549074Y626236D01*
X549174Y626251D01*
X549273Y626271D01*
X549371Y626294D01*
X549468Y626321D01*
X549563Y626352D01*
X549658Y626386D01*
X549751Y626424D01*
X549843Y626466D01*
X549933Y626511D01*
X550021Y626560D01*
X550107Y626612D01*
X550191Y626667D01*
X550273Y626726D01*
X550353Y626787D01*
X550430Y626852D01*
X550504Y626920D01*
X550576Y626990D01*
X550645Y627063D01*
X550712Y627139D01*
X550775Y627218D01*
X550835Y627298D01*
X550892Y627381D01*
X550946Y627467D01*
X550996Y627554D01*
X551043Y627643D01*
X551086Y627734D01*
X551126Y627826D01*
X551162Y627920D01*
X551195Y628015D01*
X551224Y628112D01*
X551249Y628209D01*
X551270Y628308D01*
X551288Y628407D01*
X551301Y628507D01*
X551311Y628607D01*
X551317Y628707D01*
X551319Y628808D01*
X555498Y812860D02*
X567182Y812860D01*
X567182Y816105D01*
X567180Y816218D01*
X567174Y816331D01*
X567164Y816444D01*
X567150Y816557D01*
X567133Y816669D01*
X567111Y816780D01*
X567086Y816890D01*
X567056Y817000D01*
X567023Y817108D01*
X566986Y817215D01*
X566946Y817321D01*
X566901Y817425D01*
X566853Y817528D01*
X566802Y817629D01*
X566747Y817728D01*
X566689Y817825D01*
X566627Y817920D01*
X566562Y818013D01*
X566494Y818103D01*
X566423Y818191D01*
X566348Y818277D01*
X566271Y818360D01*
X566191Y818440D01*
X566108Y818517D01*
X566022Y818592D01*
X565934Y818663D01*
X565844Y818731D01*
X565751Y818796D01*
X565656Y818858D01*
X565559Y818916D01*
X565460Y818971D01*
X565359Y819022D01*
X565256Y819070D01*
X565152Y819115D01*
X565046Y819155D01*
X564939Y819192D01*
X564831Y819225D01*
X564721Y819255D01*
X564611Y819280D01*
X564500Y819302D01*
X564388Y819319D01*
X564275Y819333D01*
X564162Y819343D01*
X564049Y819349D01*
X563936Y819351D01*
X563823Y819349D01*
X563710Y819343D01*
X563597Y819333D01*
X563484Y819319D01*
X563372Y819302D01*
X563261Y819280D01*
X563151Y819255D01*
X563041Y819225D01*
X562933Y819192D01*
X562826Y819155D01*
X562720Y819115D01*
X562616Y819070D01*
X562513Y819022D01*
X562412Y818971D01*
X562313Y818916D01*
X562216Y818858D01*
X562121Y818796D01*
X562028Y818731D01*
X561938Y818663D01*
X561850Y818592D01*
X561764Y818517D01*
X561681Y818440D01*
X561601Y818360D01*
X561524Y818277D01*
X561449Y818191D01*
X561378Y818103D01*
X561310Y818013D01*
X561245Y817920D01*
X561183Y817825D01*
X561125Y817728D01*
X561070Y817629D01*
X561019Y817528D01*
X560971Y817425D01*
X560926Y817321D01*
X560886Y817215D01*
X560849Y817108D01*
X560816Y817000D01*
X560786Y816890D01*
X560761Y816780D01*
X560739Y816669D01*
X560722Y816557D01*
X560708Y816444D01*
X560698Y816331D01*
X560692Y816218D01*
X560690Y816105D01*
X560691Y816105D02*
X560691Y812860D01*
X560691Y816754D02*
X555498Y819351D01*
X564586Y824216D02*
X567182Y827461D01*
X555498Y827461D01*
X555498Y824216D02*
X555498Y830707D01*
X554228Y727135D02*
X565912Y727135D01*
X565912Y730380D01*
X565910Y730493D01*
X565904Y730606D01*
X565894Y730719D01*
X565880Y730832D01*
X565863Y730944D01*
X565841Y731055D01*
X565816Y731165D01*
X565786Y731275D01*
X565753Y731383D01*
X565716Y731490D01*
X565676Y731596D01*
X565631Y731700D01*
X565583Y731803D01*
X565532Y731904D01*
X565477Y732003D01*
X565419Y732100D01*
X565357Y732195D01*
X565292Y732288D01*
X565224Y732378D01*
X565153Y732466D01*
X565078Y732552D01*
X565001Y732635D01*
X564921Y732715D01*
X564838Y732792D01*
X564752Y732867D01*
X564664Y732938D01*
X564574Y733006D01*
X564481Y733071D01*
X564386Y733133D01*
X564289Y733191D01*
X564190Y733246D01*
X564089Y733297D01*
X563986Y733345D01*
X563882Y733390D01*
X563776Y733430D01*
X563669Y733467D01*
X563561Y733500D01*
X563451Y733530D01*
X563341Y733555D01*
X563230Y733577D01*
X563118Y733594D01*
X563005Y733608D01*
X562892Y733618D01*
X562779Y733624D01*
X562666Y733626D01*
X562553Y733624D01*
X562440Y733618D01*
X562327Y733608D01*
X562214Y733594D01*
X562102Y733577D01*
X561991Y733555D01*
X561881Y733530D01*
X561771Y733500D01*
X561663Y733467D01*
X561556Y733430D01*
X561450Y733390D01*
X561346Y733345D01*
X561243Y733297D01*
X561142Y733246D01*
X561043Y733191D01*
X560946Y733133D01*
X560851Y733071D01*
X560758Y733006D01*
X560668Y732938D01*
X560580Y732867D01*
X560494Y732792D01*
X560411Y732715D01*
X560331Y732635D01*
X560254Y732552D01*
X560179Y732466D01*
X560108Y732378D01*
X560040Y732288D01*
X559975Y732195D01*
X559913Y732100D01*
X559855Y732003D01*
X559800Y731904D01*
X559749Y731803D01*
X559701Y731700D01*
X559656Y731596D01*
X559616Y731490D01*
X559579Y731383D01*
X559546Y731275D01*
X559516Y731165D01*
X559491Y731055D01*
X559469Y730944D01*
X559452Y730832D01*
X559438Y730719D01*
X559428Y730606D01*
X559422Y730493D01*
X559420Y730380D01*
X559421Y730380D02*
X559421Y727135D01*
X559421Y731029D02*
X554228Y733626D01*
X562991Y744982D02*
X563098Y744980D01*
X563204Y744974D01*
X563310Y744964D01*
X563416Y744951D01*
X563522Y744933D01*
X563626Y744912D01*
X563730Y744887D01*
X563833Y744858D01*
X563934Y744826D01*
X564034Y744789D01*
X564133Y744749D01*
X564231Y744706D01*
X564327Y744659D01*
X564421Y744608D01*
X564513Y744554D01*
X564603Y744497D01*
X564691Y744437D01*
X564776Y744373D01*
X564859Y744306D01*
X564940Y744236D01*
X565018Y744164D01*
X565094Y744088D01*
X565166Y744010D01*
X565236Y743929D01*
X565303Y743846D01*
X565367Y743761D01*
X565427Y743673D01*
X565484Y743583D01*
X565538Y743491D01*
X565589Y743397D01*
X565636Y743301D01*
X565679Y743203D01*
X565719Y743104D01*
X565756Y743004D01*
X565788Y742903D01*
X565817Y742800D01*
X565842Y742696D01*
X565863Y742592D01*
X565881Y742486D01*
X565894Y742380D01*
X565904Y742274D01*
X565910Y742168D01*
X565912Y742061D01*
X565910Y741940D01*
X565904Y741819D01*
X565894Y741699D01*
X565881Y741578D01*
X565863Y741459D01*
X565842Y741339D01*
X565817Y741221D01*
X565788Y741104D01*
X565755Y740987D01*
X565719Y740872D01*
X565678Y740758D01*
X565635Y740645D01*
X565587Y740533D01*
X565536Y740424D01*
X565481Y740316D01*
X565423Y740209D01*
X565362Y740105D01*
X565297Y740003D01*
X565229Y739903D01*
X565158Y739805D01*
X565084Y739709D01*
X565007Y739616D01*
X564926Y739526D01*
X564843Y739438D01*
X564757Y739353D01*
X564668Y739270D01*
X564577Y739191D01*
X564483Y739114D01*
X564387Y739041D01*
X564289Y738971D01*
X564188Y738904D01*
X564085Y738840D01*
X563980Y738780D01*
X563873Y738723D01*
X563765Y738669D01*
X563655Y738619D01*
X563543Y738573D01*
X563430Y738530D01*
X563315Y738491D01*
X560719Y744009D02*
X560796Y744088D01*
X560877Y744164D01*
X560960Y744237D01*
X561045Y744307D01*
X561133Y744374D01*
X561223Y744438D01*
X561315Y744498D01*
X561410Y744555D01*
X561506Y744609D01*
X561604Y744660D01*
X561704Y744707D01*
X561806Y744751D01*
X561909Y744791D01*
X562013Y744827D01*
X562119Y744859D01*
X562225Y744888D01*
X562333Y744913D01*
X562441Y744935D01*
X562551Y744952D01*
X562660Y744966D01*
X562770Y744975D01*
X562881Y744981D01*
X562991Y744983D01*
X560719Y744008D02*
X554228Y738491D01*
X554228Y744982D01*
X575818Y722503D02*
X587502Y722503D01*
X587502Y725749D01*
X587500Y725862D01*
X587494Y725975D01*
X587484Y726088D01*
X587470Y726201D01*
X587453Y726313D01*
X587431Y726424D01*
X587406Y726534D01*
X587376Y726644D01*
X587343Y726752D01*
X587306Y726859D01*
X587266Y726965D01*
X587221Y727069D01*
X587173Y727172D01*
X587122Y727273D01*
X587067Y727372D01*
X587009Y727469D01*
X586947Y727564D01*
X586882Y727657D01*
X586814Y727747D01*
X586743Y727835D01*
X586668Y727921D01*
X586591Y728004D01*
X586511Y728084D01*
X586428Y728161D01*
X586342Y728236D01*
X586254Y728307D01*
X586164Y728375D01*
X586071Y728440D01*
X585976Y728502D01*
X585879Y728560D01*
X585780Y728615D01*
X585679Y728666D01*
X585576Y728714D01*
X585472Y728759D01*
X585366Y728799D01*
X585259Y728836D01*
X585151Y728869D01*
X585041Y728899D01*
X584931Y728924D01*
X584820Y728946D01*
X584708Y728963D01*
X584595Y728977D01*
X584482Y728987D01*
X584369Y728993D01*
X584256Y728995D01*
X584143Y728993D01*
X584030Y728987D01*
X583917Y728977D01*
X583804Y728963D01*
X583692Y728946D01*
X583581Y728924D01*
X583471Y728899D01*
X583361Y728869D01*
X583253Y728836D01*
X583146Y728799D01*
X583040Y728759D01*
X582936Y728714D01*
X582833Y728666D01*
X582732Y728615D01*
X582633Y728560D01*
X582536Y728502D01*
X582441Y728440D01*
X582348Y728375D01*
X582258Y728307D01*
X582170Y728236D01*
X582084Y728161D01*
X582001Y728084D01*
X581921Y728004D01*
X581844Y727921D01*
X581769Y727835D01*
X581698Y727747D01*
X581630Y727657D01*
X581565Y727564D01*
X581503Y727469D01*
X581445Y727372D01*
X581390Y727273D01*
X581339Y727172D01*
X581291Y727069D01*
X581246Y726965D01*
X581206Y726859D01*
X581169Y726752D01*
X581136Y726644D01*
X581106Y726534D01*
X581081Y726424D01*
X581059Y726313D01*
X581042Y726201D01*
X581028Y726088D01*
X581018Y725975D01*
X581012Y725862D01*
X581010Y725749D01*
X581011Y725749D02*
X581011Y722503D01*
X581011Y726398D02*
X575818Y728994D01*
X575818Y733859D02*
X575818Y737105D01*
X575820Y737218D01*
X575826Y737331D01*
X575836Y737444D01*
X575850Y737557D01*
X575867Y737669D01*
X575889Y737780D01*
X575914Y737890D01*
X575944Y738000D01*
X575977Y738108D01*
X576014Y738215D01*
X576054Y738321D01*
X576099Y738425D01*
X576147Y738528D01*
X576198Y738629D01*
X576253Y738728D01*
X576311Y738825D01*
X576373Y738920D01*
X576438Y739013D01*
X576506Y739103D01*
X576577Y739191D01*
X576652Y739277D01*
X576729Y739360D01*
X576809Y739440D01*
X576892Y739517D01*
X576978Y739592D01*
X577066Y739663D01*
X577156Y739731D01*
X577249Y739796D01*
X577344Y739858D01*
X577441Y739916D01*
X577540Y739971D01*
X577641Y740022D01*
X577744Y740070D01*
X577848Y740115D01*
X577954Y740155D01*
X578061Y740192D01*
X578169Y740225D01*
X578279Y740255D01*
X578389Y740280D01*
X578500Y740302D01*
X578612Y740319D01*
X578725Y740333D01*
X578838Y740343D01*
X578951Y740349D01*
X579064Y740351D01*
X579177Y740349D01*
X579290Y740343D01*
X579403Y740333D01*
X579516Y740319D01*
X579628Y740302D01*
X579739Y740280D01*
X579849Y740255D01*
X579959Y740225D01*
X580067Y740192D01*
X580174Y740155D01*
X580280Y740115D01*
X580384Y740070D01*
X580487Y740022D01*
X580588Y739971D01*
X580687Y739916D01*
X580784Y739858D01*
X580879Y739796D01*
X580972Y739731D01*
X581062Y739663D01*
X581150Y739592D01*
X581236Y739517D01*
X581319Y739440D01*
X581399Y739360D01*
X581476Y739277D01*
X581551Y739191D01*
X581622Y739103D01*
X581690Y739013D01*
X581755Y738920D01*
X581817Y738825D01*
X581875Y738728D01*
X581930Y738629D01*
X581981Y738528D01*
X582029Y738425D01*
X582074Y738321D01*
X582114Y738215D01*
X582151Y738108D01*
X582184Y738000D01*
X582214Y737890D01*
X582239Y737780D01*
X582261Y737669D01*
X582278Y737557D01*
X582292Y737444D01*
X582302Y737331D01*
X582308Y737218D01*
X582310Y737105D01*
X587502Y737754D02*
X587502Y733859D01*
X587502Y737754D02*
X587500Y737855D01*
X587494Y737955D01*
X587484Y738055D01*
X587471Y738155D01*
X587453Y738254D01*
X587432Y738353D01*
X587407Y738450D01*
X587378Y738547D01*
X587345Y738642D01*
X587309Y738736D01*
X587269Y738828D01*
X587226Y738919D01*
X587179Y739008D01*
X587129Y739095D01*
X587075Y739181D01*
X587018Y739264D01*
X586958Y739344D01*
X586895Y739423D01*
X586828Y739499D01*
X586759Y739572D01*
X586687Y739642D01*
X586613Y739710D01*
X586536Y739775D01*
X586456Y739836D01*
X586374Y739895D01*
X586290Y739950D01*
X586204Y740002D01*
X586116Y740051D01*
X586026Y740096D01*
X585934Y740138D01*
X585841Y740176D01*
X585746Y740210D01*
X585651Y740241D01*
X585554Y740268D01*
X585456Y740291D01*
X585357Y740311D01*
X585257Y740326D01*
X585157Y740338D01*
X585057Y740346D01*
X584956Y740350D01*
X584856Y740350D01*
X584755Y740346D01*
X584655Y740338D01*
X584555Y740326D01*
X584455Y740311D01*
X584356Y740291D01*
X584258Y740268D01*
X584161Y740241D01*
X584066Y740210D01*
X583971Y740176D01*
X583878Y740138D01*
X583786Y740096D01*
X583696Y740051D01*
X583608Y740002D01*
X583522Y739950D01*
X583438Y739895D01*
X583356Y739836D01*
X583276Y739775D01*
X583199Y739710D01*
X583125Y739642D01*
X583053Y739572D01*
X582984Y739499D01*
X582917Y739423D01*
X582854Y739344D01*
X582794Y739264D01*
X582737Y739181D01*
X582683Y739095D01*
X582633Y739008D01*
X582586Y738919D01*
X582543Y738828D01*
X582503Y738736D01*
X582467Y738642D01*
X582434Y738547D01*
X582405Y738450D01*
X582380Y738353D01*
X582359Y738254D01*
X582341Y738155D01*
X582328Y738055D01*
X582318Y737955D01*
X582312Y737855D01*
X582310Y737754D01*
X582309Y737754D02*
X582309Y735158D01*
X579628Y808228D02*
X591312Y808228D01*
X591312Y811474D01*
X591310Y811587D01*
X591304Y811700D01*
X591294Y811813D01*
X591280Y811926D01*
X591263Y812038D01*
X591241Y812149D01*
X591216Y812259D01*
X591186Y812369D01*
X591153Y812477D01*
X591116Y812584D01*
X591076Y812690D01*
X591031Y812794D01*
X590983Y812897D01*
X590932Y812998D01*
X590877Y813097D01*
X590819Y813194D01*
X590757Y813289D01*
X590692Y813382D01*
X590624Y813472D01*
X590553Y813560D01*
X590478Y813646D01*
X590401Y813729D01*
X590321Y813809D01*
X590238Y813886D01*
X590152Y813961D01*
X590064Y814032D01*
X589974Y814100D01*
X589881Y814165D01*
X589786Y814227D01*
X589689Y814285D01*
X589590Y814340D01*
X589489Y814391D01*
X589386Y814439D01*
X589282Y814484D01*
X589176Y814524D01*
X589069Y814561D01*
X588961Y814594D01*
X588851Y814624D01*
X588741Y814649D01*
X588630Y814671D01*
X588518Y814688D01*
X588405Y814702D01*
X588292Y814712D01*
X588179Y814718D01*
X588066Y814720D01*
X587953Y814718D01*
X587840Y814712D01*
X587727Y814702D01*
X587614Y814688D01*
X587502Y814671D01*
X587391Y814649D01*
X587281Y814624D01*
X587171Y814594D01*
X587063Y814561D01*
X586956Y814524D01*
X586850Y814484D01*
X586746Y814439D01*
X586643Y814391D01*
X586542Y814340D01*
X586443Y814285D01*
X586346Y814227D01*
X586251Y814165D01*
X586158Y814100D01*
X586068Y814032D01*
X585980Y813961D01*
X585894Y813886D01*
X585811Y813809D01*
X585731Y813729D01*
X585654Y813646D01*
X585579Y813560D01*
X585508Y813472D01*
X585440Y813382D01*
X585375Y813289D01*
X585313Y813194D01*
X585255Y813097D01*
X585200Y812998D01*
X585149Y812897D01*
X585101Y812794D01*
X585056Y812690D01*
X585016Y812584D01*
X584979Y812477D01*
X584946Y812369D01*
X584916Y812259D01*
X584891Y812149D01*
X584869Y812038D01*
X584852Y811926D01*
X584838Y811813D01*
X584828Y811700D01*
X584822Y811587D01*
X584820Y811474D01*
X584821Y811474D02*
X584821Y808228D01*
X584821Y812123D02*
X579628Y814719D01*
X582224Y819584D02*
X591312Y822181D01*
X582224Y819584D02*
X582224Y826075D01*
X584821Y824128D02*
X579628Y824128D01*
D13*
X534556Y731814D02*
X534556Y729726D01*
X534558Y729637D01*
X534564Y729549D01*
X534573Y729461D01*
X534586Y729373D01*
X534603Y729286D01*
X534623Y729200D01*
X534648Y729115D01*
X534675Y729030D01*
X534707Y728947D01*
X534741Y728866D01*
X534780Y728786D01*
X534821Y728708D01*
X534866Y728631D01*
X534914Y728557D01*
X534965Y728484D01*
X535019Y728414D01*
X535077Y728347D01*
X535137Y728281D01*
X535199Y728219D01*
X535265Y728159D01*
X535332Y728101D01*
X535402Y728047D01*
X535475Y727996D01*
X535549Y727948D01*
X535626Y727903D01*
X535704Y727862D01*
X535784Y727823D01*
X535865Y727789D01*
X535948Y727757D01*
X536033Y727730D01*
X536118Y727705D01*
X536204Y727685D01*
X536291Y727668D01*
X536379Y727655D01*
X536467Y727646D01*
X536555Y727640D01*
X536644Y727638D01*
X536644Y727637D02*
X541866Y727637D01*
X541866Y727638D02*
X541957Y727640D01*
X542048Y727646D01*
X542139Y727656D01*
X542229Y727670D01*
X542318Y727687D01*
X542406Y727709D01*
X542494Y727735D01*
X542580Y727764D01*
X542665Y727797D01*
X542748Y727834D01*
X542830Y727874D01*
X542910Y727918D01*
X542988Y727965D01*
X543064Y728016D01*
X543137Y728069D01*
X543208Y728126D01*
X543277Y728187D01*
X543342Y728250D01*
X543405Y728315D01*
X543465Y728384D01*
X543523Y728455D01*
X543576Y728528D01*
X543627Y728604D01*
X543674Y728682D01*
X543718Y728762D01*
X543758Y728844D01*
X543795Y728927D01*
X543828Y729012D01*
X543857Y729098D01*
X543883Y729186D01*
X543905Y729274D01*
X543922Y729363D01*
X543936Y729453D01*
X543946Y729544D01*
X543952Y729635D01*
X543954Y729726D01*
X543954Y731814D01*
X543954Y737371D02*
X536644Y735283D01*
X536644Y740504D01*
X538733Y738938D02*
X534556Y738938D01*
X535191Y815451D02*
X535191Y817539D01*
X535191Y815451D02*
X535193Y815362D01*
X535199Y815274D01*
X535208Y815186D01*
X535221Y815098D01*
X535238Y815011D01*
X535258Y814925D01*
X535283Y814840D01*
X535310Y814755D01*
X535342Y814672D01*
X535376Y814591D01*
X535415Y814511D01*
X535456Y814433D01*
X535501Y814356D01*
X535549Y814282D01*
X535600Y814209D01*
X535654Y814139D01*
X535712Y814072D01*
X535772Y814006D01*
X535834Y813944D01*
X535900Y813884D01*
X535967Y813826D01*
X536037Y813772D01*
X536110Y813721D01*
X536184Y813673D01*
X536261Y813628D01*
X536339Y813587D01*
X536419Y813548D01*
X536500Y813514D01*
X536583Y813482D01*
X536668Y813455D01*
X536753Y813430D01*
X536839Y813410D01*
X536926Y813393D01*
X537014Y813380D01*
X537102Y813371D01*
X537190Y813365D01*
X537279Y813363D01*
X537279Y813362D02*
X542501Y813362D01*
X542501Y813363D02*
X542592Y813365D01*
X542683Y813371D01*
X542774Y813381D01*
X542864Y813395D01*
X542953Y813412D01*
X543041Y813434D01*
X543129Y813460D01*
X543215Y813489D01*
X543300Y813522D01*
X543383Y813559D01*
X543465Y813599D01*
X543545Y813643D01*
X543623Y813690D01*
X543699Y813741D01*
X543772Y813794D01*
X543843Y813851D01*
X543912Y813912D01*
X543977Y813975D01*
X544040Y814040D01*
X544100Y814109D01*
X544158Y814180D01*
X544211Y814253D01*
X544262Y814329D01*
X544309Y814407D01*
X544353Y814487D01*
X544393Y814569D01*
X544430Y814652D01*
X544463Y814737D01*
X544492Y814823D01*
X544518Y814911D01*
X544540Y814999D01*
X544557Y815088D01*
X544571Y815178D01*
X544581Y815269D01*
X544587Y815360D01*
X544589Y815451D01*
X544589Y817539D01*
X535191Y821008D02*
X535191Y824141D01*
X535193Y824230D01*
X535199Y824318D01*
X535208Y824406D01*
X535221Y824494D01*
X535238Y824581D01*
X535258Y824667D01*
X535283Y824752D01*
X535310Y824837D01*
X535342Y824920D01*
X535376Y825001D01*
X535415Y825081D01*
X535456Y825159D01*
X535501Y825236D01*
X535549Y825310D01*
X535600Y825383D01*
X535654Y825453D01*
X535712Y825520D01*
X535772Y825586D01*
X535834Y825648D01*
X535900Y825708D01*
X535967Y825766D01*
X536037Y825820D01*
X536110Y825871D01*
X536184Y825919D01*
X536261Y825964D01*
X536339Y826005D01*
X536419Y826044D01*
X536500Y826078D01*
X536583Y826110D01*
X536668Y826137D01*
X536753Y826162D01*
X536839Y826182D01*
X536926Y826199D01*
X537014Y826212D01*
X537102Y826221D01*
X537190Y826227D01*
X537279Y826229D01*
X538324Y826229D01*
X538413Y826227D01*
X538501Y826221D01*
X538589Y826212D01*
X538677Y826199D01*
X538764Y826182D01*
X538850Y826162D01*
X538935Y826137D01*
X539020Y826110D01*
X539103Y826078D01*
X539184Y826044D01*
X539264Y826005D01*
X539342Y825964D01*
X539419Y825919D01*
X539493Y825871D01*
X539566Y825820D01*
X539636Y825766D01*
X539703Y825708D01*
X539769Y825648D01*
X539831Y825586D01*
X539891Y825520D01*
X539949Y825453D01*
X540003Y825383D01*
X540054Y825310D01*
X540102Y825236D01*
X540147Y825159D01*
X540188Y825081D01*
X540227Y825001D01*
X540261Y824920D01*
X540293Y824837D01*
X540320Y824752D01*
X540345Y824667D01*
X540365Y824581D01*
X540382Y824494D01*
X540395Y824406D01*
X540404Y824318D01*
X540410Y824230D01*
X540412Y824141D01*
X540412Y821008D01*
X544589Y821008D01*
X544589Y826229D01*
D14*
X471993Y673571D02*
X471993Y664271D01*
X471993Y673571D02*
X463993Y673571D01*
X459093Y659571D02*
X454493Y659571D01*
X441593Y664271D02*
X441593Y673571D01*
X449593Y673571D01*
D15*
X465793Y646571D02*
X465795Y646634D01*
X465801Y646696D01*
X465811Y646758D01*
X465824Y646820D01*
X465842Y646880D01*
X465863Y646939D01*
X465888Y646997D01*
X465917Y647053D01*
X465949Y647107D01*
X465984Y647159D01*
X466022Y647208D01*
X466064Y647256D01*
X466108Y647300D01*
X466156Y647342D01*
X466205Y647380D01*
X466257Y647415D01*
X466311Y647447D01*
X466367Y647476D01*
X466425Y647501D01*
X466484Y647522D01*
X466544Y647540D01*
X466606Y647553D01*
X466668Y647563D01*
X466730Y647569D01*
X466793Y647571D01*
X466856Y647569D01*
X466918Y647563D01*
X466980Y647553D01*
X467042Y647540D01*
X467102Y647522D01*
X467161Y647501D01*
X467219Y647476D01*
X467275Y647447D01*
X467329Y647415D01*
X467381Y647380D01*
X467430Y647342D01*
X467478Y647300D01*
X467522Y647256D01*
X467564Y647208D01*
X467602Y647159D01*
X467637Y647107D01*
X467669Y647053D01*
X467698Y646997D01*
X467723Y646939D01*
X467744Y646880D01*
X467762Y646820D01*
X467775Y646758D01*
X467785Y646696D01*
X467791Y646634D01*
X467793Y646571D01*
X467791Y646508D01*
X467785Y646446D01*
X467775Y646384D01*
X467762Y646322D01*
X467744Y646262D01*
X467723Y646203D01*
X467698Y646145D01*
X467669Y646089D01*
X467637Y646035D01*
X467602Y645983D01*
X467564Y645934D01*
X467522Y645886D01*
X467478Y645842D01*
X467430Y645800D01*
X467381Y645762D01*
X467329Y645727D01*
X467275Y645695D01*
X467219Y645666D01*
X467161Y645641D01*
X467102Y645620D01*
X467042Y645602D01*
X466980Y645589D01*
X466918Y645579D01*
X466856Y645573D01*
X466793Y645571D01*
X466730Y645573D01*
X466668Y645579D01*
X466606Y645589D01*
X466544Y645602D01*
X466484Y645620D01*
X466425Y645641D01*
X466367Y645666D01*
X466311Y645695D01*
X466257Y645727D01*
X466205Y645762D01*
X466156Y645800D01*
X466108Y645842D01*
X466064Y645886D01*
X466022Y645934D01*
X465984Y645983D01*
X465949Y646035D01*
X465917Y646089D01*
X465888Y646145D01*
X465863Y646203D01*
X465842Y646262D01*
X465824Y646322D01*
X465811Y646384D01*
X465801Y646446D01*
X465795Y646508D01*
X465793Y646571D01*
D12*
X472809Y692631D02*
X472809Y697823D01*
X472807Y697936D01*
X472801Y698049D01*
X472791Y698162D01*
X472777Y698275D01*
X472760Y698387D01*
X472738Y698498D01*
X472713Y698608D01*
X472683Y698718D01*
X472650Y698826D01*
X472613Y698933D01*
X472573Y699039D01*
X472528Y699143D01*
X472480Y699246D01*
X472429Y699347D01*
X472374Y699446D01*
X472316Y699543D01*
X472254Y699638D01*
X472189Y699731D01*
X472121Y699821D01*
X472050Y699909D01*
X471975Y699995D01*
X471898Y700078D01*
X471818Y700158D01*
X471735Y700235D01*
X471649Y700310D01*
X471561Y700381D01*
X471471Y700449D01*
X471378Y700514D01*
X471283Y700576D01*
X471186Y700634D01*
X471087Y700689D01*
X470986Y700740D01*
X470883Y700788D01*
X470779Y700833D01*
X470673Y700873D01*
X470566Y700910D01*
X470458Y700943D01*
X470348Y700973D01*
X470238Y700998D01*
X470127Y701020D01*
X470015Y701037D01*
X469902Y701051D01*
X469789Y701061D01*
X469676Y701067D01*
X469563Y701069D01*
X469450Y701067D01*
X469337Y701061D01*
X469224Y701051D01*
X469111Y701037D01*
X468999Y701020D01*
X468888Y700998D01*
X468778Y700973D01*
X468668Y700943D01*
X468560Y700910D01*
X468453Y700873D01*
X468347Y700833D01*
X468243Y700788D01*
X468140Y700740D01*
X468039Y700689D01*
X467940Y700634D01*
X467843Y700576D01*
X467748Y700514D01*
X467655Y700449D01*
X467565Y700381D01*
X467477Y700310D01*
X467391Y700235D01*
X467308Y700158D01*
X467228Y700078D01*
X467151Y699995D01*
X467076Y699909D01*
X467005Y699821D01*
X466937Y699731D01*
X466872Y699638D01*
X466810Y699543D01*
X466752Y699446D01*
X466697Y699347D01*
X466646Y699246D01*
X466598Y699143D01*
X466553Y699039D01*
X466513Y698933D01*
X466476Y698826D01*
X466443Y698718D01*
X466413Y698608D01*
X466388Y698498D01*
X466366Y698387D01*
X466349Y698275D01*
X466335Y698162D01*
X466325Y698049D01*
X466319Y697936D01*
X466317Y697823D01*
X466318Y697823D02*
X466318Y692631D01*
X466317Y692631D02*
X466319Y692518D01*
X466325Y692405D01*
X466335Y692292D01*
X466349Y692179D01*
X466366Y692067D01*
X466388Y691956D01*
X466413Y691846D01*
X466443Y691736D01*
X466476Y691628D01*
X466513Y691521D01*
X466553Y691415D01*
X466598Y691311D01*
X466646Y691208D01*
X466697Y691107D01*
X466752Y691008D01*
X466810Y690911D01*
X466872Y690816D01*
X466937Y690723D01*
X467005Y690633D01*
X467076Y690545D01*
X467151Y690459D01*
X467228Y690376D01*
X467308Y690296D01*
X467391Y690219D01*
X467477Y690144D01*
X467565Y690073D01*
X467655Y690005D01*
X467748Y689940D01*
X467843Y689878D01*
X467940Y689820D01*
X468039Y689765D01*
X468140Y689714D01*
X468243Y689666D01*
X468347Y689621D01*
X468453Y689581D01*
X468560Y689544D01*
X468668Y689511D01*
X468778Y689481D01*
X468888Y689456D01*
X468999Y689434D01*
X469111Y689417D01*
X469224Y689403D01*
X469337Y689393D01*
X469450Y689387D01*
X469563Y689385D01*
X469676Y689387D01*
X469789Y689393D01*
X469902Y689403D01*
X470015Y689417D01*
X470127Y689434D01*
X470238Y689456D01*
X470348Y689481D01*
X470458Y689511D01*
X470566Y689544D01*
X470673Y689581D01*
X470779Y689621D01*
X470883Y689666D01*
X470986Y689714D01*
X471087Y689765D01*
X471186Y689820D01*
X471283Y689878D01*
X471378Y689940D01*
X471471Y690005D01*
X471561Y690073D01*
X471649Y690144D01*
X471735Y690219D01*
X471818Y690296D01*
X471898Y690376D01*
X471975Y690459D01*
X472050Y690545D01*
X472121Y690633D01*
X472189Y690723D01*
X472254Y690816D01*
X472316Y690911D01*
X472374Y691008D01*
X472429Y691107D01*
X472480Y691208D01*
X472528Y691311D01*
X472573Y691415D01*
X472613Y691521D01*
X472650Y691628D01*
X472683Y691736D01*
X472713Y691846D01*
X472738Y691956D01*
X472760Y692067D01*
X472777Y692179D01*
X472791Y692292D01*
X472801Y692405D01*
X472807Y692518D01*
X472809Y692631D01*
X467616Y691981D02*
X465020Y689385D01*
X455174Y698148D02*
X455176Y698255D01*
X455182Y698361D01*
X455192Y698467D01*
X455205Y698573D01*
X455223Y698679D01*
X455244Y698783D01*
X455269Y698887D01*
X455298Y698990D01*
X455330Y699091D01*
X455367Y699191D01*
X455407Y699290D01*
X455450Y699388D01*
X455497Y699484D01*
X455548Y699578D01*
X455602Y699670D01*
X455659Y699760D01*
X455719Y699848D01*
X455783Y699933D01*
X455850Y700016D01*
X455920Y700097D01*
X455992Y700175D01*
X456068Y700251D01*
X456146Y700323D01*
X456227Y700393D01*
X456310Y700460D01*
X456395Y700524D01*
X456483Y700584D01*
X456573Y700641D01*
X456665Y700695D01*
X456759Y700746D01*
X456855Y700793D01*
X456953Y700836D01*
X457052Y700876D01*
X457152Y700913D01*
X457253Y700945D01*
X457356Y700974D01*
X457460Y700999D01*
X457564Y701020D01*
X457670Y701038D01*
X457776Y701051D01*
X457882Y701061D01*
X457988Y701067D01*
X458095Y701069D01*
X458216Y701067D01*
X458337Y701061D01*
X458457Y701051D01*
X458578Y701038D01*
X458697Y701020D01*
X458817Y700999D01*
X458935Y700974D01*
X459052Y700945D01*
X459169Y700912D01*
X459284Y700876D01*
X459398Y700835D01*
X459511Y700792D01*
X459623Y700744D01*
X459732Y700693D01*
X459840Y700638D01*
X459947Y700580D01*
X460051Y700519D01*
X460153Y700454D01*
X460253Y700386D01*
X460351Y700315D01*
X460447Y700241D01*
X460540Y700164D01*
X460630Y700083D01*
X460718Y700000D01*
X460803Y699914D01*
X460886Y699825D01*
X460965Y699734D01*
X461042Y699640D01*
X461115Y699544D01*
X461185Y699446D01*
X461252Y699345D01*
X461316Y699242D01*
X461377Y699137D01*
X461434Y699030D01*
X461487Y698922D01*
X461537Y698812D01*
X461583Y698700D01*
X461626Y698587D01*
X461665Y698472D01*
X456148Y695876D02*
X456069Y695954D01*
X455993Y696034D01*
X455920Y696117D01*
X455850Y696203D01*
X455783Y696290D01*
X455719Y696381D01*
X455659Y696473D01*
X455601Y696567D01*
X455547Y696664D01*
X455497Y696762D01*
X455450Y696862D01*
X455406Y696963D01*
X455366Y697066D01*
X455330Y697171D01*
X455298Y697276D01*
X455269Y697383D01*
X455244Y697490D01*
X455222Y697599D01*
X455205Y697708D01*
X455191Y697817D01*
X455182Y697927D01*
X455176Y698038D01*
X455174Y698148D01*
X456148Y695876D02*
X461665Y689385D01*
X455174Y689385D01*
D14*
X422082Y673698D02*
X422082Y664398D01*
X422082Y673698D02*
X414082Y673698D01*
X409182Y659698D02*
X404582Y659698D01*
X391682Y664398D02*
X391682Y673698D01*
X399682Y673698D01*
D15*
X415882Y646698D02*
X415884Y646761D01*
X415890Y646823D01*
X415900Y646885D01*
X415913Y646947D01*
X415931Y647007D01*
X415952Y647066D01*
X415977Y647124D01*
X416006Y647180D01*
X416038Y647234D01*
X416073Y647286D01*
X416111Y647335D01*
X416153Y647383D01*
X416197Y647427D01*
X416245Y647469D01*
X416294Y647507D01*
X416346Y647542D01*
X416400Y647574D01*
X416456Y647603D01*
X416514Y647628D01*
X416573Y647649D01*
X416633Y647667D01*
X416695Y647680D01*
X416757Y647690D01*
X416819Y647696D01*
X416882Y647698D01*
X416945Y647696D01*
X417007Y647690D01*
X417069Y647680D01*
X417131Y647667D01*
X417191Y647649D01*
X417250Y647628D01*
X417308Y647603D01*
X417364Y647574D01*
X417418Y647542D01*
X417470Y647507D01*
X417519Y647469D01*
X417567Y647427D01*
X417611Y647383D01*
X417653Y647335D01*
X417691Y647286D01*
X417726Y647234D01*
X417758Y647180D01*
X417787Y647124D01*
X417812Y647066D01*
X417833Y647007D01*
X417851Y646947D01*
X417864Y646885D01*
X417874Y646823D01*
X417880Y646761D01*
X417882Y646698D01*
X417880Y646635D01*
X417874Y646573D01*
X417864Y646511D01*
X417851Y646449D01*
X417833Y646389D01*
X417812Y646330D01*
X417787Y646272D01*
X417758Y646216D01*
X417726Y646162D01*
X417691Y646110D01*
X417653Y646061D01*
X417611Y646013D01*
X417567Y645969D01*
X417519Y645927D01*
X417470Y645889D01*
X417418Y645854D01*
X417364Y645822D01*
X417308Y645793D01*
X417250Y645768D01*
X417191Y645747D01*
X417131Y645729D01*
X417069Y645716D01*
X417007Y645706D01*
X416945Y645700D01*
X416882Y645698D01*
X416819Y645700D01*
X416757Y645706D01*
X416695Y645716D01*
X416633Y645729D01*
X416573Y645747D01*
X416514Y645768D01*
X416456Y645793D01*
X416400Y645822D01*
X416346Y645854D01*
X416294Y645889D01*
X416245Y645927D01*
X416197Y645969D01*
X416153Y646013D01*
X416111Y646061D01*
X416073Y646110D01*
X416038Y646162D01*
X416006Y646216D01*
X415977Y646272D01*
X415952Y646330D01*
X415931Y646389D01*
X415913Y646449D01*
X415900Y646511D01*
X415890Y646573D01*
X415884Y646635D01*
X415882Y646698D01*
D12*
X422771Y693647D02*
X422771Y698839D01*
X422769Y698952D01*
X422763Y699065D01*
X422753Y699178D01*
X422739Y699291D01*
X422722Y699403D01*
X422700Y699514D01*
X422675Y699624D01*
X422645Y699734D01*
X422612Y699842D01*
X422575Y699949D01*
X422535Y700055D01*
X422490Y700159D01*
X422442Y700262D01*
X422391Y700363D01*
X422336Y700462D01*
X422278Y700559D01*
X422216Y700654D01*
X422151Y700747D01*
X422083Y700837D01*
X422012Y700925D01*
X421937Y701011D01*
X421860Y701094D01*
X421780Y701174D01*
X421697Y701251D01*
X421611Y701326D01*
X421523Y701397D01*
X421433Y701465D01*
X421340Y701530D01*
X421245Y701592D01*
X421148Y701650D01*
X421049Y701705D01*
X420948Y701756D01*
X420845Y701804D01*
X420741Y701849D01*
X420635Y701889D01*
X420528Y701926D01*
X420420Y701959D01*
X420310Y701989D01*
X420200Y702014D01*
X420089Y702036D01*
X419977Y702053D01*
X419864Y702067D01*
X419751Y702077D01*
X419638Y702083D01*
X419525Y702085D01*
X419412Y702083D01*
X419299Y702077D01*
X419186Y702067D01*
X419073Y702053D01*
X418961Y702036D01*
X418850Y702014D01*
X418740Y701989D01*
X418630Y701959D01*
X418522Y701926D01*
X418415Y701889D01*
X418309Y701849D01*
X418205Y701804D01*
X418102Y701756D01*
X418001Y701705D01*
X417902Y701650D01*
X417805Y701592D01*
X417710Y701530D01*
X417617Y701465D01*
X417527Y701397D01*
X417439Y701326D01*
X417353Y701251D01*
X417270Y701174D01*
X417190Y701094D01*
X417113Y701011D01*
X417038Y700925D01*
X416967Y700837D01*
X416899Y700747D01*
X416834Y700654D01*
X416772Y700559D01*
X416714Y700462D01*
X416659Y700363D01*
X416608Y700262D01*
X416560Y700159D01*
X416515Y700055D01*
X416475Y699949D01*
X416438Y699842D01*
X416405Y699734D01*
X416375Y699624D01*
X416350Y699514D01*
X416328Y699403D01*
X416311Y699291D01*
X416297Y699178D01*
X416287Y699065D01*
X416281Y698952D01*
X416279Y698839D01*
X416280Y698839D02*
X416280Y693647D01*
X416279Y693647D02*
X416281Y693534D01*
X416287Y693421D01*
X416297Y693308D01*
X416311Y693195D01*
X416328Y693083D01*
X416350Y692972D01*
X416375Y692862D01*
X416405Y692752D01*
X416438Y692644D01*
X416475Y692537D01*
X416515Y692431D01*
X416560Y692327D01*
X416608Y692224D01*
X416659Y692123D01*
X416714Y692024D01*
X416772Y691927D01*
X416834Y691832D01*
X416899Y691739D01*
X416967Y691649D01*
X417038Y691561D01*
X417113Y691475D01*
X417190Y691392D01*
X417270Y691312D01*
X417353Y691235D01*
X417439Y691160D01*
X417527Y691089D01*
X417617Y691021D01*
X417710Y690956D01*
X417805Y690894D01*
X417902Y690836D01*
X418001Y690781D01*
X418102Y690730D01*
X418205Y690682D01*
X418309Y690637D01*
X418415Y690597D01*
X418522Y690560D01*
X418630Y690527D01*
X418740Y690497D01*
X418850Y690472D01*
X418961Y690450D01*
X419073Y690433D01*
X419186Y690419D01*
X419299Y690409D01*
X419412Y690403D01*
X419525Y690401D01*
X419638Y690403D01*
X419751Y690409D01*
X419864Y690419D01*
X419977Y690433D01*
X420089Y690450D01*
X420200Y690472D01*
X420310Y690497D01*
X420420Y690527D01*
X420528Y690560D01*
X420635Y690597D01*
X420741Y690637D01*
X420845Y690682D01*
X420948Y690730D01*
X421049Y690781D01*
X421148Y690836D01*
X421245Y690894D01*
X421340Y690956D01*
X421433Y691021D01*
X421523Y691089D01*
X421611Y691160D01*
X421697Y691235D01*
X421780Y691312D01*
X421860Y691392D01*
X421937Y691475D01*
X422012Y691561D01*
X422083Y691649D01*
X422151Y691739D01*
X422216Y691832D01*
X422278Y691927D01*
X422336Y692024D01*
X422391Y692123D01*
X422442Y692224D01*
X422490Y692327D01*
X422535Y692431D01*
X422575Y692537D01*
X422612Y692644D01*
X422645Y692752D01*
X422675Y692862D01*
X422700Y692972D01*
X422722Y693083D01*
X422739Y693195D01*
X422753Y693308D01*
X422763Y693421D01*
X422769Y693534D01*
X422771Y693647D01*
X417578Y692997D02*
X414982Y690401D01*
X411627Y690401D02*
X408382Y690401D01*
X408269Y690403D01*
X408156Y690409D01*
X408043Y690419D01*
X407930Y690433D01*
X407818Y690450D01*
X407707Y690472D01*
X407597Y690497D01*
X407487Y690527D01*
X407379Y690560D01*
X407272Y690597D01*
X407166Y690637D01*
X407062Y690682D01*
X406959Y690730D01*
X406858Y690781D01*
X406759Y690836D01*
X406662Y690894D01*
X406567Y690956D01*
X406474Y691021D01*
X406384Y691089D01*
X406296Y691160D01*
X406210Y691235D01*
X406127Y691312D01*
X406047Y691392D01*
X405970Y691475D01*
X405895Y691561D01*
X405824Y691649D01*
X405756Y691739D01*
X405691Y691832D01*
X405629Y691927D01*
X405571Y692024D01*
X405516Y692123D01*
X405465Y692224D01*
X405417Y692327D01*
X405372Y692431D01*
X405332Y692537D01*
X405295Y692644D01*
X405262Y692752D01*
X405232Y692862D01*
X405207Y692972D01*
X405185Y693083D01*
X405168Y693195D01*
X405154Y693308D01*
X405144Y693421D01*
X405138Y693534D01*
X405136Y693647D01*
X405138Y693760D01*
X405144Y693873D01*
X405154Y693986D01*
X405168Y694099D01*
X405185Y694211D01*
X405207Y694322D01*
X405232Y694432D01*
X405262Y694542D01*
X405295Y694650D01*
X405332Y694757D01*
X405372Y694863D01*
X405417Y694967D01*
X405465Y695070D01*
X405516Y695171D01*
X405571Y695270D01*
X405629Y695367D01*
X405691Y695462D01*
X405756Y695555D01*
X405824Y695645D01*
X405895Y695733D01*
X405970Y695819D01*
X406047Y695902D01*
X406127Y695982D01*
X406210Y696059D01*
X406296Y696134D01*
X406384Y696205D01*
X406474Y696273D01*
X406567Y696338D01*
X406662Y696400D01*
X406759Y696458D01*
X406858Y696513D01*
X406959Y696564D01*
X407062Y696612D01*
X407166Y696657D01*
X407272Y696697D01*
X407379Y696734D01*
X407487Y696767D01*
X407597Y696797D01*
X407707Y696822D01*
X407818Y696844D01*
X407930Y696861D01*
X408043Y696875D01*
X408156Y696885D01*
X408269Y696891D01*
X408382Y696893D01*
X407732Y702085D02*
X411627Y702085D01*
X407732Y702085D02*
X407631Y702083D01*
X407531Y702077D01*
X407431Y702067D01*
X407331Y702054D01*
X407232Y702036D01*
X407133Y702015D01*
X407036Y701990D01*
X406939Y701961D01*
X406844Y701928D01*
X406750Y701892D01*
X406658Y701852D01*
X406567Y701809D01*
X406478Y701762D01*
X406391Y701712D01*
X406305Y701658D01*
X406222Y701601D01*
X406142Y701541D01*
X406063Y701478D01*
X405987Y701411D01*
X405914Y701342D01*
X405844Y701270D01*
X405776Y701196D01*
X405711Y701119D01*
X405650Y701039D01*
X405591Y700957D01*
X405536Y700873D01*
X405484Y700787D01*
X405435Y700699D01*
X405390Y700609D01*
X405348Y700517D01*
X405310Y700424D01*
X405276Y700329D01*
X405245Y700234D01*
X405218Y700137D01*
X405195Y700039D01*
X405175Y699940D01*
X405160Y699840D01*
X405148Y699740D01*
X405140Y699640D01*
X405136Y699539D01*
X405136Y699439D01*
X405140Y699338D01*
X405148Y699238D01*
X405160Y699138D01*
X405175Y699038D01*
X405195Y698939D01*
X405218Y698841D01*
X405245Y698744D01*
X405276Y698649D01*
X405310Y698554D01*
X405348Y698461D01*
X405390Y698369D01*
X405435Y698279D01*
X405484Y698191D01*
X405536Y698105D01*
X405591Y698021D01*
X405650Y697939D01*
X405711Y697859D01*
X405776Y697782D01*
X405844Y697708D01*
X405914Y697636D01*
X405987Y697567D01*
X406063Y697500D01*
X406142Y697437D01*
X406222Y697377D01*
X406305Y697320D01*
X406391Y697266D01*
X406478Y697216D01*
X406567Y697169D01*
X406658Y697126D01*
X406750Y697086D01*
X406844Y697050D01*
X406939Y697017D01*
X407036Y696988D01*
X407133Y696963D01*
X407232Y696942D01*
X407331Y696924D01*
X407431Y696911D01*
X407531Y696901D01*
X407631Y696895D01*
X407732Y696893D01*
X407732Y696892D02*
X410329Y696892D01*
X488702Y690287D02*
X500386Y690287D01*
X500386Y693532D01*
X500384Y693645D01*
X500378Y693758D01*
X500368Y693871D01*
X500354Y693984D01*
X500337Y694096D01*
X500315Y694207D01*
X500290Y694317D01*
X500260Y694427D01*
X500227Y694535D01*
X500190Y694642D01*
X500150Y694748D01*
X500105Y694852D01*
X500057Y694955D01*
X500006Y695056D01*
X499951Y695155D01*
X499893Y695252D01*
X499831Y695347D01*
X499766Y695440D01*
X499698Y695530D01*
X499627Y695618D01*
X499552Y695704D01*
X499475Y695787D01*
X499395Y695867D01*
X499312Y695944D01*
X499226Y696019D01*
X499138Y696090D01*
X499048Y696158D01*
X498955Y696223D01*
X498860Y696285D01*
X498763Y696343D01*
X498664Y696398D01*
X498563Y696449D01*
X498460Y696497D01*
X498356Y696542D01*
X498250Y696582D01*
X498143Y696619D01*
X498035Y696652D01*
X497925Y696682D01*
X497815Y696707D01*
X497704Y696729D01*
X497592Y696746D01*
X497479Y696760D01*
X497366Y696770D01*
X497253Y696776D01*
X497140Y696778D01*
X497027Y696776D01*
X496914Y696770D01*
X496801Y696760D01*
X496688Y696746D01*
X496576Y696729D01*
X496465Y696707D01*
X496355Y696682D01*
X496245Y696652D01*
X496137Y696619D01*
X496030Y696582D01*
X495924Y696542D01*
X495820Y696497D01*
X495717Y696449D01*
X495616Y696398D01*
X495517Y696343D01*
X495420Y696285D01*
X495325Y696223D01*
X495232Y696158D01*
X495142Y696090D01*
X495054Y696019D01*
X494968Y695944D01*
X494885Y695867D01*
X494805Y695787D01*
X494728Y695704D01*
X494653Y695618D01*
X494582Y695530D01*
X494514Y695440D01*
X494449Y695347D01*
X494387Y695252D01*
X494329Y695155D01*
X494274Y695056D01*
X494223Y694955D01*
X494175Y694852D01*
X494130Y694748D01*
X494090Y694642D01*
X494053Y694535D01*
X494020Y694427D01*
X493990Y694317D01*
X493965Y694207D01*
X493943Y694096D01*
X493926Y693984D01*
X493912Y693871D01*
X493902Y693758D01*
X493896Y693645D01*
X493894Y693532D01*
X493895Y693532D02*
X493895Y690287D01*
X493895Y694181D02*
X488702Y696778D01*
X493895Y704239D02*
X493895Y708134D01*
X493895Y704239D02*
X493897Y704140D01*
X493903Y704040D01*
X493912Y703941D01*
X493925Y703843D01*
X493942Y703745D01*
X493963Y703647D01*
X493988Y703551D01*
X494016Y703456D01*
X494048Y703362D01*
X494083Y703269D01*
X494122Y703177D01*
X494165Y703087D01*
X494210Y702999D01*
X494260Y702912D01*
X494312Y702828D01*
X494368Y702745D01*
X494426Y702665D01*
X494488Y702587D01*
X494553Y702512D01*
X494621Y702439D01*
X494691Y702369D01*
X494764Y702301D01*
X494839Y702236D01*
X494917Y702174D01*
X494997Y702116D01*
X495080Y702060D01*
X495164Y702008D01*
X495251Y701958D01*
X495339Y701913D01*
X495429Y701870D01*
X495521Y701831D01*
X495614Y701796D01*
X495708Y701764D01*
X495803Y701736D01*
X495899Y701711D01*
X495997Y701690D01*
X496095Y701673D01*
X496193Y701660D01*
X496292Y701651D01*
X496392Y701645D01*
X496491Y701643D01*
X497140Y701643D01*
X497140Y701642D02*
X497253Y701644D01*
X497366Y701650D01*
X497479Y701660D01*
X497592Y701674D01*
X497704Y701691D01*
X497815Y701713D01*
X497925Y701738D01*
X498035Y701768D01*
X498143Y701801D01*
X498250Y701838D01*
X498356Y701878D01*
X498460Y701923D01*
X498563Y701971D01*
X498664Y702022D01*
X498763Y702077D01*
X498860Y702135D01*
X498955Y702197D01*
X499048Y702262D01*
X499138Y702330D01*
X499226Y702401D01*
X499312Y702476D01*
X499395Y702553D01*
X499475Y702633D01*
X499552Y702716D01*
X499627Y702802D01*
X499698Y702890D01*
X499766Y702980D01*
X499831Y703073D01*
X499893Y703168D01*
X499951Y703265D01*
X500006Y703364D01*
X500057Y703465D01*
X500105Y703568D01*
X500150Y703672D01*
X500190Y703778D01*
X500227Y703885D01*
X500260Y703993D01*
X500290Y704103D01*
X500315Y704213D01*
X500337Y704324D01*
X500354Y704436D01*
X500368Y704549D01*
X500378Y704662D01*
X500384Y704775D01*
X500386Y704888D01*
X500384Y705001D01*
X500378Y705114D01*
X500368Y705227D01*
X500354Y705340D01*
X500337Y705452D01*
X500315Y705563D01*
X500290Y705673D01*
X500260Y705783D01*
X500227Y705891D01*
X500190Y705998D01*
X500150Y706104D01*
X500105Y706208D01*
X500057Y706311D01*
X500006Y706412D01*
X499951Y706511D01*
X499893Y706608D01*
X499831Y706703D01*
X499766Y706796D01*
X499698Y706886D01*
X499627Y706974D01*
X499552Y707060D01*
X499475Y707143D01*
X499395Y707223D01*
X499312Y707300D01*
X499226Y707375D01*
X499138Y707446D01*
X499048Y707514D01*
X498955Y707579D01*
X498860Y707641D01*
X498763Y707699D01*
X498664Y707754D01*
X498563Y707805D01*
X498460Y707853D01*
X498356Y707898D01*
X498250Y707938D01*
X498143Y707975D01*
X498035Y708008D01*
X497925Y708038D01*
X497815Y708063D01*
X497704Y708085D01*
X497592Y708102D01*
X497479Y708116D01*
X497366Y708126D01*
X497253Y708132D01*
X497140Y708134D01*
X493895Y708134D01*
X493752Y708132D01*
X493609Y708126D01*
X493466Y708116D01*
X493324Y708102D01*
X493182Y708085D01*
X493040Y708063D01*
X492899Y708038D01*
X492759Y708008D01*
X492620Y707975D01*
X492482Y707938D01*
X492345Y707897D01*
X492209Y707853D01*
X492074Y707804D01*
X491941Y707752D01*
X491809Y707697D01*
X491679Y707637D01*
X491550Y707574D01*
X491423Y707508D01*
X491299Y707438D01*
X491176Y707365D01*
X491055Y707288D01*
X490936Y707208D01*
X490820Y707125D01*
X490705Y707039D01*
X490594Y706950D01*
X490484Y706857D01*
X490378Y706762D01*
X490274Y706663D01*
X490173Y706562D01*
X490074Y706458D01*
X489979Y706352D01*
X489886Y706242D01*
X489797Y706131D01*
X489711Y706016D01*
X489628Y705900D01*
X489548Y705781D01*
X489471Y705660D01*
X489398Y705538D01*
X489328Y705413D01*
X489262Y705286D01*
X489199Y705157D01*
X489139Y705027D01*
X489084Y704895D01*
X489032Y704762D01*
X488983Y704627D01*
X488939Y704491D01*
X488898Y704354D01*
X488861Y704216D01*
X488828Y704077D01*
X488798Y703937D01*
X488773Y703796D01*
X488751Y703654D01*
X488734Y703512D01*
X488720Y703370D01*
X488710Y703227D01*
X488704Y703084D01*
X488702Y702941D01*
X517797Y686427D02*
X529481Y686427D01*
X529481Y689673D01*
X529479Y689786D01*
X529473Y689899D01*
X529463Y690012D01*
X529449Y690125D01*
X529432Y690237D01*
X529410Y690348D01*
X529385Y690458D01*
X529355Y690568D01*
X529322Y690676D01*
X529285Y690783D01*
X529245Y690889D01*
X529200Y690993D01*
X529152Y691096D01*
X529101Y691197D01*
X529046Y691296D01*
X528988Y691393D01*
X528926Y691488D01*
X528861Y691581D01*
X528793Y691671D01*
X528722Y691759D01*
X528647Y691845D01*
X528570Y691928D01*
X528490Y692008D01*
X528407Y692085D01*
X528321Y692160D01*
X528233Y692231D01*
X528143Y692299D01*
X528050Y692364D01*
X527955Y692426D01*
X527858Y692484D01*
X527759Y692539D01*
X527658Y692590D01*
X527555Y692638D01*
X527451Y692683D01*
X527345Y692723D01*
X527238Y692760D01*
X527130Y692793D01*
X527020Y692823D01*
X526910Y692848D01*
X526799Y692870D01*
X526687Y692887D01*
X526574Y692901D01*
X526461Y692911D01*
X526348Y692917D01*
X526235Y692919D01*
X526122Y692917D01*
X526009Y692911D01*
X525896Y692901D01*
X525783Y692887D01*
X525671Y692870D01*
X525560Y692848D01*
X525450Y692823D01*
X525340Y692793D01*
X525232Y692760D01*
X525125Y692723D01*
X525019Y692683D01*
X524915Y692638D01*
X524812Y692590D01*
X524711Y692539D01*
X524612Y692484D01*
X524515Y692426D01*
X524420Y692364D01*
X524327Y692299D01*
X524237Y692231D01*
X524149Y692160D01*
X524063Y692085D01*
X523980Y692008D01*
X523900Y691928D01*
X523823Y691845D01*
X523748Y691759D01*
X523677Y691671D01*
X523609Y691581D01*
X523544Y691488D01*
X523482Y691393D01*
X523424Y691296D01*
X523369Y691197D01*
X523318Y691096D01*
X523270Y690993D01*
X523225Y690889D01*
X523185Y690783D01*
X523148Y690676D01*
X523115Y690568D01*
X523085Y690458D01*
X523060Y690348D01*
X523038Y690237D01*
X523021Y690125D01*
X523007Y690012D01*
X522997Y689899D01*
X522991Y689786D01*
X522989Y689673D01*
X522990Y689673D02*
X522990Y686427D01*
X522990Y690322D02*
X517797Y692918D01*
X526885Y697783D02*
X529481Y701029D01*
X517797Y701029D01*
X517797Y704274D02*
X517797Y697783D01*
X523639Y709214D02*
X523869Y709217D01*
X524099Y709225D01*
X524328Y709239D01*
X524557Y709258D01*
X524786Y709283D01*
X525013Y709313D01*
X525241Y709348D01*
X525467Y709389D01*
X525692Y709435D01*
X525916Y709487D01*
X526138Y709544D01*
X526360Y709606D01*
X526579Y709674D01*
X526797Y709747D01*
X527014Y709825D01*
X527228Y709908D01*
X527440Y709996D01*
X527650Y710089D01*
X527858Y710188D01*
X527858Y710187D02*
X527948Y710220D01*
X528037Y710256D01*
X528125Y710296D01*
X528210Y710340D01*
X528294Y710387D01*
X528376Y710437D01*
X528456Y710491D01*
X528533Y710547D01*
X528609Y710607D01*
X528682Y710670D01*
X528752Y710735D01*
X528820Y710804D01*
X528884Y710875D01*
X528946Y710948D01*
X529005Y711024D01*
X529061Y711102D01*
X529114Y711183D01*
X529163Y711265D01*
X529209Y711349D01*
X529252Y711436D01*
X529291Y711523D01*
X529327Y711613D01*
X529359Y711703D01*
X529387Y711795D01*
X529412Y711888D01*
X529433Y711982D01*
X529450Y712076D01*
X529464Y712171D01*
X529473Y712267D01*
X529479Y712363D01*
X529481Y712459D01*
X529479Y712555D01*
X529473Y712651D01*
X529464Y712747D01*
X529450Y712842D01*
X529433Y712936D01*
X529412Y713030D01*
X529387Y713123D01*
X529359Y713215D01*
X529327Y713305D01*
X529291Y713395D01*
X529252Y713482D01*
X529209Y713569D01*
X529163Y713653D01*
X529114Y713735D01*
X529061Y713816D01*
X529005Y713894D01*
X528946Y713970D01*
X528884Y714043D01*
X528820Y714114D01*
X528752Y714183D01*
X528682Y714248D01*
X528609Y714311D01*
X528533Y714371D01*
X528456Y714427D01*
X528376Y714481D01*
X528294Y714531D01*
X528210Y714578D01*
X528125Y714622D01*
X528037Y714662D01*
X527948Y714698D01*
X527858Y714731D01*
X527651Y714830D01*
X527441Y714923D01*
X527228Y715011D01*
X527014Y715094D01*
X526798Y715172D01*
X526580Y715245D01*
X526360Y715313D01*
X526139Y715375D01*
X525916Y715432D01*
X525692Y715484D01*
X525467Y715530D01*
X525241Y715571D01*
X525014Y715606D01*
X524786Y715636D01*
X524557Y715661D01*
X524328Y715680D01*
X524099Y715694D01*
X523869Y715702D01*
X523639Y715705D01*
X523639Y709213D02*
X523409Y709216D01*
X523179Y709224D01*
X522950Y709238D01*
X522721Y709257D01*
X522492Y709282D01*
X522264Y709312D01*
X522037Y709347D01*
X521811Y709388D01*
X521586Y709434D01*
X521362Y709486D01*
X521139Y709543D01*
X520918Y709605D01*
X520698Y709673D01*
X520480Y709746D01*
X520264Y709824D01*
X520050Y709907D01*
X519838Y709995D01*
X519627Y710088D01*
X519420Y710187D01*
X519330Y710220D01*
X519241Y710256D01*
X519153Y710297D01*
X519068Y710340D01*
X518984Y710387D01*
X518902Y710437D01*
X518822Y710491D01*
X518745Y710547D01*
X518669Y710607D01*
X518596Y710670D01*
X518526Y710735D01*
X518458Y710804D01*
X518394Y710875D01*
X518332Y710948D01*
X518273Y711024D01*
X518217Y711102D01*
X518164Y711183D01*
X518115Y711265D01*
X518069Y711349D01*
X518026Y711436D01*
X517987Y711523D01*
X517951Y711613D01*
X517919Y711703D01*
X517891Y711795D01*
X517866Y711888D01*
X517845Y711982D01*
X517828Y712076D01*
X517814Y712171D01*
X517805Y712267D01*
X517799Y712363D01*
X517797Y712459D01*
X519420Y714731D02*
X519627Y714830D01*
X519838Y714923D01*
X520050Y715011D01*
X520264Y715094D01*
X520480Y715172D01*
X520698Y715245D01*
X520918Y715313D01*
X521139Y715375D01*
X521362Y715432D01*
X521586Y715484D01*
X521811Y715530D01*
X522037Y715571D01*
X522264Y715606D01*
X522492Y715636D01*
X522721Y715661D01*
X522950Y715680D01*
X523179Y715694D01*
X523409Y715702D01*
X523639Y715705D01*
X519420Y714731D02*
X519330Y714698D01*
X519241Y714662D01*
X519153Y714622D01*
X519068Y714578D01*
X518984Y714531D01*
X518902Y714481D01*
X518822Y714427D01*
X518745Y714371D01*
X518669Y714311D01*
X518596Y714248D01*
X518526Y714183D01*
X518458Y714114D01*
X518394Y714043D01*
X518332Y713970D01*
X518273Y713894D01*
X518217Y713816D01*
X518164Y713735D01*
X518115Y713653D01*
X518069Y713569D01*
X518026Y713482D01*
X517987Y713395D01*
X517951Y713305D01*
X517919Y713215D01*
X517891Y713123D01*
X517866Y713030D01*
X517845Y712936D01*
X517828Y712842D01*
X517814Y712747D01*
X517805Y712651D01*
X517799Y712555D01*
X517797Y712459D01*
X520393Y709862D02*
X526885Y715055D01*
D13*
X584134Y528027D02*
X586222Y528027D01*
X586311Y528029D01*
X586399Y528035D01*
X586487Y528044D01*
X586575Y528057D01*
X586662Y528074D01*
X586748Y528094D01*
X586833Y528119D01*
X586918Y528146D01*
X587001Y528178D01*
X587082Y528212D01*
X587162Y528251D01*
X587240Y528292D01*
X587317Y528337D01*
X587391Y528385D01*
X587464Y528436D01*
X587534Y528490D01*
X587601Y528548D01*
X587667Y528608D01*
X587729Y528670D01*
X587789Y528736D01*
X587847Y528803D01*
X587901Y528873D01*
X587952Y528946D01*
X588000Y529020D01*
X588045Y529097D01*
X588086Y529175D01*
X588125Y529255D01*
X588159Y529336D01*
X588191Y529419D01*
X588218Y529504D01*
X588243Y529589D01*
X588263Y529675D01*
X588280Y529762D01*
X588293Y529850D01*
X588302Y529938D01*
X588308Y530026D01*
X588310Y530115D01*
X588311Y530115D02*
X588311Y535337D01*
X588310Y535337D02*
X588308Y535426D01*
X588302Y535514D01*
X588293Y535602D01*
X588280Y535690D01*
X588263Y535777D01*
X588243Y535863D01*
X588218Y535948D01*
X588191Y536033D01*
X588159Y536116D01*
X588125Y536197D01*
X588086Y536277D01*
X588045Y536355D01*
X588000Y536432D01*
X587952Y536506D01*
X587901Y536579D01*
X587847Y536649D01*
X587789Y536716D01*
X587729Y536782D01*
X587667Y536844D01*
X587601Y536904D01*
X587534Y536962D01*
X587464Y537016D01*
X587391Y537067D01*
X587317Y537115D01*
X587240Y537160D01*
X587162Y537201D01*
X587082Y537240D01*
X587001Y537274D01*
X586918Y537306D01*
X586833Y537333D01*
X586748Y537358D01*
X586662Y537378D01*
X586575Y537395D01*
X586487Y537408D01*
X586399Y537417D01*
X586311Y537423D01*
X586222Y537425D01*
X584134Y537425D01*
X580665Y533248D02*
X577532Y533248D01*
X577443Y533246D01*
X577355Y533240D01*
X577267Y533231D01*
X577179Y533218D01*
X577092Y533201D01*
X577006Y533181D01*
X576921Y533156D01*
X576836Y533129D01*
X576753Y533097D01*
X576672Y533063D01*
X576592Y533024D01*
X576514Y532983D01*
X576437Y532938D01*
X576363Y532890D01*
X576290Y532839D01*
X576220Y532785D01*
X576153Y532727D01*
X576087Y532667D01*
X576025Y532605D01*
X575965Y532539D01*
X575907Y532472D01*
X575853Y532402D01*
X575802Y532329D01*
X575754Y532255D01*
X575709Y532178D01*
X575668Y532100D01*
X575629Y532020D01*
X575595Y531939D01*
X575563Y531856D01*
X575536Y531771D01*
X575511Y531686D01*
X575491Y531600D01*
X575474Y531513D01*
X575461Y531425D01*
X575452Y531337D01*
X575446Y531249D01*
X575444Y531160D01*
X575444Y530638D01*
X575446Y530537D01*
X575452Y530436D01*
X575462Y530335D01*
X575475Y530235D01*
X575493Y530135D01*
X575514Y530036D01*
X575540Y529938D01*
X575569Y529841D01*
X575601Y529745D01*
X575638Y529651D01*
X575678Y529558D01*
X575722Y529466D01*
X575769Y529377D01*
X575820Y529289D01*
X575874Y529203D01*
X575931Y529120D01*
X575991Y529038D01*
X576055Y528960D01*
X576121Y528883D01*
X576191Y528810D01*
X576263Y528739D01*
X576338Y528671D01*
X576416Y528606D01*
X576496Y528544D01*
X576578Y528485D01*
X576663Y528429D01*
X576750Y528377D01*
X576838Y528328D01*
X576929Y528282D01*
X577021Y528241D01*
X577115Y528202D01*
X577210Y528168D01*
X577306Y528137D01*
X577404Y528110D01*
X577502Y528086D01*
X577602Y528067D01*
X577702Y528051D01*
X577802Y528039D01*
X577903Y528031D01*
X578004Y528027D01*
X578106Y528027D01*
X578207Y528031D01*
X578308Y528039D01*
X578408Y528051D01*
X578508Y528067D01*
X578608Y528086D01*
X578706Y528110D01*
X578804Y528137D01*
X578900Y528168D01*
X578995Y528202D01*
X579089Y528241D01*
X579181Y528282D01*
X579272Y528328D01*
X579361Y528377D01*
X579447Y528429D01*
X579532Y528485D01*
X579614Y528544D01*
X579694Y528606D01*
X579772Y528671D01*
X579847Y528739D01*
X579919Y528810D01*
X579989Y528883D01*
X580055Y528960D01*
X580119Y529038D01*
X580179Y529120D01*
X580236Y529203D01*
X580290Y529289D01*
X580341Y529377D01*
X580388Y529466D01*
X580432Y529558D01*
X580472Y529651D01*
X580509Y529745D01*
X580541Y529841D01*
X580570Y529938D01*
X580596Y530036D01*
X580617Y530135D01*
X580635Y530235D01*
X580648Y530335D01*
X580658Y530436D01*
X580664Y530537D01*
X580666Y530638D01*
X580665Y530638D02*
X580665Y533248D01*
X580663Y533374D01*
X580657Y533500D01*
X580648Y533626D01*
X580635Y533751D01*
X580617Y533876D01*
X580597Y534001D01*
X580572Y534125D01*
X580544Y534248D01*
X580512Y534370D01*
X580476Y534491D01*
X580437Y534611D01*
X580394Y534729D01*
X580347Y534846D01*
X580297Y534962D01*
X580243Y535077D01*
X580187Y535189D01*
X580126Y535300D01*
X580063Y535409D01*
X579996Y535516D01*
X579926Y535621D01*
X579852Y535724D01*
X579776Y535824D01*
X579697Y535922D01*
X579615Y536018D01*
X579529Y536111D01*
X579442Y536202D01*
X579351Y536289D01*
X579258Y536375D01*
X579162Y536457D01*
X579064Y536536D01*
X578964Y536612D01*
X578861Y536686D01*
X578756Y536756D01*
X578649Y536823D01*
X578540Y536886D01*
X578429Y536947D01*
X578317Y537003D01*
X578202Y537057D01*
X578086Y537107D01*
X577969Y537154D01*
X577851Y537197D01*
X577731Y537236D01*
X577610Y537272D01*
X577488Y537304D01*
X577365Y537332D01*
X577241Y537357D01*
X577116Y537377D01*
X576991Y537395D01*
X576866Y537408D01*
X576740Y537417D01*
X576614Y537423D01*
X576488Y537425D01*
X504456Y489901D02*
X502367Y489901D01*
X504456Y489901D02*
X504545Y489903D01*
X504633Y489909D01*
X504721Y489918D01*
X504809Y489931D01*
X504896Y489948D01*
X504982Y489968D01*
X505067Y489993D01*
X505152Y490020D01*
X505235Y490052D01*
X505316Y490086D01*
X505396Y490125D01*
X505474Y490166D01*
X505551Y490211D01*
X505625Y490259D01*
X505698Y490310D01*
X505768Y490364D01*
X505835Y490422D01*
X505901Y490482D01*
X505963Y490544D01*
X506023Y490610D01*
X506081Y490677D01*
X506135Y490747D01*
X506186Y490820D01*
X506234Y490894D01*
X506279Y490971D01*
X506320Y491049D01*
X506359Y491129D01*
X506393Y491210D01*
X506425Y491293D01*
X506452Y491378D01*
X506477Y491463D01*
X506497Y491549D01*
X506514Y491636D01*
X506527Y491724D01*
X506536Y491812D01*
X506542Y491900D01*
X506544Y491989D01*
X506544Y497211D01*
X506542Y497300D01*
X506536Y497388D01*
X506527Y497476D01*
X506514Y497564D01*
X506497Y497651D01*
X506477Y497737D01*
X506452Y497822D01*
X506425Y497907D01*
X506393Y497990D01*
X506359Y498071D01*
X506320Y498151D01*
X506279Y498229D01*
X506234Y498306D01*
X506186Y498380D01*
X506135Y498453D01*
X506081Y498523D01*
X506023Y498590D01*
X505963Y498656D01*
X505901Y498718D01*
X505835Y498778D01*
X505768Y498836D01*
X505698Y498890D01*
X505625Y498941D01*
X505551Y498989D01*
X505474Y499034D01*
X505396Y499075D01*
X505316Y499114D01*
X505235Y499148D01*
X505152Y499180D01*
X505067Y499207D01*
X504982Y499232D01*
X504896Y499252D01*
X504809Y499269D01*
X504721Y499282D01*
X504633Y499291D01*
X504545Y499297D01*
X504456Y499299D01*
X502367Y499299D01*
X498898Y499299D02*
X498898Y498255D01*
X498898Y499299D02*
X493677Y499299D01*
X496288Y489901D01*
X329171Y833209D02*
X329171Y835298D01*
X329171Y833209D02*
X329173Y833120D01*
X329179Y833032D01*
X329188Y832944D01*
X329201Y832856D01*
X329218Y832769D01*
X329238Y832683D01*
X329263Y832598D01*
X329290Y832513D01*
X329322Y832430D01*
X329356Y832349D01*
X329395Y832269D01*
X329436Y832191D01*
X329481Y832114D01*
X329529Y832040D01*
X329580Y831967D01*
X329634Y831897D01*
X329692Y831830D01*
X329752Y831764D01*
X329814Y831702D01*
X329880Y831642D01*
X329947Y831584D01*
X330017Y831530D01*
X330090Y831479D01*
X330164Y831431D01*
X330241Y831386D01*
X330319Y831345D01*
X330399Y831306D01*
X330480Y831272D01*
X330563Y831240D01*
X330648Y831213D01*
X330733Y831188D01*
X330819Y831168D01*
X330906Y831151D01*
X330994Y831138D01*
X331082Y831129D01*
X331170Y831123D01*
X331259Y831121D01*
X336481Y831121D01*
X336572Y831123D01*
X336663Y831129D01*
X336754Y831139D01*
X336844Y831153D01*
X336933Y831170D01*
X337021Y831192D01*
X337109Y831218D01*
X337195Y831247D01*
X337280Y831280D01*
X337363Y831317D01*
X337445Y831357D01*
X337525Y831401D01*
X337603Y831448D01*
X337679Y831499D01*
X337752Y831552D01*
X337823Y831609D01*
X337892Y831670D01*
X337957Y831733D01*
X338020Y831798D01*
X338080Y831867D01*
X338138Y831938D01*
X338191Y832011D01*
X338242Y832087D01*
X338289Y832165D01*
X338333Y832245D01*
X338373Y832327D01*
X338410Y832410D01*
X338443Y832495D01*
X338472Y832581D01*
X338498Y832669D01*
X338520Y832757D01*
X338537Y832846D01*
X338551Y832936D01*
X338561Y833027D01*
X338567Y833118D01*
X338569Y833209D01*
X338569Y835298D01*
X331782Y838766D02*
X331883Y838768D01*
X331984Y838774D01*
X332085Y838784D01*
X332185Y838797D01*
X332285Y838815D01*
X332384Y838836D01*
X332482Y838862D01*
X332579Y838891D01*
X332675Y838923D01*
X332769Y838960D01*
X332862Y839000D01*
X332954Y839044D01*
X333043Y839091D01*
X333131Y839142D01*
X333217Y839196D01*
X333300Y839253D01*
X333382Y839313D01*
X333460Y839377D01*
X333537Y839443D01*
X333610Y839513D01*
X333681Y839585D01*
X333749Y839660D01*
X333814Y839738D01*
X333876Y839818D01*
X333935Y839900D01*
X333991Y839985D01*
X334043Y840072D01*
X334092Y840160D01*
X334138Y840251D01*
X334179Y840343D01*
X334218Y840437D01*
X334252Y840532D01*
X334283Y840628D01*
X334310Y840726D01*
X334334Y840824D01*
X334353Y840924D01*
X334369Y841024D01*
X334381Y841124D01*
X334389Y841225D01*
X334393Y841326D01*
X334393Y841428D01*
X334389Y841529D01*
X334381Y841630D01*
X334369Y841730D01*
X334353Y841830D01*
X334334Y841930D01*
X334310Y842028D01*
X334283Y842126D01*
X334252Y842222D01*
X334218Y842317D01*
X334179Y842411D01*
X334138Y842503D01*
X334092Y842594D01*
X334043Y842683D01*
X333991Y842769D01*
X333935Y842854D01*
X333876Y842936D01*
X333814Y843016D01*
X333749Y843094D01*
X333681Y843169D01*
X333610Y843241D01*
X333537Y843311D01*
X333460Y843377D01*
X333382Y843441D01*
X333300Y843501D01*
X333217Y843558D01*
X333131Y843612D01*
X333043Y843663D01*
X332954Y843710D01*
X332862Y843754D01*
X332769Y843794D01*
X332675Y843831D01*
X332579Y843863D01*
X332482Y843892D01*
X332384Y843918D01*
X332285Y843939D01*
X332185Y843957D01*
X332085Y843970D01*
X331984Y843980D01*
X331883Y843986D01*
X331782Y843988D01*
X331681Y843986D01*
X331580Y843980D01*
X331479Y843970D01*
X331379Y843957D01*
X331279Y843939D01*
X331180Y843918D01*
X331082Y843892D01*
X330985Y843863D01*
X330889Y843831D01*
X330795Y843794D01*
X330702Y843754D01*
X330610Y843710D01*
X330521Y843663D01*
X330433Y843612D01*
X330347Y843558D01*
X330264Y843501D01*
X330182Y843441D01*
X330104Y843377D01*
X330027Y843311D01*
X329954Y843241D01*
X329883Y843169D01*
X329815Y843094D01*
X329750Y843016D01*
X329688Y842936D01*
X329629Y842854D01*
X329573Y842769D01*
X329521Y842683D01*
X329472Y842594D01*
X329426Y842503D01*
X329385Y842411D01*
X329346Y842317D01*
X329312Y842222D01*
X329281Y842126D01*
X329254Y842028D01*
X329230Y841930D01*
X329211Y841830D01*
X329195Y841730D01*
X329183Y841630D01*
X329175Y841529D01*
X329171Y841428D01*
X329171Y841326D01*
X329175Y841225D01*
X329183Y841124D01*
X329195Y841024D01*
X329211Y840924D01*
X329230Y840824D01*
X329254Y840726D01*
X329281Y840628D01*
X329312Y840532D01*
X329346Y840437D01*
X329385Y840343D01*
X329426Y840251D01*
X329472Y840160D01*
X329521Y840072D01*
X329573Y839985D01*
X329629Y839900D01*
X329688Y839818D01*
X329750Y839738D01*
X329815Y839660D01*
X329883Y839585D01*
X329954Y839513D01*
X330027Y839443D01*
X330104Y839377D01*
X330182Y839313D01*
X330264Y839253D01*
X330347Y839196D01*
X330433Y839142D01*
X330521Y839091D01*
X330610Y839044D01*
X330702Y839000D01*
X330795Y838960D01*
X330889Y838923D01*
X330985Y838891D01*
X331082Y838862D01*
X331180Y838836D01*
X331279Y838815D01*
X331379Y838797D01*
X331479Y838784D01*
X331580Y838774D01*
X331681Y838768D01*
X331782Y838766D01*
X336481Y839289D02*
X336571Y839291D01*
X336660Y839297D01*
X336750Y839306D01*
X336839Y839320D01*
X336927Y839337D01*
X337014Y839358D01*
X337101Y839383D01*
X337186Y839412D01*
X337270Y839444D01*
X337352Y839479D01*
X337433Y839519D01*
X337512Y839561D01*
X337589Y839607D01*
X337664Y839657D01*
X337737Y839709D01*
X337808Y839765D01*
X337876Y839823D01*
X337941Y839885D01*
X338004Y839949D01*
X338064Y840016D01*
X338121Y840085D01*
X338175Y840157D01*
X338226Y840231D01*
X338274Y840307D01*
X338318Y840385D01*
X338359Y840465D01*
X338397Y840547D01*
X338431Y840630D01*
X338461Y840715D01*
X338488Y840801D01*
X338511Y840887D01*
X338530Y840975D01*
X338545Y841064D01*
X338557Y841153D01*
X338565Y841242D01*
X338569Y841332D01*
X338569Y841422D01*
X338565Y841512D01*
X338557Y841601D01*
X338545Y841690D01*
X338530Y841779D01*
X338511Y841867D01*
X338488Y841953D01*
X338461Y842039D01*
X338431Y842124D01*
X338397Y842207D01*
X338359Y842289D01*
X338318Y842369D01*
X338274Y842447D01*
X338226Y842523D01*
X338175Y842597D01*
X338121Y842669D01*
X338064Y842738D01*
X338004Y842805D01*
X337941Y842869D01*
X337876Y842931D01*
X337808Y842989D01*
X337737Y843045D01*
X337664Y843097D01*
X337589Y843147D01*
X337512Y843193D01*
X337433Y843235D01*
X337352Y843275D01*
X337270Y843310D01*
X337186Y843342D01*
X337101Y843371D01*
X337014Y843396D01*
X336927Y843417D01*
X336839Y843434D01*
X336750Y843448D01*
X336660Y843457D01*
X336571Y843463D01*
X336481Y843465D01*
X336391Y843463D01*
X336302Y843457D01*
X336212Y843448D01*
X336123Y843434D01*
X336035Y843417D01*
X335948Y843396D01*
X335861Y843371D01*
X335776Y843342D01*
X335692Y843310D01*
X335610Y843275D01*
X335529Y843235D01*
X335450Y843193D01*
X335373Y843147D01*
X335298Y843097D01*
X335225Y843045D01*
X335154Y842989D01*
X335086Y842931D01*
X335021Y842869D01*
X334958Y842805D01*
X334898Y842738D01*
X334841Y842669D01*
X334787Y842597D01*
X334736Y842523D01*
X334688Y842447D01*
X334644Y842369D01*
X334603Y842289D01*
X334565Y842207D01*
X334531Y842124D01*
X334501Y842039D01*
X334474Y841953D01*
X334451Y841867D01*
X334432Y841779D01*
X334417Y841690D01*
X334405Y841601D01*
X334397Y841512D01*
X334393Y841422D01*
X334393Y841332D01*
X334397Y841242D01*
X334405Y841153D01*
X334417Y841064D01*
X334432Y840975D01*
X334451Y840887D01*
X334474Y840801D01*
X334501Y840715D01*
X334531Y840630D01*
X334565Y840547D01*
X334603Y840465D01*
X334644Y840385D01*
X334688Y840307D01*
X334736Y840231D01*
X334787Y840157D01*
X334841Y840085D01*
X334898Y840016D01*
X334958Y839949D01*
X335021Y839885D01*
X335086Y839823D01*
X335154Y839765D01*
X335225Y839709D01*
X335298Y839657D01*
X335373Y839607D01*
X335450Y839561D01*
X335529Y839519D01*
X335610Y839479D01*
X335692Y839444D01*
X335776Y839412D01*
X335861Y839383D01*
X335948Y839358D01*
X336035Y839337D01*
X336123Y839320D01*
X336212Y839306D01*
X336302Y839297D01*
X336391Y839291D01*
X336481Y839289D01*
X374991Y845706D02*
X377079Y845706D01*
X377168Y845708D01*
X377256Y845714D01*
X377344Y845723D01*
X377432Y845736D01*
X377519Y845753D01*
X377605Y845773D01*
X377690Y845798D01*
X377775Y845825D01*
X377858Y845857D01*
X377939Y845891D01*
X378019Y845930D01*
X378097Y845971D01*
X378174Y846016D01*
X378248Y846064D01*
X378321Y846115D01*
X378391Y846169D01*
X378458Y846227D01*
X378524Y846287D01*
X378586Y846349D01*
X378646Y846415D01*
X378704Y846482D01*
X378758Y846552D01*
X378809Y846625D01*
X378857Y846699D01*
X378902Y846776D01*
X378943Y846854D01*
X378982Y846934D01*
X379016Y847015D01*
X379048Y847098D01*
X379075Y847183D01*
X379100Y847268D01*
X379120Y847354D01*
X379137Y847441D01*
X379150Y847529D01*
X379159Y847617D01*
X379165Y847705D01*
X379167Y847794D01*
X379168Y847794D02*
X379168Y853016D01*
X379167Y853016D02*
X379165Y853105D01*
X379159Y853193D01*
X379150Y853281D01*
X379137Y853369D01*
X379120Y853456D01*
X379100Y853542D01*
X379075Y853627D01*
X379048Y853712D01*
X379016Y853795D01*
X378982Y853876D01*
X378943Y853956D01*
X378902Y854034D01*
X378857Y854111D01*
X378809Y854185D01*
X378758Y854258D01*
X378704Y854328D01*
X378646Y854395D01*
X378586Y854461D01*
X378524Y854523D01*
X378458Y854583D01*
X378391Y854641D01*
X378321Y854695D01*
X378248Y854746D01*
X378174Y854794D01*
X378097Y854839D01*
X378019Y854880D01*
X377939Y854919D01*
X377858Y854953D01*
X377775Y854985D01*
X377690Y855012D01*
X377605Y855037D01*
X377519Y855057D01*
X377432Y855074D01*
X377344Y855087D01*
X377256Y855096D01*
X377168Y855102D01*
X377079Y855104D01*
X374991Y855104D01*
X369434Y849883D02*
X366301Y849883D01*
X369434Y849883D02*
X369523Y849885D01*
X369611Y849891D01*
X369699Y849900D01*
X369787Y849913D01*
X369874Y849930D01*
X369960Y849950D01*
X370045Y849975D01*
X370130Y850002D01*
X370213Y850034D01*
X370294Y850068D01*
X370374Y850107D01*
X370452Y850148D01*
X370529Y850193D01*
X370603Y850241D01*
X370676Y850292D01*
X370746Y850346D01*
X370813Y850404D01*
X370879Y850464D01*
X370941Y850526D01*
X371001Y850592D01*
X371059Y850659D01*
X371113Y850729D01*
X371164Y850802D01*
X371212Y850876D01*
X371257Y850953D01*
X371298Y851031D01*
X371337Y851111D01*
X371371Y851192D01*
X371403Y851275D01*
X371430Y851360D01*
X371455Y851445D01*
X371475Y851531D01*
X371492Y851618D01*
X371505Y851706D01*
X371514Y851794D01*
X371520Y851882D01*
X371522Y851971D01*
X371522Y852493D01*
X371523Y852493D02*
X371521Y852594D01*
X371515Y852695D01*
X371505Y852796D01*
X371492Y852896D01*
X371474Y852996D01*
X371453Y853095D01*
X371427Y853193D01*
X371398Y853290D01*
X371366Y853386D01*
X371329Y853480D01*
X371289Y853573D01*
X371245Y853665D01*
X371198Y853754D01*
X371147Y853842D01*
X371093Y853928D01*
X371036Y854011D01*
X370976Y854093D01*
X370912Y854171D01*
X370846Y854248D01*
X370776Y854321D01*
X370704Y854392D01*
X370629Y854460D01*
X370551Y854525D01*
X370471Y854587D01*
X370389Y854646D01*
X370304Y854702D01*
X370218Y854754D01*
X370129Y854803D01*
X370038Y854849D01*
X369946Y854890D01*
X369852Y854929D01*
X369757Y854963D01*
X369661Y854994D01*
X369563Y855021D01*
X369465Y855045D01*
X369365Y855064D01*
X369265Y855080D01*
X369165Y855092D01*
X369064Y855100D01*
X368963Y855104D01*
X368861Y855104D01*
X368760Y855100D01*
X368659Y855092D01*
X368559Y855080D01*
X368459Y855064D01*
X368359Y855045D01*
X368261Y855021D01*
X368163Y854994D01*
X368067Y854963D01*
X367972Y854929D01*
X367878Y854890D01*
X367786Y854849D01*
X367695Y854803D01*
X367607Y854754D01*
X367520Y854702D01*
X367435Y854646D01*
X367353Y854587D01*
X367273Y854525D01*
X367195Y854460D01*
X367120Y854392D01*
X367048Y854321D01*
X366978Y854248D01*
X366912Y854171D01*
X366848Y854093D01*
X366788Y854011D01*
X366731Y853928D01*
X366677Y853842D01*
X366626Y853754D01*
X366579Y853665D01*
X366535Y853573D01*
X366495Y853480D01*
X366458Y853386D01*
X366426Y853290D01*
X366397Y853193D01*
X366371Y853095D01*
X366350Y852996D01*
X366332Y852896D01*
X366319Y852796D01*
X366309Y852695D01*
X366303Y852594D01*
X366301Y852493D01*
X366301Y849883D01*
X366303Y849757D01*
X366309Y849631D01*
X366318Y849505D01*
X366331Y849380D01*
X366349Y849255D01*
X366369Y849130D01*
X366394Y849006D01*
X366422Y848883D01*
X366454Y848761D01*
X366490Y848640D01*
X366529Y848520D01*
X366572Y848402D01*
X366619Y848285D01*
X366669Y848169D01*
X366723Y848054D01*
X366779Y847942D01*
X366840Y847831D01*
X366903Y847722D01*
X366970Y847615D01*
X367040Y847510D01*
X367114Y847407D01*
X367190Y847307D01*
X367269Y847209D01*
X367351Y847113D01*
X367437Y847020D01*
X367524Y846929D01*
X367615Y846842D01*
X367708Y846756D01*
X367804Y846674D01*
X367902Y846595D01*
X368002Y846519D01*
X368105Y846445D01*
X368210Y846375D01*
X368317Y846308D01*
X368426Y846245D01*
X368537Y846184D01*
X368649Y846128D01*
X368764Y846074D01*
X368880Y846024D01*
X368997Y845977D01*
X369115Y845934D01*
X369235Y845895D01*
X369356Y845859D01*
X369478Y845827D01*
X369601Y845799D01*
X369725Y845774D01*
X369850Y845754D01*
X369975Y845736D01*
X370100Y845723D01*
X370226Y845714D01*
X370352Y845708D01*
X370478Y845706D01*
D12*
X570955Y598953D02*
X570955Y587269D01*
X570955Y598953D02*
X567709Y598953D01*
X567596Y598951D01*
X567483Y598945D01*
X567370Y598935D01*
X567257Y598921D01*
X567145Y598904D01*
X567034Y598882D01*
X566924Y598857D01*
X566814Y598827D01*
X566706Y598794D01*
X566599Y598757D01*
X566493Y598717D01*
X566389Y598672D01*
X566286Y598624D01*
X566185Y598573D01*
X566086Y598518D01*
X565989Y598460D01*
X565894Y598398D01*
X565801Y598333D01*
X565711Y598265D01*
X565623Y598194D01*
X565537Y598119D01*
X565454Y598042D01*
X565374Y597962D01*
X565297Y597879D01*
X565222Y597793D01*
X565151Y597705D01*
X565083Y597615D01*
X565018Y597522D01*
X564956Y597427D01*
X564898Y597330D01*
X564843Y597231D01*
X564792Y597130D01*
X564744Y597027D01*
X564699Y596923D01*
X564659Y596817D01*
X564622Y596710D01*
X564589Y596602D01*
X564559Y596492D01*
X564534Y596382D01*
X564512Y596271D01*
X564495Y596159D01*
X564481Y596046D01*
X564471Y595933D01*
X564465Y595820D01*
X564463Y595707D01*
X564465Y595594D01*
X564471Y595481D01*
X564481Y595368D01*
X564495Y595255D01*
X564512Y595143D01*
X564534Y595032D01*
X564559Y594922D01*
X564589Y594812D01*
X564622Y594704D01*
X564659Y594597D01*
X564699Y594491D01*
X564744Y594387D01*
X564792Y594284D01*
X564843Y594183D01*
X564898Y594084D01*
X564956Y593987D01*
X565018Y593892D01*
X565083Y593799D01*
X565151Y593709D01*
X565222Y593621D01*
X565297Y593535D01*
X565374Y593452D01*
X565454Y593372D01*
X565537Y593295D01*
X565623Y593220D01*
X565711Y593149D01*
X565801Y593081D01*
X565894Y593016D01*
X565989Y592954D01*
X566086Y592896D01*
X566185Y592841D01*
X566286Y592790D01*
X566389Y592742D01*
X566493Y592697D01*
X566599Y592657D01*
X566706Y592620D01*
X566814Y592587D01*
X566924Y592557D01*
X567034Y592532D01*
X567145Y592510D01*
X567257Y592493D01*
X567370Y592479D01*
X567483Y592469D01*
X567596Y592463D01*
X567709Y592461D01*
X570955Y592461D01*
X567060Y592461D02*
X564463Y587269D01*
X559598Y596356D02*
X556353Y598953D01*
X556353Y587269D01*
X559598Y587269D02*
X553107Y587269D01*
X548168Y596356D02*
X544923Y598953D01*
X544923Y587269D01*
X548168Y587269D02*
X541677Y587269D01*
D13*
X402983Y552893D02*
X400894Y552893D01*
X402983Y552893D02*
X403072Y552895D01*
X403160Y552901D01*
X403248Y552910D01*
X403336Y552923D01*
X403423Y552940D01*
X403509Y552960D01*
X403594Y552985D01*
X403679Y553012D01*
X403762Y553044D01*
X403843Y553078D01*
X403923Y553117D01*
X404001Y553158D01*
X404078Y553203D01*
X404152Y553251D01*
X404225Y553302D01*
X404295Y553356D01*
X404362Y553414D01*
X404428Y553474D01*
X404490Y553536D01*
X404550Y553602D01*
X404608Y553669D01*
X404662Y553739D01*
X404713Y553812D01*
X404761Y553886D01*
X404806Y553963D01*
X404847Y554041D01*
X404886Y554121D01*
X404920Y554202D01*
X404952Y554285D01*
X404979Y554370D01*
X405004Y554455D01*
X405024Y554541D01*
X405041Y554628D01*
X405054Y554716D01*
X405063Y554804D01*
X405069Y554892D01*
X405071Y554981D01*
X405071Y560203D01*
X405069Y560292D01*
X405063Y560380D01*
X405054Y560468D01*
X405041Y560556D01*
X405024Y560643D01*
X405004Y560729D01*
X404979Y560814D01*
X404952Y560899D01*
X404920Y560982D01*
X404886Y561063D01*
X404847Y561143D01*
X404806Y561221D01*
X404761Y561298D01*
X404713Y561372D01*
X404662Y561445D01*
X404608Y561515D01*
X404550Y561582D01*
X404490Y561648D01*
X404428Y561710D01*
X404362Y561770D01*
X404295Y561828D01*
X404225Y561882D01*
X404152Y561933D01*
X404078Y561981D01*
X404001Y562026D01*
X403923Y562067D01*
X403843Y562106D01*
X403762Y562140D01*
X403679Y562172D01*
X403594Y562199D01*
X403509Y562224D01*
X403423Y562244D01*
X403336Y562261D01*
X403248Y562274D01*
X403160Y562283D01*
X403072Y562289D01*
X402983Y562291D01*
X400894Y562291D01*
X397425Y560203D02*
X394815Y562291D01*
X394815Y552893D01*
X397425Y552893D02*
X392204Y552893D01*
X388282Y557592D02*
X388280Y557777D01*
X388273Y557962D01*
X388262Y558146D01*
X388247Y558330D01*
X388227Y558514D01*
X388203Y558698D01*
X388174Y558880D01*
X388141Y559062D01*
X388104Y559243D01*
X388062Y559423D01*
X388016Y559603D01*
X387966Y559781D01*
X387912Y559957D01*
X387853Y560133D01*
X387791Y560307D01*
X387724Y560479D01*
X387653Y560650D01*
X387578Y560819D01*
X387499Y560986D01*
X387469Y561066D01*
X387436Y561145D01*
X387399Y561222D01*
X387359Y561298D01*
X387316Y561372D01*
X387270Y561444D01*
X387220Y561513D01*
X387168Y561581D01*
X387112Y561646D01*
X387054Y561709D01*
X386992Y561768D01*
X386929Y561826D01*
X386862Y561880D01*
X386794Y561931D01*
X386723Y561979D01*
X386650Y562024D01*
X386576Y562066D01*
X386499Y562104D01*
X386421Y562139D01*
X386342Y562171D01*
X386261Y562199D01*
X386179Y562223D01*
X386095Y562244D01*
X386012Y562261D01*
X385927Y562274D01*
X385842Y562283D01*
X385757Y562289D01*
X385671Y562291D01*
X385585Y562289D01*
X385500Y562283D01*
X385415Y562274D01*
X385330Y562261D01*
X385247Y562244D01*
X385163Y562223D01*
X385081Y562199D01*
X385001Y562171D01*
X384921Y562139D01*
X384843Y562104D01*
X384766Y562066D01*
X384692Y562024D01*
X384619Y561979D01*
X384548Y561931D01*
X384480Y561880D01*
X384413Y561826D01*
X384350Y561768D01*
X384289Y561709D01*
X384230Y561646D01*
X384175Y561581D01*
X384122Y561513D01*
X384072Y561444D01*
X384026Y561372D01*
X383983Y561298D01*
X383943Y561222D01*
X383906Y561145D01*
X383873Y561066D01*
X383843Y560986D01*
X383764Y560819D01*
X383689Y560650D01*
X383618Y560479D01*
X383551Y560307D01*
X383489Y560133D01*
X383430Y559957D01*
X383376Y559781D01*
X383326Y559603D01*
X383280Y559423D01*
X383238Y559243D01*
X383201Y559062D01*
X383168Y558880D01*
X383139Y558698D01*
X383115Y558514D01*
X383095Y558330D01*
X383080Y558146D01*
X383069Y557962D01*
X383062Y557777D01*
X383060Y557592D01*
X388281Y557592D02*
X388279Y557407D01*
X388272Y557222D01*
X388261Y557038D01*
X388246Y556854D01*
X388226Y556670D01*
X388202Y556486D01*
X388173Y556304D01*
X388140Y556122D01*
X388103Y555941D01*
X388061Y555761D01*
X388015Y555581D01*
X387965Y555403D01*
X387911Y555227D01*
X387852Y555051D01*
X387790Y554877D01*
X387723Y554705D01*
X387652Y554534D01*
X387577Y554365D01*
X387498Y554198D01*
X387499Y554198D02*
X387469Y554118D01*
X387436Y554039D01*
X387399Y553962D01*
X387359Y553886D01*
X387316Y553812D01*
X387270Y553740D01*
X387220Y553671D01*
X387167Y553603D01*
X387112Y553538D01*
X387053Y553475D01*
X386992Y553416D01*
X386929Y553358D01*
X386862Y553304D01*
X386794Y553253D01*
X386723Y553205D01*
X386650Y553160D01*
X386576Y553118D01*
X386499Y553080D01*
X386421Y553045D01*
X386342Y553013D01*
X386261Y552985D01*
X386179Y552961D01*
X386095Y552940D01*
X386012Y552923D01*
X385927Y552910D01*
X385842Y552901D01*
X385757Y552895D01*
X385671Y552893D01*
X383843Y554198D02*
X383764Y554365D01*
X383689Y554534D01*
X383618Y554705D01*
X383551Y554877D01*
X383489Y555051D01*
X383430Y555227D01*
X383376Y555403D01*
X383326Y555581D01*
X383280Y555761D01*
X383238Y555941D01*
X383201Y556122D01*
X383168Y556304D01*
X383139Y556486D01*
X383115Y556670D01*
X383095Y556854D01*
X383080Y557038D01*
X383069Y557222D01*
X383062Y557407D01*
X383060Y557592D01*
X383843Y554198D02*
X383873Y554118D01*
X383906Y554039D01*
X383943Y553962D01*
X383983Y553886D01*
X384026Y553812D01*
X384072Y553740D01*
X384122Y553671D01*
X384175Y553603D01*
X384230Y553538D01*
X384289Y553475D01*
X384350Y553416D01*
X384413Y553358D01*
X384480Y553304D01*
X384548Y553253D01*
X384619Y553205D01*
X384692Y553160D01*
X384766Y553118D01*
X384843Y553080D01*
X384921Y553045D01*
X385001Y553013D01*
X385081Y552985D01*
X385163Y552961D01*
X385247Y552940D01*
X385330Y552923D01*
X385415Y552910D01*
X385500Y552901D01*
X385585Y552895D01*
X385671Y552893D01*
X387759Y554981D02*
X383582Y560203D01*
X398354Y528890D02*
X400443Y528890D01*
X400532Y528892D01*
X400620Y528898D01*
X400708Y528907D01*
X400796Y528920D01*
X400883Y528937D01*
X400969Y528957D01*
X401054Y528982D01*
X401139Y529009D01*
X401222Y529041D01*
X401303Y529075D01*
X401383Y529114D01*
X401461Y529155D01*
X401538Y529200D01*
X401612Y529248D01*
X401685Y529299D01*
X401755Y529353D01*
X401822Y529411D01*
X401888Y529471D01*
X401950Y529533D01*
X402010Y529599D01*
X402068Y529666D01*
X402122Y529736D01*
X402173Y529809D01*
X402221Y529883D01*
X402266Y529960D01*
X402307Y530038D01*
X402346Y530118D01*
X402380Y530199D01*
X402412Y530282D01*
X402439Y530367D01*
X402464Y530452D01*
X402484Y530538D01*
X402501Y530625D01*
X402514Y530713D01*
X402523Y530801D01*
X402529Y530889D01*
X402531Y530978D01*
X402531Y536200D01*
X402529Y536289D01*
X402523Y536377D01*
X402514Y536465D01*
X402501Y536553D01*
X402484Y536640D01*
X402464Y536726D01*
X402439Y536811D01*
X402412Y536896D01*
X402380Y536979D01*
X402346Y537060D01*
X402307Y537140D01*
X402266Y537218D01*
X402221Y537295D01*
X402173Y537369D01*
X402122Y537442D01*
X402068Y537512D01*
X402010Y537579D01*
X401950Y537645D01*
X401888Y537707D01*
X401822Y537767D01*
X401755Y537825D01*
X401685Y537879D01*
X401612Y537930D01*
X401538Y537978D01*
X401461Y538023D01*
X401383Y538064D01*
X401303Y538103D01*
X401222Y538137D01*
X401139Y538169D01*
X401054Y538196D01*
X400969Y538221D01*
X400883Y538241D01*
X400796Y538258D01*
X400708Y538271D01*
X400620Y538280D01*
X400532Y538286D01*
X400443Y538288D01*
X398354Y538288D01*
X394885Y536200D02*
X392275Y538288D01*
X392275Y528890D01*
X394885Y528890D02*
X389664Y528890D01*
X385741Y536200D02*
X383131Y538288D01*
X383131Y528890D01*
X385741Y528890D02*
X380520Y528890D01*
X369836Y602423D02*
X367747Y602423D01*
X369836Y602423D02*
X369925Y602425D01*
X370013Y602431D01*
X370101Y602440D01*
X370189Y602453D01*
X370276Y602470D01*
X370362Y602490D01*
X370447Y602515D01*
X370532Y602542D01*
X370615Y602574D01*
X370696Y602608D01*
X370776Y602647D01*
X370854Y602688D01*
X370931Y602733D01*
X371005Y602781D01*
X371078Y602832D01*
X371148Y602886D01*
X371215Y602944D01*
X371281Y603004D01*
X371343Y603066D01*
X371403Y603132D01*
X371461Y603199D01*
X371515Y603269D01*
X371566Y603342D01*
X371614Y603416D01*
X371659Y603493D01*
X371700Y603571D01*
X371739Y603651D01*
X371773Y603732D01*
X371805Y603815D01*
X371832Y603900D01*
X371857Y603985D01*
X371877Y604071D01*
X371894Y604158D01*
X371907Y604246D01*
X371916Y604334D01*
X371922Y604422D01*
X371924Y604511D01*
X371924Y609733D01*
X371922Y609822D01*
X371916Y609910D01*
X371907Y609998D01*
X371894Y610086D01*
X371877Y610173D01*
X371857Y610259D01*
X371832Y610344D01*
X371805Y610429D01*
X371773Y610512D01*
X371739Y610593D01*
X371700Y610673D01*
X371659Y610751D01*
X371614Y610828D01*
X371566Y610902D01*
X371515Y610975D01*
X371461Y611045D01*
X371403Y611112D01*
X371343Y611178D01*
X371281Y611240D01*
X371215Y611300D01*
X371148Y611358D01*
X371078Y611412D01*
X371005Y611463D01*
X370931Y611511D01*
X370854Y611556D01*
X370776Y611597D01*
X370696Y611636D01*
X370615Y611670D01*
X370532Y611702D01*
X370447Y611729D01*
X370362Y611754D01*
X370276Y611774D01*
X370189Y611791D01*
X370101Y611804D01*
X370013Y611813D01*
X369925Y611819D01*
X369836Y611821D01*
X367747Y611821D01*
X364278Y609733D02*
X361668Y611821D01*
X361668Y602423D01*
X364278Y602423D02*
X359057Y602423D01*
X349913Y609472D02*
X349915Y609567D01*
X349921Y609661D01*
X349930Y609755D01*
X349943Y609849D01*
X349960Y609942D01*
X349981Y610034D01*
X350006Y610126D01*
X350034Y610216D01*
X350066Y610305D01*
X350101Y610393D01*
X350140Y610479D01*
X350182Y610564D01*
X350228Y610647D01*
X350277Y610728D01*
X350329Y610807D01*
X350384Y610884D01*
X350443Y610958D01*
X350504Y611030D01*
X350568Y611100D01*
X350635Y611167D01*
X350705Y611231D01*
X350777Y611292D01*
X350851Y611351D01*
X350928Y611406D01*
X351007Y611458D01*
X351088Y611507D01*
X351171Y611553D01*
X351256Y611595D01*
X351342Y611634D01*
X351430Y611669D01*
X351519Y611701D01*
X351609Y611729D01*
X351701Y611754D01*
X351793Y611775D01*
X351886Y611792D01*
X351980Y611805D01*
X352074Y611814D01*
X352168Y611820D01*
X352263Y611822D01*
X352263Y611821D02*
X352371Y611819D01*
X352480Y611813D01*
X352588Y611803D01*
X352695Y611790D01*
X352802Y611772D01*
X352909Y611751D01*
X353014Y611726D01*
X353119Y611697D01*
X353222Y611665D01*
X353324Y611628D01*
X353425Y611588D01*
X353524Y611545D01*
X353622Y611498D01*
X353718Y611447D01*
X353812Y611393D01*
X353904Y611336D01*
X353994Y611275D01*
X354082Y611211D01*
X354167Y611145D01*
X354250Y611075D01*
X354330Y611002D01*
X354408Y610926D01*
X354483Y610848D01*
X354555Y610767D01*
X354624Y610683D01*
X354690Y610597D01*
X354753Y610509D01*
X354812Y610418D01*
X354869Y610326D01*
X354922Y610231D01*
X354971Y610134D01*
X355017Y610036D01*
X355060Y609937D01*
X355099Y609835D01*
X355134Y609733D01*
X350696Y607644D02*
X350627Y607713D01*
X350561Y607784D01*
X350497Y607857D01*
X350436Y607933D01*
X350378Y608012D01*
X350324Y608092D01*
X350272Y608175D01*
X350224Y608259D01*
X350178Y608345D01*
X350137Y608433D01*
X350098Y608523D01*
X350063Y608614D01*
X350032Y608706D01*
X350004Y608799D01*
X349980Y608893D01*
X349960Y608988D01*
X349943Y609084D01*
X349930Y609181D01*
X349921Y609278D01*
X349915Y609375D01*
X349913Y609472D01*
X350696Y607644D02*
X355134Y602423D01*
X349913Y602423D01*
X414209Y619748D02*
X414209Y621837D01*
X414209Y619748D02*
X414211Y619659D01*
X414217Y619571D01*
X414226Y619483D01*
X414239Y619395D01*
X414256Y619308D01*
X414276Y619222D01*
X414301Y619137D01*
X414328Y619052D01*
X414360Y618969D01*
X414394Y618888D01*
X414433Y618808D01*
X414474Y618730D01*
X414519Y618653D01*
X414567Y618579D01*
X414618Y618506D01*
X414672Y618436D01*
X414730Y618369D01*
X414790Y618303D01*
X414852Y618241D01*
X414918Y618181D01*
X414985Y618123D01*
X415055Y618069D01*
X415128Y618018D01*
X415202Y617970D01*
X415279Y617925D01*
X415357Y617884D01*
X415437Y617845D01*
X415518Y617811D01*
X415601Y617779D01*
X415686Y617752D01*
X415771Y617727D01*
X415857Y617707D01*
X415944Y617690D01*
X416032Y617677D01*
X416120Y617668D01*
X416208Y617662D01*
X416297Y617660D01*
X421519Y617660D01*
X421610Y617662D01*
X421701Y617668D01*
X421792Y617678D01*
X421882Y617692D01*
X421971Y617709D01*
X422059Y617731D01*
X422147Y617757D01*
X422233Y617786D01*
X422318Y617819D01*
X422401Y617856D01*
X422483Y617896D01*
X422563Y617940D01*
X422641Y617987D01*
X422717Y618038D01*
X422790Y618091D01*
X422861Y618148D01*
X422930Y618209D01*
X422995Y618272D01*
X423058Y618337D01*
X423118Y618406D01*
X423176Y618477D01*
X423229Y618550D01*
X423280Y618626D01*
X423327Y618704D01*
X423371Y618784D01*
X423411Y618866D01*
X423448Y618949D01*
X423481Y619034D01*
X423510Y619120D01*
X423536Y619208D01*
X423558Y619296D01*
X423575Y619385D01*
X423589Y619475D01*
X423599Y619566D01*
X423605Y619657D01*
X423607Y619748D01*
X423607Y621837D01*
X421519Y625306D02*
X423607Y627916D01*
X414209Y627916D01*
X414209Y625306D02*
X414209Y630527D01*
X414209Y634450D02*
X414209Y637060D01*
X414211Y637161D01*
X414217Y637262D01*
X414227Y637363D01*
X414240Y637463D01*
X414258Y637563D01*
X414279Y637662D01*
X414305Y637760D01*
X414334Y637857D01*
X414366Y637953D01*
X414403Y638047D01*
X414443Y638140D01*
X414487Y638232D01*
X414534Y638321D01*
X414585Y638409D01*
X414639Y638495D01*
X414696Y638578D01*
X414756Y638660D01*
X414820Y638738D01*
X414886Y638815D01*
X414956Y638888D01*
X415028Y638959D01*
X415103Y639027D01*
X415181Y639092D01*
X415261Y639154D01*
X415343Y639213D01*
X415428Y639269D01*
X415515Y639321D01*
X415603Y639370D01*
X415694Y639416D01*
X415786Y639457D01*
X415880Y639496D01*
X415975Y639530D01*
X416071Y639561D01*
X416169Y639588D01*
X416267Y639612D01*
X416367Y639631D01*
X416467Y639647D01*
X416567Y639659D01*
X416668Y639667D01*
X416769Y639671D01*
X416871Y639671D01*
X416972Y639667D01*
X417073Y639659D01*
X417173Y639647D01*
X417273Y639631D01*
X417373Y639612D01*
X417471Y639588D01*
X417569Y639561D01*
X417665Y639530D01*
X417760Y639496D01*
X417854Y639457D01*
X417946Y639416D01*
X418037Y639370D01*
X418126Y639321D01*
X418212Y639269D01*
X418297Y639213D01*
X418379Y639154D01*
X418459Y639092D01*
X418537Y639027D01*
X418612Y638959D01*
X418684Y638888D01*
X418754Y638815D01*
X418820Y638738D01*
X418884Y638660D01*
X418944Y638578D01*
X419001Y638495D01*
X419055Y638409D01*
X419106Y638321D01*
X419153Y638232D01*
X419197Y638140D01*
X419237Y638047D01*
X419274Y637953D01*
X419306Y637857D01*
X419335Y637760D01*
X419361Y637662D01*
X419382Y637563D01*
X419400Y637463D01*
X419413Y637363D01*
X419423Y637262D01*
X419429Y637161D01*
X419431Y637060D01*
X423607Y637582D02*
X423607Y634450D01*
X423607Y637582D02*
X423605Y637672D01*
X423599Y637761D01*
X423590Y637851D01*
X423576Y637940D01*
X423559Y638028D01*
X423538Y638115D01*
X423513Y638202D01*
X423484Y638287D01*
X423452Y638371D01*
X423417Y638453D01*
X423377Y638534D01*
X423335Y638613D01*
X423289Y638690D01*
X423239Y638765D01*
X423187Y638838D01*
X423131Y638909D01*
X423073Y638977D01*
X423011Y639042D01*
X422947Y639105D01*
X422880Y639165D01*
X422811Y639222D01*
X422739Y639276D01*
X422665Y639327D01*
X422589Y639375D01*
X422511Y639419D01*
X422431Y639460D01*
X422349Y639498D01*
X422266Y639532D01*
X422181Y639562D01*
X422095Y639589D01*
X422009Y639612D01*
X421921Y639631D01*
X421832Y639646D01*
X421743Y639658D01*
X421654Y639666D01*
X421564Y639670D01*
X421474Y639670D01*
X421384Y639666D01*
X421295Y639658D01*
X421206Y639646D01*
X421117Y639631D01*
X421029Y639612D01*
X420943Y639589D01*
X420857Y639562D01*
X420772Y639532D01*
X420689Y639498D01*
X420607Y639460D01*
X420527Y639419D01*
X420449Y639375D01*
X420373Y639327D01*
X420299Y639276D01*
X420227Y639222D01*
X420158Y639165D01*
X420091Y639105D01*
X420027Y639042D01*
X419965Y638977D01*
X419907Y638909D01*
X419851Y638838D01*
X419799Y638765D01*
X419749Y638690D01*
X419703Y638613D01*
X419661Y638534D01*
X419621Y638453D01*
X419586Y638371D01*
X419554Y638287D01*
X419525Y638202D01*
X419500Y638115D01*
X419479Y638028D01*
X419462Y637940D01*
X419448Y637851D01*
X419439Y637761D01*
X419433Y637672D01*
X419431Y637582D01*
X419430Y637582D02*
X419430Y635494D01*
X369201Y576134D02*
X367112Y576134D01*
X369201Y576134D02*
X369290Y576136D01*
X369378Y576142D01*
X369466Y576151D01*
X369554Y576164D01*
X369641Y576181D01*
X369727Y576201D01*
X369812Y576226D01*
X369897Y576253D01*
X369980Y576285D01*
X370061Y576319D01*
X370141Y576358D01*
X370219Y576399D01*
X370296Y576444D01*
X370370Y576492D01*
X370443Y576543D01*
X370513Y576597D01*
X370580Y576655D01*
X370646Y576715D01*
X370708Y576777D01*
X370768Y576843D01*
X370826Y576910D01*
X370880Y576980D01*
X370931Y577053D01*
X370979Y577127D01*
X371024Y577204D01*
X371065Y577282D01*
X371104Y577362D01*
X371138Y577443D01*
X371170Y577526D01*
X371197Y577611D01*
X371222Y577696D01*
X371242Y577782D01*
X371259Y577869D01*
X371272Y577957D01*
X371281Y578045D01*
X371287Y578133D01*
X371289Y578222D01*
X371289Y583444D01*
X371287Y583533D01*
X371281Y583621D01*
X371272Y583709D01*
X371259Y583797D01*
X371242Y583884D01*
X371222Y583970D01*
X371197Y584055D01*
X371170Y584140D01*
X371138Y584223D01*
X371104Y584304D01*
X371065Y584384D01*
X371024Y584462D01*
X370979Y584539D01*
X370931Y584613D01*
X370880Y584686D01*
X370826Y584756D01*
X370768Y584823D01*
X370708Y584889D01*
X370646Y584951D01*
X370580Y585011D01*
X370513Y585069D01*
X370443Y585123D01*
X370370Y585174D01*
X370296Y585222D01*
X370219Y585267D01*
X370141Y585308D01*
X370061Y585347D01*
X369980Y585381D01*
X369897Y585413D01*
X369812Y585440D01*
X369727Y585465D01*
X369641Y585485D01*
X369554Y585502D01*
X369466Y585515D01*
X369378Y585524D01*
X369290Y585530D01*
X369201Y585532D01*
X367112Y585532D01*
X363643Y583444D02*
X361033Y585532D01*
X361033Y576134D01*
X363643Y576134D02*
X358422Y576134D01*
X354499Y578222D02*
X352411Y585532D01*
X354499Y578222D02*
X349278Y578222D01*
X350845Y576134D02*
X350845Y580311D01*
X240346Y594729D02*
X240346Y596818D01*
X240346Y594729D02*
X240348Y594640D01*
X240354Y594552D01*
X240363Y594464D01*
X240376Y594376D01*
X240393Y594289D01*
X240413Y594203D01*
X240438Y594118D01*
X240465Y594033D01*
X240497Y593950D01*
X240531Y593869D01*
X240570Y593789D01*
X240611Y593711D01*
X240656Y593634D01*
X240704Y593560D01*
X240755Y593487D01*
X240809Y593417D01*
X240867Y593350D01*
X240927Y593284D01*
X240989Y593222D01*
X241055Y593162D01*
X241122Y593104D01*
X241192Y593050D01*
X241265Y592999D01*
X241339Y592951D01*
X241416Y592906D01*
X241494Y592865D01*
X241574Y592826D01*
X241655Y592792D01*
X241738Y592760D01*
X241823Y592733D01*
X241908Y592708D01*
X241994Y592688D01*
X242081Y592671D01*
X242169Y592658D01*
X242257Y592649D01*
X242345Y592643D01*
X242434Y592641D01*
X247656Y592641D01*
X247747Y592643D01*
X247838Y592649D01*
X247929Y592659D01*
X248019Y592673D01*
X248108Y592690D01*
X248196Y592712D01*
X248284Y592738D01*
X248370Y592767D01*
X248455Y592800D01*
X248538Y592837D01*
X248620Y592877D01*
X248700Y592921D01*
X248778Y592968D01*
X248854Y593019D01*
X248927Y593072D01*
X248998Y593129D01*
X249067Y593190D01*
X249132Y593253D01*
X249195Y593318D01*
X249255Y593387D01*
X249313Y593458D01*
X249366Y593531D01*
X249417Y593607D01*
X249464Y593685D01*
X249508Y593765D01*
X249548Y593847D01*
X249585Y593930D01*
X249618Y594015D01*
X249647Y594101D01*
X249673Y594189D01*
X249695Y594277D01*
X249712Y594366D01*
X249726Y594456D01*
X249736Y594547D01*
X249742Y594638D01*
X249744Y594729D01*
X249744Y596818D01*
X247656Y600287D02*
X249744Y602897D01*
X240346Y602897D01*
X240346Y600287D02*
X240346Y605508D01*
X240346Y609431D02*
X240346Y612563D01*
X240348Y612652D01*
X240354Y612740D01*
X240363Y612828D01*
X240376Y612916D01*
X240393Y613003D01*
X240413Y613089D01*
X240438Y613174D01*
X240465Y613259D01*
X240497Y613342D01*
X240531Y613423D01*
X240570Y613503D01*
X240611Y613581D01*
X240656Y613658D01*
X240704Y613732D01*
X240755Y613805D01*
X240809Y613875D01*
X240867Y613942D01*
X240927Y614008D01*
X240989Y614070D01*
X241055Y614130D01*
X241122Y614188D01*
X241192Y614242D01*
X241265Y614293D01*
X241339Y614341D01*
X241416Y614386D01*
X241494Y614427D01*
X241574Y614466D01*
X241655Y614500D01*
X241738Y614532D01*
X241823Y614559D01*
X241908Y614584D01*
X241994Y614604D01*
X242081Y614621D01*
X242169Y614634D01*
X242257Y614643D01*
X242345Y614649D01*
X242434Y614651D01*
X242434Y614652D02*
X243479Y614652D01*
X243479Y614651D02*
X243568Y614649D01*
X243656Y614643D01*
X243744Y614634D01*
X243832Y614621D01*
X243919Y614604D01*
X244005Y614584D01*
X244090Y614559D01*
X244175Y614532D01*
X244258Y614500D01*
X244339Y614466D01*
X244419Y614427D01*
X244497Y614386D01*
X244574Y614341D01*
X244648Y614293D01*
X244721Y614242D01*
X244791Y614188D01*
X244858Y614130D01*
X244924Y614070D01*
X244986Y614008D01*
X245046Y613942D01*
X245104Y613875D01*
X245158Y613805D01*
X245209Y613732D01*
X245257Y613658D01*
X245302Y613581D01*
X245343Y613503D01*
X245382Y613423D01*
X245416Y613342D01*
X245448Y613259D01*
X245475Y613174D01*
X245500Y613089D01*
X245520Y613003D01*
X245537Y612916D01*
X245550Y612828D01*
X245559Y612740D01*
X245565Y612652D01*
X245567Y612563D01*
X245567Y609431D01*
X249744Y609431D01*
X249744Y614652D01*
X260031Y597453D02*
X260031Y595364D01*
X260033Y595275D01*
X260039Y595187D01*
X260048Y595099D01*
X260061Y595011D01*
X260078Y594924D01*
X260098Y594838D01*
X260123Y594753D01*
X260150Y594668D01*
X260182Y594585D01*
X260216Y594504D01*
X260255Y594424D01*
X260296Y594346D01*
X260341Y594269D01*
X260389Y594195D01*
X260440Y594122D01*
X260494Y594052D01*
X260552Y593985D01*
X260612Y593919D01*
X260674Y593857D01*
X260740Y593797D01*
X260807Y593739D01*
X260877Y593685D01*
X260950Y593634D01*
X261024Y593586D01*
X261101Y593541D01*
X261179Y593500D01*
X261259Y593461D01*
X261340Y593427D01*
X261423Y593395D01*
X261508Y593368D01*
X261593Y593343D01*
X261679Y593323D01*
X261766Y593306D01*
X261854Y593293D01*
X261942Y593284D01*
X262030Y593278D01*
X262119Y593276D01*
X267341Y593276D01*
X267432Y593278D01*
X267523Y593284D01*
X267614Y593294D01*
X267704Y593308D01*
X267793Y593325D01*
X267881Y593347D01*
X267969Y593373D01*
X268055Y593402D01*
X268140Y593435D01*
X268223Y593472D01*
X268305Y593512D01*
X268385Y593556D01*
X268463Y593603D01*
X268539Y593654D01*
X268612Y593707D01*
X268683Y593764D01*
X268752Y593825D01*
X268817Y593888D01*
X268880Y593953D01*
X268940Y594022D01*
X268998Y594093D01*
X269051Y594166D01*
X269102Y594242D01*
X269149Y594320D01*
X269193Y594400D01*
X269233Y594482D01*
X269270Y594565D01*
X269303Y594650D01*
X269332Y594736D01*
X269358Y594824D01*
X269380Y594912D01*
X269397Y595001D01*
X269411Y595091D01*
X269421Y595182D01*
X269427Y595273D01*
X269429Y595364D01*
X269429Y597453D01*
X267341Y600922D02*
X269429Y603532D01*
X260031Y603532D01*
X260031Y600922D02*
X260031Y606143D01*
X265252Y610066D02*
X265252Y613198D01*
X265250Y613287D01*
X265244Y613375D01*
X265235Y613463D01*
X265222Y613551D01*
X265205Y613638D01*
X265185Y613724D01*
X265160Y613809D01*
X265133Y613894D01*
X265101Y613977D01*
X265067Y614058D01*
X265028Y614138D01*
X264987Y614216D01*
X264942Y614293D01*
X264894Y614367D01*
X264843Y614440D01*
X264789Y614510D01*
X264731Y614577D01*
X264671Y614643D01*
X264609Y614705D01*
X264543Y614765D01*
X264476Y614823D01*
X264406Y614877D01*
X264333Y614928D01*
X264259Y614976D01*
X264182Y615021D01*
X264104Y615062D01*
X264024Y615101D01*
X263943Y615135D01*
X263860Y615167D01*
X263775Y615194D01*
X263690Y615219D01*
X263604Y615239D01*
X263517Y615256D01*
X263429Y615269D01*
X263341Y615278D01*
X263253Y615284D01*
X263164Y615286D01*
X263164Y615287D02*
X262642Y615287D01*
X262541Y615285D01*
X262440Y615279D01*
X262339Y615269D01*
X262239Y615256D01*
X262139Y615238D01*
X262040Y615217D01*
X261942Y615191D01*
X261845Y615162D01*
X261749Y615130D01*
X261655Y615093D01*
X261562Y615053D01*
X261470Y615009D01*
X261381Y614962D01*
X261293Y614911D01*
X261207Y614857D01*
X261124Y614800D01*
X261042Y614740D01*
X260964Y614676D01*
X260887Y614610D01*
X260814Y614540D01*
X260743Y614468D01*
X260675Y614393D01*
X260610Y614315D01*
X260548Y614235D01*
X260489Y614153D01*
X260433Y614068D01*
X260381Y613982D01*
X260332Y613893D01*
X260286Y613802D01*
X260245Y613710D01*
X260206Y613616D01*
X260172Y613521D01*
X260141Y613425D01*
X260114Y613327D01*
X260090Y613229D01*
X260071Y613129D01*
X260055Y613029D01*
X260043Y612929D01*
X260035Y612828D01*
X260031Y612727D01*
X260031Y612625D01*
X260035Y612524D01*
X260043Y612423D01*
X260055Y612323D01*
X260071Y612223D01*
X260090Y612123D01*
X260114Y612025D01*
X260141Y611927D01*
X260172Y611831D01*
X260206Y611736D01*
X260245Y611642D01*
X260286Y611550D01*
X260332Y611459D01*
X260381Y611371D01*
X260433Y611284D01*
X260489Y611199D01*
X260548Y611117D01*
X260610Y611037D01*
X260675Y610959D01*
X260743Y610884D01*
X260814Y610812D01*
X260887Y610742D01*
X260964Y610676D01*
X261042Y610612D01*
X261124Y610552D01*
X261207Y610495D01*
X261293Y610441D01*
X261381Y610390D01*
X261470Y610343D01*
X261562Y610299D01*
X261655Y610259D01*
X261749Y610222D01*
X261845Y610190D01*
X261942Y610161D01*
X262040Y610135D01*
X262139Y610114D01*
X262239Y610096D01*
X262339Y610083D01*
X262440Y610073D01*
X262541Y610067D01*
X262642Y610065D01*
X262642Y610066D02*
X265252Y610066D01*
X265381Y610068D01*
X265509Y610074D01*
X265637Y610084D01*
X265765Y610098D01*
X265893Y610115D01*
X266020Y610137D01*
X266146Y610163D01*
X266271Y610192D01*
X266395Y610225D01*
X266518Y610263D01*
X266640Y610303D01*
X266761Y610348D01*
X266880Y610396D01*
X266998Y610448D01*
X267114Y610504D01*
X267228Y610563D01*
X267340Y610626D01*
X267451Y610692D01*
X267559Y610761D01*
X267665Y610834D01*
X267769Y610910D01*
X267871Y610989D01*
X267970Y611071D01*
X268066Y611156D01*
X268160Y611244D01*
X268251Y611335D01*
X268339Y611429D01*
X268424Y611525D01*
X268506Y611624D01*
X268585Y611726D01*
X268661Y611830D01*
X268734Y611936D01*
X268803Y612044D01*
X268869Y612154D01*
X268932Y612267D01*
X268991Y612381D01*
X269047Y612497D01*
X269099Y612615D01*
X269147Y612734D01*
X269192Y612855D01*
X269232Y612977D01*
X269270Y613100D01*
X269303Y613224D01*
X269332Y613349D01*
X269358Y613475D01*
X269380Y613602D01*
X269397Y613730D01*
X269411Y613858D01*
X269421Y613986D01*
X269427Y614114D01*
X269429Y614243D01*
X192828Y575121D02*
X190740Y575121D01*
X192828Y575121D02*
X192917Y575123D01*
X193005Y575129D01*
X193093Y575138D01*
X193181Y575151D01*
X193268Y575168D01*
X193354Y575188D01*
X193439Y575213D01*
X193524Y575240D01*
X193607Y575272D01*
X193688Y575306D01*
X193768Y575345D01*
X193846Y575386D01*
X193923Y575431D01*
X193997Y575479D01*
X194070Y575530D01*
X194140Y575584D01*
X194207Y575642D01*
X194273Y575702D01*
X194335Y575764D01*
X194395Y575830D01*
X194453Y575897D01*
X194507Y575967D01*
X194558Y576040D01*
X194606Y576114D01*
X194651Y576191D01*
X194692Y576269D01*
X194731Y576349D01*
X194765Y576430D01*
X194797Y576513D01*
X194824Y576598D01*
X194849Y576683D01*
X194869Y576769D01*
X194886Y576856D01*
X194899Y576944D01*
X194908Y577032D01*
X194914Y577120D01*
X194916Y577209D01*
X194917Y577209D02*
X194917Y582431D01*
X194916Y582431D02*
X194914Y582520D01*
X194908Y582608D01*
X194899Y582696D01*
X194886Y582784D01*
X194869Y582871D01*
X194849Y582957D01*
X194824Y583042D01*
X194797Y583127D01*
X194765Y583210D01*
X194731Y583291D01*
X194692Y583371D01*
X194651Y583449D01*
X194606Y583526D01*
X194558Y583600D01*
X194507Y583673D01*
X194453Y583743D01*
X194395Y583810D01*
X194335Y583876D01*
X194273Y583938D01*
X194207Y583998D01*
X194140Y584056D01*
X194070Y584110D01*
X193997Y584161D01*
X193923Y584209D01*
X193846Y584254D01*
X193768Y584295D01*
X193688Y584334D01*
X193607Y584368D01*
X193524Y584400D01*
X193439Y584427D01*
X193354Y584452D01*
X193268Y584472D01*
X193181Y584489D01*
X193093Y584502D01*
X193005Y584511D01*
X192917Y584517D01*
X192828Y584519D01*
X190740Y584519D01*
X187271Y582431D02*
X184661Y584519D01*
X184661Y575121D01*
X187271Y575121D02*
X182050Y575121D01*
X178127Y583475D02*
X178127Y584519D01*
X172906Y584519D01*
X175517Y575121D01*
X190740Y556071D02*
X192828Y556071D01*
X192917Y556073D01*
X193005Y556079D01*
X193093Y556088D01*
X193181Y556101D01*
X193268Y556118D01*
X193354Y556138D01*
X193439Y556163D01*
X193524Y556190D01*
X193607Y556222D01*
X193688Y556256D01*
X193768Y556295D01*
X193846Y556336D01*
X193923Y556381D01*
X193997Y556429D01*
X194070Y556480D01*
X194140Y556534D01*
X194207Y556592D01*
X194273Y556652D01*
X194335Y556714D01*
X194395Y556780D01*
X194453Y556847D01*
X194507Y556917D01*
X194558Y556990D01*
X194606Y557064D01*
X194651Y557141D01*
X194692Y557219D01*
X194731Y557299D01*
X194765Y557380D01*
X194797Y557463D01*
X194824Y557548D01*
X194849Y557633D01*
X194869Y557719D01*
X194886Y557806D01*
X194899Y557894D01*
X194908Y557982D01*
X194914Y558070D01*
X194916Y558159D01*
X194917Y558159D02*
X194917Y563381D01*
X194916Y563381D02*
X194914Y563470D01*
X194908Y563558D01*
X194899Y563646D01*
X194886Y563734D01*
X194869Y563821D01*
X194849Y563907D01*
X194824Y563992D01*
X194797Y564077D01*
X194765Y564160D01*
X194731Y564241D01*
X194692Y564321D01*
X194651Y564399D01*
X194606Y564476D01*
X194558Y564550D01*
X194507Y564623D01*
X194453Y564693D01*
X194395Y564760D01*
X194335Y564826D01*
X194273Y564888D01*
X194207Y564948D01*
X194140Y565006D01*
X194070Y565060D01*
X193997Y565111D01*
X193923Y565159D01*
X193846Y565204D01*
X193768Y565245D01*
X193688Y565284D01*
X193607Y565318D01*
X193524Y565350D01*
X193439Y565377D01*
X193354Y565402D01*
X193268Y565422D01*
X193181Y565439D01*
X193093Y565452D01*
X193005Y565461D01*
X192917Y565467D01*
X192828Y565469D01*
X190740Y565469D01*
X187271Y563381D02*
X184661Y565469D01*
X184661Y556071D01*
X187271Y556071D02*
X182050Y556071D01*
X178128Y558682D02*
X178126Y558783D01*
X178120Y558884D01*
X178110Y558985D01*
X178097Y559085D01*
X178079Y559185D01*
X178058Y559284D01*
X178032Y559382D01*
X178003Y559479D01*
X177971Y559575D01*
X177934Y559669D01*
X177894Y559762D01*
X177850Y559854D01*
X177803Y559943D01*
X177752Y560031D01*
X177698Y560117D01*
X177641Y560200D01*
X177581Y560282D01*
X177517Y560360D01*
X177451Y560437D01*
X177381Y560510D01*
X177309Y560581D01*
X177234Y560649D01*
X177156Y560714D01*
X177076Y560776D01*
X176994Y560835D01*
X176909Y560891D01*
X176823Y560943D01*
X176734Y560992D01*
X176643Y561038D01*
X176551Y561079D01*
X176457Y561118D01*
X176362Y561152D01*
X176266Y561183D01*
X176168Y561210D01*
X176070Y561234D01*
X175970Y561253D01*
X175870Y561269D01*
X175770Y561281D01*
X175669Y561289D01*
X175568Y561293D01*
X175466Y561293D01*
X175365Y561289D01*
X175264Y561281D01*
X175164Y561269D01*
X175064Y561253D01*
X174964Y561234D01*
X174866Y561210D01*
X174768Y561183D01*
X174672Y561152D01*
X174577Y561118D01*
X174483Y561079D01*
X174391Y561038D01*
X174300Y560992D01*
X174212Y560943D01*
X174125Y560891D01*
X174040Y560835D01*
X173958Y560776D01*
X173878Y560714D01*
X173800Y560649D01*
X173725Y560581D01*
X173653Y560510D01*
X173583Y560437D01*
X173517Y560360D01*
X173453Y560282D01*
X173393Y560200D01*
X173336Y560117D01*
X173282Y560031D01*
X173231Y559943D01*
X173184Y559854D01*
X173140Y559762D01*
X173100Y559669D01*
X173063Y559575D01*
X173031Y559479D01*
X173002Y559382D01*
X172976Y559284D01*
X172955Y559185D01*
X172937Y559085D01*
X172924Y558985D01*
X172914Y558884D01*
X172908Y558783D01*
X172906Y558682D01*
X172908Y558581D01*
X172914Y558480D01*
X172924Y558379D01*
X172937Y558279D01*
X172955Y558179D01*
X172976Y558080D01*
X173002Y557982D01*
X173031Y557885D01*
X173063Y557789D01*
X173100Y557695D01*
X173140Y557602D01*
X173184Y557510D01*
X173231Y557421D01*
X173282Y557333D01*
X173336Y557247D01*
X173393Y557164D01*
X173453Y557082D01*
X173517Y557004D01*
X173583Y556927D01*
X173653Y556854D01*
X173725Y556783D01*
X173800Y556715D01*
X173878Y556650D01*
X173958Y556588D01*
X174040Y556529D01*
X174125Y556473D01*
X174212Y556421D01*
X174300Y556372D01*
X174391Y556326D01*
X174483Y556285D01*
X174577Y556246D01*
X174672Y556212D01*
X174768Y556181D01*
X174866Y556154D01*
X174964Y556130D01*
X175064Y556111D01*
X175164Y556095D01*
X175264Y556083D01*
X175365Y556075D01*
X175466Y556071D01*
X175568Y556071D01*
X175669Y556075D01*
X175770Y556083D01*
X175870Y556095D01*
X175970Y556111D01*
X176070Y556130D01*
X176168Y556154D01*
X176266Y556181D01*
X176362Y556212D01*
X176457Y556246D01*
X176551Y556285D01*
X176643Y556326D01*
X176734Y556372D01*
X176822Y556421D01*
X176909Y556473D01*
X176994Y556529D01*
X177076Y556588D01*
X177156Y556650D01*
X177234Y556715D01*
X177309Y556783D01*
X177381Y556854D01*
X177451Y556927D01*
X177517Y557004D01*
X177581Y557082D01*
X177641Y557164D01*
X177698Y557247D01*
X177752Y557333D01*
X177803Y557421D01*
X177850Y557510D01*
X177894Y557602D01*
X177934Y557695D01*
X177971Y557789D01*
X178003Y557885D01*
X178032Y557982D01*
X178058Y558080D01*
X178079Y558179D01*
X178097Y558279D01*
X178110Y558379D01*
X178120Y558480D01*
X178126Y558581D01*
X178128Y558682D01*
X177605Y563381D02*
X177603Y563471D01*
X177597Y563560D01*
X177588Y563650D01*
X177574Y563739D01*
X177557Y563827D01*
X177536Y563914D01*
X177511Y564001D01*
X177482Y564086D01*
X177450Y564170D01*
X177415Y564252D01*
X177375Y564333D01*
X177333Y564412D01*
X177287Y564489D01*
X177237Y564564D01*
X177185Y564637D01*
X177129Y564708D01*
X177071Y564776D01*
X177009Y564841D01*
X176945Y564904D01*
X176878Y564964D01*
X176809Y565021D01*
X176737Y565075D01*
X176663Y565126D01*
X176587Y565174D01*
X176509Y565218D01*
X176429Y565259D01*
X176347Y565297D01*
X176264Y565331D01*
X176179Y565361D01*
X176093Y565388D01*
X176007Y565411D01*
X175919Y565430D01*
X175830Y565445D01*
X175741Y565457D01*
X175652Y565465D01*
X175562Y565469D01*
X175472Y565469D01*
X175382Y565465D01*
X175293Y565457D01*
X175204Y565445D01*
X175115Y565430D01*
X175027Y565411D01*
X174941Y565388D01*
X174855Y565361D01*
X174770Y565331D01*
X174687Y565297D01*
X174605Y565259D01*
X174525Y565218D01*
X174447Y565174D01*
X174371Y565126D01*
X174297Y565075D01*
X174225Y565021D01*
X174156Y564964D01*
X174089Y564904D01*
X174025Y564841D01*
X173963Y564776D01*
X173905Y564708D01*
X173849Y564637D01*
X173797Y564564D01*
X173747Y564489D01*
X173701Y564412D01*
X173659Y564333D01*
X173619Y564252D01*
X173584Y564170D01*
X173552Y564086D01*
X173523Y564001D01*
X173498Y563914D01*
X173477Y563827D01*
X173460Y563739D01*
X173446Y563650D01*
X173437Y563560D01*
X173431Y563471D01*
X173429Y563381D01*
X173431Y563291D01*
X173437Y563202D01*
X173446Y563112D01*
X173460Y563023D01*
X173477Y562935D01*
X173498Y562848D01*
X173523Y562761D01*
X173552Y562676D01*
X173584Y562592D01*
X173619Y562510D01*
X173659Y562429D01*
X173701Y562350D01*
X173747Y562273D01*
X173797Y562198D01*
X173849Y562125D01*
X173905Y562054D01*
X173963Y561986D01*
X174025Y561921D01*
X174089Y561858D01*
X174156Y561798D01*
X174225Y561741D01*
X174297Y561687D01*
X174371Y561636D01*
X174447Y561588D01*
X174525Y561544D01*
X174605Y561503D01*
X174687Y561465D01*
X174770Y561431D01*
X174855Y561401D01*
X174941Y561374D01*
X175027Y561351D01*
X175115Y561332D01*
X175204Y561317D01*
X175293Y561305D01*
X175382Y561297D01*
X175472Y561293D01*
X175562Y561293D01*
X175652Y561297D01*
X175741Y561305D01*
X175830Y561317D01*
X175919Y561332D01*
X176007Y561351D01*
X176093Y561374D01*
X176179Y561401D01*
X176264Y561431D01*
X176347Y561465D01*
X176429Y561503D01*
X176509Y561544D01*
X176587Y561588D01*
X176663Y561636D01*
X176737Y561687D01*
X176809Y561741D01*
X176878Y561798D01*
X176945Y561858D01*
X177009Y561921D01*
X177071Y561986D01*
X177129Y562054D01*
X177185Y562125D01*
X177237Y562198D01*
X177287Y562273D01*
X177333Y562350D01*
X177375Y562429D01*
X177415Y562510D01*
X177450Y562592D01*
X177482Y562676D01*
X177511Y562761D01*
X177536Y562848D01*
X177557Y562935D01*
X177574Y563023D01*
X177588Y563112D01*
X177597Y563202D01*
X177603Y563291D01*
X177605Y563381D01*
D11*
X315600Y683625D02*
X315600Y741125D01*
X315600Y683625D02*
X141600Y683625D01*
X141600Y741125D01*
X315600Y741125D01*
X165600Y740550D02*
X165600Y735550D01*
X292600Y735550D02*
X292600Y740550D01*
D12*
X191680Y698152D02*
X191680Y689008D01*
X191680Y698152D02*
X189140Y698152D01*
X189040Y698150D01*
X188941Y698144D01*
X188841Y698134D01*
X188743Y698121D01*
X188644Y698103D01*
X188547Y698082D01*
X188451Y698057D01*
X188355Y698028D01*
X188261Y697995D01*
X188168Y697959D01*
X188077Y697919D01*
X187987Y697875D01*
X187899Y697828D01*
X187813Y697778D01*
X187729Y697724D01*
X187647Y697667D01*
X187568Y697607D01*
X187490Y697543D01*
X187416Y697477D01*
X187344Y697408D01*
X187275Y697336D01*
X187209Y697262D01*
X187145Y697184D01*
X187085Y697105D01*
X187028Y697023D01*
X186974Y696939D01*
X186924Y696853D01*
X186877Y696765D01*
X186833Y696675D01*
X186793Y696584D01*
X186757Y696491D01*
X186724Y696397D01*
X186695Y696301D01*
X186670Y696205D01*
X186649Y696108D01*
X186631Y696009D01*
X186618Y695911D01*
X186608Y695811D01*
X186602Y695712D01*
X186600Y695612D01*
X186600Y691548D01*
X186602Y691448D01*
X186608Y691349D01*
X186618Y691249D01*
X186631Y691151D01*
X186649Y691052D01*
X186670Y690955D01*
X186695Y690859D01*
X186724Y690763D01*
X186757Y690669D01*
X186793Y690576D01*
X186833Y690485D01*
X186877Y690395D01*
X186924Y690307D01*
X186974Y690221D01*
X187028Y690137D01*
X187085Y690055D01*
X187145Y689976D01*
X187209Y689898D01*
X187275Y689824D01*
X187344Y689752D01*
X187416Y689683D01*
X187490Y689617D01*
X187568Y689553D01*
X187647Y689493D01*
X187729Y689436D01*
X187813Y689382D01*
X187899Y689332D01*
X187987Y689285D01*
X188077Y689241D01*
X188168Y689201D01*
X188261Y689165D01*
X188355Y689132D01*
X188451Y689103D01*
X188547Y689078D01*
X188644Y689057D01*
X188743Y689039D01*
X188841Y689026D01*
X188941Y689016D01*
X189040Y689010D01*
X189140Y689008D01*
X191680Y689008D01*
X181520Y689008D02*
X181520Y698152D01*
X182536Y689008D02*
X180504Y689008D01*
X180504Y698152D02*
X182536Y698152D01*
X174002Y689008D02*
X173913Y689010D01*
X173825Y689016D01*
X173737Y689025D01*
X173649Y689039D01*
X173562Y689056D01*
X173476Y689077D01*
X173391Y689102D01*
X173307Y689131D01*
X173224Y689163D01*
X173143Y689198D01*
X173064Y689238D01*
X172986Y689280D01*
X172910Y689326D01*
X172836Y689375D01*
X172765Y689428D01*
X172696Y689483D01*
X172629Y689542D01*
X172565Y689603D01*
X172504Y689667D01*
X172445Y689734D01*
X172390Y689803D01*
X172337Y689874D01*
X172288Y689948D01*
X172242Y690024D01*
X172200Y690102D01*
X172160Y690181D01*
X172125Y690262D01*
X172093Y690345D01*
X172064Y690429D01*
X172039Y690514D01*
X172018Y690600D01*
X172001Y690687D01*
X171987Y690775D01*
X171978Y690863D01*
X171972Y690951D01*
X171970Y691040D01*
X174002Y689008D02*
X174132Y689010D01*
X174263Y689016D01*
X174393Y689026D01*
X174522Y689040D01*
X174651Y689057D01*
X174780Y689079D01*
X174908Y689105D01*
X175035Y689134D01*
X175161Y689167D01*
X175286Y689204D01*
X175410Y689245D01*
X175532Y689290D01*
X175653Y689338D01*
X175773Y689390D01*
X175891Y689446D01*
X176007Y689505D01*
X176121Y689568D01*
X176234Y689634D01*
X176344Y689703D01*
X176452Y689776D01*
X176558Y689852D01*
X176662Y689931D01*
X176763Y690013D01*
X176861Y690099D01*
X176957Y690187D01*
X177050Y690278D01*
X176796Y696120D02*
X176794Y696209D01*
X176788Y696297D01*
X176779Y696385D01*
X176765Y696473D01*
X176748Y696560D01*
X176727Y696646D01*
X176702Y696731D01*
X176673Y696815D01*
X176641Y696898D01*
X176606Y696979D01*
X176566Y697058D01*
X176524Y697136D01*
X176478Y697212D01*
X176429Y697286D01*
X176376Y697357D01*
X176321Y697426D01*
X176262Y697493D01*
X176201Y697557D01*
X176137Y697618D01*
X176070Y697677D01*
X176001Y697732D01*
X175930Y697785D01*
X175856Y697834D01*
X175780Y697880D01*
X175702Y697922D01*
X175623Y697962D01*
X175542Y697997D01*
X175459Y698029D01*
X175375Y698058D01*
X175290Y698083D01*
X175204Y698104D01*
X175117Y698121D01*
X175029Y698135D01*
X174941Y698144D01*
X174853Y698150D01*
X174764Y698152D01*
X174641Y698150D01*
X174519Y698144D01*
X174397Y698134D01*
X174275Y698120D01*
X174154Y698103D01*
X174033Y698081D01*
X173913Y698056D01*
X173794Y698026D01*
X173676Y697993D01*
X173559Y697956D01*
X173444Y697916D01*
X173329Y697872D01*
X173216Y697824D01*
X173105Y697772D01*
X172996Y697717D01*
X172888Y697658D01*
X172782Y697596D01*
X172679Y697531D01*
X172577Y697462D01*
X172478Y697390D01*
X175780Y694342D02*
X175856Y694389D01*
X175930Y694439D01*
X176001Y694492D01*
X176070Y694549D01*
X176137Y694608D01*
X176201Y694670D01*
X176263Y694735D01*
X176321Y694803D01*
X176376Y694873D01*
X176429Y694945D01*
X176478Y695019D01*
X176524Y695096D01*
X176567Y695174D01*
X176606Y695255D01*
X176642Y695337D01*
X176674Y695420D01*
X176702Y695504D01*
X176727Y695590D01*
X176748Y695677D01*
X176765Y695765D01*
X176779Y695853D01*
X176788Y695942D01*
X176794Y696031D01*
X176796Y696120D01*
X172986Y692818D02*
X172910Y692771D01*
X172836Y692721D01*
X172765Y692668D01*
X172696Y692611D01*
X172629Y692552D01*
X172565Y692490D01*
X172503Y692425D01*
X172445Y692357D01*
X172390Y692287D01*
X172337Y692215D01*
X172288Y692141D01*
X172242Y692064D01*
X172199Y691986D01*
X172160Y691905D01*
X172124Y691823D01*
X172092Y691740D01*
X172064Y691656D01*
X172039Y691570D01*
X172018Y691483D01*
X172001Y691395D01*
X171987Y691307D01*
X171978Y691218D01*
X171972Y691129D01*
X171970Y691040D01*
X172986Y692818D02*
X175780Y694342D01*
X166280Y698152D02*
X166280Y689008D01*
X168820Y698152D02*
X163740Y698152D01*
X160693Y687992D02*
X156629Y687992D01*
X153479Y689008D02*
X150431Y698152D01*
X147383Y689008D01*
X148145Y691294D02*
X152717Y691294D01*
D11*
X315600Y826500D02*
X315600Y884000D01*
X315600Y826500D02*
X141600Y826500D01*
X141600Y884000D01*
X315600Y884000D01*
X165600Y883425D02*
X165600Y878425D01*
X292600Y878425D02*
X292600Y883425D01*
D12*
X190360Y841662D02*
X190360Y832518D01*
X190360Y841662D02*
X187820Y841662D01*
X187720Y841660D01*
X187621Y841654D01*
X187521Y841644D01*
X187423Y841631D01*
X187324Y841613D01*
X187227Y841592D01*
X187131Y841567D01*
X187035Y841538D01*
X186941Y841505D01*
X186848Y841469D01*
X186757Y841429D01*
X186667Y841385D01*
X186579Y841338D01*
X186493Y841288D01*
X186409Y841234D01*
X186327Y841177D01*
X186248Y841117D01*
X186170Y841053D01*
X186096Y840987D01*
X186024Y840918D01*
X185955Y840846D01*
X185889Y840772D01*
X185825Y840694D01*
X185765Y840615D01*
X185708Y840533D01*
X185654Y840449D01*
X185604Y840363D01*
X185557Y840275D01*
X185513Y840185D01*
X185473Y840094D01*
X185437Y840001D01*
X185404Y839907D01*
X185375Y839811D01*
X185350Y839715D01*
X185329Y839618D01*
X185311Y839519D01*
X185298Y839421D01*
X185288Y839321D01*
X185282Y839222D01*
X185280Y839122D01*
X185280Y835058D01*
X185282Y834958D01*
X185288Y834859D01*
X185298Y834759D01*
X185311Y834661D01*
X185329Y834562D01*
X185350Y834465D01*
X185375Y834369D01*
X185404Y834273D01*
X185437Y834179D01*
X185473Y834086D01*
X185513Y833995D01*
X185557Y833905D01*
X185604Y833817D01*
X185654Y833731D01*
X185708Y833647D01*
X185765Y833565D01*
X185825Y833486D01*
X185889Y833408D01*
X185955Y833334D01*
X186024Y833262D01*
X186096Y833193D01*
X186170Y833127D01*
X186248Y833063D01*
X186327Y833003D01*
X186409Y832946D01*
X186493Y832892D01*
X186579Y832842D01*
X186667Y832795D01*
X186757Y832751D01*
X186848Y832711D01*
X186941Y832675D01*
X187035Y832642D01*
X187131Y832613D01*
X187227Y832588D01*
X187324Y832567D01*
X187423Y832549D01*
X187521Y832536D01*
X187621Y832526D01*
X187720Y832520D01*
X187820Y832518D01*
X190360Y832518D01*
X180200Y832518D02*
X180200Y841662D01*
X181216Y832518D02*
X179184Y832518D01*
X179184Y841662D02*
X181216Y841662D01*
X172681Y832518D02*
X172592Y832520D01*
X172504Y832526D01*
X172416Y832535D01*
X172328Y832549D01*
X172241Y832566D01*
X172155Y832587D01*
X172070Y832612D01*
X171986Y832641D01*
X171903Y832673D01*
X171822Y832708D01*
X171743Y832748D01*
X171665Y832790D01*
X171589Y832836D01*
X171515Y832885D01*
X171444Y832938D01*
X171375Y832993D01*
X171308Y833052D01*
X171244Y833113D01*
X171183Y833177D01*
X171124Y833244D01*
X171069Y833313D01*
X171016Y833384D01*
X170967Y833458D01*
X170921Y833534D01*
X170879Y833612D01*
X170839Y833691D01*
X170804Y833772D01*
X170772Y833855D01*
X170743Y833939D01*
X170718Y834024D01*
X170697Y834110D01*
X170680Y834197D01*
X170666Y834285D01*
X170657Y834373D01*
X170651Y834461D01*
X170649Y834550D01*
X172681Y832518D02*
X172811Y832520D01*
X172942Y832526D01*
X173072Y832536D01*
X173201Y832550D01*
X173330Y832567D01*
X173459Y832589D01*
X173587Y832615D01*
X173714Y832644D01*
X173840Y832677D01*
X173965Y832714D01*
X174089Y832755D01*
X174211Y832800D01*
X174332Y832848D01*
X174452Y832900D01*
X174570Y832956D01*
X174686Y833015D01*
X174800Y833078D01*
X174913Y833144D01*
X175023Y833213D01*
X175131Y833286D01*
X175237Y833362D01*
X175341Y833441D01*
X175442Y833523D01*
X175540Y833609D01*
X175636Y833697D01*
X175729Y833788D01*
X175475Y839630D02*
X175473Y839719D01*
X175467Y839807D01*
X175458Y839895D01*
X175444Y839983D01*
X175427Y840070D01*
X175406Y840156D01*
X175381Y840241D01*
X175352Y840325D01*
X175320Y840408D01*
X175285Y840489D01*
X175245Y840568D01*
X175203Y840646D01*
X175157Y840722D01*
X175108Y840796D01*
X175055Y840867D01*
X175000Y840936D01*
X174941Y841003D01*
X174880Y841067D01*
X174816Y841128D01*
X174749Y841187D01*
X174680Y841242D01*
X174609Y841295D01*
X174535Y841344D01*
X174459Y841390D01*
X174381Y841432D01*
X174302Y841472D01*
X174221Y841507D01*
X174138Y841539D01*
X174054Y841568D01*
X173969Y841593D01*
X173883Y841614D01*
X173796Y841631D01*
X173708Y841645D01*
X173620Y841654D01*
X173532Y841660D01*
X173443Y841662D01*
X173320Y841660D01*
X173198Y841654D01*
X173076Y841644D01*
X172954Y841630D01*
X172833Y841613D01*
X172712Y841591D01*
X172592Y841566D01*
X172473Y841536D01*
X172355Y841503D01*
X172238Y841466D01*
X172123Y841426D01*
X172008Y841382D01*
X171895Y841334D01*
X171784Y841282D01*
X171675Y841227D01*
X171567Y841168D01*
X171461Y841106D01*
X171358Y841041D01*
X171256Y840972D01*
X171157Y840900D01*
X174460Y837852D02*
X174536Y837899D01*
X174610Y837949D01*
X174681Y838002D01*
X174750Y838059D01*
X174817Y838118D01*
X174881Y838180D01*
X174943Y838245D01*
X175001Y838313D01*
X175056Y838383D01*
X175109Y838455D01*
X175158Y838529D01*
X175204Y838606D01*
X175247Y838684D01*
X175286Y838765D01*
X175322Y838847D01*
X175354Y838930D01*
X175382Y839014D01*
X175407Y839100D01*
X175428Y839187D01*
X175445Y839275D01*
X175459Y839363D01*
X175468Y839452D01*
X175474Y839541D01*
X175476Y839630D01*
X171665Y836328D02*
X171589Y836281D01*
X171515Y836231D01*
X171444Y836178D01*
X171375Y836121D01*
X171308Y836062D01*
X171244Y836000D01*
X171182Y835935D01*
X171124Y835867D01*
X171069Y835797D01*
X171016Y835725D01*
X170967Y835651D01*
X170921Y835574D01*
X170878Y835496D01*
X170839Y835415D01*
X170803Y835333D01*
X170771Y835250D01*
X170743Y835166D01*
X170718Y835080D01*
X170697Y834993D01*
X170680Y834905D01*
X170666Y834817D01*
X170657Y834728D01*
X170651Y834639D01*
X170649Y834550D01*
X171665Y836328D02*
X174459Y837852D01*
X164960Y841662D02*
X164960Y832518D01*
X167500Y841662D02*
X162420Y841662D01*
X159372Y831502D02*
X155308Y831502D01*
X151193Y837598D02*
X148653Y837598D01*
X148553Y837596D01*
X148454Y837590D01*
X148354Y837580D01*
X148256Y837567D01*
X148157Y837549D01*
X148060Y837528D01*
X147964Y837503D01*
X147868Y837474D01*
X147774Y837441D01*
X147681Y837405D01*
X147590Y837365D01*
X147500Y837321D01*
X147412Y837274D01*
X147326Y837224D01*
X147242Y837170D01*
X147160Y837113D01*
X147081Y837053D01*
X147003Y836989D01*
X146929Y836923D01*
X146857Y836854D01*
X146788Y836782D01*
X146722Y836708D01*
X146658Y836630D01*
X146598Y836551D01*
X146541Y836469D01*
X146487Y836385D01*
X146437Y836299D01*
X146390Y836211D01*
X146346Y836121D01*
X146306Y836030D01*
X146270Y835937D01*
X146237Y835843D01*
X146208Y835747D01*
X146183Y835651D01*
X146162Y835554D01*
X146144Y835455D01*
X146131Y835357D01*
X146121Y835257D01*
X146115Y835158D01*
X146113Y835058D01*
X146115Y834958D01*
X146121Y834859D01*
X146131Y834759D01*
X146144Y834661D01*
X146162Y834562D01*
X146183Y834465D01*
X146208Y834369D01*
X146237Y834273D01*
X146270Y834179D01*
X146306Y834086D01*
X146346Y833995D01*
X146390Y833905D01*
X146437Y833817D01*
X146487Y833731D01*
X146541Y833647D01*
X146598Y833565D01*
X146658Y833486D01*
X146722Y833408D01*
X146788Y833334D01*
X146857Y833262D01*
X146929Y833193D01*
X147003Y833127D01*
X147081Y833063D01*
X147160Y833003D01*
X147242Y832946D01*
X147326Y832892D01*
X147412Y832842D01*
X147500Y832795D01*
X147590Y832751D01*
X147681Y832711D01*
X147774Y832675D01*
X147868Y832642D01*
X147964Y832613D01*
X148060Y832588D01*
X148157Y832567D01*
X148256Y832549D01*
X148354Y832536D01*
X148454Y832526D01*
X148553Y832520D01*
X148653Y832518D01*
X151193Y832518D01*
X151193Y841662D01*
X148653Y841662D01*
X148564Y841660D01*
X148476Y841654D01*
X148388Y841645D01*
X148300Y841631D01*
X148213Y841614D01*
X148127Y841593D01*
X148042Y841568D01*
X147958Y841539D01*
X147875Y841507D01*
X147794Y841472D01*
X147715Y841432D01*
X147637Y841390D01*
X147561Y841344D01*
X147487Y841295D01*
X147416Y841242D01*
X147347Y841187D01*
X147280Y841128D01*
X147216Y841067D01*
X147155Y841003D01*
X147096Y840936D01*
X147041Y840867D01*
X146988Y840796D01*
X146939Y840722D01*
X146893Y840646D01*
X146851Y840568D01*
X146811Y840489D01*
X146776Y840408D01*
X146744Y840325D01*
X146715Y840241D01*
X146690Y840156D01*
X146669Y840070D01*
X146652Y839983D01*
X146638Y839895D01*
X146629Y839807D01*
X146623Y839719D01*
X146621Y839630D01*
X146623Y839541D01*
X146629Y839453D01*
X146638Y839365D01*
X146652Y839277D01*
X146669Y839190D01*
X146690Y839104D01*
X146715Y839019D01*
X146744Y838935D01*
X146776Y838852D01*
X146811Y838771D01*
X146851Y838692D01*
X146893Y838614D01*
X146939Y838538D01*
X146988Y838464D01*
X147041Y838393D01*
X147096Y838324D01*
X147155Y838257D01*
X147216Y838193D01*
X147280Y838132D01*
X147347Y838073D01*
X147416Y838018D01*
X147487Y837965D01*
X147561Y837916D01*
X147637Y837870D01*
X147715Y837828D01*
X147794Y837788D01*
X147875Y837753D01*
X147958Y837721D01*
X148042Y837692D01*
X148127Y837667D01*
X148213Y837646D01*
X148300Y837629D01*
X148388Y837615D01*
X148476Y837606D01*
X148564Y837600D01*
X148653Y837598D01*
D11*
X315600Y813007D02*
X315600Y755507D01*
X141600Y755507D01*
X141600Y813007D01*
X315600Y813007D01*
X165600Y812432D02*
X165600Y807432D01*
X292600Y807432D02*
X292600Y812432D01*
D12*
X189365Y769272D02*
X189365Y760128D01*
X189365Y769272D02*
X186825Y769272D01*
X186725Y769270D01*
X186626Y769264D01*
X186526Y769254D01*
X186428Y769241D01*
X186329Y769223D01*
X186232Y769202D01*
X186136Y769177D01*
X186040Y769148D01*
X185946Y769115D01*
X185853Y769079D01*
X185762Y769039D01*
X185672Y768995D01*
X185584Y768948D01*
X185498Y768898D01*
X185414Y768844D01*
X185332Y768787D01*
X185253Y768727D01*
X185175Y768663D01*
X185101Y768597D01*
X185029Y768528D01*
X184960Y768456D01*
X184894Y768382D01*
X184830Y768304D01*
X184770Y768225D01*
X184713Y768143D01*
X184659Y768059D01*
X184609Y767973D01*
X184562Y767885D01*
X184518Y767795D01*
X184478Y767704D01*
X184442Y767611D01*
X184409Y767517D01*
X184380Y767421D01*
X184355Y767325D01*
X184334Y767228D01*
X184316Y767129D01*
X184303Y767031D01*
X184293Y766931D01*
X184287Y766832D01*
X184285Y766732D01*
X184285Y762668D01*
X184287Y762568D01*
X184293Y762469D01*
X184303Y762369D01*
X184316Y762271D01*
X184334Y762172D01*
X184355Y762075D01*
X184380Y761979D01*
X184409Y761883D01*
X184442Y761789D01*
X184478Y761696D01*
X184518Y761605D01*
X184562Y761515D01*
X184609Y761427D01*
X184659Y761341D01*
X184713Y761257D01*
X184770Y761175D01*
X184830Y761096D01*
X184894Y761018D01*
X184960Y760944D01*
X185029Y760872D01*
X185101Y760803D01*
X185175Y760737D01*
X185253Y760673D01*
X185332Y760613D01*
X185414Y760556D01*
X185498Y760502D01*
X185584Y760452D01*
X185672Y760405D01*
X185762Y760361D01*
X185853Y760321D01*
X185946Y760285D01*
X186040Y760252D01*
X186136Y760223D01*
X186232Y760198D01*
X186329Y760177D01*
X186428Y760159D01*
X186526Y760146D01*
X186626Y760136D01*
X186725Y760130D01*
X186825Y760128D01*
X189365Y760128D01*
X179205Y760128D02*
X179205Y769272D01*
X180221Y760128D02*
X178189Y760128D01*
X178189Y769272D02*
X180221Y769272D01*
X171686Y760128D02*
X171597Y760130D01*
X171509Y760136D01*
X171421Y760145D01*
X171333Y760159D01*
X171246Y760176D01*
X171160Y760197D01*
X171075Y760222D01*
X170991Y760251D01*
X170908Y760283D01*
X170827Y760318D01*
X170748Y760358D01*
X170670Y760400D01*
X170594Y760446D01*
X170520Y760495D01*
X170449Y760548D01*
X170380Y760603D01*
X170313Y760662D01*
X170249Y760723D01*
X170188Y760787D01*
X170129Y760854D01*
X170074Y760923D01*
X170021Y760994D01*
X169972Y761068D01*
X169926Y761144D01*
X169884Y761222D01*
X169844Y761301D01*
X169809Y761382D01*
X169777Y761465D01*
X169748Y761549D01*
X169723Y761634D01*
X169702Y761720D01*
X169685Y761807D01*
X169671Y761895D01*
X169662Y761983D01*
X169656Y762071D01*
X169654Y762160D01*
X171686Y760128D02*
X171816Y760130D01*
X171947Y760136D01*
X172077Y760146D01*
X172206Y760160D01*
X172335Y760177D01*
X172464Y760199D01*
X172592Y760225D01*
X172719Y760254D01*
X172845Y760287D01*
X172970Y760324D01*
X173094Y760365D01*
X173216Y760410D01*
X173337Y760458D01*
X173457Y760510D01*
X173575Y760566D01*
X173691Y760625D01*
X173805Y760688D01*
X173918Y760754D01*
X174028Y760823D01*
X174136Y760896D01*
X174242Y760972D01*
X174346Y761051D01*
X174447Y761133D01*
X174545Y761219D01*
X174641Y761307D01*
X174734Y761398D01*
X174480Y767240D02*
X174478Y767329D01*
X174472Y767417D01*
X174463Y767505D01*
X174449Y767593D01*
X174432Y767680D01*
X174411Y767766D01*
X174386Y767851D01*
X174357Y767935D01*
X174325Y768018D01*
X174290Y768099D01*
X174250Y768178D01*
X174208Y768256D01*
X174162Y768332D01*
X174113Y768406D01*
X174060Y768477D01*
X174005Y768546D01*
X173946Y768613D01*
X173885Y768677D01*
X173821Y768738D01*
X173754Y768797D01*
X173685Y768852D01*
X173614Y768905D01*
X173540Y768954D01*
X173464Y769000D01*
X173386Y769042D01*
X173307Y769082D01*
X173226Y769117D01*
X173143Y769149D01*
X173059Y769178D01*
X172974Y769203D01*
X172888Y769224D01*
X172801Y769241D01*
X172713Y769255D01*
X172625Y769264D01*
X172537Y769270D01*
X172448Y769272D01*
X172325Y769270D01*
X172203Y769264D01*
X172081Y769254D01*
X171959Y769240D01*
X171838Y769223D01*
X171717Y769201D01*
X171597Y769176D01*
X171478Y769146D01*
X171360Y769113D01*
X171243Y769076D01*
X171128Y769036D01*
X171013Y768992D01*
X170900Y768944D01*
X170789Y768892D01*
X170680Y768837D01*
X170572Y768778D01*
X170466Y768716D01*
X170363Y768651D01*
X170261Y768582D01*
X170162Y768510D01*
X173464Y765462D02*
X173540Y765509D01*
X173614Y765559D01*
X173685Y765612D01*
X173754Y765669D01*
X173821Y765728D01*
X173885Y765790D01*
X173947Y765855D01*
X174005Y765923D01*
X174060Y765993D01*
X174113Y766065D01*
X174162Y766139D01*
X174208Y766216D01*
X174251Y766294D01*
X174290Y766375D01*
X174326Y766457D01*
X174358Y766540D01*
X174386Y766624D01*
X174411Y766710D01*
X174432Y766797D01*
X174449Y766885D01*
X174463Y766973D01*
X174472Y767062D01*
X174478Y767151D01*
X174480Y767240D01*
X170670Y763938D02*
X170594Y763891D01*
X170520Y763841D01*
X170449Y763788D01*
X170380Y763731D01*
X170313Y763672D01*
X170249Y763610D01*
X170187Y763545D01*
X170129Y763477D01*
X170074Y763407D01*
X170021Y763335D01*
X169972Y763261D01*
X169926Y763184D01*
X169883Y763106D01*
X169844Y763025D01*
X169808Y762943D01*
X169776Y762860D01*
X169748Y762776D01*
X169723Y762690D01*
X169702Y762603D01*
X169685Y762515D01*
X169671Y762427D01*
X169662Y762338D01*
X169656Y762249D01*
X169654Y762160D01*
X170670Y763938D02*
X173464Y765462D01*
X163965Y769272D02*
X163965Y760128D01*
X166505Y769272D02*
X161425Y769272D01*
X158377Y759112D02*
X154313Y759112D01*
X148653Y760128D02*
X146621Y760128D01*
X148653Y760128D02*
X148742Y760130D01*
X148830Y760136D01*
X148918Y760145D01*
X149006Y760159D01*
X149093Y760176D01*
X149179Y760197D01*
X149264Y760222D01*
X149348Y760251D01*
X149431Y760283D01*
X149512Y760318D01*
X149591Y760358D01*
X149669Y760400D01*
X149745Y760446D01*
X149819Y760495D01*
X149890Y760548D01*
X149959Y760603D01*
X150026Y760662D01*
X150090Y760723D01*
X150151Y760787D01*
X150210Y760854D01*
X150265Y760923D01*
X150318Y760994D01*
X150367Y761068D01*
X150413Y761144D01*
X150455Y761222D01*
X150495Y761301D01*
X150530Y761382D01*
X150562Y761465D01*
X150591Y761549D01*
X150616Y761634D01*
X150637Y761720D01*
X150654Y761807D01*
X150668Y761895D01*
X150677Y761983D01*
X150683Y762071D01*
X150685Y762160D01*
X150685Y767240D01*
X150683Y767329D01*
X150677Y767417D01*
X150668Y767505D01*
X150654Y767593D01*
X150637Y767680D01*
X150616Y767766D01*
X150591Y767851D01*
X150562Y767935D01*
X150530Y768018D01*
X150495Y768099D01*
X150455Y768178D01*
X150413Y768256D01*
X150367Y768332D01*
X150318Y768406D01*
X150265Y768477D01*
X150210Y768546D01*
X150151Y768613D01*
X150090Y768677D01*
X150026Y768738D01*
X149959Y768797D01*
X149890Y768852D01*
X149819Y768905D01*
X149745Y768954D01*
X149669Y769000D01*
X149591Y769042D01*
X149512Y769082D01*
X149431Y769117D01*
X149348Y769149D01*
X149264Y769178D01*
X149179Y769203D01*
X149093Y769224D01*
X149006Y769241D01*
X148918Y769255D01*
X148830Y769264D01*
X148742Y769270D01*
X148653Y769272D01*
X146621Y769272D01*
D11*
X92425Y521530D02*
X92425Y464030D01*
X92425Y521530D02*
X266425Y521530D01*
X266425Y464030D01*
X92425Y464030D01*
X242425Y464605D02*
X242425Y469605D01*
X115425Y469605D02*
X115425Y464605D01*
D12*
X143168Y508313D02*
X143168Y517457D01*
X143168Y513393D02*
X138088Y513393D01*
X138088Y517457D02*
X138088Y508313D01*
X134227Y508313D02*
X131179Y517457D01*
X128131Y508313D01*
X128893Y510599D02*
X133465Y510599D01*
X124250Y508313D02*
X124250Y517457D01*
X124250Y508313D02*
X120186Y508313D01*
X116325Y508313D02*
X116325Y517457D01*
X116325Y508313D02*
X112261Y508313D01*
X109132Y507297D02*
X105068Y507297D01*
X100953Y513393D02*
X98413Y513393D01*
X98313Y513391D01*
X98214Y513385D01*
X98114Y513375D01*
X98016Y513362D01*
X97917Y513344D01*
X97820Y513323D01*
X97724Y513298D01*
X97628Y513269D01*
X97534Y513236D01*
X97441Y513200D01*
X97350Y513160D01*
X97260Y513116D01*
X97172Y513069D01*
X97086Y513019D01*
X97002Y512965D01*
X96920Y512908D01*
X96841Y512848D01*
X96763Y512784D01*
X96689Y512718D01*
X96617Y512649D01*
X96548Y512577D01*
X96482Y512503D01*
X96418Y512425D01*
X96358Y512346D01*
X96301Y512264D01*
X96247Y512180D01*
X96197Y512094D01*
X96150Y512006D01*
X96106Y511916D01*
X96066Y511825D01*
X96030Y511732D01*
X95997Y511638D01*
X95968Y511542D01*
X95943Y511446D01*
X95922Y511349D01*
X95904Y511250D01*
X95891Y511152D01*
X95881Y511052D01*
X95875Y510953D01*
X95873Y510853D01*
X95875Y510753D01*
X95881Y510654D01*
X95891Y510554D01*
X95904Y510456D01*
X95922Y510357D01*
X95943Y510260D01*
X95968Y510164D01*
X95997Y510068D01*
X96030Y509974D01*
X96066Y509881D01*
X96106Y509790D01*
X96150Y509700D01*
X96197Y509612D01*
X96247Y509526D01*
X96301Y509442D01*
X96358Y509360D01*
X96418Y509281D01*
X96482Y509203D01*
X96548Y509129D01*
X96617Y509057D01*
X96689Y508988D01*
X96763Y508922D01*
X96841Y508858D01*
X96920Y508798D01*
X97002Y508741D01*
X97086Y508687D01*
X97172Y508637D01*
X97260Y508590D01*
X97350Y508546D01*
X97441Y508506D01*
X97534Y508470D01*
X97628Y508437D01*
X97724Y508408D01*
X97820Y508383D01*
X97917Y508362D01*
X98016Y508344D01*
X98114Y508331D01*
X98214Y508321D01*
X98313Y508315D01*
X98413Y508313D01*
X100953Y508313D01*
X100953Y517457D01*
X98413Y517457D01*
X98324Y517455D01*
X98236Y517449D01*
X98148Y517440D01*
X98060Y517426D01*
X97973Y517409D01*
X97887Y517388D01*
X97802Y517363D01*
X97718Y517334D01*
X97635Y517302D01*
X97554Y517267D01*
X97475Y517227D01*
X97397Y517185D01*
X97321Y517139D01*
X97247Y517090D01*
X97176Y517037D01*
X97107Y516982D01*
X97040Y516923D01*
X96976Y516862D01*
X96915Y516798D01*
X96856Y516731D01*
X96801Y516662D01*
X96748Y516591D01*
X96699Y516517D01*
X96653Y516441D01*
X96611Y516363D01*
X96571Y516284D01*
X96536Y516203D01*
X96504Y516120D01*
X96475Y516036D01*
X96450Y515951D01*
X96429Y515865D01*
X96412Y515778D01*
X96398Y515690D01*
X96389Y515602D01*
X96383Y515514D01*
X96381Y515425D01*
X96383Y515336D01*
X96389Y515248D01*
X96398Y515160D01*
X96412Y515072D01*
X96429Y514985D01*
X96450Y514899D01*
X96475Y514814D01*
X96504Y514730D01*
X96536Y514647D01*
X96571Y514566D01*
X96611Y514487D01*
X96653Y514409D01*
X96699Y514333D01*
X96748Y514259D01*
X96801Y514188D01*
X96856Y514119D01*
X96915Y514052D01*
X96976Y513988D01*
X97040Y513927D01*
X97107Y513868D01*
X97176Y513813D01*
X97247Y513760D01*
X97321Y513711D01*
X97397Y513665D01*
X97475Y513623D01*
X97554Y513583D01*
X97635Y513548D01*
X97718Y513516D01*
X97802Y513487D01*
X97887Y513462D01*
X97973Y513441D01*
X98060Y513424D01*
X98148Y513410D01*
X98236Y513401D01*
X98324Y513395D01*
X98413Y513393D01*
D13*
X261505Y644101D02*
X263593Y644101D01*
X263682Y644103D01*
X263770Y644109D01*
X263858Y644118D01*
X263946Y644131D01*
X264033Y644148D01*
X264119Y644168D01*
X264204Y644193D01*
X264289Y644220D01*
X264372Y644252D01*
X264453Y644286D01*
X264533Y644325D01*
X264611Y644366D01*
X264688Y644411D01*
X264762Y644459D01*
X264835Y644510D01*
X264905Y644564D01*
X264972Y644622D01*
X265038Y644682D01*
X265100Y644744D01*
X265160Y644810D01*
X265218Y644877D01*
X265272Y644947D01*
X265323Y645020D01*
X265371Y645094D01*
X265416Y645171D01*
X265457Y645249D01*
X265496Y645329D01*
X265530Y645410D01*
X265562Y645493D01*
X265589Y645578D01*
X265614Y645663D01*
X265634Y645749D01*
X265651Y645836D01*
X265664Y645924D01*
X265673Y646012D01*
X265679Y646100D01*
X265681Y646189D01*
X265682Y646189D02*
X265682Y651411D01*
X265681Y651411D02*
X265679Y651500D01*
X265673Y651588D01*
X265664Y651676D01*
X265651Y651764D01*
X265634Y651851D01*
X265614Y651937D01*
X265589Y652022D01*
X265562Y652107D01*
X265530Y652190D01*
X265496Y652271D01*
X265457Y652351D01*
X265416Y652429D01*
X265371Y652506D01*
X265323Y652580D01*
X265272Y652653D01*
X265218Y652723D01*
X265160Y652790D01*
X265100Y652856D01*
X265038Y652918D01*
X264972Y652978D01*
X264905Y653036D01*
X264835Y653090D01*
X264762Y653141D01*
X264688Y653189D01*
X264611Y653234D01*
X264533Y653275D01*
X264453Y653314D01*
X264372Y653348D01*
X264289Y653380D01*
X264204Y653407D01*
X264119Y653432D01*
X264033Y653452D01*
X263946Y653469D01*
X263858Y653482D01*
X263770Y653491D01*
X263682Y653497D01*
X263593Y653499D01*
X261505Y653499D01*
X258036Y651411D02*
X255426Y653499D01*
X255426Y644101D01*
X258036Y644101D02*
X252815Y644101D01*
X246804Y648278D02*
X243671Y648278D01*
X246804Y648278D02*
X246893Y648280D01*
X246981Y648286D01*
X247069Y648295D01*
X247157Y648308D01*
X247244Y648325D01*
X247330Y648345D01*
X247415Y648370D01*
X247500Y648397D01*
X247583Y648429D01*
X247664Y648463D01*
X247744Y648502D01*
X247822Y648543D01*
X247899Y648588D01*
X247973Y648636D01*
X248046Y648687D01*
X248116Y648741D01*
X248183Y648799D01*
X248249Y648859D01*
X248311Y648921D01*
X248371Y648987D01*
X248429Y649054D01*
X248483Y649124D01*
X248534Y649197D01*
X248582Y649271D01*
X248627Y649348D01*
X248668Y649426D01*
X248707Y649506D01*
X248741Y649587D01*
X248773Y649670D01*
X248800Y649755D01*
X248825Y649840D01*
X248845Y649926D01*
X248862Y650013D01*
X248875Y650101D01*
X248884Y650189D01*
X248890Y650277D01*
X248892Y650366D01*
X248892Y650888D01*
X248893Y650888D02*
X248891Y650989D01*
X248885Y651090D01*
X248875Y651191D01*
X248862Y651291D01*
X248844Y651391D01*
X248823Y651490D01*
X248797Y651588D01*
X248768Y651685D01*
X248736Y651781D01*
X248699Y651875D01*
X248659Y651968D01*
X248615Y652060D01*
X248568Y652149D01*
X248517Y652237D01*
X248463Y652323D01*
X248406Y652406D01*
X248346Y652488D01*
X248282Y652566D01*
X248216Y652643D01*
X248146Y652716D01*
X248074Y652787D01*
X247999Y652855D01*
X247921Y652920D01*
X247841Y652982D01*
X247759Y653041D01*
X247674Y653097D01*
X247588Y653149D01*
X247499Y653198D01*
X247408Y653244D01*
X247316Y653285D01*
X247222Y653324D01*
X247127Y653358D01*
X247031Y653389D01*
X246933Y653416D01*
X246835Y653440D01*
X246735Y653459D01*
X246635Y653475D01*
X246535Y653487D01*
X246434Y653495D01*
X246333Y653499D01*
X246231Y653499D01*
X246130Y653495D01*
X246029Y653487D01*
X245929Y653475D01*
X245829Y653459D01*
X245729Y653440D01*
X245631Y653416D01*
X245533Y653389D01*
X245437Y653358D01*
X245342Y653324D01*
X245248Y653285D01*
X245156Y653244D01*
X245065Y653198D01*
X244977Y653149D01*
X244890Y653097D01*
X244805Y653041D01*
X244723Y652982D01*
X244643Y652920D01*
X244565Y652855D01*
X244490Y652787D01*
X244418Y652716D01*
X244348Y652643D01*
X244282Y652566D01*
X244218Y652488D01*
X244158Y652406D01*
X244101Y652323D01*
X244047Y652237D01*
X243996Y652149D01*
X243949Y652060D01*
X243905Y651968D01*
X243865Y651875D01*
X243828Y651781D01*
X243796Y651685D01*
X243767Y651588D01*
X243741Y651490D01*
X243720Y651391D01*
X243702Y651291D01*
X243689Y651191D01*
X243679Y651090D01*
X243673Y650989D01*
X243671Y650888D01*
X243671Y648278D01*
X243673Y648152D01*
X243679Y648026D01*
X243688Y647900D01*
X243701Y647775D01*
X243719Y647650D01*
X243739Y647525D01*
X243764Y647401D01*
X243792Y647278D01*
X243824Y647156D01*
X243860Y647035D01*
X243899Y646915D01*
X243942Y646797D01*
X243989Y646680D01*
X244039Y646564D01*
X244093Y646449D01*
X244149Y646337D01*
X244210Y646226D01*
X244273Y646117D01*
X244340Y646010D01*
X244410Y645905D01*
X244484Y645802D01*
X244560Y645702D01*
X244639Y645604D01*
X244721Y645508D01*
X244807Y645415D01*
X244894Y645324D01*
X244985Y645237D01*
X245078Y645151D01*
X245174Y645069D01*
X245272Y644990D01*
X245372Y644914D01*
X245475Y644840D01*
X245580Y644770D01*
X245687Y644703D01*
X245796Y644640D01*
X245907Y644579D01*
X246019Y644523D01*
X246134Y644469D01*
X246250Y644419D01*
X246367Y644372D01*
X246485Y644329D01*
X246605Y644290D01*
X246726Y644254D01*
X246848Y644222D01*
X246971Y644194D01*
X247095Y644169D01*
X247220Y644149D01*
X247345Y644131D01*
X247470Y644118D01*
X247596Y644109D01*
X247722Y644103D01*
X247848Y644101D01*
X260870Y662516D02*
X262958Y662516D01*
X263047Y662518D01*
X263135Y662524D01*
X263223Y662533D01*
X263311Y662546D01*
X263398Y662563D01*
X263484Y662583D01*
X263569Y662608D01*
X263654Y662635D01*
X263737Y662667D01*
X263818Y662701D01*
X263898Y662740D01*
X263976Y662781D01*
X264053Y662826D01*
X264127Y662874D01*
X264200Y662925D01*
X264270Y662979D01*
X264337Y663037D01*
X264403Y663097D01*
X264465Y663159D01*
X264525Y663225D01*
X264583Y663292D01*
X264637Y663362D01*
X264688Y663435D01*
X264736Y663509D01*
X264781Y663586D01*
X264822Y663664D01*
X264861Y663744D01*
X264895Y663825D01*
X264927Y663908D01*
X264954Y663993D01*
X264979Y664078D01*
X264999Y664164D01*
X265016Y664251D01*
X265029Y664339D01*
X265038Y664427D01*
X265044Y664515D01*
X265046Y664604D01*
X265047Y664604D02*
X265047Y669826D01*
X265046Y669826D02*
X265044Y669915D01*
X265038Y670003D01*
X265029Y670091D01*
X265016Y670179D01*
X264999Y670266D01*
X264979Y670352D01*
X264954Y670437D01*
X264927Y670522D01*
X264895Y670605D01*
X264861Y670686D01*
X264822Y670766D01*
X264781Y670844D01*
X264736Y670921D01*
X264688Y670995D01*
X264637Y671068D01*
X264583Y671138D01*
X264525Y671205D01*
X264465Y671271D01*
X264403Y671333D01*
X264337Y671393D01*
X264270Y671451D01*
X264200Y671505D01*
X264127Y671556D01*
X264053Y671604D01*
X263976Y671649D01*
X263898Y671690D01*
X263818Y671729D01*
X263737Y671763D01*
X263654Y671795D01*
X263569Y671822D01*
X263484Y671847D01*
X263398Y671867D01*
X263311Y671884D01*
X263223Y671897D01*
X263135Y671906D01*
X263047Y671912D01*
X262958Y671914D01*
X260870Y671914D01*
X254529Y671915D02*
X254434Y671913D01*
X254340Y671907D01*
X254246Y671898D01*
X254152Y671885D01*
X254059Y671868D01*
X253967Y671847D01*
X253875Y671822D01*
X253785Y671794D01*
X253696Y671762D01*
X253608Y671727D01*
X253522Y671688D01*
X253437Y671646D01*
X253354Y671600D01*
X253273Y671551D01*
X253194Y671499D01*
X253117Y671444D01*
X253043Y671385D01*
X252971Y671324D01*
X252901Y671260D01*
X252834Y671193D01*
X252770Y671123D01*
X252709Y671051D01*
X252650Y670977D01*
X252595Y670900D01*
X252543Y670821D01*
X252494Y670740D01*
X252448Y670657D01*
X252406Y670572D01*
X252367Y670486D01*
X252332Y670398D01*
X252300Y670309D01*
X252272Y670219D01*
X252247Y670127D01*
X252226Y670035D01*
X252209Y669942D01*
X252196Y669848D01*
X252187Y669754D01*
X252181Y669660D01*
X252179Y669565D01*
X254529Y671914D02*
X254637Y671912D01*
X254746Y671906D01*
X254854Y671896D01*
X254961Y671883D01*
X255068Y671865D01*
X255175Y671844D01*
X255280Y671819D01*
X255385Y671790D01*
X255488Y671758D01*
X255590Y671721D01*
X255691Y671681D01*
X255790Y671638D01*
X255888Y671591D01*
X255984Y671540D01*
X256078Y671486D01*
X256170Y671429D01*
X256260Y671368D01*
X256348Y671304D01*
X256433Y671238D01*
X256516Y671168D01*
X256596Y671095D01*
X256674Y671019D01*
X256749Y670941D01*
X256821Y670860D01*
X256890Y670776D01*
X256956Y670690D01*
X257019Y670602D01*
X257078Y670511D01*
X257135Y670419D01*
X257188Y670324D01*
X257237Y670227D01*
X257283Y670129D01*
X257326Y670030D01*
X257365Y669928D01*
X257400Y669826D01*
X252963Y667737D02*
X252894Y667806D01*
X252828Y667877D01*
X252764Y667950D01*
X252703Y668026D01*
X252645Y668105D01*
X252591Y668185D01*
X252539Y668268D01*
X252491Y668352D01*
X252445Y668438D01*
X252404Y668526D01*
X252365Y668616D01*
X252330Y668707D01*
X252299Y668799D01*
X252271Y668892D01*
X252247Y668986D01*
X252227Y669081D01*
X252210Y669177D01*
X252197Y669274D01*
X252188Y669371D01*
X252182Y669468D01*
X252180Y669565D01*
X252963Y667737D02*
X257401Y662516D01*
X252180Y662516D01*
X248257Y667215D02*
X248255Y667400D01*
X248248Y667585D01*
X248237Y667769D01*
X248222Y667953D01*
X248202Y668137D01*
X248178Y668321D01*
X248149Y668503D01*
X248116Y668685D01*
X248079Y668866D01*
X248037Y669046D01*
X247991Y669226D01*
X247941Y669404D01*
X247887Y669580D01*
X247828Y669756D01*
X247766Y669930D01*
X247699Y670102D01*
X247628Y670273D01*
X247553Y670442D01*
X247474Y670609D01*
X247475Y670609D02*
X247445Y670689D01*
X247412Y670768D01*
X247375Y670845D01*
X247335Y670921D01*
X247292Y670995D01*
X247246Y671067D01*
X247196Y671136D01*
X247144Y671204D01*
X247088Y671269D01*
X247030Y671332D01*
X246968Y671391D01*
X246905Y671449D01*
X246838Y671503D01*
X246770Y671554D01*
X246699Y671602D01*
X246626Y671647D01*
X246552Y671689D01*
X246475Y671727D01*
X246397Y671762D01*
X246318Y671794D01*
X246237Y671822D01*
X246155Y671846D01*
X246071Y671867D01*
X245988Y671884D01*
X245903Y671897D01*
X245818Y671906D01*
X245733Y671912D01*
X245647Y671914D01*
X245561Y671912D01*
X245476Y671906D01*
X245391Y671897D01*
X245306Y671884D01*
X245223Y671867D01*
X245139Y671846D01*
X245057Y671822D01*
X244977Y671794D01*
X244897Y671762D01*
X244819Y671727D01*
X244742Y671689D01*
X244668Y671647D01*
X244595Y671602D01*
X244524Y671554D01*
X244456Y671503D01*
X244389Y671449D01*
X244326Y671391D01*
X244265Y671332D01*
X244206Y671269D01*
X244151Y671204D01*
X244098Y671136D01*
X244048Y671067D01*
X244002Y670995D01*
X243959Y670921D01*
X243919Y670845D01*
X243882Y670768D01*
X243849Y670689D01*
X243819Y670609D01*
X243740Y670442D01*
X243665Y670273D01*
X243594Y670102D01*
X243527Y669930D01*
X243465Y669756D01*
X243406Y669580D01*
X243352Y669404D01*
X243302Y669226D01*
X243256Y669046D01*
X243214Y668866D01*
X243177Y668685D01*
X243144Y668503D01*
X243115Y668321D01*
X243091Y668137D01*
X243071Y667953D01*
X243056Y667769D01*
X243045Y667585D01*
X243038Y667400D01*
X243036Y667215D01*
X248257Y667215D02*
X248255Y667030D01*
X248248Y666845D01*
X248237Y666661D01*
X248222Y666477D01*
X248202Y666293D01*
X248178Y666109D01*
X248149Y665927D01*
X248116Y665745D01*
X248079Y665564D01*
X248037Y665384D01*
X247991Y665204D01*
X247941Y665026D01*
X247887Y664850D01*
X247828Y664674D01*
X247766Y664500D01*
X247699Y664328D01*
X247628Y664157D01*
X247553Y663988D01*
X247474Y663821D01*
X247475Y663821D02*
X247445Y663741D01*
X247412Y663662D01*
X247375Y663585D01*
X247335Y663509D01*
X247292Y663435D01*
X247246Y663363D01*
X247196Y663294D01*
X247143Y663226D01*
X247088Y663161D01*
X247029Y663098D01*
X246968Y663039D01*
X246905Y662981D01*
X246838Y662927D01*
X246770Y662876D01*
X246699Y662828D01*
X246626Y662783D01*
X246552Y662741D01*
X246475Y662703D01*
X246397Y662668D01*
X246318Y662636D01*
X246237Y662608D01*
X246155Y662584D01*
X246071Y662563D01*
X245988Y662546D01*
X245903Y662533D01*
X245818Y662524D01*
X245733Y662518D01*
X245647Y662516D01*
X243819Y663821D02*
X243740Y663988D01*
X243665Y664157D01*
X243594Y664328D01*
X243527Y664500D01*
X243465Y664674D01*
X243406Y664850D01*
X243352Y665026D01*
X243302Y665204D01*
X243256Y665384D01*
X243214Y665564D01*
X243177Y665745D01*
X243144Y665927D01*
X243115Y666109D01*
X243091Y666293D01*
X243071Y666477D01*
X243056Y666661D01*
X243045Y666845D01*
X243038Y667030D01*
X243036Y667215D01*
X243819Y663821D02*
X243849Y663741D01*
X243882Y663662D01*
X243919Y663585D01*
X243959Y663509D01*
X244002Y663435D01*
X244048Y663363D01*
X244098Y663294D01*
X244151Y663226D01*
X244206Y663161D01*
X244265Y663098D01*
X244326Y663039D01*
X244389Y662981D01*
X244456Y662927D01*
X244524Y662876D01*
X244595Y662828D01*
X244668Y662783D01*
X244742Y662741D01*
X244819Y662703D01*
X244897Y662668D01*
X244977Y662636D01*
X245057Y662608D01*
X245139Y662584D01*
X245223Y662563D01*
X245306Y662546D01*
X245391Y662533D01*
X245476Y662524D01*
X245561Y662518D01*
X245647Y662516D01*
X247735Y664604D02*
X243558Y669826D01*
X262140Y627591D02*
X264228Y627591D01*
X264317Y627593D01*
X264405Y627599D01*
X264493Y627608D01*
X264581Y627621D01*
X264668Y627638D01*
X264754Y627658D01*
X264839Y627683D01*
X264924Y627710D01*
X265007Y627742D01*
X265088Y627776D01*
X265168Y627815D01*
X265246Y627856D01*
X265323Y627901D01*
X265397Y627949D01*
X265470Y628000D01*
X265540Y628054D01*
X265607Y628112D01*
X265673Y628172D01*
X265735Y628234D01*
X265795Y628300D01*
X265853Y628367D01*
X265907Y628437D01*
X265958Y628510D01*
X266006Y628584D01*
X266051Y628661D01*
X266092Y628739D01*
X266131Y628819D01*
X266165Y628900D01*
X266197Y628983D01*
X266224Y629068D01*
X266249Y629153D01*
X266269Y629239D01*
X266286Y629326D01*
X266299Y629414D01*
X266308Y629502D01*
X266314Y629590D01*
X266316Y629679D01*
X266317Y629679D02*
X266317Y634901D01*
X266316Y634901D02*
X266314Y634990D01*
X266308Y635078D01*
X266299Y635166D01*
X266286Y635254D01*
X266269Y635341D01*
X266249Y635427D01*
X266224Y635512D01*
X266197Y635597D01*
X266165Y635680D01*
X266131Y635761D01*
X266092Y635841D01*
X266051Y635919D01*
X266006Y635996D01*
X265958Y636070D01*
X265907Y636143D01*
X265853Y636213D01*
X265795Y636280D01*
X265735Y636346D01*
X265673Y636408D01*
X265607Y636468D01*
X265540Y636526D01*
X265470Y636580D01*
X265397Y636631D01*
X265323Y636679D01*
X265246Y636724D01*
X265168Y636765D01*
X265088Y636804D01*
X265007Y636838D01*
X264924Y636870D01*
X264839Y636897D01*
X264754Y636922D01*
X264668Y636942D01*
X264581Y636959D01*
X264493Y636972D01*
X264405Y636981D01*
X264317Y636987D01*
X264228Y636989D01*
X262140Y636989D01*
X255799Y636990D02*
X255704Y636988D01*
X255610Y636982D01*
X255516Y636973D01*
X255422Y636960D01*
X255329Y636943D01*
X255237Y636922D01*
X255145Y636897D01*
X255055Y636869D01*
X254966Y636837D01*
X254878Y636802D01*
X254792Y636763D01*
X254707Y636721D01*
X254624Y636675D01*
X254543Y636626D01*
X254464Y636574D01*
X254387Y636519D01*
X254313Y636460D01*
X254241Y636399D01*
X254171Y636335D01*
X254104Y636268D01*
X254040Y636198D01*
X253979Y636126D01*
X253920Y636052D01*
X253865Y635975D01*
X253813Y635896D01*
X253764Y635815D01*
X253718Y635732D01*
X253676Y635647D01*
X253637Y635561D01*
X253602Y635473D01*
X253570Y635384D01*
X253542Y635294D01*
X253517Y635202D01*
X253496Y635110D01*
X253479Y635017D01*
X253466Y634923D01*
X253457Y634829D01*
X253451Y634735D01*
X253449Y634640D01*
X255799Y636989D02*
X255907Y636987D01*
X256016Y636981D01*
X256124Y636971D01*
X256231Y636958D01*
X256338Y636940D01*
X256445Y636919D01*
X256550Y636894D01*
X256655Y636865D01*
X256758Y636833D01*
X256860Y636796D01*
X256961Y636756D01*
X257060Y636713D01*
X257158Y636666D01*
X257254Y636615D01*
X257348Y636561D01*
X257440Y636504D01*
X257530Y636443D01*
X257618Y636379D01*
X257703Y636313D01*
X257786Y636243D01*
X257866Y636170D01*
X257944Y636094D01*
X258019Y636016D01*
X258091Y635935D01*
X258160Y635851D01*
X258226Y635765D01*
X258289Y635677D01*
X258348Y635586D01*
X258405Y635494D01*
X258458Y635399D01*
X258507Y635302D01*
X258553Y635204D01*
X258596Y635105D01*
X258635Y635003D01*
X258670Y634901D01*
X254233Y632812D02*
X254164Y632881D01*
X254098Y632952D01*
X254034Y633025D01*
X253973Y633101D01*
X253915Y633180D01*
X253861Y633260D01*
X253809Y633343D01*
X253761Y633427D01*
X253715Y633513D01*
X253674Y633601D01*
X253635Y633691D01*
X253600Y633782D01*
X253569Y633874D01*
X253541Y633967D01*
X253517Y634061D01*
X253497Y634156D01*
X253480Y634252D01*
X253467Y634349D01*
X253458Y634446D01*
X253452Y634543D01*
X253450Y634640D01*
X254233Y632812D02*
X258671Y627591D01*
X253450Y627591D01*
X249527Y634901D02*
X246917Y636989D01*
X246917Y627591D01*
X249527Y627591D02*
X244306Y627591D01*
D16*
X78620Y624170D02*
X78620Y646670D01*
X51620Y646670D02*
X51620Y624170D01*
D17*
X65120Y599420D03*
D13*
X45999Y616691D02*
X36761Y616691D01*
X45999Y616691D02*
X45999Y619257D01*
X45997Y619355D01*
X45991Y619453D01*
X45982Y619551D01*
X45969Y619649D01*
X45952Y619746D01*
X45932Y619842D01*
X45907Y619937D01*
X45879Y620031D01*
X45848Y620124D01*
X45813Y620216D01*
X45774Y620307D01*
X45733Y620396D01*
X45687Y620483D01*
X45639Y620568D01*
X45587Y620652D01*
X45532Y620733D01*
X45474Y620813D01*
X45413Y620890D01*
X45349Y620964D01*
X45282Y621036D01*
X45212Y621106D01*
X45140Y621173D01*
X45066Y621237D01*
X44989Y621298D01*
X44909Y621356D01*
X44828Y621411D01*
X44744Y621463D01*
X44659Y621511D01*
X44572Y621557D01*
X44483Y621598D01*
X44392Y621637D01*
X44300Y621672D01*
X44207Y621703D01*
X44113Y621731D01*
X44018Y621756D01*
X43922Y621776D01*
X43825Y621793D01*
X43727Y621806D01*
X43629Y621815D01*
X43531Y621821D01*
X43433Y621823D01*
X39327Y621823D01*
X39229Y621821D01*
X39131Y621815D01*
X39033Y621806D01*
X38935Y621793D01*
X38838Y621776D01*
X38742Y621756D01*
X38647Y621731D01*
X38553Y621703D01*
X38460Y621672D01*
X38368Y621637D01*
X38277Y621598D01*
X38188Y621557D01*
X38101Y621511D01*
X38016Y621463D01*
X37932Y621411D01*
X37851Y621356D01*
X37771Y621298D01*
X37694Y621237D01*
X37620Y621173D01*
X37548Y621106D01*
X37478Y621036D01*
X37411Y620964D01*
X37347Y620890D01*
X37286Y620813D01*
X37228Y620733D01*
X37173Y620652D01*
X37121Y620568D01*
X37073Y620483D01*
X37027Y620396D01*
X36986Y620307D01*
X36947Y620216D01*
X36912Y620124D01*
X36881Y620031D01*
X36853Y619937D01*
X36828Y619842D01*
X36808Y619746D01*
X36791Y619649D01*
X36778Y619551D01*
X36769Y619453D01*
X36763Y619355D01*
X36761Y619257D01*
X36761Y616691D01*
X39327Y625991D02*
X39426Y625993D01*
X39526Y625999D01*
X39625Y626008D01*
X39723Y626022D01*
X39821Y626039D01*
X39919Y626060D01*
X40015Y626085D01*
X40110Y626114D01*
X40205Y626146D01*
X40297Y626182D01*
X40389Y626221D01*
X40479Y626264D01*
X40567Y626310D01*
X40653Y626360D01*
X40737Y626413D01*
X40819Y626469D01*
X40899Y626529D01*
X40976Y626591D01*
X41051Y626657D01*
X41124Y626725D01*
X41193Y626796D01*
X41260Y626870D01*
X41324Y626946D01*
X41385Y627025D01*
X41443Y627106D01*
X41498Y627189D01*
X41549Y627274D01*
X41597Y627361D01*
X41642Y627450D01*
X41683Y627541D01*
X41721Y627633D01*
X41755Y627726D01*
X41785Y627821D01*
X41812Y627917D01*
X41835Y628014D01*
X41854Y628111D01*
X41869Y628210D01*
X41881Y628309D01*
X41889Y628408D01*
X41893Y628507D01*
X41893Y628607D01*
X41889Y628706D01*
X41881Y628805D01*
X41869Y628904D01*
X41854Y629003D01*
X41835Y629100D01*
X41812Y629197D01*
X41785Y629293D01*
X41755Y629388D01*
X41721Y629481D01*
X41683Y629573D01*
X41642Y629664D01*
X41597Y629753D01*
X41549Y629840D01*
X41498Y629925D01*
X41443Y630008D01*
X41385Y630089D01*
X41324Y630168D01*
X41260Y630244D01*
X41193Y630318D01*
X41124Y630389D01*
X41051Y630457D01*
X40976Y630523D01*
X40899Y630585D01*
X40819Y630645D01*
X40737Y630701D01*
X40653Y630754D01*
X40567Y630804D01*
X40479Y630850D01*
X40389Y630893D01*
X40297Y630932D01*
X40205Y630968D01*
X40110Y631000D01*
X40015Y631029D01*
X39919Y631054D01*
X39821Y631075D01*
X39723Y631092D01*
X39625Y631106D01*
X39526Y631115D01*
X39426Y631121D01*
X39327Y631123D01*
X39228Y631121D01*
X39128Y631115D01*
X39029Y631106D01*
X38931Y631092D01*
X38833Y631075D01*
X38735Y631054D01*
X38639Y631029D01*
X38544Y631000D01*
X38449Y630968D01*
X38357Y630932D01*
X38265Y630893D01*
X38175Y630850D01*
X38087Y630804D01*
X38001Y630754D01*
X37917Y630701D01*
X37835Y630645D01*
X37755Y630585D01*
X37678Y630523D01*
X37603Y630457D01*
X37530Y630389D01*
X37461Y630318D01*
X37394Y630244D01*
X37330Y630168D01*
X37269Y630089D01*
X37211Y630008D01*
X37156Y629925D01*
X37105Y629840D01*
X37057Y629753D01*
X37012Y629664D01*
X36971Y629573D01*
X36933Y629481D01*
X36899Y629388D01*
X36869Y629293D01*
X36842Y629197D01*
X36819Y629100D01*
X36800Y629003D01*
X36785Y628904D01*
X36773Y628805D01*
X36765Y628706D01*
X36761Y628607D01*
X36761Y628507D01*
X36765Y628408D01*
X36773Y628309D01*
X36785Y628210D01*
X36800Y628111D01*
X36819Y628014D01*
X36842Y627917D01*
X36869Y627821D01*
X36899Y627726D01*
X36933Y627633D01*
X36971Y627541D01*
X37012Y627450D01*
X37057Y627361D01*
X37105Y627274D01*
X37156Y627189D01*
X37211Y627106D01*
X37269Y627025D01*
X37330Y626946D01*
X37394Y626870D01*
X37461Y626796D01*
X37530Y626725D01*
X37603Y626657D01*
X37678Y626591D01*
X37755Y626529D01*
X37835Y626469D01*
X37917Y626413D01*
X38001Y626360D01*
X38087Y626310D01*
X38175Y626264D01*
X38265Y626221D01*
X38357Y626182D01*
X38449Y626146D01*
X38544Y626114D01*
X38639Y626085D01*
X38735Y626060D01*
X38833Y626039D01*
X38931Y626022D01*
X39029Y626008D01*
X39128Y625999D01*
X39228Y625993D01*
X39327Y625991D01*
X43946Y626504D02*
X44036Y626506D01*
X44125Y626512D01*
X44214Y626522D01*
X44302Y626535D01*
X44390Y626553D01*
X44477Y626574D01*
X44563Y626599D01*
X44648Y626628D01*
X44732Y626660D01*
X44814Y626696D01*
X44894Y626736D01*
X44973Y626779D01*
X45049Y626826D01*
X45124Y626875D01*
X45196Y626928D01*
X45266Y626984D01*
X45333Y627043D01*
X45398Y627105D01*
X45460Y627170D01*
X45519Y627237D01*
X45575Y627307D01*
X45628Y627379D01*
X45677Y627454D01*
X45724Y627531D01*
X45767Y627609D01*
X45807Y627689D01*
X45843Y627771D01*
X45875Y627855D01*
X45904Y627940D01*
X45929Y628026D01*
X45950Y628113D01*
X45968Y628201D01*
X45981Y628289D01*
X45991Y628378D01*
X45997Y628467D01*
X45999Y628557D01*
X45997Y628647D01*
X45991Y628736D01*
X45981Y628825D01*
X45968Y628913D01*
X45950Y629001D01*
X45929Y629088D01*
X45904Y629174D01*
X45875Y629259D01*
X45843Y629343D01*
X45807Y629425D01*
X45767Y629505D01*
X45724Y629584D01*
X45677Y629660D01*
X45628Y629735D01*
X45575Y629807D01*
X45519Y629877D01*
X45460Y629944D01*
X45398Y630009D01*
X45333Y630071D01*
X45266Y630130D01*
X45196Y630186D01*
X45124Y630239D01*
X45049Y630288D01*
X44973Y630335D01*
X44894Y630378D01*
X44814Y630418D01*
X44732Y630454D01*
X44648Y630486D01*
X44563Y630515D01*
X44477Y630540D01*
X44390Y630561D01*
X44302Y630579D01*
X44214Y630592D01*
X44125Y630602D01*
X44036Y630608D01*
X43946Y630610D01*
X43856Y630608D01*
X43767Y630602D01*
X43678Y630592D01*
X43590Y630579D01*
X43502Y630561D01*
X43415Y630540D01*
X43329Y630515D01*
X43244Y630486D01*
X43160Y630454D01*
X43078Y630418D01*
X42998Y630378D01*
X42920Y630335D01*
X42843Y630288D01*
X42768Y630239D01*
X42696Y630186D01*
X42626Y630130D01*
X42559Y630071D01*
X42494Y630009D01*
X42432Y629944D01*
X42373Y629877D01*
X42317Y629807D01*
X42264Y629735D01*
X42215Y629660D01*
X42168Y629584D01*
X42125Y629505D01*
X42085Y629425D01*
X42049Y629343D01*
X42017Y629259D01*
X41988Y629174D01*
X41963Y629088D01*
X41942Y629001D01*
X41924Y628913D01*
X41911Y628825D01*
X41901Y628736D01*
X41895Y628647D01*
X41893Y628557D01*
X41895Y628467D01*
X41901Y628378D01*
X41911Y628289D01*
X41924Y628201D01*
X41942Y628113D01*
X41963Y628026D01*
X41988Y627940D01*
X42017Y627855D01*
X42049Y627771D01*
X42085Y627689D01*
X42125Y627609D01*
X42168Y627531D01*
X42215Y627454D01*
X42264Y627379D01*
X42317Y627307D01*
X42373Y627237D01*
X42432Y627170D01*
X42494Y627105D01*
X42559Y627043D01*
X42626Y626984D01*
X42696Y626928D01*
X42768Y626875D01*
X42843Y626826D01*
X42919Y626779D01*
X42998Y626736D01*
X43078Y626696D01*
X43160Y626660D01*
X43244Y626628D01*
X43329Y626599D01*
X43415Y626574D01*
X43502Y626553D01*
X43590Y626535D01*
X43678Y626522D01*
X43767Y626512D01*
X43856Y626506D01*
X43946Y626504D01*
M02*
