G04 EAGLE Gerber RS-274X export*
G75*
%MOMM*%
%FSLAX34Y34*%
%LPD*%
%INSilkscreen Top*%
%IPPOS*%
%AMOC8*
5,1,8,0,0,1.08239X$1,22.5*%
G01*
%ADD10C,0.025400*%
%ADD11C,0.076200*%
%ADD12C,0.050800*%
%ADD13C,0.127000*%
%ADD14C,0.101600*%
%ADD15C,0.200000*%
%ADD16C,0.100000*%
%ADD17C,0.203200*%
%ADD18C,0.254000*%
%ADD19C,0.152400*%
%ADD20R,1.100000X0.100000*%

G36*
X559055Y617009D02*
X559055Y617009D01*
X559055Y617010D01*
X559055Y629010D01*
X559051Y629015D01*
X559050Y629015D01*
X553050Y629015D01*
X553046Y629011D01*
X553046Y629010D01*
X553045Y629010D01*
X553045Y627010D01*
X553049Y627005D01*
X553050Y627005D01*
X553964Y626874D01*
X554826Y626543D01*
X555592Y626028D01*
X556224Y625356D01*
X556692Y624560D01*
X556970Y623680D01*
X557045Y622760D01*
X557042Y622740D01*
X557020Y622586D01*
X557014Y622546D01*
X556992Y622392D01*
X556986Y622352D01*
X556964Y622198D01*
X556958Y622158D01*
X556935Y622004D01*
X556930Y621964D01*
X556921Y621902D01*
X556608Y621093D01*
X556123Y620375D01*
X555491Y619782D01*
X554742Y619344D01*
X553915Y619084D01*
X553050Y619015D01*
X553045Y619010D01*
X553046Y619010D01*
X553045Y619010D01*
X553045Y617010D01*
X553050Y617005D01*
X559050Y617005D01*
X559055Y617009D01*
G37*
G36*
X559055Y587502D02*
X559055Y587502D01*
X559055Y599502D01*
X559051Y599507D01*
X559050Y599507D01*
X553050Y599507D01*
X553046Y599503D01*
X553046Y599502D01*
X553045Y599502D01*
X553045Y597502D01*
X553049Y597498D01*
X553050Y597497D01*
X553964Y597366D01*
X554826Y597035D01*
X555592Y596521D01*
X556224Y595849D01*
X556692Y595052D01*
X556970Y594172D01*
X557045Y593253D01*
X557042Y593232D01*
X557020Y593078D01*
X557014Y593038D01*
X556992Y592884D01*
X556986Y592844D01*
X556964Y592690D01*
X556958Y592651D01*
X556935Y592497D01*
X556935Y592496D01*
X556930Y592457D01*
X556921Y592395D01*
X556608Y591586D01*
X556123Y590867D01*
X555491Y590274D01*
X554742Y589836D01*
X553915Y589577D01*
X553050Y589507D01*
X553045Y589503D01*
X553046Y589502D01*
X553045Y589502D01*
X553045Y587502D01*
X553050Y587497D01*
X553050Y587498D01*
X553050Y587497D01*
X559050Y587497D01*
X559055Y587502D01*
G37*
G36*
X559209Y555541D02*
X559209Y555541D01*
X559209Y555542D01*
X559209Y567542D01*
X559205Y567547D01*
X559205Y567546D01*
X559204Y567547D01*
X553204Y567547D01*
X553199Y567542D01*
X553200Y567542D01*
X553199Y567542D01*
X553199Y565542D01*
X553203Y565537D01*
X554118Y565406D01*
X554979Y565074D01*
X555746Y564560D01*
X556378Y563888D01*
X556845Y563092D01*
X557124Y562212D01*
X557199Y561292D01*
X557196Y561271D01*
X557174Y561117D01*
X557168Y561077D01*
X557146Y560923D01*
X557140Y560884D01*
X557117Y560730D01*
X557112Y560690D01*
X557089Y560536D01*
X557083Y560496D01*
X557074Y560434D01*
X556762Y559625D01*
X556277Y558906D01*
X555645Y558313D01*
X554896Y557876D01*
X554069Y557616D01*
X553204Y557547D01*
X553199Y557542D01*
X553199Y555542D01*
X553204Y555537D01*
X559204Y555537D01*
X559209Y555541D01*
G37*
G36*
X574055Y617009D02*
X574055Y617009D01*
X574055Y617010D01*
X574055Y619010D01*
X574051Y619015D01*
X573137Y619146D01*
X572275Y619477D01*
X571509Y619992D01*
X570877Y620664D01*
X570409Y621460D01*
X570131Y622340D01*
X570055Y623260D01*
X570056Y623260D01*
X570072Y623374D01*
X570078Y623414D01*
X570084Y623454D01*
X570100Y623568D01*
X570106Y623608D01*
X570112Y623648D01*
X570128Y623762D01*
X570129Y623762D01*
X570134Y623802D01*
X570140Y623841D01*
X570157Y623956D01*
X570162Y623995D01*
X570168Y624035D01*
X570180Y624118D01*
X570493Y624927D01*
X570978Y625646D01*
X571610Y626239D01*
X572359Y626676D01*
X573186Y626936D01*
X574051Y627005D01*
X574055Y627010D01*
X574055Y629010D01*
X574051Y629015D01*
X574050Y629015D01*
X568050Y629015D01*
X568046Y629011D01*
X568046Y629010D01*
X568045Y629010D01*
X568045Y617010D01*
X568050Y617005D01*
X574050Y617005D01*
X574055Y617009D01*
G37*
G36*
X574055Y587502D02*
X574055Y587502D01*
X574055Y589502D01*
X574051Y589507D01*
X573137Y589638D01*
X572275Y589970D01*
X571509Y590484D01*
X570877Y591156D01*
X570409Y591952D01*
X570131Y592832D01*
X570055Y593752D01*
X570056Y593752D01*
X570072Y593867D01*
X570078Y593906D01*
X570084Y593946D01*
X570100Y594060D01*
X570106Y594100D01*
X570112Y594140D01*
X570128Y594254D01*
X570129Y594254D01*
X570134Y594294D01*
X570140Y594334D01*
X570157Y594448D01*
X570162Y594488D01*
X570168Y594527D01*
X570180Y594610D01*
X570493Y595419D01*
X570978Y596138D01*
X571610Y596731D01*
X572359Y597168D01*
X573186Y597428D01*
X574051Y597497D01*
X574055Y597502D01*
X574055Y599502D01*
X574051Y599507D01*
X574050Y599507D01*
X568050Y599507D01*
X568046Y599503D01*
X568046Y599502D01*
X568045Y599502D01*
X568045Y587502D01*
X568050Y587497D01*
X568050Y587498D01*
X568050Y587497D01*
X574050Y587497D01*
X574055Y587502D01*
G37*
G36*
X574209Y555541D02*
X574209Y555541D01*
X574209Y555542D01*
X574209Y557542D01*
X574205Y557546D01*
X574205Y557547D01*
X573291Y557678D01*
X572429Y558009D01*
X571663Y558523D01*
X571030Y559195D01*
X570563Y559992D01*
X570285Y560872D01*
X570209Y561791D01*
X570209Y561792D01*
X570226Y561906D01*
X570232Y561946D01*
X570237Y561985D01*
X570254Y562100D01*
X570260Y562139D01*
X570260Y562140D01*
X570266Y562179D01*
X570282Y562294D01*
X570288Y562333D01*
X570294Y562373D01*
X570310Y562487D01*
X570316Y562527D01*
X570322Y562567D01*
X570334Y562649D01*
X570647Y563458D01*
X571131Y564177D01*
X571764Y564770D01*
X572513Y565208D01*
X573340Y565467D01*
X574205Y565537D01*
X574209Y565541D01*
X574209Y565542D01*
X574209Y567542D01*
X574205Y567547D01*
X574205Y567546D01*
X574204Y567547D01*
X568204Y567547D01*
X568199Y567542D01*
X568200Y567542D01*
X568199Y567542D01*
X568199Y555542D01*
X568204Y555537D01*
X574204Y555537D01*
X574209Y555541D01*
G37*
D10*
X131149Y550884D02*
X131784Y550884D01*
X131784Y548767D01*
X130514Y548767D01*
X130459Y548769D01*
X130403Y548774D01*
X130349Y548783D01*
X130295Y548796D01*
X130242Y548812D01*
X130190Y548831D01*
X130139Y548854D01*
X130091Y548880D01*
X130043Y548910D01*
X129998Y548942D01*
X129956Y548977D01*
X129915Y549015D01*
X129877Y549056D01*
X129842Y549098D01*
X129810Y549143D01*
X129780Y549191D01*
X129754Y549239D01*
X129731Y549290D01*
X129712Y549342D01*
X129696Y549395D01*
X129683Y549449D01*
X129674Y549503D01*
X129669Y549559D01*
X129667Y549614D01*
X129667Y551730D01*
X129669Y551788D01*
X129675Y551845D01*
X129685Y551902D01*
X129698Y551959D01*
X129716Y552014D01*
X129737Y552067D01*
X129762Y552120D01*
X129790Y552170D01*
X129822Y552218D01*
X129857Y552265D01*
X129895Y552308D01*
X129936Y552349D01*
X129979Y552387D01*
X130026Y552422D01*
X130074Y552454D01*
X130124Y552482D01*
X130177Y552507D01*
X130230Y552528D01*
X130285Y552546D01*
X130342Y552559D01*
X130399Y552569D01*
X130456Y552575D01*
X130514Y552577D01*
X131784Y552577D01*
X133568Y552577D02*
X133568Y548767D01*
X135685Y548767D02*
X133568Y552577D01*
X135685Y552577D02*
X135685Y548767D01*
X137470Y548767D02*
X137470Y552577D01*
X138528Y552577D01*
X138592Y552575D01*
X138656Y552569D01*
X138719Y552560D01*
X138781Y552546D01*
X138843Y552529D01*
X138903Y552508D01*
X138962Y552484D01*
X139020Y552456D01*
X139075Y552424D01*
X139129Y552390D01*
X139180Y552352D01*
X139230Y552311D01*
X139276Y552267D01*
X139320Y552221D01*
X139361Y552171D01*
X139399Y552120D01*
X139433Y552066D01*
X139465Y552011D01*
X139493Y551953D01*
X139517Y551894D01*
X139538Y551834D01*
X139555Y551772D01*
X139569Y551710D01*
X139578Y551647D01*
X139584Y551583D01*
X139586Y551519D01*
X139586Y549825D01*
X139584Y549761D01*
X139578Y549697D01*
X139569Y549634D01*
X139555Y549572D01*
X139538Y549510D01*
X139517Y549450D01*
X139493Y549391D01*
X139465Y549333D01*
X139433Y549278D01*
X139399Y549224D01*
X139361Y549173D01*
X139320Y549123D01*
X139276Y549077D01*
X139230Y549033D01*
X139180Y548992D01*
X139129Y548954D01*
X139075Y548920D01*
X139020Y548888D01*
X138962Y548860D01*
X138903Y548836D01*
X138843Y548815D01*
X138781Y548798D01*
X138719Y548784D01*
X138656Y548775D01*
X138592Y548769D01*
X138528Y548767D01*
X137470Y548767D01*
X152527Y552577D02*
X153797Y548767D01*
X155067Y552577D01*
X156396Y551519D02*
X156396Y549825D01*
X156397Y551519D02*
X156399Y551583D01*
X156405Y551647D01*
X156414Y551710D01*
X156428Y551772D01*
X156445Y551834D01*
X156466Y551894D01*
X156490Y551953D01*
X156518Y552011D01*
X156550Y552066D01*
X156584Y552120D01*
X156622Y552171D01*
X156663Y552221D01*
X156707Y552267D01*
X156753Y552311D01*
X156803Y552352D01*
X156854Y552390D01*
X156908Y552424D01*
X156963Y552456D01*
X157021Y552484D01*
X157080Y552508D01*
X157140Y552529D01*
X157202Y552546D01*
X157264Y552560D01*
X157327Y552569D01*
X157391Y552575D01*
X157455Y552577D01*
X157519Y552575D01*
X157583Y552569D01*
X157646Y552560D01*
X157708Y552546D01*
X157770Y552529D01*
X157830Y552508D01*
X157889Y552484D01*
X157947Y552456D01*
X158002Y552424D01*
X158056Y552390D01*
X158107Y552352D01*
X158157Y552311D01*
X158203Y552267D01*
X158247Y552221D01*
X158288Y552171D01*
X158326Y552120D01*
X158360Y552066D01*
X158392Y552011D01*
X158420Y551953D01*
X158444Y551894D01*
X158465Y551834D01*
X158482Y551772D01*
X158496Y551710D01*
X158505Y551647D01*
X158511Y551583D01*
X158513Y551519D01*
X158513Y549825D01*
X158511Y549761D01*
X158505Y549697D01*
X158496Y549634D01*
X158482Y549572D01*
X158465Y549510D01*
X158444Y549450D01*
X158420Y549391D01*
X158392Y549333D01*
X158360Y549278D01*
X158326Y549224D01*
X158288Y549173D01*
X158247Y549123D01*
X158203Y549077D01*
X158157Y549033D01*
X158107Y548992D01*
X158056Y548954D01*
X158002Y548920D01*
X157947Y548888D01*
X157889Y548860D01*
X157830Y548836D01*
X157770Y548815D01*
X157708Y548798D01*
X157646Y548784D01*
X157583Y548775D01*
X157519Y548769D01*
X157455Y548767D01*
X157391Y548769D01*
X157327Y548775D01*
X157264Y548784D01*
X157202Y548798D01*
X157140Y548815D01*
X157080Y548836D01*
X157021Y548860D01*
X156963Y548888D01*
X156908Y548920D01*
X156854Y548954D01*
X156803Y548992D01*
X156753Y549033D01*
X156707Y549077D01*
X156663Y549123D01*
X156622Y549173D01*
X156584Y549224D01*
X156550Y549278D01*
X156518Y549333D01*
X156490Y549391D01*
X156466Y549450D01*
X156445Y549510D01*
X156428Y549572D01*
X156414Y549634D01*
X156405Y549697D01*
X156399Y549761D01*
X156397Y549825D01*
X160176Y549825D02*
X160176Y552577D01*
X160176Y549825D02*
X160178Y549761D01*
X160184Y549697D01*
X160193Y549634D01*
X160207Y549572D01*
X160224Y549510D01*
X160245Y549450D01*
X160269Y549391D01*
X160297Y549333D01*
X160329Y549278D01*
X160363Y549224D01*
X160401Y549173D01*
X160442Y549123D01*
X160486Y549077D01*
X160532Y549033D01*
X160582Y548992D01*
X160633Y548954D01*
X160687Y548920D01*
X160742Y548888D01*
X160800Y548860D01*
X160859Y548836D01*
X160919Y548815D01*
X160981Y548798D01*
X161043Y548784D01*
X161106Y548775D01*
X161170Y548769D01*
X161234Y548767D01*
X161298Y548769D01*
X161362Y548775D01*
X161425Y548784D01*
X161487Y548798D01*
X161549Y548815D01*
X161609Y548836D01*
X161668Y548860D01*
X161726Y548888D01*
X161781Y548920D01*
X161835Y548954D01*
X161886Y548992D01*
X161936Y549033D01*
X161982Y549077D01*
X162026Y549123D01*
X162067Y549173D01*
X162105Y549224D01*
X162139Y549278D01*
X162171Y549333D01*
X162199Y549391D01*
X162223Y549450D01*
X162244Y549510D01*
X162261Y549572D01*
X162275Y549634D01*
X162284Y549697D01*
X162290Y549761D01*
X162292Y549825D01*
X162292Y552577D01*
X164770Y552577D02*
X164770Y548767D01*
X163711Y552577D02*
X165828Y552577D01*
X105537Y548767D02*
X104267Y552577D01*
X106807Y552577D02*
X105537Y548767D01*
X108463Y548767D02*
X108463Y552577D01*
X108040Y548767D02*
X108886Y548767D01*
X108886Y552577D02*
X108040Y552577D01*
X110453Y552577D02*
X110453Y548767D01*
X112569Y548767D02*
X110453Y552577D01*
X112569Y552577D02*
X112569Y548767D01*
D11*
X378841Y553607D02*
X378841Y558927D01*
X378841Y553607D02*
X378843Y553518D01*
X378849Y553429D01*
X378859Y553340D01*
X378872Y553252D01*
X378889Y553164D01*
X378911Y553077D01*
X378936Y552992D01*
X378964Y552907D01*
X378997Y552824D01*
X379033Y552742D01*
X379072Y552662D01*
X379115Y552584D01*
X379161Y552508D01*
X379211Y552433D01*
X379264Y552361D01*
X379320Y552292D01*
X379379Y552225D01*
X379440Y552160D01*
X379505Y552099D01*
X379572Y552040D01*
X379641Y551984D01*
X379713Y551931D01*
X379788Y551881D01*
X379864Y551835D01*
X379942Y551792D01*
X380022Y551753D01*
X380104Y551717D01*
X380187Y551684D01*
X380272Y551656D01*
X380357Y551631D01*
X380444Y551609D01*
X380532Y551592D01*
X380620Y551579D01*
X380709Y551569D01*
X380798Y551563D01*
X380887Y551561D01*
X380976Y551563D01*
X381065Y551569D01*
X381154Y551579D01*
X381242Y551592D01*
X381330Y551609D01*
X381417Y551631D01*
X381502Y551656D01*
X381587Y551684D01*
X381670Y551717D01*
X381752Y551753D01*
X381832Y551792D01*
X381910Y551835D01*
X381986Y551881D01*
X382061Y551931D01*
X382133Y551984D01*
X382202Y552040D01*
X382269Y552099D01*
X382334Y552160D01*
X382395Y552225D01*
X382454Y552292D01*
X382510Y552361D01*
X382563Y552433D01*
X382613Y552508D01*
X382659Y552584D01*
X382702Y552662D01*
X382741Y552742D01*
X382777Y552824D01*
X382810Y552907D01*
X382838Y552992D01*
X382863Y553077D01*
X382885Y553164D01*
X382902Y553252D01*
X382915Y553340D01*
X382925Y553429D01*
X382931Y553518D01*
X382933Y553607D01*
X382933Y558927D01*
X386400Y551561D02*
X388446Y551561D01*
X388535Y551563D01*
X388624Y551569D01*
X388713Y551579D01*
X388801Y551592D01*
X388889Y551609D01*
X388976Y551631D01*
X389061Y551656D01*
X389146Y551684D01*
X389229Y551717D01*
X389311Y551753D01*
X389391Y551792D01*
X389469Y551835D01*
X389545Y551881D01*
X389620Y551931D01*
X389692Y551984D01*
X389761Y552040D01*
X389828Y552099D01*
X389893Y552160D01*
X389954Y552225D01*
X390013Y552292D01*
X390069Y552361D01*
X390122Y552433D01*
X390172Y552508D01*
X390218Y552584D01*
X390261Y552662D01*
X390300Y552742D01*
X390336Y552824D01*
X390369Y552907D01*
X390397Y552992D01*
X390422Y553077D01*
X390444Y553164D01*
X390461Y553252D01*
X390474Y553340D01*
X390484Y553429D01*
X390490Y553518D01*
X390492Y553607D01*
X390490Y553696D01*
X390484Y553785D01*
X390474Y553874D01*
X390461Y553962D01*
X390444Y554050D01*
X390422Y554137D01*
X390397Y554222D01*
X390369Y554307D01*
X390336Y554390D01*
X390300Y554472D01*
X390261Y554552D01*
X390218Y554630D01*
X390172Y554706D01*
X390122Y554781D01*
X390069Y554853D01*
X390013Y554922D01*
X389954Y554989D01*
X389893Y555054D01*
X389828Y555115D01*
X389761Y555174D01*
X389692Y555230D01*
X389620Y555283D01*
X389545Y555333D01*
X389469Y555379D01*
X389391Y555422D01*
X389311Y555461D01*
X389229Y555497D01*
X389146Y555530D01*
X389061Y555558D01*
X388976Y555583D01*
X388889Y555605D01*
X388801Y555622D01*
X388713Y555635D01*
X388624Y555645D01*
X388535Y555651D01*
X388446Y555653D01*
X388855Y558927D02*
X386400Y558927D01*
X388855Y558927D02*
X388934Y558925D01*
X389013Y558919D01*
X389092Y558910D01*
X389170Y558897D01*
X389247Y558879D01*
X389323Y558859D01*
X389398Y558834D01*
X389472Y558806D01*
X389545Y558775D01*
X389616Y558739D01*
X389685Y558701D01*
X389752Y558659D01*
X389817Y558614D01*
X389880Y558566D01*
X389941Y558515D01*
X389998Y558461D01*
X390054Y558405D01*
X390106Y558346D01*
X390156Y558284D01*
X390202Y558220D01*
X390246Y558154D01*
X390286Y558086D01*
X390322Y558016D01*
X390356Y557944D01*
X390386Y557870D01*
X390412Y557796D01*
X390435Y557720D01*
X390453Y557643D01*
X390469Y557566D01*
X390480Y557487D01*
X390488Y557409D01*
X390492Y557330D01*
X390492Y557250D01*
X390488Y557171D01*
X390480Y557093D01*
X390469Y557014D01*
X390453Y556937D01*
X390435Y556860D01*
X390412Y556784D01*
X390386Y556710D01*
X390356Y556636D01*
X390322Y556564D01*
X390286Y556494D01*
X390246Y556426D01*
X390202Y556360D01*
X390156Y556296D01*
X390106Y556234D01*
X390054Y556175D01*
X389998Y556119D01*
X389941Y556065D01*
X389880Y556014D01*
X389817Y555966D01*
X389752Y555921D01*
X389685Y555879D01*
X389616Y555841D01*
X389545Y555805D01*
X389472Y555774D01*
X389398Y555746D01*
X389323Y555721D01*
X389247Y555701D01*
X389170Y555683D01*
X389092Y555670D01*
X389013Y555661D01*
X388934Y555655D01*
X388855Y555653D01*
X387218Y555653D01*
D12*
X586994Y559054D02*
X588546Y559054D01*
X588623Y559056D01*
X588701Y559062D01*
X588777Y559071D01*
X588854Y559085D01*
X588929Y559102D01*
X589003Y559123D01*
X589077Y559148D01*
X589149Y559176D01*
X589219Y559208D01*
X589288Y559243D01*
X589355Y559282D01*
X589420Y559324D01*
X589483Y559369D01*
X589544Y559417D01*
X589602Y559468D01*
X589657Y559522D01*
X589710Y559579D01*
X589759Y559638D01*
X589806Y559700D01*
X589850Y559764D01*
X589890Y559830D01*
X589927Y559898D01*
X589961Y559968D01*
X589991Y560039D01*
X590017Y560112D01*
X590040Y560186D01*
X590059Y560261D01*
X590074Y560336D01*
X590086Y560413D01*
X590094Y560490D01*
X590098Y560567D01*
X590098Y560645D01*
X590094Y560722D01*
X590086Y560799D01*
X590074Y560876D01*
X590059Y560951D01*
X590040Y561026D01*
X590017Y561100D01*
X589991Y561173D01*
X589961Y561244D01*
X589927Y561314D01*
X589890Y561382D01*
X589850Y561448D01*
X589806Y561512D01*
X589759Y561574D01*
X589710Y561633D01*
X589657Y561690D01*
X589602Y561744D01*
X589544Y561795D01*
X589483Y561843D01*
X589420Y561888D01*
X589355Y561930D01*
X589288Y561969D01*
X589219Y562004D01*
X589149Y562036D01*
X589077Y562064D01*
X589003Y562089D01*
X588929Y562110D01*
X588854Y562127D01*
X588777Y562141D01*
X588701Y562150D01*
X588623Y562156D01*
X588546Y562158D01*
X588857Y564642D02*
X586994Y564642D01*
X588857Y564642D02*
X588927Y564640D01*
X588996Y564634D01*
X589065Y564624D01*
X589133Y564611D01*
X589201Y564593D01*
X589267Y564572D01*
X589332Y564547D01*
X589396Y564519D01*
X589458Y564487D01*
X589518Y564452D01*
X589576Y564413D01*
X589631Y564371D01*
X589685Y564326D01*
X589735Y564278D01*
X589783Y564228D01*
X589828Y564174D01*
X589870Y564119D01*
X589909Y564061D01*
X589944Y564001D01*
X589976Y563939D01*
X590004Y563875D01*
X590029Y563810D01*
X590050Y563744D01*
X590068Y563676D01*
X590081Y563608D01*
X590091Y563539D01*
X590097Y563470D01*
X590099Y563400D01*
X590097Y563330D01*
X590091Y563261D01*
X590081Y563192D01*
X590068Y563124D01*
X590050Y563056D01*
X590029Y562990D01*
X590004Y562925D01*
X589976Y562861D01*
X589944Y562799D01*
X589909Y562739D01*
X589870Y562681D01*
X589828Y562626D01*
X589783Y562572D01*
X589735Y562522D01*
X589685Y562474D01*
X589631Y562429D01*
X589576Y562387D01*
X589518Y562348D01*
X589458Y562313D01*
X589396Y562281D01*
X589332Y562253D01*
X589267Y562228D01*
X589201Y562207D01*
X589133Y562189D01*
X589065Y562176D01*
X588996Y562166D01*
X588927Y562160D01*
X588857Y562158D01*
X587615Y562158D01*
X592231Y559364D02*
X592231Y559054D01*
X592231Y559364D02*
X592542Y559364D01*
X592542Y559054D01*
X592231Y559054D01*
X594675Y559054D02*
X596227Y559054D01*
X596304Y559056D01*
X596382Y559062D01*
X596458Y559071D01*
X596535Y559085D01*
X596610Y559102D01*
X596684Y559123D01*
X596758Y559148D01*
X596830Y559176D01*
X596900Y559208D01*
X596969Y559243D01*
X597036Y559282D01*
X597101Y559324D01*
X597164Y559369D01*
X597225Y559417D01*
X597283Y559468D01*
X597338Y559522D01*
X597391Y559579D01*
X597440Y559638D01*
X597487Y559700D01*
X597531Y559764D01*
X597571Y559830D01*
X597608Y559898D01*
X597642Y559968D01*
X597672Y560039D01*
X597698Y560112D01*
X597721Y560186D01*
X597740Y560261D01*
X597755Y560336D01*
X597767Y560413D01*
X597775Y560490D01*
X597779Y560567D01*
X597779Y560645D01*
X597775Y560722D01*
X597767Y560799D01*
X597755Y560876D01*
X597740Y560951D01*
X597721Y561026D01*
X597698Y561100D01*
X597672Y561173D01*
X597642Y561244D01*
X597608Y561314D01*
X597571Y561382D01*
X597531Y561448D01*
X597487Y561512D01*
X597440Y561574D01*
X597391Y561633D01*
X597338Y561690D01*
X597283Y561744D01*
X597225Y561795D01*
X597164Y561843D01*
X597101Y561888D01*
X597036Y561930D01*
X596969Y561969D01*
X596900Y562004D01*
X596830Y562036D01*
X596758Y562064D01*
X596684Y562089D01*
X596610Y562110D01*
X596535Y562127D01*
X596458Y562141D01*
X596382Y562150D01*
X596304Y562156D01*
X596227Y562158D01*
X596538Y564642D02*
X594675Y564642D01*
X596538Y564642D02*
X596608Y564640D01*
X596677Y564634D01*
X596746Y564624D01*
X596814Y564611D01*
X596882Y564593D01*
X596948Y564572D01*
X597013Y564547D01*
X597077Y564519D01*
X597139Y564487D01*
X597199Y564452D01*
X597257Y564413D01*
X597312Y564371D01*
X597366Y564326D01*
X597416Y564278D01*
X597464Y564228D01*
X597509Y564174D01*
X597551Y564119D01*
X597590Y564061D01*
X597625Y564001D01*
X597657Y563939D01*
X597685Y563875D01*
X597710Y563810D01*
X597731Y563744D01*
X597749Y563676D01*
X597762Y563608D01*
X597772Y563539D01*
X597778Y563470D01*
X597780Y563400D01*
X597778Y563330D01*
X597772Y563261D01*
X597762Y563192D01*
X597749Y563124D01*
X597731Y563056D01*
X597710Y562990D01*
X597685Y562925D01*
X597657Y562861D01*
X597625Y562799D01*
X597590Y562739D01*
X597551Y562681D01*
X597509Y562626D01*
X597464Y562572D01*
X597416Y562522D01*
X597366Y562474D01*
X597312Y562429D01*
X597257Y562387D01*
X597199Y562348D01*
X597139Y562313D01*
X597077Y562281D01*
X597013Y562253D01*
X596948Y562228D01*
X596882Y562207D01*
X596814Y562189D01*
X596746Y562176D01*
X596677Y562166D01*
X596608Y562160D01*
X596538Y562158D01*
X595296Y562158D01*
X599923Y562779D02*
X601165Y559054D01*
X602407Y562779D01*
X588546Y590804D02*
X588546Y596392D01*
X586994Y596392D02*
X590098Y596392D01*
X595530Y596392D02*
X591804Y590804D01*
X595530Y590804D02*
X591804Y596392D01*
X586994Y621284D02*
X586994Y626872D01*
X588546Y626872D01*
X588623Y626870D01*
X588701Y626864D01*
X588777Y626855D01*
X588854Y626841D01*
X588929Y626824D01*
X589003Y626803D01*
X589077Y626778D01*
X589149Y626750D01*
X589219Y626718D01*
X589288Y626683D01*
X589355Y626644D01*
X589420Y626602D01*
X589483Y626557D01*
X589544Y626509D01*
X589602Y626458D01*
X589657Y626404D01*
X589710Y626347D01*
X589759Y626288D01*
X589806Y626226D01*
X589850Y626162D01*
X589890Y626096D01*
X589927Y626028D01*
X589961Y625958D01*
X589991Y625887D01*
X590017Y625814D01*
X590040Y625740D01*
X590059Y625665D01*
X590074Y625590D01*
X590086Y625513D01*
X590094Y625436D01*
X590098Y625359D01*
X590098Y625281D01*
X590094Y625204D01*
X590086Y625127D01*
X590074Y625050D01*
X590059Y624975D01*
X590040Y624900D01*
X590017Y624826D01*
X589991Y624753D01*
X589961Y624682D01*
X589927Y624612D01*
X589890Y624544D01*
X589850Y624478D01*
X589806Y624414D01*
X589759Y624352D01*
X589710Y624293D01*
X589657Y624236D01*
X589602Y624182D01*
X589544Y624131D01*
X589483Y624083D01*
X589420Y624038D01*
X589355Y623996D01*
X589288Y623957D01*
X589219Y623922D01*
X589149Y623890D01*
X589077Y623862D01*
X589003Y623837D01*
X588929Y623816D01*
X588854Y623799D01*
X588777Y623785D01*
X588701Y623776D01*
X588623Y623770D01*
X588546Y623768D01*
X586994Y623768D01*
X588857Y623768D02*
X590098Y621284D01*
X592134Y621284D02*
X595859Y626872D01*
X592134Y626872D02*
X595859Y621284D01*
D13*
X179775Y546175D02*
X64775Y546175D01*
X64775Y510475D01*
X179775Y510475D01*
X179775Y546175D01*
D14*
X98131Y469467D02*
X98131Y457783D01*
X98131Y469467D02*
X101377Y469467D01*
X101490Y469465D01*
X101603Y469459D01*
X101716Y469449D01*
X101829Y469435D01*
X101941Y469418D01*
X102052Y469396D01*
X102162Y469371D01*
X102272Y469341D01*
X102380Y469308D01*
X102487Y469271D01*
X102593Y469231D01*
X102697Y469186D01*
X102800Y469138D01*
X102901Y469087D01*
X103000Y469032D01*
X103097Y468974D01*
X103192Y468912D01*
X103285Y468847D01*
X103375Y468779D01*
X103463Y468708D01*
X103549Y468633D01*
X103632Y468556D01*
X103712Y468476D01*
X103789Y468393D01*
X103864Y468307D01*
X103935Y468219D01*
X104003Y468129D01*
X104068Y468036D01*
X104130Y467941D01*
X104188Y467844D01*
X104243Y467745D01*
X104294Y467644D01*
X104342Y467541D01*
X104387Y467437D01*
X104427Y467331D01*
X104464Y467224D01*
X104497Y467116D01*
X104527Y467006D01*
X104552Y466896D01*
X104574Y466785D01*
X104591Y466673D01*
X104605Y466560D01*
X104615Y466447D01*
X104621Y466334D01*
X104623Y466221D01*
X104621Y466108D01*
X104615Y465995D01*
X104605Y465882D01*
X104591Y465769D01*
X104574Y465657D01*
X104552Y465546D01*
X104527Y465436D01*
X104497Y465326D01*
X104464Y465218D01*
X104427Y465111D01*
X104387Y465005D01*
X104342Y464901D01*
X104294Y464798D01*
X104243Y464697D01*
X104188Y464598D01*
X104130Y464501D01*
X104068Y464406D01*
X104003Y464313D01*
X103935Y464223D01*
X103864Y464135D01*
X103789Y464049D01*
X103712Y463966D01*
X103632Y463886D01*
X103549Y463809D01*
X103463Y463734D01*
X103375Y463663D01*
X103285Y463595D01*
X103192Y463530D01*
X103097Y463468D01*
X103000Y463410D01*
X102901Y463355D01*
X102800Y463304D01*
X102697Y463256D01*
X102593Y463211D01*
X102487Y463171D01*
X102380Y463134D01*
X102272Y463101D01*
X102162Y463071D01*
X102052Y463046D01*
X101941Y463024D01*
X101829Y463007D01*
X101716Y462993D01*
X101603Y462983D01*
X101490Y462977D01*
X101377Y462975D01*
X101377Y462976D02*
X98131Y462976D01*
X108898Y462976D02*
X108898Y460379D01*
X108898Y462976D02*
X108900Y463077D01*
X108906Y463177D01*
X108916Y463277D01*
X108929Y463377D01*
X108947Y463476D01*
X108968Y463575D01*
X108993Y463672D01*
X109022Y463769D01*
X109055Y463864D01*
X109091Y463958D01*
X109131Y464050D01*
X109174Y464141D01*
X109221Y464230D01*
X109271Y464317D01*
X109325Y464403D01*
X109382Y464486D01*
X109442Y464566D01*
X109505Y464645D01*
X109572Y464721D01*
X109641Y464794D01*
X109713Y464864D01*
X109787Y464932D01*
X109864Y464997D01*
X109944Y465058D01*
X110026Y465117D01*
X110110Y465172D01*
X110196Y465224D01*
X110284Y465273D01*
X110374Y465318D01*
X110466Y465360D01*
X110559Y465398D01*
X110654Y465432D01*
X110749Y465463D01*
X110846Y465490D01*
X110944Y465513D01*
X111043Y465533D01*
X111143Y465548D01*
X111243Y465560D01*
X111343Y465568D01*
X111444Y465572D01*
X111544Y465572D01*
X111645Y465568D01*
X111745Y465560D01*
X111845Y465548D01*
X111945Y465533D01*
X112044Y465513D01*
X112142Y465490D01*
X112239Y465463D01*
X112334Y465432D01*
X112429Y465398D01*
X112522Y465360D01*
X112614Y465318D01*
X112704Y465273D01*
X112792Y465224D01*
X112878Y465172D01*
X112962Y465117D01*
X113044Y465058D01*
X113124Y464997D01*
X113201Y464932D01*
X113275Y464864D01*
X113347Y464794D01*
X113416Y464721D01*
X113483Y464645D01*
X113546Y464566D01*
X113606Y464486D01*
X113663Y464403D01*
X113717Y464317D01*
X113767Y464230D01*
X113814Y464141D01*
X113857Y464050D01*
X113897Y463958D01*
X113933Y463864D01*
X113966Y463769D01*
X113995Y463672D01*
X114020Y463575D01*
X114041Y463476D01*
X114059Y463377D01*
X114072Y463277D01*
X114082Y463177D01*
X114088Y463077D01*
X114090Y462976D01*
X114091Y462976D02*
X114091Y460379D01*
X114090Y460379D02*
X114088Y460278D01*
X114082Y460178D01*
X114072Y460078D01*
X114059Y459978D01*
X114041Y459879D01*
X114020Y459780D01*
X113995Y459683D01*
X113966Y459586D01*
X113933Y459491D01*
X113897Y459397D01*
X113857Y459305D01*
X113814Y459214D01*
X113767Y459125D01*
X113717Y459038D01*
X113663Y458952D01*
X113606Y458869D01*
X113546Y458789D01*
X113483Y458710D01*
X113416Y458634D01*
X113347Y458561D01*
X113275Y458491D01*
X113201Y458423D01*
X113124Y458358D01*
X113044Y458297D01*
X112962Y458238D01*
X112878Y458183D01*
X112792Y458131D01*
X112704Y458082D01*
X112614Y458037D01*
X112522Y457995D01*
X112429Y457957D01*
X112334Y457923D01*
X112239Y457892D01*
X112142Y457865D01*
X112044Y457842D01*
X111945Y457822D01*
X111845Y457807D01*
X111745Y457795D01*
X111645Y457787D01*
X111544Y457783D01*
X111444Y457783D01*
X111343Y457787D01*
X111243Y457795D01*
X111143Y457807D01*
X111043Y457822D01*
X110944Y457842D01*
X110846Y457865D01*
X110749Y457892D01*
X110654Y457923D01*
X110559Y457957D01*
X110466Y457995D01*
X110374Y458037D01*
X110284Y458082D01*
X110196Y458131D01*
X110110Y458183D01*
X110026Y458238D01*
X109944Y458297D01*
X109864Y458358D01*
X109787Y458423D01*
X109713Y458491D01*
X109641Y458561D01*
X109572Y458634D01*
X109505Y458710D01*
X109442Y458789D01*
X109382Y458869D01*
X109325Y458952D01*
X109271Y459038D01*
X109221Y459125D01*
X109174Y459214D01*
X109131Y459305D01*
X109091Y459397D01*
X109055Y459491D01*
X109022Y459586D01*
X108993Y459683D01*
X108968Y459780D01*
X108947Y459879D01*
X108929Y459978D01*
X108916Y460078D01*
X108906Y460178D01*
X108900Y460278D01*
X108898Y460379D01*
X118953Y459730D02*
X118953Y469467D01*
X118954Y459730D02*
X118956Y459643D01*
X118962Y459555D01*
X118972Y459469D01*
X118985Y459382D01*
X119003Y459297D01*
X119024Y459212D01*
X119049Y459128D01*
X119078Y459046D01*
X119111Y458965D01*
X119147Y458885D01*
X119186Y458807D01*
X119230Y458731D01*
X119276Y458657D01*
X119326Y458586D01*
X119379Y458516D01*
X119435Y458449D01*
X119494Y458385D01*
X119556Y458323D01*
X119620Y458264D01*
X119687Y458208D01*
X119757Y458155D01*
X119828Y458105D01*
X119902Y458059D01*
X119978Y458015D01*
X120056Y457976D01*
X120136Y457940D01*
X120217Y457907D01*
X120299Y457878D01*
X120383Y457853D01*
X120468Y457832D01*
X120553Y457814D01*
X120640Y457801D01*
X120726Y457791D01*
X120814Y457785D01*
X120901Y457783D01*
X124900Y460379D02*
X124900Y462976D01*
X124902Y463077D01*
X124908Y463177D01*
X124918Y463277D01*
X124931Y463377D01*
X124949Y463476D01*
X124970Y463575D01*
X124995Y463672D01*
X125024Y463769D01*
X125057Y463864D01*
X125093Y463958D01*
X125133Y464050D01*
X125176Y464141D01*
X125223Y464230D01*
X125273Y464317D01*
X125327Y464403D01*
X125384Y464486D01*
X125444Y464566D01*
X125507Y464645D01*
X125574Y464721D01*
X125643Y464794D01*
X125715Y464864D01*
X125789Y464932D01*
X125866Y464997D01*
X125946Y465058D01*
X126028Y465117D01*
X126112Y465172D01*
X126198Y465224D01*
X126286Y465273D01*
X126376Y465318D01*
X126468Y465360D01*
X126561Y465398D01*
X126656Y465432D01*
X126751Y465463D01*
X126848Y465490D01*
X126946Y465513D01*
X127045Y465533D01*
X127145Y465548D01*
X127245Y465560D01*
X127345Y465568D01*
X127446Y465572D01*
X127546Y465572D01*
X127647Y465568D01*
X127747Y465560D01*
X127847Y465548D01*
X127947Y465533D01*
X128046Y465513D01*
X128144Y465490D01*
X128241Y465463D01*
X128336Y465432D01*
X128431Y465398D01*
X128524Y465360D01*
X128616Y465318D01*
X128706Y465273D01*
X128794Y465224D01*
X128880Y465172D01*
X128964Y465117D01*
X129046Y465058D01*
X129126Y464997D01*
X129203Y464932D01*
X129277Y464864D01*
X129349Y464794D01*
X129418Y464721D01*
X129485Y464645D01*
X129548Y464566D01*
X129608Y464486D01*
X129665Y464403D01*
X129719Y464317D01*
X129769Y464230D01*
X129816Y464141D01*
X129859Y464050D01*
X129899Y463958D01*
X129935Y463864D01*
X129968Y463769D01*
X129997Y463672D01*
X130022Y463575D01*
X130043Y463476D01*
X130061Y463377D01*
X130074Y463277D01*
X130084Y463177D01*
X130090Y463077D01*
X130092Y462976D01*
X130093Y462976D02*
X130093Y460379D01*
X130092Y460379D02*
X130090Y460278D01*
X130084Y460178D01*
X130074Y460078D01*
X130061Y459978D01*
X130043Y459879D01*
X130022Y459780D01*
X129997Y459683D01*
X129968Y459586D01*
X129935Y459491D01*
X129899Y459397D01*
X129859Y459305D01*
X129816Y459214D01*
X129769Y459125D01*
X129719Y459038D01*
X129665Y458952D01*
X129608Y458869D01*
X129548Y458789D01*
X129485Y458710D01*
X129418Y458634D01*
X129349Y458561D01*
X129277Y458491D01*
X129203Y458423D01*
X129126Y458358D01*
X129046Y458297D01*
X128964Y458238D01*
X128880Y458183D01*
X128794Y458131D01*
X128706Y458082D01*
X128616Y458037D01*
X128524Y457995D01*
X128431Y457957D01*
X128336Y457923D01*
X128241Y457892D01*
X128144Y457865D01*
X128046Y457842D01*
X127947Y457822D01*
X127847Y457807D01*
X127747Y457795D01*
X127647Y457787D01*
X127546Y457783D01*
X127446Y457783D01*
X127345Y457787D01*
X127245Y457795D01*
X127145Y457807D01*
X127045Y457822D01*
X126946Y457842D01*
X126848Y457865D01*
X126751Y457892D01*
X126656Y457923D01*
X126561Y457957D01*
X126468Y457995D01*
X126376Y458037D01*
X126286Y458082D01*
X126198Y458131D01*
X126112Y458183D01*
X126028Y458238D01*
X125946Y458297D01*
X125866Y458358D01*
X125789Y458423D01*
X125715Y458491D01*
X125643Y458561D01*
X125574Y458634D01*
X125507Y458710D01*
X125444Y458789D01*
X125384Y458869D01*
X125327Y458952D01*
X125273Y459038D01*
X125223Y459125D01*
X125176Y459214D01*
X125133Y459305D01*
X125093Y459397D01*
X125057Y459491D01*
X125024Y459586D01*
X124995Y459683D01*
X124970Y459780D01*
X124949Y459879D01*
X124931Y459978D01*
X124918Y460078D01*
X124908Y460178D01*
X124902Y460278D01*
X124900Y460379D01*
X134955Y459730D02*
X134955Y469467D01*
X134956Y459730D02*
X134958Y459643D01*
X134964Y459555D01*
X134974Y459469D01*
X134987Y459382D01*
X135005Y459297D01*
X135026Y459212D01*
X135051Y459128D01*
X135080Y459046D01*
X135113Y458965D01*
X135149Y458885D01*
X135188Y458807D01*
X135232Y458731D01*
X135278Y458657D01*
X135328Y458586D01*
X135381Y458516D01*
X135437Y458449D01*
X135496Y458385D01*
X135558Y458323D01*
X135622Y458264D01*
X135689Y458208D01*
X135759Y458155D01*
X135830Y458105D01*
X135904Y458059D01*
X135980Y458015D01*
X136058Y457976D01*
X136138Y457940D01*
X136219Y457907D01*
X136301Y457878D01*
X136385Y457853D01*
X136470Y457832D01*
X136555Y457814D01*
X136642Y457801D01*
X136728Y457791D01*
X136816Y457785D01*
X136903Y457783D01*
X141283Y459730D02*
X141283Y465572D01*
X141283Y459730D02*
X141285Y459643D01*
X141291Y459555D01*
X141301Y459469D01*
X141314Y459382D01*
X141332Y459297D01*
X141353Y459212D01*
X141378Y459128D01*
X141407Y459046D01*
X141440Y458965D01*
X141476Y458885D01*
X141515Y458807D01*
X141559Y458731D01*
X141605Y458657D01*
X141655Y458586D01*
X141708Y458516D01*
X141764Y458449D01*
X141823Y458385D01*
X141885Y458323D01*
X141949Y458264D01*
X142016Y458208D01*
X142086Y458155D01*
X142157Y458105D01*
X142231Y458059D01*
X142307Y458015D01*
X142385Y457976D01*
X142465Y457940D01*
X142546Y457907D01*
X142628Y457878D01*
X142712Y457853D01*
X142797Y457832D01*
X142882Y457814D01*
X142969Y457801D01*
X143055Y457791D01*
X143143Y457785D01*
X143230Y457783D01*
X146476Y457783D01*
X146476Y465572D01*
X104622Y441329D02*
X104620Y441230D01*
X104614Y441130D01*
X104605Y441031D01*
X104592Y440933D01*
X104575Y440835D01*
X104554Y440737D01*
X104529Y440641D01*
X104501Y440546D01*
X104469Y440452D01*
X104434Y440359D01*
X104395Y440267D01*
X104352Y440177D01*
X104307Y440089D01*
X104257Y440002D01*
X104205Y439918D01*
X104149Y439835D01*
X104091Y439755D01*
X104029Y439677D01*
X103964Y439602D01*
X103896Y439529D01*
X103826Y439459D01*
X103753Y439391D01*
X103678Y439326D01*
X103600Y439264D01*
X103520Y439206D01*
X103437Y439150D01*
X103353Y439098D01*
X103266Y439048D01*
X103178Y439003D01*
X103088Y438960D01*
X102996Y438921D01*
X102903Y438886D01*
X102809Y438854D01*
X102714Y438826D01*
X102618Y438801D01*
X102520Y438780D01*
X102422Y438763D01*
X102324Y438750D01*
X102225Y438741D01*
X102125Y438735D01*
X102026Y438733D01*
X101882Y438735D01*
X101737Y438741D01*
X101593Y438750D01*
X101450Y438763D01*
X101306Y438780D01*
X101163Y438801D01*
X101021Y438826D01*
X100880Y438854D01*
X100739Y438886D01*
X100599Y438922D01*
X100460Y438961D01*
X100322Y439004D01*
X100186Y439051D01*
X100050Y439101D01*
X99916Y439155D01*
X99784Y439212D01*
X99653Y439273D01*
X99524Y439337D01*
X99396Y439405D01*
X99270Y439475D01*
X99146Y439550D01*
X99025Y439627D01*
X98905Y439708D01*
X98787Y439791D01*
X98672Y439878D01*
X98559Y439968D01*
X98448Y440061D01*
X98340Y440156D01*
X98234Y440255D01*
X98131Y440356D01*
X98456Y447821D02*
X98458Y447920D01*
X98464Y448020D01*
X98473Y448119D01*
X98486Y448217D01*
X98503Y448315D01*
X98524Y448413D01*
X98549Y448509D01*
X98577Y448604D01*
X98609Y448698D01*
X98644Y448791D01*
X98683Y448883D01*
X98726Y448973D01*
X98771Y449061D01*
X98821Y449148D01*
X98873Y449232D01*
X98929Y449315D01*
X98987Y449395D01*
X99049Y449473D01*
X99114Y449548D01*
X99182Y449621D01*
X99252Y449691D01*
X99325Y449759D01*
X99400Y449824D01*
X99478Y449886D01*
X99558Y449944D01*
X99641Y450000D01*
X99725Y450052D01*
X99812Y450102D01*
X99900Y450147D01*
X99990Y450190D01*
X100082Y450229D01*
X100175Y450264D01*
X100269Y450296D01*
X100364Y450324D01*
X100461Y450349D01*
X100558Y450370D01*
X100656Y450387D01*
X100754Y450400D01*
X100853Y450409D01*
X100953Y450415D01*
X101052Y450417D01*
X101188Y450415D01*
X101324Y450409D01*
X101460Y450400D01*
X101596Y450387D01*
X101731Y450369D01*
X101865Y450349D01*
X101999Y450324D01*
X102133Y450296D01*
X102265Y450263D01*
X102396Y450228D01*
X102527Y450188D01*
X102656Y450145D01*
X102784Y450099D01*
X102910Y450048D01*
X103036Y449995D01*
X103159Y449937D01*
X103281Y449877D01*
X103401Y449813D01*
X103520Y449745D01*
X103636Y449675D01*
X103750Y449601D01*
X103863Y449524D01*
X103973Y449443D01*
X99754Y445549D02*
X99668Y445602D01*
X99584Y445659D01*
X99502Y445718D01*
X99422Y445781D01*
X99345Y445847D01*
X99270Y445915D01*
X99198Y445987D01*
X99129Y446061D01*
X99063Y446138D01*
X99000Y446217D01*
X98940Y446299D01*
X98883Y446383D01*
X98829Y446469D01*
X98779Y446557D01*
X98732Y446647D01*
X98688Y446738D01*
X98649Y446832D01*
X98612Y446926D01*
X98580Y447022D01*
X98551Y447120D01*
X98526Y447218D01*
X98505Y447317D01*
X98487Y447417D01*
X98474Y447517D01*
X98464Y447618D01*
X98458Y447720D01*
X98456Y447821D01*
X103324Y443601D02*
X103410Y443548D01*
X103494Y443491D01*
X103576Y443432D01*
X103656Y443369D01*
X103733Y443303D01*
X103808Y443235D01*
X103880Y443163D01*
X103949Y443089D01*
X104015Y443012D01*
X104078Y442933D01*
X104138Y442851D01*
X104195Y442767D01*
X104249Y442681D01*
X104299Y442593D01*
X104346Y442503D01*
X104390Y442412D01*
X104429Y442318D01*
X104466Y442224D01*
X104498Y442128D01*
X104527Y442030D01*
X104552Y441932D01*
X104573Y441833D01*
X104591Y441733D01*
X104604Y441633D01*
X104614Y441532D01*
X104620Y441430D01*
X104622Y441329D01*
X103324Y443601D02*
X99754Y445549D01*
X109180Y449119D02*
X109180Y450417D01*
X115671Y450417D01*
X112426Y438733D01*
X123856Y438733D02*
X119961Y450417D01*
X127750Y450417D02*
X123856Y438733D01*
X132039Y441979D02*
X132041Y442092D01*
X132047Y442205D01*
X132057Y442318D01*
X132071Y442431D01*
X132088Y442543D01*
X132110Y442654D01*
X132135Y442764D01*
X132165Y442874D01*
X132198Y442982D01*
X132235Y443089D01*
X132275Y443195D01*
X132320Y443299D01*
X132368Y443402D01*
X132419Y443503D01*
X132474Y443602D01*
X132532Y443699D01*
X132594Y443794D01*
X132659Y443887D01*
X132727Y443977D01*
X132798Y444065D01*
X132873Y444151D01*
X132950Y444234D01*
X133030Y444314D01*
X133113Y444391D01*
X133199Y444466D01*
X133287Y444537D01*
X133377Y444605D01*
X133470Y444670D01*
X133565Y444732D01*
X133662Y444790D01*
X133761Y444845D01*
X133862Y444896D01*
X133965Y444944D01*
X134069Y444989D01*
X134175Y445029D01*
X134282Y445066D01*
X134390Y445099D01*
X134500Y445129D01*
X134610Y445154D01*
X134721Y445176D01*
X134833Y445193D01*
X134946Y445207D01*
X135059Y445217D01*
X135172Y445223D01*
X135285Y445225D01*
X135398Y445223D01*
X135511Y445217D01*
X135624Y445207D01*
X135737Y445193D01*
X135849Y445176D01*
X135960Y445154D01*
X136070Y445129D01*
X136180Y445099D01*
X136288Y445066D01*
X136395Y445029D01*
X136501Y444989D01*
X136605Y444944D01*
X136708Y444896D01*
X136809Y444845D01*
X136908Y444790D01*
X137005Y444732D01*
X137100Y444670D01*
X137193Y444605D01*
X137283Y444537D01*
X137371Y444466D01*
X137457Y444391D01*
X137540Y444314D01*
X137620Y444234D01*
X137697Y444151D01*
X137772Y444065D01*
X137843Y443977D01*
X137911Y443887D01*
X137976Y443794D01*
X138038Y443699D01*
X138096Y443602D01*
X138151Y443503D01*
X138202Y443402D01*
X138250Y443299D01*
X138295Y443195D01*
X138335Y443089D01*
X138372Y442982D01*
X138405Y442874D01*
X138435Y442764D01*
X138460Y442654D01*
X138482Y442543D01*
X138499Y442431D01*
X138513Y442318D01*
X138523Y442205D01*
X138529Y442092D01*
X138531Y441979D01*
X138529Y441866D01*
X138523Y441753D01*
X138513Y441640D01*
X138499Y441527D01*
X138482Y441415D01*
X138460Y441304D01*
X138435Y441194D01*
X138405Y441084D01*
X138372Y440976D01*
X138335Y440869D01*
X138295Y440763D01*
X138250Y440659D01*
X138202Y440556D01*
X138151Y440455D01*
X138096Y440356D01*
X138038Y440259D01*
X137976Y440164D01*
X137911Y440071D01*
X137843Y439981D01*
X137772Y439893D01*
X137697Y439807D01*
X137620Y439724D01*
X137540Y439644D01*
X137457Y439567D01*
X137371Y439492D01*
X137283Y439421D01*
X137193Y439353D01*
X137100Y439288D01*
X137005Y439226D01*
X136908Y439168D01*
X136809Y439113D01*
X136708Y439062D01*
X136605Y439014D01*
X136501Y438969D01*
X136395Y438929D01*
X136288Y438892D01*
X136180Y438859D01*
X136070Y438829D01*
X135960Y438804D01*
X135849Y438782D01*
X135737Y438765D01*
X135624Y438751D01*
X135511Y438741D01*
X135398Y438735D01*
X135285Y438733D01*
X135172Y438735D01*
X135059Y438741D01*
X134946Y438751D01*
X134833Y438765D01*
X134721Y438782D01*
X134610Y438804D01*
X134500Y438829D01*
X134390Y438859D01*
X134282Y438892D01*
X134175Y438929D01*
X134069Y438969D01*
X133965Y439014D01*
X133862Y439062D01*
X133761Y439113D01*
X133662Y439168D01*
X133565Y439226D01*
X133470Y439288D01*
X133377Y439353D01*
X133287Y439421D01*
X133199Y439492D01*
X133113Y439567D01*
X133030Y439644D01*
X132950Y439724D01*
X132873Y439807D01*
X132798Y439893D01*
X132727Y439981D01*
X132659Y440071D01*
X132594Y440164D01*
X132532Y440259D01*
X132474Y440356D01*
X132419Y440455D01*
X132368Y440556D01*
X132320Y440659D01*
X132275Y440763D01*
X132235Y440869D01*
X132198Y440976D01*
X132165Y441084D01*
X132135Y441194D01*
X132110Y441304D01*
X132088Y441415D01*
X132071Y441527D01*
X132057Y441640D01*
X132047Y441753D01*
X132041Y441866D01*
X132039Y441979D01*
X132689Y447821D02*
X132691Y447922D01*
X132697Y448022D01*
X132707Y448122D01*
X132720Y448222D01*
X132738Y448321D01*
X132759Y448420D01*
X132784Y448517D01*
X132813Y448614D01*
X132846Y448709D01*
X132882Y448803D01*
X132922Y448895D01*
X132965Y448986D01*
X133012Y449075D01*
X133062Y449162D01*
X133116Y449248D01*
X133173Y449331D01*
X133233Y449411D01*
X133296Y449490D01*
X133363Y449566D01*
X133432Y449639D01*
X133504Y449709D01*
X133578Y449777D01*
X133655Y449842D01*
X133735Y449903D01*
X133817Y449962D01*
X133901Y450017D01*
X133987Y450069D01*
X134075Y450118D01*
X134165Y450163D01*
X134257Y450205D01*
X134350Y450243D01*
X134445Y450277D01*
X134540Y450308D01*
X134637Y450335D01*
X134735Y450358D01*
X134834Y450378D01*
X134934Y450393D01*
X135034Y450405D01*
X135134Y450413D01*
X135235Y450417D01*
X135335Y450417D01*
X135436Y450413D01*
X135536Y450405D01*
X135636Y450393D01*
X135736Y450378D01*
X135835Y450358D01*
X135933Y450335D01*
X136030Y450308D01*
X136125Y450277D01*
X136220Y450243D01*
X136313Y450205D01*
X136405Y450163D01*
X136495Y450118D01*
X136583Y450069D01*
X136669Y450017D01*
X136753Y449962D01*
X136835Y449903D01*
X136915Y449842D01*
X136992Y449777D01*
X137066Y449709D01*
X137138Y449639D01*
X137207Y449566D01*
X137274Y449490D01*
X137337Y449411D01*
X137397Y449331D01*
X137454Y449248D01*
X137508Y449162D01*
X137558Y449075D01*
X137605Y448986D01*
X137648Y448895D01*
X137688Y448803D01*
X137724Y448709D01*
X137757Y448614D01*
X137786Y448517D01*
X137811Y448420D01*
X137832Y448321D01*
X137850Y448222D01*
X137863Y448122D01*
X137873Y448022D01*
X137879Y447922D01*
X137881Y447821D01*
X137879Y447720D01*
X137873Y447620D01*
X137863Y447520D01*
X137850Y447420D01*
X137832Y447321D01*
X137811Y447222D01*
X137786Y447125D01*
X137757Y447028D01*
X137724Y446933D01*
X137688Y446839D01*
X137648Y446747D01*
X137605Y446656D01*
X137558Y446567D01*
X137508Y446480D01*
X137454Y446394D01*
X137397Y446311D01*
X137337Y446231D01*
X137274Y446152D01*
X137207Y446076D01*
X137138Y446003D01*
X137066Y445933D01*
X136992Y445865D01*
X136915Y445800D01*
X136835Y445739D01*
X136753Y445680D01*
X136669Y445625D01*
X136583Y445573D01*
X136495Y445524D01*
X136405Y445479D01*
X136313Y445437D01*
X136220Y445399D01*
X136125Y445365D01*
X136030Y445334D01*
X135933Y445307D01*
X135835Y445284D01*
X135736Y445264D01*
X135636Y445249D01*
X135536Y445237D01*
X135436Y445229D01*
X135335Y445225D01*
X135235Y445225D01*
X135134Y445229D01*
X135034Y445237D01*
X134934Y445249D01*
X134834Y445264D01*
X134735Y445284D01*
X134637Y445307D01*
X134540Y445334D01*
X134445Y445365D01*
X134350Y445399D01*
X134257Y445437D01*
X134165Y445479D01*
X134075Y445524D01*
X133987Y445573D01*
X133901Y445625D01*
X133817Y445680D01*
X133735Y445739D01*
X133655Y445800D01*
X133578Y445865D01*
X133504Y445933D01*
X133432Y446003D01*
X133363Y446076D01*
X133296Y446152D01*
X133233Y446231D01*
X133173Y446311D01*
X133116Y446394D01*
X133062Y446480D01*
X133012Y446567D01*
X132965Y446656D01*
X132922Y446747D01*
X132882Y446839D01*
X132846Y446933D01*
X132813Y447028D01*
X132784Y447125D01*
X132759Y447222D01*
X132738Y447321D01*
X132720Y447420D01*
X132707Y447520D01*
X132697Y447620D01*
X132691Y447720D01*
X132689Y447821D01*
X143874Y450417D02*
X143874Y438733D01*
X143874Y450417D02*
X149066Y450417D01*
X149066Y445224D02*
X143874Y445224D01*
X153376Y438733D02*
X156621Y438733D01*
X156734Y438735D01*
X156847Y438741D01*
X156960Y438751D01*
X157073Y438765D01*
X157185Y438782D01*
X157296Y438804D01*
X157406Y438829D01*
X157516Y438859D01*
X157624Y438892D01*
X157731Y438929D01*
X157837Y438969D01*
X157941Y439014D01*
X158044Y439062D01*
X158145Y439113D01*
X158244Y439168D01*
X158341Y439226D01*
X158436Y439288D01*
X158529Y439353D01*
X158619Y439421D01*
X158707Y439492D01*
X158793Y439567D01*
X158876Y439644D01*
X158956Y439724D01*
X159033Y439807D01*
X159108Y439893D01*
X159179Y439981D01*
X159247Y440071D01*
X159312Y440164D01*
X159374Y440259D01*
X159432Y440356D01*
X159487Y440455D01*
X159538Y440556D01*
X159586Y440659D01*
X159631Y440763D01*
X159671Y440869D01*
X159708Y440976D01*
X159741Y441084D01*
X159771Y441194D01*
X159796Y441304D01*
X159818Y441415D01*
X159835Y441527D01*
X159849Y441640D01*
X159859Y441753D01*
X159865Y441866D01*
X159867Y441979D01*
X159865Y442092D01*
X159859Y442205D01*
X159849Y442318D01*
X159835Y442431D01*
X159818Y442543D01*
X159796Y442654D01*
X159771Y442764D01*
X159741Y442874D01*
X159708Y442982D01*
X159671Y443089D01*
X159631Y443195D01*
X159586Y443299D01*
X159538Y443402D01*
X159487Y443503D01*
X159432Y443602D01*
X159374Y443699D01*
X159312Y443794D01*
X159247Y443887D01*
X159179Y443977D01*
X159108Y444065D01*
X159033Y444151D01*
X158956Y444234D01*
X158876Y444314D01*
X158793Y444391D01*
X158707Y444466D01*
X158619Y444537D01*
X158529Y444605D01*
X158436Y444670D01*
X158341Y444732D01*
X158244Y444790D01*
X158145Y444845D01*
X158044Y444896D01*
X157941Y444944D01*
X157837Y444989D01*
X157731Y445029D01*
X157624Y445066D01*
X157516Y445099D01*
X157406Y445129D01*
X157296Y445154D01*
X157185Y445176D01*
X157073Y445193D01*
X156960Y445207D01*
X156847Y445217D01*
X156734Y445223D01*
X156621Y445225D01*
X157271Y450417D02*
X153376Y450417D01*
X157271Y450417D02*
X157372Y450415D01*
X157472Y450409D01*
X157572Y450399D01*
X157672Y450386D01*
X157771Y450368D01*
X157870Y450347D01*
X157967Y450322D01*
X158064Y450293D01*
X158159Y450260D01*
X158253Y450224D01*
X158345Y450184D01*
X158436Y450141D01*
X158525Y450094D01*
X158612Y450044D01*
X158698Y449990D01*
X158781Y449933D01*
X158861Y449873D01*
X158940Y449810D01*
X159016Y449743D01*
X159089Y449674D01*
X159159Y449602D01*
X159227Y449528D01*
X159292Y449451D01*
X159353Y449371D01*
X159412Y449289D01*
X159467Y449205D01*
X159519Y449119D01*
X159568Y449031D01*
X159613Y448941D01*
X159655Y448849D01*
X159693Y448756D01*
X159727Y448661D01*
X159758Y448566D01*
X159785Y448469D01*
X159808Y448371D01*
X159828Y448272D01*
X159843Y448172D01*
X159855Y448072D01*
X159863Y447972D01*
X159867Y447871D01*
X159867Y447771D01*
X159863Y447670D01*
X159855Y447570D01*
X159843Y447470D01*
X159828Y447370D01*
X159808Y447271D01*
X159785Y447173D01*
X159758Y447076D01*
X159727Y446981D01*
X159693Y446886D01*
X159655Y446793D01*
X159613Y446701D01*
X159568Y446611D01*
X159519Y446523D01*
X159467Y446437D01*
X159412Y446353D01*
X159353Y446271D01*
X159292Y446191D01*
X159227Y446114D01*
X159159Y446040D01*
X159089Y445968D01*
X159016Y445899D01*
X158940Y445832D01*
X158861Y445769D01*
X158781Y445709D01*
X158698Y445652D01*
X158612Y445598D01*
X158525Y445548D01*
X158436Y445501D01*
X158345Y445458D01*
X158253Y445418D01*
X158159Y445382D01*
X158064Y445349D01*
X157967Y445320D01*
X157870Y445295D01*
X157771Y445274D01*
X157672Y445256D01*
X157572Y445243D01*
X157472Y445233D01*
X157372Y445227D01*
X157271Y445225D01*
X157271Y445224D02*
X154674Y445224D01*
D13*
X301850Y637000D02*
X304350Y637000D01*
X304350Y639500D01*
X275850Y637000D02*
X273350Y637000D01*
X273350Y639500D01*
X273350Y665500D02*
X273350Y668000D01*
X275850Y668000D01*
X304350Y668000D02*
X304350Y665500D01*
X304350Y668000D02*
X301850Y668000D01*
D15*
X311850Y642500D02*
X311852Y642563D01*
X311858Y642625D01*
X311868Y642687D01*
X311881Y642749D01*
X311899Y642809D01*
X311920Y642868D01*
X311945Y642926D01*
X311974Y642982D01*
X312006Y643036D01*
X312041Y643088D01*
X312079Y643137D01*
X312121Y643185D01*
X312165Y643229D01*
X312213Y643271D01*
X312262Y643309D01*
X312314Y643344D01*
X312368Y643376D01*
X312424Y643405D01*
X312482Y643430D01*
X312541Y643451D01*
X312601Y643469D01*
X312663Y643482D01*
X312725Y643492D01*
X312787Y643498D01*
X312850Y643500D01*
X312913Y643498D01*
X312975Y643492D01*
X313037Y643482D01*
X313099Y643469D01*
X313159Y643451D01*
X313218Y643430D01*
X313276Y643405D01*
X313332Y643376D01*
X313386Y643344D01*
X313438Y643309D01*
X313487Y643271D01*
X313535Y643229D01*
X313579Y643185D01*
X313621Y643137D01*
X313659Y643088D01*
X313694Y643036D01*
X313726Y642982D01*
X313755Y642926D01*
X313780Y642868D01*
X313801Y642809D01*
X313819Y642749D01*
X313832Y642687D01*
X313842Y642625D01*
X313848Y642563D01*
X313850Y642500D01*
X313848Y642437D01*
X313842Y642375D01*
X313832Y642313D01*
X313819Y642251D01*
X313801Y642191D01*
X313780Y642132D01*
X313755Y642074D01*
X313726Y642018D01*
X313694Y641964D01*
X313659Y641912D01*
X313621Y641863D01*
X313579Y641815D01*
X313535Y641771D01*
X313487Y641729D01*
X313438Y641691D01*
X313386Y641656D01*
X313332Y641624D01*
X313276Y641595D01*
X313218Y641570D01*
X313159Y641549D01*
X313099Y641531D01*
X313037Y641518D01*
X312975Y641508D01*
X312913Y641502D01*
X312850Y641500D01*
X312787Y641502D01*
X312725Y641508D01*
X312663Y641518D01*
X312601Y641531D01*
X312541Y641549D01*
X312482Y641570D01*
X312424Y641595D01*
X312368Y641624D01*
X312314Y641656D01*
X312262Y641691D01*
X312213Y641729D01*
X312165Y641771D01*
X312121Y641815D01*
X312079Y641863D01*
X312041Y641912D01*
X312006Y641964D01*
X311974Y642018D01*
X311945Y642074D01*
X311920Y642132D01*
X311899Y642191D01*
X311881Y642251D01*
X311868Y642313D01*
X311858Y642375D01*
X311852Y642437D01*
X311850Y642500D01*
D14*
X315193Y647862D02*
X315193Y659568D01*
X313892Y647862D02*
X316494Y647862D01*
X316494Y659568D02*
X313892Y659568D01*
X321596Y659568D02*
X321596Y647862D01*
X325498Y653065D02*
X321596Y659568D01*
X325498Y653065D02*
X329400Y659568D01*
X329400Y647862D01*
X335223Y651114D02*
X335223Y659568D01*
X335222Y651114D02*
X335224Y651002D01*
X335230Y650890D01*
X335239Y650778D01*
X335253Y650666D01*
X335270Y650555D01*
X335292Y650445D01*
X335316Y650336D01*
X335345Y650227D01*
X335378Y650120D01*
X335414Y650013D01*
X335454Y649909D01*
X335497Y649805D01*
X335544Y649703D01*
X335594Y649603D01*
X335648Y649504D01*
X335706Y649408D01*
X335766Y649313D01*
X335830Y649221D01*
X335897Y649131D01*
X335967Y649043D01*
X336040Y648958D01*
X336116Y648875D01*
X336194Y648795D01*
X336276Y648717D01*
X336360Y648643D01*
X336446Y648571D01*
X336535Y648503D01*
X336627Y648438D01*
X336720Y648375D01*
X336816Y648317D01*
X336913Y648261D01*
X337013Y648209D01*
X337114Y648160D01*
X337217Y648115D01*
X337321Y648073D01*
X337426Y648035D01*
X337533Y648001D01*
X337641Y647970D01*
X337750Y647944D01*
X337860Y647920D01*
X337971Y647901D01*
X338082Y647886D01*
X338194Y647874D01*
X338306Y647866D01*
X338418Y647862D01*
X338530Y647862D01*
X338642Y647866D01*
X338754Y647874D01*
X338866Y647886D01*
X338977Y647901D01*
X339088Y647920D01*
X339198Y647944D01*
X339307Y647970D01*
X339415Y648001D01*
X339522Y648035D01*
X339627Y648073D01*
X339731Y648115D01*
X339834Y648160D01*
X339935Y648209D01*
X340035Y648261D01*
X340132Y648317D01*
X340228Y648375D01*
X340321Y648438D01*
X340413Y648503D01*
X340502Y648571D01*
X340588Y648643D01*
X340672Y648717D01*
X340754Y648795D01*
X340832Y648875D01*
X340908Y648958D01*
X340981Y649043D01*
X341051Y649131D01*
X341118Y649221D01*
X341182Y649313D01*
X341242Y649408D01*
X341300Y649504D01*
X341354Y649603D01*
X341404Y649703D01*
X341451Y649805D01*
X341494Y649909D01*
X341534Y650013D01*
X341570Y650120D01*
X341603Y650227D01*
X341632Y650336D01*
X341656Y650445D01*
X341678Y650555D01*
X341695Y650666D01*
X341709Y650778D01*
X341718Y650890D01*
X341724Y651002D01*
X341726Y651114D01*
X341726Y659568D01*
D15*
X330800Y878000D02*
X330802Y878063D01*
X330808Y878125D01*
X330818Y878187D01*
X330831Y878249D01*
X330849Y878309D01*
X330870Y878368D01*
X330895Y878426D01*
X330924Y878482D01*
X330956Y878536D01*
X330991Y878588D01*
X331029Y878637D01*
X331071Y878685D01*
X331115Y878729D01*
X331163Y878771D01*
X331212Y878809D01*
X331264Y878844D01*
X331318Y878876D01*
X331374Y878905D01*
X331432Y878930D01*
X331491Y878951D01*
X331551Y878969D01*
X331613Y878982D01*
X331675Y878992D01*
X331737Y878998D01*
X331800Y879000D01*
X331863Y878998D01*
X331925Y878992D01*
X331987Y878982D01*
X332049Y878969D01*
X332109Y878951D01*
X332168Y878930D01*
X332226Y878905D01*
X332282Y878876D01*
X332336Y878844D01*
X332388Y878809D01*
X332437Y878771D01*
X332485Y878729D01*
X332529Y878685D01*
X332571Y878637D01*
X332609Y878588D01*
X332644Y878536D01*
X332676Y878482D01*
X332705Y878426D01*
X332730Y878368D01*
X332751Y878309D01*
X332769Y878249D01*
X332782Y878187D01*
X332792Y878125D01*
X332798Y878063D01*
X332800Y878000D01*
X332798Y877937D01*
X332792Y877875D01*
X332782Y877813D01*
X332769Y877751D01*
X332751Y877691D01*
X332730Y877632D01*
X332705Y877574D01*
X332676Y877518D01*
X332644Y877464D01*
X332609Y877412D01*
X332571Y877363D01*
X332529Y877315D01*
X332485Y877271D01*
X332437Y877229D01*
X332388Y877191D01*
X332336Y877156D01*
X332282Y877124D01*
X332226Y877095D01*
X332168Y877070D01*
X332109Y877049D01*
X332049Y877031D01*
X331987Y877018D01*
X331925Y877008D01*
X331863Y877002D01*
X331800Y877000D01*
X331737Y877002D01*
X331675Y877008D01*
X331613Y877018D01*
X331551Y877031D01*
X331491Y877049D01*
X331432Y877070D01*
X331374Y877095D01*
X331318Y877124D01*
X331264Y877156D01*
X331212Y877191D01*
X331163Y877229D01*
X331115Y877271D01*
X331071Y877315D01*
X331029Y877363D01*
X330991Y877412D01*
X330956Y877464D01*
X330924Y877518D01*
X330895Y877574D01*
X330870Y877632D01*
X330849Y877691D01*
X330831Y877751D01*
X330818Y877813D01*
X330808Y877875D01*
X330802Y877937D01*
X330800Y878000D01*
D13*
X341800Y704500D02*
X341800Y698000D01*
X366300Y698000D01*
X497300Y698000D02*
X521800Y698000D01*
X521800Y704500D01*
X341800Y888000D02*
X341800Y953000D01*
X521800Y953000D01*
X521800Y888000D01*
D14*
X310638Y725082D02*
X310638Y716644D01*
X310640Y716531D01*
X310646Y716418D01*
X310656Y716305D01*
X310670Y716192D01*
X310687Y716080D01*
X310709Y715969D01*
X310734Y715859D01*
X310764Y715749D01*
X310797Y715641D01*
X310834Y715534D01*
X310874Y715428D01*
X310919Y715324D01*
X310967Y715221D01*
X311018Y715120D01*
X311073Y715021D01*
X311131Y714924D01*
X311193Y714829D01*
X311258Y714736D01*
X311326Y714646D01*
X311397Y714558D01*
X311472Y714472D01*
X311549Y714389D01*
X311629Y714309D01*
X311712Y714232D01*
X311798Y714157D01*
X311886Y714086D01*
X311976Y714018D01*
X312069Y713953D01*
X312164Y713891D01*
X312261Y713833D01*
X312360Y713778D01*
X312461Y713727D01*
X312564Y713679D01*
X312668Y713634D01*
X312774Y713594D01*
X312881Y713557D01*
X312989Y713524D01*
X313099Y713494D01*
X313209Y713469D01*
X313320Y713447D01*
X313432Y713430D01*
X313545Y713416D01*
X313658Y713406D01*
X313771Y713400D01*
X313884Y713398D01*
X313997Y713400D01*
X314110Y713406D01*
X314223Y713416D01*
X314336Y713430D01*
X314448Y713447D01*
X314559Y713469D01*
X314669Y713494D01*
X314779Y713524D01*
X314887Y713557D01*
X314994Y713594D01*
X315100Y713634D01*
X315204Y713679D01*
X315307Y713727D01*
X315408Y713778D01*
X315507Y713833D01*
X315604Y713891D01*
X315699Y713953D01*
X315792Y714018D01*
X315882Y714086D01*
X315970Y714157D01*
X316056Y714232D01*
X316139Y714309D01*
X316219Y714389D01*
X316296Y714472D01*
X316371Y714558D01*
X316442Y714646D01*
X316510Y714736D01*
X316575Y714829D01*
X316637Y714924D01*
X316695Y715021D01*
X316750Y715120D01*
X316801Y715221D01*
X316849Y715324D01*
X316894Y715428D01*
X316934Y715534D01*
X316971Y715641D01*
X317004Y715749D01*
X317034Y715859D01*
X317059Y715969D01*
X317081Y716080D01*
X317098Y716192D01*
X317112Y716305D01*
X317122Y716418D01*
X317128Y716531D01*
X317130Y716644D01*
X317129Y716644D02*
X317129Y725082D01*
X326019Y725082D02*
X326126Y725080D01*
X326232Y725074D01*
X326338Y725064D01*
X326444Y725051D01*
X326550Y725033D01*
X326654Y725012D01*
X326758Y724987D01*
X326861Y724958D01*
X326962Y724926D01*
X327062Y724889D01*
X327161Y724849D01*
X327259Y724806D01*
X327355Y724759D01*
X327449Y724708D01*
X327541Y724654D01*
X327631Y724597D01*
X327719Y724537D01*
X327804Y724473D01*
X327887Y724406D01*
X327968Y724336D01*
X328046Y724264D01*
X328122Y724188D01*
X328194Y724110D01*
X328264Y724029D01*
X328331Y723946D01*
X328395Y723861D01*
X328455Y723773D01*
X328512Y723683D01*
X328566Y723591D01*
X328617Y723497D01*
X328664Y723401D01*
X328707Y723303D01*
X328747Y723204D01*
X328784Y723104D01*
X328816Y723003D01*
X328845Y722900D01*
X328870Y722796D01*
X328891Y722692D01*
X328909Y722586D01*
X328922Y722480D01*
X328932Y722374D01*
X328938Y722268D01*
X328940Y722161D01*
X326019Y725082D02*
X325898Y725080D01*
X325777Y725074D01*
X325657Y725064D01*
X325536Y725051D01*
X325417Y725033D01*
X325297Y725012D01*
X325179Y724987D01*
X325062Y724958D01*
X324945Y724925D01*
X324830Y724889D01*
X324716Y724848D01*
X324603Y724805D01*
X324491Y724757D01*
X324382Y724706D01*
X324274Y724651D01*
X324167Y724593D01*
X324063Y724532D01*
X323961Y724467D01*
X323861Y724399D01*
X323763Y724328D01*
X323667Y724254D01*
X323574Y724177D01*
X323484Y724096D01*
X323396Y724013D01*
X323311Y723927D01*
X323228Y723838D01*
X323149Y723747D01*
X323072Y723653D01*
X322999Y723557D01*
X322929Y723459D01*
X322862Y723358D01*
X322798Y723255D01*
X322738Y723150D01*
X322681Y723043D01*
X322627Y722935D01*
X322577Y722825D01*
X322531Y722713D01*
X322488Y722600D01*
X322449Y722485D01*
X327967Y719889D02*
X328046Y719966D01*
X328122Y720047D01*
X328195Y720130D01*
X328265Y720215D01*
X328332Y720303D01*
X328396Y720393D01*
X328456Y720485D01*
X328513Y720580D01*
X328567Y720676D01*
X328618Y720774D01*
X328665Y720874D01*
X328709Y720976D01*
X328749Y721079D01*
X328785Y721183D01*
X328817Y721289D01*
X328846Y721395D01*
X328871Y721503D01*
X328893Y721611D01*
X328910Y721721D01*
X328924Y721830D01*
X328933Y721940D01*
X328939Y722051D01*
X328941Y722161D01*
X327966Y719889D02*
X322449Y713398D01*
X328940Y713398D01*
D16*
X223875Y653050D02*
X45875Y653050D01*
X223875Y653050D02*
X223875Y589650D01*
X45875Y589650D01*
X45875Y653050D01*
D14*
X134329Y621858D02*
X136926Y621858D01*
X134329Y621858D02*
X134230Y621860D01*
X134130Y621866D01*
X134031Y621875D01*
X133933Y621888D01*
X133835Y621905D01*
X133737Y621926D01*
X133641Y621951D01*
X133546Y621979D01*
X133452Y622011D01*
X133359Y622046D01*
X133267Y622085D01*
X133177Y622128D01*
X133089Y622173D01*
X133002Y622223D01*
X132918Y622275D01*
X132835Y622331D01*
X132755Y622389D01*
X132677Y622451D01*
X132602Y622516D01*
X132529Y622584D01*
X132459Y622654D01*
X132391Y622727D01*
X132326Y622802D01*
X132264Y622880D01*
X132206Y622960D01*
X132150Y623043D01*
X132098Y623127D01*
X132048Y623214D01*
X132003Y623302D01*
X131960Y623392D01*
X131921Y623484D01*
X131886Y623577D01*
X131854Y623671D01*
X131826Y623766D01*
X131801Y623862D01*
X131780Y623960D01*
X131763Y624058D01*
X131750Y624156D01*
X131741Y624255D01*
X131735Y624355D01*
X131733Y624454D01*
X131733Y630946D01*
X131735Y631045D01*
X131741Y631145D01*
X131750Y631244D01*
X131763Y631342D01*
X131780Y631440D01*
X131801Y631538D01*
X131826Y631634D01*
X131854Y631729D01*
X131886Y631823D01*
X131921Y631916D01*
X131960Y632008D01*
X132003Y632098D01*
X132048Y632186D01*
X132098Y632273D01*
X132150Y632357D01*
X132206Y632440D01*
X132264Y632520D01*
X132326Y632598D01*
X132391Y632673D01*
X132459Y632746D01*
X132529Y632816D01*
X132602Y632884D01*
X132677Y632949D01*
X132755Y633011D01*
X132835Y633069D01*
X132918Y633125D01*
X133002Y633177D01*
X133089Y633227D01*
X133177Y633272D01*
X133267Y633315D01*
X133359Y633354D01*
X133451Y633389D01*
X133546Y633421D01*
X133641Y633449D01*
X133737Y633474D01*
X133835Y633495D01*
X133933Y633512D01*
X134031Y633525D01*
X134130Y633534D01*
X134230Y633540D01*
X134329Y633542D01*
X136926Y633542D01*
X141291Y630296D02*
X141291Y625104D01*
X141291Y630296D02*
X141293Y630409D01*
X141299Y630522D01*
X141309Y630635D01*
X141323Y630748D01*
X141340Y630860D01*
X141362Y630971D01*
X141387Y631081D01*
X141417Y631191D01*
X141450Y631299D01*
X141487Y631406D01*
X141527Y631512D01*
X141572Y631616D01*
X141620Y631719D01*
X141671Y631820D01*
X141726Y631919D01*
X141784Y632016D01*
X141846Y632111D01*
X141911Y632204D01*
X141979Y632294D01*
X142050Y632382D01*
X142125Y632468D01*
X142202Y632551D01*
X142282Y632631D01*
X142365Y632708D01*
X142451Y632783D01*
X142539Y632854D01*
X142629Y632922D01*
X142722Y632987D01*
X142817Y633049D01*
X142914Y633107D01*
X143013Y633162D01*
X143114Y633213D01*
X143217Y633261D01*
X143321Y633306D01*
X143427Y633346D01*
X143534Y633383D01*
X143642Y633416D01*
X143752Y633446D01*
X143862Y633471D01*
X143973Y633493D01*
X144085Y633510D01*
X144198Y633524D01*
X144311Y633534D01*
X144424Y633540D01*
X144537Y633542D01*
X144650Y633540D01*
X144763Y633534D01*
X144876Y633524D01*
X144989Y633510D01*
X145101Y633493D01*
X145212Y633471D01*
X145322Y633446D01*
X145432Y633416D01*
X145540Y633383D01*
X145647Y633346D01*
X145753Y633306D01*
X145857Y633261D01*
X145960Y633213D01*
X146061Y633162D01*
X146160Y633107D01*
X146257Y633049D01*
X146352Y632987D01*
X146445Y632922D01*
X146535Y632854D01*
X146623Y632783D01*
X146709Y632708D01*
X146792Y632631D01*
X146872Y632551D01*
X146949Y632468D01*
X147024Y632382D01*
X147095Y632294D01*
X147163Y632204D01*
X147228Y632111D01*
X147290Y632016D01*
X147348Y631919D01*
X147403Y631820D01*
X147454Y631719D01*
X147502Y631616D01*
X147547Y631512D01*
X147587Y631406D01*
X147624Y631299D01*
X147657Y631191D01*
X147687Y631081D01*
X147712Y630971D01*
X147734Y630860D01*
X147751Y630748D01*
X147765Y630635D01*
X147775Y630522D01*
X147781Y630409D01*
X147783Y630296D01*
X147782Y630296D02*
X147782Y625104D01*
X147783Y625104D02*
X147781Y624991D01*
X147775Y624878D01*
X147765Y624765D01*
X147751Y624652D01*
X147734Y624540D01*
X147712Y624429D01*
X147687Y624319D01*
X147657Y624209D01*
X147624Y624101D01*
X147587Y623994D01*
X147547Y623888D01*
X147502Y623784D01*
X147454Y623681D01*
X147403Y623580D01*
X147348Y623481D01*
X147290Y623384D01*
X147228Y623289D01*
X147163Y623196D01*
X147095Y623106D01*
X147024Y623018D01*
X146949Y622932D01*
X146872Y622849D01*
X146792Y622769D01*
X146709Y622692D01*
X146623Y622617D01*
X146535Y622546D01*
X146445Y622478D01*
X146352Y622413D01*
X146257Y622351D01*
X146160Y622293D01*
X146061Y622238D01*
X145960Y622187D01*
X145857Y622139D01*
X145753Y622094D01*
X145647Y622054D01*
X145540Y622017D01*
X145432Y621984D01*
X145322Y621954D01*
X145212Y621929D01*
X145101Y621907D01*
X144989Y621890D01*
X144876Y621876D01*
X144763Y621866D01*
X144650Y621860D01*
X144537Y621858D01*
X144424Y621860D01*
X144311Y621866D01*
X144198Y621876D01*
X144085Y621890D01*
X143973Y621907D01*
X143862Y621929D01*
X143752Y621954D01*
X143642Y621984D01*
X143534Y622017D01*
X143427Y622054D01*
X143321Y622094D01*
X143217Y622139D01*
X143114Y622187D01*
X143013Y622238D01*
X142914Y622293D01*
X142817Y622351D01*
X142722Y622413D01*
X142629Y622478D01*
X142539Y622546D01*
X142451Y622617D01*
X142365Y622692D01*
X142282Y622769D01*
X142202Y622849D01*
X142125Y622932D01*
X142050Y623018D01*
X141979Y623106D01*
X141911Y623196D01*
X141846Y623289D01*
X141784Y623384D01*
X141726Y623481D01*
X141671Y623580D01*
X141620Y623681D01*
X141572Y623784D01*
X141527Y623888D01*
X141487Y623994D01*
X141450Y624101D01*
X141417Y624209D01*
X141387Y624319D01*
X141362Y624429D01*
X141340Y624540D01*
X141323Y624652D01*
X141309Y624765D01*
X141299Y624878D01*
X141293Y624991D01*
X141291Y625104D01*
X153102Y621858D02*
X153102Y633542D01*
X159593Y621858D01*
X159593Y633542D01*
X164264Y633542D02*
X168159Y621858D01*
X172053Y633542D01*
X175849Y620560D02*
X181042Y620560D01*
X185487Y628349D02*
X189382Y628349D01*
X189481Y628347D01*
X189581Y628341D01*
X189680Y628332D01*
X189778Y628319D01*
X189876Y628302D01*
X189974Y628281D01*
X190070Y628256D01*
X190165Y628228D01*
X190259Y628196D01*
X190352Y628161D01*
X190444Y628122D01*
X190534Y628079D01*
X190622Y628034D01*
X190709Y627984D01*
X190793Y627932D01*
X190876Y627876D01*
X190956Y627818D01*
X191034Y627756D01*
X191109Y627691D01*
X191182Y627623D01*
X191252Y627553D01*
X191320Y627480D01*
X191385Y627405D01*
X191447Y627327D01*
X191505Y627247D01*
X191561Y627164D01*
X191613Y627080D01*
X191663Y626993D01*
X191708Y626905D01*
X191751Y626815D01*
X191790Y626723D01*
X191825Y626630D01*
X191857Y626536D01*
X191885Y626441D01*
X191910Y626345D01*
X191931Y626247D01*
X191948Y626149D01*
X191961Y626051D01*
X191970Y625952D01*
X191976Y625852D01*
X191978Y625753D01*
X191978Y625104D01*
X191979Y625104D02*
X191977Y624991D01*
X191971Y624878D01*
X191961Y624765D01*
X191947Y624652D01*
X191930Y624540D01*
X191908Y624429D01*
X191883Y624319D01*
X191853Y624209D01*
X191820Y624101D01*
X191783Y623994D01*
X191743Y623888D01*
X191698Y623784D01*
X191650Y623681D01*
X191599Y623580D01*
X191544Y623481D01*
X191486Y623384D01*
X191424Y623289D01*
X191359Y623196D01*
X191291Y623106D01*
X191220Y623018D01*
X191145Y622932D01*
X191068Y622849D01*
X190988Y622769D01*
X190905Y622692D01*
X190819Y622617D01*
X190731Y622546D01*
X190641Y622478D01*
X190548Y622413D01*
X190453Y622351D01*
X190356Y622293D01*
X190257Y622238D01*
X190156Y622187D01*
X190053Y622139D01*
X189949Y622094D01*
X189843Y622054D01*
X189736Y622017D01*
X189628Y621984D01*
X189518Y621954D01*
X189408Y621929D01*
X189297Y621907D01*
X189185Y621890D01*
X189072Y621876D01*
X188959Y621866D01*
X188846Y621860D01*
X188733Y621858D01*
X188620Y621860D01*
X188507Y621866D01*
X188394Y621876D01*
X188281Y621890D01*
X188169Y621907D01*
X188058Y621929D01*
X187948Y621954D01*
X187838Y621984D01*
X187730Y622017D01*
X187623Y622054D01*
X187517Y622094D01*
X187413Y622139D01*
X187310Y622187D01*
X187209Y622238D01*
X187110Y622293D01*
X187013Y622351D01*
X186918Y622413D01*
X186825Y622478D01*
X186735Y622546D01*
X186647Y622617D01*
X186561Y622692D01*
X186478Y622769D01*
X186398Y622849D01*
X186321Y622932D01*
X186246Y623018D01*
X186175Y623106D01*
X186107Y623196D01*
X186042Y623289D01*
X185980Y623384D01*
X185922Y623481D01*
X185867Y623580D01*
X185816Y623681D01*
X185768Y623784D01*
X185723Y623888D01*
X185683Y623994D01*
X185646Y624101D01*
X185613Y624209D01*
X185583Y624319D01*
X185558Y624429D01*
X185536Y624540D01*
X185519Y624652D01*
X185505Y624765D01*
X185495Y624878D01*
X185489Y624991D01*
X185487Y625104D01*
X185487Y628349D01*
X185489Y628492D01*
X185495Y628635D01*
X185505Y628778D01*
X185519Y628920D01*
X185536Y629062D01*
X185558Y629204D01*
X185583Y629345D01*
X185613Y629485D01*
X185646Y629624D01*
X185683Y629762D01*
X185724Y629899D01*
X185768Y630035D01*
X185817Y630170D01*
X185869Y630303D01*
X185924Y630435D01*
X185984Y630565D01*
X186047Y630694D01*
X186113Y630821D01*
X186183Y630945D01*
X186256Y631068D01*
X186333Y631189D01*
X186413Y631308D01*
X186496Y631424D01*
X186582Y631539D01*
X186671Y631650D01*
X186764Y631760D01*
X186859Y631866D01*
X186958Y631970D01*
X187059Y632071D01*
X187163Y632170D01*
X187269Y632265D01*
X187379Y632358D01*
X187490Y632447D01*
X187605Y632533D01*
X187721Y632616D01*
X187840Y632696D01*
X187961Y632773D01*
X188083Y632846D01*
X188208Y632916D01*
X188335Y632982D01*
X188464Y633045D01*
X188594Y633105D01*
X188726Y633160D01*
X188859Y633212D01*
X188994Y633261D01*
X189130Y633305D01*
X189267Y633346D01*
X189405Y633383D01*
X189544Y633416D01*
X189684Y633446D01*
X189825Y633471D01*
X189967Y633493D01*
X190109Y633510D01*
X190251Y633524D01*
X190394Y633534D01*
X190537Y633540D01*
X190680Y633542D01*
X196268Y633542D02*
X200163Y621858D01*
X204057Y633542D01*
D17*
X262475Y619775D02*
X318475Y619775D01*
X318475Y535775D02*
X262475Y535775D01*
D18*
X332975Y535775D03*
D13*
X232429Y528286D02*
X232429Y516842D01*
X236244Y521928D02*
X232429Y528286D01*
X236244Y521928D02*
X240059Y528286D01*
X240059Y516842D01*
X245653Y520021D02*
X245653Y525107D01*
X245655Y525218D01*
X245661Y525329D01*
X245670Y525439D01*
X245684Y525549D01*
X245701Y525659D01*
X245722Y525768D01*
X245747Y525876D01*
X245776Y525983D01*
X245809Y526089D01*
X245845Y526194D01*
X245884Y526298D01*
X245928Y526400D01*
X245975Y526501D01*
X246025Y526599D01*
X246079Y526697D01*
X246136Y526792D01*
X246196Y526885D01*
X246260Y526976D01*
X246327Y527064D01*
X246397Y527150D01*
X246470Y527234D01*
X246545Y527315D01*
X246624Y527394D01*
X246705Y527469D01*
X246789Y527542D01*
X246875Y527612D01*
X246963Y527679D01*
X247054Y527743D01*
X247147Y527803D01*
X247243Y527860D01*
X247340Y527914D01*
X247438Y527964D01*
X247539Y528011D01*
X247641Y528055D01*
X247745Y528094D01*
X247850Y528130D01*
X247956Y528163D01*
X248063Y528192D01*
X248171Y528217D01*
X248280Y528238D01*
X248390Y528255D01*
X248500Y528269D01*
X248610Y528278D01*
X248721Y528284D01*
X248832Y528286D01*
X248943Y528284D01*
X249054Y528278D01*
X249164Y528269D01*
X249274Y528255D01*
X249384Y528238D01*
X249493Y528217D01*
X249601Y528192D01*
X249708Y528163D01*
X249814Y528130D01*
X249919Y528094D01*
X250023Y528055D01*
X250125Y528011D01*
X250226Y527964D01*
X250324Y527914D01*
X250422Y527860D01*
X250517Y527803D01*
X250610Y527743D01*
X250701Y527679D01*
X250789Y527612D01*
X250875Y527542D01*
X250959Y527469D01*
X251040Y527394D01*
X251119Y527315D01*
X251194Y527234D01*
X251267Y527150D01*
X251337Y527064D01*
X251404Y526976D01*
X251468Y526885D01*
X251528Y526792D01*
X251585Y526697D01*
X251639Y526599D01*
X251689Y526501D01*
X251736Y526400D01*
X251780Y526298D01*
X251819Y526194D01*
X251855Y526089D01*
X251888Y525983D01*
X251917Y525876D01*
X251942Y525768D01*
X251963Y525659D01*
X251980Y525549D01*
X251994Y525439D01*
X252003Y525329D01*
X252009Y525218D01*
X252011Y525107D01*
X252011Y520021D01*
X252009Y519910D01*
X252003Y519799D01*
X251994Y519689D01*
X251980Y519579D01*
X251963Y519469D01*
X251942Y519360D01*
X251917Y519252D01*
X251888Y519145D01*
X251855Y519039D01*
X251819Y518934D01*
X251780Y518830D01*
X251736Y518728D01*
X251689Y518627D01*
X251639Y518529D01*
X251585Y518431D01*
X251528Y518336D01*
X251468Y518243D01*
X251404Y518152D01*
X251337Y518064D01*
X251267Y517978D01*
X251194Y517894D01*
X251119Y517813D01*
X251040Y517734D01*
X250959Y517659D01*
X250875Y517586D01*
X250789Y517516D01*
X250701Y517449D01*
X250610Y517385D01*
X250517Y517325D01*
X250421Y517268D01*
X250324Y517214D01*
X250226Y517164D01*
X250125Y517117D01*
X250023Y517073D01*
X249919Y517034D01*
X249814Y516998D01*
X249708Y516965D01*
X249601Y516936D01*
X249493Y516911D01*
X249384Y516890D01*
X249274Y516873D01*
X249164Y516859D01*
X249054Y516850D01*
X248943Y516844D01*
X248832Y516842D01*
X248721Y516844D01*
X248610Y516850D01*
X248500Y516859D01*
X248390Y516873D01*
X248280Y516890D01*
X248171Y516911D01*
X248063Y516936D01*
X247956Y516965D01*
X247850Y516998D01*
X247745Y517034D01*
X247641Y517073D01*
X247539Y517117D01*
X247438Y517164D01*
X247340Y517214D01*
X247243Y517268D01*
X247147Y517325D01*
X247054Y517385D01*
X246963Y517449D01*
X246875Y517516D01*
X246789Y517586D01*
X246705Y517659D01*
X246624Y517734D01*
X246545Y517813D01*
X246470Y517894D01*
X246397Y517978D01*
X246327Y518064D01*
X246260Y518152D01*
X246196Y518243D01*
X246136Y518336D01*
X246079Y518432D01*
X246025Y518529D01*
X245975Y518627D01*
X245928Y518728D01*
X245884Y518830D01*
X245845Y518934D01*
X245809Y519039D01*
X245776Y519145D01*
X245747Y519252D01*
X245722Y519360D01*
X245701Y519469D01*
X245684Y519579D01*
X245670Y519689D01*
X245661Y519799D01*
X245655Y519910D01*
X245653Y520021D01*
X259512Y516842D02*
X259512Y528286D01*
X256333Y528286D02*
X262691Y528286D01*
X267013Y525107D02*
X267013Y520021D01*
X267013Y525107D02*
X267015Y525218D01*
X267021Y525329D01*
X267030Y525439D01*
X267044Y525549D01*
X267061Y525659D01*
X267082Y525768D01*
X267107Y525876D01*
X267136Y525983D01*
X267169Y526089D01*
X267205Y526194D01*
X267244Y526298D01*
X267288Y526400D01*
X267335Y526501D01*
X267385Y526599D01*
X267439Y526697D01*
X267496Y526792D01*
X267556Y526885D01*
X267620Y526976D01*
X267687Y527064D01*
X267757Y527150D01*
X267830Y527234D01*
X267905Y527315D01*
X267984Y527394D01*
X268065Y527469D01*
X268149Y527542D01*
X268235Y527612D01*
X268323Y527679D01*
X268414Y527743D01*
X268507Y527803D01*
X268603Y527860D01*
X268700Y527914D01*
X268798Y527964D01*
X268899Y528011D01*
X269001Y528055D01*
X269105Y528094D01*
X269210Y528130D01*
X269316Y528163D01*
X269423Y528192D01*
X269531Y528217D01*
X269640Y528238D01*
X269750Y528255D01*
X269860Y528269D01*
X269970Y528278D01*
X270081Y528284D01*
X270192Y528286D01*
X270303Y528284D01*
X270414Y528278D01*
X270524Y528269D01*
X270634Y528255D01*
X270744Y528238D01*
X270853Y528217D01*
X270961Y528192D01*
X271068Y528163D01*
X271174Y528130D01*
X271279Y528094D01*
X271383Y528055D01*
X271485Y528011D01*
X271586Y527964D01*
X271684Y527914D01*
X271782Y527860D01*
X271877Y527803D01*
X271970Y527743D01*
X272061Y527679D01*
X272149Y527612D01*
X272235Y527542D01*
X272319Y527469D01*
X272400Y527394D01*
X272479Y527315D01*
X272554Y527234D01*
X272627Y527150D01*
X272697Y527064D01*
X272764Y526976D01*
X272828Y526885D01*
X272888Y526792D01*
X272945Y526697D01*
X272999Y526599D01*
X273049Y526501D01*
X273096Y526400D01*
X273140Y526298D01*
X273179Y526194D01*
X273215Y526089D01*
X273248Y525983D01*
X273277Y525876D01*
X273302Y525768D01*
X273323Y525659D01*
X273340Y525549D01*
X273354Y525439D01*
X273363Y525329D01*
X273369Y525218D01*
X273371Y525107D01*
X273371Y520021D01*
X273369Y519910D01*
X273363Y519799D01*
X273354Y519689D01*
X273340Y519579D01*
X273323Y519469D01*
X273302Y519360D01*
X273277Y519252D01*
X273248Y519145D01*
X273215Y519039D01*
X273179Y518934D01*
X273140Y518830D01*
X273096Y518728D01*
X273049Y518627D01*
X272999Y518529D01*
X272945Y518431D01*
X272888Y518336D01*
X272828Y518243D01*
X272764Y518152D01*
X272697Y518064D01*
X272627Y517978D01*
X272554Y517894D01*
X272479Y517813D01*
X272400Y517734D01*
X272319Y517659D01*
X272235Y517586D01*
X272149Y517516D01*
X272061Y517449D01*
X271970Y517385D01*
X271877Y517325D01*
X271781Y517268D01*
X271684Y517214D01*
X271586Y517164D01*
X271485Y517117D01*
X271383Y517073D01*
X271279Y517034D01*
X271174Y516998D01*
X271068Y516965D01*
X270961Y516936D01*
X270853Y516911D01*
X270744Y516890D01*
X270634Y516873D01*
X270524Y516859D01*
X270414Y516850D01*
X270303Y516844D01*
X270192Y516842D01*
X270081Y516844D01*
X269970Y516850D01*
X269860Y516859D01*
X269750Y516873D01*
X269640Y516890D01*
X269531Y516911D01*
X269423Y516936D01*
X269316Y516965D01*
X269210Y516998D01*
X269105Y517034D01*
X269001Y517073D01*
X268899Y517117D01*
X268798Y517164D01*
X268700Y517214D01*
X268603Y517268D01*
X268507Y517325D01*
X268414Y517385D01*
X268323Y517449D01*
X268235Y517516D01*
X268149Y517586D01*
X268065Y517659D01*
X267984Y517734D01*
X267905Y517813D01*
X267830Y517894D01*
X267757Y517978D01*
X267687Y518064D01*
X267620Y518152D01*
X267556Y518243D01*
X267496Y518336D01*
X267439Y518432D01*
X267385Y518529D01*
X267335Y518627D01*
X267288Y518728D01*
X267244Y518830D01*
X267205Y518934D01*
X267169Y519039D01*
X267136Y519145D01*
X267107Y519252D01*
X267082Y519360D01*
X267061Y519469D01*
X267044Y519579D01*
X267030Y519689D01*
X267021Y519799D01*
X267015Y519910D01*
X267013Y520021D01*
X278921Y516842D02*
X278921Y528286D01*
X282100Y528286D01*
X282211Y528284D01*
X282322Y528278D01*
X282432Y528269D01*
X282542Y528255D01*
X282652Y528238D01*
X282761Y528217D01*
X282869Y528192D01*
X282976Y528163D01*
X283082Y528130D01*
X283187Y528094D01*
X283291Y528055D01*
X283393Y528011D01*
X283494Y527964D01*
X283592Y527914D01*
X283690Y527860D01*
X283785Y527803D01*
X283878Y527743D01*
X283969Y527679D01*
X284057Y527612D01*
X284143Y527542D01*
X284227Y527469D01*
X284308Y527394D01*
X284387Y527315D01*
X284462Y527234D01*
X284535Y527150D01*
X284605Y527064D01*
X284672Y526976D01*
X284736Y526885D01*
X284796Y526792D01*
X284853Y526696D01*
X284907Y526599D01*
X284957Y526501D01*
X285004Y526400D01*
X285048Y526298D01*
X285087Y526194D01*
X285123Y526089D01*
X285156Y525983D01*
X285185Y525876D01*
X285210Y525768D01*
X285231Y525659D01*
X285248Y525549D01*
X285262Y525439D01*
X285271Y525329D01*
X285277Y525218D01*
X285279Y525107D01*
X285277Y524996D01*
X285271Y524885D01*
X285262Y524775D01*
X285248Y524665D01*
X285231Y524555D01*
X285210Y524446D01*
X285185Y524338D01*
X285156Y524231D01*
X285123Y524125D01*
X285087Y524020D01*
X285048Y523916D01*
X285004Y523814D01*
X284957Y523713D01*
X284907Y523615D01*
X284853Y523517D01*
X284796Y523422D01*
X284736Y523329D01*
X284672Y523238D01*
X284605Y523150D01*
X284535Y523064D01*
X284462Y522980D01*
X284387Y522899D01*
X284308Y522820D01*
X284227Y522745D01*
X284143Y522672D01*
X284057Y522602D01*
X283969Y522535D01*
X283878Y522471D01*
X283785Y522411D01*
X283690Y522354D01*
X283592Y522300D01*
X283494Y522250D01*
X283393Y522203D01*
X283291Y522159D01*
X283187Y522120D01*
X283082Y522084D01*
X282976Y522051D01*
X282869Y522022D01*
X282761Y521997D01*
X282652Y521976D01*
X282542Y521959D01*
X282432Y521945D01*
X282322Y521936D01*
X282211Y521930D01*
X282100Y521928D01*
X278921Y521928D01*
X282736Y521928D02*
X285279Y516842D01*
X289772Y515570D02*
X294859Y515570D01*
X299817Y516842D02*
X299817Y528286D01*
X302996Y528286D01*
X303107Y528284D01*
X303218Y528278D01*
X303328Y528269D01*
X303438Y528255D01*
X303548Y528238D01*
X303657Y528217D01*
X303765Y528192D01*
X303872Y528163D01*
X303978Y528130D01*
X304083Y528094D01*
X304187Y528055D01*
X304289Y528011D01*
X304390Y527964D01*
X304488Y527914D01*
X304586Y527860D01*
X304681Y527803D01*
X304774Y527743D01*
X304865Y527679D01*
X304953Y527612D01*
X305039Y527542D01*
X305123Y527469D01*
X305204Y527394D01*
X305283Y527315D01*
X305358Y527234D01*
X305431Y527150D01*
X305501Y527064D01*
X305568Y526976D01*
X305632Y526885D01*
X305692Y526792D01*
X305749Y526697D01*
X305803Y526599D01*
X305853Y526501D01*
X305900Y526400D01*
X305944Y526298D01*
X305983Y526194D01*
X306019Y526089D01*
X306052Y525983D01*
X306081Y525876D01*
X306106Y525768D01*
X306127Y525659D01*
X306144Y525549D01*
X306158Y525439D01*
X306167Y525329D01*
X306173Y525218D01*
X306175Y525107D01*
X306175Y520021D01*
X306173Y519910D01*
X306167Y519799D01*
X306158Y519689D01*
X306144Y519579D01*
X306127Y519469D01*
X306106Y519360D01*
X306081Y519252D01*
X306052Y519145D01*
X306019Y519039D01*
X305983Y518934D01*
X305944Y518830D01*
X305900Y518728D01*
X305853Y518627D01*
X305803Y518529D01*
X305749Y518431D01*
X305692Y518336D01*
X305632Y518243D01*
X305568Y518152D01*
X305501Y518064D01*
X305431Y517978D01*
X305358Y517894D01*
X305283Y517813D01*
X305204Y517734D01*
X305123Y517659D01*
X305039Y517586D01*
X304953Y517516D01*
X304865Y517449D01*
X304774Y517385D01*
X304681Y517325D01*
X304586Y517268D01*
X304488Y517214D01*
X304390Y517164D01*
X304289Y517117D01*
X304187Y517073D01*
X304083Y517034D01*
X303978Y516998D01*
X303872Y516965D01*
X303765Y516936D01*
X303657Y516911D01*
X303548Y516890D01*
X303438Y516873D01*
X303328Y516859D01*
X303218Y516850D01*
X303107Y516844D01*
X302996Y516842D01*
X299817Y516842D01*
X312106Y516842D02*
X312106Y528286D01*
X315285Y528286D01*
X315396Y528284D01*
X315507Y528278D01*
X315617Y528269D01*
X315727Y528255D01*
X315837Y528238D01*
X315946Y528217D01*
X316054Y528192D01*
X316161Y528163D01*
X316267Y528130D01*
X316372Y528094D01*
X316476Y528055D01*
X316578Y528011D01*
X316679Y527964D01*
X316777Y527914D01*
X316875Y527860D01*
X316970Y527803D01*
X317063Y527743D01*
X317154Y527679D01*
X317242Y527612D01*
X317328Y527542D01*
X317412Y527469D01*
X317493Y527394D01*
X317572Y527315D01*
X317647Y527234D01*
X317720Y527150D01*
X317790Y527064D01*
X317857Y526976D01*
X317921Y526885D01*
X317981Y526792D01*
X318038Y526696D01*
X318092Y526599D01*
X318142Y526501D01*
X318189Y526400D01*
X318233Y526298D01*
X318272Y526194D01*
X318308Y526089D01*
X318341Y525983D01*
X318370Y525876D01*
X318395Y525768D01*
X318416Y525659D01*
X318433Y525549D01*
X318447Y525439D01*
X318456Y525329D01*
X318462Y525218D01*
X318464Y525107D01*
X318462Y524996D01*
X318456Y524885D01*
X318447Y524775D01*
X318433Y524665D01*
X318416Y524555D01*
X318395Y524446D01*
X318370Y524338D01*
X318341Y524231D01*
X318308Y524125D01*
X318272Y524020D01*
X318233Y523916D01*
X318189Y523814D01*
X318142Y523713D01*
X318092Y523615D01*
X318038Y523517D01*
X317981Y523422D01*
X317921Y523329D01*
X317857Y523238D01*
X317790Y523150D01*
X317720Y523064D01*
X317647Y522980D01*
X317572Y522899D01*
X317493Y522820D01*
X317412Y522745D01*
X317328Y522672D01*
X317242Y522602D01*
X317154Y522535D01*
X317063Y522471D01*
X316970Y522411D01*
X316875Y522354D01*
X316777Y522300D01*
X316679Y522250D01*
X316578Y522203D01*
X316476Y522159D01*
X316372Y522120D01*
X316267Y522084D01*
X316161Y522051D01*
X316054Y522022D01*
X315946Y521997D01*
X315837Y521976D01*
X315727Y521959D01*
X315617Y521945D01*
X315507Y521936D01*
X315396Y521930D01*
X315285Y521928D01*
X312106Y521928D01*
X315921Y521928D02*
X318464Y516842D01*
X324357Y516842D02*
X324357Y528286D01*
X323085Y516842D02*
X325628Y516842D01*
X325628Y528286D02*
X323085Y528286D01*
X329696Y528286D02*
X333511Y516842D01*
X337326Y528286D01*
X342182Y516842D02*
X347269Y516842D01*
X342182Y516842D02*
X342182Y528286D01*
X347269Y528286D01*
X345997Y523200D02*
X342182Y523200D01*
X352157Y528286D02*
X352157Y516842D01*
X352157Y528286D02*
X355336Y528286D01*
X355447Y528284D01*
X355558Y528278D01*
X355668Y528269D01*
X355778Y528255D01*
X355888Y528238D01*
X355997Y528217D01*
X356105Y528192D01*
X356212Y528163D01*
X356318Y528130D01*
X356423Y528094D01*
X356527Y528055D01*
X356629Y528011D01*
X356730Y527964D01*
X356828Y527914D01*
X356926Y527860D01*
X357021Y527803D01*
X357114Y527743D01*
X357205Y527679D01*
X357293Y527612D01*
X357379Y527542D01*
X357463Y527469D01*
X357544Y527394D01*
X357623Y527315D01*
X357698Y527234D01*
X357771Y527150D01*
X357841Y527064D01*
X357908Y526976D01*
X357972Y526885D01*
X358032Y526792D01*
X358089Y526696D01*
X358143Y526599D01*
X358193Y526501D01*
X358240Y526400D01*
X358284Y526298D01*
X358323Y526194D01*
X358359Y526089D01*
X358392Y525983D01*
X358421Y525876D01*
X358446Y525768D01*
X358467Y525659D01*
X358484Y525549D01*
X358498Y525439D01*
X358507Y525329D01*
X358513Y525218D01*
X358515Y525107D01*
X358513Y524996D01*
X358507Y524885D01*
X358498Y524775D01*
X358484Y524665D01*
X358467Y524555D01*
X358446Y524446D01*
X358421Y524338D01*
X358392Y524231D01*
X358359Y524125D01*
X358323Y524020D01*
X358284Y523916D01*
X358240Y523814D01*
X358193Y523713D01*
X358143Y523615D01*
X358089Y523517D01*
X358032Y523422D01*
X357972Y523329D01*
X357908Y523238D01*
X357841Y523150D01*
X357771Y523064D01*
X357698Y522980D01*
X357623Y522899D01*
X357544Y522820D01*
X357463Y522745D01*
X357379Y522672D01*
X357293Y522602D01*
X357205Y522535D01*
X357114Y522471D01*
X357021Y522411D01*
X356926Y522354D01*
X356828Y522300D01*
X356730Y522250D01*
X356629Y522203D01*
X356527Y522159D01*
X356423Y522120D01*
X356318Y522084D01*
X356212Y522051D01*
X356105Y522022D01*
X355997Y521997D01*
X355888Y521976D01*
X355778Y521959D01*
X355668Y521945D01*
X355558Y521936D01*
X355447Y521930D01*
X355336Y521928D01*
X352157Y521928D01*
X355972Y521928D02*
X358515Y516842D01*
X37683Y675313D02*
X37683Y829313D01*
X117683Y829313D01*
X117683Y675313D01*
X37683Y675313D01*
D15*
X98908Y726913D02*
X98910Y726976D01*
X98916Y727038D01*
X98926Y727100D01*
X98939Y727162D01*
X98957Y727222D01*
X98978Y727281D01*
X99003Y727339D01*
X99032Y727395D01*
X99064Y727449D01*
X99099Y727501D01*
X99137Y727550D01*
X99179Y727598D01*
X99223Y727642D01*
X99271Y727684D01*
X99320Y727722D01*
X99372Y727757D01*
X99426Y727789D01*
X99482Y727818D01*
X99540Y727843D01*
X99599Y727864D01*
X99659Y727882D01*
X99721Y727895D01*
X99783Y727905D01*
X99845Y727911D01*
X99908Y727913D01*
X99971Y727911D01*
X100033Y727905D01*
X100095Y727895D01*
X100157Y727882D01*
X100217Y727864D01*
X100276Y727843D01*
X100334Y727818D01*
X100390Y727789D01*
X100444Y727757D01*
X100496Y727722D01*
X100545Y727684D01*
X100593Y727642D01*
X100637Y727598D01*
X100679Y727550D01*
X100717Y727501D01*
X100752Y727449D01*
X100784Y727395D01*
X100813Y727339D01*
X100838Y727281D01*
X100859Y727222D01*
X100877Y727162D01*
X100890Y727100D01*
X100900Y727038D01*
X100906Y726976D01*
X100908Y726913D01*
X100906Y726850D01*
X100900Y726788D01*
X100890Y726726D01*
X100877Y726664D01*
X100859Y726604D01*
X100838Y726545D01*
X100813Y726487D01*
X100784Y726431D01*
X100752Y726377D01*
X100717Y726325D01*
X100679Y726276D01*
X100637Y726228D01*
X100593Y726184D01*
X100545Y726142D01*
X100496Y726104D01*
X100444Y726069D01*
X100390Y726037D01*
X100334Y726008D01*
X100276Y725983D01*
X100217Y725962D01*
X100157Y725944D01*
X100095Y725931D01*
X100033Y725921D01*
X99971Y725915D01*
X99908Y725913D01*
X99845Y725915D01*
X99783Y725921D01*
X99721Y725931D01*
X99659Y725944D01*
X99599Y725962D01*
X99540Y725983D01*
X99482Y726008D01*
X99426Y726037D01*
X99372Y726069D01*
X99320Y726104D01*
X99271Y726142D01*
X99223Y726184D01*
X99179Y726228D01*
X99137Y726276D01*
X99099Y726325D01*
X99064Y726377D01*
X99032Y726431D01*
X99003Y726487D01*
X98978Y726545D01*
X98957Y726604D01*
X98939Y726664D01*
X98926Y726726D01*
X98916Y726788D01*
X98910Y726850D01*
X98908Y726913D01*
X76683Y667813D02*
X76685Y667876D01*
X76691Y667938D01*
X76701Y668000D01*
X76714Y668062D01*
X76732Y668122D01*
X76753Y668181D01*
X76778Y668239D01*
X76807Y668295D01*
X76839Y668349D01*
X76874Y668401D01*
X76912Y668450D01*
X76954Y668498D01*
X76998Y668542D01*
X77046Y668584D01*
X77095Y668622D01*
X77147Y668657D01*
X77201Y668689D01*
X77257Y668718D01*
X77315Y668743D01*
X77374Y668764D01*
X77434Y668782D01*
X77496Y668795D01*
X77558Y668805D01*
X77620Y668811D01*
X77683Y668813D01*
X77746Y668811D01*
X77808Y668805D01*
X77870Y668795D01*
X77932Y668782D01*
X77992Y668764D01*
X78051Y668743D01*
X78109Y668718D01*
X78165Y668689D01*
X78219Y668657D01*
X78271Y668622D01*
X78320Y668584D01*
X78368Y668542D01*
X78412Y668498D01*
X78454Y668450D01*
X78492Y668401D01*
X78527Y668349D01*
X78559Y668295D01*
X78588Y668239D01*
X78613Y668181D01*
X78634Y668122D01*
X78652Y668062D01*
X78665Y668000D01*
X78675Y667938D01*
X78681Y667876D01*
X78683Y667813D01*
X78681Y667750D01*
X78675Y667688D01*
X78665Y667626D01*
X78652Y667564D01*
X78634Y667504D01*
X78613Y667445D01*
X78588Y667387D01*
X78559Y667331D01*
X78527Y667277D01*
X78492Y667225D01*
X78454Y667176D01*
X78412Y667128D01*
X78368Y667084D01*
X78320Y667042D01*
X78271Y667004D01*
X78219Y666969D01*
X78165Y666937D01*
X78109Y666908D01*
X78051Y666883D01*
X77992Y666862D01*
X77932Y666844D01*
X77870Y666831D01*
X77808Y666821D01*
X77746Y666815D01*
X77683Y666813D01*
X77620Y666815D01*
X77558Y666821D01*
X77496Y666831D01*
X77434Y666844D01*
X77374Y666862D01*
X77315Y666883D01*
X77257Y666908D01*
X77201Y666937D01*
X77147Y666969D01*
X77095Y667004D01*
X77046Y667042D01*
X76998Y667084D01*
X76954Y667128D01*
X76912Y667176D01*
X76874Y667225D01*
X76839Y667277D01*
X76807Y667331D01*
X76778Y667387D01*
X76753Y667445D01*
X76732Y667504D01*
X76714Y667564D01*
X76701Y667626D01*
X76691Y667688D01*
X76685Y667750D01*
X76683Y667813D01*
D14*
X127791Y808701D02*
X132984Y808701D01*
X127791Y808701D02*
X127678Y808703D01*
X127565Y808709D01*
X127452Y808719D01*
X127339Y808733D01*
X127227Y808750D01*
X127116Y808772D01*
X127006Y808797D01*
X126896Y808827D01*
X126788Y808860D01*
X126681Y808897D01*
X126575Y808937D01*
X126471Y808982D01*
X126368Y809030D01*
X126267Y809081D01*
X126168Y809136D01*
X126071Y809194D01*
X125976Y809256D01*
X125883Y809321D01*
X125793Y809389D01*
X125705Y809460D01*
X125619Y809535D01*
X125536Y809612D01*
X125456Y809692D01*
X125379Y809775D01*
X125304Y809861D01*
X125233Y809949D01*
X125165Y810039D01*
X125100Y810132D01*
X125038Y810227D01*
X124980Y810324D01*
X124925Y810423D01*
X124874Y810524D01*
X124826Y810627D01*
X124781Y810731D01*
X124741Y810837D01*
X124704Y810944D01*
X124671Y811052D01*
X124641Y811162D01*
X124616Y811272D01*
X124594Y811383D01*
X124577Y811495D01*
X124563Y811608D01*
X124553Y811721D01*
X124547Y811834D01*
X124545Y811947D01*
X124547Y812060D01*
X124553Y812173D01*
X124563Y812286D01*
X124577Y812399D01*
X124594Y812511D01*
X124616Y812622D01*
X124641Y812732D01*
X124671Y812842D01*
X124704Y812950D01*
X124741Y813057D01*
X124781Y813163D01*
X124826Y813267D01*
X124874Y813370D01*
X124925Y813471D01*
X124980Y813570D01*
X125038Y813667D01*
X125100Y813762D01*
X125165Y813855D01*
X125233Y813945D01*
X125304Y814033D01*
X125379Y814119D01*
X125456Y814202D01*
X125536Y814282D01*
X125619Y814359D01*
X125705Y814434D01*
X125793Y814505D01*
X125883Y814573D01*
X125976Y814638D01*
X126071Y814700D01*
X126168Y814758D01*
X126267Y814813D01*
X126368Y814864D01*
X126471Y814912D01*
X126575Y814957D01*
X126681Y814997D01*
X126788Y815034D01*
X126896Y815067D01*
X127006Y815097D01*
X127116Y815122D01*
X127227Y815144D01*
X127339Y815161D01*
X127452Y815175D01*
X127565Y815185D01*
X127678Y815191D01*
X127791Y815193D01*
X127791Y815192D02*
X132984Y815192D01*
X132984Y815193D02*
X133097Y815191D01*
X133210Y815185D01*
X133323Y815175D01*
X133436Y815161D01*
X133548Y815144D01*
X133659Y815122D01*
X133769Y815097D01*
X133879Y815067D01*
X133987Y815034D01*
X134094Y814997D01*
X134200Y814957D01*
X134304Y814912D01*
X134407Y814864D01*
X134508Y814813D01*
X134607Y814758D01*
X134704Y814700D01*
X134799Y814638D01*
X134892Y814573D01*
X134982Y814505D01*
X135070Y814434D01*
X135156Y814359D01*
X135239Y814282D01*
X135319Y814202D01*
X135396Y814119D01*
X135471Y814033D01*
X135542Y813945D01*
X135610Y813855D01*
X135675Y813762D01*
X135737Y813667D01*
X135795Y813570D01*
X135850Y813471D01*
X135901Y813370D01*
X135949Y813267D01*
X135994Y813163D01*
X136034Y813057D01*
X136071Y812950D01*
X136104Y812842D01*
X136134Y812732D01*
X136159Y812622D01*
X136181Y812511D01*
X136198Y812399D01*
X136212Y812286D01*
X136222Y812173D01*
X136228Y812060D01*
X136230Y811947D01*
X136228Y811834D01*
X136222Y811721D01*
X136212Y811608D01*
X136198Y811495D01*
X136181Y811383D01*
X136159Y811272D01*
X136134Y811162D01*
X136104Y811052D01*
X136071Y810944D01*
X136034Y810837D01*
X135994Y810731D01*
X135949Y810627D01*
X135901Y810524D01*
X135850Y810423D01*
X135795Y810324D01*
X135737Y810227D01*
X135675Y810132D01*
X135610Y810039D01*
X135542Y809949D01*
X135471Y809861D01*
X135396Y809775D01*
X135319Y809692D01*
X135239Y809612D01*
X135156Y809535D01*
X135070Y809460D01*
X134982Y809389D01*
X134892Y809321D01*
X134799Y809256D01*
X134704Y809194D01*
X134607Y809136D01*
X134508Y809081D01*
X134407Y809030D01*
X134304Y808982D01*
X134200Y808937D01*
X134094Y808897D01*
X133987Y808860D01*
X133879Y808827D01*
X133769Y808797D01*
X133659Y808772D01*
X133548Y808750D01*
X133436Y808733D01*
X133323Y808719D01*
X133210Y808709D01*
X133097Y808703D01*
X132984Y808701D01*
X133633Y813894D02*
X136230Y816491D01*
X127142Y819845D02*
X124546Y823091D01*
X136230Y823091D01*
X136230Y826336D02*
X136230Y819845D01*
D13*
X498218Y512011D02*
X511218Y512011D01*
X498218Y512011D02*
X494218Y512011D01*
X494218Y524511D02*
X498218Y524511D01*
X511218Y524511D01*
X498218Y524511D02*
X498218Y512011D01*
D11*
X521130Y513853D02*
X521130Y523124D01*
X523705Y523124D01*
X523804Y523122D01*
X523902Y523116D01*
X524000Y523107D01*
X524098Y523094D01*
X524195Y523077D01*
X524292Y523056D01*
X524387Y523032D01*
X524482Y523004D01*
X524575Y522972D01*
X524668Y522937D01*
X524758Y522899D01*
X524848Y522857D01*
X524935Y522811D01*
X525021Y522762D01*
X525105Y522710D01*
X525186Y522655D01*
X525266Y522597D01*
X525343Y522536D01*
X525418Y522471D01*
X525491Y522404D01*
X525560Y522335D01*
X525627Y522262D01*
X525692Y522187D01*
X525753Y522110D01*
X525811Y522030D01*
X525866Y521949D01*
X525918Y521865D01*
X525967Y521779D01*
X526013Y521692D01*
X526055Y521602D01*
X526093Y521512D01*
X526128Y521419D01*
X526160Y521326D01*
X526188Y521231D01*
X526212Y521136D01*
X526233Y521039D01*
X526250Y520942D01*
X526263Y520844D01*
X526272Y520746D01*
X526278Y520648D01*
X526280Y520549D01*
X526281Y520549D02*
X526281Y516428D01*
X526280Y516428D02*
X526278Y516329D01*
X526272Y516231D01*
X526263Y516133D01*
X526250Y516035D01*
X526233Y515938D01*
X526212Y515841D01*
X526188Y515746D01*
X526160Y515651D01*
X526128Y515558D01*
X526093Y515465D01*
X526055Y515375D01*
X526013Y515285D01*
X525967Y515198D01*
X525918Y515112D01*
X525866Y515028D01*
X525811Y514947D01*
X525753Y514867D01*
X525692Y514790D01*
X525627Y514715D01*
X525560Y514642D01*
X525491Y514573D01*
X525418Y514506D01*
X525343Y514441D01*
X525266Y514380D01*
X525186Y514322D01*
X525105Y514267D01*
X525021Y514215D01*
X524935Y514166D01*
X524848Y514120D01*
X524758Y514078D01*
X524668Y514040D01*
X524575Y514005D01*
X524482Y513973D01*
X524387Y513945D01*
X524292Y513921D01*
X524195Y513900D01*
X524098Y513883D01*
X524000Y513870D01*
X523902Y513861D01*
X523804Y513855D01*
X523705Y513853D01*
X521130Y513853D01*
X530461Y521064D02*
X533036Y523124D01*
X533036Y513853D01*
X530461Y513853D02*
X535611Y513853D01*
D19*
X503767Y528014D02*
X503767Y542014D01*
X511767Y542014D01*
X511767Y528014D01*
X503767Y528014D01*
D11*
X501499Y550561D02*
X510770Y550561D01*
X501499Y550561D02*
X501499Y553136D01*
X501501Y553235D01*
X501507Y553333D01*
X501516Y553431D01*
X501529Y553529D01*
X501546Y553626D01*
X501567Y553723D01*
X501591Y553818D01*
X501619Y553913D01*
X501651Y554006D01*
X501686Y554099D01*
X501724Y554189D01*
X501766Y554279D01*
X501812Y554366D01*
X501861Y554452D01*
X501913Y554536D01*
X501968Y554617D01*
X502026Y554697D01*
X502087Y554774D01*
X502152Y554849D01*
X502219Y554922D01*
X502288Y554991D01*
X502361Y555058D01*
X502436Y555123D01*
X502513Y555184D01*
X502593Y555242D01*
X502674Y555297D01*
X502758Y555349D01*
X502844Y555398D01*
X502931Y555444D01*
X503021Y555486D01*
X503111Y555524D01*
X503204Y555559D01*
X503297Y555591D01*
X503392Y555619D01*
X503487Y555643D01*
X503584Y555664D01*
X503681Y555681D01*
X503779Y555694D01*
X503877Y555703D01*
X503975Y555709D01*
X504074Y555711D01*
X508195Y555711D01*
X508294Y555709D01*
X508392Y555703D01*
X508490Y555694D01*
X508588Y555681D01*
X508685Y555664D01*
X508782Y555643D01*
X508877Y555619D01*
X508972Y555591D01*
X509065Y555559D01*
X509158Y555524D01*
X509248Y555486D01*
X509338Y555444D01*
X509425Y555398D01*
X509511Y555349D01*
X509595Y555297D01*
X509676Y555242D01*
X509756Y555184D01*
X509833Y555123D01*
X509908Y555058D01*
X509981Y554991D01*
X510050Y554922D01*
X510117Y554849D01*
X510182Y554774D01*
X510243Y554697D01*
X510301Y554617D01*
X510356Y554536D01*
X510408Y554452D01*
X510457Y554366D01*
X510503Y554279D01*
X510545Y554189D01*
X510583Y554099D01*
X510618Y554006D01*
X510650Y553913D01*
X510678Y553818D01*
X510702Y553723D01*
X510723Y553626D01*
X510740Y553529D01*
X510753Y553431D01*
X510762Y553333D01*
X510768Y553235D01*
X510770Y553136D01*
X510770Y550561D01*
X501499Y562724D02*
X501501Y562817D01*
X501507Y562911D01*
X501516Y563003D01*
X501529Y563096D01*
X501546Y563188D01*
X501566Y563279D01*
X501591Y563369D01*
X501618Y563458D01*
X501650Y563546D01*
X501684Y563633D01*
X501723Y563718D01*
X501765Y563801D01*
X501810Y563883D01*
X501858Y563963D01*
X501909Y564041D01*
X501964Y564117D01*
X502021Y564190D01*
X502082Y564261D01*
X502145Y564330D01*
X502211Y564396D01*
X502280Y564459D01*
X502351Y564520D01*
X502424Y564577D01*
X502500Y564632D01*
X502578Y564683D01*
X502658Y564731D01*
X502740Y564776D01*
X502823Y564818D01*
X502908Y564857D01*
X502995Y564891D01*
X503083Y564923D01*
X503172Y564950D01*
X503262Y564975D01*
X503353Y564995D01*
X503445Y565012D01*
X503538Y565025D01*
X503630Y565034D01*
X503724Y565040D01*
X503817Y565042D01*
X501499Y562724D02*
X501501Y562617D01*
X501507Y562510D01*
X501516Y562404D01*
X501530Y562297D01*
X501547Y562192D01*
X501568Y562087D01*
X501593Y561983D01*
X501621Y561880D01*
X501653Y561778D01*
X501689Y561677D01*
X501729Y561577D01*
X501772Y561479D01*
X501818Y561383D01*
X501868Y561288D01*
X501921Y561196D01*
X501978Y561105D01*
X502038Y561016D01*
X502100Y560929D01*
X502166Y560845D01*
X502235Y560763D01*
X502307Y560684D01*
X502382Y560608D01*
X502459Y560534D01*
X502539Y560463D01*
X502622Y560394D01*
X502707Y560329D01*
X502794Y560267D01*
X502883Y560208D01*
X502975Y560153D01*
X503068Y560100D01*
X503163Y560051D01*
X503260Y560006D01*
X503358Y559964D01*
X503458Y559926D01*
X503560Y559891D01*
X505619Y564270D02*
X505552Y564338D01*
X505482Y564403D01*
X505409Y564466D01*
X505334Y564526D01*
X505257Y564583D01*
X505178Y564637D01*
X505096Y564688D01*
X505013Y564736D01*
X504928Y564780D01*
X504841Y564821D01*
X504753Y564859D01*
X504664Y564894D01*
X504573Y564924D01*
X504481Y564952D01*
X504388Y564976D01*
X504294Y564996D01*
X504199Y565012D01*
X504104Y565025D01*
X504009Y565035D01*
X503913Y565040D01*
X503817Y565042D01*
X505619Y564269D02*
X510770Y559891D01*
X510770Y565042D01*
D19*
X487765Y542014D02*
X487765Y528014D01*
X487765Y542014D02*
X495765Y542014D01*
X495765Y528014D01*
X487765Y528014D01*
D11*
X485497Y550561D02*
X494768Y550561D01*
X485497Y550561D02*
X485497Y553136D01*
X485499Y553235D01*
X485505Y553333D01*
X485514Y553431D01*
X485527Y553529D01*
X485544Y553626D01*
X485565Y553723D01*
X485589Y553818D01*
X485617Y553913D01*
X485649Y554006D01*
X485684Y554099D01*
X485722Y554189D01*
X485764Y554279D01*
X485810Y554366D01*
X485859Y554452D01*
X485911Y554536D01*
X485966Y554617D01*
X486024Y554697D01*
X486085Y554774D01*
X486150Y554849D01*
X486217Y554922D01*
X486286Y554991D01*
X486359Y555058D01*
X486434Y555123D01*
X486511Y555184D01*
X486591Y555242D01*
X486672Y555297D01*
X486756Y555349D01*
X486842Y555398D01*
X486929Y555444D01*
X487019Y555486D01*
X487109Y555524D01*
X487202Y555559D01*
X487295Y555591D01*
X487390Y555619D01*
X487485Y555643D01*
X487582Y555664D01*
X487679Y555681D01*
X487777Y555694D01*
X487875Y555703D01*
X487973Y555709D01*
X488072Y555711D01*
X492193Y555711D01*
X492292Y555709D01*
X492390Y555703D01*
X492488Y555694D01*
X492586Y555681D01*
X492683Y555664D01*
X492780Y555643D01*
X492875Y555619D01*
X492970Y555591D01*
X493063Y555559D01*
X493156Y555524D01*
X493246Y555486D01*
X493336Y555444D01*
X493423Y555398D01*
X493509Y555349D01*
X493593Y555297D01*
X493674Y555242D01*
X493754Y555184D01*
X493831Y555123D01*
X493906Y555058D01*
X493979Y554991D01*
X494048Y554922D01*
X494115Y554849D01*
X494180Y554774D01*
X494241Y554697D01*
X494299Y554617D01*
X494354Y554536D01*
X494406Y554452D01*
X494455Y554366D01*
X494501Y554279D01*
X494543Y554189D01*
X494581Y554099D01*
X494616Y554006D01*
X494648Y553913D01*
X494676Y553818D01*
X494700Y553723D01*
X494721Y553626D01*
X494738Y553529D01*
X494751Y553431D01*
X494760Y553333D01*
X494766Y553235D01*
X494768Y553136D01*
X494768Y550561D01*
X494768Y559891D02*
X494768Y562467D01*
X494766Y562567D01*
X494760Y562667D01*
X494751Y562766D01*
X494737Y562865D01*
X494720Y562963D01*
X494699Y563061D01*
X494674Y563158D01*
X494645Y563253D01*
X494613Y563348D01*
X494577Y563441D01*
X494537Y563533D01*
X494494Y563623D01*
X494448Y563711D01*
X494398Y563798D01*
X494344Y563882D01*
X494288Y563964D01*
X494228Y564044D01*
X494166Y564122D01*
X494100Y564197D01*
X494031Y564270D01*
X493960Y564340D01*
X493886Y564407D01*
X493810Y564471D01*
X493731Y564532D01*
X493649Y564591D01*
X493566Y564645D01*
X493481Y564697D01*
X493393Y564745D01*
X493304Y564790D01*
X493213Y564831D01*
X493120Y564869D01*
X493027Y564903D01*
X492932Y564934D01*
X492835Y564961D01*
X492738Y564984D01*
X492640Y565003D01*
X492541Y565018D01*
X492442Y565030D01*
X492343Y565038D01*
X492243Y565042D01*
X492143Y565042D01*
X492043Y565038D01*
X491944Y565030D01*
X491845Y565018D01*
X491746Y565003D01*
X491648Y564984D01*
X491551Y564961D01*
X491454Y564934D01*
X491359Y564903D01*
X491266Y564869D01*
X491173Y564831D01*
X491082Y564790D01*
X490993Y564745D01*
X490906Y564697D01*
X490820Y564645D01*
X490737Y564591D01*
X490655Y564532D01*
X490576Y564471D01*
X490500Y564407D01*
X490426Y564340D01*
X490355Y564270D01*
X490286Y564197D01*
X490220Y564122D01*
X490158Y564044D01*
X490098Y563964D01*
X490042Y563882D01*
X489988Y563798D01*
X489938Y563711D01*
X489892Y563623D01*
X489849Y563533D01*
X489809Y563441D01*
X489773Y563348D01*
X489741Y563253D01*
X489712Y563158D01*
X489687Y563061D01*
X489666Y562963D01*
X489649Y562865D01*
X489635Y562766D01*
X489626Y562667D01*
X489620Y562567D01*
X489618Y562467D01*
X485497Y562982D02*
X485497Y559891D01*
X485497Y562982D02*
X485499Y563072D01*
X485505Y563162D01*
X485515Y563251D01*
X485528Y563340D01*
X485546Y563428D01*
X485567Y563515D01*
X485592Y563601D01*
X485621Y563687D01*
X485654Y563770D01*
X485690Y563853D01*
X485730Y563933D01*
X485773Y564012D01*
X485820Y564089D01*
X485870Y564164D01*
X485923Y564236D01*
X485979Y564306D01*
X486038Y564374D01*
X486100Y564439D01*
X486165Y564501D01*
X486233Y564560D01*
X486303Y564616D01*
X486375Y564669D01*
X486450Y564719D01*
X486527Y564766D01*
X486606Y564809D01*
X486686Y564849D01*
X486769Y564885D01*
X486852Y564918D01*
X486938Y564947D01*
X487024Y564972D01*
X487111Y564993D01*
X487199Y565011D01*
X487288Y565024D01*
X487377Y565034D01*
X487467Y565040D01*
X487557Y565042D01*
X487647Y565040D01*
X487737Y565034D01*
X487826Y565024D01*
X487915Y565011D01*
X488003Y564993D01*
X488090Y564972D01*
X488176Y564947D01*
X488262Y564918D01*
X488345Y564885D01*
X488428Y564849D01*
X488508Y564809D01*
X488587Y564766D01*
X488664Y564719D01*
X488739Y564669D01*
X488811Y564616D01*
X488881Y564560D01*
X488949Y564501D01*
X489014Y564439D01*
X489076Y564374D01*
X489135Y564306D01*
X489191Y564236D01*
X489244Y564164D01*
X489294Y564089D01*
X489341Y564012D01*
X489384Y563933D01*
X489424Y563853D01*
X489460Y563770D01*
X489493Y563687D01*
X489522Y563601D01*
X489547Y563515D01*
X489568Y563428D01*
X489586Y563340D01*
X489599Y563251D01*
X489609Y563162D01*
X489615Y563072D01*
X489617Y562982D01*
X489617Y560922D01*
D19*
X520956Y542023D02*
X520956Y528023D01*
X520956Y542023D02*
X528956Y542023D01*
X528956Y528023D01*
X520956Y528023D01*
D11*
X518688Y550570D02*
X527959Y550570D01*
X518688Y550570D02*
X518688Y553145D01*
X518690Y553244D01*
X518696Y553342D01*
X518705Y553440D01*
X518718Y553538D01*
X518735Y553635D01*
X518756Y553732D01*
X518780Y553827D01*
X518808Y553922D01*
X518840Y554015D01*
X518875Y554108D01*
X518913Y554198D01*
X518955Y554288D01*
X519001Y554375D01*
X519050Y554461D01*
X519102Y554545D01*
X519157Y554626D01*
X519215Y554706D01*
X519276Y554783D01*
X519341Y554858D01*
X519408Y554931D01*
X519477Y555000D01*
X519550Y555067D01*
X519625Y555132D01*
X519702Y555193D01*
X519782Y555251D01*
X519863Y555306D01*
X519947Y555358D01*
X520033Y555407D01*
X520120Y555453D01*
X520210Y555495D01*
X520300Y555533D01*
X520393Y555568D01*
X520486Y555600D01*
X520581Y555628D01*
X520676Y555652D01*
X520773Y555673D01*
X520870Y555690D01*
X520968Y555703D01*
X521066Y555712D01*
X521164Y555718D01*
X521263Y555720D01*
X525384Y555720D01*
X525483Y555718D01*
X525581Y555712D01*
X525679Y555703D01*
X525777Y555690D01*
X525874Y555673D01*
X525971Y555652D01*
X526066Y555628D01*
X526161Y555600D01*
X526254Y555568D01*
X526347Y555533D01*
X526437Y555495D01*
X526527Y555453D01*
X526614Y555407D01*
X526700Y555358D01*
X526784Y555306D01*
X526865Y555251D01*
X526945Y555193D01*
X527022Y555132D01*
X527097Y555067D01*
X527170Y555000D01*
X527239Y554931D01*
X527306Y554858D01*
X527371Y554783D01*
X527432Y554706D01*
X527490Y554626D01*
X527545Y554545D01*
X527597Y554461D01*
X527646Y554375D01*
X527692Y554288D01*
X527734Y554198D01*
X527772Y554108D01*
X527807Y554015D01*
X527839Y553922D01*
X527867Y553827D01*
X527891Y553732D01*
X527912Y553635D01*
X527929Y553538D01*
X527942Y553440D01*
X527951Y553342D01*
X527957Y553244D01*
X527959Y553145D01*
X527959Y550570D01*
X525899Y559900D02*
X518688Y561961D01*
X525899Y559900D02*
X525899Y565051D01*
X523839Y563506D02*
X527959Y563506D01*
D13*
X462465Y504190D02*
X462465Y486640D01*
X536465Y486640D02*
X536465Y504190D01*
X464265Y504190D02*
X462465Y504190D01*
X534665Y504190D02*
X536465Y504190D01*
X462465Y463890D02*
X462465Y461190D01*
X536465Y461190D02*
X536465Y463890D01*
X536465Y461190D02*
X462465Y461190D01*
D15*
X484965Y516690D02*
X484967Y516753D01*
X484973Y516815D01*
X484983Y516877D01*
X484996Y516939D01*
X485014Y516999D01*
X485035Y517058D01*
X485060Y517116D01*
X485089Y517172D01*
X485121Y517226D01*
X485156Y517278D01*
X485194Y517327D01*
X485236Y517375D01*
X485280Y517419D01*
X485328Y517461D01*
X485377Y517499D01*
X485429Y517534D01*
X485483Y517566D01*
X485539Y517595D01*
X485597Y517620D01*
X485656Y517641D01*
X485716Y517659D01*
X485778Y517672D01*
X485840Y517682D01*
X485902Y517688D01*
X485965Y517690D01*
X486028Y517688D01*
X486090Y517682D01*
X486152Y517672D01*
X486214Y517659D01*
X486274Y517641D01*
X486333Y517620D01*
X486391Y517595D01*
X486447Y517566D01*
X486501Y517534D01*
X486553Y517499D01*
X486602Y517461D01*
X486650Y517419D01*
X486694Y517375D01*
X486736Y517327D01*
X486774Y517278D01*
X486809Y517226D01*
X486841Y517172D01*
X486870Y517116D01*
X486895Y517058D01*
X486916Y516999D01*
X486934Y516939D01*
X486947Y516877D01*
X486957Y516815D01*
X486963Y516753D01*
X486965Y516690D01*
X486963Y516627D01*
X486957Y516565D01*
X486947Y516503D01*
X486934Y516441D01*
X486916Y516381D01*
X486895Y516322D01*
X486870Y516264D01*
X486841Y516208D01*
X486809Y516154D01*
X486774Y516102D01*
X486736Y516053D01*
X486694Y516005D01*
X486650Y515961D01*
X486602Y515919D01*
X486553Y515881D01*
X486501Y515846D01*
X486447Y515814D01*
X486391Y515785D01*
X486333Y515760D01*
X486274Y515739D01*
X486214Y515721D01*
X486152Y515708D01*
X486090Y515698D01*
X486028Y515692D01*
X485965Y515690D01*
X485902Y515692D01*
X485840Y515698D01*
X485778Y515708D01*
X485716Y515721D01*
X485656Y515739D01*
X485597Y515760D01*
X485539Y515785D01*
X485483Y515814D01*
X485429Y515846D01*
X485377Y515881D01*
X485328Y515919D01*
X485280Y515961D01*
X485236Y516005D01*
X485194Y516053D01*
X485156Y516102D01*
X485121Y516154D01*
X485089Y516208D01*
X485060Y516264D01*
X485035Y516322D01*
X485014Y516381D01*
X484996Y516441D01*
X484983Y516503D01*
X484973Y516565D01*
X484967Y516627D01*
X484965Y516690D01*
D14*
X547249Y475906D02*
X547249Y466809D01*
X547247Y466709D01*
X547241Y466610D01*
X547232Y466511D01*
X547219Y466412D01*
X547201Y466314D01*
X547181Y466217D01*
X547156Y466120D01*
X547128Y466025D01*
X547096Y465930D01*
X547061Y465837D01*
X547022Y465746D01*
X546979Y465656D01*
X546933Y465567D01*
X546884Y465481D01*
X546832Y465396D01*
X546776Y465314D01*
X546717Y465233D01*
X546655Y465155D01*
X546590Y465080D01*
X546523Y465007D01*
X546452Y464936D01*
X546379Y464869D01*
X546304Y464804D01*
X546226Y464742D01*
X546145Y464683D01*
X546063Y464627D01*
X545978Y464575D01*
X545892Y464526D01*
X545803Y464480D01*
X545713Y464437D01*
X545622Y464398D01*
X545529Y464363D01*
X545434Y464331D01*
X545339Y464303D01*
X545242Y464278D01*
X545145Y464258D01*
X545047Y464240D01*
X544948Y464227D01*
X544849Y464218D01*
X544750Y464212D01*
X544650Y464210D01*
X544650Y464209D02*
X543350Y464209D01*
X552527Y473306D02*
X555776Y475906D01*
X555776Y464209D01*
X552527Y464209D02*
X559025Y464209D01*
D13*
X479236Y647640D02*
X479236Y658940D01*
X519036Y658940D01*
X519036Y647640D01*
X479236Y582840D02*
X479236Y571540D01*
X519036Y571540D01*
X519036Y582840D01*
D15*
X458136Y644240D02*
X458138Y644303D01*
X458144Y644365D01*
X458154Y644427D01*
X458167Y644489D01*
X458185Y644549D01*
X458206Y644608D01*
X458231Y644666D01*
X458260Y644722D01*
X458292Y644776D01*
X458327Y644828D01*
X458365Y644877D01*
X458407Y644925D01*
X458451Y644969D01*
X458499Y645011D01*
X458548Y645049D01*
X458600Y645084D01*
X458654Y645116D01*
X458710Y645145D01*
X458768Y645170D01*
X458827Y645191D01*
X458887Y645209D01*
X458949Y645222D01*
X459011Y645232D01*
X459073Y645238D01*
X459136Y645240D01*
X459199Y645238D01*
X459261Y645232D01*
X459323Y645222D01*
X459385Y645209D01*
X459445Y645191D01*
X459504Y645170D01*
X459562Y645145D01*
X459618Y645116D01*
X459672Y645084D01*
X459724Y645049D01*
X459773Y645011D01*
X459821Y644969D01*
X459865Y644925D01*
X459907Y644877D01*
X459945Y644828D01*
X459980Y644776D01*
X460012Y644722D01*
X460041Y644666D01*
X460066Y644608D01*
X460087Y644549D01*
X460105Y644489D01*
X460118Y644427D01*
X460128Y644365D01*
X460134Y644303D01*
X460136Y644240D01*
X460134Y644177D01*
X460128Y644115D01*
X460118Y644053D01*
X460105Y643991D01*
X460087Y643931D01*
X460066Y643872D01*
X460041Y643814D01*
X460012Y643758D01*
X459980Y643704D01*
X459945Y643652D01*
X459907Y643603D01*
X459865Y643555D01*
X459821Y643511D01*
X459773Y643469D01*
X459724Y643431D01*
X459672Y643396D01*
X459618Y643364D01*
X459562Y643335D01*
X459504Y643310D01*
X459445Y643289D01*
X459385Y643271D01*
X459323Y643258D01*
X459261Y643248D01*
X459199Y643242D01*
X459136Y643240D01*
X459073Y643242D01*
X459011Y643248D01*
X458949Y643258D01*
X458887Y643271D01*
X458827Y643289D01*
X458768Y643310D01*
X458710Y643335D01*
X458654Y643364D01*
X458600Y643396D01*
X458548Y643431D01*
X458499Y643469D01*
X458451Y643511D01*
X458407Y643555D01*
X458365Y643603D01*
X458327Y643652D01*
X458292Y643704D01*
X458260Y643758D01*
X458231Y643814D01*
X458206Y643872D01*
X458185Y643931D01*
X458167Y643991D01*
X458154Y644053D01*
X458144Y644115D01*
X458138Y644177D01*
X458136Y644240D01*
D11*
X461274Y579553D02*
X461274Y574233D01*
X461275Y574233D02*
X461277Y574144D01*
X461283Y574055D01*
X461293Y573966D01*
X461306Y573878D01*
X461323Y573790D01*
X461345Y573703D01*
X461370Y573618D01*
X461398Y573533D01*
X461431Y573450D01*
X461467Y573368D01*
X461506Y573288D01*
X461549Y573210D01*
X461595Y573134D01*
X461645Y573059D01*
X461698Y572987D01*
X461754Y572918D01*
X461813Y572851D01*
X461874Y572786D01*
X461939Y572725D01*
X462006Y572666D01*
X462075Y572610D01*
X462147Y572557D01*
X462222Y572507D01*
X462298Y572461D01*
X462376Y572418D01*
X462456Y572379D01*
X462538Y572343D01*
X462621Y572310D01*
X462706Y572282D01*
X462791Y572257D01*
X462878Y572235D01*
X462966Y572218D01*
X463054Y572205D01*
X463143Y572195D01*
X463232Y572189D01*
X463321Y572187D01*
X463410Y572189D01*
X463499Y572195D01*
X463588Y572205D01*
X463676Y572218D01*
X463764Y572235D01*
X463851Y572257D01*
X463936Y572282D01*
X464021Y572310D01*
X464104Y572343D01*
X464186Y572379D01*
X464266Y572418D01*
X464344Y572461D01*
X464420Y572507D01*
X464495Y572557D01*
X464567Y572610D01*
X464636Y572666D01*
X464703Y572725D01*
X464768Y572786D01*
X464829Y572851D01*
X464888Y572918D01*
X464944Y572987D01*
X464997Y573059D01*
X465047Y573134D01*
X465093Y573210D01*
X465136Y573288D01*
X465175Y573368D01*
X465211Y573450D01*
X465244Y573533D01*
X465272Y573618D01*
X465297Y573703D01*
X465319Y573790D01*
X465336Y573878D01*
X465349Y573966D01*
X465359Y574055D01*
X465365Y574144D01*
X465367Y574233D01*
X465367Y579553D01*
X468834Y577916D02*
X470881Y579553D01*
X470881Y572186D01*
X472927Y572186D02*
X468834Y572186D01*
D19*
X551420Y697865D02*
X551425Y698233D01*
X551438Y698601D01*
X551461Y698968D01*
X551492Y699335D01*
X551533Y699701D01*
X551582Y700066D01*
X551641Y700429D01*
X551708Y700791D01*
X551784Y701152D01*
X551870Y701510D01*
X551963Y701866D01*
X552066Y702219D01*
X552177Y702570D01*
X552297Y702918D01*
X552425Y703263D01*
X552562Y703605D01*
X552707Y703944D01*
X552860Y704278D01*
X553022Y704609D01*
X553191Y704936D01*
X553369Y705258D01*
X553554Y705577D01*
X553747Y705890D01*
X553948Y706199D01*
X554156Y706502D01*
X554372Y706800D01*
X554595Y707093D01*
X554825Y707381D01*
X555062Y707663D01*
X555306Y707938D01*
X555556Y708208D01*
X555813Y708472D01*
X556077Y708729D01*
X556347Y708979D01*
X556622Y709223D01*
X556904Y709460D01*
X557192Y709690D01*
X557485Y709913D01*
X557783Y710129D01*
X558086Y710337D01*
X558395Y710538D01*
X558708Y710731D01*
X559027Y710916D01*
X559349Y711094D01*
X559676Y711263D01*
X560007Y711425D01*
X560341Y711578D01*
X560680Y711723D01*
X561022Y711860D01*
X561367Y711988D01*
X561715Y712108D01*
X562066Y712219D01*
X562419Y712322D01*
X562775Y712415D01*
X563133Y712501D01*
X563494Y712577D01*
X563856Y712644D01*
X564219Y712703D01*
X564584Y712752D01*
X564950Y712793D01*
X565317Y712824D01*
X565684Y712847D01*
X566052Y712860D01*
X566420Y712865D01*
X566788Y712860D01*
X567156Y712847D01*
X567523Y712824D01*
X567890Y712793D01*
X568256Y712752D01*
X568621Y712703D01*
X568984Y712644D01*
X569346Y712577D01*
X569707Y712501D01*
X570065Y712415D01*
X570421Y712322D01*
X570774Y712219D01*
X571125Y712108D01*
X571473Y711988D01*
X571818Y711860D01*
X572160Y711723D01*
X572499Y711578D01*
X572833Y711425D01*
X573164Y711263D01*
X573491Y711094D01*
X573813Y710916D01*
X574132Y710731D01*
X574445Y710538D01*
X574754Y710337D01*
X575057Y710129D01*
X575355Y709913D01*
X575648Y709690D01*
X575936Y709460D01*
X576218Y709223D01*
X576493Y708979D01*
X576763Y708729D01*
X577027Y708472D01*
X577284Y708208D01*
X577534Y707938D01*
X577778Y707663D01*
X578015Y707381D01*
X578245Y707093D01*
X578468Y706800D01*
X578684Y706502D01*
X578892Y706199D01*
X579093Y705890D01*
X579286Y705577D01*
X579471Y705258D01*
X579649Y704936D01*
X579818Y704609D01*
X579980Y704278D01*
X580133Y703944D01*
X580278Y703605D01*
X580415Y703263D01*
X580543Y702918D01*
X580663Y702570D01*
X580774Y702219D01*
X580877Y701866D01*
X580970Y701510D01*
X581056Y701152D01*
X581132Y700791D01*
X581199Y700429D01*
X581258Y700066D01*
X581307Y699701D01*
X581348Y699335D01*
X581379Y698968D01*
X581402Y698601D01*
X581415Y698233D01*
X581420Y697865D01*
X581415Y697497D01*
X581402Y697129D01*
X581379Y696762D01*
X581348Y696395D01*
X581307Y696029D01*
X581258Y695664D01*
X581199Y695301D01*
X581132Y694939D01*
X581056Y694578D01*
X580970Y694220D01*
X580877Y693864D01*
X580774Y693511D01*
X580663Y693160D01*
X580543Y692812D01*
X580415Y692467D01*
X580278Y692125D01*
X580133Y691786D01*
X579980Y691452D01*
X579818Y691121D01*
X579649Y690794D01*
X579471Y690472D01*
X579286Y690153D01*
X579093Y689840D01*
X578892Y689531D01*
X578684Y689228D01*
X578468Y688930D01*
X578245Y688637D01*
X578015Y688349D01*
X577778Y688067D01*
X577534Y687792D01*
X577284Y687522D01*
X577027Y687258D01*
X576763Y687001D01*
X576493Y686751D01*
X576218Y686507D01*
X575936Y686270D01*
X575648Y686040D01*
X575355Y685817D01*
X575057Y685601D01*
X574754Y685393D01*
X574445Y685192D01*
X574132Y684999D01*
X573813Y684814D01*
X573491Y684636D01*
X573164Y684467D01*
X572833Y684305D01*
X572499Y684152D01*
X572160Y684007D01*
X571818Y683870D01*
X571473Y683742D01*
X571125Y683622D01*
X570774Y683511D01*
X570421Y683408D01*
X570065Y683315D01*
X569707Y683229D01*
X569346Y683153D01*
X568984Y683086D01*
X568621Y683027D01*
X568256Y682978D01*
X567890Y682937D01*
X567523Y682906D01*
X567156Y682883D01*
X566788Y682870D01*
X566420Y682865D01*
X566052Y682870D01*
X565684Y682883D01*
X565317Y682906D01*
X564950Y682937D01*
X564584Y682978D01*
X564219Y683027D01*
X563856Y683086D01*
X563494Y683153D01*
X563133Y683229D01*
X562775Y683315D01*
X562419Y683408D01*
X562066Y683511D01*
X561715Y683622D01*
X561367Y683742D01*
X561022Y683870D01*
X560680Y684007D01*
X560341Y684152D01*
X560007Y684305D01*
X559676Y684467D01*
X559349Y684636D01*
X559027Y684814D01*
X558708Y684999D01*
X558395Y685192D01*
X558086Y685393D01*
X557783Y685601D01*
X557485Y685817D01*
X557192Y686040D01*
X556904Y686270D01*
X556622Y686507D01*
X556347Y686751D01*
X556077Y687001D01*
X555813Y687258D01*
X555556Y687522D01*
X555306Y687792D01*
X555062Y688067D01*
X554825Y688349D01*
X554595Y688637D01*
X554372Y688930D01*
X554156Y689228D01*
X553948Y689531D01*
X553747Y689840D01*
X553554Y690153D01*
X553369Y690472D01*
X553191Y690794D01*
X553022Y691121D01*
X552860Y691452D01*
X552707Y691786D01*
X552562Y692125D01*
X552425Y692467D01*
X552297Y692812D01*
X552177Y693160D01*
X552066Y693511D01*
X551963Y693864D01*
X551870Y694220D01*
X551784Y694578D01*
X551708Y694939D01*
X551641Y695301D01*
X551582Y695664D01*
X551533Y696029D01*
X551492Y696395D01*
X551461Y696762D01*
X551438Y697129D01*
X551425Y697497D01*
X551420Y697865D01*
X554220Y671865D02*
X578620Y671865D01*
X578620Y723865D02*
X554220Y723865D01*
X540420Y710865D02*
X540420Y684865D01*
X592420Y684865D02*
X592420Y710865D01*
X549620Y675665D02*
X540420Y684865D01*
X540420Y710865D02*
X549620Y720065D01*
X592420Y684865D02*
X583220Y675665D01*
X592420Y710865D02*
X583220Y720065D01*
D14*
X599356Y730164D02*
X599455Y730162D01*
X599555Y730156D01*
X599654Y730147D01*
X599752Y730134D01*
X599850Y730117D01*
X599948Y730096D01*
X600044Y730071D01*
X600139Y730043D01*
X600233Y730011D01*
X600326Y729976D01*
X600418Y729937D01*
X600508Y729894D01*
X600596Y729849D01*
X600683Y729799D01*
X600767Y729747D01*
X600850Y729691D01*
X600930Y729633D01*
X601008Y729571D01*
X601083Y729506D01*
X601156Y729438D01*
X601226Y729368D01*
X601294Y729295D01*
X601359Y729220D01*
X601421Y729142D01*
X601479Y729062D01*
X601535Y728979D01*
X601587Y728895D01*
X601637Y728808D01*
X601682Y728720D01*
X601725Y728630D01*
X601764Y728538D01*
X601799Y728445D01*
X601831Y728351D01*
X601859Y728256D01*
X601884Y728160D01*
X601905Y728062D01*
X601922Y727964D01*
X601935Y727866D01*
X601944Y727767D01*
X601950Y727667D01*
X601952Y727568D01*
X601950Y727424D01*
X601944Y727279D01*
X601935Y727135D01*
X601922Y726992D01*
X601905Y726848D01*
X601884Y726705D01*
X601859Y726563D01*
X601831Y726422D01*
X601799Y726281D01*
X601763Y726141D01*
X601724Y726002D01*
X601681Y725864D01*
X601634Y725728D01*
X601584Y725592D01*
X601530Y725458D01*
X601473Y725326D01*
X601412Y725195D01*
X601348Y725066D01*
X601280Y724938D01*
X601210Y724812D01*
X601135Y724688D01*
X601058Y724567D01*
X600977Y724447D01*
X600894Y724329D01*
X600807Y724214D01*
X600717Y724101D01*
X600624Y723990D01*
X600529Y723882D01*
X600430Y723776D01*
X600329Y723673D01*
X592864Y723998D02*
X592765Y724000D01*
X592665Y724006D01*
X592566Y724015D01*
X592468Y724028D01*
X592370Y724045D01*
X592272Y724066D01*
X592176Y724091D01*
X592081Y724119D01*
X591987Y724151D01*
X591894Y724186D01*
X591802Y724225D01*
X591712Y724268D01*
X591624Y724313D01*
X591537Y724363D01*
X591453Y724415D01*
X591370Y724471D01*
X591290Y724529D01*
X591212Y724591D01*
X591137Y724656D01*
X591064Y724724D01*
X590994Y724794D01*
X590926Y724867D01*
X590861Y724942D01*
X590799Y725020D01*
X590741Y725100D01*
X590685Y725183D01*
X590633Y725267D01*
X590583Y725354D01*
X590538Y725442D01*
X590495Y725532D01*
X590456Y725624D01*
X590421Y725717D01*
X590389Y725811D01*
X590361Y725906D01*
X590336Y726002D01*
X590315Y726100D01*
X590298Y726198D01*
X590285Y726296D01*
X590276Y726395D01*
X590270Y726495D01*
X590268Y726594D01*
X590270Y726730D01*
X590276Y726866D01*
X590285Y727002D01*
X590298Y727138D01*
X590316Y727273D01*
X590336Y727407D01*
X590361Y727541D01*
X590389Y727675D01*
X590422Y727807D01*
X590457Y727938D01*
X590497Y728069D01*
X590540Y728198D01*
X590586Y728326D01*
X590637Y728452D01*
X590690Y728578D01*
X590748Y728701D01*
X590808Y728823D01*
X590872Y728943D01*
X590940Y729062D01*
X591010Y729178D01*
X591084Y729292D01*
X591161Y729405D01*
X591242Y729515D01*
X595136Y725296D02*
X595083Y725210D01*
X595026Y725126D01*
X594967Y725044D01*
X594904Y724964D01*
X594838Y724887D01*
X594770Y724812D01*
X594698Y724740D01*
X594624Y724671D01*
X594547Y724605D01*
X594468Y724542D01*
X594386Y724482D01*
X594302Y724425D01*
X594216Y724371D01*
X594128Y724321D01*
X594038Y724274D01*
X593947Y724230D01*
X593853Y724191D01*
X593759Y724154D01*
X593663Y724122D01*
X593565Y724093D01*
X593467Y724068D01*
X593368Y724047D01*
X593268Y724029D01*
X593168Y724016D01*
X593067Y724006D01*
X592965Y724000D01*
X592864Y723998D01*
X597084Y728866D02*
X597137Y728952D01*
X597194Y729036D01*
X597253Y729118D01*
X597316Y729198D01*
X597382Y729275D01*
X597450Y729350D01*
X597522Y729422D01*
X597596Y729491D01*
X597673Y729557D01*
X597752Y729620D01*
X597834Y729680D01*
X597918Y729737D01*
X598004Y729791D01*
X598092Y729841D01*
X598182Y729888D01*
X598273Y729932D01*
X598367Y729971D01*
X598461Y730008D01*
X598557Y730040D01*
X598655Y730069D01*
X598753Y730094D01*
X598852Y730115D01*
X598952Y730133D01*
X599052Y730146D01*
X599153Y730156D01*
X599255Y730162D01*
X599356Y730164D01*
X597084Y728866D02*
X595136Y725296D01*
X592864Y734722D02*
X590268Y737968D01*
X601952Y737968D01*
X601952Y741213D02*
X601952Y734722D01*
D19*
X551420Y789940D02*
X551425Y790308D01*
X551438Y790676D01*
X551461Y791043D01*
X551492Y791410D01*
X551533Y791776D01*
X551582Y792141D01*
X551641Y792504D01*
X551708Y792866D01*
X551784Y793227D01*
X551870Y793585D01*
X551963Y793941D01*
X552066Y794294D01*
X552177Y794645D01*
X552297Y794993D01*
X552425Y795338D01*
X552562Y795680D01*
X552707Y796019D01*
X552860Y796353D01*
X553022Y796684D01*
X553191Y797011D01*
X553369Y797333D01*
X553554Y797652D01*
X553747Y797965D01*
X553948Y798274D01*
X554156Y798577D01*
X554372Y798875D01*
X554595Y799168D01*
X554825Y799456D01*
X555062Y799738D01*
X555306Y800013D01*
X555556Y800283D01*
X555813Y800547D01*
X556077Y800804D01*
X556347Y801054D01*
X556622Y801298D01*
X556904Y801535D01*
X557192Y801765D01*
X557485Y801988D01*
X557783Y802204D01*
X558086Y802412D01*
X558395Y802613D01*
X558708Y802806D01*
X559027Y802991D01*
X559349Y803169D01*
X559676Y803338D01*
X560007Y803500D01*
X560341Y803653D01*
X560680Y803798D01*
X561022Y803935D01*
X561367Y804063D01*
X561715Y804183D01*
X562066Y804294D01*
X562419Y804397D01*
X562775Y804490D01*
X563133Y804576D01*
X563494Y804652D01*
X563856Y804719D01*
X564219Y804778D01*
X564584Y804827D01*
X564950Y804868D01*
X565317Y804899D01*
X565684Y804922D01*
X566052Y804935D01*
X566420Y804940D01*
X566788Y804935D01*
X567156Y804922D01*
X567523Y804899D01*
X567890Y804868D01*
X568256Y804827D01*
X568621Y804778D01*
X568984Y804719D01*
X569346Y804652D01*
X569707Y804576D01*
X570065Y804490D01*
X570421Y804397D01*
X570774Y804294D01*
X571125Y804183D01*
X571473Y804063D01*
X571818Y803935D01*
X572160Y803798D01*
X572499Y803653D01*
X572833Y803500D01*
X573164Y803338D01*
X573491Y803169D01*
X573813Y802991D01*
X574132Y802806D01*
X574445Y802613D01*
X574754Y802412D01*
X575057Y802204D01*
X575355Y801988D01*
X575648Y801765D01*
X575936Y801535D01*
X576218Y801298D01*
X576493Y801054D01*
X576763Y800804D01*
X577027Y800547D01*
X577284Y800283D01*
X577534Y800013D01*
X577778Y799738D01*
X578015Y799456D01*
X578245Y799168D01*
X578468Y798875D01*
X578684Y798577D01*
X578892Y798274D01*
X579093Y797965D01*
X579286Y797652D01*
X579471Y797333D01*
X579649Y797011D01*
X579818Y796684D01*
X579980Y796353D01*
X580133Y796019D01*
X580278Y795680D01*
X580415Y795338D01*
X580543Y794993D01*
X580663Y794645D01*
X580774Y794294D01*
X580877Y793941D01*
X580970Y793585D01*
X581056Y793227D01*
X581132Y792866D01*
X581199Y792504D01*
X581258Y792141D01*
X581307Y791776D01*
X581348Y791410D01*
X581379Y791043D01*
X581402Y790676D01*
X581415Y790308D01*
X581420Y789940D01*
X581415Y789572D01*
X581402Y789204D01*
X581379Y788837D01*
X581348Y788470D01*
X581307Y788104D01*
X581258Y787739D01*
X581199Y787376D01*
X581132Y787014D01*
X581056Y786653D01*
X580970Y786295D01*
X580877Y785939D01*
X580774Y785586D01*
X580663Y785235D01*
X580543Y784887D01*
X580415Y784542D01*
X580278Y784200D01*
X580133Y783861D01*
X579980Y783527D01*
X579818Y783196D01*
X579649Y782869D01*
X579471Y782547D01*
X579286Y782228D01*
X579093Y781915D01*
X578892Y781606D01*
X578684Y781303D01*
X578468Y781005D01*
X578245Y780712D01*
X578015Y780424D01*
X577778Y780142D01*
X577534Y779867D01*
X577284Y779597D01*
X577027Y779333D01*
X576763Y779076D01*
X576493Y778826D01*
X576218Y778582D01*
X575936Y778345D01*
X575648Y778115D01*
X575355Y777892D01*
X575057Y777676D01*
X574754Y777468D01*
X574445Y777267D01*
X574132Y777074D01*
X573813Y776889D01*
X573491Y776711D01*
X573164Y776542D01*
X572833Y776380D01*
X572499Y776227D01*
X572160Y776082D01*
X571818Y775945D01*
X571473Y775817D01*
X571125Y775697D01*
X570774Y775586D01*
X570421Y775483D01*
X570065Y775390D01*
X569707Y775304D01*
X569346Y775228D01*
X568984Y775161D01*
X568621Y775102D01*
X568256Y775053D01*
X567890Y775012D01*
X567523Y774981D01*
X567156Y774958D01*
X566788Y774945D01*
X566420Y774940D01*
X566052Y774945D01*
X565684Y774958D01*
X565317Y774981D01*
X564950Y775012D01*
X564584Y775053D01*
X564219Y775102D01*
X563856Y775161D01*
X563494Y775228D01*
X563133Y775304D01*
X562775Y775390D01*
X562419Y775483D01*
X562066Y775586D01*
X561715Y775697D01*
X561367Y775817D01*
X561022Y775945D01*
X560680Y776082D01*
X560341Y776227D01*
X560007Y776380D01*
X559676Y776542D01*
X559349Y776711D01*
X559027Y776889D01*
X558708Y777074D01*
X558395Y777267D01*
X558086Y777468D01*
X557783Y777676D01*
X557485Y777892D01*
X557192Y778115D01*
X556904Y778345D01*
X556622Y778582D01*
X556347Y778826D01*
X556077Y779076D01*
X555813Y779333D01*
X555556Y779597D01*
X555306Y779867D01*
X555062Y780142D01*
X554825Y780424D01*
X554595Y780712D01*
X554372Y781005D01*
X554156Y781303D01*
X553948Y781606D01*
X553747Y781915D01*
X553554Y782228D01*
X553369Y782547D01*
X553191Y782869D01*
X553022Y783196D01*
X552860Y783527D01*
X552707Y783861D01*
X552562Y784200D01*
X552425Y784542D01*
X552297Y784887D01*
X552177Y785235D01*
X552066Y785586D01*
X551963Y785939D01*
X551870Y786295D01*
X551784Y786653D01*
X551708Y787014D01*
X551641Y787376D01*
X551582Y787739D01*
X551533Y788104D01*
X551492Y788470D01*
X551461Y788837D01*
X551438Y789204D01*
X551425Y789572D01*
X551420Y789940D01*
X554220Y763940D02*
X578620Y763940D01*
X578620Y815940D02*
X554220Y815940D01*
X540420Y802940D02*
X540420Y776940D01*
X592420Y776940D02*
X592420Y802940D01*
X549620Y767740D02*
X540420Y776940D01*
X540420Y802940D02*
X549620Y812140D01*
X592420Y776940D02*
X583220Y767740D01*
X592420Y802940D02*
X583220Y812140D01*
D14*
X599356Y817159D02*
X599455Y817157D01*
X599555Y817151D01*
X599654Y817142D01*
X599752Y817129D01*
X599850Y817112D01*
X599948Y817091D01*
X600044Y817066D01*
X600139Y817038D01*
X600233Y817006D01*
X600326Y816971D01*
X600418Y816932D01*
X600508Y816889D01*
X600596Y816844D01*
X600683Y816794D01*
X600767Y816742D01*
X600850Y816686D01*
X600930Y816628D01*
X601008Y816566D01*
X601083Y816501D01*
X601156Y816433D01*
X601226Y816363D01*
X601294Y816290D01*
X601359Y816215D01*
X601421Y816137D01*
X601479Y816057D01*
X601535Y815974D01*
X601587Y815890D01*
X601637Y815803D01*
X601682Y815715D01*
X601725Y815625D01*
X601764Y815533D01*
X601799Y815440D01*
X601831Y815346D01*
X601859Y815251D01*
X601884Y815155D01*
X601905Y815057D01*
X601922Y814959D01*
X601935Y814861D01*
X601944Y814762D01*
X601950Y814662D01*
X601952Y814563D01*
X601950Y814419D01*
X601944Y814274D01*
X601935Y814130D01*
X601922Y813987D01*
X601905Y813843D01*
X601884Y813700D01*
X601859Y813558D01*
X601831Y813417D01*
X601799Y813276D01*
X601763Y813136D01*
X601724Y812997D01*
X601681Y812859D01*
X601634Y812723D01*
X601584Y812587D01*
X601530Y812453D01*
X601473Y812321D01*
X601412Y812190D01*
X601348Y812061D01*
X601280Y811933D01*
X601210Y811807D01*
X601135Y811683D01*
X601058Y811562D01*
X600977Y811442D01*
X600894Y811324D01*
X600807Y811209D01*
X600717Y811096D01*
X600624Y810985D01*
X600529Y810877D01*
X600430Y810771D01*
X600329Y810668D01*
X592864Y810993D02*
X592765Y810995D01*
X592665Y811001D01*
X592566Y811010D01*
X592468Y811023D01*
X592370Y811040D01*
X592272Y811061D01*
X592176Y811086D01*
X592081Y811114D01*
X591987Y811146D01*
X591894Y811181D01*
X591802Y811220D01*
X591712Y811263D01*
X591624Y811308D01*
X591537Y811358D01*
X591453Y811410D01*
X591370Y811466D01*
X591290Y811524D01*
X591212Y811586D01*
X591137Y811651D01*
X591064Y811719D01*
X590994Y811789D01*
X590926Y811862D01*
X590861Y811937D01*
X590799Y812015D01*
X590741Y812095D01*
X590685Y812178D01*
X590633Y812262D01*
X590583Y812349D01*
X590538Y812437D01*
X590495Y812527D01*
X590456Y812619D01*
X590421Y812712D01*
X590389Y812806D01*
X590361Y812901D01*
X590336Y812997D01*
X590315Y813095D01*
X590298Y813193D01*
X590285Y813291D01*
X590276Y813390D01*
X590270Y813490D01*
X590268Y813589D01*
X590270Y813725D01*
X590276Y813861D01*
X590285Y813997D01*
X590298Y814133D01*
X590316Y814268D01*
X590336Y814402D01*
X590361Y814536D01*
X590389Y814670D01*
X590422Y814802D01*
X590457Y814933D01*
X590497Y815064D01*
X590540Y815193D01*
X590586Y815321D01*
X590637Y815447D01*
X590690Y815573D01*
X590748Y815696D01*
X590808Y815818D01*
X590872Y815938D01*
X590940Y816057D01*
X591010Y816173D01*
X591084Y816287D01*
X591161Y816400D01*
X591242Y816510D01*
X595136Y812291D02*
X595083Y812205D01*
X595026Y812121D01*
X594967Y812039D01*
X594904Y811959D01*
X594838Y811882D01*
X594770Y811807D01*
X594698Y811735D01*
X594624Y811666D01*
X594547Y811600D01*
X594468Y811537D01*
X594386Y811477D01*
X594302Y811420D01*
X594216Y811366D01*
X594128Y811316D01*
X594038Y811269D01*
X593947Y811225D01*
X593853Y811186D01*
X593759Y811149D01*
X593663Y811117D01*
X593565Y811088D01*
X593467Y811063D01*
X593368Y811042D01*
X593268Y811024D01*
X593168Y811011D01*
X593067Y811001D01*
X592965Y810995D01*
X592864Y810993D01*
X597084Y815861D02*
X597137Y815947D01*
X597194Y816031D01*
X597253Y816113D01*
X597316Y816193D01*
X597382Y816270D01*
X597450Y816345D01*
X597522Y816417D01*
X597596Y816486D01*
X597673Y816552D01*
X597752Y816615D01*
X597834Y816675D01*
X597918Y816732D01*
X598004Y816786D01*
X598092Y816836D01*
X598182Y816883D01*
X598273Y816927D01*
X598367Y816966D01*
X598461Y817003D01*
X598557Y817035D01*
X598655Y817064D01*
X598753Y817089D01*
X598852Y817110D01*
X598952Y817128D01*
X599052Y817141D01*
X599153Y817151D01*
X599255Y817157D01*
X599356Y817159D01*
X597084Y815861D02*
X595136Y812291D01*
X590268Y825287D02*
X590270Y825394D01*
X590276Y825500D01*
X590286Y825606D01*
X590299Y825712D01*
X590317Y825818D01*
X590338Y825922D01*
X590363Y826026D01*
X590392Y826129D01*
X590424Y826230D01*
X590461Y826330D01*
X590501Y826429D01*
X590544Y826527D01*
X590591Y826623D01*
X590642Y826717D01*
X590696Y826809D01*
X590753Y826899D01*
X590813Y826987D01*
X590877Y827072D01*
X590944Y827155D01*
X591014Y827236D01*
X591086Y827314D01*
X591162Y827390D01*
X591240Y827462D01*
X591321Y827532D01*
X591404Y827599D01*
X591489Y827663D01*
X591577Y827723D01*
X591667Y827780D01*
X591759Y827834D01*
X591853Y827885D01*
X591949Y827932D01*
X592047Y827975D01*
X592146Y828015D01*
X592246Y828052D01*
X592347Y828084D01*
X592450Y828113D01*
X592554Y828138D01*
X592658Y828159D01*
X592764Y828177D01*
X592870Y828190D01*
X592976Y828200D01*
X593082Y828206D01*
X593189Y828208D01*
X590268Y825287D02*
X590270Y825166D01*
X590276Y825045D01*
X590286Y824925D01*
X590299Y824804D01*
X590317Y824685D01*
X590338Y824565D01*
X590363Y824447D01*
X590392Y824330D01*
X590425Y824213D01*
X590461Y824098D01*
X590502Y823984D01*
X590545Y823871D01*
X590593Y823759D01*
X590644Y823650D01*
X590699Y823542D01*
X590757Y823435D01*
X590818Y823331D01*
X590883Y823229D01*
X590951Y823129D01*
X591022Y823031D01*
X591096Y822935D01*
X591173Y822842D01*
X591254Y822752D01*
X591337Y822664D01*
X591423Y822579D01*
X591512Y822496D01*
X591603Y822417D01*
X591697Y822340D01*
X591793Y822267D01*
X591891Y822197D01*
X591992Y822130D01*
X592095Y822066D01*
X592200Y822006D01*
X592307Y821948D01*
X592415Y821895D01*
X592525Y821845D01*
X592637Y821799D01*
X592750Y821756D01*
X592865Y821717D01*
X595461Y827234D02*
X595383Y827313D01*
X595303Y827389D01*
X595220Y827462D01*
X595134Y827532D01*
X595047Y827599D01*
X594956Y827663D01*
X594864Y827723D01*
X594770Y827781D01*
X594673Y827835D01*
X594575Y827885D01*
X594475Y827932D01*
X594374Y827976D01*
X594271Y828016D01*
X594166Y828052D01*
X594061Y828084D01*
X593954Y828113D01*
X593847Y828138D01*
X593738Y828160D01*
X593629Y828177D01*
X593520Y828191D01*
X593410Y828200D01*
X593299Y828206D01*
X593189Y828208D01*
X595461Y827234D02*
X601952Y821717D01*
X601952Y828208D01*
D16*
X558050Y630010D02*
X544050Y630010D01*
X544050Y616010D01*
X558050Y616010D01*
X569050Y616010D02*
X583050Y616010D01*
X583050Y630010D01*
X569050Y630010D01*
D20*
X563550Y628510D03*
X563550Y617510D03*
D15*
X561050Y618010D02*
X561050Y628010D01*
X561550Y623010D02*
X565550Y623010D01*
D10*
X537007Y620597D02*
X537007Y616787D01*
X537007Y620597D02*
X538066Y620597D01*
X538130Y620595D01*
X538194Y620589D01*
X538257Y620580D01*
X538319Y620566D01*
X538381Y620549D01*
X538441Y620528D01*
X538500Y620504D01*
X538558Y620476D01*
X538613Y620444D01*
X538667Y620410D01*
X538718Y620372D01*
X538768Y620331D01*
X538814Y620287D01*
X538858Y620241D01*
X538899Y620191D01*
X538937Y620140D01*
X538971Y620086D01*
X539003Y620031D01*
X539031Y619973D01*
X539055Y619914D01*
X539076Y619854D01*
X539093Y619792D01*
X539107Y619730D01*
X539116Y619667D01*
X539122Y619603D01*
X539124Y619539D01*
X539124Y617845D01*
X539122Y617781D01*
X539116Y617717D01*
X539107Y617654D01*
X539093Y617592D01*
X539076Y617530D01*
X539055Y617470D01*
X539031Y617411D01*
X539003Y617353D01*
X538971Y617298D01*
X538937Y617244D01*
X538899Y617193D01*
X538858Y617143D01*
X538814Y617097D01*
X538768Y617053D01*
X538718Y617012D01*
X538667Y616974D01*
X538613Y616940D01*
X538558Y616908D01*
X538500Y616880D01*
X538441Y616856D01*
X538381Y616835D01*
X538319Y616818D01*
X538257Y616804D01*
X538194Y616795D01*
X538130Y616789D01*
X538066Y616787D01*
X537007Y616787D01*
X540787Y616787D02*
X542057Y616787D01*
X542112Y616789D01*
X542168Y616794D01*
X542222Y616803D01*
X542276Y616816D01*
X542329Y616832D01*
X542381Y616851D01*
X542432Y616874D01*
X542481Y616900D01*
X542528Y616930D01*
X542573Y616962D01*
X542615Y616997D01*
X542656Y617035D01*
X542694Y617076D01*
X542729Y617118D01*
X542761Y617163D01*
X542791Y617211D01*
X542817Y617259D01*
X542840Y617310D01*
X542859Y617362D01*
X542875Y617415D01*
X542888Y617469D01*
X542897Y617523D01*
X542902Y617579D01*
X542904Y617634D01*
X542904Y618057D01*
X542902Y618112D01*
X542897Y618168D01*
X542888Y618222D01*
X542875Y618276D01*
X542859Y618329D01*
X542840Y618381D01*
X542817Y618432D01*
X542791Y618481D01*
X542761Y618528D01*
X542729Y618573D01*
X542694Y618615D01*
X542656Y618656D01*
X542615Y618694D01*
X542573Y618729D01*
X542528Y618761D01*
X542481Y618791D01*
X542432Y618817D01*
X542381Y618840D01*
X542329Y618859D01*
X542276Y618875D01*
X542222Y618888D01*
X542168Y618897D01*
X542112Y618902D01*
X542057Y618904D01*
X540787Y618904D01*
X540787Y620597D01*
X542904Y620597D01*
D16*
X544050Y600502D02*
X558050Y600502D01*
X544050Y600502D02*
X544050Y586502D01*
X558050Y586502D01*
X569050Y586502D02*
X583050Y586502D01*
X583050Y600502D01*
X569050Y600502D01*
D20*
X563550Y599002D03*
X563550Y588002D03*
D15*
X561050Y588502D02*
X561050Y598502D01*
X561550Y593502D02*
X565550Y593502D01*
D10*
X537007Y591089D02*
X537007Y587279D01*
X537007Y591089D02*
X538066Y591089D01*
X538130Y591087D01*
X538194Y591081D01*
X538257Y591072D01*
X538319Y591058D01*
X538381Y591041D01*
X538441Y591020D01*
X538500Y590996D01*
X538558Y590968D01*
X538613Y590936D01*
X538667Y590902D01*
X538718Y590864D01*
X538768Y590823D01*
X538814Y590779D01*
X538858Y590733D01*
X538899Y590683D01*
X538937Y590632D01*
X538971Y590578D01*
X539003Y590523D01*
X539031Y590465D01*
X539055Y590406D01*
X539076Y590346D01*
X539093Y590284D01*
X539107Y590222D01*
X539116Y590159D01*
X539122Y590095D01*
X539124Y590031D01*
X539124Y588338D01*
X539122Y588274D01*
X539116Y588210D01*
X539107Y588147D01*
X539093Y588085D01*
X539076Y588023D01*
X539055Y587963D01*
X539031Y587904D01*
X539003Y587846D01*
X538971Y587791D01*
X538937Y587737D01*
X538899Y587686D01*
X538858Y587636D01*
X538814Y587590D01*
X538768Y587546D01*
X538718Y587505D01*
X538667Y587467D01*
X538613Y587433D01*
X538558Y587401D01*
X538500Y587373D01*
X538441Y587349D01*
X538381Y587328D01*
X538319Y587311D01*
X538257Y587297D01*
X538194Y587288D01*
X538130Y587282D01*
X538066Y587280D01*
X538066Y587279D02*
X537007Y587279D01*
X540787Y589396D02*
X542057Y589396D01*
X542112Y589394D01*
X542168Y589389D01*
X542222Y589380D01*
X542276Y589367D01*
X542329Y589351D01*
X542381Y589332D01*
X542432Y589309D01*
X542481Y589283D01*
X542528Y589253D01*
X542573Y589221D01*
X542615Y589186D01*
X542656Y589148D01*
X542694Y589107D01*
X542729Y589065D01*
X542761Y589020D01*
X542791Y588973D01*
X542817Y588924D01*
X542840Y588873D01*
X542859Y588821D01*
X542875Y588768D01*
X542888Y588714D01*
X542897Y588660D01*
X542902Y588604D01*
X542904Y588549D01*
X542904Y588338D01*
X542903Y588338D02*
X542901Y588274D01*
X542895Y588210D01*
X542886Y588147D01*
X542872Y588085D01*
X542855Y588023D01*
X542834Y587963D01*
X542810Y587904D01*
X542782Y587846D01*
X542750Y587791D01*
X542716Y587737D01*
X542678Y587686D01*
X542637Y587636D01*
X542593Y587590D01*
X542547Y587546D01*
X542497Y587505D01*
X542446Y587467D01*
X542392Y587433D01*
X542337Y587401D01*
X542279Y587373D01*
X542220Y587349D01*
X542160Y587328D01*
X542098Y587311D01*
X542036Y587297D01*
X541973Y587288D01*
X541909Y587282D01*
X541845Y587280D01*
X541781Y587282D01*
X541717Y587288D01*
X541654Y587297D01*
X541592Y587311D01*
X541530Y587328D01*
X541470Y587349D01*
X541411Y587373D01*
X541353Y587401D01*
X541298Y587433D01*
X541244Y587467D01*
X541193Y587505D01*
X541143Y587546D01*
X541097Y587590D01*
X541053Y587636D01*
X541012Y587686D01*
X540974Y587737D01*
X540940Y587791D01*
X540908Y587846D01*
X540880Y587904D01*
X540856Y587963D01*
X540835Y588023D01*
X540818Y588085D01*
X540804Y588147D01*
X540795Y588210D01*
X540789Y588274D01*
X540787Y588338D01*
X540787Y589396D01*
X540789Y589477D01*
X540795Y589557D01*
X540804Y589637D01*
X540818Y589716D01*
X540835Y589795D01*
X540856Y589873D01*
X540880Y589950D01*
X540908Y590025D01*
X540940Y590099D01*
X540975Y590172D01*
X541014Y590242D01*
X541056Y590311D01*
X541101Y590378D01*
X541149Y590443D01*
X541201Y590505D01*
X541255Y590564D01*
X541312Y590621D01*
X541371Y590675D01*
X541433Y590727D01*
X541498Y590775D01*
X541565Y590820D01*
X541633Y590862D01*
X541704Y590901D01*
X541777Y590936D01*
X541851Y590968D01*
X541926Y590996D01*
X542003Y591020D01*
X542081Y591041D01*
X542160Y591058D01*
X542239Y591072D01*
X542319Y591081D01*
X542399Y591087D01*
X542480Y591089D01*
D16*
X544204Y568542D02*
X558204Y568542D01*
X544204Y568542D02*
X544204Y554542D01*
X558204Y554542D01*
X569204Y554542D02*
X583204Y554542D01*
X583204Y568542D01*
X569204Y568542D01*
D20*
X563704Y567042D03*
X563704Y556042D03*
D15*
X561204Y556542D02*
X561204Y566542D01*
X561704Y561542D02*
X565704Y561542D01*
D10*
X537161Y559129D02*
X537161Y555319D01*
X537161Y559129D02*
X538220Y559129D01*
X538220Y559128D02*
X538284Y559126D01*
X538348Y559120D01*
X538411Y559111D01*
X538473Y559097D01*
X538535Y559080D01*
X538595Y559059D01*
X538654Y559035D01*
X538712Y559007D01*
X538767Y558975D01*
X538821Y558941D01*
X538872Y558903D01*
X538922Y558862D01*
X538968Y558818D01*
X539012Y558772D01*
X539053Y558722D01*
X539091Y558671D01*
X539125Y558617D01*
X539157Y558562D01*
X539185Y558504D01*
X539209Y558445D01*
X539230Y558385D01*
X539247Y558323D01*
X539261Y558261D01*
X539270Y558198D01*
X539276Y558134D01*
X539278Y558070D01*
X539278Y556377D01*
X539276Y556313D01*
X539270Y556249D01*
X539261Y556186D01*
X539247Y556124D01*
X539230Y556062D01*
X539209Y556002D01*
X539185Y555943D01*
X539157Y555885D01*
X539125Y555830D01*
X539091Y555776D01*
X539053Y555725D01*
X539012Y555675D01*
X538968Y555629D01*
X538922Y555585D01*
X538872Y555544D01*
X538821Y555506D01*
X538767Y555472D01*
X538712Y555440D01*
X538654Y555412D01*
X538595Y555388D01*
X538535Y555367D01*
X538473Y555350D01*
X538411Y555336D01*
X538348Y555327D01*
X538284Y555321D01*
X538220Y555319D01*
X537161Y555319D01*
X540941Y558705D02*
X540941Y559129D01*
X543057Y559129D01*
X541999Y555319D01*
M02*
