G04 EAGLE Gerber RS-274X export*
G75*
%MOMM*%
%FSLAX34Y34*%
%LPD*%
%INSilkscreen Top*%
%IPPOS*%
%AMOC8*
5,1,8,0,0,1.08239X$1,22.5*%
G01*
%ADD10C,0.127000*%
%ADD11C,0.101600*%
%ADD12C,0.076200*%
%ADD13C,0.200000*%
%ADD14C,0.100000*%
%ADD15C,0.203200*%
%ADD16C,0.254000*%
%ADD17C,0.152400*%
%ADD18R,1.100000X0.100000*%
%ADD19C,0.025400*%
%ADD20C,0.254000*%

G36*
X559055Y617009D02*
X559055Y617009D01*
X559055Y617010D01*
X559055Y629010D01*
X559051Y629015D01*
X559050Y629015D01*
X553050Y629015D01*
X553046Y629011D01*
X553046Y629010D01*
X553045Y629010D01*
X553045Y627010D01*
X553049Y627005D01*
X553050Y627005D01*
X553964Y626874D01*
X554826Y626543D01*
X555592Y626028D01*
X556224Y625356D01*
X556692Y624560D01*
X556970Y623680D01*
X557045Y622760D01*
X557042Y622740D01*
X557020Y622586D01*
X557014Y622546D01*
X556992Y622392D01*
X556986Y622352D01*
X556964Y622198D01*
X556958Y622158D01*
X556935Y622004D01*
X556930Y621964D01*
X556921Y621902D01*
X556608Y621093D01*
X556123Y620375D01*
X555491Y619782D01*
X554742Y619344D01*
X553915Y619084D01*
X553050Y619015D01*
X553045Y619010D01*
X553046Y619010D01*
X553045Y619010D01*
X553045Y617010D01*
X553050Y617005D01*
X559050Y617005D01*
X559055Y617009D01*
G37*
G36*
X559055Y587502D02*
X559055Y587502D01*
X559055Y599502D01*
X559051Y599507D01*
X559050Y599507D01*
X553050Y599507D01*
X553046Y599503D01*
X553046Y599502D01*
X553045Y599502D01*
X553045Y597502D01*
X553049Y597498D01*
X553050Y597497D01*
X553964Y597366D01*
X554826Y597035D01*
X555592Y596521D01*
X556224Y595849D01*
X556692Y595052D01*
X556970Y594172D01*
X557045Y593253D01*
X557042Y593232D01*
X557020Y593078D01*
X557014Y593038D01*
X556992Y592884D01*
X556986Y592844D01*
X556964Y592690D01*
X556958Y592651D01*
X556935Y592497D01*
X556935Y592496D01*
X556930Y592457D01*
X556921Y592395D01*
X556608Y591586D01*
X556123Y590867D01*
X555491Y590274D01*
X554742Y589836D01*
X553915Y589577D01*
X553050Y589507D01*
X553045Y589503D01*
X553046Y589502D01*
X553045Y589502D01*
X553045Y587502D01*
X553050Y587497D01*
X553050Y587498D01*
X553050Y587497D01*
X559050Y587497D01*
X559055Y587502D01*
G37*
G36*
X559209Y555541D02*
X559209Y555541D01*
X559209Y555542D01*
X559209Y567542D01*
X559205Y567547D01*
X559205Y567546D01*
X559204Y567547D01*
X553204Y567547D01*
X553199Y567542D01*
X553200Y567542D01*
X553199Y567542D01*
X553199Y565542D01*
X553203Y565537D01*
X554118Y565406D01*
X554979Y565074D01*
X555746Y564560D01*
X556378Y563888D01*
X556845Y563092D01*
X557124Y562212D01*
X557199Y561292D01*
X557196Y561271D01*
X557174Y561117D01*
X557168Y561077D01*
X557146Y560923D01*
X557140Y560884D01*
X557117Y560730D01*
X557112Y560690D01*
X557089Y560536D01*
X557083Y560496D01*
X557074Y560434D01*
X556762Y559625D01*
X556277Y558906D01*
X555645Y558313D01*
X554896Y557876D01*
X554069Y557616D01*
X553204Y557547D01*
X553199Y557542D01*
X553199Y555542D01*
X553204Y555537D01*
X559204Y555537D01*
X559209Y555541D01*
G37*
G36*
X574055Y617009D02*
X574055Y617009D01*
X574055Y617010D01*
X574055Y619010D01*
X574051Y619015D01*
X573137Y619146D01*
X572275Y619477D01*
X571509Y619992D01*
X570877Y620664D01*
X570409Y621460D01*
X570131Y622340D01*
X570055Y623260D01*
X570056Y623260D01*
X570072Y623374D01*
X570078Y623414D01*
X570084Y623454D01*
X570100Y623568D01*
X570106Y623608D01*
X570112Y623648D01*
X570128Y623762D01*
X570129Y623762D01*
X570134Y623802D01*
X570140Y623841D01*
X570157Y623956D01*
X570162Y623995D01*
X570168Y624035D01*
X570180Y624118D01*
X570493Y624927D01*
X570978Y625646D01*
X571610Y626239D01*
X572359Y626676D01*
X573186Y626936D01*
X574051Y627005D01*
X574055Y627010D01*
X574055Y629010D01*
X574051Y629015D01*
X574050Y629015D01*
X568050Y629015D01*
X568046Y629011D01*
X568046Y629010D01*
X568045Y629010D01*
X568045Y617010D01*
X568050Y617005D01*
X574050Y617005D01*
X574055Y617009D01*
G37*
G36*
X574055Y587502D02*
X574055Y587502D01*
X574055Y589502D01*
X574051Y589507D01*
X573137Y589638D01*
X572275Y589970D01*
X571509Y590484D01*
X570877Y591156D01*
X570409Y591952D01*
X570131Y592832D01*
X570055Y593752D01*
X570056Y593752D01*
X570072Y593867D01*
X570078Y593906D01*
X570084Y593946D01*
X570100Y594060D01*
X570106Y594100D01*
X570112Y594140D01*
X570128Y594254D01*
X570129Y594254D01*
X570134Y594294D01*
X570140Y594334D01*
X570157Y594448D01*
X570162Y594488D01*
X570168Y594527D01*
X570180Y594610D01*
X570493Y595419D01*
X570978Y596138D01*
X571610Y596731D01*
X572359Y597168D01*
X573186Y597428D01*
X574051Y597497D01*
X574055Y597502D01*
X574055Y599502D01*
X574051Y599507D01*
X574050Y599507D01*
X568050Y599507D01*
X568046Y599503D01*
X568046Y599502D01*
X568045Y599502D01*
X568045Y587502D01*
X568050Y587497D01*
X568050Y587498D01*
X568050Y587497D01*
X574050Y587497D01*
X574055Y587502D01*
G37*
G36*
X574209Y555541D02*
X574209Y555541D01*
X574209Y555542D01*
X574209Y557542D01*
X574205Y557546D01*
X574205Y557547D01*
X573291Y557678D01*
X572429Y558009D01*
X571663Y558523D01*
X571030Y559195D01*
X570563Y559992D01*
X570285Y560872D01*
X570209Y561791D01*
X570209Y561792D01*
X570226Y561906D01*
X570232Y561946D01*
X570237Y561985D01*
X570254Y562100D01*
X570260Y562139D01*
X570260Y562140D01*
X570266Y562179D01*
X570282Y562294D01*
X570288Y562333D01*
X570294Y562373D01*
X570310Y562487D01*
X570316Y562527D01*
X570322Y562567D01*
X570334Y562649D01*
X570647Y563458D01*
X571131Y564177D01*
X571764Y564770D01*
X572513Y565208D01*
X573340Y565467D01*
X574205Y565537D01*
X574209Y565541D01*
X574209Y565542D01*
X574209Y567542D01*
X574205Y567547D01*
X574205Y567546D01*
X574204Y567547D01*
X568204Y567547D01*
X568199Y567542D01*
X568200Y567542D01*
X568199Y567542D01*
X568199Y555542D01*
X568204Y555537D01*
X574204Y555537D01*
X574209Y555541D01*
G37*
D10*
X179775Y546175D02*
X64775Y546175D01*
X64775Y383475D01*
X179775Y383475D01*
X179775Y546175D01*
D11*
X98131Y469467D02*
X98131Y457783D01*
X98131Y469467D02*
X101377Y469467D01*
X101490Y469465D01*
X101603Y469459D01*
X101716Y469449D01*
X101829Y469435D01*
X101941Y469418D01*
X102052Y469396D01*
X102162Y469371D01*
X102272Y469341D01*
X102380Y469308D01*
X102487Y469271D01*
X102593Y469231D01*
X102697Y469186D01*
X102800Y469138D01*
X102901Y469087D01*
X103000Y469032D01*
X103097Y468974D01*
X103192Y468912D01*
X103285Y468847D01*
X103375Y468779D01*
X103463Y468708D01*
X103549Y468633D01*
X103632Y468556D01*
X103712Y468476D01*
X103789Y468393D01*
X103864Y468307D01*
X103935Y468219D01*
X104003Y468129D01*
X104068Y468036D01*
X104130Y467941D01*
X104188Y467844D01*
X104243Y467745D01*
X104294Y467644D01*
X104342Y467541D01*
X104387Y467437D01*
X104427Y467331D01*
X104464Y467224D01*
X104497Y467116D01*
X104527Y467006D01*
X104552Y466896D01*
X104574Y466785D01*
X104591Y466673D01*
X104605Y466560D01*
X104615Y466447D01*
X104621Y466334D01*
X104623Y466221D01*
X104621Y466108D01*
X104615Y465995D01*
X104605Y465882D01*
X104591Y465769D01*
X104574Y465657D01*
X104552Y465546D01*
X104527Y465436D01*
X104497Y465326D01*
X104464Y465218D01*
X104427Y465111D01*
X104387Y465005D01*
X104342Y464901D01*
X104294Y464798D01*
X104243Y464697D01*
X104188Y464598D01*
X104130Y464501D01*
X104068Y464406D01*
X104003Y464313D01*
X103935Y464223D01*
X103864Y464135D01*
X103789Y464049D01*
X103712Y463966D01*
X103632Y463886D01*
X103549Y463809D01*
X103463Y463734D01*
X103375Y463663D01*
X103285Y463595D01*
X103192Y463530D01*
X103097Y463468D01*
X103000Y463410D01*
X102901Y463355D01*
X102800Y463304D01*
X102697Y463256D01*
X102593Y463211D01*
X102487Y463171D01*
X102380Y463134D01*
X102272Y463101D01*
X102162Y463071D01*
X102052Y463046D01*
X101941Y463024D01*
X101829Y463007D01*
X101716Y462993D01*
X101603Y462983D01*
X101490Y462977D01*
X101377Y462975D01*
X101377Y462976D02*
X98131Y462976D01*
X108898Y462976D02*
X108898Y460379D01*
X108898Y462976D02*
X108900Y463077D01*
X108906Y463177D01*
X108916Y463277D01*
X108929Y463377D01*
X108947Y463476D01*
X108968Y463575D01*
X108993Y463672D01*
X109022Y463769D01*
X109055Y463864D01*
X109091Y463958D01*
X109131Y464050D01*
X109174Y464141D01*
X109221Y464230D01*
X109271Y464317D01*
X109325Y464403D01*
X109382Y464486D01*
X109442Y464566D01*
X109505Y464645D01*
X109572Y464721D01*
X109641Y464794D01*
X109713Y464864D01*
X109787Y464932D01*
X109864Y464997D01*
X109944Y465058D01*
X110026Y465117D01*
X110110Y465172D01*
X110196Y465224D01*
X110284Y465273D01*
X110374Y465318D01*
X110466Y465360D01*
X110559Y465398D01*
X110654Y465432D01*
X110749Y465463D01*
X110846Y465490D01*
X110944Y465513D01*
X111043Y465533D01*
X111143Y465548D01*
X111243Y465560D01*
X111343Y465568D01*
X111444Y465572D01*
X111544Y465572D01*
X111645Y465568D01*
X111745Y465560D01*
X111845Y465548D01*
X111945Y465533D01*
X112044Y465513D01*
X112142Y465490D01*
X112239Y465463D01*
X112334Y465432D01*
X112429Y465398D01*
X112522Y465360D01*
X112614Y465318D01*
X112704Y465273D01*
X112792Y465224D01*
X112878Y465172D01*
X112962Y465117D01*
X113044Y465058D01*
X113124Y464997D01*
X113201Y464932D01*
X113275Y464864D01*
X113347Y464794D01*
X113416Y464721D01*
X113483Y464645D01*
X113546Y464566D01*
X113606Y464486D01*
X113663Y464403D01*
X113717Y464317D01*
X113767Y464230D01*
X113814Y464141D01*
X113857Y464050D01*
X113897Y463958D01*
X113933Y463864D01*
X113966Y463769D01*
X113995Y463672D01*
X114020Y463575D01*
X114041Y463476D01*
X114059Y463377D01*
X114072Y463277D01*
X114082Y463177D01*
X114088Y463077D01*
X114090Y462976D01*
X114091Y462976D02*
X114091Y460379D01*
X114090Y460379D02*
X114088Y460278D01*
X114082Y460178D01*
X114072Y460078D01*
X114059Y459978D01*
X114041Y459879D01*
X114020Y459780D01*
X113995Y459683D01*
X113966Y459586D01*
X113933Y459491D01*
X113897Y459397D01*
X113857Y459305D01*
X113814Y459214D01*
X113767Y459125D01*
X113717Y459038D01*
X113663Y458952D01*
X113606Y458869D01*
X113546Y458789D01*
X113483Y458710D01*
X113416Y458634D01*
X113347Y458561D01*
X113275Y458491D01*
X113201Y458423D01*
X113124Y458358D01*
X113044Y458297D01*
X112962Y458238D01*
X112878Y458183D01*
X112792Y458131D01*
X112704Y458082D01*
X112614Y458037D01*
X112522Y457995D01*
X112429Y457957D01*
X112334Y457923D01*
X112239Y457892D01*
X112142Y457865D01*
X112044Y457842D01*
X111945Y457822D01*
X111845Y457807D01*
X111745Y457795D01*
X111645Y457787D01*
X111544Y457783D01*
X111444Y457783D01*
X111343Y457787D01*
X111243Y457795D01*
X111143Y457807D01*
X111043Y457822D01*
X110944Y457842D01*
X110846Y457865D01*
X110749Y457892D01*
X110654Y457923D01*
X110559Y457957D01*
X110466Y457995D01*
X110374Y458037D01*
X110284Y458082D01*
X110196Y458131D01*
X110110Y458183D01*
X110026Y458238D01*
X109944Y458297D01*
X109864Y458358D01*
X109787Y458423D01*
X109713Y458491D01*
X109641Y458561D01*
X109572Y458634D01*
X109505Y458710D01*
X109442Y458789D01*
X109382Y458869D01*
X109325Y458952D01*
X109271Y459038D01*
X109221Y459125D01*
X109174Y459214D01*
X109131Y459305D01*
X109091Y459397D01*
X109055Y459491D01*
X109022Y459586D01*
X108993Y459683D01*
X108968Y459780D01*
X108947Y459879D01*
X108929Y459978D01*
X108916Y460078D01*
X108906Y460178D01*
X108900Y460278D01*
X108898Y460379D01*
X118953Y459730D02*
X118953Y469467D01*
X118954Y459730D02*
X118956Y459643D01*
X118962Y459555D01*
X118972Y459469D01*
X118985Y459382D01*
X119003Y459297D01*
X119024Y459212D01*
X119049Y459128D01*
X119078Y459046D01*
X119111Y458965D01*
X119147Y458885D01*
X119186Y458807D01*
X119230Y458731D01*
X119276Y458657D01*
X119326Y458586D01*
X119379Y458516D01*
X119435Y458449D01*
X119494Y458385D01*
X119556Y458323D01*
X119620Y458264D01*
X119687Y458208D01*
X119757Y458155D01*
X119828Y458105D01*
X119902Y458059D01*
X119978Y458015D01*
X120056Y457976D01*
X120136Y457940D01*
X120217Y457907D01*
X120299Y457878D01*
X120383Y457853D01*
X120468Y457832D01*
X120553Y457814D01*
X120640Y457801D01*
X120726Y457791D01*
X120814Y457785D01*
X120901Y457783D01*
X124900Y460379D02*
X124900Y462976D01*
X124902Y463077D01*
X124908Y463177D01*
X124918Y463277D01*
X124931Y463377D01*
X124949Y463476D01*
X124970Y463575D01*
X124995Y463672D01*
X125024Y463769D01*
X125057Y463864D01*
X125093Y463958D01*
X125133Y464050D01*
X125176Y464141D01*
X125223Y464230D01*
X125273Y464317D01*
X125327Y464403D01*
X125384Y464486D01*
X125444Y464566D01*
X125507Y464645D01*
X125574Y464721D01*
X125643Y464794D01*
X125715Y464864D01*
X125789Y464932D01*
X125866Y464997D01*
X125946Y465058D01*
X126028Y465117D01*
X126112Y465172D01*
X126198Y465224D01*
X126286Y465273D01*
X126376Y465318D01*
X126468Y465360D01*
X126561Y465398D01*
X126656Y465432D01*
X126751Y465463D01*
X126848Y465490D01*
X126946Y465513D01*
X127045Y465533D01*
X127145Y465548D01*
X127245Y465560D01*
X127345Y465568D01*
X127446Y465572D01*
X127546Y465572D01*
X127647Y465568D01*
X127747Y465560D01*
X127847Y465548D01*
X127947Y465533D01*
X128046Y465513D01*
X128144Y465490D01*
X128241Y465463D01*
X128336Y465432D01*
X128431Y465398D01*
X128524Y465360D01*
X128616Y465318D01*
X128706Y465273D01*
X128794Y465224D01*
X128880Y465172D01*
X128964Y465117D01*
X129046Y465058D01*
X129126Y464997D01*
X129203Y464932D01*
X129277Y464864D01*
X129349Y464794D01*
X129418Y464721D01*
X129485Y464645D01*
X129548Y464566D01*
X129608Y464486D01*
X129665Y464403D01*
X129719Y464317D01*
X129769Y464230D01*
X129816Y464141D01*
X129859Y464050D01*
X129899Y463958D01*
X129935Y463864D01*
X129968Y463769D01*
X129997Y463672D01*
X130022Y463575D01*
X130043Y463476D01*
X130061Y463377D01*
X130074Y463277D01*
X130084Y463177D01*
X130090Y463077D01*
X130092Y462976D01*
X130093Y462976D02*
X130093Y460379D01*
X130092Y460379D02*
X130090Y460278D01*
X130084Y460178D01*
X130074Y460078D01*
X130061Y459978D01*
X130043Y459879D01*
X130022Y459780D01*
X129997Y459683D01*
X129968Y459586D01*
X129935Y459491D01*
X129899Y459397D01*
X129859Y459305D01*
X129816Y459214D01*
X129769Y459125D01*
X129719Y459038D01*
X129665Y458952D01*
X129608Y458869D01*
X129548Y458789D01*
X129485Y458710D01*
X129418Y458634D01*
X129349Y458561D01*
X129277Y458491D01*
X129203Y458423D01*
X129126Y458358D01*
X129046Y458297D01*
X128964Y458238D01*
X128880Y458183D01*
X128794Y458131D01*
X128706Y458082D01*
X128616Y458037D01*
X128524Y457995D01*
X128431Y457957D01*
X128336Y457923D01*
X128241Y457892D01*
X128144Y457865D01*
X128046Y457842D01*
X127947Y457822D01*
X127847Y457807D01*
X127747Y457795D01*
X127647Y457787D01*
X127546Y457783D01*
X127446Y457783D01*
X127345Y457787D01*
X127245Y457795D01*
X127145Y457807D01*
X127045Y457822D01*
X126946Y457842D01*
X126848Y457865D01*
X126751Y457892D01*
X126656Y457923D01*
X126561Y457957D01*
X126468Y457995D01*
X126376Y458037D01*
X126286Y458082D01*
X126198Y458131D01*
X126112Y458183D01*
X126028Y458238D01*
X125946Y458297D01*
X125866Y458358D01*
X125789Y458423D01*
X125715Y458491D01*
X125643Y458561D01*
X125574Y458634D01*
X125507Y458710D01*
X125444Y458789D01*
X125384Y458869D01*
X125327Y458952D01*
X125273Y459038D01*
X125223Y459125D01*
X125176Y459214D01*
X125133Y459305D01*
X125093Y459397D01*
X125057Y459491D01*
X125024Y459586D01*
X124995Y459683D01*
X124970Y459780D01*
X124949Y459879D01*
X124931Y459978D01*
X124918Y460078D01*
X124908Y460178D01*
X124902Y460278D01*
X124900Y460379D01*
X134955Y459730D02*
X134955Y469467D01*
X134956Y459730D02*
X134958Y459643D01*
X134964Y459555D01*
X134974Y459469D01*
X134987Y459382D01*
X135005Y459297D01*
X135026Y459212D01*
X135051Y459128D01*
X135080Y459046D01*
X135113Y458965D01*
X135149Y458885D01*
X135188Y458807D01*
X135232Y458731D01*
X135278Y458657D01*
X135328Y458586D01*
X135381Y458516D01*
X135437Y458449D01*
X135496Y458385D01*
X135558Y458323D01*
X135622Y458264D01*
X135689Y458208D01*
X135759Y458155D01*
X135830Y458105D01*
X135904Y458059D01*
X135980Y458015D01*
X136058Y457976D01*
X136138Y457940D01*
X136219Y457907D01*
X136301Y457878D01*
X136385Y457853D01*
X136470Y457832D01*
X136555Y457814D01*
X136642Y457801D01*
X136728Y457791D01*
X136816Y457785D01*
X136903Y457783D01*
X141283Y459730D02*
X141283Y465572D01*
X141283Y459730D02*
X141285Y459643D01*
X141291Y459555D01*
X141301Y459469D01*
X141314Y459382D01*
X141332Y459297D01*
X141353Y459212D01*
X141378Y459128D01*
X141407Y459046D01*
X141440Y458965D01*
X141476Y458885D01*
X141515Y458807D01*
X141559Y458731D01*
X141605Y458657D01*
X141655Y458586D01*
X141708Y458516D01*
X141764Y458449D01*
X141823Y458385D01*
X141885Y458323D01*
X141949Y458264D01*
X142016Y458208D01*
X142086Y458155D01*
X142157Y458105D01*
X142231Y458059D01*
X142307Y458015D01*
X142385Y457976D01*
X142465Y457940D01*
X142546Y457907D01*
X142628Y457878D01*
X142712Y457853D01*
X142797Y457832D01*
X142882Y457814D01*
X142969Y457801D01*
X143055Y457791D01*
X143143Y457785D01*
X143230Y457783D01*
X146476Y457783D01*
X146476Y465572D01*
X104622Y441329D02*
X104620Y441230D01*
X104614Y441130D01*
X104605Y441031D01*
X104592Y440933D01*
X104575Y440835D01*
X104554Y440737D01*
X104529Y440641D01*
X104501Y440546D01*
X104469Y440452D01*
X104434Y440359D01*
X104395Y440267D01*
X104352Y440177D01*
X104307Y440089D01*
X104257Y440002D01*
X104205Y439918D01*
X104149Y439835D01*
X104091Y439755D01*
X104029Y439677D01*
X103964Y439602D01*
X103896Y439529D01*
X103826Y439459D01*
X103753Y439391D01*
X103678Y439326D01*
X103600Y439264D01*
X103520Y439206D01*
X103437Y439150D01*
X103353Y439098D01*
X103266Y439048D01*
X103178Y439003D01*
X103088Y438960D01*
X102996Y438921D01*
X102903Y438886D01*
X102809Y438854D01*
X102714Y438826D01*
X102618Y438801D01*
X102520Y438780D01*
X102422Y438763D01*
X102324Y438750D01*
X102225Y438741D01*
X102125Y438735D01*
X102026Y438733D01*
X101882Y438735D01*
X101737Y438741D01*
X101593Y438750D01*
X101450Y438763D01*
X101306Y438780D01*
X101163Y438801D01*
X101021Y438826D01*
X100880Y438854D01*
X100739Y438886D01*
X100599Y438922D01*
X100460Y438961D01*
X100322Y439004D01*
X100186Y439051D01*
X100050Y439101D01*
X99916Y439155D01*
X99784Y439212D01*
X99653Y439273D01*
X99524Y439337D01*
X99396Y439405D01*
X99270Y439475D01*
X99146Y439550D01*
X99025Y439627D01*
X98905Y439708D01*
X98787Y439791D01*
X98672Y439878D01*
X98559Y439968D01*
X98448Y440061D01*
X98340Y440156D01*
X98234Y440255D01*
X98131Y440356D01*
X98456Y447821D02*
X98458Y447920D01*
X98464Y448020D01*
X98473Y448119D01*
X98486Y448217D01*
X98503Y448315D01*
X98524Y448413D01*
X98549Y448509D01*
X98577Y448604D01*
X98609Y448698D01*
X98644Y448791D01*
X98683Y448883D01*
X98726Y448973D01*
X98771Y449061D01*
X98821Y449148D01*
X98873Y449232D01*
X98929Y449315D01*
X98987Y449395D01*
X99049Y449473D01*
X99114Y449548D01*
X99182Y449621D01*
X99252Y449691D01*
X99325Y449759D01*
X99400Y449824D01*
X99478Y449886D01*
X99558Y449944D01*
X99641Y450000D01*
X99725Y450052D01*
X99812Y450102D01*
X99900Y450147D01*
X99990Y450190D01*
X100082Y450229D01*
X100175Y450264D01*
X100269Y450296D01*
X100364Y450324D01*
X100461Y450349D01*
X100558Y450370D01*
X100656Y450387D01*
X100754Y450400D01*
X100853Y450409D01*
X100953Y450415D01*
X101052Y450417D01*
X101188Y450415D01*
X101324Y450409D01*
X101460Y450400D01*
X101596Y450387D01*
X101731Y450369D01*
X101865Y450349D01*
X101999Y450324D01*
X102133Y450296D01*
X102265Y450263D01*
X102396Y450228D01*
X102527Y450188D01*
X102656Y450145D01*
X102784Y450099D01*
X102910Y450048D01*
X103036Y449995D01*
X103159Y449937D01*
X103281Y449877D01*
X103401Y449813D01*
X103520Y449745D01*
X103636Y449675D01*
X103750Y449601D01*
X103863Y449524D01*
X103973Y449443D01*
X99754Y445549D02*
X99668Y445602D01*
X99584Y445659D01*
X99502Y445718D01*
X99422Y445781D01*
X99345Y445847D01*
X99270Y445915D01*
X99198Y445987D01*
X99129Y446061D01*
X99063Y446138D01*
X99000Y446217D01*
X98940Y446299D01*
X98883Y446383D01*
X98829Y446469D01*
X98779Y446557D01*
X98732Y446647D01*
X98688Y446738D01*
X98649Y446832D01*
X98612Y446926D01*
X98580Y447022D01*
X98551Y447120D01*
X98526Y447218D01*
X98505Y447317D01*
X98487Y447417D01*
X98474Y447517D01*
X98464Y447618D01*
X98458Y447720D01*
X98456Y447821D01*
X103324Y443601D02*
X103410Y443548D01*
X103494Y443491D01*
X103576Y443432D01*
X103656Y443369D01*
X103733Y443303D01*
X103808Y443235D01*
X103880Y443163D01*
X103949Y443089D01*
X104015Y443012D01*
X104078Y442933D01*
X104138Y442851D01*
X104195Y442767D01*
X104249Y442681D01*
X104299Y442593D01*
X104346Y442503D01*
X104390Y442412D01*
X104429Y442318D01*
X104466Y442224D01*
X104498Y442128D01*
X104527Y442030D01*
X104552Y441932D01*
X104573Y441833D01*
X104591Y441733D01*
X104604Y441633D01*
X104614Y441532D01*
X104620Y441430D01*
X104622Y441329D01*
X103324Y443601D02*
X99754Y445549D01*
X109180Y449119D02*
X109180Y450417D01*
X115671Y450417D01*
X112426Y438733D01*
X123856Y438733D02*
X119961Y450417D01*
X127750Y450417D02*
X123856Y438733D01*
X132039Y441979D02*
X132041Y442092D01*
X132047Y442205D01*
X132057Y442318D01*
X132071Y442431D01*
X132088Y442543D01*
X132110Y442654D01*
X132135Y442764D01*
X132165Y442874D01*
X132198Y442982D01*
X132235Y443089D01*
X132275Y443195D01*
X132320Y443299D01*
X132368Y443402D01*
X132419Y443503D01*
X132474Y443602D01*
X132532Y443699D01*
X132594Y443794D01*
X132659Y443887D01*
X132727Y443977D01*
X132798Y444065D01*
X132873Y444151D01*
X132950Y444234D01*
X133030Y444314D01*
X133113Y444391D01*
X133199Y444466D01*
X133287Y444537D01*
X133377Y444605D01*
X133470Y444670D01*
X133565Y444732D01*
X133662Y444790D01*
X133761Y444845D01*
X133862Y444896D01*
X133965Y444944D01*
X134069Y444989D01*
X134175Y445029D01*
X134282Y445066D01*
X134390Y445099D01*
X134500Y445129D01*
X134610Y445154D01*
X134721Y445176D01*
X134833Y445193D01*
X134946Y445207D01*
X135059Y445217D01*
X135172Y445223D01*
X135285Y445225D01*
X135398Y445223D01*
X135511Y445217D01*
X135624Y445207D01*
X135737Y445193D01*
X135849Y445176D01*
X135960Y445154D01*
X136070Y445129D01*
X136180Y445099D01*
X136288Y445066D01*
X136395Y445029D01*
X136501Y444989D01*
X136605Y444944D01*
X136708Y444896D01*
X136809Y444845D01*
X136908Y444790D01*
X137005Y444732D01*
X137100Y444670D01*
X137193Y444605D01*
X137283Y444537D01*
X137371Y444466D01*
X137457Y444391D01*
X137540Y444314D01*
X137620Y444234D01*
X137697Y444151D01*
X137772Y444065D01*
X137843Y443977D01*
X137911Y443887D01*
X137976Y443794D01*
X138038Y443699D01*
X138096Y443602D01*
X138151Y443503D01*
X138202Y443402D01*
X138250Y443299D01*
X138295Y443195D01*
X138335Y443089D01*
X138372Y442982D01*
X138405Y442874D01*
X138435Y442764D01*
X138460Y442654D01*
X138482Y442543D01*
X138499Y442431D01*
X138513Y442318D01*
X138523Y442205D01*
X138529Y442092D01*
X138531Y441979D01*
X138529Y441866D01*
X138523Y441753D01*
X138513Y441640D01*
X138499Y441527D01*
X138482Y441415D01*
X138460Y441304D01*
X138435Y441194D01*
X138405Y441084D01*
X138372Y440976D01*
X138335Y440869D01*
X138295Y440763D01*
X138250Y440659D01*
X138202Y440556D01*
X138151Y440455D01*
X138096Y440356D01*
X138038Y440259D01*
X137976Y440164D01*
X137911Y440071D01*
X137843Y439981D01*
X137772Y439893D01*
X137697Y439807D01*
X137620Y439724D01*
X137540Y439644D01*
X137457Y439567D01*
X137371Y439492D01*
X137283Y439421D01*
X137193Y439353D01*
X137100Y439288D01*
X137005Y439226D01*
X136908Y439168D01*
X136809Y439113D01*
X136708Y439062D01*
X136605Y439014D01*
X136501Y438969D01*
X136395Y438929D01*
X136288Y438892D01*
X136180Y438859D01*
X136070Y438829D01*
X135960Y438804D01*
X135849Y438782D01*
X135737Y438765D01*
X135624Y438751D01*
X135511Y438741D01*
X135398Y438735D01*
X135285Y438733D01*
X135172Y438735D01*
X135059Y438741D01*
X134946Y438751D01*
X134833Y438765D01*
X134721Y438782D01*
X134610Y438804D01*
X134500Y438829D01*
X134390Y438859D01*
X134282Y438892D01*
X134175Y438929D01*
X134069Y438969D01*
X133965Y439014D01*
X133862Y439062D01*
X133761Y439113D01*
X133662Y439168D01*
X133565Y439226D01*
X133470Y439288D01*
X133377Y439353D01*
X133287Y439421D01*
X133199Y439492D01*
X133113Y439567D01*
X133030Y439644D01*
X132950Y439724D01*
X132873Y439807D01*
X132798Y439893D01*
X132727Y439981D01*
X132659Y440071D01*
X132594Y440164D01*
X132532Y440259D01*
X132474Y440356D01*
X132419Y440455D01*
X132368Y440556D01*
X132320Y440659D01*
X132275Y440763D01*
X132235Y440869D01*
X132198Y440976D01*
X132165Y441084D01*
X132135Y441194D01*
X132110Y441304D01*
X132088Y441415D01*
X132071Y441527D01*
X132057Y441640D01*
X132047Y441753D01*
X132041Y441866D01*
X132039Y441979D01*
X132689Y447821D02*
X132691Y447922D01*
X132697Y448022D01*
X132707Y448122D01*
X132720Y448222D01*
X132738Y448321D01*
X132759Y448420D01*
X132784Y448517D01*
X132813Y448614D01*
X132846Y448709D01*
X132882Y448803D01*
X132922Y448895D01*
X132965Y448986D01*
X133012Y449075D01*
X133062Y449162D01*
X133116Y449248D01*
X133173Y449331D01*
X133233Y449411D01*
X133296Y449490D01*
X133363Y449566D01*
X133432Y449639D01*
X133504Y449709D01*
X133578Y449777D01*
X133655Y449842D01*
X133735Y449903D01*
X133817Y449962D01*
X133901Y450017D01*
X133987Y450069D01*
X134075Y450118D01*
X134165Y450163D01*
X134257Y450205D01*
X134350Y450243D01*
X134445Y450277D01*
X134540Y450308D01*
X134637Y450335D01*
X134735Y450358D01*
X134834Y450378D01*
X134934Y450393D01*
X135034Y450405D01*
X135134Y450413D01*
X135235Y450417D01*
X135335Y450417D01*
X135436Y450413D01*
X135536Y450405D01*
X135636Y450393D01*
X135736Y450378D01*
X135835Y450358D01*
X135933Y450335D01*
X136030Y450308D01*
X136125Y450277D01*
X136220Y450243D01*
X136313Y450205D01*
X136405Y450163D01*
X136495Y450118D01*
X136583Y450069D01*
X136669Y450017D01*
X136753Y449962D01*
X136835Y449903D01*
X136915Y449842D01*
X136992Y449777D01*
X137066Y449709D01*
X137138Y449639D01*
X137207Y449566D01*
X137274Y449490D01*
X137337Y449411D01*
X137397Y449331D01*
X137454Y449248D01*
X137508Y449162D01*
X137558Y449075D01*
X137605Y448986D01*
X137648Y448895D01*
X137688Y448803D01*
X137724Y448709D01*
X137757Y448614D01*
X137786Y448517D01*
X137811Y448420D01*
X137832Y448321D01*
X137850Y448222D01*
X137863Y448122D01*
X137873Y448022D01*
X137879Y447922D01*
X137881Y447821D01*
X137879Y447720D01*
X137873Y447620D01*
X137863Y447520D01*
X137850Y447420D01*
X137832Y447321D01*
X137811Y447222D01*
X137786Y447125D01*
X137757Y447028D01*
X137724Y446933D01*
X137688Y446839D01*
X137648Y446747D01*
X137605Y446656D01*
X137558Y446567D01*
X137508Y446480D01*
X137454Y446394D01*
X137397Y446311D01*
X137337Y446231D01*
X137274Y446152D01*
X137207Y446076D01*
X137138Y446003D01*
X137066Y445933D01*
X136992Y445865D01*
X136915Y445800D01*
X136835Y445739D01*
X136753Y445680D01*
X136669Y445625D01*
X136583Y445573D01*
X136495Y445524D01*
X136405Y445479D01*
X136313Y445437D01*
X136220Y445399D01*
X136125Y445365D01*
X136030Y445334D01*
X135933Y445307D01*
X135835Y445284D01*
X135736Y445264D01*
X135636Y445249D01*
X135536Y445237D01*
X135436Y445229D01*
X135335Y445225D01*
X135235Y445225D01*
X135134Y445229D01*
X135034Y445237D01*
X134934Y445249D01*
X134834Y445264D01*
X134735Y445284D01*
X134637Y445307D01*
X134540Y445334D01*
X134445Y445365D01*
X134350Y445399D01*
X134257Y445437D01*
X134165Y445479D01*
X134075Y445524D01*
X133987Y445573D01*
X133901Y445625D01*
X133817Y445680D01*
X133735Y445739D01*
X133655Y445800D01*
X133578Y445865D01*
X133504Y445933D01*
X133432Y446003D01*
X133363Y446076D01*
X133296Y446152D01*
X133233Y446231D01*
X133173Y446311D01*
X133116Y446394D01*
X133062Y446480D01*
X133012Y446567D01*
X132965Y446656D01*
X132922Y446747D01*
X132882Y446839D01*
X132846Y446933D01*
X132813Y447028D01*
X132784Y447125D01*
X132759Y447222D01*
X132738Y447321D01*
X132720Y447420D01*
X132707Y447520D01*
X132697Y447620D01*
X132691Y447720D01*
X132689Y447821D01*
X143874Y450417D02*
X143874Y438733D01*
X143874Y450417D02*
X149066Y450417D01*
X149066Y445224D02*
X143874Y445224D01*
X153376Y438733D02*
X156621Y438733D01*
X156734Y438735D01*
X156847Y438741D01*
X156960Y438751D01*
X157073Y438765D01*
X157185Y438782D01*
X157296Y438804D01*
X157406Y438829D01*
X157516Y438859D01*
X157624Y438892D01*
X157731Y438929D01*
X157837Y438969D01*
X157941Y439014D01*
X158044Y439062D01*
X158145Y439113D01*
X158244Y439168D01*
X158341Y439226D01*
X158436Y439288D01*
X158529Y439353D01*
X158619Y439421D01*
X158707Y439492D01*
X158793Y439567D01*
X158876Y439644D01*
X158956Y439724D01*
X159033Y439807D01*
X159108Y439893D01*
X159179Y439981D01*
X159247Y440071D01*
X159312Y440164D01*
X159374Y440259D01*
X159432Y440356D01*
X159487Y440455D01*
X159538Y440556D01*
X159586Y440659D01*
X159631Y440763D01*
X159671Y440869D01*
X159708Y440976D01*
X159741Y441084D01*
X159771Y441194D01*
X159796Y441304D01*
X159818Y441415D01*
X159835Y441527D01*
X159849Y441640D01*
X159859Y441753D01*
X159865Y441866D01*
X159867Y441979D01*
X159865Y442092D01*
X159859Y442205D01*
X159849Y442318D01*
X159835Y442431D01*
X159818Y442543D01*
X159796Y442654D01*
X159771Y442764D01*
X159741Y442874D01*
X159708Y442982D01*
X159671Y443089D01*
X159631Y443195D01*
X159586Y443299D01*
X159538Y443402D01*
X159487Y443503D01*
X159432Y443602D01*
X159374Y443699D01*
X159312Y443794D01*
X159247Y443887D01*
X159179Y443977D01*
X159108Y444065D01*
X159033Y444151D01*
X158956Y444234D01*
X158876Y444314D01*
X158793Y444391D01*
X158707Y444466D01*
X158619Y444537D01*
X158529Y444605D01*
X158436Y444670D01*
X158341Y444732D01*
X158244Y444790D01*
X158145Y444845D01*
X158044Y444896D01*
X157941Y444944D01*
X157837Y444989D01*
X157731Y445029D01*
X157624Y445066D01*
X157516Y445099D01*
X157406Y445129D01*
X157296Y445154D01*
X157185Y445176D01*
X157073Y445193D01*
X156960Y445207D01*
X156847Y445217D01*
X156734Y445223D01*
X156621Y445225D01*
X157271Y450417D02*
X153376Y450417D01*
X157271Y450417D02*
X157372Y450415D01*
X157472Y450409D01*
X157572Y450399D01*
X157672Y450386D01*
X157771Y450368D01*
X157870Y450347D01*
X157967Y450322D01*
X158064Y450293D01*
X158159Y450260D01*
X158253Y450224D01*
X158345Y450184D01*
X158436Y450141D01*
X158525Y450094D01*
X158612Y450044D01*
X158698Y449990D01*
X158781Y449933D01*
X158861Y449873D01*
X158940Y449810D01*
X159016Y449743D01*
X159089Y449674D01*
X159159Y449602D01*
X159227Y449528D01*
X159292Y449451D01*
X159353Y449371D01*
X159412Y449289D01*
X159467Y449205D01*
X159519Y449119D01*
X159568Y449031D01*
X159613Y448941D01*
X159655Y448849D01*
X159693Y448756D01*
X159727Y448661D01*
X159758Y448566D01*
X159785Y448469D01*
X159808Y448371D01*
X159828Y448272D01*
X159843Y448172D01*
X159855Y448072D01*
X159863Y447972D01*
X159867Y447871D01*
X159867Y447771D01*
X159863Y447670D01*
X159855Y447570D01*
X159843Y447470D01*
X159828Y447370D01*
X159808Y447271D01*
X159785Y447173D01*
X159758Y447076D01*
X159727Y446981D01*
X159693Y446886D01*
X159655Y446793D01*
X159613Y446701D01*
X159568Y446611D01*
X159519Y446523D01*
X159467Y446437D01*
X159412Y446353D01*
X159353Y446271D01*
X159292Y446191D01*
X159227Y446114D01*
X159159Y446040D01*
X159089Y445968D01*
X159016Y445899D01*
X158940Y445832D01*
X158861Y445769D01*
X158781Y445709D01*
X158698Y445652D01*
X158612Y445598D01*
X158525Y445548D01*
X158436Y445501D01*
X158345Y445458D01*
X158253Y445418D01*
X158159Y445382D01*
X158064Y445349D01*
X157967Y445320D01*
X157870Y445295D01*
X157771Y445274D01*
X157672Y445256D01*
X157572Y445243D01*
X157472Y445233D01*
X157372Y445227D01*
X157271Y445225D01*
X157271Y445224D02*
X154674Y445224D01*
D12*
X154406Y493947D02*
X161772Y496402D01*
X154406Y498858D01*
X156452Y501671D02*
X159726Y501671D01*
X156452Y501672D02*
X156363Y501674D01*
X156274Y501680D01*
X156185Y501690D01*
X156097Y501703D01*
X156009Y501720D01*
X155922Y501742D01*
X155837Y501767D01*
X155752Y501795D01*
X155669Y501828D01*
X155587Y501864D01*
X155507Y501903D01*
X155429Y501946D01*
X155353Y501992D01*
X155278Y502042D01*
X155206Y502095D01*
X155137Y502151D01*
X155070Y502210D01*
X155005Y502271D01*
X154944Y502336D01*
X154885Y502403D01*
X154829Y502472D01*
X154776Y502544D01*
X154726Y502619D01*
X154680Y502695D01*
X154637Y502773D01*
X154598Y502853D01*
X154562Y502935D01*
X154529Y503018D01*
X154501Y503103D01*
X154476Y503188D01*
X154454Y503275D01*
X154437Y503363D01*
X154424Y503451D01*
X154414Y503540D01*
X154408Y503629D01*
X154406Y503718D01*
X154408Y503807D01*
X154414Y503896D01*
X154424Y503985D01*
X154437Y504073D01*
X154454Y504161D01*
X154476Y504248D01*
X154501Y504333D01*
X154529Y504418D01*
X154562Y504501D01*
X154598Y504583D01*
X154637Y504663D01*
X154680Y504741D01*
X154726Y504817D01*
X154776Y504892D01*
X154829Y504964D01*
X154885Y505033D01*
X154944Y505100D01*
X155005Y505165D01*
X155070Y505226D01*
X155137Y505285D01*
X155206Y505341D01*
X155278Y505394D01*
X155353Y505444D01*
X155429Y505490D01*
X155507Y505533D01*
X155587Y505572D01*
X155669Y505608D01*
X155752Y505641D01*
X155837Y505669D01*
X155922Y505694D01*
X156009Y505716D01*
X156097Y505733D01*
X156185Y505746D01*
X156274Y505756D01*
X156363Y505762D01*
X156452Y505764D01*
X159726Y505764D01*
X159815Y505762D01*
X159904Y505756D01*
X159993Y505746D01*
X160081Y505733D01*
X160169Y505716D01*
X160256Y505694D01*
X160341Y505669D01*
X160426Y505641D01*
X160509Y505608D01*
X160591Y505572D01*
X160671Y505533D01*
X160749Y505490D01*
X160825Y505444D01*
X160900Y505394D01*
X160972Y505341D01*
X161041Y505285D01*
X161108Y505226D01*
X161173Y505165D01*
X161234Y505100D01*
X161293Y505033D01*
X161349Y504964D01*
X161402Y504892D01*
X161452Y504817D01*
X161498Y504741D01*
X161541Y504663D01*
X161580Y504583D01*
X161616Y504501D01*
X161649Y504418D01*
X161677Y504333D01*
X161702Y504248D01*
X161724Y504161D01*
X161741Y504073D01*
X161754Y503985D01*
X161764Y503896D01*
X161770Y503807D01*
X161772Y503718D01*
X161770Y503629D01*
X161764Y503540D01*
X161754Y503451D01*
X161741Y503363D01*
X161724Y503275D01*
X161702Y503188D01*
X161677Y503103D01*
X161649Y503018D01*
X161616Y502935D01*
X161580Y502853D01*
X161541Y502773D01*
X161498Y502695D01*
X161452Y502619D01*
X161402Y502544D01*
X161349Y502472D01*
X161293Y502403D01*
X161234Y502336D01*
X161173Y502271D01*
X161108Y502210D01*
X161041Y502151D01*
X160972Y502095D01*
X160900Y502042D01*
X160825Y501992D01*
X160749Y501946D01*
X160671Y501903D01*
X160591Y501864D01*
X160509Y501828D01*
X160426Y501795D01*
X160341Y501767D01*
X160256Y501742D01*
X160169Y501720D01*
X160081Y501703D01*
X159993Y501690D01*
X159904Y501680D01*
X159815Y501674D01*
X159726Y501672D01*
X159726Y509230D02*
X154406Y509230D01*
X159726Y509231D02*
X159815Y509233D01*
X159904Y509239D01*
X159993Y509249D01*
X160081Y509262D01*
X160169Y509279D01*
X160256Y509301D01*
X160341Y509326D01*
X160426Y509354D01*
X160509Y509387D01*
X160591Y509423D01*
X160671Y509462D01*
X160749Y509505D01*
X160825Y509551D01*
X160900Y509601D01*
X160972Y509654D01*
X161041Y509710D01*
X161108Y509769D01*
X161173Y509830D01*
X161234Y509895D01*
X161293Y509962D01*
X161349Y510031D01*
X161402Y510103D01*
X161452Y510178D01*
X161498Y510254D01*
X161541Y510332D01*
X161580Y510412D01*
X161616Y510494D01*
X161649Y510577D01*
X161677Y510662D01*
X161702Y510747D01*
X161724Y510834D01*
X161741Y510922D01*
X161754Y511010D01*
X161764Y511099D01*
X161770Y511188D01*
X161772Y511277D01*
X161770Y511366D01*
X161764Y511455D01*
X161754Y511544D01*
X161741Y511632D01*
X161724Y511720D01*
X161702Y511807D01*
X161677Y511892D01*
X161649Y511977D01*
X161616Y512060D01*
X161580Y512142D01*
X161541Y512222D01*
X161498Y512300D01*
X161452Y512376D01*
X161402Y512451D01*
X161349Y512523D01*
X161293Y512592D01*
X161234Y512659D01*
X161173Y512724D01*
X161108Y512785D01*
X161041Y512844D01*
X160972Y512900D01*
X160900Y512953D01*
X160825Y513003D01*
X160749Y513049D01*
X160671Y513092D01*
X160591Y513131D01*
X160509Y513167D01*
X160426Y513200D01*
X160341Y513228D01*
X160256Y513253D01*
X160169Y513275D01*
X160081Y513292D01*
X159993Y513305D01*
X159904Y513315D01*
X159815Y513321D01*
X159726Y513323D01*
X154406Y513323D01*
X154406Y518348D02*
X161772Y518348D01*
X154406Y516302D02*
X154406Y520394D01*
X132280Y504788D02*
X132280Y503561D01*
X132280Y504788D02*
X136372Y504788D01*
X136372Y502333D01*
X136370Y502255D01*
X136365Y502177D01*
X136355Y502100D01*
X136342Y502023D01*
X136326Y501947D01*
X136306Y501872D01*
X136282Y501798D01*
X136255Y501725D01*
X136224Y501653D01*
X136190Y501583D01*
X136153Y501515D01*
X136112Y501448D01*
X136068Y501383D01*
X136022Y501321D01*
X135972Y501261D01*
X135920Y501203D01*
X135865Y501148D01*
X135807Y501096D01*
X135747Y501046D01*
X135685Y501000D01*
X135620Y500956D01*
X135554Y500915D01*
X135485Y500878D01*
X135415Y500844D01*
X135343Y500813D01*
X135270Y500786D01*
X135196Y500762D01*
X135121Y500742D01*
X135045Y500726D01*
X134968Y500713D01*
X134891Y500703D01*
X134813Y500698D01*
X134735Y500696D01*
X130643Y500696D01*
X130563Y500698D01*
X130483Y500704D01*
X130403Y500714D01*
X130324Y500727D01*
X130245Y500745D01*
X130168Y500766D01*
X130092Y500792D01*
X130017Y500821D01*
X129943Y500853D01*
X129871Y500889D01*
X129801Y500929D01*
X129734Y500972D01*
X129668Y501018D01*
X129605Y501068D01*
X129544Y501120D01*
X129485Y501175D01*
X129430Y501234D01*
X129378Y501294D01*
X129328Y501358D01*
X129282Y501423D01*
X129239Y501491D01*
X129199Y501561D01*
X129163Y501633D01*
X129131Y501707D01*
X129102Y501781D01*
X129077Y501858D01*
X129055Y501935D01*
X129037Y502014D01*
X129024Y502093D01*
X129014Y502172D01*
X129008Y502253D01*
X129006Y502333D01*
X129006Y504788D01*
X129006Y508499D02*
X136372Y508499D01*
X136372Y512591D02*
X129006Y508499D01*
X129006Y512591D02*
X136372Y512591D01*
X136372Y516302D02*
X129006Y516302D01*
X129006Y518348D01*
X129008Y518437D01*
X129014Y518526D01*
X129024Y518615D01*
X129037Y518703D01*
X129054Y518791D01*
X129076Y518878D01*
X129101Y518963D01*
X129129Y519048D01*
X129162Y519131D01*
X129198Y519213D01*
X129237Y519293D01*
X129280Y519371D01*
X129326Y519447D01*
X129376Y519522D01*
X129429Y519594D01*
X129485Y519663D01*
X129544Y519730D01*
X129605Y519795D01*
X129670Y519856D01*
X129737Y519915D01*
X129806Y519971D01*
X129878Y520024D01*
X129953Y520074D01*
X130029Y520120D01*
X130107Y520163D01*
X130187Y520202D01*
X130269Y520238D01*
X130352Y520271D01*
X130437Y520299D01*
X130522Y520324D01*
X130609Y520346D01*
X130697Y520363D01*
X130785Y520376D01*
X130874Y520386D01*
X130963Y520392D01*
X131052Y520394D01*
X134326Y520394D01*
X134415Y520392D01*
X134504Y520386D01*
X134593Y520376D01*
X134681Y520363D01*
X134769Y520346D01*
X134856Y520324D01*
X134941Y520299D01*
X135026Y520271D01*
X135109Y520238D01*
X135191Y520202D01*
X135271Y520163D01*
X135349Y520120D01*
X135425Y520074D01*
X135500Y520024D01*
X135572Y519971D01*
X135641Y519915D01*
X135708Y519856D01*
X135773Y519795D01*
X135834Y519730D01*
X135893Y519663D01*
X135949Y519594D01*
X136002Y519522D01*
X136052Y519447D01*
X136098Y519371D01*
X136141Y519293D01*
X136180Y519213D01*
X136216Y519131D01*
X136249Y519048D01*
X136277Y518963D01*
X136302Y518878D01*
X136324Y518791D01*
X136341Y518703D01*
X136354Y518615D01*
X136364Y518526D01*
X136370Y518437D01*
X136372Y518348D01*
X136372Y516302D01*
X110972Y506400D02*
X103606Y503944D01*
X103606Y508855D02*
X110972Y506400D01*
X110972Y512252D02*
X103606Y512252D01*
X110972Y511433D02*
X110972Y513070D01*
X103606Y513070D02*
X103606Y511433D01*
X103606Y516302D02*
X110972Y516302D01*
X110972Y520394D02*
X103606Y516302D01*
X103606Y520394D02*
X110972Y520394D01*
X76682Y520775D02*
X76682Y493000D01*
X83935Y497473D02*
X84013Y497471D01*
X84091Y497466D01*
X84168Y497456D01*
X84245Y497443D01*
X84321Y497427D01*
X84396Y497407D01*
X84470Y497383D01*
X84543Y497356D01*
X84615Y497325D01*
X84685Y497291D01*
X84754Y497254D01*
X84820Y497213D01*
X84885Y497169D01*
X84947Y497123D01*
X85007Y497073D01*
X85065Y497021D01*
X85120Y496966D01*
X85172Y496908D01*
X85222Y496848D01*
X85268Y496786D01*
X85312Y496721D01*
X85353Y496655D01*
X85390Y496586D01*
X85424Y496516D01*
X85455Y496444D01*
X85482Y496371D01*
X85506Y496297D01*
X85526Y496222D01*
X85542Y496146D01*
X85555Y496069D01*
X85565Y495992D01*
X85570Y495914D01*
X85572Y495836D01*
X85570Y495722D01*
X85565Y495609D01*
X85555Y495495D01*
X85542Y495382D01*
X85525Y495270D01*
X85505Y495158D01*
X85481Y495047D01*
X85453Y494936D01*
X85422Y494827D01*
X85387Y494719D01*
X85348Y494612D01*
X85306Y494506D01*
X85261Y494402D01*
X85212Y494299D01*
X85159Y494198D01*
X85104Y494099D01*
X85045Y494001D01*
X84983Y493906D01*
X84918Y493813D01*
X84850Y493721D01*
X84779Y493633D01*
X84705Y493546D01*
X84628Y493462D01*
X84549Y493381D01*
X79843Y493585D02*
X79765Y493587D01*
X79687Y493592D01*
X79610Y493602D01*
X79533Y493615D01*
X79457Y493631D01*
X79382Y493651D01*
X79308Y493675D01*
X79235Y493702D01*
X79163Y493733D01*
X79093Y493767D01*
X79025Y493804D01*
X78958Y493845D01*
X78893Y493889D01*
X78831Y493935D01*
X78771Y493985D01*
X78713Y494037D01*
X78658Y494092D01*
X78606Y494150D01*
X78556Y494210D01*
X78510Y494272D01*
X78466Y494337D01*
X78425Y494404D01*
X78388Y494472D01*
X78354Y494542D01*
X78323Y494614D01*
X78296Y494687D01*
X78272Y494761D01*
X78252Y494836D01*
X78236Y494912D01*
X78223Y494989D01*
X78213Y495066D01*
X78208Y495144D01*
X78206Y495222D01*
X78208Y495332D01*
X78214Y495441D01*
X78224Y495551D01*
X78237Y495659D01*
X78255Y495768D01*
X78276Y495875D01*
X78302Y495982D01*
X78331Y496088D01*
X78363Y496193D01*
X78400Y496296D01*
X78440Y496398D01*
X78484Y496499D01*
X78532Y496598D01*
X78582Y496695D01*
X78637Y496790D01*
X78695Y496883D01*
X78756Y496974D01*
X78820Y497063D01*
X81275Y494404D02*
X81233Y494338D01*
X81189Y494273D01*
X81141Y494211D01*
X81091Y494151D01*
X81038Y494093D01*
X80982Y494038D01*
X80924Y493985D01*
X80863Y493936D01*
X80800Y493889D01*
X80735Y493845D01*
X80668Y493805D01*
X80599Y493768D01*
X80528Y493734D01*
X80456Y493703D01*
X80382Y493676D01*
X80307Y493652D01*
X80232Y493632D01*
X80155Y493616D01*
X80078Y493603D01*
X80000Y493593D01*
X79921Y493588D01*
X79843Y493586D01*
X82502Y496655D02*
X82544Y496722D01*
X82588Y496787D01*
X82636Y496849D01*
X82686Y496909D01*
X82739Y496967D01*
X82795Y497022D01*
X82854Y497074D01*
X82914Y497124D01*
X82978Y497171D01*
X83043Y497214D01*
X83110Y497255D01*
X83179Y497292D01*
X83250Y497326D01*
X83322Y497357D01*
X83396Y497384D01*
X83470Y497408D01*
X83546Y497428D01*
X83623Y497444D01*
X83700Y497457D01*
X83778Y497467D01*
X83857Y497472D01*
X83935Y497474D01*
X82503Y496655D02*
X81275Y494404D01*
X78206Y500696D02*
X85572Y500696D01*
X81480Y500696D02*
X81480Y504788D01*
X78206Y504788D02*
X85572Y504788D01*
X85572Y508499D02*
X78206Y508499D01*
X78206Y510545D01*
X78208Y510634D01*
X78214Y510723D01*
X78224Y510812D01*
X78237Y510900D01*
X78254Y510988D01*
X78276Y511075D01*
X78301Y511160D01*
X78329Y511245D01*
X78362Y511328D01*
X78398Y511410D01*
X78437Y511490D01*
X78480Y511568D01*
X78526Y511644D01*
X78576Y511719D01*
X78629Y511791D01*
X78685Y511860D01*
X78744Y511927D01*
X78805Y511992D01*
X78870Y512053D01*
X78937Y512112D01*
X79006Y512168D01*
X79078Y512221D01*
X79153Y512271D01*
X79229Y512317D01*
X79307Y512360D01*
X79387Y512399D01*
X79469Y512435D01*
X79552Y512468D01*
X79637Y512496D01*
X79722Y512521D01*
X79809Y512543D01*
X79897Y512560D01*
X79985Y512573D01*
X80074Y512583D01*
X80163Y512589D01*
X80252Y512591D01*
X83526Y512591D01*
X83615Y512589D01*
X83704Y512583D01*
X83793Y512573D01*
X83881Y512560D01*
X83969Y512543D01*
X84056Y512521D01*
X84141Y512496D01*
X84226Y512468D01*
X84309Y512435D01*
X84391Y512399D01*
X84471Y512360D01*
X84549Y512317D01*
X84625Y512271D01*
X84700Y512221D01*
X84772Y512168D01*
X84841Y512112D01*
X84908Y512053D01*
X84973Y511992D01*
X85034Y511927D01*
X85093Y511860D01*
X85149Y511791D01*
X85202Y511719D01*
X85252Y511644D01*
X85298Y511568D01*
X85341Y511490D01*
X85380Y511410D01*
X85416Y511328D01*
X85449Y511245D01*
X85477Y511160D01*
X85502Y511075D01*
X85524Y510988D01*
X85541Y510900D01*
X85554Y510812D01*
X85564Y510723D01*
X85570Y510634D01*
X85572Y510545D01*
X85572Y508499D01*
X85572Y516302D02*
X78206Y516302D01*
X85572Y520394D01*
X78206Y520394D01*
D10*
X301850Y637000D02*
X304350Y637000D01*
X304350Y639500D01*
X275850Y637000D02*
X273350Y637000D01*
X273350Y639500D01*
X273350Y665500D02*
X273350Y668000D01*
X275850Y668000D01*
X304350Y668000D02*
X304350Y665500D01*
X304350Y668000D02*
X301850Y668000D01*
D13*
X311850Y642500D02*
X311852Y642563D01*
X311858Y642625D01*
X311868Y642687D01*
X311881Y642749D01*
X311899Y642809D01*
X311920Y642868D01*
X311945Y642926D01*
X311974Y642982D01*
X312006Y643036D01*
X312041Y643088D01*
X312079Y643137D01*
X312121Y643185D01*
X312165Y643229D01*
X312213Y643271D01*
X312262Y643309D01*
X312314Y643344D01*
X312368Y643376D01*
X312424Y643405D01*
X312482Y643430D01*
X312541Y643451D01*
X312601Y643469D01*
X312663Y643482D01*
X312725Y643492D01*
X312787Y643498D01*
X312850Y643500D01*
X312913Y643498D01*
X312975Y643492D01*
X313037Y643482D01*
X313099Y643469D01*
X313159Y643451D01*
X313218Y643430D01*
X313276Y643405D01*
X313332Y643376D01*
X313386Y643344D01*
X313438Y643309D01*
X313487Y643271D01*
X313535Y643229D01*
X313579Y643185D01*
X313621Y643137D01*
X313659Y643088D01*
X313694Y643036D01*
X313726Y642982D01*
X313755Y642926D01*
X313780Y642868D01*
X313801Y642809D01*
X313819Y642749D01*
X313832Y642687D01*
X313842Y642625D01*
X313848Y642563D01*
X313850Y642500D01*
X313848Y642437D01*
X313842Y642375D01*
X313832Y642313D01*
X313819Y642251D01*
X313801Y642191D01*
X313780Y642132D01*
X313755Y642074D01*
X313726Y642018D01*
X313694Y641964D01*
X313659Y641912D01*
X313621Y641863D01*
X313579Y641815D01*
X313535Y641771D01*
X313487Y641729D01*
X313438Y641691D01*
X313386Y641656D01*
X313332Y641624D01*
X313276Y641595D01*
X313218Y641570D01*
X313159Y641549D01*
X313099Y641531D01*
X313037Y641518D01*
X312975Y641508D01*
X312913Y641502D01*
X312850Y641500D01*
X312787Y641502D01*
X312725Y641508D01*
X312663Y641518D01*
X312601Y641531D01*
X312541Y641549D01*
X312482Y641570D01*
X312424Y641595D01*
X312368Y641624D01*
X312314Y641656D01*
X312262Y641691D01*
X312213Y641729D01*
X312165Y641771D01*
X312121Y641815D01*
X312079Y641863D01*
X312041Y641912D01*
X312006Y641964D01*
X311974Y642018D01*
X311945Y642074D01*
X311920Y642132D01*
X311899Y642191D01*
X311881Y642251D01*
X311868Y642313D01*
X311858Y642375D01*
X311852Y642437D01*
X311850Y642500D01*
D11*
X287253Y626548D02*
X287253Y614842D01*
X285952Y614842D02*
X288554Y614842D01*
X288554Y626548D02*
X285952Y626548D01*
X293656Y626548D02*
X293656Y614842D01*
X297558Y620045D02*
X293656Y626548D01*
X297558Y620045D02*
X301460Y626548D01*
X301460Y614842D01*
X307283Y618094D02*
X307283Y626548D01*
X307282Y618094D02*
X307284Y617982D01*
X307290Y617870D01*
X307299Y617758D01*
X307313Y617646D01*
X307330Y617535D01*
X307352Y617425D01*
X307376Y617316D01*
X307405Y617207D01*
X307438Y617100D01*
X307474Y616993D01*
X307514Y616889D01*
X307557Y616785D01*
X307604Y616683D01*
X307654Y616583D01*
X307708Y616484D01*
X307766Y616388D01*
X307826Y616293D01*
X307890Y616201D01*
X307957Y616111D01*
X308027Y616023D01*
X308100Y615938D01*
X308176Y615855D01*
X308254Y615775D01*
X308336Y615697D01*
X308420Y615623D01*
X308506Y615551D01*
X308595Y615483D01*
X308687Y615418D01*
X308780Y615355D01*
X308876Y615297D01*
X308973Y615241D01*
X309073Y615189D01*
X309174Y615140D01*
X309277Y615095D01*
X309381Y615053D01*
X309486Y615015D01*
X309593Y614981D01*
X309701Y614950D01*
X309810Y614924D01*
X309920Y614900D01*
X310031Y614881D01*
X310142Y614866D01*
X310254Y614854D01*
X310366Y614846D01*
X310478Y614842D01*
X310590Y614842D01*
X310702Y614846D01*
X310814Y614854D01*
X310926Y614866D01*
X311037Y614881D01*
X311148Y614900D01*
X311258Y614924D01*
X311367Y614950D01*
X311475Y614981D01*
X311582Y615015D01*
X311687Y615053D01*
X311791Y615095D01*
X311894Y615140D01*
X311995Y615189D01*
X312095Y615241D01*
X312192Y615297D01*
X312288Y615355D01*
X312381Y615418D01*
X312473Y615483D01*
X312562Y615551D01*
X312648Y615623D01*
X312732Y615697D01*
X312814Y615775D01*
X312892Y615855D01*
X312968Y615938D01*
X313041Y616023D01*
X313111Y616111D01*
X313178Y616201D01*
X313242Y616293D01*
X313302Y616388D01*
X313360Y616484D01*
X313414Y616583D01*
X313464Y616683D01*
X313511Y616785D01*
X313554Y616889D01*
X313594Y616993D01*
X313630Y617100D01*
X313663Y617207D01*
X313692Y617316D01*
X313716Y617425D01*
X313738Y617535D01*
X313755Y617646D01*
X313769Y617758D01*
X313778Y617870D01*
X313784Y617982D01*
X313786Y618094D01*
X313786Y626548D01*
D13*
X330800Y878000D02*
X330802Y878063D01*
X330808Y878125D01*
X330818Y878187D01*
X330831Y878249D01*
X330849Y878309D01*
X330870Y878368D01*
X330895Y878426D01*
X330924Y878482D01*
X330956Y878536D01*
X330991Y878588D01*
X331029Y878637D01*
X331071Y878685D01*
X331115Y878729D01*
X331163Y878771D01*
X331212Y878809D01*
X331264Y878844D01*
X331318Y878876D01*
X331374Y878905D01*
X331432Y878930D01*
X331491Y878951D01*
X331551Y878969D01*
X331613Y878982D01*
X331675Y878992D01*
X331737Y878998D01*
X331800Y879000D01*
X331863Y878998D01*
X331925Y878992D01*
X331987Y878982D01*
X332049Y878969D01*
X332109Y878951D01*
X332168Y878930D01*
X332226Y878905D01*
X332282Y878876D01*
X332336Y878844D01*
X332388Y878809D01*
X332437Y878771D01*
X332485Y878729D01*
X332529Y878685D01*
X332571Y878637D01*
X332609Y878588D01*
X332644Y878536D01*
X332676Y878482D01*
X332705Y878426D01*
X332730Y878368D01*
X332751Y878309D01*
X332769Y878249D01*
X332782Y878187D01*
X332792Y878125D01*
X332798Y878063D01*
X332800Y878000D01*
X332798Y877937D01*
X332792Y877875D01*
X332782Y877813D01*
X332769Y877751D01*
X332751Y877691D01*
X332730Y877632D01*
X332705Y877574D01*
X332676Y877518D01*
X332644Y877464D01*
X332609Y877412D01*
X332571Y877363D01*
X332529Y877315D01*
X332485Y877271D01*
X332437Y877229D01*
X332388Y877191D01*
X332336Y877156D01*
X332282Y877124D01*
X332226Y877095D01*
X332168Y877070D01*
X332109Y877049D01*
X332049Y877031D01*
X331987Y877018D01*
X331925Y877008D01*
X331863Y877002D01*
X331800Y877000D01*
X331737Y877002D01*
X331675Y877008D01*
X331613Y877018D01*
X331551Y877031D01*
X331491Y877049D01*
X331432Y877070D01*
X331374Y877095D01*
X331318Y877124D01*
X331264Y877156D01*
X331212Y877191D01*
X331163Y877229D01*
X331115Y877271D01*
X331071Y877315D01*
X331029Y877363D01*
X330991Y877412D01*
X330956Y877464D01*
X330924Y877518D01*
X330895Y877574D01*
X330870Y877632D01*
X330849Y877691D01*
X330831Y877751D01*
X330818Y877813D01*
X330808Y877875D01*
X330802Y877937D01*
X330800Y878000D01*
D10*
X341800Y704500D02*
X341800Y698000D01*
X366300Y698000D01*
X497300Y698000D02*
X521800Y698000D01*
X521800Y704500D01*
X341800Y888000D02*
X341800Y953000D01*
X521800Y953000D01*
X521800Y888000D01*
D11*
X153158Y392342D02*
X153158Y383904D01*
X153160Y383791D01*
X153166Y383678D01*
X153176Y383565D01*
X153190Y383452D01*
X153207Y383340D01*
X153229Y383229D01*
X153254Y383119D01*
X153284Y383009D01*
X153317Y382901D01*
X153354Y382794D01*
X153394Y382688D01*
X153439Y382584D01*
X153487Y382481D01*
X153538Y382380D01*
X153593Y382281D01*
X153651Y382184D01*
X153713Y382089D01*
X153778Y381996D01*
X153846Y381906D01*
X153917Y381818D01*
X153992Y381732D01*
X154069Y381649D01*
X154149Y381569D01*
X154232Y381492D01*
X154318Y381417D01*
X154406Y381346D01*
X154496Y381278D01*
X154589Y381213D01*
X154684Y381151D01*
X154781Y381093D01*
X154880Y381038D01*
X154981Y380987D01*
X155084Y380939D01*
X155188Y380894D01*
X155294Y380854D01*
X155401Y380817D01*
X155509Y380784D01*
X155619Y380754D01*
X155729Y380729D01*
X155840Y380707D01*
X155952Y380690D01*
X156065Y380676D01*
X156178Y380666D01*
X156291Y380660D01*
X156404Y380658D01*
X156517Y380660D01*
X156630Y380666D01*
X156743Y380676D01*
X156856Y380690D01*
X156968Y380707D01*
X157079Y380729D01*
X157189Y380754D01*
X157299Y380784D01*
X157407Y380817D01*
X157514Y380854D01*
X157620Y380894D01*
X157724Y380939D01*
X157827Y380987D01*
X157928Y381038D01*
X158027Y381093D01*
X158124Y381151D01*
X158219Y381213D01*
X158312Y381278D01*
X158402Y381346D01*
X158490Y381417D01*
X158576Y381492D01*
X158659Y381569D01*
X158739Y381649D01*
X158816Y381732D01*
X158891Y381818D01*
X158962Y381906D01*
X159030Y381996D01*
X159095Y382089D01*
X159157Y382184D01*
X159215Y382281D01*
X159270Y382380D01*
X159321Y382481D01*
X159369Y382584D01*
X159414Y382688D01*
X159454Y382794D01*
X159491Y382901D01*
X159524Y383009D01*
X159554Y383119D01*
X159579Y383229D01*
X159601Y383340D01*
X159618Y383452D01*
X159632Y383565D01*
X159642Y383678D01*
X159648Y383791D01*
X159650Y383904D01*
X159649Y383904D02*
X159649Y392342D01*
X168539Y392342D02*
X168646Y392340D01*
X168752Y392334D01*
X168858Y392324D01*
X168964Y392311D01*
X169070Y392293D01*
X169174Y392272D01*
X169278Y392247D01*
X169381Y392218D01*
X169482Y392186D01*
X169582Y392149D01*
X169681Y392109D01*
X169779Y392066D01*
X169875Y392019D01*
X169969Y391968D01*
X170061Y391914D01*
X170151Y391857D01*
X170239Y391797D01*
X170324Y391733D01*
X170407Y391666D01*
X170488Y391596D01*
X170566Y391524D01*
X170642Y391448D01*
X170714Y391370D01*
X170784Y391289D01*
X170851Y391206D01*
X170915Y391121D01*
X170975Y391033D01*
X171032Y390943D01*
X171086Y390851D01*
X171137Y390757D01*
X171184Y390661D01*
X171227Y390563D01*
X171267Y390464D01*
X171304Y390364D01*
X171336Y390263D01*
X171365Y390160D01*
X171390Y390056D01*
X171411Y389952D01*
X171429Y389846D01*
X171442Y389740D01*
X171452Y389634D01*
X171458Y389528D01*
X171460Y389421D01*
X168539Y392342D02*
X168418Y392340D01*
X168297Y392334D01*
X168177Y392324D01*
X168056Y392311D01*
X167937Y392293D01*
X167817Y392272D01*
X167699Y392247D01*
X167582Y392218D01*
X167465Y392185D01*
X167350Y392149D01*
X167236Y392108D01*
X167123Y392065D01*
X167011Y392017D01*
X166902Y391966D01*
X166794Y391911D01*
X166687Y391853D01*
X166583Y391792D01*
X166481Y391727D01*
X166381Y391659D01*
X166283Y391588D01*
X166187Y391514D01*
X166094Y391437D01*
X166004Y391356D01*
X165916Y391273D01*
X165831Y391187D01*
X165748Y391098D01*
X165669Y391007D01*
X165592Y390913D01*
X165519Y390817D01*
X165449Y390719D01*
X165382Y390618D01*
X165318Y390515D01*
X165258Y390410D01*
X165201Y390303D01*
X165147Y390195D01*
X165097Y390085D01*
X165051Y389973D01*
X165008Y389860D01*
X164969Y389745D01*
X170487Y387149D02*
X170566Y387226D01*
X170642Y387307D01*
X170715Y387390D01*
X170785Y387475D01*
X170852Y387563D01*
X170916Y387653D01*
X170976Y387745D01*
X171033Y387840D01*
X171087Y387936D01*
X171138Y388034D01*
X171185Y388134D01*
X171229Y388236D01*
X171269Y388339D01*
X171305Y388443D01*
X171337Y388549D01*
X171366Y388655D01*
X171391Y388763D01*
X171413Y388871D01*
X171430Y388981D01*
X171444Y389090D01*
X171453Y389200D01*
X171459Y389311D01*
X171461Y389421D01*
X170486Y387149D02*
X164969Y380658D01*
X171460Y380658D01*
D14*
X223875Y792750D02*
X45875Y792750D01*
X223875Y792750D02*
X223875Y589650D01*
X45875Y589650D01*
X45875Y792750D01*
D11*
X101309Y685358D02*
X103906Y685358D01*
X101309Y685358D02*
X101210Y685360D01*
X101110Y685366D01*
X101011Y685375D01*
X100913Y685388D01*
X100815Y685405D01*
X100717Y685426D01*
X100621Y685451D01*
X100526Y685479D01*
X100432Y685511D01*
X100339Y685546D01*
X100247Y685585D01*
X100157Y685628D01*
X100069Y685673D01*
X99982Y685723D01*
X99898Y685775D01*
X99815Y685831D01*
X99735Y685889D01*
X99657Y685951D01*
X99582Y686016D01*
X99509Y686084D01*
X99439Y686154D01*
X99371Y686227D01*
X99306Y686302D01*
X99244Y686380D01*
X99186Y686460D01*
X99130Y686543D01*
X99078Y686627D01*
X99028Y686714D01*
X98983Y686802D01*
X98940Y686892D01*
X98901Y686984D01*
X98866Y687077D01*
X98834Y687171D01*
X98806Y687266D01*
X98781Y687362D01*
X98760Y687460D01*
X98743Y687558D01*
X98730Y687656D01*
X98721Y687755D01*
X98715Y687855D01*
X98713Y687954D01*
X98713Y694446D01*
X98715Y694545D01*
X98721Y694645D01*
X98730Y694744D01*
X98743Y694842D01*
X98760Y694940D01*
X98781Y695038D01*
X98806Y695134D01*
X98834Y695229D01*
X98866Y695323D01*
X98901Y695416D01*
X98940Y695508D01*
X98983Y695598D01*
X99028Y695686D01*
X99078Y695773D01*
X99130Y695857D01*
X99186Y695940D01*
X99244Y696020D01*
X99306Y696098D01*
X99371Y696173D01*
X99439Y696246D01*
X99509Y696316D01*
X99582Y696384D01*
X99657Y696449D01*
X99735Y696511D01*
X99815Y696569D01*
X99898Y696625D01*
X99982Y696677D01*
X100069Y696727D01*
X100157Y696772D01*
X100247Y696815D01*
X100339Y696854D01*
X100431Y696889D01*
X100526Y696921D01*
X100621Y696949D01*
X100717Y696974D01*
X100815Y696995D01*
X100913Y697012D01*
X101011Y697025D01*
X101110Y697034D01*
X101210Y697040D01*
X101309Y697042D01*
X103906Y697042D01*
X108271Y693796D02*
X108271Y688604D01*
X108271Y693796D02*
X108273Y693909D01*
X108279Y694022D01*
X108289Y694135D01*
X108303Y694248D01*
X108320Y694360D01*
X108342Y694471D01*
X108367Y694581D01*
X108397Y694691D01*
X108430Y694799D01*
X108467Y694906D01*
X108507Y695012D01*
X108552Y695116D01*
X108600Y695219D01*
X108651Y695320D01*
X108706Y695419D01*
X108764Y695516D01*
X108826Y695611D01*
X108891Y695704D01*
X108959Y695794D01*
X109030Y695882D01*
X109105Y695968D01*
X109182Y696051D01*
X109262Y696131D01*
X109345Y696208D01*
X109431Y696283D01*
X109519Y696354D01*
X109609Y696422D01*
X109702Y696487D01*
X109797Y696549D01*
X109894Y696607D01*
X109993Y696662D01*
X110094Y696713D01*
X110197Y696761D01*
X110301Y696806D01*
X110407Y696846D01*
X110514Y696883D01*
X110622Y696916D01*
X110732Y696946D01*
X110842Y696971D01*
X110953Y696993D01*
X111065Y697010D01*
X111178Y697024D01*
X111291Y697034D01*
X111404Y697040D01*
X111517Y697042D01*
X111630Y697040D01*
X111743Y697034D01*
X111856Y697024D01*
X111969Y697010D01*
X112081Y696993D01*
X112192Y696971D01*
X112302Y696946D01*
X112412Y696916D01*
X112520Y696883D01*
X112627Y696846D01*
X112733Y696806D01*
X112837Y696761D01*
X112940Y696713D01*
X113041Y696662D01*
X113140Y696607D01*
X113237Y696549D01*
X113332Y696487D01*
X113425Y696422D01*
X113515Y696354D01*
X113603Y696283D01*
X113689Y696208D01*
X113772Y696131D01*
X113852Y696051D01*
X113929Y695968D01*
X114004Y695882D01*
X114075Y695794D01*
X114143Y695704D01*
X114208Y695611D01*
X114270Y695516D01*
X114328Y695419D01*
X114383Y695320D01*
X114434Y695219D01*
X114482Y695116D01*
X114527Y695012D01*
X114567Y694906D01*
X114604Y694799D01*
X114637Y694691D01*
X114667Y694581D01*
X114692Y694471D01*
X114714Y694360D01*
X114731Y694248D01*
X114745Y694135D01*
X114755Y694022D01*
X114761Y693909D01*
X114763Y693796D01*
X114762Y693796D02*
X114762Y688604D01*
X114763Y688604D02*
X114761Y688491D01*
X114755Y688378D01*
X114745Y688265D01*
X114731Y688152D01*
X114714Y688040D01*
X114692Y687929D01*
X114667Y687819D01*
X114637Y687709D01*
X114604Y687601D01*
X114567Y687494D01*
X114527Y687388D01*
X114482Y687284D01*
X114434Y687181D01*
X114383Y687080D01*
X114328Y686981D01*
X114270Y686884D01*
X114208Y686789D01*
X114143Y686696D01*
X114075Y686606D01*
X114004Y686518D01*
X113929Y686432D01*
X113852Y686349D01*
X113772Y686269D01*
X113689Y686192D01*
X113603Y686117D01*
X113515Y686046D01*
X113425Y685978D01*
X113332Y685913D01*
X113237Y685851D01*
X113140Y685793D01*
X113041Y685738D01*
X112940Y685687D01*
X112837Y685639D01*
X112733Y685594D01*
X112627Y685554D01*
X112520Y685517D01*
X112412Y685484D01*
X112302Y685454D01*
X112192Y685429D01*
X112081Y685407D01*
X111969Y685390D01*
X111856Y685376D01*
X111743Y685366D01*
X111630Y685360D01*
X111517Y685358D01*
X111404Y685360D01*
X111291Y685366D01*
X111178Y685376D01*
X111065Y685390D01*
X110953Y685407D01*
X110842Y685429D01*
X110732Y685454D01*
X110622Y685484D01*
X110514Y685517D01*
X110407Y685554D01*
X110301Y685594D01*
X110197Y685639D01*
X110094Y685687D01*
X109993Y685738D01*
X109894Y685793D01*
X109797Y685851D01*
X109702Y685913D01*
X109609Y685978D01*
X109519Y686046D01*
X109431Y686117D01*
X109345Y686192D01*
X109262Y686269D01*
X109182Y686349D01*
X109105Y686432D01*
X109030Y686518D01*
X108959Y686606D01*
X108891Y686696D01*
X108826Y686789D01*
X108764Y686884D01*
X108706Y686981D01*
X108651Y687080D01*
X108600Y687181D01*
X108552Y687284D01*
X108507Y687388D01*
X108467Y687494D01*
X108430Y687601D01*
X108397Y687709D01*
X108367Y687819D01*
X108342Y687929D01*
X108320Y688040D01*
X108303Y688152D01*
X108289Y688265D01*
X108279Y688378D01*
X108273Y688491D01*
X108271Y688604D01*
X120082Y685358D02*
X120082Y697042D01*
X126573Y685358D01*
X126573Y697042D01*
X131244Y697042D02*
X135139Y685358D01*
X139033Y697042D01*
X142829Y684060D02*
X148022Y684060D01*
X152467Y691849D02*
X156362Y691849D01*
X156461Y691847D01*
X156561Y691841D01*
X156660Y691832D01*
X156758Y691819D01*
X156856Y691802D01*
X156954Y691781D01*
X157050Y691756D01*
X157145Y691728D01*
X157239Y691696D01*
X157332Y691661D01*
X157424Y691622D01*
X157514Y691579D01*
X157602Y691534D01*
X157689Y691484D01*
X157773Y691432D01*
X157856Y691376D01*
X157936Y691318D01*
X158014Y691256D01*
X158089Y691191D01*
X158162Y691123D01*
X158232Y691053D01*
X158300Y690980D01*
X158365Y690905D01*
X158427Y690827D01*
X158485Y690747D01*
X158541Y690664D01*
X158593Y690580D01*
X158643Y690493D01*
X158688Y690405D01*
X158731Y690315D01*
X158770Y690223D01*
X158805Y690130D01*
X158837Y690036D01*
X158865Y689941D01*
X158890Y689845D01*
X158911Y689747D01*
X158928Y689649D01*
X158941Y689551D01*
X158950Y689452D01*
X158956Y689352D01*
X158958Y689253D01*
X158958Y688604D01*
X158959Y688604D02*
X158957Y688491D01*
X158951Y688378D01*
X158941Y688265D01*
X158927Y688152D01*
X158910Y688040D01*
X158888Y687929D01*
X158863Y687819D01*
X158833Y687709D01*
X158800Y687601D01*
X158763Y687494D01*
X158723Y687388D01*
X158678Y687284D01*
X158630Y687181D01*
X158579Y687080D01*
X158524Y686981D01*
X158466Y686884D01*
X158404Y686789D01*
X158339Y686696D01*
X158271Y686606D01*
X158200Y686518D01*
X158125Y686432D01*
X158048Y686349D01*
X157968Y686269D01*
X157885Y686192D01*
X157799Y686117D01*
X157711Y686046D01*
X157621Y685978D01*
X157528Y685913D01*
X157433Y685851D01*
X157336Y685793D01*
X157237Y685738D01*
X157136Y685687D01*
X157033Y685639D01*
X156929Y685594D01*
X156823Y685554D01*
X156716Y685517D01*
X156608Y685484D01*
X156498Y685454D01*
X156388Y685429D01*
X156277Y685407D01*
X156165Y685390D01*
X156052Y685376D01*
X155939Y685366D01*
X155826Y685360D01*
X155713Y685358D01*
X155600Y685360D01*
X155487Y685366D01*
X155374Y685376D01*
X155261Y685390D01*
X155149Y685407D01*
X155038Y685429D01*
X154928Y685454D01*
X154818Y685484D01*
X154710Y685517D01*
X154603Y685554D01*
X154497Y685594D01*
X154393Y685639D01*
X154290Y685687D01*
X154189Y685738D01*
X154090Y685793D01*
X153993Y685851D01*
X153898Y685913D01*
X153805Y685978D01*
X153715Y686046D01*
X153627Y686117D01*
X153541Y686192D01*
X153458Y686269D01*
X153378Y686349D01*
X153301Y686432D01*
X153226Y686518D01*
X153155Y686606D01*
X153087Y686696D01*
X153022Y686789D01*
X152960Y686884D01*
X152902Y686981D01*
X152847Y687080D01*
X152796Y687181D01*
X152748Y687284D01*
X152703Y687388D01*
X152663Y687494D01*
X152626Y687601D01*
X152593Y687709D01*
X152563Y687819D01*
X152538Y687929D01*
X152516Y688040D01*
X152499Y688152D01*
X152485Y688265D01*
X152475Y688378D01*
X152469Y688491D01*
X152467Y688604D01*
X152467Y691849D01*
X152469Y691992D01*
X152475Y692135D01*
X152485Y692278D01*
X152499Y692420D01*
X152516Y692562D01*
X152538Y692704D01*
X152563Y692845D01*
X152593Y692985D01*
X152626Y693124D01*
X152663Y693262D01*
X152704Y693399D01*
X152748Y693535D01*
X152797Y693670D01*
X152849Y693803D01*
X152904Y693935D01*
X152964Y694065D01*
X153027Y694194D01*
X153093Y694321D01*
X153163Y694445D01*
X153236Y694568D01*
X153313Y694689D01*
X153393Y694808D01*
X153476Y694924D01*
X153562Y695039D01*
X153651Y695150D01*
X153744Y695260D01*
X153839Y695366D01*
X153938Y695470D01*
X154039Y695571D01*
X154143Y695670D01*
X154249Y695765D01*
X154359Y695858D01*
X154470Y695947D01*
X154585Y696033D01*
X154701Y696116D01*
X154820Y696196D01*
X154941Y696273D01*
X155063Y696346D01*
X155188Y696416D01*
X155315Y696482D01*
X155444Y696545D01*
X155574Y696605D01*
X155706Y696660D01*
X155839Y696712D01*
X155974Y696761D01*
X156110Y696805D01*
X156247Y696846D01*
X156385Y696883D01*
X156524Y696916D01*
X156664Y696946D01*
X156805Y696971D01*
X156947Y696993D01*
X157089Y697010D01*
X157231Y697024D01*
X157374Y697034D01*
X157517Y697040D01*
X157660Y697042D01*
X163248Y697042D02*
X167143Y685358D01*
X171037Y697042D01*
D15*
X262475Y619775D02*
X318475Y619775D01*
X318475Y535775D02*
X262475Y535775D01*
D16*
X332975Y535775D03*
D10*
X212109Y530826D02*
X212109Y519382D01*
X215924Y524468D02*
X212109Y530826D01*
X215924Y524468D02*
X219739Y530826D01*
X219739Y519382D01*
X225333Y522561D02*
X225333Y527647D01*
X225335Y527758D01*
X225341Y527869D01*
X225350Y527979D01*
X225364Y528089D01*
X225381Y528199D01*
X225402Y528308D01*
X225427Y528416D01*
X225456Y528523D01*
X225489Y528629D01*
X225525Y528734D01*
X225564Y528838D01*
X225608Y528940D01*
X225655Y529041D01*
X225705Y529139D01*
X225759Y529237D01*
X225816Y529332D01*
X225876Y529425D01*
X225940Y529516D01*
X226007Y529604D01*
X226077Y529690D01*
X226150Y529774D01*
X226225Y529855D01*
X226304Y529934D01*
X226385Y530009D01*
X226469Y530082D01*
X226555Y530152D01*
X226643Y530219D01*
X226734Y530283D01*
X226827Y530343D01*
X226923Y530400D01*
X227020Y530454D01*
X227118Y530504D01*
X227219Y530551D01*
X227321Y530595D01*
X227425Y530634D01*
X227530Y530670D01*
X227636Y530703D01*
X227743Y530732D01*
X227851Y530757D01*
X227960Y530778D01*
X228070Y530795D01*
X228180Y530809D01*
X228290Y530818D01*
X228401Y530824D01*
X228512Y530826D01*
X228623Y530824D01*
X228734Y530818D01*
X228844Y530809D01*
X228954Y530795D01*
X229064Y530778D01*
X229173Y530757D01*
X229281Y530732D01*
X229388Y530703D01*
X229494Y530670D01*
X229599Y530634D01*
X229703Y530595D01*
X229805Y530551D01*
X229906Y530504D01*
X230004Y530454D01*
X230102Y530400D01*
X230197Y530343D01*
X230290Y530283D01*
X230381Y530219D01*
X230469Y530152D01*
X230555Y530082D01*
X230639Y530009D01*
X230720Y529934D01*
X230799Y529855D01*
X230874Y529774D01*
X230947Y529690D01*
X231017Y529604D01*
X231084Y529516D01*
X231148Y529425D01*
X231208Y529332D01*
X231265Y529237D01*
X231319Y529139D01*
X231369Y529041D01*
X231416Y528940D01*
X231460Y528838D01*
X231499Y528734D01*
X231535Y528629D01*
X231568Y528523D01*
X231597Y528416D01*
X231622Y528308D01*
X231643Y528199D01*
X231660Y528089D01*
X231674Y527979D01*
X231683Y527869D01*
X231689Y527758D01*
X231691Y527647D01*
X231691Y522561D01*
X231689Y522450D01*
X231683Y522339D01*
X231674Y522229D01*
X231660Y522119D01*
X231643Y522009D01*
X231622Y521900D01*
X231597Y521792D01*
X231568Y521685D01*
X231535Y521579D01*
X231499Y521474D01*
X231460Y521370D01*
X231416Y521268D01*
X231369Y521167D01*
X231319Y521069D01*
X231265Y520971D01*
X231208Y520876D01*
X231148Y520783D01*
X231084Y520692D01*
X231017Y520604D01*
X230947Y520518D01*
X230874Y520434D01*
X230799Y520353D01*
X230720Y520274D01*
X230639Y520199D01*
X230555Y520126D01*
X230469Y520056D01*
X230381Y519989D01*
X230290Y519925D01*
X230197Y519865D01*
X230101Y519808D01*
X230004Y519754D01*
X229906Y519704D01*
X229805Y519657D01*
X229703Y519613D01*
X229599Y519574D01*
X229494Y519538D01*
X229388Y519505D01*
X229281Y519476D01*
X229173Y519451D01*
X229064Y519430D01*
X228954Y519413D01*
X228844Y519399D01*
X228734Y519390D01*
X228623Y519384D01*
X228512Y519382D01*
X228401Y519384D01*
X228290Y519390D01*
X228180Y519399D01*
X228070Y519413D01*
X227960Y519430D01*
X227851Y519451D01*
X227743Y519476D01*
X227636Y519505D01*
X227530Y519538D01*
X227425Y519574D01*
X227321Y519613D01*
X227219Y519657D01*
X227118Y519704D01*
X227020Y519754D01*
X226923Y519808D01*
X226827Y519865D01*
X226734Y519925D01*
X226643Y519989D01*
X226555Y520056D01*
X226469Y520126D01*
X226385Y520199D01*
X226304Y520274D01*
X226225Y520353D01*
X226150Y520434D01*
X226077Y520518D01*
X226007Y520604D01*
X225940Y520692D01*
X225876Y520783D01*
X225816Y520876D01*
X225759Y520972D01*
X225705Y521069D01*
X225655Y521167D01*
X225608Y521268D01*
X225564Y521370D01*
X225525Y521474D01*
X225489Y521579D01*
X225456Y521685D01*
X225427Y521792D01*
X225402Y521900D01*
X225381Y522009D01*
X225364Y522119D01*
X225350Y522229D01*
X225341Y522339D01*
X225335Y522450D01*
X225333Y522561D01*
X239192Y519382D02*
X239192Y530826D01*
X236013Y530826D02*
X242371Y530826D01*
X246693Y527647D02*
X246693Y522561D01*
X246693Y527647D02*
X246695Y527758D01*
X246701Y527869D01*
X246710Y527979D01*
X246724Y528089D01*
X246741Y528199D01*
X246762Y528308D01*
X246787Y528416D01*
X246816Y528523D01*
X246849Y528629D01*
X246885Y528734D01*
X246924Y528838D01*
X246968Y528940D01*
X247015Y529041D01*
X247065Y529139D01*
X247119Y529237D01*
X247176Y529332D01*
X247236Y529425D01*
X247300Y529516D01*
X247367Y529604D01*
X247437Y529690D01*
X247510Y529774D01*
X247585Y529855D01*
X247664Y529934D01*
X247745Y530009D01*
X247829Y530082D01*
X247915Y530152D01*
X248003Y530219D01*
X248094Y530283D01*
X248187Y530343D01*
X248283Y530400D01*
X248380Y530454D01*
X248478Y530504D01*
X248579Y530551D01*
X248681Y530595D01*
X248785Y530634D01*
X248890Y530670D01*
X248996Y530703D01*
X249103Y530732D01*
X249211Y530757D01*
X249320Y530778D01*
X249430Y530795D01*
X249540Y530809D01*
X249650Y530818D01*
X249761Y530824D01*
X249872Y530826D01*
X249983Y530824D01*
X250094Y530818D01*
X250204Y530809D01*
X250314Y530795D01*
X250424Y530778D01*
X250533Y530757D01*
X250641Y530732D01*
X250748Y530703D01*
X250854Y530670D01*
X250959Y530634D01*
X251063Y530595D01*
X251165Y530551D01*
X251266Y530504D01*
X251364Y530454D01*
X251462Y530400D01*
X251557Y530343D01*
X251650Y530283D01*
X251741Y530219D01*
X251829Y530152D01*
X251915Y530082D01*
X251999Y530009D01*
X252080Y529934D01*
X252159Y529855D01*
X252234Y529774D01*
X252307Y529690D01*
X252377Y529604D01*
X252444Y529516D01*
X252508Y529425D01*
X252568Y529332D01*
X252625Y529237D01*
X252679Y529139D01*
X252729Y529041D01*
X252776Y528940D01*
X252820Y528838D01*
X252859Y528734D01*
X252895Y528629D01*
X252928Y528523D01*
X252957Y528416D01*
X252982Y528308D01*
X253003Y528199D01*
X253020Y528089D01*
X253034Y527979D01*
X253043Y527869D01*
X253049Y527758D01*
X253051Y527647D01*
X253051Y522561D01*
X253049Y522450D01*
X253043Y522339D01*
X253034Y522229D01*
X253020Y522119D01*
X253003Y522009D01*
X252982Y521900D01*
X252957Y521792D01*
X252928Y521685D01*
X252895Y521579D01*
X252859Y521474D01*
X252820Y521370D01*
X252776Y521268D01*
X252729Y521167D01*
X252679Y521069D01*
X252625Y520971D01*
X252568Y520876D01*
X252508Y520783D01*
X252444Y520692D01*
X252377Y520604D01*
X252307Y520518D01*
X252234Y520434D01*
X252159Y520353D01*
X252080Y520274D01*
X251999Y520199D01*
X251915Y520126D01*
X251829Y520056D01*
X251741Y519989D01*
X251650Y519925D01*
X251557Y519865D01*
X251461Y519808D01*
X251364Y519754D01*
X251266Y519704D01*
X251165Y519657D01*
X251063Y519613D01*
X250959Y519574D01*
X250854Y519538D01*
X250748Y519505D01*
X250641Y519476D01*
X250533Y519451D01*
X250424Y519430D01*
X250314Y519413D01*
X250204Y519399D01*
X250094Y519390D01*
X249983Y519384D01*
X249872Y519382D01*
X249761Y519384D01*
X249650Y519390D01*
X249540Y519399D01*
X249430Y519413D01*
X249320Y519430D01*
X249211Y519451D01*
X249103Y519476D01*
X248996Y519505D01*
X248890Y519538D01*
X248785Y519574D01*
X248681Y519613D01*
X248579Y519657D01*
X248478Y519704D01*
X248380Y519754D01*
X248283Y519808D01*
X248187Y519865D01*
X248094Y519925D01*
X248003Y519989D01*
X247915Y520056D01*
X247829Y520126D01*
X247745Y520199D01*
X247664Y520274D01*
X247585Y520353D01*
X247510Y520434D01*
X247437Y520518D01*
X247367Y520604D01*
X247300Y520692D01*
X247236Y520783D01*
X247176Y520876D01*
X247119Y520972D01*
X247065Y521069D01*
X247015Y521167D01*
X246968Y521268D01*
X246924Y521370D01*
X246885Y521474D01*
X246849Y521579D01*
X246816Y521685D01*
X246787Y521792D01*
X246762Y521900D01*
X246741Y522009D01*
X246724Y522119D01*
X246710Y522229D01*
X246701Y522339D01*
X246695Y522450D01*
X246693Y522561D01*
X258601Y519382D02*
X258601Y530826D01*
X261780Y530826D01*
X261891Y530824D01*
X262002Y530818D01*
X262112Y530809D01*
X262222Y530795D01*
X262332Y530778D01*
X262441Y530757D01*
X262549Y530732D01*
X262656Y530703D01*
X262762Y530670D01*
X262867Y530634D01*
X262971Y530595D01*
X263073Y530551D01*
X263174Y530504D01*
X263272Y530454D01*
X263370Y530400D01*
X263465Y530343D01*
X263558Y530283D01*
X263649Y530219D01*
X263737Y530152D01*
X263823Y530082D01*
X263907Y530009D01*
X263988Y529934D01*
X264067Y529855D01*
X264142Y529774D01*
X264215Y529690D01*
X264285Y529604D01*
X264352Y529516D01*
X264416Y529425D01*
X264476Y529332D01*
X264533Y529236D01*
X264587Y529139D01*
X264637Y529041D01*
X264684Y528940D01*
X264728Y528838D01*
X264767Y528734D01*
X264803Y528629D01*
X264836Y528523D01*
X264865Y528416D01*
X264890Y528308D01*
X264911Y528199D01*
X264928Y528089D01*
X264942Y527979D01*
X264951Y527869D01*
X264957Y527758D01*
X264959Y527647D01*
X264957Y527536D01*
X264951Y527425D01*
X264942Y527315D01*
X264928Y527205D01*
X264911Y527095D01*
X264890Y526986D01*
X264865Y526878D01*
X264836Y526771D01*
X264803Y526665D01*
X264767Y526560D01*
X264728Y526456D01*
X264684Y526354D01*
X264637Y526253D01*
X264587Y526155D01*
X264533Y526058D01*
X264476Y525962D01*
X264416Y525869D01*
X264352Y525778D01*
X264285Y525690D01*
X264215Y525604D01*
X264142Y525520D01*
X264067Y525439D01*
X263988Y525360D01*
X263907Y525285D01*
X263823Y525212D01*
X263737Y525142D01*
X263649Y525075D01*
X263558Y525011D01*
X263465Y524951D01*
X263370Y524894D01*
X263272Y524840D01*
X263174Y524790D01*
X263073Y524743D01*
X262971Y524699D01*
X262867Y524660D01*
X262762Y524624D01*
X262656Y524591D01*
X262549Y524562D01*
X262441Y524537D01*
X262332Y524516D01*
X262222Y524499D01*
X262112Y524485D01*
X262002Y524476D01*
X261891Y524470D01*
X261780Y524468D01*
X258601Y524468D01*
X262416Y524468D02*
X264959Y519382D01*
X269452Y518110D02*
X274539Y518110D01*
X279497Y519382D02*
X279497Y530826D01*
X282676Y530826D01*
X282787Y530824D01*
X282898Y530818D01*
X283008Y530809D01*
X283118Y530795D01*
X283228Y530778D01*
X283337Y530757D01*
X283445Y530732D01*
X283552Y530703D01*
X283658Y530670D01*
X283763Y530634D01*
X283867Y530595D01*
X283969Y530551D01*
X284070Y530504D01*
X284168Y530454D01*
X284266Y530400D01*
X284361Y530343D01*
X284454Y530283D01*
X284545Y530219D01*
X284633Y530152D01*
X284719Y530082D01*
X284803Y530009D01*
X284884Y529934D01*
X284963Y529855D01*
X285038Y529774D01*
X285111Y529690D01*
X285181Y529604D01*
X285248Y529516D01*
X285312Y529425D01*
X285372Y529332D01*
X285429Y529237D01*
X285483Y529139D01*
X285533Y529041D01*
X285580Y528940D01*
X285624Y528838D01*
X285663Y528734D01*
X285699Y528629D01*
X285732Y528523D01*
X285761Y528416D01*
X285786Y528308D01*
X285807Y528199D01*
X285824Y528089D01*
X285838Y527979D01*
X285847Y527869D01*
X285853Y527758D01*
X285855Y527647D01*
X285855Y522561D01*
X285853Y522450D01*
X285847Y522339D01*
X285838Y522229D01*
X285824Y522119D01*
X285807Y522009D01*
X285786Y521900D01*
X285761Y521792D01*
X285732Y521685D01*
X285699Y521579D01*
X285663Y521474D01*
X285624Y521370D01*
X285580Y521268D01*
X285533Y521167D01*
X285483Y521069D01*
X285429Y520971D01*
X285372Y520876D01*
X285312Y520783D01*
X285248Y520692D01*
X285181Y520604D01*
X285111Y520518D01*
X285038Y520434D01*
X284963Y520353D01*
X284884Y520274D01*
X284803Y520199D01*
X284719Y520126D01*
X284633Y520056D01*
X284545Y519989D01*
X284454Y519925D01*
X284361Y519865D01*
X284266Y519808D01*
X284168Y519754D01*
X284070Y519704D01*
X283969Y519657D01*
X283867Y519613D01*
X283763Y519574D01*
X283658Y519538D01*
X283552Y519505D01*
X283445Y519476D01*
X283337Y519451D01*
X283228Y519430D01*
X283118Y519413D01*
X283008Y519399D01*
X282898Y519390D01*
X282787Y519384D01*
X282676Y519382D01*
X279497Y519382D01*
X291786Y519382D02*
X291786Y530826D01*
X294965Y530826D01*
X295076Y530824D01*
X295187Y530818D01*
X295297Y530809D01*
X295407Y530795D01*
X295517Y530778D01*
X295626Y530757D01*
X295734Y530732D01*
X295841Y530703D01*
X295947Y530670D01*
X296052Y530634D01*
X296156Y530595D01*
X296258Y530551D01*
X296359Y530504D01*
X296457Y530454D01*
X296555Y530400D01*
X296650Y530343D01*
X296743Y530283D01*
X296834Y530219D01*
X296922Y530152D01*
X297008Y530082D01*
X297092Y530009D01*
X297173Y529934D01*
X297252Y529855D01*
X297327Y529774D01*
X297400Y529690D01*
X297470Y529604D01*
X297537Y529516D01*
X297601Y529425D01*
X297661Y529332D01*
X297718Y529236D01*
X297772Y529139D01*
X297822Y529041D01*
X297869Y528940D01*
X297913Y528838D01*
X297952Y528734D01*
X297988Y528629D01*
X298021Y528523D01*
X298050Y528416D01*
X298075Y528308D01*
X298096Y528199D01*
X298113Y528089D01*
X298127Y527979D01*
X298136Y527869D01*
X298142Y527758D01*
X298144Y527647D01*
X298142Y527536D01*
X298136Y527425D01*
X298127Y527315D01*
X298113Y527205D01*
X298096Y527095D01*
X298075Y526986D01*
X298050Y526878D01*
X298021Y526771D01*
X297988Y526665D01*
X297952Y526560D01*
X297913Y526456D01*
X297869Y526354D01*
X297822Y526253D01*
X297772Y526155D01*
X297718Y526058D01*
X297661Y525962D01*
X297601Y525869D01*
X297537Y525778D01*
X297470Y525690D01*
X297400Y525604D01*
X297327Y525520D01*
X297252Y525439D01*
X297173Y525360D01*
X297092Y525285D01*
X297008Y525212D01*
X296922Y525142D01*
X296834Y525075D01*
X296743Y525011D01*
X296650Y524951D01*
X296555Y524894D01*
X296457Y524840D01*
X296359Y524790D01*
X296258Y524743D01*
X296156Y524699D01*
X296052Y524660D01*
X295947Y524624D01*
X295841Y524591D01*
X295734Y524562D01*
X295626Y524537D01*
X295517Y524516D01*
X295407Y524499D01*
X295297Y524485D01*
X295187Y524476D01*
X295076Y524470D01*
X294965Y524468D01*
X291786Y524468D01*
X295601Y524468D02*
X298144Y519382D01*
X304037Y519382D02*
X304037Y530826D01*
X302765Y519382D02*
X305308Y519382D01*
X305308Y530826D02*
X302765Y530826D01*
X309376Y530826D02*
X313191Y519382D01*
X317006Y530826D01*
X321862Y519382D02*
X326949Y519382D01*
X321862Y519382D02*
X321862Y530826D01*
X326949Y530826D01*
X325677Y525740D02*
X321862Y525740D01*
X331837Y530826D02*
X331837Y519382D01*
X331837Y530826D02*
X335016Y530826D01*
X335127Y530824D01*
X335238Y530818D01*
X335348Y530809D01*
X335458Y530795D01*
X335568Y530778D01*
X335677Y530757D01*
X335785Y530732D01*
X335892Y530703D01*
X335998Y530670D01*
X336103Y530634D01*
X336207Y530595D01*
X336309Y530551D01*
X336410Y530504D01*
X336508Y530454D01*
X336606Y530400D01*
X336701Y530343D01*
X336794Y530283D01*
X336885Y530219D01*
X336973Y530152D01*
X337059Y530082D01*
X337143Y530009D01*
X337224Y529934D01*
X337303Y529855D01*
X337378Y529774D01*
X337451Y529690D01*
X337521Y529604D01*
X337588Y529516D01*
X337652Y529425D01*
X337712Y529332D01*
X337769Y529236D01*
X337823Y529139D01*
X337873Y529041D01*
X337920Y528940D01*
X337964Y528838D01*
X338003Y528734D01*
X338039Y528629D01*
X338072Y528523D01*
X338101Y528416D01*
X338126Y528308D01*
X338147Y528199D01*
X338164Y528089D01*
X338178Y527979D01*
X338187Y527869D01*
X338193Y527758D01*
X338195Y527647D01*
X338193Y527536D01*
X338187Y527425D01*
X338178Y527315D01*
X338164Y527205D01*
X338147Y527095D01*
X338126Y526986D01*
X338101Y526878D01*
X338072Y526771D01*
X338039Y526665D01*
X338003Y526560D01*
X337964Y526456D01*
X337920Y526354D01*
X337873Y526253D01*
X337823Y526155D01*
X337769Y526058D01*
X337712Y525962D01*
X337652Y525869D01*
X337588Y525778D01*
X337521Y525690D01*
X337451Y525604D01*
X337378Y525520D01*
X337303Y525439D01*
X337224Y525360D01*
X337143Y525285D01*
X337059Y525212D01*
X336973Y525142D01*
X336885Y525075D01*
X336794Y525011D01*
X336701Y524951D01*
X336606Y524894D01*
X336508Y524840D01*
X336410Y524790D01*
X336309Y524743D01*
X336207Y524699D01*
X336103Y524660D01*
X335998Y524624D01*
X335892Y524591D01*
X335785Y524562D01*
X335677Y524537D01*
X335568Y524516D01*
X335458Y524499D01*
X335348Y524485D01*
X335238Y524476D01*
X335127Y524470D01*
X335016Y524468D01*
X331837Y524468D01*
X335652Y524468D02*
X338195Y519382D01*
X37683Y675313D02*
X37683Y829313D01*
X117683Y829313D01*
X117683Y675313D01*
X37683Y675313D01*
D13*
X98908Y726913D02*
X98910Y726976D01*
X98916Y727038D01*
X98926Y727100D01*
X98939Y727162D01*
X98957Y727222D01*
X98978Y727281D01*
X99003Y727339D01*
X99032Y727395D01*
X99064Y727449D01*
X99099Y727501D01*
X99137Y727550D01*
X99179Y727598D01*
X99223Y727642D01*
X99271Y727684D01*
X99320Y727722D01*
X99372Y727757D01*
X99426Y727789D01*
X99482Y727818D01*
X99540Y727843D01*
X99599Y727864D01*
X99659Y727882D01*
X99721Y727895D01*
X99783Y727905D01*
X99845Y727911D01*
X99908Y727913D01*
X99971Y727911D01*
X100033Y727905D01*
X100095Y727895D01*
X100157Y727882D01*
X100217Y727864D01*
X100276Y727843D01*
X100334Y727818D01*
X100390Y727789D01*
X100444Y727757D01*
X100496Y727722D01*
X100545Y727684D01*
X100593Y727642D01*
X100637Y727598D01*
X100679Y727550D01*
X100717Y727501D01*
X100752Y727449D01*
X100784Y727395D01*
X100813Y727339D01*
X100838Y727281D01*
X100859Y727222D01*
X100877Y727162D01*
X100890Y727100D01*
X100900Y727038D01*
X100906Y726976D01*
X100908Y726913D01*
X100906Y726850D01*
X100900Y726788D01*
X100890Y726726D01*
X100877Y726664D01*
X100859Y726604D01*
X100838Y726545D01*
X100813Y726487D01*
X100784Y726431D01*
X100752Y726377D01*
X100717Y726325D01*
X100679Y726276D01*
X100637Y726228D01*
X100593Y726184D01*
X100545Y726142D01*
X100496Y726104D01*
X100444Y726069D01*
X100390Y726037D01*
X100334Y726008D01*
X100276Y725983D01*
X100217Y725962D01*
X100157Y725944D01*
X100095Y725931D01*
X100033Y725921D01*
X99971Y725915D01*
X99908Y725913D01*
X99845Y725915D01*
X99783Y725921D01*
X99721Y725931D01*
X99659Y725944D01*
X99599Y725962D01*
X99540Y725983D01*
X99482Y726008D01*
X99426Y726037D01*
X99372Y726069D01*
X99320Y726104D01*
X99271Y726142D01*
X99223Y726184D01*
X99179Y726228D01*
X99137Y726276D01*
X99099Y726325D01*
X99064Y726377D01*
X99032Y726431D01*
X99003Y726487D01*
X98978Y726545D01*
X98957Y726604D01*
X98939Y726664D01*
X98926Y726726D01*
X98916Y726788D01*
X98910Y726850D01*
X98908Y726913D01*
X76683Y667813D02*
X76685Y667876D01*
X76691Y667938D01*
X76701Y668000D01*
X76714Y668062D01*
X76732Y668122D01*
X76753Y668181D01*
X76778Y668239D01*
X76807Y668295D01*
X76839Y668349D01*
X76874Y668401D01*
X76912Y668450D01*
X76954Y668498D01*
X76998Y668542D01*
X77046Y668584D01*
X77095Y668622D01*
X77147Y668657D01*
X77201Y668689D01*
X77257Y668718D01*
X77315Y668743D01*
X77374Y668764D01*
X77434Y668782D01*
X77496Y668795D01*
X77558Y668805D01*
X77620Y668811D01*
X77683Y668813D01*
X77746Y668811D01*
X77808Y668805D01*
X77870Y668795D01*
X77932Y668782D01*
X77992Y668764D01*
X78051Y668743D01*
X78109Y668718D01*
X78165Y668689D01*
X78219Y668657D01*
X78271Y668622D01*
X78320Y668584D01*
X78368Y668542D01*
X78412Y668498D01*
X78454Y668450D01*
X78492Y668401D01*
X78527Y668349D01*
X78559Y668295D01*
X78588Y668239D01*
X78613Y668181D01*
X78634Y668122D01*
X78652Y668062D01*
X78665Y668000D01*
X78675Y667938D01*
X78681Y667876D01*
X78683Y667813D01*
X78681Y667750D01*
X78675Y667688D01*
X78665Y667626D01*
X78652Y667564D01*
X78634Y667504D01*
X78613Y667445D01*
X78588Y667387D01*
X78559Y667331D01*
X78527Y667277D01*
X78492Y667225D01*
X78454Y667176D01*
X78412Y667128D01*
X78368Y667084D01*
X78320Y667042D01*
X78271Y667004D01*
X78219Y666969D01*
X78165Y666937D01*
X78109Y666908D01*
X78051Y666883D01*
X77992Y666862D01*
X77932Y666844D01*
X77870Y666831D01*
X77808Y666821D01*
X77746Y666815D01*
X77683Y666813D01*
X77620Y666815D01*
X77558Y666821D01*
X77496Y666831D01*
X77434Y666844D01*
X77374Y666862D01*
X77315Y666883D01*
X77257Y666908D01*
X77201Y666937D01*
X77147Y666969D01*
X77095Y667004D01*
X77046Y667042D01*
X76998Y667084D01*
X76954Y667128D01*
X76912Y667176D01*
X76874Y667225D01*
X76839Y667277D01*
X76807Y667331D01*
X76778Y667387D01*
X76753Y667445D01*
X76732Y667504D01*
X76714Y667564D01*
X76701Y667626D01*
X76691Y667688D01*
X76685Y667750D01*
X76683Y667813D01*
D11*
X26304Y676621D02*
X21111Y676621D01*
X20998Y676623D01*
X20885Y676629D01*
X20772Y676639D01*
X20659Y676653D01*
X20547Y676670D01*
X20436Y676692D01*
X20326Y676717D01*
X20216Y676747D01*
X20108Y676780D01*
X20001Y676817D01*
X19895Y676857D01*
X19791Y676902D01*
X19688Y676950D01*
X19587Y677001D01*
X19488Y677056D01*
X19391Y677114D01*
X19296Y677176D01*
X19203Y677241D01*
X19113Y677309D01*
X19025Y677380D01*
X18939Y677455D01*
X18856Y677532D01*
X18776Y677612D01*
X18699Y677695D01*
X18624Y677781D01*
X18553Y677869D01*
X18485Y677959D01*
X18420Y678052D01*
X18358Y678147D01*
X18300Y678244D01*
X18245Y678343D01*
X18194Y678444D01*
X18146Y678547D01*
X18101Y678651D01*
X18061Y678757D01*
X18024Y678864D01*
X17991Y678972D01*
X17961Y679082D01*
X17936Y679192D01*
X17914Y679303D01*
X17897Y679415D01*
X17883Y679528D01*
X17873Y679641D01*
X17867Y679754D01*
X17865Y679867D01*
X17867Y679980D01*
X17873Y680093D01*
X17883Y680206D01*
X17897Y680319D01*
X17914Y680431D01*
X17936Y680542D01*
X17961Y680652D01*
X17991Y680762D01*
X18024Y680870D01*
X18061Y680977D01*
X18101Y681083D01*
X18146Y681187D01*
X18194Y681290D01*
X18245Y681391D01*
X18300Y681490D01*
X18358Y681587D01*
X18420Y681682D01*
X18485Y681775D01*
X18553Y681865D01*
X18624Y681953D01*
X18699Y682039D01*
X18776Y682122D01*
X18856Y682202D01*
X18939Y682279D01*
X19025Y682354D01*
X19113Y682425D01*
X19203Y682493D01*
X19296Y682558D01*
X19391Y682620D01*
X19488Y682678D01*
X19587Y682733D01*
X19688Y682784D01*
X19791Y682832D01*
X19895Y682877D01*
X20001Y682917D01*
X20108Y682954D01*
X20216Y682987D01*
X20326Y683017D01*
X20436Y683042D01*
X20547Y683064D01*
X20659Y683081D01*
X20772Y683095D01*
X20885Y683105D01*
X20998Y683111D01*
X21111Y683113D01*
X21111Y683112D02*
X26304Y683112D01*
X26304Y683113D02*
X26417Y683111D01*
X26530Y683105D01*
X26643Y683095D01*
X26756Y683081D01*
X26868Y683064D01*
X26979Y683042D01*
X27089Y683017D01*
X27199Y682987D01*
X27307Y682954D01*
X27414Y682917D01*
X27520Y682877D01*
X27624Y682832D01*
X27727Y682784D01*
X27828Y682733D01*
X27927Y682678D01*
X28024Y682620D01*
X28119Y682558D01*
X28212Y682493D01*
X28302Y682425D01*
X28390Y682354D01*
X28476Y682279D01*
X28559Y682202D01*
X28639Y682122D01*
X28716Y682039D01*
X28791Y681953D01*
X28862Y681865D01*
X28930Y681775D01*
X28995Y681682D01*
X29057Y681587D01*
X29115Y681490D01*
X29170Y681391D01*
X29221Y681290D01*
X29269Y681187D01*
X29314Y681083D01*
X29354Y680977D01*
X29391Y680870D01*
X29424Y680762D01*
X29454Y680652D01*
X29479Y680542D01*
X29501Y680431D01*
X29518Y680319D01*
X29532Y680206D01*
X29542Y680093D01*
X29548Y679980D01*
X29550Y679867D01*
X29548Y679754D01*
X29542Y679641D01*
X29532Y679528D01*
X29518Y679415D01*
X29501Y679303D01*
X29479Y679192D01*
X29454Y679082D01*
X29424Y678972D01*
X29391Y678864D01*
X29354Y678757D01*
X29314Y678651D01*
X29269Y678547D01*
X29221Y678444D01*
X29170Y678343D01*
X29115Y678244D01*
X29057Y678147D01*
X28995Y678052D01*
X28930Y677959D01*
X28862Y677869D01*
X28791Y677781D01*
X28716Y677695D01*
X28639Y677612D01*
X28559Y677532D01*
X28476Y677455D01*
X28390Y677380D01*
X28302Y677309D01*
X28212Y677241D01*
X28119Y677176D01*
X28024Y677114D01*
X27927Y677056D01*
X27828Y677001D01*
X27727Y676950D01*
X27624Y676902D01*
X27520Y676857D01*
X27414Y676817D01*
X27307Y676780D01*
X27199Y676747D01*
X27089Y676717D01*
X26979Y676692D01*
X26868Y676670D01*
X26756Y676653D01*
X26643Y676639D01*
X26530Y676629D01*
X26417Y676623D01*
X26304Y676621D01*
X26953Y681814D02*
X29550Y684411D01*
X20462Y687765D02*
X17866Y691011D01*
X29550Y691011D01*
X29550Y694256D02*
X29550Y687765D01*
D10*
X498218Y512011D02*
X511218Y512011D01*
X498218Y512011D02*
X494218Y512011D01*
X494218Y524511D02*
X498218Y524511D01*
X511218Y524511D01*
X498218Y524511D02*
X498218Y512011D01*
D12*
X467790Y512964D02*
X467790Y503693D01*
X467790Y512964D02*
X470365Y512964D01*
X470464Y512962D01*
X470562Y512956D01*
X470660Y512947D01*
X470758Y512934D01*
X470855Y512917D01*
X470952Y512896D01*
X471047Y512872D01*
X471142Y512844D01*
X471235Y512812D01*
X471328Y512777D01*
X471418Y512739D01*
X471508Y512697D01*
X471595Y512651D01*
X471681Y512602D01*
X471765Y512550D01*
X471846Y512495D01*
X471926Y512437D01*
X472003Y512376D01*
X472078Y512311D01*
X472151Y512244D01*
X472220Y512175D01*
X472287Y512102D01*
X472352Y512027D01*
X472413Y511950D01*
X472471Y511870D01*
X472526Y511789D01*
X472578Y511705D01*
X472627Y511619D01*
X472673Y511532D01*
X472715Y511442D01*
X472753Y511352D01*
X472788Y511259D01*
X472820Y511166D01*
X472848Y511071D01*
X472872Y510976D01*
X472893Y510879D01*
X472910Y510782D01*
X472923Y510684D01*
X472932Y510586D01*
X472938Y510488D01*
X472940Y510389D01*
X472941Y510389D02*
X472941Y506268D01*
X472940Y506268D02*
X472938Y506169D01*
X472932Y506071D01*
X472923Y505973D01*
X472910Y505875D01*
X472893Y505778D01*
X472872Y505681D01*
X472848Y505586D01*
X472820Y505491D01*
X472788Y505398D01*
X472753Y505305D01*
X472715Y505215D01*
X472673Y505125D01*
X472627Y505038D01*
X472578Y504952D01*
X472526Y504868D01*
X472471Y504787D01*
X472413Y504707D01*
X472352Y504630D01*
X472287Y504555D01*
X472220Y504482D01*
X472151Y504413D01*
X472078Y504346D01*
X472003Y504281D01*
X471926Y504220D01*
X471846Y504162D01*
X471765Y504107D01*
X471681Y504055D01*
X471595Y504006D01*
X471508Y503960D01*
X471418Y503918D01*
X471328Y503880D01*
X471235Y503845D01*
X471142Y503813D01*
X471047Y503785D01*
X470952Y503761D01*
X470855Y503740D01*
X470758Y503723D01*
X470660Y503710D01*
X470562Y503701D01*
X470464Y503695D01*
X470365Y503693D01*
X467790Y503693D01*
X477121Y510904D02*
X479696Y512964D01*
X479696Y503693D01*
X477121Y503693D02*
X482271Y503693D01*
D17*
X503767Y528014D02*
X503767Y542014D01*
X511767Y542014D01*
X511767Y528014D01*
X503767Y528014D01*
D12*
X514199Y512461D02*
X523470Y512461D01*
X514199Y512461D02*
X514199Y515036D01*
X514201Y515135D01*
X514207Y515233D01*
X514216Y515331D01*
X514229Y515429D01*
X514246Y515526D01*
X514267Y515623D01*
X514291Y515718D01*
X514319Y515813D01*
X514351Y515906D01*
X514386Y515999D01*
X514424Y516089D01*
X514466Y516179D01*
X514512Y516266D01*
X514561Y516352D01*
X514613Y516436D01*
X514668Y516517D01*
X514726Y516597D01*
X514787Y516674D01*
X514852Y516749D01*
X514919Y516822D01*
X514988Y516891D01*
X515061Y516958D01*
X515136Y517023D01*
X515213Y517084D01*
X515293Y517142D01*
X515374Y517197D01*
X515458Y517249D01*
X515544Y517298D01*
X515631Y517344D01*
X515721Y517386D01*
X515811Y517424D01*
X515904Y517459D01*
X515997Y517491D01*
X516092Y517519D01*
X516187Y517543D01*
X516284Y517564D01*
X516381Y517581D01*
X516479Y517594D01*
X516577Y517603D01*
X516675Y517609D01*
X516774Y517611D01*
X520895Y517611D01*
X520994Y517609D01*
X521092Y517603D01*
X521190Y517594D01*
X521288Y517581D01*
X521385Y517564D01*
X521482Y517543D01*
X521577Y517519D01*
X521672Y517491D01*
X521765Y517459D01*
X521858Y517424D01*
X521948Y517386D01*
X522038Y517344D01*
X522125Y517298D01*
X522211Y517249D01*
X522295Y517197D01*
X522376Y517142D01*
X522456Y517084D01*
X522533Y517023D01*
X522608Y516958D01*
X522681Y516891D01*
X522750Y516822D01*
X522817Y516749D01*
X522882Y516674D01*
X522943Y516597D01*
X523001Y516517D01*
X523056Y516436D01*
X523108Y516352D01*
X523157Y516266D01*
X523203Y516179D01*
X523245Y516089D01*
X523283Y515999D01*
X523318Y515906D01*
X523350Y515813D01*
X523378Y515718D01*
X523402Y515623D01*
X523423Y515526D01*
X523440Y515429D01*
X523453Y515331D01*
X523462Y515233D01*
X523468Y515135D01*
X523470Y515036D01*
X523470Y512461D01*
X514199Y524624D02*
X514201Y524717D01*
X514207Y524811D01*
X514216Y524903D01*
X514229Y524996D01*
X514246Y525088D01*
X514266Y525179D01*
X514291Y525269D01*
X514318Y525358D01*
X514350Y525446D01*
X514384Y525533D01*
X514423Y525618D01*
X514465Y525701D01*
X514510Y525783D01*
X514558Y525863D01*
X514609Y525941D01*
X514664Y526017D01*
X514721Y526090D01*
X514782Y526161D01*
X514845Y526230D01*
X514911Y526296D01*
X514980Y526359D01*
X515051Y526420D01*
X515124Y526477D01*
X515200Y526532D01*
X515278Y526583D01*
X515358Y526631D01*
X515440Y526676D01*
X515523Y526718D01*
X515608Y526757D01*
X515695Y526791D01*
X515783Y526823D01*
X515872Y526850D01*
X515962Y526875D01*
X516053Y526895D01*
X516145Y526912D01*
X516238Y526925D01*
X516330Y526934D01*
X516424Y526940D01*
X516517Y526942D01*
X514199Y524624D02*
X514201Y524517D01*
X514207Y524410D01*
X514216Y524304D01*
X514230Y524197D01*
X514247Y524092D01*
X514268Y523987D01*
X514293Y523883D01*
X514321Y523780D01*
X514353Y523678D01*
X514389Y523577D01*
X514429Y523477D01*
X514472Y523379D01*
X514518Y523283D01*
X514568Y523188D01*
X514621Y523096D01*
X514678Y523005D01*
X514738Y522916D01*
X514800Y522829D01*
X514866Y522745D01*
X514935Y522663D01*
X515007Y522584D01*
X515082Y522508D01*
X515159Y522434D01*
X515239Y522363D01*
X515322Y522294D01*
X515407Y522229D01*
X515494Y522167D01*
X515583Y522108D01*
X515675Y522053D01*
X515768Y522000D01*
X515863Y521951D01*
X515960Y521906D01*
X516058Y521864D01*
X516158Y521826D01*
X516260Y521791D01*
X518319Y526170D02*
X518252Y526238D01*
X518182Y526303D01*
X518109Y526366D01*
X518034Y526426D01*
X517957Y526483D01*
X517878Y526537D01*
X517796Y526588D01*
X517713Y526636D01*
X517628Y526680D01*
X517541Y526721D01*
X517453Y526759D01*
X517364Y526794D01*
X517273Y526824D01*
X517181Y526852D01*
X517088Y526876D01*
X516994Y526896D01*
X516899Y526912D01*
X516804Y526925D01*
X516709Y526935D01*
X516613Y526940D01*
X516517Y526942D01*
X518319Y526169D02*
X523470Y521791D01*
X523470Y526942D01*
D17*
X487765Y528014D02*
X487765Y542014D01*
X495765Y542014D01*
X495765Y528014D01*
X487765Y528014D01*
D12*
X498197Y512461D02*
X507468Y512461D01*
X498197Y512461D02*
X498197Y515036D01*
X498199Y515135D01*
X498205Y515233D01*
X498214Y515331D01*
X498227Y515429D01*
X498244Y515526D01*
X498265Y515623D01*
X498289Y515718D01*
X498317Y515813D01*
X498349Y515906D01*
X498384Y515999D01*
X498422Y516089D01*
X498464Y516179D01*
X498510Y516266D01*
X498559Y516352D01*
X498611Y516436D01*
X498666Y516517D01*
X498724Y516597D01*
X498785Y516674D01*
X498850Y516749D01*
X498917Y516822D01*
X498986Y516891D01*
X499059Y516958D01*
X499134Y517023D01*
X499211Y517084D01*
X499291Y517142D01*
X499372Y517197D01*
X499456Y517249D01*
X499542Y517298D01*
X499629Y517344D01*
X499719Y517386D01*
X499809Y517424D01*
X499902Y517459D01*
X499995Y517491D01*
X500090Y517519D01*
X500185Y517543D01*
X500282Y517564D01*
X500379Y517581D01*
X500477Y517594D01*
X500575Y517603D01*
X500673Y517609D01*
X500772Y517611D01*
X504893Y517611D01*
X504992Y517609D01*
X505090Y517603D01*
X505188Y517594D01*
X505286Y517581D01*
X505383Y517564D01*
X505480Y517543D01*
X505575Y517519D01*
X505670Y517491D01*
X505763Y517459D01*
X505856Y517424D01*
X505946Y517386D01*
X506036Y517344D01*
X506123Y517298D01*
X506209Y517249D01*
X506293Y517197D01*
X506374Y517142D01*
X506454Y517084D01*
X506531Y517023D01*
X506606Y516958D01*
X506679Y516891D01*
X506748Y516822D01*
X506815Y516749D01*
X506880Y516674D01*
X506941Y516597D01*
X506999Y516517D01*
X507054Y516436D01*
X507106Y516352D01*
X507155Y516266D01*
X507201Y516179D01*
X507243Y516089D01*
X507281Y515999D01*
X507316Y515906D01*
X507348Y515813D01*
X507376Y515718D01*
X507400Y515623D01*
X507421Y515526D01*
X507438Y515429D01*
X507451Y515331D01*
X507460Y515233D01*
X507466Y515135D01*
X507468Y515036D01*
X507468Y512461D01*
X507468Y521791D02*
X507468Y524367D01*
X507466Y524467D01*
X507460Y524567D01*
X507451Y524666D01*
X507437Y524765D01*
X507420Y524863D01*
X507399Y524961D01*
X507374Y525058D01*
X507345Y525153D01*
X507313Y525248D01*
X507277Y525341D01*
X507237Y525433D01*
X507194Y525523D01*
X507148Y525611D01*
X507098Y525698D01*
X507044Y525782D01*
X506988Y525864D01*
X506928Y525944D01*
X506866Y526022D01*
X506800Y526097D01*
X506731Y526170D01*
X506660Y526240D01*
X506586Y526307D01*
X506510Y526371D01*
X506431Y526432D01*
X506349Y526491D01*
X506266Y526545D01*
X506181Y526597D01*
X506093Y526645D01*
X506004Y526690D01*
X505913Y526731D01*
X505820Y526769D01*
X505727Y526803D01*
X505632Y526834D01*
X505535Y526861D01*
X505438Y526884D01*
X505340Y526903D01*
X505241Y526918D01*
X505142Y526930D01*
X505043Y526938D01*
X504943Y526942D01*
X504843Y526942D01*
X504743Y526938D01*
X504644Y526930D01*
X504545Y526918D01*
X504446Y526903D01*
X504348Y526884D01*
X504251Y526861D01*
X504154Y526834D01*
X504059Y526803D01*
X503966Y526769D01*
X503873Y526731D01*
X503782Y526690D01*
X503693Y526645D01*
X503606Y526597D01*
X503520Y526545D01*
X503437Y526491D01*
X503355Y526432D01*
X503276Y526371D01*
X503200Y526307D01*
X503126Y526240D01*
X503055Y526170D01*
X502986Y526097D01*
X502920Y526022D01*
X502858Y525944D01*
X502798Y525864D01*
X502742Y525782D01*
X502688Y525698D01*
X502638Y525611D01*
X502592Y525523D01*
X502549Y525433D01*
X502509Y525341D01*
X502473Y525248D01*
X502441Y525153D01*
X502412Y525058D01*
X502387Y524961D01*
X502366Y524863D01*
X502349Y524765D01*
X502335Y524666D01*
X502326Y524567D01*
X502320Y524467D01*
X502318Y524367D01*
X498197Y524882D02*
X498197Y521791D01*
X498197Y524882D02*
X498199Y524972D01*
X498205Y525062D01*
X498215Y525151D01*
X498228Y525240D01*
X498246Y525328D01*
X498267Y525415D01*
X498292Y525501D01*
X498321Y525587D01*
X498354Y525670D01*
X498390Y525753D01*
X498430Y525833D01*
X498473Y525912D01*
X498520Y525989D01*
X498570Y526064D01*
X498623Y526136D01*
X498679Y526206D01*
X498738Y526274D01*
X498800Y526339D01*
X498865Y526401D01*
X498933Y526460D01*
X499003Y526516D01*
X499075Y526569D01*
X499150Y526619D01*
X499227Y526666D01*
X499306Y526709D01*
X499386Y526749D01*
X499469Y526785D01*
X499552Y526818D01*
X499638Y526847D01*
X499724Y526872D01*
X499811Y526893D01*
X499899Y526911D01*
X499988Y526924D01*
X500077Y526934D01*
X500167Y526940D01*
X500257Y526942D01*
X500347Y526940D01*
X500437Y526934D01*
X500526Y526924D01*
X500615Y526911D01*
X500703Y526893D01*
X500790Y526872D01*
X500876Y526847D01*
X500962Y526818D01*
X501045Y526785D01*
X501128Y526749D01*
X501208Y526709D01*
X501287Y526666D01*
X501364Y526619D01*
X501439Y526569D01*
X501511Y526516D01*
X501581Y526460D01*
X501649Y526401D01*
X501714Y526339D01*
X501776Y526274D01*
X501835Y526206D01*
X501891Y526136D01*
X501944Y526064D01*
X501994Y525989D01*
X502041Y525912D01*
X502084Y525833D01*
X502124Y525753D01*
X502160Y525670D01*
X502193Y525587D01*
X502222Y525501D01*
X502247Y525415D01*
X502268Y525328D01*
X502286Y525240D01*
X502299Y525151D01*
X502309Y525062D01*
X502315Y524972D01*
X502317Y524882D01*
X502317Y522822D01*
D17*
X520956Y528023D02*
X520956Y542023D01*
X528956Y542023D01*
X528956Y528023D01*
X520956Y528023D01*
D12*
X531388Y512470D02*
X540659Y512470D01*
X531388Y512470D02*
X531388Y515045D01*
X531390Y515144D01*
X531396Y515242D01*
X531405Y515340D01*
X531418Y515438D01*
X531435Y515535D01*
X531456Y515632D01*
X531480Y515727D01*
X531508Y515822D01*
X531540Y515915D01*
X531575Y516008D01*
X531613Y516098D01*
X531655Y516188D01*
X531701Y516275D01*
X531750Y516361D01*
X531802Y516445D01*
X531857Y516526D01*
X531915Y516606D01*
X531976Y516683D01*
X532041Y516758D01*
X532108Y516831D01*
X532177Y516900D01*
X532250Y516967D01*
X532325Y517032D01*
X532402Y517093D01*
X532482Y517151D01*
X532563Y517206D01*
X532647Y517258D01*
X532733Y517307D01*
X532820Y517353D01*
X532910Y517395D01*
X533000Y517433D01*
X533093Y517468D01*
X533186Y517500D01*
X533281Y517528D01*
X533376Y517552D01*
X533473Y517573D01*
X533570Y517590D01*
X533668Y517603D01*
X533766Y517612D01*
X533864Y517618D01*
X533963Y517620D01*
X538084Y517620D01*
X538183Y517618D01*
X538281Y517612D01*
X538379Y517603D01*
X538477Y517590D01*
X538574Y517573D01*
X538671Y517552D01*
X538766Y517528D01*
X538861Y517500D01*
X538954Y517468D01*
X539047Y517433D01*
X539137Y517395D01*
X539227Y517353D01*
X539314Y517307D01*
X539400Y517258D01*
X539484Y517206D01*
X539565Y517151D01*
X539645Y517093D01*
X539722Y517032D01*
X539797Y516967D01*
X539870Y516900D01*
X539939Y516831D01*
X540006Y516758D01*
X540071Y516683D01*
X540132Y516606D01*
X540190Y516526D01*
X540245Y516445D01*
X540297Y516361D01*
X540346Y516275D01*
X540392Y516188D01*
X540434Y516098D01*
X540472Y516008D01*
X540507Y515915D01*
X540539Y515822D01*
X540567Y515727D01*
X540591Y515632D01*
X540612Y515535D01*
X540629Y515438D01*
X540642Y515340D01*
X540651Y515242D01*
X540657Y515144D01*
X540659Y515045D01*
X540659Y512470D01*
X538599Y521800D02*
X531388Y523861D01*
X538599Y521800D02*
X538599Y526951D01*
X536539Y525406D02*
X540659Y525406D01*
D10*
X462465Y504190D02*
X462465Y486640D01*
X536465Y486640D02*
X536465Y504190D01*
X464265Y504190D02*
X462465Y504190D01*
X534665Y504190D02*
X536465Y504190D01*
X462465Y463890D02*
X462465Y461190D01*
X536465Y461190D02*
X536465Y463890D01*
X536465Y461190D02*
X462465Y461190D01*
D13*
X484965Y516690D02*
X484967Y516753D01*
X484973Y516815D01*
X484983Y516877D01*
X484996Y516939D01*
X485014Y516999D01*
X485035Y517058D01*
X485060Y517116D01*
X485089Y517172D01*
X485121Y517226D01*
X485156Y517278D01*
X485194Y517327D01*
X485236Y517375D01*
X485280Y517419D01*
X485328Y517461D01*
X485377Y517499D01*
X485429Y517534D01*
X485483Y517566D01*
X485539Y517595D01*
X485597Y517620D01*
X485656Y517641D01*
X485716Y517659D01*
X485778Y517672D01*
X485840Y517682D01*
X485902Y517688D01*
X485965Y517690D01*
X486028Y517688D01*
X486090Y517682D01*
X486152Y517672D01*
X486214Y517659D01*
X486274Y517641D01*
X486333Y517620D01*
X486391Y517595D01*
X486447Y517566D01*
X486501Y517534D01*
X486553Y517499D01*
X486602Y517461D01*
X486650Y517419D01*
X486694Y517375D01*
X486736Y517327D01*
X486774Y517278D01*
X486809Y517226D01*
X486841Y517172D01*
X486870Y517116D01*
X486895Y517058D01*
X486916Y516999D01*
X486934Y516939D01*
X486947Y516877D01*
X486957Y516815D01*
X486963Y516753D01*
X486965Y516690D01*
X486963Y516627D01*
X486957Y516565D01*
X486947Y516503D01*
X486934Y516441D01*
X486916Y516381D01*
X486895Y516322D01*
X486870Y516264D01*
X486841Y516208D01*
X486809Y516154D01*
X486774Y516102D01*
X486736Y516053D01*
X486694Y516005D01*
X486650Y515961D01*
X486602Y515919D01*
X486553Y515881D01*
X486501Y515846D01*
X486447Y515814D01*
X486391Y515785D01*
X486333Y515760D01*
X486274Y515739D01*
X486214Y515721D01*
X486152Y515708D01*
X486090Y515698D01*
X486028Y515692D01*
X485965Y515690D01*
X485902Y515692D01*
X485840Y515698D01*
X485778Y515708D01*
X485716Y515721D01*
X485656Y515739D01*
X485597Y515760D01*
X485539Y515785D01*
X485483Y515814D01*
X485429Y515846D01*
X485377Y515881D01*
X485328Y515919D01*
X485280Y515961D01*
X485236Y516005D01*
X485194Y516053D01*
X485156Y516102D01*
X485121Y516154D01*
X485089Y516208D01*
X485060Y516264D01*
X485035Y516322D01*
X485014Y516381D01*
X484996Y516441D01*
X484983Y516503D01*
X484973Y516565D01*
X484967Y516627D01*
X484965Y516690D01*
D11*
X463429Y522689D02*
X463429Y531786D01*
X463429Y522689D02*
X463427Y522589D01*
X463421Y522490D01*
X463412Y522391D01*
X463399Y522292D01*
X463381Y522194D01*
X463361Y522097D01*
X463336Y522000D01*
X463308Y521905D01*
X463276Y521810D01*
X463241Y521717D01*
X463202Y521626D01*
X463159Y521536D01*
X463113Y521447D01*
X463064Y521361D01*
X463012Y521276D01*
X462956Y521194D01*
X462897Y521113D01*
X462835Y521035D01*
X462770Y520960D01*
X462703Y520887D01*
X462632Y520816D01*
X462559Y520749D01*
X462484Y520684D01*
X462406Y520622D01*
X462325Y520563D01*
X462243Y520507D01*
X462158Y520455D01*
X462072Y520406D01*
X461983Y520360D01*
X461893Y520317D01*
X461802Y520278D01*
X461709Y520243D01*
X461614Y520211D01*
X461519Y520183D01*
X461422Y520158D01*
X461325Y520138D01*
X461227Y520120D01*
X461128Y520107D01*
X461029Y520098D01*
X460930Y520092D01*
X460830Y520090D01*
X460830Y520089D02*
X459530Y520089D01*
X468707Y529186D02*
X471956Y531786D01*
X471956Y520089D01*
X468707Y520089D02*
X475205Y520089D01*
D10*
X479236Y647640D02*
X479236Y658940D01*
X519036Y658940D01*
X519036Y647640D01*
X479236Y582840D02*
X479236Y571540D01*
X519036Y571540D01*
X519036Y582840D01*
D13*
X458136Y644240D02*
X458138Y644303D01*
X458144Y644365D01*
X458154Y644427D01*
X458167Y644489D01*
X458185Y644549D01*
X458206Y644608D01*
X458231Y644666D01*
X458260Y644722D01*
X458292Y644776D01*
X458327Y644828D01*
X458365Y644877D01*
X458407Y644925D01*
X458451Y644969D01*
X458499Y645011D01*
X458548Y645049D01*
X458600Y645084D01*
X458654Y645116D01*
X458710Y645145D01*
X458768Y645170D01*
X458827Y645191D01*
X458887Y645209D01*
X458949Y645222D01*
X459011Y645232D01*
X459073Y645238D01*
X459136Y645240D01*
X459199Y645238D01*
X459261Y645232D01*
X459323Y645222D01*
X459385Y645209D01*
X459445Y645191D01*
X459504Y645170D01*
X459562Y645145D01*
X459618Y645116D01*
X459672Y645084D01*
X459724Y645049D01*
X459773Y645011D01*
X459821Y644969D01*
X459865Y644925D01*
X459907Y644877D01*
X459945Y644828D01*
X459980Y644776D01*
X460012Y644722D01*
X460041Y644666D01*
X460066Y644608D01*
X460087Y644549D01*
X460105Y644489D01*
X460118Y644427D01*
X460128Y644365D01*
X460134Y644303D01*
X460136Y644240D01*
X460134Y644177D01*
X460128Y644115D01*
X460118Y644053D01*
X460105Y643991D01*
X460087Y643931D01*
X460066Y643872D01*
X460041Y643814D01*
X460012Y643758D01*
X459980Y643704D01*
X459945Y643652D01*
X459907Y643603D01*
X459865Y643555D01*
X459821Y643511D01*
X459773Y643469D01*
X459724Y643431D01*
X459672Y643396D01*
X459618Y643364D01*
X459562Y643335D01*
X459504Y643310D01*
X459445Y643289D01*
X459385Y643271D01*
X459323Y643258D01*
X459261Y643248D01*
X459199Y643242D01*
X459136Y643240D01*
X459073Y643242D01*
X459011Y643248D01*
X458949Y643258D01*
X458887Y643271D01*
X458827Y643289D01*
X458768Y643310D01*
X458710Y643335D01*
X458654Y643364D01*
X458600Y643396D01*
X458548Y643431D01*
X458499Y643469D01*
X458451Y643511D01*
X458407Y643555D01*
X458365Y643603D01*
X458327Y643652D01*
X458292Y643704D01*
X458260Y643758D01*
X458231Y643814D01*
X458206Y643872D01*
X458185Y643931D01*
X458167Y643991D01*
X458154Y644053D01*
X458144Y644115D01*
X458138Y644177D01*
X458136Y644240D01*
D12*
X476514Y665673D02*
X476514Y670993D01*
X476515Y665673D02*
X476517Y665584D01*
X476523Y665495D01*
X476533Y665406D01*
X476546Y665318D01*
X476563Y665230D01*
X476585Y665143D01*
X476610Y665058D01*
X476638Y664973D01*
X476671Y664890D01*
X476707Y664808D01*
X476746Y664728D01*
X476789Y664650D01*
X476835Y664574D01*
X476885Y664499D01*
X476938Y664427D01*
X476994Y664358D01*
X477053Y664291D01*
X477114Y664226D01*
X477179Y664165D01*
X477246Y664106D01*
X477315Y664050D01*
X477387Y663997D01*
X477462Y663947D01*
X477538Y663901D01*
X477616Y663858D01*
X477696Y663819D01*
X477778Y663783D01*
X477861Y663750D01*
X477946Y663722D01*
X478031Y663697D01*
X478118Y663675D01*
X478206Y663658D01*
X478294Y663645D01*
X478383Y663635D01*
X478472Y663629D01*
X478561Y663627D01*
X478650Y663629D01*
X478739Y663635D01*
X478828Y663645D01*
X478916Y663658D01*
X479004Y663675D01*
X479091Y663697D01*
X479176Y663722D01*
X479261Y663750D01*
X479344Y663783D01*
X479426Y663819D01*
X479506Y663858D01*
X479584Y663901D01*
X479660Y663947D01*
X479735Y663997D01*
X479807Y664050D01*
X479876Y664106D01*
X479943Y664165D01*
X480008Y664226D01*
X480069Y664291D01*
X480128Y664358D01*
X480184Y664427D01*
X480237Y664499D01*
X480287Y664574D01*
X480333Y664650D01*
X480376Y664728D01*
X480415Y664808D01*
X480451Y664890D01*
X480484Y664973D01*
X480512Y665058D01*
X480537Y665143D01*
X480559Y665230D01*
X480576Y665318D01*
X480589Y665406D01*
X480599Y665495D01*
X480605Y665584D01*
X480607Y665673D01*
X480607Y670993D01*
X484074Y669356D02*
X486121Y670993D01*
X486121Y663626D01*
X488167Y663626D02*
X484074Y663626D01*
D17*
X551420Y697865D02*
X551425Y698233D01*
X551438Y698601D01*
X551461Y698968D01*
X551492Y699335D01*
X551533Y699701D01*
X551582Y700066D01*
X551641Y700429D01*
X551708Y700791D01*
X551784Y701152D01*
X551870Y701510D01*
X551963Y701866D01*
X552066Y702219D01*
X552177Y702570D01*
X552297Y702918D01*
X552425Y703263D01*
X552562Y703605D01*
X552707Y703944D01*
X552860Y704278D01*
X553022Y704609D01*
X553191Y704936D01*
X553369Y705258D01*
X553554Y705577D01*
X553747Y705890D01*
X553948Y706199D01*
X554156Y706502D01*
X554372Y706800D01*
X554595Y707093D01*
X554825Y707381D01*
X555062Y707663D01*
X555306Y707938D01*
X555556Y708208D01*
X555813Y708472D01*
X556077Y708729D01*
X556347Y708979D01*
X556622Y709223D01*
X556904Y709460D01*
X557192Y709690D01*
X557485Y709913D01*
X557783Y710129D01*
X558086Y710337D01*
X558395Y710538D01*
X558708Y710731D01*
X559027Y710916D01*
X559349Y711094D01*
X559676Y711263D01*
X560007Y711425D01*
X560341Y711578D01*
X560680Y711723D01*
X561022Y711860D01*
X561367Y711988D01*
X561715Y712108D01*
X562066Y712219D01*
X562419Y712322D01*
X562775Y712415D01*
X563133Y712501D01*
X563494Y712577D01*
X563856Y712644D01*
X564219Y712703D01*
X564584Y712752D01*
X564950Y712793D01*
X565317Y712824D01*
X565684Y712847D01*
X566052Y712860D01*
X566420Y712865D01*
X566788Y712860D01*
X567156Y712847D01*
X567523Y712824D01*
X567890Y712793D01*
X568256Y712752D01*
X568621Y712703D01*
X568984Y712644D01*
X569346Y712577D01*
X569707Y712501D01*
X570065Y712415D01*
X570421Y712322D01*
X570774Y712219D01*
X571125Y712108D01*
X571473Y711988D01*
X571818Y711860D01*
X572160Y711723D01*
X572499Y711578D01*
X572833Y711425D01*
X573164Y711263D01*
X573491Y711094D01*
X573813Y710916D01*
X574132Y710731D01*
X574445Y710538D01*
X574754Y710337D01*
X575057Y710129D01*
X575355Y709913D01*
X575648Y709690D01*
X575936Y709460D01*
X576218Y709223D01*
X576493Y708979D01*
X576763Y708729D01*
X577027Y708472D01*
X577284Y708208D01*
X577534Y707938D01*
X577778Y707663D01*
X578015Y707381D01*
X578245Y707093D01*
X578468Y706800D01*
X578684Y706502D01*
X578892Y706199D01*
X579093Y705890D01*
X579286Y705577D01*
X579471Y705258D01*
X579649Y704936D01*
X579818Y704609D01*
X579980Y704278D01*
X580133Y703944D01*
X580278Y703605D01*
X580415Y703263D01*
X580543Y702918D01*
X580663Y702570D01*
X580774Y702219D01*
X580877Y701866D01*
X580970Y701510D01*
X581056Y701152D01*
X581132Y700791D01*
X581199Y700429D01*
X581258Y700066D01*
X581307Y699701D01*
X581348Y699335D01*
X581379Y698968D01*
X581402Y698601D01*
X581415Y698233D01*
X581420Y697865D01*
X581415Y697497D01*
X581402Y697129D01*
X581379Y696762D01*
X581348Y696395D01*
X581307Y696029D01*
X581258Y695664D01*
X581199Y695301D01*
X581132Y694939D01*
X581056Y694578D01*
X580970Y694220D01*
X580877Y693864D01*
X580774Y693511D01*
X580663Y693160D01*
X580543Y692812D01*
X580415Y692467D01*
X580278Y692125D01*
X580133Y691786D01*
X579980Y691452D01*
X579818Y691121D01*
X579649Y690794D01*
X579471Y690472D01*
X579286Y690153D01*
X579093Y689840D01*
X578892Y689531D01*
X578684Y689228D01*
X578468Y688930D01*
X578245Y688637D01*
X578015Y688349D01*
X577778Y688067D01*
X577534Y687792D01*
X577284Y687522D01*
X577027Y687258D01*
X576763Y687001D01*
X576493Y686751D01*
X576218Y686507D01*
X575936Y686270D01*
X575648Y686040D01*
X575355Y685817D01*
X575057Y685601D01*
X574754Y685393D01*
X574445Y685192D01*
X574132Y684999D01*
X573813Y684814D01*
X573491Y684636D01*
X573164Y684467D01*
X572833Y684305D01*
X572499Y684152D01*
X572160Y684007D01*
X571818Y683870D01*
X571473Y683742D01*
X571125Y683622D01*
X570774Y683511D01*
X570421Y683408D01*
X570065Y683315D01*
X569707Y683229D01*
X569346Y683153D01*
X568984Y683086D01*
X568621Y683027D01*
X568256Y682978D01*
X567890Y682937D01*
X567523Y682906D01*
X567156Y682883D01*
X566788Y682870D01*
X566420Y682865D01*
X566052Y682870D01*
X565684Y682883D01*
X565317Y682906D01*
X564950Y682937D01*
X564584Y682978D01*
X564219Y683027D01*
X563856Y683086D01*
X563494Y683153D01*
X563133Y683229D01*
X562775Y683315D01*
X562419Y683408D01*
X562066Y683511D01*
X561715Y683622D01*
X561367Y683742D01*
X561022Y683870D01*
X560680Y684007D01*
X560341Y684152D01*
X560007Y684305D01*
X559676Y684467D01*
X559349Y684636D01*
X559027Y684814D01*
X558708Y684999D01*
X558395Y685192D01*
X558086Y685393D01*
X557783Y685601D01*
X557485Y685817D01*
X557192Y686040D01*
X556904Y686270D01*
X556622Y686507D01*
X556347Y686751D01*
X556077Y687001D01*
X555813Y687258D01*
X555556Y687522D01*
X555306Y687792D01*
X555062Y688067D01*
X554825Y688349D01*
X554595Y688637D01*
X554372Y688930D01*
X554156Y689228D01*
X553948Y689531D01*
X553747Y689840D01*
X553554Y690153D01*
X553369Y690472D01*
X553191Y690794D01*
X553022Y691121D01*
X552860Y691452D01*
X552707Y691786D01*
X552562Y692125D01*
X552425Y692467D01*
X552297Y692812D01*
X552177Y693160D01*
X552066Y693511D01*
X551963Y693864D01*
X551870Y694220D01*
X551784Y694578D01*
X551708Y694939D01*
X551641Y695301D01*
X551582Y695664D01*
X551533Y696029D01*
X551492Y696395D01*
X551461Y696762D01*
X551438Y697129D01*
X551425Y697497D01*
X551420Y697865D01*
X554220Y671865D02*
X578620Y671865D01*
X578620Y723865D02*
X554220Y723865D01*
X540420Y710865D02*
X540420Y684865D01*
X592420Y684865D02*
X592420Y710865D01*
X549620Y675665D02*
X540420Y684865D01*
X540420Y710865D02*
X549620Y720065D01*
X592420Y684865D02*
X583220Y675665D01*
X592420Y710865D02*
X583220Y720065D01*
D11*
X535912Y676768D02*
X535910Y676867D01*
X535904Y676967D01*
X535895Y677066D01*
X535882Y677164D01*
X535865Y677262D01*
X535844Y677360D01*
X535819Y677456D01*
X535791Y677551D01*
X535759Y677645D01*
X535724Y677738D01*
X535685Y677830D01*
X535642Y677920D01*
X535597Y678008D01*
X535547Y678095D01*
X535495Y678179D01*
X535439Y678262D01*
X535381Y678342D01*
X535319Y678420D01*
X535254Y678495D01*
X535186Y678568D01*
X535116Y678638D01*
X535043Y678706D01*
X534968Y678771D01*
X534890Y678833D01*
X534810Y678891D01*
X534727Y678947D01*
X534643Y678999D01*
X534556Y679049D01*
X534468Y679094D01*
X534378Y679137D01*
X534286Y679176D01*
X534193Y679211D01*
X534099Y679243D01*
X534004Y679271D01*
X533908Y679296D01*
X533810Y679317D01*
X533712Y679334D01*
X533614Y679347D01*
X533515Y679356D01*
X533415Y679362D01*
X533316Y679364D01*
X535912Y676768D02*
X535910Y676624D01*
X535904Y676479D01*
X535895Y676335D01*
X535882Y676192D01*
X535865Y676048D01*
X535844Y675905D01*
X535819Y675763D01*
X535791Y675622D01*
X535759Y675481D01*
X535723Y675341D01*
X535684Y675202D01*
X535641Y675064D01*
X535594Y674928D01*
X535544Y674792D01*
X535490Y674658D01*
X535433Y674526D01*
X535372Y674395D01*
X535308Y674266D01*
X535240Y674138D01*
X535170Y674012D01*
X535095Y673888D01*
X535018Y673767D01*
X534937Y673647D01*
X534854Y673529D01*
X534767Y673414D01*
X534677Y673301D01*
X534584Y673190D01*
X534489Y673082D01*
X534390Y672976D01*
X534289Y672873D01*
X526824Y673198D02*
X526725Y673200D01*
X526625Y673206D01*
X526526Y673215D01*
X526428Y673228D01*
X526330Y673245D01*
X526232Y673266D01*
X526136Y673291D01*
X526041Y673319D01*
X525947Y673351D01*
X525854Y673386D01*
X525762Y673425D01*
X525672Y673468D01*
X525584Y673513D01*
X525497Y673563D01*
X525413Y673615D01*
X525330Y673671D01*
X525250Y673729D01*
X525172Y673791D01*
X525097Y673856D01*
X525024Y673924D01*
X524954Y673994D01*
X524886Y674067D01*
X524821Y674142D01*
X524759Y674220D01*
X524701Y674300D01*
X524645Y674383D01*
X524593Y674467D01*
X524543Y674554D01*
X524498Y674642D01*
X524455Y674732D01*
X524416Y674824D01*
X524381Y674917D01*
X524349Y675011D01*
X524321Y675106D01*
X524296Y675202D01*
X524275Y675300D01*
X524258Y675398D01*
X524245Y675496D01*
X524236Y675595D01*
X524230Y675695D01*
X524228Y675794D01*
X524230Y675930D01*
X524236Y676066D01*
X524245Y676202D01*
X524258Y676338D01*
X524276Y676473D01*
X524296Y676607D01*
X524321Y676741D01*
X524349Y676875D01*
X524382Y677007D01*
X524417Y677138D01*
X524457Y677269D01*
X524500Y677398D01*
X524546Y677526D01*
X524597Y677652D01*
X524650Y677778D01*
X524708Y677901D01*
X524768Y678023D01*
X524832Y678143D01*
X524900Y678262D01*
X524970Y678378D01*
X525044Y678492D01*
X525121Y678605D01*
X525202Y678715D01*
X529096Y674496D02*
X529043Y674410D01*
X528986Y674326D01*
X528927Y674244D01*
X528864Y674164D01*
X528798Y674087D01*
X528730Y674012D01*
X528658Y673940D01*
X528584Y673871D01*
X528507Y673805D01*
X528428Y673742D01*
X528346Y673682D01*
X528262Y673625D01*
X528176Y673571D01*
X528088Y673521D01*
X527998Y673474D01*
X527907Y673430D01*
X527813Y673391D01*
X527719Y673354D01*
X527623Y673322D01*
X527525Y673293D01*
X527427Y673268D01*
X527328Y673247D01*
X527228Y673229D01*
X527128Y673216D01*
X527027Y673206D01*
X526925Y673200D01*
X526824Y673198D01*
X531044Y678066D02*
X531097Y678152D01*
X531154Y678236D01*
X531213Y678318D01*
X531276Y678398D01*
X531342Y678475D01*
X531410Y678550D01*
X531482Y678622D01*
X531556Y678691D01*
X531633Y678757D01*
X531712Y678820D01*
X531794Y678880D01*
X531878Y678937D01*
X531964Y678991D01*
X532052Y679041D01*
X532142Y679088D01*
X532233Y679132D01*
X532327Y679171D01*
X532421Y679208D01*
X532517Y679240D01*
X532615Y679269D01*
X532713Y679294D01*
X532812Y679315D01*
X532912Y679333D01*
X533012Y679346D01*
X533113Y679356D01*
X533215Y679362D01*
X533316Y679364D01*
X531044Y678066D02*
X529096Y674496D01*
X526824Y683922D02*
X524228Y687168D01*
X535912Y687168D01*
X535912Y690413D02*
X535912Y683922D01*
D17*
X551420Y789940D02*
X551425Y790308D01*
X551438Y790676D01*
X551461Y791043D01*
X551492Y791410D01*
X551533Y791776D01*
X551582Y792141D01*
X551641Y792504D01*
X551708Y792866D01*
X551784Y793227D01*
X551870Y793585D01*
X551963Y793941D01*
X552066Y794294D01*
X552177Y794645D01*
X552297Y794993D01*
X552425Y795338D01*
X552562Y795680D01*
X552707Y796019D01*
X552860Y796353D01*
X553022Y796684D01*
X553191Y797011D01*
X553369Y797333D01*
X553554Y797652D01*
X553747Y797965D01*
X553948Y798274D01*
X554156Y798577D01*
X554372Y798875D01*
X554595Y799168D01*
X554825Y799456D01*
X555062Y799738D01*
X555306Y800013D01*
X555556Y800283D01*
X555813Y800547D01*
X556077Y800804D01*
X556347Y801054D01*
X556622Y801298D01*
X556904Y801535D01*
X557192Y801765D01*
X557485Y801988D01*
X557783Y802204D01*
X558086Y802412D01*
X558395Y802613D01*
X558708Y802806D01*
X559027Y802991D01*
X559349Y803169D01*
X559676Y803338D01*
X560007Y803500D01*
X560341Y803653D01*
X560680Y803798D01*
X561022Y803935D01*
X561367Y804063D01*
X561715Y804183D01*
X562066Y804294D01*
X562419Y804397D01*
X562775Y804490D01*
X563133Y804576D01*
X563494Y804652D01*
X563856Y804719D01*
X564219Y804778D01*
X564584Y804827D01*
X564950Y804868D01*
X565317Y804899D01*
X565684Y804922D01*
X566052Y804935D01*
X566420Y804940D01*
X566788Y804935D01*
X567156Y804922D01*
X567523Y804899D01*
X567890Y804868D01*
X568256Y804827D01*
X568621Y804778D01*
X568984Y804719D01*
X569346Y804652D01*
X569707Y804576D01*
X570065Y804490D01*
X570421Y804397D01*
X570774Y804294D01*
X571125Y804183D01*
X571473Y804063D01*
X571818Y803935D01*
X572160Y803798D01*
X572499Y803653D01*
X572833Y803500D01*
X573164Y803338D01*
X573491Y803169D01*
X573813Y802991D01*
X574132Y802806D01*
X574445Y802613D01*
X574754Y802412D01*
X575057Y802204D01*
X575355Y801988D01*
X575648Y801765D01*
X575936Y801535D01*
X576218Y801298D01*
X576493Y801054D01*
X576763Y800804D01*
X577027Y800547D01*
X577284Y800283D01*
X577534Y800013D01*
X577778Y799738D01*
X578015Y799456D01*
X578245Y799168D01*
X578468Y798875D01*
X578684Y798577D01*
X578892Y798274D01*
X579093Y797965D01*
X579286Y797652D01*
X579471Y797333D01*
X579649Y797011D01*
X579818Y796684D01*
X579980Y796353D01*
X580133Y796019D01*
X580278Y795680D01*
X580415Y795338D01*
X580543Y794993D01*
X580663Y794645D01*
X580774Y794294D01*
X580877Y793941D01*
X580970Y793585D01*
X581056Y793227D01*
X581132Y792866D01*
X581199Y792504D01*
X581258Y792141D01*
X581307Y791776D01*
X581348Y791410D01*
X581379Y791043D01*
X581402Y790676D01*
X581415Y790308D01*
X581420Y789940D01*
X581415Y789572D01*
X581402Y789204D01*
X581379Y788837D01*
X581348Y788470D01*
X581307Y788104D01*
X581258Y787739D01*
X581199Y787376D01*
X581132Y787014D01*
X581056Y786653D01*
X580970Y786295D01*
X580877Y785939D01*
X580774Y785586D01*
X580663Y785235D01*
X580543Y784887D01*
X580415Y784542D01*
X580278Y784200D01*
X580133Y783861D01*
X579980Y783527D01*
X579818Y783196D01*
X579649Y782869D01*
X579471Y782547D01*
X579286Y782228D01*
X579093Y781915D01*
X578892Y781606D01*
X578684Y781303D01*
X578468Y781005D01*
X578245Y780712D01*
X578015Y780424D01*
X577778Y780142D01*
X577534Y779867D01*
X577284Y779597D01*
X577027Y779333D01*
X576763Y779076D01*
X576493Y778826D01*
X576218Y778582D01*
X575936Y778345D01*
X575648Y778115D01*
X575355Y777892D01*
X575057Y777676D01*
X574754Y777468D01*
X574445Y777267D01*
X574132Y777074D01*
X573813Y776889D01*
X573491Y776711D01*
X573164Y776542D01*
X572833Y776380D01*
X572499Y776227D01*
X572160Y776082D01*
X571818Y775945D01*
X571473Y775817D01*
X571125Y775697D01*
X570774Y775586D01*
X570421Y775483D01*
X570065Y775390D01*
X569707Y775304D01*
X569346Y775228D01*
X568984Y775161D01*
X568621Y775102D01*
X568256Y775053D01*
X567890Y775012D01*
X567523Y774981D01*
X567156Y774958D01*
X566788Y774945D01*
X566420Y774940D01*
X566052Y774945D01*
X565684Y774958D01*
X565317Y774981D01*
X564950Y775012D01*
X564584Y775053D01*
X564219Y775102D01*
X563856Y775161D01*
X563494Y775228D01*
X563133Y775304D01*
X562775Y775390D01*
X562419Y775483D01*
X562066Y775586D01*
X561715Y775697D01*
X561367Y775817D01*
X561022Y775945D01*
X560680Y776082D01*
X560341Y776227D01*
X560007Y776380D01*
X559676Y776542D01*
X559349Y776711D01*
X559027Y776889D01*
X558708Y777074D01*
X558395Y777267D01*
X558086Y777468D01*
X557783Y777676D01*
X557485Y777892D01*
X557192Y778115D01*
X556904Y778345D01*
X556622Y778582D01*
X556347Y778826D01*
X556077Y779076D01*
X555813Y779333D01*
X555556Y779597D01*
X555306Y779867D01*
X555062Y780142D01*
X554825Y780424D01*
X554595Y780712D01*
X554372Y781005D01*
X554156Y781303D01*
X553948Y781606D01*
X553747Y781915D01*
X553554Y782228D01*
X553369Y782547D01*
X553191Y782869D01*
X553022Y783196D01*
X552860Y783527D01*
X552707Y783861D01*
X552562Y784200D01*
X552425Y784542D01*
X552297Y784887D01*
X552177Y785235D01*
X552066Y785586D01*
X551963Y785939D01*
X551870Y786295D01*
X551784Y786653D01*
X551708Y787014D01*
X551641Y787376D01*
X551582Y787739D01*
X551533Y788104D01*
X551492Y788470D01*
X551461Y788837D01*
X551438Y789204D01*
X551425Y789572D01*
X551420Y789940D01*
X554220Y763940D02*
X578620Y763940D01*
X578620Y815940D02*
X554220Y815940D01*
X540420Y802940D02*
X540420Y776940D01*
X592420Y776940D02*
X592420Y802940D01*
X549620Y767740D02*
X540420Y776940D01*
X540420Y802940D02*
X549620Y812140D01*
X592420Y776940D02*
X583220Y767740D01*
X592420Y802940D02*
X583220Y812140D01*
D11*
X535912Y768843D02*
X535910Y768942D01*
X535904Y769042D01*
X535895Y769141D01*
X535882Y769239D01*
X535865Y769337D01*
X535844Y769435D01*
X535819Y769531D01*
X535791Y769626D01*
X535759Y769720D01*
X535724Y769813D01*
X535685Y769905D01*
X535642Y769995D01*
X535597Y770083D01*
X535547Y770170D01*
X535495Y770254D01*
X535439Y770337D01*
X535381Y770417D01*
X535319Y770495D01*
X535254Y770570D01*
X535186Y770643D01*
X535116Y770713D01*
X535043Y770781D01*
X534968Y770846D01*
X534890Y770908D01*
X534810Y770966D01*
X534727Y771022D01*
X534643Y771074D01*
X534556Y771124D01*
X534468Y771169D01*
X534378Y771212D01*
X534286Y771251D01*
X534193Y771286D01*
X534099Y771318D01*
X534004Y771346D01*
X533908Y771371D01*
X533810Y771392D01*
X533712Y771409D01*
X533614Y771422D01*
X533515Y771431D01*
X533415Y771437D01*
X533316Y771439D01*
X535912Y768843D02*
X535910Y768699D01*
X535904Y768554D01*
X535895Y768410D01*
X535882Y768267D01*
X535865Y768123D01*
X535844Y767980D01*
X535819Y767838D01*
X535791Y767697D01*
X535759Y767556D01*
X535723Y767416D01*
X535684Y767277D01*
X535641Y767139D01*
X535594Y767003D01*
X535544Y766867D01*
X535490Y766733D01*
X535433Y766601D01*
X535372Y766470D01*
X535308Y766341D01*
X535240Y766213D01*
X535170Y766087D01*
X535095Y765963D01*
X535018Y765842D01*
X534937Y765722D01*
X534854Y765604D01*
X534767Y765489D01*
X534677Y765376D01*
X534584Y765265D01*
X534489Y765157D01*
X534390Y765051D01*
X534289Y764948D01*
X526824Y765273D02*
X526725Y765275D01*
X526625Y765281D01*
X526526Y765290D01*
X526428Y765303D01*
X526330Y765320D01*
X526232Y765341D01*
X526136Y765366D01*
X526041Y765394D01*
X525947Y765426D01*
X525854Y765461D01*
X525762Y765500D01*
X525672Y765543D01*
X525584Y765588D01*
X525497Y765638D01*
X525413Y765690D01*
X525330Y765746D01*
X525250Y765804D01*
X525172Y765866D01*
X525097Y765931D01*
X525024Y765999D01*
X524954Y766069D01*
X524886Y766142D01*
X524821Y766217D01*
X524759Y766295D01*
X524701Y766375D01*
X524645Y766458D01*
X524593Y766542D01*
X524543Y766629D01*
X524498Y766717D01*
X524455Y766807D01*
X524416Y766899D01*
X524381Y766992D01*
X524349Y767086D01*
X524321Y767181D01*
X524296Y767277D01*
X524275Y767375D01*
X524258Y767473D01*
X524245Y767571D01*
X524236Y767670D01*
X524230Y767770D01*
X524228Y767869D01*
X524230Y768005D01*
X524236Y768141D01*
X524245Y768277D01*
X524258Y768413D01*
X524276Y768548D01*
X524296Y768682D01*
X524321Y768816D01*
X524349Y768950D01*
X524382Y769082D01*
X524417Y769213D01*
X524457Y769344D01*
X524500Y769473D01*
X524546Y769601D01*
X524597Y769727D01*
X524650Y769853D01*
X524708Y769976D01*
X524768Y770098D01*
X524832Y770218D01*
X524900Y770337D01*
X524970Y770453D01*
X525044Y770567D01*
X525121Y770680D01*
X525202Y770790D01*
X529096Y766571D02*
X529043Y766485D01*
X528986Y766401D01*
X528927Y766319D01*
X528864Y766239D01*
X528798Y766162D01*
X528730Y766087D01*
X528658Y766015D01*
X528584Y765946D01*
X528507Y765880D01*
X528428Y765817D01*
X528346Y765757D01*
X528262Y765700D01*
X528176Y765646D01*
X528088Y765596D01*
X527998Y765549D01*
X527907Y765505D01*
X527813Y765466D01*
X527719Y765429D01*
X527623Y765397D01*
X527525Y765368D01*
X527427Y765343D01*
X527328Y765322D01*
X527228Y765304D01*
X527128Y765291D01*
X527027Y765281D01*
X526925Y765275D01*
X526824Y765273D01*
X531044Y770141D02*
X531097Y770227D01*
X531154Y770311D01*
X531213Y770393D01*
X531276Y770473D01*
X531342Y770550D01*
X531410Y770625D01*
X531482Y770697D01*
X531556Y770766D01*
X531633Y770832D01*
X531712Y770895D01*
X531794Y770955D01*
X531878Y771012D01*
X531964Y771066D01*
X532052Y771116D01*
X532142Y771163D01*
X532233Y771207D01*
X532327Y771246D01*
X532421Y771283D01*
X532517Y771315D01*
X532615Y771344D01*
X532713Y771369D01*
X532812Y771390D01*
X532912Y771408D01*
X533012Y771421D01*
X533113Y771431D01*
X533215Y771437D01*
X533316Y771439D01*
X531044Y770141D02*
X529096Y766571D01*
X524228Y779567D02*
X524230Y779674D01*
X524236Y779780D01*
X524246Y779886D01*
X524259Y779992D01*
X524277Y780098D01*
X524298Y780202D01*
X524323Y780306D01*
X524352Y780409D01*
X524384Y780510D01*
X524421Y780610D01*
X524461Y780709D01*
X524504Y780807D01*
X524551Y780903D01*
X524602Y780997D01*
X524656Y781089D01*
X524713Y781179D01*
X524773Y781267D01*
X524837Y781352D01*
X524904Y781435D01*
X524974Y781516D01*
X525046Y781594D01*
X525122Y781670D01*
X525200Y781742D01*
X525281Y781812D01*
X525364Y781879D01*
X525449Y781943D01*
X525537Y782003D01*
X525627Y782060D01*
X525719Y782114D01*
X525813Y782165D01*
X525909Y782212D01*
X526007Y782255D01*
X526106Y782295D01*
X526206Y782332D01*
X526307Y782364D01*
X526410Y782393D01*
X526514Y782418D01*
X526618Y782439D01*
X526724Y782457D01*
X526830Y782470D01*
X526936Y782480D01*
X527042Y782486D01*
X527149Y782488D01*
X524228Y779567D02*
X524230Y779446D01*
X524236Y779325D01*
X524246Y779205D01*
X524259Y779084D01*
X524277Y778965D01*
X524298Y778845D01*
X524323Y778727D01*
X524352Y778610D01*
X524385Y778493D01*
X524421Y778378D01*
X524462Y778264D01*
X524505Y778151D01*
X524553Y778039D01*
X524604Y777930D01*
X524659Y777822D01*
X524717Y777715D01*
X524778Y777611D01*
X524843Y777509D01*
X524911Y777409D01*
X524982Y777311D01*
X525056Y777215D01*
X525133Y777122D01*
X525214Y777032D01*
X525297Y776944D01*
X525383Y776859D01*
X525472Y776776D01*
X525563Y776697D01*
X525657Y776620D01*
X525753Y776547D01*
X525851Y776477D01*
X525952Y776410D01*
X526055Y776346D01*
X526160Y776286D01*
X526267Y776228D01*
X526375Y776175D01*
X526485Y776125D01*
X526597Y776079D01*
X526710Y776036D01*
X526825Y775997D01*
X529421Y781514D02*
X529343Y781593D01*
X529263Y781669D01*
X529180Y781742D01*
X529094Y781812D01*
X529007Y781879D01*
X528916Y781943D01*
X528824Y782003D01*
X528730Y782061D01*
X528633Y782115D01*
X528535Y782165D01*
X528435Y782212D01*
X528334Y782256D01*
X528231Y782296D01*
X528126Y782332D01*
X528021Y782364D01*
X527914Y782393D01*
X527807Y782418D01*
X527698Y782440D01*
X527589Y782457D01*
X527480Y782471D01*
X527370Y782480D01*
X527259Y782486D01*
X527149Y782488D01*
X529421Y781514D02*
X535912Y775997D01*
X535912Y782488D01*
D14*
X544050Y630010D02*
X558050Y630010D01*
X544050Y630010D02*
X544050Y616010D01*
X558050Y616010D01*
X569050Y616010D02*
X583050Y616010D01*
X583050Y630010D01*
X569050Y630010D01*
D18*
X563550Y628510D03*
X563550Y617510D03*
D13*
X561050Y618010D02*
X561050Y628010D01*
X561550Y623010D02*
X565550Y623010D01*
D19*
X544627Y632027D02*
X544627Y635837D01*
X545686Y635837D01*
X545750Y635835D01*
X545814Y635829D01*
X545877Y635820D01*
X545939Y635806D01*
X546001Y635789D01*
X546061Y635768D01*
X546120Y635744D01*
X546178Y635716D01*
X546233Y635684D01*
X546287Y635650D01*
X546338Y635612D01*
X546388Y635571D01*
X546434Y635527D01*
X546478Y635481D01*
X546519Y635431D01*
X546557Y635380D01*
X546591Y635326D01*
X546623Y635271D01*
X546651Y635213D01*
X546675Y635154D01*
X546696Y635094D01*
X546713Y635032D01*
X546727Y634970D01*
X546736Y634907D01*
X546742Y634843D01*
X546744Y634779D01*
X546744Y633085D01*
X546742Y633021D01*
X546736Y632957D01*
X546727Y632894D01*
X546713Y632832D01*
X546696Y632770D01*
X546675Y632710D01*
X546651Y632651D01*
X546623Y632593D01*
X546591Y632538D01*
X546557Y632484D01*
X546519Y632433D01*
X546478Y632383D01*
X546434Y632337D01*
X546388Y632293D01*
X546338Y632252D01*
X546287Y632214D01*
X546233Y632180D01*
X546178Y632148D01*
X546120Y632120D01*
X546061Y632096D01*
X546001Y632075D01*
X545939Y632058D01*
X545877Y632044D01*
X545814Y632035D01*
X545750Y632029D01*
X545686Y632027D01*
X544627Y632027D01*
X548407Y632027D02*
X549677Y632027D01*
X549732Y632029D01*
X549788Y632034D01*
X549842Y632043D01*
X549896Y632056D01*
X549949Y632072D01*
X550001Y632091D01*
X550052Y632114D01*
X550101Y632140D01*
X550148Y632170D01*
X550193Y632202D01*
X550235Y632237D01*
X550276Y632275D01*
X550314Y632316D01*
X550349Y632358D01*
X550381Y632403D01*
X550411Y632451D01*
X550437Y632499D01*
X550460Y632550D01*
X550479Y632602D01*
X550495Y632655D01*
X550508Y632709D01*
X550517Y632763D01*
X550522Y632819D01*
X550524Y632874D01*
X550524Y633297D01*
X550522Y633352D01*
X550517Y633408D01*
X550508Y633462D01*
X550495Y633516D01*
X550479Y633569D01*
X550460Y633621D01*
X550437Y633672D01*
X550411Y633721D01*
X550381Y633768D01*
X550349Y633813D01*
X550314Y633855D01*
X550276Y633896D01*
X550235Y633934D01*
X550193Y633969D01*
X550148Y634001D01*
X550101Y634031D01*
X550052Y634057D01*
X550001Y634080D01*
X549949Y634099D01*
X549896Y634115D01*
X549842Y634128D01*
X549788Y634137D01*
X549732Y634142D01*
X549677Y634144D01*
X548407Y634144D01*
X548407Y635837D01*
X550524Y635837D01*
D14*
X544050Y600502D02*
X558050Y600502D01*
X544050Y600502D02*
X544050Y586502D01*
X558050Y586502D01*
X569050Y586502D02*
X583050Y586502D01*
X583050Y600502D01*
X569050Y600502D01*
D18*
X563550Y599002D03*
X563550Y588002D03*
D13*
X561050Y588502D02*
X561050Y598502D01*
X561550Y593502D02*
X565550Y593502D01*
D19*
X544627Y602519D02*
X544627Y606329D01*
X545686Y606329D01*
X545750Y606327D01*
X545814Y606321D01*
X545877Y606312D01*
X545939Y606298D01*
X546001Y606281D01*
X546061Y606260D01*
X546120Y606236D01*
X546178Y606208D01*
X546233Y606176D01*
X546287Y606142D01*
X546338Y606104D01*
X546388Y606063D01*
X546434Y606019D01*
X546478Y605973D01*
X546519Y605923D01*
X546557Y605872D01*
X546591Y605818D01*
X546623Y605763D01*
X546651Y605705D01*
X546675Y605646D01*
X546696Y605586D01*
X546713Y605524D01*
X546727Y605462D01*
X546736Y605399D01*
X546742Y605335D01*
X546744Y605271D01*
X546744Y603578D01*
X546742Y603514D01*
X546736Y603450D01*
X546727Y603387D01*
X546713Y603325D01*
X546696Y603263D01*
X546675Y603203D01*
X546651Y603144D01*
X546623Y603086D01*
X546591Y603031D01*
X546557Y602977D01*
X546519Y602926D01*
X546478Y602876D01*
X546434Y602830D01*
X546388Y602786D01*
X546338Y602745D01*
X546287Y602707D01*
X546233Y602673D01*
X546178Y602641D01*
X546120Y602613D01*
X546061Y602589D01*
X546001Y602568D01*
X545939Y602551D01*
X545877Y602537D01*
X545814Y602528D01*
X545750Y602522D01*
X545686Y602520D01*
X545686Y602519D02*
X544627Y602519D01*
X548407Y604636D02*
X549677Y604636D01*
X549732Y604634D01*
X549788Y604629D01*
X549842Y604620D01*
X549896Y604607D01*
X549949Y604591D01*
X550001Y604572D01*
X550052Y604549D01*
X550101Y604523D01*
X550148Y604493D01*
X550193Y604461D01*
X550235Y604426D01*
X550276Y604388D01*
X550314Y604347D01*
X550349Y604305D01*
X550381Y604260D01*
X550411Y604213D01*
X550437Y604164D01*
X550460Y604113D01*
X550479Y604061D01*
X550495Y604008D01*
X550508Y603954D01*
X550517Y603900D01*
X550522Y603844D01*
X550524Y603789D01*
X550524Y603578D01*
X550523Y603578D02*
X550521Y603514D01*
X550515Y603450D01*
X550506Y603387D01*
X550492Y603325D01*
X550475Y603263D01*
X550454Y603203D01*
X550430Y603144D01*
X550402Y603086D01*
X550370Y603031D01*
X550336Y602977D01*
X550298Y602926D01*
X550257Y602876D01*
X550213Y602830D01*
X550167Y602786D01*
X550117Y602745D01*
X550066Y602707D01*
X550012Y602673D01*
X549957Y602641D01*
X549899Y602613D01*
X549840Y602589D01*
X549780Y602568D01*
X549718Y602551D01*
X549656Y602537D01*
X549593Y602528D01*
X549529Y602522D01*
X549465Y602520D01*
X549401Y602522D01*
X549337Y602528D01*
X549274Y602537D01*
X549212Y602551D01*
X549150Y602568D01*
X549090Y602589D01*
X549031Y602613D01*
X548973Y602641D01*
X548918Y602673D01*
X548864Y602707D01*
X548813Y602745D01*
X548763Y602786D01*
X548717Y602830D01*
X548673Y602876D01*
X548632Y602926D01*
X548594Y602977D01*
X548560Y603031D01*
X548528Y603086D01*
X548500Y603144D01*
X548476Y603203D01*
X548455Y603263D01*
X548438Y603325D01*
X548424Y603387D01*
X548415Y603450D01*
X548409Y603514D01*
X548407Y603578D01*
X548407Y604636D01*
X548409Y604717D01*
X548415Y604797D01*
X548424Y604877D01*
X548438Y604956D01*
X548455Y605035D01*
X548476Y605113D01*
X548500Y605190D01*
X548528Y605265D01*
X548560Y605339D01*
X548595Y605412D01*
X548634Y605482D01*
X548676Y605551D01*
X548721Y605618D01*
X548769Y605683D01*
X548821Y605745D01*
X548875Y605804D01*
X548932Y605861D01*
X548991Y605915D01*
X549053Y605967D01*
X549118Y606015D01*
X549185Y606060D01*
X549253Y606102D01*
X549324Y606141D01*
X549397Y606176D01*
X549471Y606208D01*
X549546Y606236D01*
X549623Y606260D01*
X549701Y606281D01*
X549780Y606298D01*
X549859Y606312D01*
X549939Y606321D01*
X550019Y606327D01*
X550100Y606329D01*
D14*
X544204Y568542D02*
X558204Y568542D01*
X544204Y568542D02*
X544204Y554542D01*
X558204Y554542D01*
X569204Y554542D02*
X583204Y554542D01*
X583204Y568542D01*
X569204Y568542D01*
D18*
X563704Y567042D03*
X563704Y556042D03*
D13*
X561204Y556542D02*
X561204Y566542D01*
X561704Y561542D02*
X565704Y561542D01*
D19*
X544781Y570559D02*
X544781Y574369D01*
X545840Y574369D01*
X545840Y574368D02*
X545904Y574366D01*
X545968Y574360D01*
X546031Y574351D01*
X546093Y574337D01*
X546155Y574320D01*
X546215Y574299D01*
X546274Y574275D01*
X546332Y574247D01*
X546387Y574215D01*
X546441Y574181D01*
X546492Y574143D01*
X546542Y574102D01*
X546588Y574058D01*
X546632Y574012D01*
X546673Y573962D01*
X546711Y573911D01*
X546745Y573857D01*
X546777Y573802D01*
X546805Y573744D01*
X546829Y573685D01*
X546850Y573625D01*
X546867Y573563D01*
X546881Y573501D01*
X546890Y573438D01*
X546896Y573374D01*
X546898Y573310D01*
X546898Y571617D01*
X546896Y571553D01*
X546890Y571489D01*
X546881Y571426D01*
X546867Y571364D01*
X546850Y571302D01*
X546829Y571242D01*
X546805Y571183D01*
X546777Y571125D01*
X546745Y571070D01*
X546711Y571016D01*
X546673Y570965D01*
X546632Y570915D01*
X546588Y570869D01*
X546542Y570825D01*
X546492Y570784D01*
X546441Y570746D01*
X546387Y570712D01*
X546332Y570680D01*
X546274Y570652D01*
X546215Y570628D01*
X546155Y570607D01*
X546093Y570590D01*
X546031Y570576D01*
X545968Y570567D01*
X545904Y570561D01*
X545840Y570559D01*
X544781Y570559D01*
X548561Y573945D02*
X548561Y574369D01*
X550677Y574369D01*
X549619Y570559D01*
D15*
X376072Y637827D02*
X376072Y651426D01*
X376072Y637827D02*
X376074Y637684D01*
X376080Y637541D01*
X376090Y637399D01*
X376103Y637257D01*
X376121Y637115D01*
X376142Y636974D01*
X376167Y636833D01*
X376196Y636693D01*
X376229Y636554D01*
X376266Y636416D01*
X376306Y636279D01*
X376351Y636143D01*
X376398Y636008D01*
X376450Y635875D01*
X376505Y635743D01*
X376564Y635613D01*
X376626Y635485D01*
X376692Y635358D01*
X376761Y635233D01*
X376833Y635110D01*
X376909Y634989D01*
X376988Y634870D01*
X377071Y634753D01*
X377156Y634638D01*
X377245Y634526D01*
X377337Y634417D01*
X377431Y634310D01*
X377529Y634205D01*
X377629Y634104D01*
X377732Y634005D01*
X377838Y633909D01*
X377946Y633815D01*
X378057Y633725D01*
X378170Y633638D01*
X378286Y633554D01*
X378404Y633473D01*
X378524Y633396D01*
X378646Y633322D01*
X378770Y633251D01*
X378896Y633183D01*
X379024Y633119D01*
X379153Y633059D01*
X379284Y633002D01*
X379417Y632949D01*
X379551Y632899D01*
X379686Y632853D01*
X379822Y632811D01*
X379960Y632772D01*
X380098Y632737D01*
X380238Y632706D01*
X380378Y632679D01*
X380519Y632656D01*
X380661Y632636D01*
X380803Y632621D01*
X380945Y632609D01*
X381088Y632601D01*
X381231Y632597D01*
X381373Y632597D01*
X381516Y632601D01*
X381659Y632609D01*
X381801Y632621D01*
X381943Y632636D01*
X382085Y632656D01*
X382226Y632679D01*
X382366Y632706D01*
X382506Y632737D01*
X382644Y632772D01*
X382782Y632811D01*
X382918Y632853D01*
X383053Y632899D01*
X383187Y632949D01*
X383320Y633002D01*
X383451Y633059D01*
X383580Y633119D01*
X383708Y633183D01*
X383834Y633251D01*
X383958Y633322D01*
X384080Y633396D01*
X384200Y633473D01*
X384318Y633554D01*
X384434Y633638D01*
X384547Y633725D01*
X384658Y633815D01*
X384766Y633909D01*
X384872Y634005D01*
X384975Y634104D01*
X385075Y634205D01*
X385173Y634310D01*
X385267Y634417D01*
X385359Y634526D01*
X385448Y634638D01*
X385533Y634753D01*
X385616Y634870D01*
X385695Y634989D01*
X385771Y635110D01*
X385843Y635233D01*
X385912Y635358D01*
X385978Y635485D01*
X386040Y635613D01*
X386099Y635743D01*
X386154Y635875D01*
X386206Y636008D01*
X386253Y636143D01*
X386298Y636279D01*
X386338Y636416D01*
X386375Y636554D01*
X386408Y636693D01*
X386437Y636833D01*
X386462Y636974D01*
X386483Y637115D01*
X386501Y637257D01*
X386514Y637399D01*
X386524Y637541D01*
X386530Y637684D01*
X386532Y637827D01*
X386532Y651426D01*
X394525Y632597D02*
X399755Y632597D01*
X399898Y632599D01*
X400041Y632605D01*
X400183Y632615D01*
X400325Y632628D01*
X400467Y632646D01*
X400608Y632667D01*
X400749Y632692D01*
X400889Y632721D01*
X401028Y632754D01*
X401166Y632791D01*
X401303Y632831D01*
X401439Y632876D01*
X401574Y632923D01*
X401707Y632975D01*
X401839Y633030D01*
X401969Y633089D01*
X402097Y633151D01*
X402224Y633217D01*
X402349Y633286D01*
X402472Y633358D01*
X402593Y633434D01*
X402712Y633513D01*
X402829Y633596D01*
X402944Y633681D01*
X403056Y633770D01*
X403165Y633862D01*
X403272Y633956D01*
X403377Y634054D01*
X403478Y634154D01*
X403577Y634257D01*
X403673Y634363D01*
X403767Y634471D01*
X403857Y634582D01*
X403944Y634695D01*
X404028Y634811D01*
X404109Y634929D01*
X404186Y635049D01*
X404260Y635171D01*
X404331Y635295D01*
X404399Y635421D01*
X404463Y635549D01*
X404523Y635678D01*
X404580Y635809D01*
X404633Y635942D01*
X404683Y636076D01*
X404729Y636211D01*
X404771Y636347D01*
X404810Y636485D01*
X404845Y636623D01*
X404876Y636763D01*
X404903Y636903D01*
X404926Y637044D01*
X404946Y637186D01*
X404961Y637328D01*
X404973Y637470D01*
X404981Y637613D01*
X404985Y637756D01*
X404985Y637898D01*
X404981Y638041D01*
X404973Y638184D01*
X404961Y638326D01*
X404946Y638468D01*
X404926Y638610D01*
X404903Y638751D01*
X404876Y638891D01*
X404845Y639031D01*
X404810Y639169D01*
X404771Y639307D01*
X404729Y639443D01*
X404683Y639578D01*
X404633Y639712D01*
X404580Y639845D01*
X404523Y639976D01*
X404463Y640105D01*
X404399Y640233D01*
X404331Y640359D01*
X404260Y640483D01*
X404186Y640605D01*
X404109Y640725D01*
X404028Y640843D01*
X403944Y640959D01*
X403857Y641072D01*
X403767Y641183D01*
X403673Y641291D01*
X403577Y641397D01*
X403478Y641500D01*
X403377Y641600D01*
X403272Y641698D01*
X403165Y641792D01*
X403056Y641884D01*
X402944Y641973D01*
X402829Y642058D01*
X402712Y642141D01*
X402593Y642220D01*
X402472Y642296D01*
X402349Y642368D01*
X402224Y642437D01*
X402097Y642503D01*
X401969Y642565D01*
X401839Y642624D01*
X401707Y642679D01*
X401574Y642731D01*
X401439Y642778D01*
X401303Y642823D01*
X401166Y642863D01*
X401028Y642900D01*
X400889Y642933D01*
X400749Y642962D01*
X400608Y642987D01*
X400467Y643008D01*
X400325Y643026D01*
X400183Y643039D01*
X400041Y643049D01*
X399898Y643055D01*
X399755Y643057D01*
X400802Y651426D02*
X394525Y651426D01*
X400802Y651426D02*
X400930Y651424D01*
X401057Y651418D01*
X401184Y651408D01*
X401311Y651395D01*
X401438Y651377D01*
X401563Y651356D01*
X401689Y651331D01*
X401813Y651302D01*
X401936Y651269D01*
X402058Y651233D01*
X402180Y651193D01*
X402299Y651149D01*
X402418Y651101D01*
X402535Y651050D01*
X402650Y650996D01*
X402764Y650938D01*
X402876Y650876D01*
X402985Y650811D01*
X403093Y650743D01*
X403199Y650671D01*
X403302Y650597D01*
X403404Y650519D01*
X403502Y650438D01*
X403598Y650354D01*
X403692Y650267D01*
X403783Y650178D01*
X403871Y650086D01*
X403956Y649991D01*
X404039Y649893D01*
X404118Y649793D01*
X404194Y649691D01*
X404268Y649586D01*
X404337Y649480D01*
X404404Y649371D01*
X404467Y649260D01*
X404527Y649147D01*
X404583Y649033D01*
X404636Y648917D01*
X404686Y648799D01*
X404731Y648680D01*
X404773Y648559D01*
X404812Y648437D01*
X404846Y648315D01*
X404877Y648191D01*
X404904Y648066D01*
X404927Y647941D01*
X404947Y647814D01*
X404962Y647688D01*
X404974Y647561D01*
X404982Y647433D01*
X404986Y647306D01*
X404986Y647178D01*
X404982Y647051D01*
X404974Y646923D01*
X404962Y646796D01*
X404947Y646670D01*
X404927Y646543D01*
X404904Y646418D01*
X404877Y646293D01*
X404846Y646169D01*
X404812Y646047D01*
X404773Y645925D01*
X404731Y645804D01*
X404686Y645685D01*
X404636Y645567D01*
X404583Y645451D01*
X404527Y645337D01*
X404467Y645224D01*
X404404Y645113D01*
X404337Y645004D01*
X404268Y644898D01*
X404194Y644793D01*
X404118Y644691D01*
X404039Y644591D01*
X403956Y644493D01*
X403871Y644398D01*
X403783Y644306D01*
X403692Y644217D01*
X403598Y644130D01*
X403502Y644046D01*
X403404Y643965D01*
X403302Y643887D01*
X403199Y643813D01*
X403093Y643741D01*
X402985Y643673D01*
X402876Y643608D01*
X402764Y643546D01*
X402650Y643488D01*
X402535Y643434D01*
X402418Y643383D01*
X402299Y643335D01*
X402180Y643291D01*
X402058Y643251D01*
X401936Y643215D01*
X401813Y643182D01*
X401689Y643153D01*
X401563Y643128D01*
X401438Y643107D01*
X401311Y643089D01*
X401184Y643076D01*
X401057Y643066D01*
X400930Y643060D01*
X400802Y643058D01*
X400802Y643057D02*
X396617Y643057D01*
D20*
X92425Y518950D02*
X92425Y461450D01*
X266425Y461450D01*
X266425Y518950D01*
X92425Y518950D01*
X242425Y518375D02*
X242425Y513375D01*
X115425Y513375D02*
X115425Y518375D01*
D11*
X272483Y460286D02*
X281627Y460286D01*
X276547Y460286D02*
X276547Y465366D01*
X272483Y465366D02*
X281627Y465366D01*
X281627Y469226D02*
X272483Y472274D01*
X281627Y475322D01*
X279341Y474560D02*
X279341Y469988D01*
X281627Y479204D02*
X272483Y479204D01*
X281627Y479204D02*
X281627Y483268D01*
X281627Y487128D02*
X272483Y487128D01*
X281627Y487128D02*
X281627Y491192D01*
X282643Y494322D02*
X282643Y498386D01*
X281627Y501535D02*
X272483Y504583D01*
X281627Y507631D01*
X279341Y506869D02*
X279341Y502297D01*
X272483Y513981D02*
X272485Y514075D01*
X272491Y514170D01*
X272501Y514264D01*
X272514Y514357D01*
X272532Y514450D01*
X272553Y514542D01*
X272578Y514633D01*
X272607Y514723D01*
X272639Y514812D01*
X272676Y514899D01*
X272715Y514985D01*
X272759Y515069D01*
X272805Y515151D01*
X272855Y515231D01*
X272909Y515309D01*
X272965Y515385D01*
X273025Y515458D01*
X273087Y515529D01*
X273153Y515597D01*
X273221Y515663D01*
X273292Y515725D01*
X273365Y515785D01*
X273441Y515841D01*
X273519Y515895D01*
X273599Y515945D01*
X273681Y515991D01*
X273765Y516035D01*
X273851Y516074D01*
X273938Y516111D01*
X274027Y516143D01*
X274117Y516172D01*
X274208Y516197D01*
X274300Y516218D01*
X274393Y516236D01*
X274486Y516249D01*
X274580Y516259D01*
X274675Y516265D01*
X274769Y516267D01*
X272483Y513981D02*
X272485Y513875D01*
X272491Y513770D01*
X272500Y513665D01*
X272513Y513560D01*
X272530Y513456D01*
X272551Y513353D01*
X272575Y513250D01*
X272604Y513148D01*
X272635Y513048D01*
X272671Y512948D01*
X272709Y512850D01*
X272752Y512754D01*
X272798Y512658D01*
X272847Y512565D01*
X272899Y512474D01*
X272955Y512384D01*
X273014Y512296D01*
X273076Y512211D01*
X273141Y512128D01*
X273209Y512047D01*
X273280Y511969D01*
X273354Y511894D01*
X273430Y511821D01*
X273509Y511751D01*
X273590Y511684D01*
X273674Y511619D01*
X273760Y511558D01*
X273848Y511500D01*
X273938Y511445D01*
X274030Y511394D01*
X274124Y511345D01*
X274220Y511300D01*
X274317Y511259D01*
X274415Y511221D01*
X274515Y511187D01*
X276547Y515505D02*
X276480Y515572D01*
X276411Y515637D01*
X276339Y515699D01*
X276266Y515758D01*
X276189Y515814D01*
X276111Y515868D01*
X276031Y515918D01*
X275949Y515965D01*
X275865Y516009D01*
X275779Y516049D01*
X275692Y516087D01*
X275604Y516121D01*
X275514Y516151D01*
X275424Y516178D01*
X275332Y516202D01*
X275239Y516222D01*
X275146Y516238D01*
X275052Y516251D01*
X274958Y516260D01*
X274864Y516265D01*
X274769Y516267D01*
X276547Y515505D02*
X281627Y511187D01*
X281627Y516267D01*
M02*
