G04 EAGLE Gerber RS-274X export*
G75*
%MOMM*%
%FSLAX34Y34*%
%LPD*%
%INSoldermask Top*%
%IPPOS*%
%AMOC8*
5,1,8,0,0,1.08239X$1,22.5*%
G01*
%ADD10C,4.203200*%
%ADD11C,1.727200*%
%ADD12P,2.005885X8X202.500000*%
%ADD13C,0.258150*%
%ADD14R,2.203200X1.103200*%
%ADD15R,1.103200X2.203200*%
%ADD16R,1.533200X1.533200*%
%ADD17C,0.911200*%
%ADD18C,1.733200*%
%ADD19R,1.703200X0.603200*%
%ADD20R,6.203200X6.203200*%
%ADD21C,6.203200*%
%ADD22R,0.703200X0.703200*%
%ADD23R,0.603200X0.603200*%
%ADD24R,0.603200X1.553200*%
%ADD25C,1.261200*%
%ADD26C,1.211200*%
%ADD27R,1.703200X1.753200*%
%ADD28C,0.245278*%
%ADD29R,1.203200X1.803200*%
%ADD30R,1.350000X1.200000*%
%ADD31R,1.092200X1.422400*%
%ADD32R,6.934200X6.705600*%
%ADD33C,0.959600*%

G36*
X535465Y466936D02*
X535465Y466936D01*
X535466Y466935D01*
X536578Y467061D01*
X536579Y467061D01*
X537636Y467431D01*
X537637Y467431D01*
X538585Y468027D01*
X538585Y468028D01*
X538586Y468028D01*
X539378Y468819D01*
X539378Y468820D01*
X539974Y469768D01*
X539974Y469769D01*
X540344Y470826D01*
X540344Y470827D01*
X540345Y470830D01*
X540345Y470834D01*
X540346Y470839D01*
X540346Y470844D01*
X540348Y470858D01*
X540348Y470863D01*
X540349Y470868D01*
X540349Y470872D01*
X540350Y470872D01*
X540349Y470872D01*
X540350Y470877D01*
X540351Y470882D01*
X540352Y470896D01*
X540353Y470901D01*
X540353Y470906D01*
X540354Y470910D01*
X540354Y470915D01*
X540355Y470920D01*
X540356Y470934D01*
X540357Y470939D01*
X540358Y470944D01*
X540358Y470948D01*
X540359Y470953D01*
X540359Y470958D01*
X540361Y470972D01*
X540361Y470977D01*
X540362Y470982D01*
X540362Y470986D01*
X540363Y470991D01*
X540364Y471005D01*
X540365Y471005D01*
X540364Y471005D01*
X540365Y471010D01*
X540366Y471015D01*
X540366Y471020D01*
X540367Y471024D01*
X540367Y471029D01*
X540369Y471043D01*
X540369Y471048D01*
X540370Y471053D01*
X540370Y471058D01*
X540371Y471062D01*
X540371Y471067D01*
X540373Y471081D01*
X540374Y471086D01*
X540374Y471091D01*
X540375Y471096D01*
X540375Y471100D01*
X540376Y471105D01*
X540377Y471119D01*
X540378Y471124D01*
X540378Y471129D01*
X540379Y471134D01*
X540379Y471138D01*
X540382Y471157D01*
X540382Y471162D01*
X540383Y471167D01*
X540383Y471172D01*
X540384Y471176D01*
X540385Y471191D01*
X540386Y471195D01*
X540386Y471200D01*
X540387Y471205D01*
X540387Y471210D01*
X540388Y471210D01*
X540387Y471210D01*
X540388Y471214D01*
X540390Y471229D01*
X540390Y471233D01*
X540391Y471238D01*
X540391Y471243D01*
X540392Y471248D01*
X540392Y471252D01*
X540394Y471267D01*
X540394Y471271D01*
X540395Y471276D01*
X540396Y471281D01*
X540396Y471286D01*
X540397Y471290D01*
X540398Y471305D01*
X540399Y471309D01*
X540399Y471314D01*
X540400Y471319D01*
X540400Y471324D01*
X540402Y471343D01*
X540403Y471343D01*
X540402Y471343D01*
X540403Y471347D01*
X540404Y471352D01*
X540404Y471357D01*
X540405Y471362D01*
X540406Y471376D01*
X540407Y471381D01*
X540407Y471385D01*
X540408Y471390D01*
X540408Y471395D01*
X540409Y471400D01*
X540411Y471414D01*
X540411Y471419D01*
X540412Y471423D01*
X540412Y471428D01*
X540413Y471433D01*
X540413Y471438D01*
X540415Y471452D01*
X540415Y471457D01*
X540416Y471461D01*
X540416Y471466D01*
X540417Y471471D01*
X540417Y471476D01*
X540419Y471490D01*
X540420Y471495D01*
X540420Y471499D01*
X540421Y471504D01*
X540421Y471509D01*
X540423Y471523D01*
X540423Y471528D01*
X540424Y471533D01*
X540424Y471537D01*
X540425Y471542D01*
X540425Y471547D01*
X540426Y471547D01*
X540425Y471547D01*
X540427Y471561D01*
X540428Y471566D01*
X540428Y471571D01*
X540429Y471575D01*
X540429Y471580D01*
X540430Y471585D01*
X540431Y471599D01*
X540432Y471604D01*
X540432Y471609D01*
X540433Y471613D01*
X540434Y471618D01*
X540434Y471623D01*
X540436Y471637D01*
X540436Y471642D01*
X540437Y471647D01*
X540437Y471651D01*
X540438Y471656D01*
X540440Y471675D01*
X540440Y471680D01*
X540441Y471680D01*
X540440Y471680D01*
X540441Y471685D01*
X540442Y471689D01*
X540442Y471694D01*
X540444Y471708D01*
X540444Y471713D01*
X540445Y471718D01*
X540445Y471723D01*
X540446Y471727D01*
X540446Y471732D01*
X540448Y471746D01*
X540449Y471751D01*
X540449Y471756D01*
X540450Y471761D01*
X540450Y471765D01*
X540451Y471770D01*
X540452Y471784D01*
X540453Y471789D01*
X540453Y471794D01*
X540454Y471799D01*
X540454Y471803D01*
X540455Y471808D01*
X540457Y471822D01*
X540457Y471827D01*
X540458Y471832D01*
X540458Y471837D01*
X540459Y471841D01*
X540461Y471860D01*
X540461Y471865D01*
X540462Y471870D01*
X540462Y471875D01*
X540463Y471879D01*
X540465Y471894D01*
X540465Y471898D01*
X540466Y471903D01*
X540466Y471908D01*
X540467Y471913D01*
X540467Y471917D01*
X540469Y471932D01*
X540469Y471936D01*
X540470Y471939D01*
X540470Y471940D01*
X540470Y479440D01*
X540470Y479441D01*
X540344Y480553D01*
X540344Y480554D01*
X539974Y481611D01*
X539974Y481612D01*
X539378Y482560D01*
X539377Y482560D01*
X539378Y482561D01*
X538586Y483353D01*
X538585Y483353D01*
X537637Y483949D01*
X537636Y483949D01*
X536579Y484319D01*
X536578Y484319D01*
X535466Y484445D01*
X535465Y484445D01*
X521465Y484445D01*
X521460Y484441D01*
X521461Y484440D01*
X521460Y484440D01*
X521460Y466940D01*
X521464Y466935D01*
X521465Y466936D01*
X521465Y466935D01*
X535465Y466935D01*
X535465Y466936D01*
G37*
G36*
X477470Y466939D02*
X477470Y466939D01*
X477469Y466940D01*
X477470Y466940D01*
X477470Y484440D01*
X477466Y484445D01*
X477465Y484444D01*
X477465Y484445D01*
X463465Y484445D01*
X463464Y484445D01*
X462352Y484319D01*
X462351Y484319D01*
X461294Y483949D01*
X461293Y483949D01*
X460345Y483353D01*
X460345Y483352D01*
X460344Y483353D01*
X459553Y482561D01*
X459552Y482560D01*
X458956Y481612D01*
X458956Y481611D01*
X458586Y480554D01*
X458586Y480553D01*
X458584Y480540D01*
X458584Y480535D01*
X458583Y480530D01*
X458583Y480526D01*
X458582Y480521D01*
X458580Y480507D01*
X458580Y480502D01*
X458579Y480497D01*
X458579Y480492D01*
X458578Y480488D01*
X458578Y480483D01*
X458576Y480469D01*
X458576Y480464D01*
X458575Y480459D01*
X458575Y480454D01*
X458574Y480450D01*
X458573Y480445D01*
X458572Y480431D01*
X458571Y480426D01*
X458571Y480421D01*
X458570Y480416D01*
X458570Y480412D01*
X458569Y480407D01*
X458568Y480393D01*
X458567Y480388D01*
X458567Y480383D01*
X458566Y480383D01*
X458567Y480383D01*
X458566Y480378D01*
X458565Y480374D01*
X458563Y480355D01*
X458563Y480350D01*
X458562Y480345D01*
X458562Y480340D01*
X458561Y480336D01*
X458560Y480321D01*
X458559Y480317D01*
X458558Y480312D01*
X458558Y480307D01*
X458557Y480302D01*
X458557Y480298D01*
X458555Y480283D01*
X458555Y480279D01*
X458554Y480274D01*
X458554Y480269D01*
X458553Y480264D01*
X458553Y480260D01*
X458551Y480245D01*
X458550Y480241D01*
X458550Y480236D01*
X458549Y480231D01*
X458549Y480226D01*
X458548Y480222D01*
X458547Y480207D01*
X458546Y480203D01*
X458546Y480198D01*
X458545Y480193D01*
X458545Y480188D01*
X458543Y480174D01*
X458542Y480169D01*
X458542Y480165D01*
X458541Y480160D01*
X458541Y480155D01*
X458540Y480150D01*
X458539Y480136D01*
X458538Y480131D01*
X458538Y480127D01*
X458537Y480122D01*
X458537Y480117D01*
X458536Y480112D01*
X458534Y480098D01*
X458534Y480093D01*
X458533Y480089D01*
X458533Y480084D01*
X458532Y480079D01*
X458532Y480074D01*
X458530Y480060D01*
X458530Y480055D01*
X458529Y480051D01*
X458529Y480046D01*
X458528Y480046D01*
X458529Y480046D01*
X458528Y480041D01*
X458526Y480022D01*
X458525Y480017D01*
X458525Y480013D01*
X458524Y480008D01*
X458524Y480003D01*
X458522Y479989D01*
X458522Y479984D01*
X458521Y479979D01*
X458520Y479975D01*
X458520Y479970D01*
X458519Y479965D01*
X458518Y479951D01*
X458517Y479946D01*
X458517Y479941D01*
X458516Y479937D01*
X458516Y479932D01*
X458515Y479927D01*
X458514Y479913D01*
X458513Y479913D01*
X458514Y479913D01*
X458513Y479908D01*
X458512Y479903D01*
X458512Y479899D01*
X458511Y479894D01*
X458511Y479889D01*
X458509Y479875D01*
X458509Y479870D01*
X458508Y479865D01*
X458508Y479861D01*
X458507Y479856D01*
X458505Y479837D01*
X458504Y479832D01*
X458504Y479827D01*
X458503Y479823D01*
X458503Y479818D01*
X458501Y479804D01*
X458501Y479799D01*
X458500Y479794D01*
X458500Y479789D01*
X458499Y479785D01*
X458499Y479780D01*
X458497Y479766D01*
X458496Y479761D01*
X458496Y479756D01*
X458495Y479751D01*
X458495Y479747D01*
X458494Y479742D01*
X458493Y479728D01*
X458492Y479723D01*
X458492Y479718D01*
X458491Y479713D01*
X458491Y479709D01*
X458490Y479709D01*
X458491Y479709D01*
X458490Y479704D01*
X458488Y479690D01*
X458488Y479685D01*
X458487Y479680D01*
X458487Y479675D01*
X458486Y479671D01*
X458485Y479656D01*
X458484Y479652D01*
X458484Y479647D01*
X458483Y479642D01*
X458482Y479637D01*
X458482Y479633D01*
X458480Y479618D01*
X458480Y479614D01*
X458479Y479609D01*
X458479Y479604D01*
X458478Y479599D01*
X458478Y479595D01*
X458476Y479580D01*
X458476Y479576D01*
X458475Y479576D01*
X458476Y479576D01*
X458475Y479571D01*
X458474Y479566D01*
X458474Y479561D01*
X458473Y479557D01*
X458472Y479542D01*
X458471Y479538D01*
X458471Y479533D01*
X458470Y479528D01*
X458470Y479523D01*
X458467Y479504D01*
X458467Y479500D01*
X458466Y479495D01*
X458466Y479490D01*
X458465Y479485D01*
X458464Y479471D01*
X458463Y479466D01*
X458463Y479462D01*
X458462Y479457D01*
X458462Y479452D01*
X458461Y479447D01*
X458460Y479441D01*
X458461Y479440D01*
X458460Y479440D01*
X458460Y471940D01*
X458461Y471940D01*
X458460Y471939D01*
X458586Y470827D01*
X458586Y470826D01*
X458956Y469769D01*
X458956Y469768D01*
X459552Y468820D01*
X459553Y468820D01*
X459553Y468819D01*
X460344Y468028D01*
X460345Y468027D01*
X461293Y467431D01*
X461294Y467431D01*
X462351Y467061D01*
X462352Y467061D01*
X463464Y466935D01*
X463465Y466936D01*
X463465Y466935D01*
X477465Y466935D01*
X477470Y466939D01*
G37*
D10*
X61625Y492300D03*
X60000Y860475D03*
X570000Y860475D03*
X571625Y492300D03*
D11*
X350875Y487755D02*
X350875Y502995D01*
X325475Y502995D02*
X325475Y487755D01*
X300075Y487755D02*
X300075Y502995D01*
X376275Y502995D02*
X376275Y487755D01*
X401675Y487755D02*
X401675Y502995D01*
X427075Y502995D02*
X427075Y487755D01*
D12*
X160375Y533475D03*
X134975Y533475D03*
X109575Y533475D03*
X84175Y533475D03*
D13*
X301375Y643325D02*
X307225Y643325D01*
X307225Y641675D01*
X301375Y641675D01*
X301375Y643325D01*
X301375Y647325D02*
X307225Y647325D01*
X307225Y645675D01*
X301375Y645675D01*
X301375Y647325D01*
X301375Y651325D02*
X307225Y651325D01*
X307225Y649675D01*
X301375Y649675D01*
X301375Y651325D01*
X301375Y655325D02*
X307225Y655325D01*
X307225Y653675D01*
X301375Y653675D01*
X301375Y655325D01*
X301375Y659325D02*
X307225Y659325D01*
X307225Y657675D01*
X301375Y657675D01*
X301375Y659325D01*
X301375Y663325D02*
X307225Y663325D01*
X307225Y661675D01*
X301375Y661675D01*
X301375Y663325D01*
X298025Y665025D02*
X298025Y670875D01*
X299675Y670875D01*
X299675Y665025D01*
X298025Y665025D01*
X298025Y667478D02*
X299675Y667478D01*
X299675Y669931D02*
X298025Y669931D01*
X294025Y670875D02*
X294025Y665025D01*
X294025Y670875D02*
X295675Y670875D01*
X295675Y665025D01*
X294025Y665025D01*
X294025Y667478D02*
X295675Y667478D01*
X295675Y669931D02*
X294025Y669931D01*
X290025Y670875D02*
X290025Y665025D01*
X290025Y670875D02*
X291675Y670875D01*
X291675Y665025D01*
X290025Y665025D01*
X290025Y667478D02*
X291675Y667478D01*
X291675Y669931D02*
X290025Y669931D01*
X286025Y670875D02*
X286025Y665025D01*
X286025Y670875D02*
X287675Y670875D01*
X287675Y665025D01*
X286025Y665025D01*
X286025Y667478D02*
X287675Y667478D01*
X287675Y669931D02*
X286025Y669931D01*
X282025Y670875D02*
X282025Y665025D01*
X282025Y670875D02*
X283675Y670875D01*
X283675Y665025D01*
X282025Y665025D01*
X282025Y667478D02*
X283675Y667478D01*
X283675Y669931D02*
X282025Y669931D01*
X278025Y670875D02*
X278025Y665025D01*
X278025Y670875D02*
X279675Y670875D01*
X279675Y665025D01*
X278025Y665025D01*
X278025Y667478D02*
X279675Y667478D01*
X279675Y669931D02*
X278025Y669931D01*
X276325Y661675D02*
X270475Y661675D01*
X270475Y663325D01*
X276325Y663325D01*
X276325Y661675D01*
X276325Y657675D02*
X270475Y657675D01*
X270475Y659325D01*
X276325Y659325D01*
X276325Y657675D01*
X276325Y653675D02*
X270475Y653675D01*
X270475Y655325D01*
X276325Y655325D01*
X276325Y653675D01*
X276325Y649675D02*
X270475Y649675D01*
X270475Y651325D01*
X276325Y651325D01*
X276325Y649675D01*
X276325Y645675D02*
X270475Y645675D01*
X270475Y647325D01*
X276325Y647325D01*
X276325Y645675D01*
X276325Y641675D02*
X270475Y641675D01*
X270475Y643325D01*
X276325Y643325D01*
X276325Y641675D01*
X279675Y639975D02*
X279675Y634125D01*
X278025Y634125D01*
X278025Y639975D01*
X279675Y639975D01*
X279675Y636578D02*
X278025Y636578D01*
X278025Y639031D02*
X279675Y639031D01*
X283675Y639975D02*
X283675Y634125D01*
X282025Y634125D01*
X282025Y639975D01*
X283675Y639975D01*
X283675Y636578D02*
X282025Y636578D01*
X282025Y639031D02*
X283675Y639031D01*
X287675Y639975D02*
X287675Y634125D01*
X286025Y634125D01*
X286025Y639975D01*
X287675Y639975D01*
X287675Y636578D02*
X286025Y636578D01*
X286025Y639031D02*
X287675Y639031D01*
X291675Y639975D02*
X291675Y634125D01*
X290025Y634125D01*
X290025Y639975D01*
X291675Y639975D01*
X291675Y636578D02*
X290025Y636578D01*
X290025Y639031D02*
X291675Y639031D01*
X295675Y639975D02*
X295675Y634125D01*
X294025Y634125D01*
X294025Y639975D01*
X295675Y639975D01*
X295675Y636578D02*
X294025Y636578D01*
X294025Y639031D02*
X295675Y639031D01*
X299675Y639975D02*
X299675Y634125D01*
X298025Y634125D01*
X298025Y639975D01*
X299675Y639975D01*
X299675Y636578D02*
X298025Y636578D01*
X298025Y639031D02*
X299675Y639031D01*
D14*
X346800Y878100D03*
X346800Y865400D03*
X346800Y852700D03*
X346800Y840000D03*
X346800Y827300D03*
X346800Y814600D03*
X346800Y801900D03*
X346800Y789200D03*
X346800Y776500D03*
X346800Y763800D03*
X346800Y751100D03*
X346800Y738400D03*
X346800Y725700D03*
X346800Y713000D03*
D15*
X374650Y703000D03*
X387350Y703000D03*
X400050Y703000D03*
X412750Y703000D03*
X425450Y703000D03*
X438150Y703000D03*
X450850Y703000D03*
X463550Y703000D03*
X476250Y703000D03*
X488950Y703000D03*
D14*
X516800Y713000D03*
X516800Y725700D03*
X516800Y738400D03*
X516800Y751100D03*
X516800Y763800D03*
X516800Y776500D03*
X516800Y789200D03*
X516800Y801900D03*
X516800Y814600D03*
X516800Y827300D03*
X516800Y840000D03*
X516800Y852700D03*
X516800Y865400D03*
X516800Y878100D03*
D16*
X403450Y821450D03*
X421800Y821450D03*
X440150Y821450D03*
X403450Y803100D03*
X421800Y803100D03*
X440150Y803100D03*
X403450Y784750D03*
X421800Y784750D03*
X440150Y784750D03*
D17*
X412625Y821450D03*
X430975Y821450D03*
X403450Y812275D03*
X421800Y812275D03*
X440150Y812275D03*
X412625Y803100D03*
X430975Y803100D03*
X403450Y793925D03*
X421800Y793925D03*
X440150Y793925D03*
X412625Y784750D03*
X430975Y784750D03*
D18*
X109575Y631900D03*
X109575Y606500D03*
X134975Y606500D03*
X160375Y606500D03*
X185775Y606500D03*
X211175Y606500D03*
D19*
X326725Y542025D03*
X326725Y548525D03*
X326725Y555025D03*
X326725Y561525D03*
X326725Y568025D03*
X326725Y574525D03*
X326725Y581025D03*
X326725Y587525D03*
X326725Y594025D03*
X326725Y600525D03*
X326725Y607025D03*
X326725Y613525D03*
X254225Y600525D03*
X254225Y594025D03*
X254225Y587525D03*
X254225Y581025D03*
X254225Y574525D03*
X254225Y568025D03*
X254225Y561525D03*
X254225Y555025D03*
X254225Y548525D03*
X254225Y542025D03*
X254225Y607025D03*
X254225Y613525D03*
D20*
X77683Y716313D03*
D21*
X74633Y788313D03*
D22*
X513718Y518261D03*
X491718Y518261D03*
D23*
X507767Y528014D03*
X507767Y542014D03*
X491765Y528014D03*
X491765Y542014D03*
X524956Y528023D03*
X524956Y542023D03*
D24*
X486465Y502690D03*
X492965Y502690D03*
X499465Y502690D03*
X505965Y502690D03*
X512465Y502690D03*
D25*
X474352Y497457D02*
X474352Y508037D01*
X524608Y507953D02*
X524608Y497373D01*
D26*
X464465Y480730D02*
X464465Y470650D01*
D27*
X489465Y475690D03*
X509465Y475690D03*
D26*
X534465Y480730D02*
X534465Y470650D01*
D28*
X484076Y641975D02*
X464796Y641975D01*
X464796Y645655D01*
X484076Y645655D01*
X484076Y641975D01*
X484076Y644305D02*
X464796Y644305D01*
X464796Y635625D02*
X484076Y635625D01*
X464796Y635625D02*
X464796Y639305D01*
X484076Y639305D01*
X484076Y635625D01*
X484076Y637955D02*
X464796Y637955D01*
X464796Y629275D02*
X484076Y629275D01*
X464796Y629275D02*
X464796Y632955D01*
X484076Y632955D01*
X484076Y629275D01*
X484076Y631605D02*
X464796Y631605D01*
X464796Y622925D02*
X484076Y622925D01*
X464796Y622925D02*
X464796Y626605D01*
X484076Y626605D01*
X484076Y622925D01*
X484076Y625255D02*
X464796Y625255D01*
X464796Y616575D02*
X484076Y616575D01*
X464796Y616575D02*
X464796Y620255D01*
X484076Y620255D01*
X484076Y616575D01*
X484076Y618905D02*
X464796Y618905D01*
X464796Y610225D02*
X484076Y610225D01*
X464796Y610225D02*
X464796Y613905D01*
X484076Y613905D01*
X484076Y610225D01*
X484076Y612555D02*
X464796Y612555D01*
X464796Y603875D02*
X484076Y603875D01*
X464796Y603875D02*
X464796Y607555D01*
X484076Y607555D01*
X484076Y603875D01*
X484076Y606205D02*
X464796Y606205D01*
X464796Y597525D02*
X484076Y597525D01*
X464796Y597525D02*
X464796Y601205D01*
X484076Y601205D01*
X484076Y597525D01*
X484076Y599855D02*
X464796Y599855D01*
X464796Y591175D02*
X484076Y591175D01*
X464796Y591175D02*
X464796Y594855D01*
X484076Y594855D01*
X484076Y591175D01*
X484076Y593505D02*
X464796Y593505D01*
X464796Y584825D02*
X484076Y584825D01*
X464796Y584825D02*
X464796Y588505D01*
X484076Y588505D01*
X484076Y584825D01*
X484076Y587155D02*
X464796Y587155D01*
X514196Y588505D02*
X533476Y588505D01*
X533476Y584825D01*
X514196Y584825D01*
X514196Y588505D01*
X514196Y587155D02*
X533476Y587155D01*
X533476Y594855D02*
X514196Y594855D01*
X533476Y594855D02*
X533476Y591175D01*
X514196Y591175D01*
X514196Y594855D01*
X514196Y593505D02*
X533476Y593505D01*
X533476Y601205D02*
X514196Y601205D01*
X533476Y601205D02*
X533476Y597525D01*
X514196Y597525D01*
X514196Y601205D01*
X514196Y599855D02*
X533476Y599855D01*
X533476Y607555D02*
X514196Y607555D01*
X533476Y607555D02*
X533476Y603875D01*
X514196Y603875D01*
X514196Y607555D01*
X514196Y606205D02*
X533476Y606205D01*
X533476Y613905D02*
X514196Y613905D01*
X533476Y613905D02*
X533476Y610225D01*
X514196Y610225D01*
X514196Y613905D01*
X514196Y612555D02*
X533476Y612555D01*
X533476Y620255D02*
X514196Y620255D01*
X533476Y620255D02*
X533476Y616575D01*
X514196Y616575D01*
X514196Y620255D01*
X514196Y618905D02*
X533476Y618905D01*
X533476Y626605D02*
X514196Y626605D01*
X533476Y626605D02*
X533476Y622925D01*
X514196Y622925D01*
X514196Y626605D01*
X514196Y625255D02*
X533476Y625255D01*
X533476Y632955D02*
X514196Y632955D01*
X533476Y632955D02*
X533476Y629275D01*
X514196Y629275D01*
X514196Y632955D01*
X514196Y631605D02*
X533476Y631605D01*
X533476Y639305D02*
X514196Y639305D01*
X533476Y639305D02*
X533476Y635625D01*
X514196Y635625D01*
X514196Y639305D01*
X514196Y637955D02*
X533476Y637955D01*
X533476Y645655D02*
X514196Y645655D01*
X533476Y645655D02*
X533476Y641975D01*
X514196Y641975D01*
X514196Y645655D01*
X514196Y644305D02*
X533476Y644305D01*
D29*
X547420Y665865D03*
X547420Y729865D03*
X585420Y665865D03*
X585420Y729865D03*
X547420Y757940D03*
X547420Y821940D03*
X585420Y757940D03*
X585420Y821940D03*
D30*
X551800Y623010D03*
X575300Y623010D03*
X551800Y593502D03*
X575300Y593502D03*
X551954Y561542D03*
X575454Y561542D03*
D31*
X400024Y527887D03*
X445744Y527887D03*
D32*
X422884Y594435D03*
D11*
X215900Y709930D02*
X215900Y725170D01*
X190500Y725170D02*
X190500Y709930D01*
X165100Y709930D02*
X165100Y725170D01*
X241300Y725170D02*
X241300Y709930D01*
X266700Y709930D02*
X266700Y725170D01*
X292100Y725170D02*
X292100Y709930D01*
X215900Y852805D02*
X215900Y868045D01*
X190500Y868045D02*
X190500Y852805D01*
X165100Y852805D02*
X165100Y868045D01*
X241300Y868045D02*
X241300Y852805D01*
X266700Y852805D02*
X266700Y868045D01*
X292100Y868045D02*
X292100Y852805D01*
X215900Y797052D02*
X215900Y781812D01*
X190500Y781812D02*
X190500Y797052D01*
X165100Y797052D02*
X165100Y781812D01*
X241300Y781812D02*
X241300Y797052D01*
X266700Y797052D02*
X266700Y781812D01*
X292100Y781812D02*
X292100Y797052D01*
X192125Y502995D02*
X192125Y487755D01*
X217525Y487755D02*
X217525Y502995D01*
X242925Y502995D02*
X242925Y487755D01*
X166725Y487755D02*
X166725Y502995D01*
X141325Y502995D02*
X141325Y487755D01*
X115925Y487755D02*
X115925Y502995D01*
D33*
X394208Y641143D03*
X404368Y640334D03*
X284988Y579008D03*
X516800Y763800D03*
X284480Y557276D03*
X516800Y725700D03*
X291717Y598650D03*
X516800Y814600D03*
X277560Y572149D03*
X516800Y751100D03*
X284627Y566364D03*
X516800Y738400D03*
X277368Y585950D03*
X516800Y776500D03*
X285242Y592272D03*
X516800Y789200D03*
X339725Y875206D03*
X265329Y581025D03*
X326725Y556879D03*
X334853Y597154D03*
X541020Y778670D03*
X346800Y878100D03*
X403450Y821450D03*
X403450Y784750D03*
X421800Y784750D03*
X440150Y784750D03*
X422275Y803100D03*
X266700Y641350D03*
X283798Y618511D03*
X585420Y757940D03*
X540385Y692945D03*
X585420Y665865D03*
X492005Y480770D03*
X553259Y576601D03*
X294132Y618617D03*
X477621Y548682D03*
X564583Y533856D03*
X563898Y554381D03*
X507767Y542014D03*
X485659Y502690D03*
X412757Y556462D03*
X412757Y531824D03*
X400024Y527887D03*
X487370Y612065D03*
X510902Y618415D03*
X380245Y605992D03*
X380245Y581608D03*
X433018Y639819D03*
X440150Y821450D03*
X396494Y718306D03*
X503682Y878332D03*
X243123Y581623D03*
X211175Y581025D03*
X241300Y568325D03*
X268831Y568025D03*
X584200Y779170D03*
X276225Y625475D03*
X310656Y641213D03*
X582930Y693445D03*
X572063Y609052D03*
X571830Y641425D03*
X301916Y683556D03*
X400245Y605992D03*
X400245Y581608D03*
X433018Y619819D03*
X450088Y619506D03*
X396494Y620014D03*
X395631Y567182D03*
X449834Y596138D03*
X449834Y568706D03*
X423081Y568789D03*
X416052Y609092D03*
X436880Y608584D03*
X436880Y588264D03*
X415798Y588010D03*
X461502Y631115D03*
X365920Y866775D03*
X323596Y850646D03*
X537027Y605973D03*
X539242Y567690D03*
X264894Y660400D03*
X520452Y535023D03*
X501424Y528014D03*
X514012Y495300D03*
X544583Y533856D03*
X432757Y531824D03*
X480314Y829691D03*
X404774Y729336D03*
X540385Y712945D03*
X516800Y713000D03*
X522045Y554483D03*
X492868Y555169D03*
X575300Y623010D03*
X536770Y624765D03*
X534162Y578358D03*
X474436Y585659D03*
X552830Y641425D03*
X553063Y609052D03*
X561975Y673100D03*
X558800Y758825D03*
X447293Y656571D03*
X489959Y657232D03*
X426466Y654812D03*
X490756Y676232D03*
X452628Y639064D03*
X490728Y639572D03*
X572259Y576601D03*
X304800Y769338D03*
X320675Y769338D03*
X383738Y640644D03*
X384048Y651002D03*
X289272Y686731D03*
M02*
