G04 EAGLE Gerber RS-274X export*
G75*
%MOMM*%
%FSLAX34Y34*%
%LPD*%
%INSoldermask Bottom*%
%IPPOS*%
%AMOC8*
5,1,8,0,0,1.08239X$1,22.5*%
G01*
%ADD10C,4.203200*%
%ADD11C,1.727200*%
%ADD12P,2.005885X8X202.500000*%
%ADD13C,0.911200*%
%ADD14C,1.733200*%
%ADD15R,6.203200X6.203200*%
%ADD16C,6.203200*%
%ADD17C,1.261200*%
%ADD18C,1.211200*%
%ADD19R,1.703200X1.503200*%
%ADD20R,1.503200X1.803200*%
%ADD21R,1.803200X1.503200*%
%ADD22R,1.503200X1.703200*%
%ADD23R,1.003200X1.103200*%
%ADD24C,0.959600*%


D10*
X61625Y492300D03*
X60000Y860475D03*
X570000Y860475D03*
X571625Y492300D03*
D11*
X350875Y487755D02*
X350875Y502995D01*
X325475Y502995D02*
X325475Y487755D01*
X300075Y487755D02*
X300075Y502995D01*
X376275Y502995D02*
X376275Y487755D01*
X401675Y487755D02*
X401675Y502995D01*
X427075Y502995D02*
X427075Y487755D01*
D12*
X160375Y533475D03*
X134975Y533475D03*
X109575Y533475D03*
X84175Y533475D03*
D13*
X412625Y821450D03*
X430975Y821450D03*
X403450Y812275D03*
X421800Y812275D03*
X440150Y812275D03*
X412625Y803100D03*
X430975Y803100D03*
X403450Y793925D03*
X421800Y793925D03*
X440150Y793925D03*
X412625Y784750D03*
X430975Y784750D03*
D14*
X109575Y631900D03*
X109575Y606500D03*
X134975Y606500D03*
X160375Y606500D03*
X185775Y606500D03*
X211175Y606500D03*
D15*
X77683Y716313D03*
D16*
X74633Y788313D03*
D17*
X474352Y508037D02*
X474352Y497457D01*
X524608Y497373D02*
X524608Y507953D01*
D18*
X464465Y480730D02*
X464465Y470650D01*
X534465Y470650D02*
X534465Y480730D01*
D19*
X522045Y535483D03*
X522045Y554483D03*
X492962Y535685D03*
X492962Y554685D03*
D20*
X543922Y554381D03*
X563922Y554381D03*
D21*
X470763Y534778D03*
X470763Y554778D03*
X473404Y630421D03*
X473404Y610421D03*
D22*
X571830Y641425D03*
X552830Y641425D03*
X572063Y609052D03*
X553063Y609052D03*
D19*
X562610Y798805D03*
X562610Y779805D03*
X561340Y713080D03*
X561340Y694080D03*
X582930Y693445D03*
X582930Y712445D03*
X584200Y779170D03*
X584200Y798170D03*
D21*
X540385Y712945D03*
X540385Y692945D03*
X541020Y798670D03*
X541020Y778670D03*
D23*
X456793Y676571D03*
X466293Y656571D03*
X447293Y656571D03*
X406882Y676698D03*
X416382Y656698D03*
X397382Y656698D03*
D19*
X493274Y676232D03*
X493274Y657232D03*
X519829Y657369D03*
X519829Y676369D03*
D20*
X544583Y533856D03*
X564583Y533856D03*
X512005Y480770D03*
X492005Y480770D03*
D21*
X334010Y851695D03*
X334010Y871695D03*
D20*
X365920Y866775D03*
X385920Y866775D03*
D22*
X553259Y576601D03*
X572259Y576601D03*
D20*
X432757Y556462D03*
X412757Y556462D03*
X432757Y531824D03*
X412757Y531824D03*
X400245Y605992D03*
X380245Y605992D03*
D21*
X433018Y619819D03*
X433018Y639819D03*
D20*
X400245Y581608D03*
X380245Y581608D03*
D21*
X244550Y563050D03*
X244550Y583050D03*
X263600Y563050D03*
X263600Y583050D03*
D20*
X207450Y580950D03*
X227450Y580950D03*
X207450Y561900D03*
X227450Y561900D03*
D11*
X215900Y709930D02*
X215900Y725170D01*
X190500Y725170D02*
X190500Y709930D01*
X165100Y709930D02*
X165100Y725170D01*
X241300Y725170D02*
X241300Y709930D01*
X266700Y709930D02*
X266700Y725170D01*
X292100Y725170D02*
X292100Y709930D01*
X215900Y852805D02*
X215900Y868045D01*
X190500Y868045D02*
X190500Y852805D01*
X165100Y852805D02*
X165100Y868045D01*
X241300Y868045D02*
X241300Y852805D01*
X266700Y852805D02*
X266700Y868045D01*
X292100Y868045D02*
X292100Y852805D01*
X215900Y797052D02*
X215900Y781812D01*
X190500Y781812D02*
X190500Y797052D01*
X165100Y797052D02*
X165100Y781812D01*
X241300Y781812D02*
X241300Y797052D01*
X266700Y797052D02*
X266700Y781812D01*
X292100Y781812D02*
X292100Y797052D01*
X192125Y502995D02*
X192125Y487755D01*
X217525Y487755D02*
X217525Y502995D01*
X242925Y502995D02*
X242925Y487755D01*
X166725Y487755D02*
X166725Y502995D01*
X141325Y502995D02*
X141325Y487755D01*
X115925Y487755D02*
X115925Y502995D01*
D20*
X278850Y651200D03*
X298850Y651200D03*
X278850Y670250D03*
X298850Y670250D03*
X278850Y632150D03*
X298850Y632150D03*
D24*
X394208Y641143D03*
X404368Y640334D03*
X284988Y579008D03*
X516800Y763800D03*
X284480Y557276D03*
X516800Y725700D03*
X291717Y598650D03*
X516800Y814600D03*
X277560Y572149D03*
X516800Y751100D03*
X284627Y566364D03*
X516800Y738400D03*
X277368Y585950D03*
X516800Y776500D03*
X285242Y592272D03*
X516800Y789200D03*
X339725Y875206D03*
X265329Y581025D03*
X326725Y556879D03*
X334853Y597154D03*
X541020Y778670D03*
X346800Y878100D03*
X403450Y821450D03*
X403450Y784750D03*
X421800Y784750D03*
X440150Y784750D03*
X422275Y803100D03*
X266700Y641350D03*
X283798Y618511D03*
X585420Y757940D03*
X540385Y692945D03*
X585420Y665865D03*
X492005Y480770D03*
X553259Y576601D03*
X294132Y618617D03*
X477621Y548682D03*
X564583Y533856D03*
X563898Y554381D03*
X507767Y542014D03*
X485659Y502690D03*
X412757Y556462D03*
X412757Y531824D03*
X400024Y527887D03*
X487370Y612065D03*
X510902Y618415D03*
X380245Y605992D03*
X380245Y581608D03*
X433018Y639819D03*
X440150Y821450D03*
X396494Y718306D03*
X503682Y878332D03*
X243123Y581623D03*
X211175Y581025D03*
X241300Y568325D03*
X268831Y568025D03*
X584200Y779170D03*
X276225Y625475D03*
X310656Y641213D03*
X582930Y693445D03*
X572063Y609052D03*
X571830Y641425D03*
X301916Y683556D03*
X400245Y605992D03*
X400245Y581608D03*
X433018Y619819D03*
X450088Y619506D03*
X396494Y620014D03*
X395631Y567182D03*
X449834Y596138D03*
X449834Y568706D03*
X423081Y568789D03*
X416052Y609092D03*
X436880Y608584D03*
X436880Y588264D03*
X415798Y588010D03*
X461502Y631115D03*
X365920Y866775D03*
X323596Y850646D03*
X537027Y605973D03*
X539242Y567690D03*
X264894Y660400D03*
X520452Y535023D03*
X501424Y528014D03*
X514012Y495300D03*
X544583Y533856D03*
X432757Y531824D03*
X480314Y829691D03*
X404774Y729336D03*
X540385Y712945D03*
X516800Y713000D03*
X522045Y554483D03*
X492868Y555169D03*
X575300Y623010D03*
X536770Y624765D03*
X534162Y578358D03*
X474436Y585659D03*
X552830Y641425D03*
X553063Y609052D03*
X561975Y673100D03*
X558800Y758825D03*
X447293Y656571D03*
X489959Y657232D03*
X426466Y654812D03*
X490756Y676232D03*
X452628Y639064D03*
X490728Y639572D03*
X572259Y576601D03*
X304800Y769338D03*
X320675Y769338D03*
X383738Y640644D03*
X384048Y651002D03*
X289272Y686731D03*
M02*
