G04 EAGLE Gerber RS-274X export*
G75*
%MOMM*%
%FSLAX34Y34*%
%LPD*%
%INSolderpaste Bottom*%
%IPPOS*%
%AMOC8*
5,1,8,0,0,1.08239X$1,22.5*%
G01*
%ADD10R,1.500000X1.300000*%
%ADD11R,1.300000X1.600000*%
%ADD12R,1.600000X1.300000*%
%ADD13R,1.300000X1.500000*%
%ADD14R,0.800000X0.900000*%


D10*
X522045Y535483D03*
X522045Y554483D03*
X492962Y535685D03*
X492962Y554685D03*
D11*
X543922Y554381D03*
X563922Y554381D03*
D12*
X470763Y534778D03*
X470763Y554778D03*
X473404Y630421D03*
X473404Y610421D03*
D13*
X571830Y641425D03*
X552830Y641425D03*
X572063Y609052D03*
X553063Y609052D03*
D10*
X562610Y798805D03*
X562610Y779805D03*
X561340Y713080D03*
X561340Y694080D03*
X582930Y693445D03*
X582930Y712445D03*
X584200Y779170D03*
X584200Y798170D03*
D12*
X540385Y712945D03*
X540385Y692945D03*
X541020Y798670D03*
X541020Y778670D03*
D14*
X456793Y676571D03*
X466293Y656571D03*
X447293Y656571D03*
X406882Y676698D03*
X416382Y656698D03*
X397382Y656698D03*
D10*
X493274Y676232D03*
X493274Y657232D03*
X519829Y657369D03*
X519829Y676369D03*
D11*
X544583Y533856D03*
X564583Y533856D03*
X512005Y480770D03*
X492005Y480770D03*
D12*
X334010Y851695D03*
X334010Y871695D03*
D11*
X365920Y866775D03*
X385920Y866775D03*
D13*
X553259Y576601D03*
X572259Y576601D03*
D11*
X432757Y556462D03*
X412757Y556462D03*
X432757Y531824D03*
X412757Y531824D03*
X400245Y605992D03*
X380245Y605992D03*
D12*
X433018Y619819D03*
X433018Y639819D03*
D11*
X400245Y581608D03*
X380245Y581608D03*
D12*
X244550Y563050D03*
X244550Y583050D03*
X263600Y563050D03*
X263600Y583050D03*
D11*
X207450Y580950D03*
X227450Y580950D03*
X207450Y561900D03*
X227450Y561900D03*
X278850Y651200D03*
X298850Y651200D03*
X278850Y670250D03*
X298850Y670250D03*
X278850Y632150D03*
X298850Y632150D03*
M02*
