G04 EAGLE Gerber RS-274X export*
G75*
%MOMM*%
%FSLAX34Y34*%
%LPD*%
%INSolderpaste Top*%
%IPPOS*%
%AMOC8*
5,1,8,0,0,1.08239X$1,22.5*%
G01*
%ADD10C,0.055000*%
%ADD11R,2.000000X0.900000*%
%ADD12R,0.900000X2.000000*%
%ADD13R,1.330000X1.330000*%
%ADD14R,1.500000X0.400000*%
%ADD15R,0.500000X0.500000*%
%ADD16R,0.400000X0.400000*%
%ADD17C,0.000100*%
%ADD18R,0.400000X1.350000*%
%ADD19R,1.500000X1.550000*%
%ADD20C,0.041000*%
%ADD21R,1.000000X1.600000*%
%ADD22R,1.250000X1.100000*%
%ADD23R,0.889000X1.219200*%
%ADD24R,6.731000X6.502400*%

G36*
X534465Y467936D02*
X534465Y467936D01*
X534466Y467935D01*
X535578Y468061D01*
X535579Y468061D01*
X536636Y468431D01*
X536637Y468431D01*
X537585Y469027D01*
X537585Y469028D01*
X537586Y469028D01*
X538378Y469819D01*
X538378Y469820D01*
X538974Y470768D01*
X538974Y470769D01*
X539344Y471826D01*
X539344Y471827D01*
X539345Y471830D01*
X539345Y471834D01*
X539346Y471839D01*
X539346Y471844D01*
X539348Y471858D01*
X539348Y471863D01*
X539349Y471868D01*
X539349Y471872D01*
X539350Y471872D01*
X539349Y471872D01*
X539350Y471877D01*
X539351Y471882D01*
X539352Y471896D01*
X539353Y471901D01*
X539353Y471906D01*
X539354Y471910D01*
X539354Y471915D01*
X539355Y471920D01*
X539356Y471934D01*
X539357Y471939D01*
X539358Y471944D01*
X539358Y471948D01*
X539359Y471953D01*
X539359Y471958D01*
X539361Y471972D01*
X539361Y471977D01*
X539362Y471982D01*
X539362Y471986D01*
X539363Y471991D01*
X539364Y472005D01*
X539365Y472005D01*
X539364Y472005D01*
X539365Y472010D01*
X539366Y472015D01*
X539366Y472020D01*
X539367Y472024D01*
X539367Y472029D01*
X539369Y472043D01*
X539369Y472048D01*
X539370Y472053D01*
X539370Y472058D01*
X539371Y472062D01*
X539371Y472067D01*
X539373Y472081D01*
X539374Y472086D01*
X539374Y472091D01*
X539375Y472096D01*
X539375Y472100D01*
X539376Y472105D01*
X539377Y472119D01*
X539378Y472124D01*
X539378Y472129D01*
X539379Y472134D01*
X539379Y472138D01*
X539382Y472157D01*
X539382Y472162D01*
X539383Y472167D01*
X539383Y472172D01*
X539384Y472176D01*
X539385Y472191D01*
X539386Y472195D01*
X539386Y472200D01*
X539387Y472205D01*
X539387Y472210D01*
X539388Y472210D01*
X539387Y472210D01*
X539388Y472214D01*
X539390Y472229D01*
X539390Y472233D01*
X539391Y472238D01*
X539391Y472243D01*
X539392Y472248D01*
X539392Y472252D01*
X539394Y472267D01*
X539394Y472271D01*
X539395Y472276D01*
X539396Y472281D01*
X539396Y472286D01*
X539397Y472290D01*
X539398Y472305D01*
X539399Y472309D01*
X539399Y472314D01*
X539400Y472319D01*
X539400Y472324D01*
X539402Y472343D01*
X539403Y472343D01*
X539402Y472343D01*
X539403Y472347D01*
X539404Y472352D01*
X539404Y472357D01*
X539405Y472362D01*
X539406Y472376D01*
X539407Y472381D01*
X539407Y472385D01*
X539408Y472390D01*
X539408Y472395D01*
X539409Y472400D01*
X539411Y472414D01*
X539411Y472419D01*
X539412Y472423D01*
X539412Y472428D01*
X539413Y472433D01*
X539413Y472438D01*
X539415Y472452D01*
X539415Y472457D01*
X539416Y472461D01*
X539416Y472466D01*
X539417Y472471D01*
X539417Y472476D01*
X539419Y472490D01*
X539420Y472495D01*
X539420Y472499D01*
X539421Y472504D01*
X539421Y472509D01*
X539423Y472523D01*
X539423Y472528D01*
X539424Y472533D01*
X539424Y472537D01*
X539425Y472542D01*
X539425Y472547D01*
X539426Y472547D01*
X539425Y472547D01*
X539427Y472561D01*
X539428Y472566D01*
X539428Y472571D01*
X539429Y472575D01*
X539429Y472580D01*
X539430Y472585D01*
X539431Y472599D01*
X539432Y472604D01*
X539432Y472609D01*
X539433Y472613D01*
X539434Y472618D01*
X539434Y472623D01*
X539436Y472637D01*
X539436Y472642D01*
X539437Y472647D01*
X539437Y472651D01*
X539438Y472656D01*
X539440Y472675D01*
X539440Y472680D01*
X539441Y472680D01*
X539440Y472680D01*
X539441Y472685D01*
X539442Y472689D01*
X539442Y472694D01*
X539444Y472708D01*
X539444Y472713D01*
X539445Y472718D01*
X539445Y472723D01*
X539446Y472727D01*
X539446Y472732D01*
X539448Y472746D01*
X539449Y472751D01*
X539449Y472756D01*
X539450Y472761D01*
X539450Y472765D01*
X539451Y472770D01*
X539452Y472784D01*
X539453Y472789D01*
X539453Y472794D01*
X539454Y472799D01*
X539454Y472803D01*
X539455Y472808D01*
X539457Y472822D01*
X539457Y472827D01*
X539458Y472832D01*
X539458Y472837D01*
X539459Y472841D01*
X539461Y472860D01*
X539461Y472865D01*
X539462Y472870D01*
X539462Y472875D01*
X539463Y472879D01*
X539465Y472894D01*
X539465Y472898D01*
X539466Y472903D01*
X539466Y472908D01*
X539467Y472913D01*
X539467Y472917D01*
X539469Y472932D01*
X539469Y472936D01*
X539470Y472939D01*
X539470Y472940D01*
X539470Y478440D01*
X539470Y478441D01*
X539344Y479553D01*
X539344Y479554D01*
X538974Y480611D01*
X538974Y480612D01*
X538378Y481560D01*
X538377Y481560D01*
X538378Y481561D01*
X537586Y482353D01*
X537585Y482353D01*
X536637Y482949D01*
X536636Y482949D01*
X535579Y483319D01*
X535578Y483319D01*
X534466Y483445D01*
X534465Y483445D01*
X522465Y483445D01*
X522460Y483441D01*
X522461Y483440D01*
X522460Y483440D01*
X522460Y467940D01*
X522464Y467935D01*
X522465Y467936D01*
X522465Y467935D01*
X534465Y467935D01*
X534465Y467936D01*
G37*
G36*
X476470Y467939D02*
X476470Y467939D01*
X476469Y467940D01*
X476470Y467940D01*
X476470Y483440D01*
X476466Y483445D01*
X476465Y483444D01*
X476465Y483445D01*
X464465Y483445D01*
X464464Y483445D01*
X463352Y483319D01*
X463351Y483319D01*
X462294Y482949D01*
X462293Y482949D01*
X461345Y482353D01*
X461345Y482352D01*
X461344Y482353D01*
X460553Y481561D01*
X460552Y481560D01*
X459956Y480612D01*
X459956Y480611D01*
X459586Y479554D01*
X459586Y479553D01*
X459585Y479545D01*
X459584Y479540D01*
X459584Y479535D01*
X459583Y479531D01*
X459583Y479526D01*
X459580Y479507D01*
X459580Y479502D01*
X459579Y479497D01*
X459579Y479493D01*
X459578Y479488D01*
X459577Y479474D01*
X459576Y479469D01*
X459576Y479464D01*
X459575Y479459D01*
X459575Y479455D01*
X459574Y479450D01*
X459572Y479436D01*
X459572Y479431D01*
X459571Y479426D01*
X459571Y479421D01*
X459570Y479417D01*
X459570Y479412D01*
X459568Y479398D01*
X459568Y479393D01*
X459567Y479388D01*
X459567Y479383D01*
X459566Y479379D01*
X459565Y479374D01*
X459564Y479360D01*
X459563Y479355D01*
X459563Y479350D01*
X459562Y479345D01*
X459562Y479341D01*
X459560Y479322D01*
X459559Y479317D01*
X459559Y479312D01*
X459558Y479312D01*
X459559Y479312D01*
X459558Y479307D01*
X459557Y479303D01*
X459556Y479288D01*
X459555Y479284D01*
X459555Y479279D01*
X459554Y479274D01*
X459554Y479269D01*
X459553Y479265D01*
X459552Y479250D01*
X459551Y479246D01*
X459550Y479241D01*
X459550Y479236D01*
X459549Y479231D01*
X459549Y479227D01*
X459547Y479212D01*
X459547Y479208D01*
X459546Y479203D01*
X459546Y479198D01*
X459545Y479193D01*
X459545Y479189D01*
X459543Y479174D01*
X459542Y479170D01*
X459542Y479165D01*
X459541Y479160D01*
X459541Y479155D01*
X459539Y479141D01*
X459539Y479136D01*
X459538Y479132D01*
X459538Y479127D01*
X459537Y479122D01*
X459537Y479117D01*
X459535Y479103D01*
X459534Y479098D01*
X459534Y479094D01*
X459533Y479089D01*
X459533Y479084D01*
X459532Y479079D01*
X459531Y479065D01*
X459530Y479060D01*
X459530Y479056D01*
X459529Y479051D01*
X459529Y479046D01*
X459528Y479041D01*
X459526Y479027D01*
X459526Y479022D01*
X459525Y479018D01*
X459525Y479013D01*
X459524Y479008D01*
X459522Y478989D01*
X459522Y478984D01*
X459521Y478980D01*
X459521Y478975D01*
X459520Y478975D01*
X459521Y478975D01*
X459520Y478970D01*
X459518Y478956D01*
X459518Y478951D01*
X459517Y478946D01*
X459517Y478942D01*
X459516Y478937D01*
X459516Y478932D01*
X459514Y478918D01*
X459514Y478913D01*
X459513Y478908D01*
X459512Y478904D01*
X459512Y478899D01*
X459511Y478894D01*
X459510Y478880D01*
X459509Y478875D01*
X459509Y478870D01*
X459508Y478866D01*
X459508Y478861D01*
X459507Y478856D01*
X459506Y478842D01*
X459505Y478842D01*
X459506Y478842D01*
X459505Y478837D01*
X459504Y478832D01*
X459504Y478828D01*
X459503Y478823D01*
X459501Y478804D01*
X459501Y478799D01*
X459500Y478794D01*
X459500Y478790D01*
X459499Y478785D01*
X459497Y478771D01*
X459497Y478766D01*
X459496Y478761D01*
X459496Y478756D01*
X459495Y478752D01*
X459495Y478747D01*
X459493Y478733D01*
X459493Y478728D01*
X459492Y478723D01*
X459492Y478718D01*
X459491Y478714D01*
X459491Y478709D01*
X459489Y478695D01*
X459488Y478690D01*
X459488Y478685D01*
X459487Y478680D01*
X459487Y478676D01*
X459486Y478671D01*
X459485Y478657D01*
X459484Y478652D01*
X459484Y478647D01*
X459483Y478642D01*
X459483Y478638D01*
X459482Y478638D01*
X459483Y478638D01*
X459481Y478623D01*
X459480Y478619D01*
X459480Y478614D01*
X459479Y478609D01*
X459479Y478604D01*
X459478Y478600D01*
X459477Y478585D01*
X459476Y478581D01*
X459476Y478576D01*
X459475Y478571D01*
X459474Y478566D01*
X459474Y478562D01*
X459472Y478547D01*
X459472Y478543D01*
X459471Y478538D01*
X459471Y478533D01*
X459470Y478528D01*
X459470Y478524D01*
X459468Y478509D01*
X459468Y478505D01*
X459467Y478505D01*
X459468Y478505D01*
X459467Y478500D01*
X459466Y478495D01*
X459466Y478490D01*
X459464Y478471D01*
X459463Y478467D01*
X459463Y478462D01*
X459462Y478457D01*
X459462Y478452D01*
X459460Y478441D01*
X459461Y478440D01*
X459460Y478440D01*
X459460Y472940D01*
X459461Y472940D01*
X459460Y472939D01*
X459586Y471827D01*
X459586Y471826D01*
X459956Y470769D01*
X459956Y470768D01*
X460552Y469820D01*
X460553Y469820D01*
X460553Y469819D01*
X461344Y469028D01*
X461345Y469027D01*
X462293Y468431D01*
X462294Y468431D01*
X463351Y468061D01*
X463352Y468061D01*
X464464Y467935D01*
X464465Y467936D01*
X464465Y467935D01*
X476465Y467935D01*
X476470Y467939D01*
G37*
%LPC*%
G36*
X533819Y470030D02*
X533819Y470030D01*
X533218Y470279D01*
X532701Y470676D01*
X532304Y471193D01*
X532055Y471794D01*
X531970Y472440D01*
X531970Y478940D01*
X532055Y479586D01*
X532304Y480188D01*
X532701Y480704D01*
X533218Y481101D01*
X533819Y481350D01*
X534465Y481435D01*
X535111Y481350D01*
X535713Y481101D01*
X536229Y480704D01*
X536626Y480188D01*
X536875Y479586D01*
X536960Y478940D01*
X536960Y472440D01*
X536924Y472168D01*
X536924Y472163D01*
X536923Y472159D01*
X536923Y472154D01*
X536922Y472149D01*
X536921Y472144D01*
X536921Y472140D01*
X536920Y472135D01*
X536919Y472130D01*
X536919Y472125D01*
X536918Y472121D01*
X536918Y472116D01*
X536917Y472111D01*
X536916Y472106D01*
X536916Y472102D01*
X536915Y472097D01*
X536914Y472092D01*
X536914Y472087D01*
X536913Y472083D01*
X536913Y472078D01*
X536912Y472073D01*
X536911Y472068D01*
X536911Y472064D01*
X536910Y472059D01*
X536909Y472054D01*
X536909Y472049D01*
X536908Y472045D01*
X536908Y472040D01*
X536907Y472035D01*
X536906Y472030D01*
X536906Y472026D01*
X536905Y472021D01*
X536875Y471794D01*
X536626Y471193D01*
X536229Y470676D01*
X535713Y470279D01*
X535111Y470030D01*
X534465Y469945D01*
X533819Y470030D01*
G37*
%LPD*%
%LPC*%
G36*
X463819Y470030D02*
X463819Y470030D01*
X463218Y470279D01*
X462701Y470676D01*
X462304Y471193D01*
X462055Y471794D01*
X461970Y472440D01*
X461970Y478940D01*
X461970Y478945D01*
X461971Y478945D01*
X461970Y478945D01*
X461971Y478950D01*
X461972Y478955D01*
X461972Y478959D01*
X461973Y478964D01*
X461974Y478969D01*
X461974Y478974D01*
X461975Y478978D01*
X461975Y478983D01*
X461976Y478983D01*
X461976Y478988D01*
X461977Y478993D01*
X461977Y478997D01*
X461978Y479002D01*
X462014Y479278D01*
X462015Y479282D01*
X462016Y479287D01*
X462016Y479292D01*
X462017Y479297D01*
X462017Y479301D01*
X462018Y479306D01*
X462019Y479311D01*
X462019Y479316D01*
X462020Y479320D01*
X462021Y479325D01*
X462021Y479330D01*
X462022Y479335D01*
X462022Y479339D01*
X462023Y479344D01*
X462024Y479349D01*
X462024Y479354D01*
X462025Y479358D01*
X462026Y479363D01*
X462026Y479368D01*
X462027Y479373D01*
X462027Y479377D01*
X462028Y479382D01*
X462029Y479387D01*
X462029Y479392D01*
X462030Y479396D01*
X462031Y479401D01*
X462031Y479406D01*
X462032Y479411D01*
X462032Y479415D01*
X462033Y479420D01*
X462034Y479425D01*
X462034Y479430D01*
X462055Y479586D01*
X462304Y480188D01*
X462701Y480704D01*
X463218Y481101D01*
X463819Y481350D01*
X464465Y481435D01*
X465111Y481350D01*
X465713Y481101D01*
X466229Y480704D01*
X466626Y480188D01*
X466875Y479586D01*
X466960Y478940D01*
X466960Y472440D01*
X466875Y471794D01*
X466626Y471193D01*
X466229Y470676D01*
X465713Y470279D01*
X465111Y470030D01*
X464465Y469945D01*
X463819Y470030D01*
G37*
%LPD*%
D10*
X301375Y643325D02*
X307225Y643325D01*
X307225Y641675D01*
X301375Y641675D01*
X301375Y643325D01*
X301375Y642197D02*
X307225Y642197D01*
X307225Y642719D02*
X301375Y642719D01*
X301375Y643241D02*
X307225Y643241D01*
X307225Y647325D02*
X301375Y647325D01*
X307225Y647325D02*
X307225Y645675D01*
X301375Y645675D01*
X301375Y647325D01*
X301375Y646197D02*
X307225Y646197D01*
X307225Y646719D02*
X301375Y646719D01*
X301375Y647241D02*
X307225Y647241D01*
X307225Y651325D02*
X301375Y651325D01*
X307225Y651325D02*
X307225Y649675D01*
X301375Y649675D01*
X301375Y651325D01*
X301375Y650197D02*
X307225Y650197D01*
X307225Y650719D02*
X301375Y650719D01*
X301375Y651241D02*
X307225Y651241D01*
X307225Y655325D02*
X301375Y655325D01*
X307225Y655325D02*
X307225Y653675D01*
X301375Y653675D01*
X301375Y655325D01*
X301375Y654197D02*
X307225Y654197D01*
X307225Y654719D02*
X301375Y654719D01*
X301375Y655241D02*
X307225Y655241D01*
X307225Y659325D02*
X301375Y659325D01*
X307225Y659325D02*
X307225Y657675D01*
X301375Y657675D01*
X301375Y659325D01*
X301375Y658197D02*
X307225Y658197D01*
X307225Y658719D02*
X301375Y658719D01*
X301375Y659241D02*
X307225Y659241D01*
X307225Y663325D02*
X301375Y663325D01*
X307225Y663325D02*
X307225Y661675D01*
X301375Y661675D01*
X301375Y663325D01*
X301375Y662197D02*
X307225Y662197D01*
X307225Y662719D02*
X301375Y662719D01*
X301375Y663241D02*
X307225Y663241D01*
X298025Y665025D02*
X298025Y670875D01*
X299675Y670875D01*
X299675Y665025D01*
X298025Y665025D01*
X298025Y665547D02*
X299675Y665547D01*
X299675Y666069D02*
X298025Y666069D01*
X298025Y666591D02*
X299675Y666591D01*
X299675Y667113D02*
X298025Y667113D01*
X298025Y667635D02*
X299675Y667635D01*
X299675Y668157D02*
X298025Y668157D01*
X298025Y668679D02*
X299675Y668679D01*
X299675Y669201D02*
X298025Y669201D01*
X298025Y669723D02*
X299675Y669723D01*
X299675Y670245D02*
X298025Y670245D01*
X298025Y670767D02*
X299675Y670767D01*
X294025Y670875D02*
X294025Y665025D01*
X294025Y670875D02*
X295675Y670875D01*
X295675Y665025D01*
X294025Y665025D01*
X294025Y665547D02*
X295675Y665547D01*
X295675Y666069D02*
X294025Y666069D01*
X294025Y666591D02*
X295675Y666591D01*
X295675Y667113D02*
X294025Y667113D01*
X294025Y667635D02*
X295675Y667635D01*
X295675Y668157D02*
X294025Y668157D01*
X294025Y668679D02*
X295675Y668679D01*
X295675Y669201D02*
X294025Y669201D01*
X294025Y669723D02*
X295675Y669723D01*
X295675Y670245D02*
X294025Y670245D01*
X294025Y670767D02*
X295675Y670767D01*
X290025Y670875D02*
X290025Y665025D01*
X290025Y670875D02*
X291675Y670875D01*
X291675Y665025D01*
X290025Y665025D01*
X290025Y665547D02*
X291675Y665547D01*
X291675Y666069D02*
X290025Y666069D01*
X290025Y666591D02*
X291675Y666591D01*
X291675Y667113D02*
X290025Y667113D01*
X290025Y667635D02*
X291675Y667635D01*
X291675Y668157D02*
X290025Y668157D01*
X290025Y668679D02*
X291675Y668679D01*
X291675Y669201D02*
X290025Y669201D01*
X290025Y669723D02*
X291675Y669723D01*
X291675Y670245D02*
X290025Y670245D01*
X290025Y670767D02*
X291675Y670767D01*
X286025Y670875D02*
X286025Y665025D01*
X286025Y670875D02*
X287675Y670875D01*
X287675Y665025D01*
X286025Y665025D01*
X286025Y665547D02*
X287675Y665547D01*
X287675Y666069D02*
X286025Y666069D01*
X286025Y666591D02*
X287675Y666591D01*
X287675Y667113D02*
X286025Y667113D01*
X286025Y667635D02*
X287675Y667635D01*
X287675Y668157D02*
X286025Y668157D01*
X286025Y668679D02*
X287675Y668679D01*
X287675Y669201D02*
X286025Y669201D01*
X286025Y669723D02*
X287675Y669723D01*
X287675Y670245D02*
X286025Y670245D01*
X286025Y670767D02*
X287675Y670767D01*
X282025Y670875D02*
X282025Y665025D01*
X282025Y670875D02*
X283675Y670875D01*
X283675Y665025D01*
X282025Y665025D01*
X282025Y665547D02*
X283675Y665547D01*
X283675Y666069D02*
X282025Y666069D01*
X282025Y666591D02*
X283675Y666591D01*
X283675Y667113D02*
X282025Y667113D01*
X282025Y667635D02*
X283675Y667635D01*
X283675Y668157D02*
X282025Y668157D01*
X282025Y668679D02*
X283675Y668679D01*
X283675Y669201D02*
X282025Y669201D01*
X282025Y669723D02*
X283675Y669723D01*
X283675Y670245D02*
X282025Y670245D01*
X282025Y670767D02*
X283675Y670767D01*
X278025Y670875D02*
X278025Y665025D01*
X278025Y670875D02*
X279675Y670875D01*
X279675Y665025D01*
X278025Y665025D01*
X278025Y665547D02*
X279675Y665547D01*
X279675Y666069D02*
X278025Y666069D01*
X278025Y666591D02*
X279675Y666591D01*
X279675Y667113D02*
X278025Y667113D01*
X278025Y667635D02*
X279675Y667635D01*
X279675Y668157D02*
X278025Y668157D01*
X278025Y668679D02*
X279675Y668679D01*
X279675Y669201D02*
X278025Y669201D01*
X278025Y669723D02*
X279675Y669723D01*
X279675Y670245D02*
X278025Y670245D01*
X278025Y670767D02*
X279675Y670767D01*
X276325Y661675D02*
X270475Y661675D01*
X270475Y663325D01*
X276325Y663325D01*
X276325Y661675D01*
X276325Y662197D02*
X270475Y662197D01*
X270475Y662719D02*
X276325Y662719D01*
X276325Y663241D02*
X270475Y663241D01*
X270475Y657675D02*
X276325Y657675D01*
X270475Y657675D02*
X270475Y659325D01*
X276325Y659325D01*
X276325Y657675D01*
X276325Y658197D02*
X270475Y658197D01*
X270475Y658719D02*
X276325Y658719D01*
X276325Y659241D02*
X270475Y659241D01*
X270475Y653675D02*
X276325Y653675D01*
X270475Y653675D02*
X270475Y655325D01*
X276325Y655325D01*
X276325Y653675D01*
X276325Y654197D02*
X270475Y654197D01*
X270475Y654719D02*
X276325Y654719D01*
X276325Y655241D02*
X270475Y655241D01*
X270475Y649675D02*
X276325Y649675D01*
X270475Y649675D02*
X270475Y651325D01*
X276325Y651325D01*
X276325Y649675D01*
X276325Y650197D02*
X270475Y650197D01*
X270475Y650719D02*
X276325Y650719D01*
X276325Y651241D02*
X270475Y651241D01*
X270475Y645675D02*
X276325Y645675D01*
X270475Y645675D02*
X270475Y647325D01*
X276325Y647325D01*
X276325Y645675D01*
X276325Y646197D02*
X270475Y646197D01*
X270475Y646719D02*
X276325Y646719D01*
X276325Y647241D02*
X270475Y647241D01*
X270475Y641675D02*
X276325Y641675D01*
X270475Y641675D02*
X270475Y643325D01*
X276325Y643325D01*
X276325Y641675D01*
X276325Y642197D02*
X270475Y642197D01*
X270475Y642719D02*
X276325Y642719D01*
X276325Y643241D02*
X270475Y643241D01*
X279675Y639975D02*
X279675Y634125D01*
X278025Y634125D01*
X278025Y639975D01*
X279675Y639975D01*
X279675Y634647D02*
X278025Y634647D01*
X278025Y635169D02*
X279675Y635169D01*
X279675Y635691D02*
X278025Y635691D01*
X278025Y636213D02*
X279675Y636213D01*
X279675Y636735D02*
X278025Y636735D01*
X278025Y637257D02*
X279675Y637257D01*
X279675Y637779D02*
X278025Y637779D01*
X278025Y638301D02*
X279675Y638301D01*
X279675Y638823D02*
X278025Y638823D01*
X278025Y639345D02*
X279675Y639345D01*
X279675Y639867D02*
X278025Y639867D01*
X283675Y639975D02*
X283675Y634125D01*
X282025Y634125D01*
X282025Y639975D01*
X283675Y639975D01*
X283675Y634647D02*
X282025Y634647D01*
X282025Y635169D02*
X283675Y635169D01*
X283675Y635691D02*
X282025Y635691D01*
X282025Y636213D02*
X283675Y636213D01*
X283675Y636735D02*
X282025Y636735D01*
X282025Y637257D02*
X283675Y637257D01*
X283675Y637779D02*
X282025Y637779D01*
X282025Y638301D02*
X283675Y638301D01*
X283675Y638823D02*
X282025Y638823D01*
X282025Y639345D02*
X283675Y639345D01*
X283675Y639867D02*
X282025Y639867D01*
X287675Y639975D02*
X287675Y634125D01*
X286025Y634125D01*
X286025Y639975D01*
X287675Y639975D01*
X287675Y634647D02*
X286025Y634647D01*
X286025Y635169D02*
X287675Y635169D01*
X287675Y635691D02*
X286025Y635691D01*
X286025Y636213D02*
X287675Y636213D01*
X287675Y636735D02*
X286025Y636735D01*
X286025Y637257D02*
X287675Y637257D01*
X287675Y637779D02*
X286025Y637779D01*
X286025Y638301D02*
X287675Y638301D01*
X287675Y638823D02*
X286025Y638823D01*
X286025Y639345D02*
X287675Y639345D01*
X287675Y639867D02*
X286025Y639867D01*
X291675Y639975D02*
X291675Y634125D01*
X290025Y634125D01*
X290025Y639975D01*
X291675Y639975D01*
X291675Y634647D02*
X290025Y634647D01*
X290025Y635169D02*
X291675Y635169D01*
X291675Y635691D02*
X290025Y635691D01*
X290025Y636213D02*
X291675Y636213D01*
X291675Y636735D02*
X290025Y636735D01*
X290025Y637257D02*
X291675Y637257D01*
X291675Y637779D02*
X290025Y637779D01*
X290025Y638301D02*
X291675Y638301D01*
X291675Y638823D02*
X290025Y638823D01*
X290025Y639345D02*
X291675Y639345D01*
X291675Y639867D02*
X290025Y639867D01*
X295675Y639975D02*
X295675Y634125D01*
X294025Y634125D01*
X294025Y639975D01*
X295675Y639975D01*
X295675Y634647D02*
X294025Y634647D01*
X294025Y635169D02*
X295675Y635169D01*
X295675Y635691D02*
X294025Y635691D01*
X294025Y636213D02*
X295675Y636213D01*
X295675Y636735D02*
X294025Y636735D01*
X294025Y637257D02*
X295675Y637257D01*
X295675Y637779D02*
X294025Y637779D01*
X294025Y638301D02*
X295675Y638301D01*
X295675Y638823D02*
X294025Y638823D01*
X294025Y639345D02*
X295675Y639345D01*
X295675Y639867D02*
X294025Y639867D01*
X299675Y639975D02*
X299675Y634125D01*
X298025Y634125D01*
X298025Y639975D01*
X299675Y639975D01*
X299675Y634647D02*
X298025Y634647D01*
X298025Y635169D02*
X299675Y635169D01*
X299675Y635691D02*
X298025Y635691D01*
X298025Y636213D02*
X299675Y636213D01*
X299675Y636735D02*
X298025Y636735D01*
X298025Y637257D02*
X299675Y637257D01*
X299675Y637779D02*
X298025Y637779D01*
X298025Y638301D02*
X299675Y638301D01*
X299675Y638823D02*
X298025Y638823D01*
X298025Y639345D02*
X299675Y639345D01*
X299675Y639867D02*
X298025Y639867D01*
D11*
X346800Y878100D03*
X346800Y865400D03*
X346800Y852700D03*
X346800Y840000D03*
X346800Y827300D03*
X346800Y814600D03*
X346800Y801900D03*
X346800Y789200D03*
X346800Y776500D03*
X346800Y763800D03*
X346800Y751100D03*
X346800Y738400D03*
X346800Y725700D03*
X346800Y713000D03*
D12*
X374650Y703000D03*
X387350Y703000D03*
X400050Y703000D03*
X412750Y703000D03*
X425450Y703000D03*
X438150Y703000D03*
X450850Y703000D03*
X463550Y703000D03*
X476250Y703000D03*
X488950Y703000D03*
D11*
X516800Y713000D03*
X516800Y725700D03*
X516800Y738400D03*
X516800Y751100D03*
X516800Y763800D03*
X516800Y776500D03*
X516800Y789200D03*
X516800Y801900D03*
X516800Y814600D03*
X516800Y827300D03*
X516800Y840000D03*
X516800Y852700D03*
X516800Y865400D03*
X516800Y878100D03*
D13*
X403450Y821450D03*
X421800Y821450D03*
X440150Y821450D03*
X403450Y803100D03*
X421800Y803100D03*
X440150Y803100D03*
X403450Y784750D03*
X421800Y784750D03*
X440150Y784750D03*
D14*
X326725Y542025D03*
X326725Y548525D03*
X326725Y555025D03*
X326725Y561525D03*
X326725Y568025D03*
X326725Y574525D03*
X326725Y581025D03*
X326725Y587525D03*
X326725Y594025D03*
X326725Y600525D03*
X326725Y607025D03*
X326725Y613525D03*
X254225Y600525D03*
X254225Y594025D03*
X254225Y587525D03*
X254225Y581025D03*
X254225Y574525D03*
X254225Y568025D03*
X254225Y561525D03*
X254225Y555025D03*
X254225Y548525D03*
X254225Y542025D03*
X254225Y607025D03*
X254225Y613525D03*
D15*
X513718Y518261D03*
X491718Y518261D03*
D16*
X507767Y528014D03*
X507767Y542014D03*
X491765Y528014D03*
X491765Y542014D03*
X524956Y528023D03*
X524956Y542023D03*
D17*
X464465Y483390D02*
X464465Y481690D01*
X534465Y469690D02*
X534465Y467990D01*
D18*
X486465Y502690D03*
X492965Y502690D03*
X499465Y502690D03*
X505965Y502690D03*
X512465Y502690D03*
D19*
X489465Y475690D03*
X509465Y475690D03*
D20*
X484081Y641970D02*
X464791Y641970D01*
X464791Y645660D01*
X484081Y645660D01*
X484081Y641970D01*
X484081Y642359D02*
X464791Y642359D01*
X464791Y642748D02*
X484081Y642748D01*
X484081Y643137D02*
X464791Y643137D01*
X464791Y643526D02*
X484081Y643526D01*
X484081Y643915D02*
X464791Y643915D01*
X464791Y644304D02*
X484081Y644304D01*
X484081Y644693D02*
X464791Y644693D01*
X464791Y645082D02*
X484081Y645082D01*
X484081Y645471D02*
X464791Y645471D01*
X464791Y635620D02*
X484081Y635620D01*
X464791Y635620D02*
X464791Y639310D01*
X484081Y639310D01*
X484081Y635620D01*
X484081Y636009D02*
X464791Y636009D01*
X464791Y636398D02*
X484081Y636398D01*
X484081Y636787D02*
X464791Y636787D01*
X464791Y637176D02*
X484081Y637176D01*
X484081Y637565D02*
X464791Y637565D01*
X464791Y637954D02*
X484081Y637954D01*
X484081Y638343D02*
X464791Y638343D01*
X464791Y638732D02*
X484081Y638732D01*
X484081Y639121D02*
X464791Y639121D01*
X464791Y629270D02*
X484081Y629270D01*
X464791Y629270D02*
X464791Y632960D01*
X484081Y632960D01*
X484081Y629270D01*
X484081Y629659D02*
X464791Y629659D01*
X464791Y630048D02*
X484081Y630048D01*
X484081Y630437D02*
X464791Y630437D01*
X464791Y630826D02*
X484081Y630826D01*
X484081Y631215D02*
X464791Y631215D01*
X464791Y631604D02*
X484081Y631604D01*
X484081Y631993D02*
X464791Y631993D01*
X464791Y632382D02*
X484081Y632382D01*
X484081Y632771D02*
X464791Y632771D01*
X464791Y622920D02*
X484081Y622920D01*
X464791Y622920D02*
X464791Y626610D01*
X484081Y626610D01*
X484081Y622920D01*
X484081Y623309D02*
X464791Y623309D01*
X464791Y623698D02*
X484081Y623698D01*
X484081Y624087D02*
X464791Y624087D01*
X464791Y624476D02*
X484081Y624476D01*
X484081Y624865D02*
X464791Y624865D01*
X464791Y625254D02*
X484081Y625254D01*
X484081Y625643D02*
X464791Y625643D01*
X464791Y626032D02*
X484081Y626032D01*
X484081Y626421D02*
X464791Y626421D01*
X464791Y616570D02*
X484081Y616570D01*
X464791Y616570D02*
X464791Y620260D01*
X484081Y620260D01*
X484081Y616570D01*
X484081Y616959D02*
X464791Y616959D01*
X464791Y617348D02*
X484081Y617348D01*
X484081Y617737D02*
X464791Y617737D01*
X464791Y618126D02*
X484081Y618126D01*
X484081Y618515D02*
X464791Y618515D01*
X464791Y618904D02*
X484081Y618904D01*
X484081Y619293D02*
X464791Y619293D01*
X464791Y619682D02*
X484081Y619682D01*
X484081Y620071D02*
X464791Y620071D01*
X464791Y610220D02*
X484081Y610220D01*
X464791Y610220D02*
X464791Y613910D01*
X484081Y613910D01*
X484081Y610220D01*
X484081Y610609D02*
X464791Y610609D01*
X464791Y610998D02*
X484081Y610998D01*
X484081Y611387D02*
X464791Y611387D01*
X464791Y611776D02*
X484081Y611776D01*
X484081Y612165D02*
X464791Y612165D01*
X464791Y612554D02*
X484081Y612554D01*
X484081Y612943D02*
X464791Y612943D01*
X464791Y613332D02*
X484081Y613332D01*
X484081Y613721D02*
X464791Y613721D01*
X464791Y603870D02*
X484081Y603870D01*
X464791Y603870D02*
X464791Y607560D01*
X484081Y607560D01*
X484081Y603870D01*
X484081Y604259D02*
X464791Y604259D01*
X464791Y604648D02*
X484081Y604648D01*
X484081Y605037D02*
X464791Y605037D01*
X464791Y605426D02*
X484081Y605426D01*
X484081Y605815D02*
X464791Y605815D01*
X464791Y606204D02*
X484081Y606204D01*
X484081Y606593D02*
X464791Y606593D01*
X464791Y606982D02*
X484081Y606982D01*
X484081Y607371D02*
X464791Y607371D01*
X464791Y597520D02*
X484081Y597520D01*
X464791Y597520D02*
X464791Y601210D01*
X484081Y601210D01*
X484081Y597520D01*
X484081Y597909D02*
X464791Y597909D01*
X464791Y598298D02*
X484081Y598298D01*
X484081Y598687D02*
X464791Y598687D01*
X464791Y599076D02*
X484081Y599076D01*
X484081Y599465D02*
X464791Y599465D01*
X464791Y599854D02*
X484081Y599854D01*
X484081Y600243D02*
X464791Y600243D01*
X464791Y600632D02*
X484081Y600632D01*
X484081Y601021D02*
X464791Y601021D01*
X464791Y591170D02*
X484081Y591170D01*
X464791Y591170D02*
X464791Y594860D01*
X484081Y594860D01*
X484081Y591170D01*
X484081Y591559D02*
X464791Y591559D01*
X464791Y591948D02*
X484081Y591948D01*
X484081Y592337D02*
X464791Y592337D01*
X464791Y592726D02*
X484081Y592726D01*
X484081Y593115D02*
X464791Y593115D01*
X464791Y593504D02*
X484081Y593504D01*
X484081Y593893D02*
X464791Y593893D01*
X464791Y594282D02*
X484081Y594282D01*
X484081Y594671D02*
X464791Y594671D01*
X464791Y584820D02*
X484081Y584820D01*
X464791Y584820D02*
X464791Y588510D01*
X484081Y588510D01*
X484081Y584820D01*
X484081Y585209D02*
X464791Y585209D01*
X464791Y585598D02*
X484081Y585598D01*
X484081Y585987D02*
X464791Y585987D01*
X464791Y586376D02*
X484081Y586376D01*
X484081Y586765D02*
X464791Y586765D01*
X464791Y587154D02*
X484081Y587154D01*
X484081Y587543D02*
X464791Y587543D01*
X464791Y587932D02*
X484081Y587932D01*
X484081Y588321D02*
X464791Y588321D01*
X514191Y588510D02*
X533481Y588510D01*
X533481Y584820D01*
X514191Y584820D01*
X514191Y588510D01*
X514191Y585209D02*
X533481Y585209D01*
X533481Y585598D02*
X514191Y585598D01*
X514191Y585987D02*
X533481Y585987D01*
X533481Y586376D02*
X514191Y586376D01*
X514191Y586765D02*
X533481Y586765D01*
X533481Y587154D02*
X514191Y587154D01*
X514191Y587543D02*
X533481Y587543D01*
X533481Y587932D02*
X514191Y587932D01*
X514191Y588321D02*
X533481Y588321D01*
X533481Y594860D02*
X514191Y594860D01*
X533481Y594860D02*
X533481Y591170D01*
X514191Y591170D01*
X514191Y594860D01*
X514191Y591559D02*
X533481Y591559D01*
X533481Y591948D02*
X514191Y591948D01*
X514191Y592337D02*
X533481Y592337D01*
X533481Y592726D02*
X514191Y592726D01*
X514191Y593115D02*
X533481Y593115D01*
X533481Y593504D02*
X514191Y593504D01*
X514191Y593893D02*
X533481Y593893D01*
X533481Y594282D02*
X514191Y594282D01*
X514191Y594671D02*
X533481Y594671D01*
X533481Y601210D02*
X514191Y601210D01*
X533481Y601210D02*
X533481Y597520D01*
X514191Y597520D01*
X514191Y601210D01*
X514191Y597909D02*
X533481Y597909D01*
X533481Y598298D02*
X514191Y598298D01*
X514191Y598687D02*
X533481Y598687D01*
X533481Y599076D02*
X514191Y599076D01*
X514191Y599465D02*
X533481Y599465D01*
X533481Y599854D02*
X514191Y599854D01*
X514191Y600243D02*
X533481Y600243D01*
X533481Y600632D02*
X514191Y600632D01*
X514191Y601021D02*
X533481Y601021D01*
X533481Y607560D02*
X514191Y607560D01*
X533481Y607560D02*
X533481Y603870D01*
X514191Y603870D01*
X514191Y607560D01*
X514191Y604259D02*
X533481Y604259D01*
X533481Y604648D02*
X514191Y604648D01*
X514191Y605037D02*
X533481Y605037D01*
X533481Y605426D02*
X514191Y605426D01*
X514191Y605815D02*
X533481Y605815D01*
X533481Y606204D02*
X514191Y606204D01*
X514191Y606593D02*
X533481Y606593D01*
X533481Y606982D02*
X514191Y606982D01*
X514191Y607371D02*
X533481Y607371D01*
X533481Y613910D02*
X514191Y613910D01*
X533481Y613910D02*
X533481Y610220D01*
X514191Y610220D01*
X514191Y613910D01*
X514191Y610609D02*
X533481Y610609D01*
X533481Y610998D02*
X514191Y610998D01*
X514191Y611387D02*
X533481Y611387D01*
X533481Y611776D02*
X514191Y611776D01*
X514191Y612165D02*
X533481Y612165D01*
X533481Y612554D02*
X514191Y612554D01*
X514191Y612943D02*
X533481Y612943D01*
X533481Y613332D02*
X514191Y613332D01*
X514191Y613721D02*
X533481Y613721D01*
X533481Y620260D02*
X514191Y620260D01*
X533481Y620260D02*
X533481Y616570D01*
X514191Y616570D01*
X514191Y620260D01*
X514191Y616959D02*
X533481Y616959D01*
X533481Y617348D02*
X514191Y617348D01*
X514191Y617737D02*
X533481Y617737D01*
X533481Y618126D02*
X514191Y618126D01*
X514191Y618515D02*
X533481Y618515D01*
X533481Y618904D02*
X514191Y618904D01*
X514191Y619293D02*
X533481Y619293D01*
X533481Y619682D02*
X514191Y619682D01*
X514191Y620071D02*
X533481Y620071D01*
X533481Y626610D02*
X514191Y626610D01*
X533481Y626610D02*
X533481Y622920D01*
X514191Y622920D01*
X514191Y626610D01*
X514191Y623309D02*
X533481Y623309D01*
X533481Y623698D02*
X514191Y623698D01*
X514191Y624087D02*
X533481Y624087D01*
X533481Y624476D02*
X514191Y624476D01*
X514191Y624865D02*
X533481Y624865D01*
X533481Y625254D02*
X514191Y625254D01*
X514191Y625643D02*
X533481Y625643D01*
X533481Y626032D02*
X514191Y626032D01*
X514191Y626421D02*
X533481Y626421D01*
X533481Y632960D02*
X514191Y632960D01*
X533481Y632960D02*
X533481Y629270D01*
X514191Y629270D01*
X514191Y632960D01*
X514191Y629659D02*
X533481Y629659D01*
X533481Y630048D02*
X514191Y630048D01*
X514191Y630437D02*
X533481Y630437D01*
X533481Y630826D02*
X514191Y630826D01*
X514191Y631215D02*
X533481Y631215D01*
X533481Y631604D02*
X514191Y631604D01*
X514191Y631993D02*
X533481Y631993D01*
X533481Y632382D02*
X514191Y632382D01*
X514191Y632771D02*
X533481Y632771D01*
X533481Y639310D02*
X514191Y639310D01*
X533481Y639310D02*
X533481Y635620D01*
X514191Y635620D01*
X514191Y639310D01*
X514191Y636009D02*
X533481Y636009D01*
X533481Y636398D02*
X514191Y636398D01*
X514191Y636787D02*
X533481Y636787D01*
X533481Y637176D02*
X514191Y637176D01*
X514191Y637565D02*
X533481Y637565D01*
X533481Y637954D02*
X514191Y637954D01*
X514191Y638343D02*
X533481Y638343D01*
X533481Y638732D02*
X514191Y638732D01*
X514191Y639121D02*
X533481Y639121D01*
X533481Y645660D02*
X514191Y645660D01*
X533481Y645660D02*
X533481Y641970D01*
X514191Y641970D01*
X514191Y645660D01*
X514191Y642359D02*
X533481Y642359D01*
X533481Y642748D02*
X514191Y642748D01*
X514191Y643137D02*
X533481Y643137D01*
X533481Y643526D02*
X514191Y643526D01*
X514191Y643915D02*
X533481Y643915D01*
X533481Y644304D02*
X514191Y644304D01*
X514191Y644693D02*
X533481Y644693D01*
X533481Y645082D02*
X514191Y645082D01*
X514191Y645471D02*
X533481Y645471D01*
D21*
X547420Y665865D03*
X547420Y729865D03*
X585420Y665865D03*
X585420Y729865D03*
X547420Y757940D03*
X547420Y821940D03*
X585420Y757940D03*
X585420Y821940D03*
D22*
X551800Y623010D03*
X575300Y623010D03*
X551800Y593502D03*
X575300Y593502D03*
X551954Y561542D03*
X575454Y561542D03*
D23*
X400024Y527887D03*
X445744Y527887D03*
D24*
X422884Y594435D03*
M02*
