M48
;GenerationSoftware,Autodesk,EAGLE,9.6.2*%
;CreationDate,2021-01-20T15:23:21Z*%
FMAT,2
ICI,OFF
METRIC,TZ,000.000
T10C0.200
T9C0.350
T8C0.500
T7C0.550
T6C1.016
T5C1.020
T4C1.100
T3C4.000
T2C4.500
%
G90
M71
T2
X7463Y78831
X7768Y71631
T3
X6162Y49230
X6000Y86048
X57000Y86048
X57162Y49230
T4
X13497Y53347
X8418Y53347
X10957Y53347
X16037Y53347
T5
X10957Y63190
X10957Y60650
X13497Y60650
X16037Y60650
X18578Y60650
X21118Y60650
T6
X42708Y49537
X40168Y49537
X11592Y49537
X37628Y49537
X30007Y49537
X32547Y49537
X35088Y49537
X21590Y71755
X24130Y86043
X16673Y49537
X24292Y49537
X21753Y49537
X19213Y49537
X29210Y78943
X26670Y78943
X24130Y78943
X16510Y78943
X19050Y78943
X21590Y78943
X29210Y86043
X26670Y86043
X16510Y86043
X19050Y86043
X21590Y86043
X29210Y71755
X26670Y71755
X24130Y71755
X16510Y71755
X14132Y49537
X19050Y71755
T7
X47435Y50275
X52461Y50266
T8
X53446Y47569
X46446Y47569
T9
X50142Y52801
X51401Y49530
X54458Y53386
X43276Y53182
X48031Y82969
X39421Y64114
X54038Y71295
X51680Y71300
X52204Y55448
X49287Y55517
X57530Y62301
X53677Y62476
X53416Y57836
X47444Y58566
X55283Y64142
X55306Y60905
X56197Y67310
X55880Y75883
X44729Y65657
X48996Y65723
X42647Y65481
X49076Y67623
X45263Y63906
X49073Y63957
X57226Y57660
X30480Y76934
X32067Y76934
X38374Y64064
X38405Y65100
X28927Y68673
X40477Y72934
X58542Y66587
X34680Y87810
X40345Y82145
X40345Y78475
X42180Y78475
X44015Y78475
X42228Y80310
X26670Y64135
X28380Y61851
X58542Y75794
X54038Y69295
X54102Y77867
X49200Y48077
X55326Y57660
X29413Y61862
X47762Y54868
X56458Y53386
X56390Y55438
X50777Y54201
X48566Y50269
X41276Y55646
X28463Y56636
X40437Y64033
X28499Y57901
X51680Y76380
X28448Y55728
X51680Y72570
X29172Y59865
X51680Y81460
X27756Y57215
X51680Y75110
X26489Y66040
X51680Y73840
X27737Y58595
X51680Y77650
X28524Y59227
X51680Y78920
X33973Y87521
X26533Y58102
X32672Y55688
X33485Y59715
X44983Y59614
X27622Y62547
X31066Y64121
X58293Y69345
X57206Y60905
X57183Y64142
X30192Y68356
X40025Y60599
X40025Y58161
X43302Y61982
X45009Y61951
X39649Y62001
X39563Y56718
X58420Y77917
X44983Y56871
X42308Y56879
X41605Y60909
X43688Y60858
X43688Y58826
X41580Y58801
X46150Y63111
X36592Y86678
X32360Y85065
X53703Y60597
X53924Y56769
X52045Y53502
X26883Y56802
X40002Y52789
X48737Y61206
X51090Y61841
X38025Y60599
X38025Y58161
X43302Y63982
X39649Y71831
X41276Y53182
X24130Y56832
X21118Y58102
X24312Y58162
X50368Y87833
X44015Y82145
T10
X43098Y78475
X41263Y78475
X44015Y79393
X42180Y79393
X40345Y79393
X43098Y80310
X41263Y80310
X44015Y81228
X42180Y81228
X40345Y81228
X43098Y82145
X41263Y82145
M30